<?xml version="1.0" encoding="utf-8"?>
<!-- Generator: Adobe Illustrator 22.0.0, SVG Export Plug-In . SVG Version: 6.00 Build 0)  -->
<svg version="1.1" id="Layer_1" xmlns="http://www.w3.org/2000/svg" xmlns:xlink="http://www.w3.org/1999/xlink" x="0px" y="0px"
	 viewBox="0 0 900 900" style="enable-background:new 0 0 900 900;" xml:space="preserve">
<style type="text/css">
	.st0{fill:#07C632;}
	.st1{fill:#12284B;}
	.st2{fill:#FFC52F;}
	.st3{fill:none;stroke:#12284C;stroke-width:5;}
</style>
<path class="st0" d="M459.7,130.4l8.2,0.7c0.7,0.1,1.3,0.3,1.7,0.8c0.4,0.5,0.6,1.1,0.5,1.8l-0.5,5.6c-0.1,0.7-0.3,1.3-0.8,1.7
	c-0.5,0.4-1.1,0.6-1.8,0.5l-8.2-0.7L459.7,130.4z M452,122.4l-3.1,38.4l8.2,0.7l1.1-13.2l9.6,0.8c1.4,0.1,2.7,0,3.8-0.4
	c1.2-0.4,2.2-0.9,3.1-1.7c0.9-0.8,1.6-1.7,2.2-2.8c0.5-1.1,0.9-2.3,1-3.7l0.5-6.6c0.1-1.4,0-2.7-0.4-3.8c-0.4-1.2-0.9-2.2-1.7-3.1
	c-0.8-0.9-1.7-1.6-2.8-2.2c-1.1-0.5-2.3-0.9-3.7-1L452,122.4z M444.8,121.5l-7.9,0.4l-4.9,25.8l-0.2,0l-7.3-25.2l-8.5,0.4l-4.9,25.8
	l-0.2,0l-7.3-25.2L395,124l12.1,38l8.5-0.4l4.9-25.8l0.2,0l7.3,25.2l8.5-0.4L444.8,121.5z M485.2,125.8l-5.9,38l8.2,1.3l5.9-38
	L485.2,125.8z M378.8,134.7c1.1,0.2,0.7,0,1.4,0.4c0.5,0.4,0.9,0.9,1,1.6l3.5,18.5c0.1,0.7,0,1.3-0.3,1.9c-0.4,0.5-0.9,0.9-1.6,1
	l-7.8,1.5c-0.7,0.1-1.3,0-1.9-0.3c-0.5-0.4-0.9-0.9-1-1.6l-3.5-18.5c-0.1-0.7,0-1.3,0.3-1.9c0.4-0.5,0.9-0.9,1.6-1l7.8-1.5
	L378.8,134.7z M379.7,127.1c-0.5,0-1,0.1-1.4,0.2l-10.5,2c-1.4,0.3-2.6,0.7-3.6,1.4c-1,0.7-1.9,1.5-2.5,2.4c-0.7,1-1.1,2-1.3,3.3
	c-0.2,1.2-0.2,2.5,0,3.9l3.7,19.4c0.3,1.4,0.7,2.6,1.4,3.6c0.7,1,1.5,1.9,2.4,2.5c1,0.7,2,1.1,3.3,1.3c1.2,0.2,2.5,0.2,3.9,0l10.5-2
	c1.4-0.3,2.6-0.7,3.6-1.4c1-0.7,1.9-1.5,2.5-2.4c0.7-1,1.1-2,1.3-3.3c0.2-1.2,0.2-2.5,0-3.9l-3.7-19.4c-0.3-1.4-0.7-2.6-1.4-3.6
	c-0.7-1-1.5-1.9-2.4-2.5c-1-0.7-2-1.1-3.3-1.3l-0.9-0.1C380.2,127.1,380.7,127.1,379.7,127.1L379.7,127.1z M498.8,127.7l-1.6,7.2
	l9.9,2.3l-7,30.3l8,1.8l7-30.3l9.9,2.3l1.6-7.2L498.8,127.7z M265.7,158l-7.8,4.7l-0.2,8.6l6-3.6L265.7,158z M337,137.2l-7.9,2.4
	l11.1,36.9l22.4-6.7l-2.1-7.1L346,167L337,137.2z M538.3,138.5c-1.2,0.1-2.4,0.4-3.4,0.9c-1,0.5-2,1.2-2.8,2.2
	c-0.8,0.9-1.4,2-1.9,3.4l-6.4,18.7c-0.5,1.3-0.6,2.6-0.6,3.8c0.1,1.2,0.4,2.4,0.9,3.4c0.5,1,1.2,2,2.2,2.8c0.9,0.8,2,1.4,3.4,1.9
	l9.1,3.1c1.3,0.5,2.6,0.6,3.8,0.6c1.2-0.1,2.4-0.4,3.4-0.9c1-0.5,2-1.2,2.8-2.2s1.4-2,1.9-3.4l0.8-2.2l-7.8-2.7l-0.6,1.8
	c-0.2,0.7-0.6,1.2-1.2,1.5c-0.6,0.3-1.2,0.3-1.9,0.1l-6.5-2.2c-0.7-0.2-1.2-0.6-1.5-1.2c-0.3-0.6-0.3-1.2-0.1-1.9l6.1-17.8
	c0.2-0.7,0.6-1.2,1.2-1.5s1.2-0.3,1.9-0.1l6.5,2.2c0.7,0.2,1.2,0.6,1.5,1.2c0.3,0.6,0.3,1.2,0.1,1.9l-0.6,1.8l7.8,2.7l0.8-2.2
	c0.5-1.3,0.6-2.6,0.6-3.8c-0.1-1.2-0.4-2.4-0.9-3.4c-0.5-1-1.2-2-2.2-2.8c-0.9-0.8-2-1.4-3.4-1.9l-9.1-3.1
	C540.8,138.6,539.5,138.4,538.3,138.5L538.3,138.5z M315.6,145.2c-1.2,0-2.5,0.3-3.8,0.8l-8.1,3.4c-1.3,0.5-2.4,1.2-3.2,2.1
	c-0.9,0.9-1.5,1.8-2,2.9c-0.4,1.1-0.7,2.2-0.7,3.5c0,1.2,0.3,2.5,0.8,3.8l1.6,3.8c0.5,1.3,1.2,2.4,2.1,3.2c0.9,0.9,1.8,1.5,2.9,2
	c1.1,0.4,2.2,0.7,3.5,0.7c1.2,0,2.5-0.3,3.8-0.8l7.1-2.9c0.7-0.3,1.3-0.3,1.9,0c0.6,0.2,1,0.7,1.3,1.4l1.3,3.1
	c0.3,0.7,0.3,1.3,0,1.9c-0.2,0.6-0.7,1-1.4,1.3l-6.4,2.6c-0.7,0.3-1.3,0.3-1.9,0c-0.6-0.2-1-0.7-1.3-1.4l-0.7-1.7l-7.6,3.1l0.9,2.2
	c0.5,1.3,1.2,2.4,2.1,3.2c0.9,0.9,1.8,1.5,2.9,2c1.1,0.4,2.2,0.7,3.5,0.7c1.2,0,2.5-0.3,3.8-0.8l8.9-3.7c1.3-0.5,2.4-1.2,3.2-2.1
	c0.9-0.9,1.5-1.8,2-2.9c0.4-1.1,0.7-2.2,0.7-3.5c0-1.2-0.3-2.5-0.8-3.8l-1.7-4c-0.5-1.3-1.2-2.4-2.1-3.2c-0.9-0.9-1.8-1.5-2.9-2
	c-1.1-0.4-2.2-0.7-3.5-0.7c-1.2,0-2.5,0.3-3.8,0.8l-7.1,2.9c-0.7,0.3-1.3,0.3-1.9,0c-0.6-0.2-1-0.7-1.3-1.4l-1.2-2.9
	c-0.3-0.7-0.3-1.3,0-1.9c0.2-0.6,0.7-1,1.4-1.3l5.6-2.3c0.7-0.3,1.3-0.3,1.9,0c0.6,0.2,1,0.7,1.3,1.4l0.7,1.7l7.6-3.1l-0.9-2.2
	c-0.5-1.3-1.2-2.4-2.1-3.2c-0.9-0.9-1.8-1.5-2.9-2C318,145.4,316.9,145.2,315.6,145.2L315.6,145.2z M568.1,148.5l-16.5,34.8l7.5,3.5
	l6.7-14.2l11.7,5.5l-6.7,14.2l7.5,3.5l16.5-34.8l-7.5-3.5l-6.6,14l-11.7-5.5l6.6-14L568.1,148.5z M607.8,177.5l0.9,0.4l6.7,4.3
	c0.6,0.4,1,0.9,1.1,1.5c0.1,0.6,0,1.3-0.4,1.9l-10,15.9c-0.4,0.6-0.9,1-1.5,1.1c-0.6,0.1-1.3,0-1.9-0.4l-6.7-4.3
	c-0.6-0.4-1-0.9-1.1-1.5c-0.1-0.6,0-1.3,0.4-1.9l10-15.9c0.4-0.6,0.9-1,1.5-1.1L607.8,177.5z M606.2,169.4l-1.7,0.2
	c-1.1,0.3-2.2,0.7-3.2,1.5c-1,0.7-1.9,1.7-2.6,2.8l-10.6,16.7c-0.7,1.2-1.2,2.4-1.4,3.6c-0.2,1.2-0.2,2.4,0.1,3.5
	c0.3,1.1,0.7,2.2,1.5,3.2c0.7,1,1.7,1.9,2.8,2.6l9.1,5.7c1.2,0.7,2.4,1.2,3.6,1.4c1.2,0.2,2.4,0.2,3.5-0.1c1.1-0.3,2.2-0.7,3.2-1.5
	c1-0.7,1.9-1.7,2.6-2.8l10.6-16.7c0.7-1.2,1.2-2.4,1.4-3.6c0.2-1.2,0.2-2.4-0.1-3.5c-0.3-1.1-0.7-2.2-1.5-3.2
	c-0.7-1-1.7-1.9-2.8-2.6l-9.1-5.7c-1.2-0.7-2.4-1.2-3.6-1.4L606.2,169.4z M681.9,215.2l-8.4,1.8l4.9,5l9.9-0.4L681.9,215.2z
	 M633.9,185.4l-13.7,38.3l5.5,4.4l34.5-21.7l-6.6-5.3l-22.3,15l-0.2-0.1l9.9-25L633.9,185.4z M267.3,180.1l9.7,8.6l-6.8,4.1
	l-3.1-12.6L267.3,180.1z M265.6,168.7l-7.2,4.4l8.4,38.8l-24-8.3l0-20.6l-7.2,5.6l0.4,20.6l-0.2,0.2l-10.2-13l-6.5,5.1l23.7,30.4
	l6.5-5.1l-6.5-8.3l0-6.1l17.3,5.9l7.1-5.6l7-4.2l-2.1-8.2l10.7-6.5l6.3,5.6l7.7-4.7L265.6,168.7z M211.8,211.5
	c-1.2,0-2.3,0.2-3.4,0.7c-1.1,0.5-2.2,1.2-3.2,2.2l-6.3,6.2c-1,1-1.7,2-2.2,3.1c-0.5,1.1-0.7,2.3-0.8,3.4c0,1.2,0.2,2.3,0.7,3.4
	c0.5,1.1,1.2,2.2,2.2,3.2l2.9,2.9c1,1,2,1.7,3.1,2.2c1.1,0.5,2.3,0.7,3.4,0.8c1.2,0,2.3-0.2,3.4-0.7c1.1-0.5,2.2-1.2,3.2-2.2
	l5.5-5.4c0.5-0.5,1.1-0.8,1.8-0.8c0.6,0,1.2,0.3,1.7,0.8l2.3,2.4c0.5,0.5,0.8,1.1,0.8,1.8c0,0.6-0.3,1.2-0.8,1.7l-4.9,4.8
	c-0.5,0.5-1.1,0.8-1.8,0.8c-0.6,0-1.2-0.3-1.7-0.8l-1.3-1.3l-5.9,5.8l1.7,1.7c1,1,2,1.7,3.1,2.2c1.1,0.5,2.3,0.7,3.4,0.8
	c1.2,0,2.3-0.2,3.4-0.7s2.2-1.2,3.2-2.2l6.9-6.7c1-1,1.7-2,2.2-3.1s0.7-2.3,0.8-3.4c0-1.2-0.2-2.3-0.7-3.4c-0.5-1.1-1.2-2.2-2.2-3.2
	l-3-3.1c-1-1-2-1.7-3.1-2.2c-1.1-0.5-2.3-0.7-3.4-0.8c-1.2,0-2.3,0.2-3.4,0.7c-1.1,0.5-2.2,1.2-3.2,2.2l-5.5,5.4
	c-0.5,0.5-1.1,0.8-1.8,0.8c-0.6,0-1.2-0.3-1.7-0.8l-2.2-2.2c-0.5-0.5-0.8-1.1-0.8-1.8c0-0.6,0.3-1.2,0.8-1.7l4.3-4.2
	c0.5-0.5,1.1-0.8,1.8-0.8c0.6,0,1.2,0.3,1.7,0.8l1.3,1.3l5.9-5.8l-1.7-1.7c-1-1-2-1.7-3.1-2.2C214.1,211.8,213,211.5,211.8,211.5
	L211.8,211.5z M667.1,228.2l0.2,0.2l-6.1,11.5l-5.6-5.6L667.1,228.2z M671.9,218l-36.7,17.7l6,6l7.5-3.9l8.8,8.9l-4,7.5l6.4,6.4
	l17.9-36.6L671.9,218z M187.5,232.1l-18.2,22.1l5.7,4.7l6.5-7.8l24,19.8l5.3-6.4l-24-19.8l6.5-7.8L187.5,232.1z M699.9,249l-31,22.8
	l13.8,18.8l5.9-4.4l-8.9-12.2l25.1-18.4L699.9,249z M716.8,273l-32.6,20.6l4.4,7l32.6-20.6L716.8,273z M167.8,262.9l-1.7,0.2
	c-1.1,0.2-2.2,0.7-3.2,1.4c-1,0.7-1.9,1.6-2.7,2.8l-4.9,7.3c-0.8,1.2-1.3,2.3-1.5,3.5c-0.2,1.2-0.2,2.4,0,3.5
	c0.2,1.1,0.7,2.2,1.4,3.2c0.7,1,1.6,1.9,2.8,2.7l3.4,2.3c1.2,0.8,2.3,1.3,3.5,1.5c1.2,0.2,2.4,0.2,3.5,0c1.1-0.2,2.2-0.7,3.2-1.4
	c1-0.7,1.9-1.6,2.7-2.8l4.2-6.4c0.4-0.6,0.9-1,1.6-1.1c0.6-0.1,1.3,0,1.9,0.4l2.8,1.8c0.6,0.4,1,0.9,1.1,1.6c0.1,0.6,0,1.3-0.4,1.9
	l-3.8,5.7c-0.4,0.6-0.9,1-1.6,1.1c-0.6,0.1-1.3,0-1.9-0.4l-1.6-1l-4.5,6.9l2,1.3c1.2,0.8,2.3,1.3,3.5,1.5c1.2,0.2,2.4,0.2,3.5,0
	c1.1-0.2,2.2-0.7,3.2-1.4c1-0.7,1.9-1.6,2.7-2.8l5.3-8c0.8-1.2,1.3-2.3,1.5-3.5s0.2-2.4,0-3.5c-0.2-1.1-0.7-2.2-1.4-3.2
	s-1.6-1.9-2.8-2.7l-3.6-2.4c-1.2-0.8-2.3-1.3-3.5-1.5c-1.2-0.2-2.4-0.2-3.5,0c-1.1,0.2-2.2,0.7-3.2,1.4c-1,0.7-1.9,1.6-2.7,2.8
	l-4.2,6.4c-0.4,0.6-0.9,1-1.6,1.1c-0.6,0.1-1.3,0-1.9-0.4l-2.6-1.7c-0.6-0.4-1-0.9-1.1-1.6c-0.1-0.6,0-1.3,0.4-1.9l3.3-5
	c0.4-0.6,0.9-1,1.6-1.1c0.6-0.1,1.3,0,1.9,0.4l1.6,1l4.5-6.9l-2-1.3c-1.2-0.8-2.3-1.3-3.5-1.5L167.8,262.9z M136.9,287.5l-3.4,6.7
	l1.7,3.5l-3.8,0.7l-3.4,6.7l8.8-1.3l4.2-8.2L136.9,287.5z M721.4,290.5c-1.2,0.1-2.4,0.5-3.7,1.1l-17.6,9.1
	c-1.2,0.6-2.3,1.4-3.1,2.4c-0.8,0.9-1.4,2-1.7,3.1c-0.4,1.1-0.5,2.3-0.4,3.5c0.1,1.2,0.5,2.4,1.1,3.7l4.4,8.5
	c0.6,1.2,1.4,2.3,2.4,3.1c0.9,0.8,2,1.4,3.1,1.7c1.1,0.4,2.3,0.5,3.5,0.4c1.2-0.1,2.4-0.5,3.7-1.1l9.7-5l-7-13.4l-6.5,3.4l3.2,6.1
	l-2.7,1.4c-0.7,0.3-1.3,0.4-1.9,0.2c-0.6-0.2-1.1-0.6-1.4-1.3l-3.2-6.1c-0.3-0.7-0.4-1.3-0.2-1.9c0.2-0.6,0.6-1.1,1.3-1.4l16.7-8.7
	c0.7-0.3,1.3-0.4,1.9-0.2c0.6,0.2,1.1,0.6,1.4,1.3l3.2,6.1c0.3,0.7,0.4,1.3,0.2,1.9c-0.2,0.6-0.6,1.1-1.3,1.4l-1.7,0.9l3.8,7.3
	l2.1-1.1c1.2-0.6,2.3-1.4,3.1-2.4c0.8-0.9,1.4-2,1.7-3.1c0.4-1.1,0.5-2.3,0.4-3.5c-0.1-1.2-0.5-2.4-1.1-3.7l-4.4-8.5
	c-0.6-1.2-1.4-2.3-2.4-3.1c-0.9-0.8-2-1.4-3.1-1.7l-1.7-0.4L721.4,290.5z M145.9,289.8l-11.2,21.8l34.2,17.6l11.4-22.3l-6.6-3.4
	l-7.7,14.9l-7.4-3.8l6.9-13.5l-6.6-3.4l-6.9,13.5l-7.2-3.7l7.4-14.4L145.9,289.8z M738,338.4l0.1,0.2l-10.3,8l-2.8-7.4L738,338.4z
	 M746.6,331.1l-40.7,1.1l3,7.9l8.4-0.5l4.4,11.7l-6.7,5.2l3.2,8.4l31.4-26L746.6,331.1z M130.3,320.9l-2.7,7.5l17.3,16.4l-0.1,0.2
	l-23.7,1.3l-2.9,8l36.2,13.2l2.8-7.7l-19.7-7.2l0.1-0.3l22.8-1.4l0.1-0.3l-16.6-15.7l0.1-0.3l19.7,7.2l2.8-7.7L130.3,320.9z
	 M123.3,407.8c-19.3,0-35,15.7-35,35c0,19.3,15.7,35,35,35s35-15.7,35-35C158.3,423.5,142.7,407.8,123.3,407.8L123.3,407.8z
	 M748.2,408.3c-19.3,0-35,15.7-35,35c0,19.3,15.7,35,35,35c19.3,0,35-15.7,35-35C783.2,424,767.5,408.3,748.2,408.3L748.2,408.3z
	 M712,521.3l-3.7,11.3l7.1,8.7l2.9-8.7L712,521.3z M720.5,533.4l-3.4,10.3l47.9,15.7l3.4-10.3L720.5,533.4z M145.3,547.6
	c0.3,0,0.6,0.1,0.9,0.2c0.8,0.4,1.3,1,1.7,1.9l3.7,9.8c0.3,0.9,0.3,1.7,0,2.5c-0.4,0.8-1,1.3-1.9,1.7l-23,8.7
	c-0.9,0.3-1.7,0.3-2.5,0c-0.8-0.4-1.3-1-1.7-1.9l-3.7-9.8c-0.3-0.9-0.3-1.7,0-2.5c0.4-0.8,1-1.3,1.9-1.7l23-8.7l0.7-0.2
	C145,547.6,144.7,547.6,145.3,547.6z M145.5,536.5c-1.6,0-3.3,0.3-5,0.9l-24.3,9.1c-1.7,0.6-3.2,1.5-4.3,2.6
	c-1.2,1.1-2.1,2.3-2.7,3.7c-0.6,1.4-1,2.9-1,4.5c0,1.6,0.3,3.3,0.9,5l4.9,13.1c0.6,1.7,1.5,3.2,2.6,4.3c1.1,1.2,2.3,2.1,3.7,2.7
	c1.4,0.6,2.9,1,4.5,1c1.6,0,3.3-0.3,5-0.9l24.3-9.1c1.7-0.6,3.2-1.5,4.3-2.6c1.2-1.1,2.1-2.3,2.7-3.7c0.6-1.4,1-2.9,1-4.5
	c0-1.6-0.3-3.3-0.9-5l-4.9-13.1c-0.6-1.7-1.5-3.2-2.6-4.3c-1.1-1.2-2.3-2.1-3.7-2.7C148.6,536.9,147.1,536.6,145.5,536.5z
	 M714.5,552.6l-4.5,9.8l27,12.5l-0.1,0.3l-34,2.6l-4.5,9.8l45.7,21.2l4.5-9.8l-27-12.5l0.1-0.3l34-2.6l4.5-9.8L714.5,552.6z
	 M165.6,590l6.7,11.9c0.5,0.8,0.6,1.7,0.4,2.5c-0.2,0.8-0.8,1.5-1.6,1.9l-21.4,12.1c-0.8,0.5-1.7,0.6-2.5,0.4
	c-0.8-0.2-1.5-0.8-1.9-1.6l-6.7-11.9L165.6,590z M168.7,575.9l-43.9,24.8l13,22.9c0.9,1.6,2,2.9,3.2,3.9c1.3,1,2.6,1.7,4.1,2.1
	c1.5,0.4,3,0.5,4.6,0.3c1.6-0.2,3.2-0.8,4.8-1.7l22.6-12.8c1.6-0.9,2.9-2,3.9-3.2c1-1.3,1.7-2.6,2.1-4.1c0.4-1.5,0.5-3,0.3-4.6
	c-0.2-1.6-0.8-3.2-1.7-4.8L168.7,575.9z M695,593.3l-17.5,26.8l42.2,27.6l17.9-27.4l-8.1-5.3l-12,18.4l-9.1-5.9l10.8-16.6l-8.1-5.3
	l-10.8,16.6l-8.9-5.8l11.6-17.8L695,593.3z M436.1,206.7c-129.8,0-235,105.2-235,235c0,129.8,105.2,235,235,235
	c129.8,0,235-105.2,235-235S565.9,206.7,436.1,206.7L436.1,206.7z M197.8,635.7l-8.5,7.3l12.3,3l0.2,0.2l-29.5,25.4l7,8.1l38.2-32.9
	l-7-8.1L197.8,635.7z M673.3,626l-22.5,26.3l7.3,6.3l13.8-16.1l0.2,0.2l9.6,36.2l7.3,6.3l22.5-26.3l-7.3-6.3l-13.9,16.2l-0.2-0.2
	l-9.6-36.2L673.3,626z M224.3,668.9c0.8,0,1.6,0.3,2.3,0.9l5.6,5.1c0.7,0.6,1.1,1.4,1.1,2.2c0,0.8-0.3,1.6-0.9,2.3l-2.9,3.1
	c-0.6,0.7-1.4,1.1-2.2,1.1c-0.8,0-1.6-0.3-2.3-0.9l-5.6-5.1c-0.7-0.6-1.1-1.4-1.1-2.2c0-0.8,0.3-1.6,0.9-2.3l2.9-3.1
	C222.7,669.3,223.4,668.9,224.3,668.9z M210.2,683.6c0.8,0,1.6,0.3,2.3,0.9l6.1,5.6c0.7,0.6,1.1,1.4,1.1,2.2c0,0.8-0.3,1.6-0.9,2.3
	l-2.9,3.1c-0.6,0.7-1.4,1.1-2.2,1.1c-0.8,0-1.6-0.3-2.3-0.9l-6.1-5.6c-0.7-0.6-1.1-1.4-1.1-2.2c0-0.8,0.3-1.6,0.9-2.3l2.9-3.1
	C208.6,684,209.4,683.7,210.2,683.6z M223.3,658.2c-1.5,0.1-3,0.4-4.5,1.1c-1.4,0.7-2.8,1.7-4,3l-1.7,1.8c-1.5,1.6-2.5,3.4-3,5.4
	c-0.5,2-0.3,4,0.5,6.1l-0.2,0.2c-2.4-0.8-4.6-0.9-6.6-0.3c-2,0.6-3.8,1.8-5.5,3.6l-1.7,1.8c-1.2,1.3-2.1,2.8-2.7,4.3
	c-0.6,1.5-0.8,3-0.8,4.5s0.4,3,1.1,4.5c0.7,1.4,1.7,2.8,3,4l8.7,8c1.3,1.2,2.8,2.1,4.3,2.7c1.5,0.6,3,0.8,4.5,0.8
	c1.5-0.1,3-0.4,4.5-1.1c1.4-0.7,2.8-1.7,4-3l1.7-1.8c1.7-1.8,2.7-3.7,3.1-5.8c0.4-2,0.2-4.2-0.9-6.5l0.2-0.2c2.1,0.7,4.2,0.6,6.1,0
	c1.9-0.7,3.6-1.8,5.1-3.5l1.7-1.8c1.2-1.3,2.1-2.8,2.7-4.3c0.6-1.5,0.8-3,0.8-4.5c-0.1-1.5-0.4-3-1.1-4.5c-0.7-1.4-1.7-2.8-3-4
	l-7.7-7.1c-1.3-1.2-2.8-2.1-4.3-2.7C226.3,658.4,224.8,658.2,223.3,658.2z M646.8,656.2l-23.9,21.4l33.6,37.6l24.4-21.8l-6.4-7.2
	l-16.4,14.6l-7.3-8.1l14.8-13.2l-6.4-7.2l-14.8,13.2l-7.1-7.9l15.8-14.2L646.8,656.2z M617.4,682.6l-8.8,5.7l5.1,30.7l-0.2,0.2
	l-25.9-17.3l-9.4,6.1l27.4,42.3l9.1-5.9l-14.9-23l0.3-0.2l24.9,16.5l0.4-0.2l-4.9-29.5l0.3-0.2l14.9,23l9.1-5.9L617.4,682.6z
	 M271.6,693.8l-26.1,43.1l26.2,15.9l5-8.3l-16.9-10.3l21.1-34.9L271.6,693.8z M564.9,725l0.6,0.2c0.8,0.3,1.4,0.9,1.8,1.8l9.7,22.6
	c0.4,0.9,0.4,1.7,0.1,2.5c-0.3,0.8-0.9,1.4-1.8,1.8l-9.6,4.1c-0.9,0.4-1.7,0.4-2.5,0.1c-0.8-0.3-1.4-0.9-1.8-1.8l-9.7-22.6
	c-0.4-0.9-0.4-1.7-0.1-2.5c0.3-0.8,0.9-1.4,1.8-1.8l9.6-4.1C564.1,724.9,563.4,725,564.9,725z M565.8,714.5c-1.6,0-3.2,0.4-4.9,1.1
	l-12.9,5.5c-1.7,0.7-3.1,1.7-4.2,2.8c-1.1,1.1-2,2.4-2.5,3.8c-0.6,1.4-0.8,2.9-0.8,4.5c0,1.6,0.4,3.2,1.1,4.9l10.2,23.8
	c0.7,1.7,1.7,3.1,2.8,4.2c1.1,1.1,2.4,2,3.8,2.5c1.4,0.6,2.9,0.8,4.5,0.8c1.6,0,3.2-0.4,4.9-1.1l12.9-5.5c1.7-0.7,3.1-1.7,4.2-2.8
	c1.1-1.1,2-2.4,2.5-3.8c0.6-1.4,0.8-2.9,0.8-4.5s-0.4-3.2-1.1-4.9l-10.2-23.8c-0.7-1.7-1.7-3.1-2.8-4.2c-1.1-1.1-2.4-2-3.8-2.5
	C568.9,714.8,567.4,714.5,565.8,714.5z M303,712.3l-20.3,46.1l30,13.2l3.9-8.8l-20.1-8.8l4.4-10l18.1,8l3.9-8.8l-18.1-8l4.3-9.7
	l19.4,8.6l3.9-8.8L303,712.3z M335.7,726.6l-2.7,9.3l12.8,3.7l-11.5,39.1l10.4,3l11.5-39.1l12.8,3.7l2.7-9.3L335.7,726.6z
	 M510.9,733.9l-33.9,6.7l1.9,9.5l20.8-4.1l0.1,0.3l-14.9,34.3l1.9,9.5l33.9-6.7l-1.9-9.5l-20.9,4.1l-0.1-0.3l15-34.3L510.9,733.9z
	 M471.3,741.1l-32,2l3.1,50.3l32.7-2l-0.6-9.6l-21.9,1.4l-0.7-10.9l19.8-1.2l-0.6-9.6l-19.8,1.2l-0.7-10.6l21.2-1.3L471.3,741.1z
	 M406.3,751.9l11.1,0.8c1,0.1,1.7,0.4,2.3,1.1c0.6,0.6,0.8,1.4,0.7,2.4l-0.3,4.1c-0.1,1-0.4,1.7-1.1,2.3c-0.6,0.6-1.4,0.8-2.4,0.7
	l-11.1-0.8L406.3,751.9z M404.8,772.1L417,773c1,0.1,1.7,0.4,2.3,1.1s0.8,1.4,0.7,2.4l-0.3,4.4c-0.1,1-0.4,1.7-1.1,2.3
	c-0.6,0.6-1.4,0.8-2.4,0.7l-12.2-0.9L404.8,772.1z M396.3,741.5l-3.8,50.3l24.8,1.9c1.8,0.1,3.5,0,5-0.5c1.5-0.5,2.9-1.2,4-2.2
	c1.2-1,2.1-2.2,2.8-3.6c0.7-1.4,1.1-3.1,1.3-4.9l0.2-2.8c0.2-2.3-0.2-4.5-1-6.4c-0.8-1.9-2.1-3.4-3.7-4.5l0-0.3
	c1.5-1,2.7-2.3,3.6-3.9c0.9-1.6,1.5-3.4,1.6-5.5l0.2-2.5c0.1-1.8,0-3.5-0.5-5c-0.5-1.5-1.2-2.9-2.2-4c-1-1.2-2.2-2.1-3.6-2.8
	c-1.4-0.7-3.1-1.1-4.9-1.3L396.3,741.5z M434.4,52.9c215.4,0,390,174.6,390,390s-174.6,390-390,390s-390-174.6-390-390
	S219,52.9,434.4,52.9L434.4,52.9z"/>
<ellipse transform="matrix(0.1602 -0.9871 0.9871 0.1602 -333.5489 493.7792)" class="st0" cx="123.4" cy="442.9" rx="27.5" ry="27.5"/>
<circle class="st0" cx="748.3" cy="443.4" r="27.5"/>
<polygon class="st1" points="366.1,552 321.4,552 321.4,389.7 320.2,389.7 277.3,420.3 277.3,373.5 321.4,342 366.1,342 "/>
<path class="st1" d="M481.6,426.9c4,0,7.3-1.3,9.8-3.8s3.8-5.8,3.8-9.8v-17.7c0-4-1.3-7.3-3.8-9.8s-5.8-3.8-9.8-3.8h-31.5
	c-4,0-7.3,1.3-9.8,3.8s-3.8,5.8-3.8,9.8v17.7c0,4,1.3,7.3,3.8,9.8s5.8,3.8,9.8,3.8H481.6z M483.1,511.8c4,0,7.3-1.3,9.8-3.8
	s3.8-5.8,3.8-9.8v-17.7c0-4-1.3-7.3-3.8-9.8s-5.8-3.8-9.8-3.8h-34.5c-4,0-7.3,1.3-9.8,3.8s-3.8,5.8-3.8,9.8v17.7
	c0,4,1.3,7.3,3.8,9.8s5.8,3.8,9.8,3.8H483.1z M441.1,552c-7.6,0-14.5-1.3-20.7-3.8c-6.2-2.5-11.5-6-16-10.5s-8-9.8-10.5-16
	s-3.8-13.1-3.8-20.7v-10.2c0-10.2,2.2-19,6.6-26.5c4.4-7.5,11.4-13.4,21-17.5v-1.2c-8.4-4-14.6-9.8-18.6-17.3s-6-15.9-6-25V393
	c0-7.6,1.3-14.5,3.8-20.7s6-11.5,10.5-16s9.9-8,16-10.5c6.2-2.5,13.1-3.8,20.7-3.8h43.5c7.6,0,14.5,1.3,20.7,3.8
	c6.2,2.5,11.5,6,16,10.5s8,9.8,10.5,16s3.8,13.1,3.8,20.7v10.2c0,9.2-2,17.5-6,25s-10.2,13.3-18.6,17.3v1.2c9.6,4.2,16.6,10,21,17.5
	s6.6,16.4,6.6,26.5V501c0,7.6-1.3,14.5-3.8,20.7s-6,11.5-10.5,16s-9.8,8-16,10.5c-6.2,2.5-13.1,3.8-20.7,3.8H441.1z"/>
<polygon class="st2" points="547.9,400.3 571.1,400.3 571.1,435.3 604.7,435.3 604.7,457.7 571.1,457.7 571.1,492.5 547.9,492.5 
	547.9,457.7 514.3,457.7 514.3,435.3 547.9,435.3 "/>
<polygon class="st3" points="547.9,400.3 571.1,400.3 571.1,435.3 604.7,435.3 604.7,457.7 571.1,457.7 571.1,492.5 547.9,492.5 
	547.9,457.7 514.3,457.7 514.3,435.3 547.9,435.3 "/>
</svg>
