<?xml version="1.0" encoding="UTF-8" standalone="no"?>
<svg
   viewBox="0 0 640 512"
   version="1.1"
   id="svg4"
   sodipodi:docname="baseball-bat.svg"
   inkscape:version="1.1.1 (3bf5ae0d25, 2021-09-20)"
   xmlns:inkscape="http://www.inkscape.org/namespaces/inkscape"
   xmlns:sodipodi="http://sodipodi.sourceforge.net/DTD/sodipodi-0.dtd"
   xmlns="http://www.w3.org/2000/svg"
   xmlns:svg="http://www.w3.org/2000/svg">
  <defs
     id="defs8" />
  <sodipodi:namedview
     id="namedview6"
     pagecolor="#ffffff"
     bordercolor="#666666"
     borderopacity="1.0"
     inkscape:pageshadow="2"
     inkscape:pageopacity="0.0"
     inkscape:pagecheckerboard="0"
     showgrid="false"
     inkscape:zoom="1.625"
     inkscape:cx="319.69231"
     inkscape:cy="311.69231"
     inkscape:window-width="1920"
     inkscape:window-height="1017"
     inkscape:window-x="1912"
     inkscape:window-y="-8"
     inkscape:window-maximized="1"
     inkscape:current-layer="svg4" />
  <!--! Font Awesome Pro 6.1.1 by @fontawesome - https://fontawesome.com License - https://fontawesome.com/license (Commercial License) Copyright 2022 Fonticons, Inc. -->
  <path
     d="M57.89 397.2c-6.262-8.616-16.02-13.19-25.92-13.19c-23.33 0-31.98 20.68-31.98 32.03c0 6.522 1.987 13.1 6.115 18.78l46.52 64C58.89 507.4 68.64 512 78.55 512c23.29 0 31.97-20.66 31.97-32.03c0-6.522-1.988-13.1-6.115-18.78L57.89 397.2zM496.1 352c-44.13 0-79.72 35.75-79.72 80s35.59 80 79.72 80s79.91-35.75 79.91-80S540.2 352 496.1 352zM640 99.38c0-13.61-4.133-27.34-12.72-39.2l-23.63-32.5c-13.44-18.5-33.77-27.68-54.12-27.68c-13.89 0-27.79 4.281-39.51 12.8L307.8 159.7C262.2 192.8 220.4 230.9 183.4 273.4c-24.22 27.88-59.18 63.99-103.5 99.63l56.34 77.52c53.79-35.39 99.15-55.3 127.1-67.27c51.88-22 101.3-49.87 146.9-82.1l202.3-146.7C630.5 140.4 640 120 640 99.38z"
     id="path2"
     style="fill:#ffffff" />
</svg>
