<?xml version="1.0" encoding="utf-8"?>
<!-- Generator: Adobe Illustrator 22.0.0, SVG Export Plug-In . SVG Version: 6.00 Build 0)  -->
<svg version="1.1" id="Layer_1" xmlns="http://www.w3.org/2000/svg" xmlns:xlink="http://www.w3.org/1999/xlink" x="0px" y="0px"
	 viewBox="0 0 900 900" style="enable-background:new 0 0 900 900;" xml:space="preserve">
<style type="text/css">
	.st0{fill:#FFFFFF;}
	.st1{fill:#07C632;}
	.st2{fill:#12284B;}
</style>
<ellipse class="st0" cx="429.5" cy="443.3" rx="377.5" ry="381.7"/>
<path class="st1" d="M459.7,130.4l8.2,0.7c0.7,0.1,1.3,0.3,1.7,0.8c0.4,0.5,0.6,1.1,0.5,1.8l-0.5,5.6c-0.1,0.7-0.3,1.3-0.8,1.7
	c-0.5,0.4-1.1,0.6-1.8,0.5l-8.2-0.7L459.7,130.4z M452,122.4l-3.1,38.4l8.2,0.7l1.1-13.2l9.6,0.8c1.4,0.1,2.7,0,3.8-0.4
	c1.2-0.4,2.2-0.9,3.1-1.7c0.9-0.8,1.6-1.7,2.2-2.8c0.5-1.1,0.9-2.3,1-3.7l0.5-6.6c0.1-1.4,0-2.7-0.4-3.8c-0.4-1.2-0.9-2.2-1.7-3.1
	c-0.8-0.9-1.7-1.6-2.8-2.2c-1.1-0.5-2.3-0.9-3.7-1L452,122.4z M444.8,121.5l-7.9,0.4l-4.9,25.8l-0.2,0l-7.3-25.2l-8.5,0.4l-4.9,25.8
	l-0.2,0l-7.3-25.2L395,124l12.1,38l8.5-0.4l4.9-25.8l0.2,0l7.3,25.2l8.5-0.4L444.8,121.5z M485.2,125.8l-5.9,38l8.2,1.3l5.9-38
	L485.2,125.8z M378.8,134.7c1.1,0.2,0.7,0,1.4,0.4c0.5,0.4,0.9,0.9,1,1.6l3.5,18.5c0.1,0.7,0,1.3-0.3,1.9c-0.4,0.5-0.9,0.9-1.6,1
	l-7.8,1.5c-0.7,0.1-1.3,0-1.9-0.3c-0.5-0.4-0.9-0.9-1-1.6l-3.5-18.5c-0.1-0.7,0-1.3,0.3-1.9c0.4-0.5,0.9-0.9,1.6-1l7.8-1.5
	L378.8,134.7z M379.7,127.1c-0.5,0-1,0.1-1.4,0.2l-10.5,2c-1.4,0.3-2.6,0.7-3.6,1.4c-1,0.7-1.9,1.5-2.5,2.4c-0.7,1-1.1,2-1.3,3.3
	c-0.2,1.2-0.2,2.5,0,3.9l3.7,19.4c0.3,1.4,0.7,2.6,1.4,3.6c0.7,1,1.5,1.9,2.4,2.5c1,0.7,2,1.1,3.3,1.3c1.2,0.2,2.5,0.2,3.9,0l10.5-2
	c1.4-0.3,2.6-0.7,3.6-1.4c1-0.7,1.9-1.5,2.5-2.4c0.7-1,1.1-2,1.3-3.3c0.2-1.2,0.2-2.5,0-3.9l-3.7-19.4c-0.3-1.4-0.7-2.6-1.4-3.6
	c-0.7-1-1.5-1.9-2.4-2.5c-1-0.7-2-1.1-3.3-1.3l-0.9-0.1C380.2,127.1,380.7,127.1,379.7,127.1L379.7,127.1z M498.8,127.7l-1.6,7.2
	l9.9,2.3l-7,30.3l8,1.8l7-30.3l9.9,2.3l1.6-7.2L498.8,127.7z M265.7,158l-7.8,4.7l-0.2,8.6l6-3.6L265.7,158z M337,137.2l-7.9,2.4
	l11.1,36.9l22.4-6.7l-2.1-7.1L346,167L337,137.2z M538.3,138.5c-1.2,0.1-2.4,0.4-3.4,0.9c-1,0.5-2,1.2-2.8,2.2
	c-0.8,0.9-1.4,2-1.9,3.4l-6.4,18.7c-0.5,1.3-0.6,2.6-0.6,3.8c0.1,1.2,0.4,2.4,0.9,3.4c0.5,1,1.2,2,2.2,2.8c0.9,0.8,2,1.4,3.4,1.9
	l9.1,3.1c1.3,0.5,2.6,0.6,3.8,0.6c1.2-0.1,2.4-0.4,3.4-0.9c1-0.5,2-1.2,2.8-2.2s1.4-2,1.9-3.4l0.8-2.2l-7.8-2.7l-0.6,1.8
	c-0.2,0.7-0.6,1.2-1.2,1.5c-0.6,0.3-1.2,0.3-1.9,0.1l-6.5-2.2c-0.7-0.2-1.2-0.6-1.5-1.2c-0.3-0.6-0.3-1.2-0.1-1.9l6.1-17.8
	c0.2-0.7,0.6-1.2,1.2-1.5s1.2-0.3,1.9-0.1l6.5,2.2c0.7,0.2,1.2,0.6,1.5,1.2c0.3,0.6,0.3,1.2,0.1,1.9l-0.6,1.8l7.8,2.7l0.8-2.2
	c0.5-1.3,0.6-2.6,0.6-3.8c-0.1-1.2-0.4-2.4-0.9-3.4c-0.5-1-1.2-2-2.2-2.8c-0.9-0.8-2-1.4-3.4-1.9l-9.1-3.1
	C540.8,138.6,539.5,138.4,538.3,138.5L538.3,138.5z M315.6,145.2c-1.2,0-2.5,0.3-3.8,0.8l-8.1,3.4c-1.3,0.5-2.4,1.2-3.2,2.1
	c-0.9,0.9-1.5,1.8-2,2.9c-0.4,1.1-0.7,2.2-0.7,3.5c0,1.2,0.3,2.5,0.8,3.8l1.6,3.8c0.5,1.3,1.2,2.4,2.1,3.2c0.9,0.9,1.8,1.5,2.9,2
	c1.1,0.4,2.2,0.7,3.5,0.7c1.2,0,2.5-0.3,3.8-0.8l7.1-2.9c0.7-0.3,1.3-0.3,1.9,0c0.6,0.2,1,0.7,1.3,1.4l1.3,3.1
	c0.3,0.7,0.3,1.3,0,1.9c-0.2,0.6-0.7,1-1.4,1.3l-6.4,2.6c-0.7,0.3-1.3,0.3-1.9,0c-0.6-0.2-1-0.7-1.3-1.4l-0.7-1.7l-7.6,3.1l0.9,2.2
	c0.5,1.3,1.2,2.4,2.1,3.2c0.9,0.9,1.8,1.5,2.9,2c1.1,0.4,2.2,0.7,3.5,0.7c1.2,0,2.5-0.3,3.8-0.8l8.9-3.7c1.3-0.5,2.4-1.2,3.2-2.1
	c0.9-0.9,1.5-1.8,2-2.9c0.4-1.1,0.7-2.2,0.7-3.5c0-1.2-0.3-2.5-0.8-3.8l-1.7-4c-0.5-1.3-1.2-2.4-2.1-3.2c-0.9-0.9-1.8-1.5-2.9-2
	c-1.1-0.4-2.2-0.7-3.5-0.7c-1.2,0-2.5,0.3-3.8,0.8l-7.1,2.9c-0.7,0.3-1.3,0.3-1.9,0c-0.6-0.2-1-0.7-1.3-1.4l-1.2-2.9
	c-0.3-0.7-0.3-1.3,0-1.9c0.2-0.6,0.7-1,1.4-1.3l5.6-2.3c0.7-0.3,1.3-0.3,1.9,0c0.6,0.2,1,0.7,1.3,1.4l0.7,1.7l7.6-3.1l-0.9-2.2
	c-0.5-1.3-1.2-2.4-2.1-3.2c-0.9-0.9-1.8-1.5-2.9-2C318,145.4,316.9,145.2,315.6,145.2L315.6,145.2z M568.1,148.5l-16.5,34.8l7.5,3.5
	l6.7-14.2l11.7,5.5l-6.7,14.2l7.5,3.5l16.5-34.8l-7.5-3.5l-6.6,14l-11.7-5.5l6.6-14L568.1,148.5z M607.8,177.5l0.9,0.4l6.7,4.3
	c0.6,0.4,1,0.9,1.1,1.5c0.1,0.6,0,1.3-0.4,1.9l-10,15.9c-0.4,0.6-0.9,1-1.5,1.1c-0.6,0.1-1.3,0-1.9-0.4l-6.7-4.3
	c-0.6-0.4-1-0.9-1.1-1.5c-0.1-0.6,0-1.3,0.4-1.9l10-15.9c0.4-0.6,0.9-1,1.5-1.1L607.8,177.5z M606.2,169.4l-1.7,0.2
	c-1.1,0.3-2.2,0.7-3.2,1.5c-1,0.7-1.9,1.7-2.6,2.8l-10.6,16.7c-0.7,1.2-1.2,2.4-1.4,3.6c-0.2,1.2-0.2,2.4,0.1,3.5
	c0.3,1.1,0.7,2.2,1.5,3.2c0.7,1,1.7,1.9,2.8,2.6l9.1,5.7c1.2,0.7,2.4,1.2,3.6,1.4c1.2,0.2,2.4,0.2,3.5-0.1c1.1-0.3,2.2-0.7,3.2-1.5
	c1-0.7,1.9-1.7,2.6-2.8l10.6-16.7c0.7-1.2,1.2-2.4,1.4-3.6c0.2-1.2,0.2-2.4-0.1-3.5c-0.3-1.1-0.7-2.2-1.5-3.2
	c-0.7-1-1.7-1.9-2.8-2.6l-9.1-5.7c-1.2-0.7-2.4-1.2-3.6-1.4L606.2,169.4z M681.9,215.2l-8.4,1.8l4.9,5l9.9-0.4L681.9,215.2z
	 M633.9,185.4l-13.7,38.3l5.5,4.4l34.5-21.7l-6.6-5.3l-22.3,15l-0.2-0.1l9.9-25L633.9,185.4z M267.3,180.1l9.7,8.6l-6.8,4.1
	l-3.1-12.6L267.3,180.1z M265.6,168.7l-7.2,4.4l8.4,38.8l-24-8.3l0-20.6l-7.2,5.6l0.4,20.6l-0.2,0.2l-10.2-13l-6.5,5.1l23.7,30.4
	l6.5-5.1l-6.5-8.3l0-6.1l17.3,5.9l7.1-5.6l7-4.2l-2.1-8.2l10.7-6.5l6.3,5.6l7.7-4.7L265.6,168.7z M211.8,211.5
	c-1.2,0-2.3,0.2-3.4,0.7c-1.1,0.5-2.2,1.2-3.2,2.2l-6.3,6.2c-1,1-1.7,2-2.2,3.1c-0.5,1.1-0.7,2.3-0.8,3.4c0,1.2,0.2,2.3,0.7,3.4
	c0.5,1.1,1.2,2.2,2.2,3.2l2.9,2.9c1,1,2,1.7,3.1,2.2c1.1,0.5,2.3,0.7,3.4,0.8c1.2,0,2.3-0.2,3.4-0.7c1.1-0.5,2.2-1.2,3.2-2.2
	l5.5-5.4c0.5-0.5,1.1-0.8,1.8-0.8c0.6,0,1.2,0.3,1.7,0.8l2.3,2.4c0.5,0.5,0.8,1.1,0.8,1.8c0,0.6-0.3,1.2-0.8,1.7l-4.9,4.8
	c-0.5,0.5-1.1,0.8-1.8,0.8c-0.6,0-1.2-0.3-1.7-0.8l-1.3-1.3l-5.9,5.8l1.7,1.7c1,1,2,1.7,3.1,2.2c1.1,0.5,2.3,0.7,3.4,0.8
	c1.2,0,2.3-0.2,3.4-0.7s2.2-1.2,3.2-2.2l6.9-6.7c1-1,1.7-2,2.2-3.1s0.7-2.3,0.8-3.4c0-1.2-0.2-2.3-0.7-3.4c-0.5-1.1-1.2-2.2-2.2-3.2
	l-3-3.1c-1-1-2-1.7-3.1-2.2c-1.1-0.5-2.3-0.7-3.4-0.8c-1.2,0-2.3,0.2-3.4,0.7c-1.1,0.5-2.2,1.2-3.2,2.2l-5.5,5.4
	c-0.5,0.5-1.1,0.8-1.8,0.8c-0.6,0-1.2-0.3-1.7-0.8l-2.2-2.2c-0.5-0.5-0.8-1.1-0.8-1.8c0-0.6,0.3-1.2,0.8-1.7l4.3-4.2
	c0.5-0.5,1.1-0.8,1.8-0.8c0.6,0,1.2,0.3,1.7,0.8l1.3,1.3l5.9-5.8l-1.7-1.7c-1-1-2-1.7-3.1-2.2C214.1,211.8,213,211.5,211.8,211.5
	L211.8,211.5z M667.1,228.2l0.2,0.2l-6.1,11.5l-5.6-5.6L667.1,228.2z M671.9,218l-36.7,17.7l6,6l7.5-3.9l8.8,8.9l-4,7.5l6.4,6.4
	l17.9-36.6L671.9,218z M187.5,232.1l-18.2,22.1l5.7,4.7l6.5-7.8l24,19.8l5.3-6.4l-24-19.8l6.5-7.8L187.5,232.1z M699.9,249l-31,22.8
	l13.8,18.8l5.9-4.4l-8.9-12.2l25.1-18.4L699.9,249z M716.8,273l-32.6,20.6l4.4,7l32.6-20.6L716.8,273z M167.8,262.9l-1.7,0.2
	c-1.1,0.2-2.2,0.7-3.2,1.4c-1,0.7-1.9,1.6-2.7,2.8l-4.9,7.3c-0.8,1.2-1.3,2.3-1.5,3.5c-0.2,1.2-0.2,2.4,0,3.5
	c0.2,1.1,0.7,2.2,1.4,3.2c0.7,1,1.6,1.9,2.8,2.7l3.4,2.3c1.2,0.8,2.3,1.3,3.5,1.5c1.2,0.2,2.4,0.2,3.5,0c1.1-0.2,2.2-0.7,3.2-1.4
	c1-0.7,1.9-1.6,2.7-2.8l4.2-6.4c0.4-0.6,0.9-1,1.6-1.1c0.6-0.1,1.3,0,1.9,0.4l2.8,1.8c0.6,0.4,1,0.9,1.1,1.6c0.1,0.6,0,1.3-0.4,1.9
	l-3.8,5.7c-0.4,0.6-0.9,1-1.6,1.1c-0.6,0.1-1.3,0-1.9-0.4l-1.6-1l-4.5,6.9l2,1.3c1.2,0.8,2.3,1.3,3.5,1.5c1.2,0.2,2.4,0.2,3.5,0
	c1.1-0.2,2.2-0.7,3.2-1.4c1-0.7,1.9-1.6,2.7-2.8l5.3-8c0.8-1.2,1.3-2.3,1.5-3.5s0.2-2.4,0-3.5c-0.2-1.1-0.7-2.2-1.4-3.2
	s-1.6-1.9-2.8-2.7l-3.6-2.4c-1.2-0.8-2.3-1.3-3.5-1.5c-1.2-0.2-2.4-0.2-3.5,0c-1.1,0.2-2.2,0.7-3.2,1.4c-1,0.7-1.9,1.6-2.7,2.8
	l-4.2,6.4c-0.4,0.6-0.9,1-1.6,1.1c-0.6,0.1-1.3,0-1.9-0.4l-2.6-1.7c-0.6-0.4-1-0.9-1.1-1.6c-0.1-0.6,0-1.3,0.4-1.9l3.3-5
	c0.4-0.6,0.9-1,1.6-1.1c0.6-0.1,1.3,0,1.9,0.4l1.6,1l4.5-6.9l-2-1.3c-1.2-0.8-2.3-1.3-3.5-1.5L167.8,262.9z M136.9,287.5l-3.4,6.7
	l1.7,3.5l-3.8,0.7l-3.4,6.7l8.8-1.3l4.2-8.2L136.9,287.5z M721.4,290.5c-1.2,0.1-2.4,0.5-3.7,1.1l-17.6,9.1
	c-1.2,0.6-2.3,1.4-3.1,2.4c-0.8,0.9-1.4,2-1.7,3.1c-0.4,1.1-0.5,2.3-0.4,3.5c0.1,1.2,0.5,2.4,1.1,3.7l4.4,8.5
	c0.6,1.2,1.4,2.3,2.4,3.1c0.9,0.8,2,1.4,3.1,1.7c1.1,0.4,2.3,0.5,3.5,0.4c1.2-0.1,2.4-0.5,3.7-1.1l9.7-5l-7-13.4l-6.5,3.4l3.2,6.1
	l-2.7,1.4c-0.7,0.3-1.3,0.4-1.9,0.2c-0.6-0.2-1.1-0.6-1.4-1.3l-3.2-6.1c-0.3-0.7-0.4-1.3-0.2-1.9c0.2-0.6,0.6-1.1,1.3-1.4l16.7-8.7
	c0.7-0.3,1.3-0.4,1.9-0.2c0.6,0.2,1.1,0.6,1.4,1.3l3.2,6.1c0.3,0.7,0.4,1.3,0.2,1.9c-0.2,0.6-0.6,1.1-1.3,1.4l-1.7,0.9l3.8,7.3
	l2.1-1.1c1.2-0.6,2.3-1.4,3.1-2.4c0.8-0.9,1.4-2,1.7-3.1c0.4-1.1,0.5-2.3,0.4-3.5c-0.1-1.2-0.5-2.4-1.1-3.7l-4.4-8.5
	c-0.6-1.2-1.4-2.3-2.4-3.1c-0.9-0.8-2-1.4-3.1-1.7l-1.7-0.4L721.4,290.5z M145.9,289.8l-11.2,21.8l34.2,17.6l11.4-22.3l-6.6-3.4
	l-7.7,14.9l-7.4-3.8l6.9-13.5l-6.6-3.4l-6.9,13.5l-7.2-3.7l7.4-14.4L145.9,289.8z M738,338.4l0.1,0.2l-10.3,8l-2.8-7.4L738,338.4z
	 M746.6,331.1l-40.7,1.1l3,7.9l8.4-0.5l4.4,11.7l-6.7,5.2l3.2,8.4l31.4-26L746.6,331.1z M130.3,320.9l-2.7,7.5l17.3,16.4l-0.1,0.2
	l-23.7,1.3l-2.9,8l36.2,13.2l2.8-7.7l-19.7-7.2l0.1-0.3l22.8-1.4l0.1-0.3l-16.6-15.7l0.1-0.3l19.7,7.2l2.8-7.7L130.3,320.9z
	 M123.3,407.8c-19.3,0-35,15.7-35,35c0,19.3,15.7,35,35,35s35-15.7,35-35C158.3,423.5,142.7,407.8,123.3,407.8L123.3,407.8z
	 M748.2,408.3c-19.3,0-35,15.7-35,35c0,19.3,15.7,35,35,35c19.3,0,35-15.7,35-35C783.2,424,767.5,408.3,748.2,408.3L748.2,408.3z
	 M644.9,640.7l-7,6.9l0.6,5l-5-0.7l-7,6.9l11.5,2l8.6-8.5L644.9,640.7z M685.7,608.3l-19,25.8l40.5,29.9l19.5-26.4l-7.8-5.7
	l-13,17.7l-8.7-6.5l11.8-15.9l-7.8-5.7l-11.8,15.9l-8.5-6.3l12.6-17.1L685.7,608.3z M191.5,622.1c-2.7,0.2-1.5,0-3.4,0.5
	c-1.5,0.5-3,1.3-4.4,2.4l-2.4,1.9l6.7,8.5l1.9-1.5c0.8-0.6,1.5-0.8,2.4-0.8c0.8,0.1,1.6,0.5,2.2,1.3l3.5,4.5
	c0.6,0.8,0.8,1.5,0.8,2.4c-0.1,0.8-0.5,1.6-1.3,2.2l-1.9,1.5c-0.8,0.6-1.6,1.1-2.5,1.3c-0.9,0.2-1.9,0.2-3.2,0l-28.6-3.4l-7.6,6
	l21.2,26.7l7.6-6l-12.4-15.6l0.2-0.2l22.3,2.5c1.5,0.1,3.1,0,4.7-0.3c1.6-0.4,3.1-1.1,4.6-2.2l2.7-2.1c1.4-1.1,2.5-2.4,3.3-3.8
	c0.8-1.4,1.3-2.9,1.4-4.4c0.2-1.5,0-3-0.4-4.6c-0.5-1.5-1.3-3-2.4-4.4l-5.8-7.3c-1.1-1.4-2.4-2.5-3.8-3.3c-1.4-0.8-2.9-1.3-4.4-1.4
	L191.5,622.1z M436.1,206.7c-129.8,0-235,105.2-235,235c0,129.8,105.2,235,235,235c129.8,0,235-105.2,235-235
	S565.9,206.7,436.1,206.7L436.1,206.7z M657.5,659.8c0.8,0,1.6,0.3,2.3,1l4.7,4.7c0.7,0.7,1,1.4,1,2.3c0,0.8-0.3,1.6-1,2.3l-8.2,8.1
	l-9.2-9.3l8.2-8.1C655.9,660.1,656.6,659.8,657.5,659.8z M658.4,648.9L658.4,648.9c-1.5,0-3,0.3-4.5,0.9c-1.5,0.6-2.9,1.6-4.2,2.9
	l-17.2,17l35.4,35.8l7.7-7.6L663,685.1l3.9-3.8l19.3,6.2l8.7-8.6l-19.9-6.4c1.2-2.3,1.7-4.7,1.3-7.2c-0.4-2.5-1.6-4.8-3.7-6.9
	l-5.6-5.6c-1.3-1.3-2.7-2.3-4.1-2.9C661.4,649.2,659.9,648.9,658.4,648.9z M298.9,696.3l-9.9,5.3l8,4.5l12.3-3.9L298.9,696.3z
	 M245,685.9l10.9,8.3c0.8,0.6,1.2,1.3,1.3,2.1c0.1,0.8-0.1,1.6-0.7,2.4l-14.9,19.6c-0.6,0.8-1.3,1.2-2.1,1.3s-1.6-0.1-2.4-0.7
	l-10.9-8.3L245,685.9z M242.2,671.7l-30.4,40.2l21,15.9c1.5,1.1,3,1.9,4.5,2.3c1.5,0.4,3.1,0.5,4.6,0.3c1.5-0.2,3-0.7,4.3-1.6
	c1.4-0.8,2.6-2,3.7-3.4l15.6-20.7c1.1-1.5,1.9-3,2.3-4.5c0.4-1.5,0.5-3.1,0.3-4.6c-0.2-1.5-0.7-3-1.6-4.3c-0.8-1.4-2-2.6-3.4-3.7
	L242.2,671.7z M622.2,678.5l-8.9,6.2l11.6,16.6l-13.9,9.7l-11.6-16.6l-8.9,6.2l28.8,41.4l8.9-6.2l-11.7-16.8l13.9-9.7l11.7,16.8
	l8.9-6.2L622.2,678.5z M286.4,702.8l-24.8,43.9l9.4,5.3l24.8-43.9L286.4,702.8z M305.5,714l-2.8,53.3l8.5,3.5l35-40.2l-10.3-4.2
	l-22.3,27.2l-0.3-0.1l3-35.1L305.5,714z M555.9,718.3l-30,11.2l17.6,47.2l30.7-11.4l-3.4-9l-20.6,7.7l-3.8-10.2l18.6-6.9l-3.4-9
	l-18.6,6.9l-3.7-9.9l19.9-7.4L555.9,718.3z M516.5,732.7l-10.9,2.2l-3.6,35l-0.3,0.1L484.9,739l-11.6,2.3l27,46l9-1.8L516.5,732.7z
	 M355.2,732.9l-10.6,49.3l10.6,2.3l2.9-13.5l6.1-5.1l8.6,22.4l12.6,2.7L373,758.6l20.7-17.4l-11.7-2.5l-20.4,17.7l-0.4-0.1l4.5-21.1
	L355.2,732.9z M397.8,742.4l15.3,29.6l-0.7,21.4l10.8,0.4l0.7-21.4l18.1-28.4l-11.2-0.4l-11.3,18.3l-0.3,0l-9.4-19.1L397.8,742.4z
	 M434.4,52.9c215.4,0,390,174.6,390,390s-174.6,390-390,390s-390-174.6-390-390S219,52.9,434.4,52.9L434.4,52.9z"/>
<ellipse transform="matrix(0.1602 -0.9871 0.9871 0.1602 -333.5489 493.7792)" class="st1" cx="123.4" cy="442.9" rx="27.5" ry="27.5"/>
<circle class="st1" cx="748.3" cy="443.4" r="27.5"/>
<path class="st2" d="M470.5,373.6c-2.4,0.6-1.3,0.3-3,0.9c-2.6,0.9-5.4,2.1-21.4,7.9c-16,5.8-27,10.1-48.4,18.8
	c-21.4,8.7-36.5,16.2-53.3,25.8c-16.7,9.6-18.2,13.8-22.4,17.9c-4.2,4.2-4.4,10.7-4.5,22.7c-0.1,11.9,0.9,23.4,6.5,38.5
	c5.6,15.1,12.3,27.8,20.6,42.5c8.3,14.7,13.9,21.9,19.3,29.7c5.4,7.8,4.7,8.2,14.2,13.5c9.5,5.3,14.8,7.5,25.6,11.2
	c10.8,3.7,17.9,4.3,31.3,4.6c13.4,0.3,15.2,0.1,29.9-3.2c14.8-3.3,24.8-10.2,33.9-15.6c9.2-5.4,15.7-11.9,19.3-16
	c3.6-4.1,5.6-7.8,12.5-20c6.9-12.2,11.8-24.6,14.7-33.1c2.9-8.4,5.5-18.7,7.2-26c1.7-7.3,2.1-12.9,2.2-18.9c0.1-6,0-10.5-0.5-15.8
	c-0.5-5.3-1.1-8.9-1.8-12.8c-0.8-3.9-1.9-6.6-2.2-8.9c-0.3-2.2-1.7-1.1-2.7-0.2c-1,0.8-2.6,2.4-6.5,5.6c-4,3.2-9.1,7.4-15.3,12.4
	c-6.2,5-12.6,10-16.1,13.1c-3.5,3.1-3.3,0.2-2.7-1.5c0.6-1.6,2-6.3,4.6-13.7c2.6-7.4,4.2-12.2,6.4-17.4c2.2-5.2,4.4-10,5.4-11.9
	c1-1.9-0.3-1.4-1-0.7c-0.7,0.7-1.1,1.2-4.3,3.3c-3.1,2.1-5,3-10.7,5.1c-5.7,2.1-10,3.2-15.1,4c-5.1,0.8-6.3,0.5-6.5,0.1
	c-0.3-0.4,0.6-1.3,1.3-1.9c0.8-0.6,1.4-1.2,4.5-3.8c3.1-2.6,4.3-3.7,9.5-9.4c5.2-5.7,7.7-9.1,10.2-12.9c2.6-3.7,4-6.9,5.3-10
	c1.3-3.1,1.5-5.9,1.3-8.7c-0.2-2.8-0.6-4.7-0.9-6c-0.3-1.3-1-0.3-1-0.3c0,0-2,2.7-6,5.8c-4,3.1-7.9,5.9-14.5,9
	c-6.5,3.1-11.8,5.4-20.6,8.1c-8.8,2.7-15.6,4.1-22.7,4.8c-7.1,0.7-15.4,0.7-15.4,0.7c0.1-0.1,7.3-5.2,12.3-9.3
	c5-4.1,6.7-5.5,12.3-12c5.6-6.5,6.5-7.9,9.5-12.9c0.3-0.5,1.9-3,0.7-3.4C471.3,373.5,470.9,373.6,470.5,373.6z M430.7,241.3
	c8.8,0,17.6,0.3,26.2,1.8c10.9,2.1,29.1,6.1,44.1,13.9c15,7.9,29.8,17.5,41.6,29.1c11.8,11.6,26,27.3,35.3,42.1
	c9.2,14.8,13.8,23.4,20.4,38.9c6.6,15.5,8.5,29,10.6,42.9c2.1,13.9,1.6,34.8,1.5,48.4c-0.1,13.6-2.8,26.9-5.3,37.8
	c-2.6,10.9-5.1,18.3-8.7,27.5c-3.6,9.2-8.8,19.3-12.9,26.8c-4,7.4-7.3,13.5-10.6,19c-3.3,5.5-6.7,11.3-9.8,16.7
	c-3.1,5.4-4.7,8.9-5.6,11.2c-1,2.2-1.3,6.1-1,9.1c0.3,3.1,3.3,9,6.1,12.9c2.8,3.8,7.1,9.2,10.5,13.1c3.4,3.8,6.1,6.5,6.1,6.5
	c0,0-4.2-0.9-10.1-2.5c-5.9-1.6-8.5-2.2-15.8-4.3c-7.3-2.2-11.4-3.9-17.1-6.7c-5.7-2.7-8.8-4.4-13.5-7.6c-4.7-3.2-5.7-4.2-9.1-8.4
	c-3.3-4.2-4.4-6.9-5.1-9.9c-0.7-3-0.4-6.4-0.4-6.4s-7.2,5.9-12.8,8.9c-5.7,3.1-16.7,7.9-23.1,9.9c-6.5,2-19.6,4-25.7,4.6
	c-6,0.6-18.7,0.2-26.6-0.6c-8-0.8-18.9-4.2-26.9-6.9c-8-2.7-14.1-6.6-17.4-8.6c-3.3-1.9-6.7-5.1-6.7-5.1c0,0-0.4,1.8-1,3.9
	c-0.5,2-1.5,5.4-5.3,10c-3.9,4.6-7.6,8.1-14.4,11.9c-6.8,3.8-12.1,6.4-20.1,9.3c-8.1,2.9-12.3,4-18.3,5.7c-6,1.7-11.1,3.3-11.1,3.3
	s2.6-5.8,3.6-8.1c1-2.3,2-4.7,4.8-8.6c2.8-3.9,4.7-6.5,6.5-11.3c1.8-4.9,1.2-7.2,1.1-12.5c-0.1-5.4-1.3-8.2-3.5-15.7
	c-2.2-7.4-4-12.4-8-20.3c-4-7.9-7.1-14.4-11.5-22.6c-4.4-8.1-8.7-15.3-11.8-20.2c-3.2-4.9-7.3-10.9-10.2-17.1
	c-2.9-6.2-4.8-14.2-6.4-25.1c-1.6-11-2.2-26.1-2.4-36.4c-0.1-10.2,2.2-32.8,5.3-51.6c3.1-18.8,9.7-37.6,16-53
	c6.3-15.4,21.7-37.4,27.7-44.2c6.1-6.8,22.9-22.1,29.1-26.2c6.3-4,24.8-14.2,38.4-18.1c13.6-3.8,28.1-6.1,38.7-6.9
	C420.9,241.5,425.8,241.4,430.7,241.3z"/>
</svg>
