<?xml version="1.0" encoding="utf-8"?>
<!-- Generator: Adobe Illustrator 22.0.0, SVG Export Plug-In . SVG Version: 6.00 Build 0)  -->
<svg version="1.1" id="Layer_1" xmlns="http://www.w3.org/2000/svg" xmlns:xlink="http://www.w3.org/1999/xlink" x="0px" y="0px"
	 viewBox="0 0 900 900" style="enable-background:new 0 0 900 900;" xml:space="preserve">
<style type="text/css">
	.st0{fill:#07C632;}
	.st1{fill:#12284B;}
	.st2{fill:#FFFFFF;}
	.st3{fill:#FFEC02;}
</style>
<path class="st0" d="M459.7,130.4l8.2,0.7c0.7,0.1,1.3,0.3,1.7,0.8c0.4,0.5,0.6,1.1,0.5,1.8l-0.5,5.6c-0.1,0.7-0.3,1.3-0.8,1.7
	c-0.5,0.4-1.1,0.6-1.8,0.5l-8.2-0.7L459.7,130.4z M452,122.4l-3.1,38.4l8.2,0.7l1.1-13.2l9.6,0.8c1.4,0.1,2.7,0,3.8-0.4
	c1.2-0.4,2.2-0.9,3.1-1.7c0.9-0.8,1.6-1.7,2.2-2.8c0.5-1.1,0.9-2.3,1-3.7l0.5-6.6c0.1-1.4,0-2.7-0.4-3.8c-0.4-1.2-0.9-2.2-1.7-3.1
	c-0.8-0.9-1.7-1.6-2.8-2.2c-1.1-0.5-2.3-0.9-3.7-1L452,122.4z M444.8,121.5l-7.9,0.4l-4.9,25.8l-0.2,0l-7.3-25.2l-8.5,0.4l-4.9,25.8
	l-0.2,0l-7.3-25.2L395,124l12.1,38l8.5-0.4l4.9-25.8l0.2,0l7.3,25.2l8.5-0.4L444.8,121.5z M485.2,125.8l-5.9,38l8.2,1.3l5.9-38
	L485.2,125.8z M378.8,134.7c1.1,0.2,0.7,0,1.4,0.4c0.5,0.4,0.9,0.9,1,1.6l3.5,18.5c0.1,0.7,0,1.3-0.3,1.9c-0.4,0.5-0.9,0.9-1.6,1
	l-7.8,1.5c-0.7,0.1-1.3,0-1.9-0.3c-0.5-0.4-0.9-0.9-1-1.6l-3.5-18.5c-0.1-0.7,0-1.3,0.3-1.9c0.4-0.5,0.9-0.9,1.6-1l7.8-1.5
	L378.8,134.7z M379.7,127.1c-0.5,0-1,0.1-1.4,0.2l-10.5,2c-1.4,0.3-2.6,0.7-3.6,1.4c-1,0.7-1.9,1.5-2.5,2.4c-0.7,1-1.1,2-1.3,3.3
	c-0.2,1.2-0.2,2.5,0,3.9l3.7,19.4c0.3,1.4,0.7,2.6,1.4,3.6c0.7,1,1.5,1.9,2.4,2.5c1,0.7,2,1.1,3.3,1.3c1.2,0.2,2.5,0.2,3.9,0l10.5-2
	c1.4-0.3,2.6-0.7,3.6-1.4c1-0.7,1.9-1.5,2.5-2.4c0.7-1,1.1-2,1.3-3.3c0.2-1.2,0.2-2.5,0-3.9l-3.7-19.4c-0.3-1.4-0.7-2.6-1.4-3.6
	c-0.7-1-1.5-1.9-2.4-2.5c-1-0.7-2-1.1-3.3-1.3l-0.9-0.1C380.2,127.1,380.7,127.1,379.7,127.1L379.7,127.1z M498.8,127.7l-1.6,7.2
	l9.9,2.3l-7,30.3l8,1.8l7-30.3l9.9,2.3l1.6-7.2L498.8,127.7z M265.7,158l-7.8,4.7l-0.2,8.6l6-3.6L265.7,158z M337,137.2l-7.9,2.4
	l11.1,36.9l22.4-6.7l-2.1-7.1L346,167L337,137.2z M538.3,138.5c-1.2,0.1-2.4,0.4-3.4,0.9c-1,0.5-2,1.2-2.8,2.2
	c-0.8,0.9-1.4,2-1.9,3.4l-6.4,18.7c-0.5,1.3-0.6,2.6-0.6,3.8c0.1,1.2,0.4,2.4,0.9,3.4c0.5,1,1.2,2,2.2,2.8c0.9,0.8,2,1.4,3.4,1.9
	l9.1,3.1c1.3,0.5,2.6,0.6,3.8,0.6c1.2-0.1,2.4-0.4,3.4-0.9c1-0.5,2-1.2,2.8-2.2s1.4-2,1.9-3.4l0.8-2.2l-7.8-2.7l-0.6,1.8
	c-0.2,0.7-0.6,1.2-1.2,1.5c-0.6,0.3-1.2,0.3-1.9,0.1l-6.5-2.2c-0.7-0.2-1.2-0.6-1.5-1.2c-0.3-0.6-0.3-1.2-0.1-1.9l6.1-17.8
	c0.2-0.7,0.6-1.2,1.2-1.5s1.2-0.3,1.9-0.1l6.5,2.2c0.7,0.2,1.2,0.6,1.5,1.2c0.3,0.6,0.3,1.2,0.1,1.9l-0.6,1.8l7.8,2.7l0.8-2.2
	c0.5-1.3,0.6-2.6,0.6-3.8c-0.1-1.2-0.4-2.4-0.9-3.4c-0.5-1-1.2-2-2.2-2.8c-0.9-0.8-2-1.4-3.4-1.9l-9.1-3.1
	C540.8,138.6,539.5,138.4,538.3,138.5L538.3,138.5z M315.6,145.2c-1.2,0-2.5,0.3-3.8,0.8l-8.1,3.4c-1.3,0.5-2.4,1.2-3.2,2.1
	c-0.9,0.9-1.5,1.8-2,2.9c-0.4,1.1-0.7,2.2-0.7,3.5c0,1.2,0.3,2.5,0.8,3.8l1.6,3.8c0.5,1.3,1.2,2.4,2.1,3.2c0.9,0.9,1.8,1.5,2.9,2
	c1.1,0.4,2.2,0.7,3.5,0.7c1.2,0,2.5-0.3,3.8-0.8l7.1-2.9c0.7-0.3,1.3-0.3,1.9,0c0.6,0.2,1,0.7,1.3,1.4l1.3,3.1
	c0.3,0.7,0.3,1.3,0,1.9c-0.2,0.6-0.7,1-1.4,1.3l-6.4,2.6c-0.7,0.3-1.3,0.3-1.9,0c-0.6-0.2-1-0.7-1.3-1.4l-0.7-1.7l-7.6,3.1l0.9,2.2
	c0.5,1.3,1.2,2.4,2.1,3.2c0.9,0.9,1.8,1.5,2.9,2c1.1,0.4,2.2,0.7,3.5,0.7c1.2,0,2.5-0.3,3.8-0.8l8.9-3.7c1.3-0.5,2.4-1.2,3.2-2.1
	c0.9-0.9,1.5-1.8,2-2.9c0.4-1.1,0.7-2.2,0.7-3.5c0-1.2-0.3-2.5-0.8-3.8l-1.7-4c-0.5-1.3-1.2-2.4-2.1-3.2c-0.9-0.9-1.8-1.5-2.9-2
	c-1.1-0.4-2.2-0.7-3.5-0.7c-1.2,0-2.5,0.3-3.8,0.8l-7.1,2.9c-0.7,0.3-1.3,0.3-1.9,0c-0.6-0.2-1-0.7-1.3-1.4l-1.2-2.9
	c-0.3-0.7-0.3-1.3,0-1.9c0.2-0.6,0.7-1,1.4-1.3l5.6-2.3c0.7-0.3,1.3-0.3,1.9,0c0.6,0.2,1,0.7,1.3,1.4l0.7,1.7l7.6-3.1l-0.9-2.2
	c-0.5-1.3-1.2-2.4-2.1-3.2c-0.9-0.9-1.8-1.5-2.9-2C318,145.4,316.9,145.2,315.6,145.2L315.6,145.2z M568.1,148.5l-16.5,34.8l7.5,3.5
	l6.7-14.2l11.7,5.5l-6.7,14.2l7.5,3.5l16.5-34.8l-7.5-3.5l-6.6,14l-11.7-5.5l6.6-14L568.1,148.5z M607.8,177.5l0.9,0.4l6.7,4.3
	c0.6,0.4,1,0.9,1.1,1.5c0.1,0.6,0,1.3-0.4,1.9l-10,15.9c-0.4,0.6-0.9,1-1.5,1.1c-0.6,0.1-1.3,0-1.9-0.4l-6.7-4.3
	c-0.6-0.4-1-0.9-1.1-1.5c-0.1-0.6,0-1.3,0.4-1.9l10-15.9c0.4-0.6,0.9-1,1.5-1.1L607.8,177.5z M606.2,169.4l-1.7,0.2
	c-1.1,0.3-2.2,0.7-3.2,1.5c-1,0.7-1.9,1.7-2.6,2.8l-10.6,16.7c-0.7,1.2-1.2,2.4-1.4,3.6c-0.2,1.2-0.2,2.4,0.1,3.5
	c0.3,1.1,0.7,2.2,1.5,3.2c0.7,1,1.7,1.9,2.8,2.6l9.1,5.7c1.2,0.7,2.4,1.2,3.6,1.4c1.2,0.2,2.4,0.2,3.5-0.1c1.1-0.3,2.2-0.7,3.2-1.5
	c1-0.7,1.9-1.7,2.6-2.8l10.6-16.7c0.7-1.2,1.2-2.4,1.4-3.6c0.2-1.2,0.2-2.4-0.1-3.5c-0.3-1.1-0.7-2.2-1.5-3.2
	c-0.7-1-1.7-1.9-2.8-2.6l-9.1-5.7c-1.2-0.7-2.4-1.2-3.6-1.4L606.2,169.4z M681.9,215.2l-8.4,1.8l4.9,5l9.9-0.4L681.9,215.2z
	 M633.9,185.4l-13.7,38.3l5.5,4.4l34.5-21.7l-6.6-5.3l-22.3,15l-0.2-0.1l9.9-25L633.9,185.4z M267.3,180.1l9.7,8.6l-6.8,4.1
	l-3.1-12.6L267.3,180.1z M265.6,168.7l-7.2,4.4l8.4,38.8l-24-8.3l0-20.6l-7.2,5.6l0.4,20.6l-0.2,0.2l-10.2-13l-6.5,5.1l23.7,30.4
	l6.5-5.1l-6.5-8.3l0-6.1l17.3,5.9l7.1-5.6l7-4.2l-2.1-8.2l10.7-6.5l6.3,5.6l7.7-4.7L265.6,168.7z M211.8,211.5
	c-1.2,0-2.3,0.2-3.4,0.7c-1.1,0.5-2.2,1.2-3.2,2.2l-6.3,6.2c-1,1-1.7,2-2.2,3.1c-0.5,1.1-0.7,2.3-0.8,3.4c0,1.2,0.2,2.3,0.7,3.4
	c0.5,1.1,1.2,2.2,2.2,3.2l2.9,2.9c1,1,2,1.7,3.1,2.2c1.1,0.5,2.3,0.7,3.4,0.8c1.2,0,2.3-0.2,3.4-0.7c1.1-0.5,2.2-1.2,3.2-2.2
	l5.5-5.4c0.5-0.5,1.1-0.8,1.8-0.8c0.6,0,1.2,0.3,1.7,0.8l2.3,2.4c0.5,0.5,0.8,1.1,0.8,1.8c0,0.6-0.3,1.2-0.8,1.7l-4.9,4.8
	c-0.5,0.5-1.1,0.8-1.8,0.8c-0.6,0-1.2-0.3-1.7-0.8l-1.3-1.3l-5.9,5.8l1.7,1.7c1,1,2,1.7,3.1,2.2c1.1,0.5,2.3,0.7,3.4,0.8
	c1.2,0,2.3-0.2,3.4-0.7s2.2-1.2,3.2-2.2l6.9-6.7c1-1,1.7-2,2.2-3.1s0.7-2.3,0.8-3.4c0-1.2-0.2-2.3-0.7-3.4c-0.5-1.1-1.2-2.2-2.2-3.2
	l-3-3.1c-1-1-2-1.7-3.1-2.2c-1.1-0.5-2.3-0.7-3.4-0.8c-1.2,0-2.3,0.2-3.4,0.7c-1.1,0.5-2.2,1.2-3.2,2.2l-5.5,5.4
	c-0.5,0.5-1.1,0.8-1.8,0.8c-0.6,0-1.2-0.3-1.7-0.8l-2.2-2.2c-0.5-0.5-0.8-1.1-0.8-1.8c0-0.6,0.3-1.2,0.8-1.7l4.3-4.2
	c0.5-0.5,1.1-0.8,1.8-0.8c0.6,0,1.2,0.3,1.7,0.8l1.3,1.3l5.9-5.8l-1.7-1.7c-1-1-2-1.7-3.1-2.2C214.1,211.8,213,211.5,211.8,211.5
	L211.8,211.5z M667.1,228.2l0.2,0.2l-6.1,11.5l-5.6-5.6L667.1,228.2z M671.9,218l-36.7,17.7l6,6l7.5-3.9l8.8,8.9l-4,7.5l6.4,6.4
	l17.9-36.6L671.9,218z M187.5,232.1l-18.2,22.1l5.7,4.7l6.5-7.8l24,19.8l5.3-6.4l-24-19.8l6.5-7.8L187.5,232.1z M699.9,249l-31,22.8
	l13.8,18.8l5.9-4.4l-8.9-12.2l25.1-18.4L699.9,249z M716.8,273l-32.6,20.6l4.4,7l32.6-20.6L716.8,273z M167.8,262.9l-1.7,0.2
	c-1.1,0.2-2.2,0.7-3.2,1.4c-1,0.7-1.9,1.6-2.7,2.8l-4.9,7.3c-0.8,1.2-1.3,2.3-1.5,3.5c-0.2,1.2-0.2,2.4,0,3.5
	c0.2,1.1,0.7,2.2,1.4,3.2c0.7,1,1.6,1.9,2.8,2.7l3.4,2.3c1.2,0.8,2.3,1.3,3.5,1.5c1.2,0.2,2.4,0.2,3.5,0c1.1-0.2,2.2-0.7,3.2-1.4
	c1-0.7,1.9-1.6,2.7-2.8l4.2-6.4c0.4-0.6,0.9-1,1.6-1.1c0.6-0.1,1.3,0,1.9,0.4l2.8,1.8c0.6,0.4,1,0.9,1.1,1.6c0.1,0.6,0,1.3-0.4,1.9
	l-3.8,5.7c-0.4,0.6-0.9,1-1.6,1.1c-0.6,0.1-1.3,0-1.9-0.4l-1.6-1l-4.5,6.9l2,1.3c1.2,0.8,2.3,1.3,3.5,1.5c1.2,0.2,2.4,0.2,3.5,0
	c1.1-0.2,2.2-0.7,3.2-1.4c1-0.7,1.9-1.6,2.7-2.8l5.3-8c0.8-1.2,1.3-2.3,1.5-3.5s0.2-2.4,0-3.5c-0.2-1.1-0.7-2.2-1.4-3.2
	s-1.6-1.9-2.8-2.7l-3.6-2.4c-1.2-0.8-2.3-1.3-3.5-1.5c-1.2-0.2-2.4-0.2-3.5,0c-1.1,0.2-2.2,0.7-3.2,1.4c-1,0.7-1.9,1.6-2.7,2.8
	l-4.2,6.4c-0.4,0.6-0.9,1-1.6,1.1c-0.6,0.1-1.3,0-1.9-0.4l-2.6-1.7c-0.6-0.4-1-0.9-1.1-1.6c-0.1-0.6,0-1.3,0.4-1.9l3.3-5
	c0.4-0.6,0.9-1,1.6-1.1c0.6-0.1,1.3,0,1.9,0.4l1.6,1l4.5-6.9l-2-1.3c-1.2-0.8-2.3-1.3-3.5-1.5L167.8,262.9z M136.9,287.5l-3.4,6.7
	l1.7,3.5l-3.8,0.7l-3.4,6.7l8.8-1.3l4.2-8.2L136.9,287.5z M721.4,290.5c-1.2,0.1-2.4,0.5-3.7,1.1l-17.6,9.1
	c-1.2,0.6-2.3,1.4-3.1,2.4c-0.8,0.9-1.4,2-1.7,3.1c-0.4,1.1-0.5,2.3-0.4,3.5c0.1,1.2,0.5,2.4,1.1,3.7l4.4,8.5
	c0.6,1.2,1.4,2.3,2.4,3.1c0.9,0.8,2,1.4,3.1,1.7c1.1,0.4,2.3,0.5,3.5,0.4c1.2-0.1,2.4-0.5,3.7-1.1l9.7-5l-7-13.4l-6.5,3.4l3.2,6.1
	l-2.7,1.4c-0.7,0.3-1.3,0.4-1.9,0.2c-0.6-0.2-1.1-0.6-1.4-1.3l-3.2-6.1c-0.3-0.7-0.4-1.3-0.2-1.9c0.2-0.6,0.6-1.1,1.3-1.4l16.7-8.7
	c0.7-0.3,1.3-0.4,1.9-0.2c0.6,0.2,1.1,0.6,1.4,1.3l3.2,6.1c0.3,0.7,0.4,1.3,0.2,1.9c-0.2,0.6-0.6,1.1-1.3,1.4l-1.7,0.9l3.8,7.3
	l2.1-1.1c1.2-0.6,2.3-1.4,3.1-2.4c0.8-0.9,1.4-2,1.7-3.1c0.4-1.1,0.5-2.3,0.4-3.5c-0.1-1.2-0.5-2.4-1.1-3.7l-4.4-8.5
	c-0.6-1.2-1.4-2.3-2.4-3.1c-0.9-0.8-2-1.4-3.1-1.7l-1.7-0.4L721.4,290.5z M145.9,289.8l-11.2,21.8l34.2,17.6l11.4-22.3l-6.6-3.4
	l-7.7,14.9l-7.4-3.8l6.9-13.5l-6.6-3.4l-6.9,13.5l-7.2-3.7l7.4-14.4L145.9,289.8z M738,338.4l0.1,0.2l-10.3,8l-2.8-7.4L738,338.4z
	 M746.6,331.1l-40.7,1.1l3,7.9l8.4-0.5l4.4,11.7l-6.7,5.2l3.2,8.4l31.4-26L746.6,331.1z M130.3,320.9l-2.7,7.5l17.3,16.4l-0.1,0.2
	l-23.7,1.3l-2.9,8l36.2,13.2l2.8-7.7l-19.7-7.2l0.1-0.3l22.8-1.4l0.1-0.3l-16.6-15.7l0.1-0.3l19.7,7.2l2.8-7.7L130.3,320.9z
	 M123.3,407.8c-19.3,0-35,15.7-35,35c0,19.3,15.7,35,35,35s35-15.7,35-35C158.3,423.5,142.7,407.8,123.3,407.8L123.3,407.8z
	 M748.2,408.3c-19.3,0-35,15.7-35,35c0,19.3,15.7,35,35,35c19.3,0,35-15.7,35-35C783.2,424,767.5,408.3,748.2,408.3L748.2,408.3z
	 M436.1,206.7c-129.8,0-235,105.2-235,235c0,129.8,105.2,235,235,235c129.8,0,235-105.2,235-235S565.9,206.7,436.1,206.7
	L436.1,206.7z M223.4,666.9l10.1,9.2c0.7,0.6,1.1,1.4,1.1,2.2c0,0.8-0.3,1.6-0.9,2.3l-16.6,18.2c-0.6,0.7-1.4,1.1-2.2,1.1
	c-0.8,0-1.6-0.3-2.3-0.9l-10.1-9.2L223.4,666.9z M222,652.5l-34.1,37.2l19.4,17.8c1.3,1.2,2.8,2.1,4.3,2.7c1.5,0.6,3,0.8,4.5,0.7
	c1.5-0.1,3-0.4,4.5-1.1c1.4-0.7,2.8-1.7,4-3.1l17.5-19.1c1.2-1.3,2.1-2.8,2.7-4.3c0.6-1.5,0.8-3,0.7-4.5c-0.1-1.5-0.4-3-1.1-4.5
	c-0.7-1.4-1.7-2.8-3.1-4L222,652.5z M577.2,694.3l-10.6,5.3l-1.1,11.2l8.2-4.1L577.2,694.3z M382.1,726.5l-7.8,8.1l9,1.8l10.5-7.6
	L382.1,726.5z M633.8,669l-8.3,6.3l7.4,30.3l-0.2,0.2l-27.1-15.4l-8.9,6.7l30.4,40.2l8.6-6.5l-16.5-21.9l0.3-0.2l26.1,14.7l0.3-0.3
	l-7.1-29l0.3-0.2l16.5,21.9l8.6-6.5L633.8,669z M478.5,728.1l-11.8,1.1l-5.1,10l9.1-0.9L478.5,728.1z M265.8,701.9
	c1.5,0.3,0.9,0.1,1.8,0.6l8.8,5.6c0.8,0.5,1.3,1.2,1.5,2c0.2,0.8,0,1.6-0.5,2.5l-13.3,20.8c-0.5,0.8-1.2,1.3-2,1.5
	c-0.8,0.2-1.6,0-2.5-0.5l-8.8-5.6c-0.8-0.5-1.3-1.2-1.5-2c-0.2-0.8,0-1.6,0.5-2.5l13.3-20.8c0.5-0.8,1.2-1.3,2-1.5L265.8,701.9z
	 M263.7,691.3c-0.6,0-1.1,0.1-1.7,0.2c-1.5,0.3-2.9,1-4.2,1.9c-1.3,0.9-2.5,2.2-3.4,3.7l-14,21.8c-1,1.5-1.6,3.1-1.9,4.7
	c-0.3,1.6-0.3,3.1,0,4.6c0.3,1.5,1,2.9,1.9,4.2c0.9,1.3,2.2,2.5,3.7,3.4l11.8,7.6c1.5,1,3.1,1.6,4.7,1.9c1.6,0.3,3.1,0.3,4.6,0
	c1.5-0.3,2.9-1,4.2-1.9c1.3-0.9,2.5-2.2,3.4-3.7l14-21.8c1-1.5,1.6-3.1,1.9-4.7c0.3-1.6,0.3-3.1,0-4.6c-0.3-1.5-1-2.9-1.9-4.2
	c-0.9-1.3-2.2-2.5-3.7-3.4l-11.8-7.6c-1.5-1-3.1-1.6-4.7-1.9l-1.2-0.2C264.4,691.3,264.9,691.3,263.7,691.3z M589.8,701.3l-10,5
	l-1.1,21.5l-0.3,0.1L561,715.7l-10.8,5.4l27.6,18.6l9.6,19.1l9.7-4.8l-9.6-19.1L589.8,701.3z M304.8,713.8L286,760.6l10,4l10.2-25.5
	l0.3,0.1l0.9,29.9l0.4,0.2l21.2-21l0.3,0.1l-10.2,25.5l10,4l18.8-46.8l-9.7-3.9l-22.1,21.9l-0.3-0.1l-0.8-31.1L304.8,713.8z
	 M544.8,723.1l-35.7,11.3l2.9,9.2l12.7-4l12.4,38.8l10.3-3.3L535,736.3l12.7-4L544.8,723.1z M375.6,751.5l0.3,0.1l1.8,16.9l-10.2-2
	L375.6,751.5z M373.4,736.9l-26.9,46l10.9,2.2l5.2-9.7l16,3.2l1.2,11l11.6,2.3l-7.2-52.8L373.4,736.9z M470.9,740.8l-10.8,1
	l4.8,50.2l10.8-1L470.9,740.8z M420.8,743.4c-1.8,0-3.5,0.3-5,0.8c-1.5,0.6-2.8,1.4-3.9,2.5c-1.1,1.1-2,2.3-2.6,3.8s-0.9,3.1-1,5
	l-0.3,25.9c0,1.8,0.3,3.5,0.8,5c0.6,1.5,1.4,2.8,2.5,3.9c1.1,1.1,2.3,2,3.8,2.6c1.5,0.6,3.1,0.9,5,1l12.6,0.2c1.8,0,3.5-0.3,5-0.8
	c1.5-0.6,2.8-1.4,3.9-2.5c1.1-1.1,2-2.3,2.6-3.8c0.6-1.5,0.9-3.1,1-5l0-3.1l-10.8-0.1l0,2.4c0,1-0.3,1.7-0.9,2.3
	c-0.6,0.6-1.4,0.9-2.4,0.9l-9-0.1c-1,0-1.7-0.3-2.3-0.9c-0.6-0.6-0.9-1.4-0.9-2.4l0.3-24.6c0-1,0.3-1.7,0.9-2.3
	c0.6-0.6,1.4-0.9,2.4-0.9l9,0.1c1,0,1.7,0.3,2.3,0.9s0.9,1.4,0.9,2.4l0,2.4l10.8,0.1l0-3.1c0-1.8-0.3-3.5-0.8-5
	c-0.6-1.5-1.4-2.8-2.5-3.9c-1.1-1.1-2.3-2-3.8-2.6c-1.5-0.6-3.1-0.9-5-1L420.8,743.4z M434.4,52.9c215.4,0,390,174.6,390,390
	s-174.6,390-390,390s-390-174.6-390-390S219,52.9,434.4,52.9L434.4,52.9z"/>
<ellipse transform="matrix(0.1602 -0.9871 0.9871 0.1602 -333.5489 493.7792)" class="st0" cx="123.4" cy="442.9" rx="27.5" ry="27.5"/>
<circle class="st0" cx="748.3" cy="443.4" r="27.5"/>
<path class="st1" d="M353.2,535.2c0,0-42.6,0.1-42.6,0c0,0-0.1,15.1-0.1,15.1c0,0,42.6-0.1,42.6-0.1
	C353.1,550.2,353.2,535.2,353.2,535.2z M317.7,563.2c0,0-0.2,42.3-0.2,42.3c0,0,28.8-0.2,28.8-0.2s-0.3-42-0.3-42
	C346,563.3,317.7,563.3,317.7,563.2z M275.3,285.3c1.2,0,0.7,0,1.3,0c0,0,283.9,0.1,283.9,0.1v13.3c0,0-277.7,0.3-277.7,0.3
	c0,0,0.2,223.2,0.2,223.2h96.8c0,0,0.1,12.6,0.1,12.6c0,0-13.2,0.2-13.2,0.2c0,0,0.1,22.5,0.1,22.5s-0.1,2.2-1,3.7
	c-0.9,1.5-2.7,1.4-2.7,1.4c0,0-3.5,0.1-3.5,0.1l0.2,50.7c0,0,0.1,1.8-2.1,3.9c-2.1,2.1-5.8,1.9-5.8,1.9c0,0-39.7-0.2-39.7-0.2
	c-0.1-0.1-4-0.2-6.1-1.8c-2.1-1.5-1.8-4-1.8-4s-0.1-50.6-0.1-50.6c0,0-3.5-0.1-5.4-1.3c-1.9-1.3-1.7-3.2-1.7-3.2
	c0,0,0.1-23.1,0.1-23.1c0,0-23,0.1-23,0.1c0,0-2.5-0.1-3.9-1.2c-1.4-1-1.2-4.4-1.2-4.4c0,0,0.1-238.5,0.1-238.5c0,0,1-3.1,2.3-4.6
	C272.5,285.5,274,285.4,275.3,285.3z"/>
<path class="st1" d="M519.1,535.2v14.6c0,0,41.9,0.1,41.9,0.1s-0.2-14.6-0.2-14.6C560.8,535.3,519.1,535.2,519.1,535.2z M554,563.3
	h-28.4c0,0,0.3,42,0.2,42h28.4C554.2,605.3,554,563.3,554,563.3z M595.3,285.3c0,0,3.8,0.2,5.8,1.6c2,1.4,1.9,4,1.9,4V529
	c0,0-0.5,3-1.6,4.4c-1.1,1.4-2.9,1.7-2.9,1.7c0,0-23.7-0.1-23.7-0.1c0,0,0.2,21.3,0.2,21.3c0,0-0.2,2.8-1.1,4.2
	c-0.9,1.4-2.4,1.6-2.4,1.6l-3.7,0.1v50.9c0,0-0.9,2.7-2.1,4c-1.2,1.4-4.6,1.9-4.6,1.9h-41.4c0,0-2.9-0.2-5.3-1.5s-1.9-4.2-1.9-4.2
	c0,0-0.1-50.4-0.1-50.4c0,0-3.8-0.2-5.4-1.2c-1.6-0.9-1.4-4.2-1.4-4.2l0.2-22.5H394.6c0,0,0.1-12.9,0.1-12.9h194.5l0.1-223.1
	l-13.8-0.2c0,0,0.1-13.6,0.1-13.6H595.3z"/>
<path class="st1" d="M317,465.2v-12.9l-20.2-0.1c0,0-2.7-0.3-4.6,1.6c-1.9,1.8-1.7,4.1-1.7,4.1l-0.4,43.8c0,0-0.2,2.5,1.6,4
	c1.8,1.5,4.6,1.8,4.6,1.8l85.5-0.1c0,0,2.8,0,4.3-1.8c1.6-1.8,1.8-4.7,1.8-4.7l-0.3-43.4c0,0,0.9-1.6-2.1-3.6s-5.8-1.7-5.8-1.7
	l-47.5,0.1l-0.2,13.3l41.4,0.3V494l-69.9,0.3v-29C303.8,465.2,317,465.3,317,465.2z"/>
<rect x="401.8" y="473.2" class="st1" width="40.8" height="13"/>
<rect x="457.2" y="473.4" class="st1" width="13.2" height="12.9"/>
<path class="st1" d="M568.4,466H498v27.7h70.3V466z M491,452.8c0.7,0.1,0.4,0,0.7,0.1c0,0,82.3,0.1,82.3,0.1c0,0,3.7-0.2,5.8,1.4
	c2.2,1.6,2.2,3.7,2.2,3.7v43.1c0,0-0.3,2.9-1.6,4.6c-1.3,1.7-5.3,1.6-5.3,1.6h-84.3c0,0-2.4-0.1-4.3-1.5c-1.9-1.4-1.8-3.7-1.8-3.7
	v-44.4c0.2,0,0.8-2.4,2.9-3.9C488.6,453.2,489.8,453,491,452.8z"/>
<path class="st1" d="M526.6,424.5l0.1,13.5l48.7,0.2c0,0,3.4-0.4,4.8-1.9c1.5-1.6,1.7-4.3,1.7-4.3l0.1-113.6c0,0-0.3-2.2-2.3-3.6
	c-2-1.4-5-1.2-5-1.2l-83.2-0.1c0,0-3.1,0-4.5,1.5c-1.4,1.5-1.9,4.5-1.9,4.5v112.7c0,0,0.2,3.4,1.6,4.4c1.4,1,5.3,1.6,5.3,1.6
	l19.9-0.1v-13.6l-13.4-0.2l-0.1-97.8l69.9,0.1v97.8C568.1,424.4,526.4,424.5,526.6,424.5z"/>
<path class="st1" d="M345.4,326.8l-0.1-13.5l-48.7-0.2c0,0-3.4,0.4-4.8,1.9c-1.5,1.6-1.7,4.3-1.7,4.3L290,432.9c0,0,0.3,2.2,2.3,3.6
	c2,1.4,5,1.2,5,1.2l83.2,0.1c0,0,3.1,0,4.5-1.5c1.4-1.5,1.9-4.5,1.9-4.5V319c0,0-0.2-3.4-1.6-4.4c-1.4-1-5.3-1.6-5.3-1.6l-19.9,0.1
	l0,13.6l13.4,0.2l0.1,97.8l-69.9-0.1v-97.8C303.8,326.9,345.5,326.8,345.4,326.8z"/>
<path class="st1" d="M405.2,312.8h62c6.1,0,11.1,5,11.1,11.1v103.5c0,6.1-5,11.1-11.1,11.1h-62c-6.1,0-11.1-5-11.1-11.1V323.8
	C394.1,317.7,399.1,312.8,405.2,312.8z"/>
<rect x="408.1" y="326.7" class="st2" width="55.5" height="42"/>
<rect x="408.1" y="382.6" class="st2" width="56" height="42"/>
<path class="st3" d="M346.8,396.4c1.2,0,2.2-0.4,2.9-1.1s1.1-1.7,1.1-2.9v-30.8c0-1.2-0.4-2.2-1.1-2.9s-1.7-1.1-2.9-1.1h-17.1v38.9
	H346.8z M316.2,345.4H349c2.3,0,4.4,0.4,6.2,1.1s3.5,1.8,4.8,3.1c1.4,1.4,2.4,3,3.1,4.8c0.8,1.9,1.1,3.9,1.1,6.2v32.4
	c0,2.3-0.4,4.4-1.1,6.2c-0.8,1.9-1.8,3.5-3.1,4.8s-3,2.4-4.8,3.1s-3.9,1.1-6.2,1.1h-32.9V345.4z"/>
<polygon class="st3" points="511.7,406.9 511.7,343.9 525.2,343.9 525.2,369.2 546.3,369.2 546.3,343.9 559.8,343.9 559.8,406.9 
	546.3,406.9 546.3,381.3 525.2,381.3 525.2,406.9 "/>
</svg>
