<?xml version="1.0" encoding="utf-8"?>
<!-- Generator: Adobe Illustrator 22.0.0, SVG Export Plug-In . SVG Version: 6.00 Build 0)  -->
<svg version="1.1" xmlns="http://www.w3.org/2000/svg" xmlns:xlink="http://www.w3.org/1999/xlink" x="0px" y="0px"
	 viewBox="0 0 900 900" style="enable-background:new 0 0 900 900;" xml:space="preserve">
<style type="text/css">
	.st0{fill:#FFFFFF;}
	.st1{fill:#07C632;}
	.st2{fill:#4E6588;}
	.st3{fill:none;stroke:#000000;stroke-width:8;}
	.st4{fill:#012354;}
	.st5{fill:none;stroke:#000000;stroke-width:5;}
</style>
<g id="Layer_3">
	<circle class="st0" cx="432" cy="440" r="370"/>
</g>
<g id="Layer_1">
	<path class="st1" d="M459.7,130.4l8.2,0.7c0.7,0.1,1.3,0.3,1.7,0.8c0.4,0.5,0.6,1.1,0.5,1.8l-0.5,5.6c-0.1,0.7-0.3,1.3-0.8,1.7
		c-0.5,0.4-1.1,0.6-1.8,0.5l-8.2-0.7L459.7,130.4z M452,122.4l-3.1,38.4l8.2,0.7l1.1-13.2l9.6,0.8c1.4,0.1,2.7,0,3.8-0.4
		c1.2-0.4,2.2-0.9,3.1-1.7c0.9-0.8,1.6-1.7,2.2-2.8c0.5-1.1,0.9-2.3,1-3.7l0.5-6.6c0.1-1.4,0-2.7-0.4-3.8c-0.4-1.2-0.9-2.2-1.7-3.1
		c-0.8-0.9-1.7-1.6-2.8-2.2c-1.1-0.5-2.3-0.9-3.7-1L452,122.4z M444.8,121.5l-7.9,0.4l-4.9,25.8l-0.2,0l-7.3-25.2l-8.5,0.4
		l-4.9,25.8l-0.2,0l-7.3-25.2L395,124l12.1,38l8.5-0.4l4.9-25.8l0.2,0l7.3,25.2l8.5-0.4L444.8,121.5z M485.2,125.8l-5.9,38l8.2,1.3
		l5.9-38L485.2,125.8z M378.8,134.7c1.1,0.2,0.7,0,1.4,0.4c0.5,0.4,0.9,0.9,1,1.6l3.5,18.5c0.1,0.7,0,1.3-0.3,1.9
		c-0.4,0.5-0.9,0.9-1.6,1l-7.8,1.5c-0.7,0.1-1.3,0-1.9-0.3c-0.5-0.4-0.9-0.9-1-1.6l-3.5-18.5c-0.1-0.7,0-1.3,0.3-1.9
		c0.4-0.5,0.9-0.9,1.6-1l7.8-1.5L378.8,134.7z M379.7,127.1L379.7,127.1c-0.5,0-1,0.1-1.4,0.2l-10.5,2c-1.4,0.3-2.6,0.7-3.6,1.4
		c-1,0.7-1.9,1.5-2.5,2.4c-0.7,1-1.1,2-1.3,3.3c-0.2,1.2-0.2,2.5,0,3.9l3.7,19.4c0.3,1.4,0.7,2.6,1.4,3.6c0.7,1,1.5,1.9,2.4,2.5
		c1,0.7,2,1.1,3.3,1.3c1.2,0.2,2.5,0.2,3.9,0l10.5-2c1.4-0.3,2.6-0.7,3.6-1.4c1-0.7,1.9-1.5,2.5-2.4c0.7-1,1.1-2,1.3-3.3
		c0.2-1.2,0.2-2.5,0-3.9l-3.7-19.4c-0.3-1.4-0.7-2.6-1.4-3.6c-0.7-1-1.5-1.9-2.4-2.5c-1-0.7-2-1.1-3.3-1.3l-0.9-0.1
		C380.2,127.1,380.7,127.1,379.7,127.1z M498.8,127.7l-1.6,7.2l9.9,2.3l-7,30.3l8,1.8l7-30.3l9.9,2.3l1.6-7.2L498.8,127.7z
		 M265.7,158l-7.8,4.7l-0.2,8.6l6-3.6L265.7,158z M337,137.2l-7.9,2.4l11.1,36.9l22.4-6.7l-2.1-7.1L346,167L337,137.2z M538.3,138.5
		L538.3,138.5c-1.2,0.1-2.4,0.4-3.4,0.9c-1,0.5-2,1.2-2.8,2.2c-0.8,0.9-1.4,2-1.9,3.4l-6.4,18.7c-0.5,1.3-0.6,2.6-0.6,3.8
		c0.1,1.2,0.4,2.4,0.9,3.4c0.5,1,1.2,2,2.2,2.8c0.9,0.8,2,1.4,3.4,1.9l9.1,3.1c1.3,0.5,2.6,0.6,3.8,0.6c1.2-0.1,2.4-0.4,3.4-0.9
		c1-0.5,2-1.2,2.8-2.2c0.8-0.9,1.4-2,1.9-3.4l0.8-2.2l-7.8-2.7l-0.6,1.8c-0.2,0.7-0.6,1.2-1.2,1.5c-0.6,0.3-1.2,0.3-1.9,0.1
		l-6.5-2.2c-0.7-0.2-1.2-0.6-1.5-1.2c-0.3-0.6-0.3-1.2-0.1-1.9l6.1-17.8c0.2-0.7,0.6-1.2,1.2-1.5c0.6-0.3,1.2-0.3,1.9-0.1l6.5,2.2
		c0.7,0.2,1.2,0.6,1.5,1.2c0.3,0.6,0.3,1.2,0.1,1.9l-0.6,1.8l7.8,2.7l0.8-2.2c0.5-1.3,0.6-2.6,0.6-3.8c-0.1-1.2-0.4-2.4-0.9-3.4
		c-0.5-1-1.2-2-2.2-2.8c-0.9-0.8-2-1.4-3.4-1.9l-9.1-3.1C540.8,138.6,539.5,138.4,538.3,138.5z M315.6,145.2L315.6,145.2
		c-1.2,0-2.5,0.3-3.8,0.8l-8.1,3.4c-1.3,0.5-2.4,1.2-3.2,2.1c-0.9,0.9-1.5,1.8-2,2.9c-0.4,1.1-0.7,2.2-0.7,3.5
		c0,1.2,0.3,2.5,0.8,3.8l1.6,3.8c0.5,1.3,1.2,2.4,2.1,3.2c0.9,0.9,1.8,1.5,2.9,2c1.1,0.4,2.2,0.7,3.5,0.7c1.2,0,2.5-0.3,3.8-0.8
		l7.1-2.9c0.7-0.3,1.3-0.3,1.9,0c0.6,0.2,1,0.7,1.3,1.4l1.3,3.1c0.3,0.7,0.3,1.3,0,1.9c-0.2,0.6-0.7,1-1.4,1.3l-6.4,2.6
		c-0.7,0.3-1.3,0.3-1.9,0c-0.6-0.2-1-0.7-1.3-1.4l-0.7-1.7l-7.6,3.1l0.9,2.2c0.5,1.3,1.2,2.4,2.1,3.2c0.9,0.9,1.8,1.5,2.9,2
		c1.1,0.4,2.2,0.7,3.5,0.7c1.2,0,2.5-0.3,3.8-0.8l8.9-3.7c1.3-0.5,2.4-1.2,3.2-2.1c0.9-0.9,1.5-1.8,2-2.9c0.4-1.1,0.7-2.2,0.7-3.5
		c0-1.2-0.3-2.5-0.8-3.8l-1.7-4c-0.5-1.3-1.2-2.4-2.1-3.2c-0.9-0.9-1.8-1.5-2.9-2c-1.1-0.4-2.2-0.7-3.5-0.7c-1.2,0-2.5,0.3-3.8,0.8
		l-7.1,2.9c-0.7,0.3-1.3,0.3-1.9,0c-0.6-0.2-1-0.7-1.3-1.4l-1.2-2.9c-0.3-0.7-0.3-1.3,0-1.9c0.2-0.6,0.7-1,1.4-1.3l5.6-2.3
		c0.7-0.3,1.3-0.3,1.9,0c0.6,0.2,1,0.7,1.3,1.4l0.7,1.7l7.6-3.1l-0.9-2.2c-0.5-1.3-1.2-2.4-2.1-3.2c-0.9-0.9-1.8-1.5-2.9-2
		C318,145.4,316.9,145.2,315.6,145.2z M568.1,148.5l-16.5,34.8l7.5,3.5l6.7-14.2l11.7,5.5l-6.7,14.2l7.5,3.5l16.5-34.8l-7.5-3.5
		l-6.6,14l-11.7-5.5l6.6-14L568.1,148.5z M607.8,177.5l0.9,0.4l6.7,4.3c0.6,0.4,1,0.9,1.1,1.5c0.1,0.6,0,1.3-0.4,1.9l-10,15.9
		c-0.4,0.6-0.9,1-1.5,1.1c-0.6,0.1-1.3,0-1.9-0.4l-6.7-4.3c-0.6-0.4-1-0.9-1.1-1.5c-0.1-0.6,0-1.3,0.4-1.9l10-15.9
		c0.4-0.6,0.9-1,1.5-1.1L607.8,177.5z M606.2,169.4l-1.7,0.2c-1.1,0.3-2.2,0.7-3.2,1.5c-1,0.7-1.9,1.7-2.6,2.8l-10.6,16.7
		c-0.7,1.2-1.2,2.4-1.4,3.6c-0.2,1.2-0.2,2.4,0.1,3.5c0.3,1.1,0.7,2.2,1.5,3.2c0.7,1,1.7,1.9,2.8,2.6l9.1,5.7
		c1.2,0.7,2.4,1.2,3.6,1.4c1.2,0.2,2.4,0.2,3.5-0.1c1.1-0.3,2.2-0.7,3.2-1.5c1-0.7,1.9-1.7,2.6-2.8l10.6-16.7
		c0.7-1.2,1.2-2.4,1.4-3.6c0.2-1.2,0.2-2.4-0.1-3.5c-0.3-1.1-0.7-2.2-1.5-3.2c-0.7-1-1.7-1.9-2.8-2.6l-9.1-5.7
		c-1.2-0.7-2.4-1.2-3.6-1.4L606.2,169.4z M681.9,215.2l-8.4,1.8l4.9,5l9.9-0.4L681.9,215.2z M633.9,185.4l-13.7,38.3l5.5,4.4
		l34.5-21.7l-6.6-5.3l-22.3,15l-0.2-0.1l9.9-25L633.9,185.4z M267.3,180.1l9.7,8.6l-6.8,4.1l-3.1-12.6L267.3,180.1z M265.6,168.7
		l-7.2,4.4l8.4,38.8l-24-8.3l0-20.6l-7.2,5.6l0.4,20.6l-0.2,0.2l-10.2-13l-6.5,5.1l23.7,30.4l6.5-5.1l-6.5-8.3l0-6.1l17.3,5.9
		l7.1-5.6l7-4.2l-2.1-8.2l10.7-6.5l6.3,5.6l7.7-4.7L265.6,168.7z M211.8,211.5L211.8,211.5c-1.2,0-2.3,0.2-3.4,0.7
		c-1.1,0.5-2.2,1.2-3.2,2.2l-6.3,6.2c-1,1-1.7,2-2.2,3.1c-0.5,1.1-0.7,2.3-0.8,3.4c0,1.2,0.2,2.3,0.7,3.4c0.5,1.1,1.2,2.2,2.2,3.2
		l2.9,2.9c1,1,2,1.7,3.1,2.2c1.1,0.5,2.3,0.7,3.4,0.8c1.2,0,2.3-0.2,3.4-0.7c1.1-0.5,2.2-1.2,3.2-2.2l5.5-5.4
		c0.5-0.5,1.1-0.8,1.8-0.8c0.6,0,1.2,0.3,1.7,0.8l2.3,2.4c0.5,0.5,0.8,1.1,0.8,1.8c0,0.6-0.3,1.2-0.8,1.7l-4.9,4.8
		c-0.5,0.5-1.1,0.8-1.8,0.8c-0.6,0-1.2-0.3-1.7-0.8l-1.3-1.3l-5.9,5.8l1.7,1.7c1,1,2,1.7,3.1,2.2c1.1,0.5,2.3,0.7,3.4,0.8
		c1.2,0,2.3-0.2,3.4-0.7c1.1-0.5,2.2-1.2,3.2-2.2l6.9-6.7c1-1,1.7-2,2.2-3.1c0.5-1.1,0.7-2.3,0.8-3.4c0-1.2-0.2-2.3-0.7-3.4
		c-0.5-1.1-1.2-2.2-2.2-3.2l-3-3.1c-1-1-2-1.7-3.1-2.2c-1.1-0.5-2.3-0.7-3.4-0.8c-1.2,0-2.3,0.2-3.4,0.7c-1.1,0.5-2.2,1.2-3.2,2.2
		l-5.5,5.4c-0.5,0.5-1.1,0.8-1.8,0.8c-0.6,0-1.2-0.3-1.7-0.8l-2.2-2.2c-0.5-0.5-0.8-1.1-0.8-1.8c0-0.6,0.3-1.2,0.8-1.7l4.3-4.2
		c0.5-0.5,1.1-0.8,1.8-0.8c0.6,0,1.2,0.3,1.7,0.8l1.3,1.3l5.9-5.8l-1.7-1.7c-1-1-2-1.7-3.1-2.2C214.1,211.8,213,211.5,211.8,211.5z
		 M667.1,228.2l0.2,0.2l-6.1,11.5l-5.6-5.6L667.1,228.2z M671.9,218l-36.7,17.7l6,6l7.5-3.9l8.8,8.9l-4,7.5l6.4,6.4l17.9-36.6
		L671.9,218z M187.5,232.1l-18.2,22.1l5.7,4.7l6.5-7.8l24,19.8l5.3-6.4l-24-19.8l6.5-7.8L187.5,232.1z M699.9,249l-31,22.8
		l13.8,18.8l5.9-4.4l-8.9-12.2l25.1-18.4L699.9,249z M716.8,273l-32.6,20.6l4.4,7l32.6-20.6L716.8,273z M167.8,262.9l-1.7,0.2
		c-1.1,0.2-2.2,0.7-3.2,1.4c-1,0.7-1.9,1.6-2.7,2.8l-4.9,7.3c-0.8,1.2-1.3,2.3-1.5,3.5c-0.2,1.2-0.2,2.4,0,3.5
		c0.2,1.1,0.7,2.2,1.4,3.2c0.7,1,1.6,1.9,2.8,2.7l3.4,2.3c1.2,0.8,2.3,1.3,3.5,1.5c1.2,0.2,2.4,0.2,3.5,0c1.1-0.2,2.2-0.7,3.2-1.4
		c1-0.7,1.9-1.6,2.7-2.8l4.2-6.4c0.4-0.6,0.9-1,1.6-1.1c0.6-0.1,1.3,0,1.9,0.4l2.8,1.8c0.6,0.4,1,0.9,1.1,1.6c0.1,0.6,0,1.3-0.4,1.9
		l-3.8,5.7c-0.4,0.6-0.9,1-1.6,1.1c-0.6,0.1-1.3,0-1.9-0.4l-1.6-1l-4.5,6.9l2,1.3c1.2,0.8,2.3,1.3,3.5,1.5c1.2,0.2,2.4,0.2,3.5,0
		c1.1-0.2,2.2-0.7,3.2-1.4c1-0.7,1.9-1.6,2.7-2.8l5.3-8c0.8-1.2,1.3-2.3,1.5-3.5c0.2-1.2,0.2-2.4,0-3.5c-0.2-1.1-0.7-2.2-1.4-3.2
		c-0.7-1-1.6-1.9-2.8-2.7l-3.6-2.4c-1.2-0.8-2.3-1.3-3.5-1.5c-1.2-0.2-2.4-0.2-3.5,0c-1.1,0.2-2.2,0.7-3.2,1.4
		c-1,0.7-1.9,1.6-2.7,2.8l-4.2,6.4c-0.4,0.6-0.9,1-1.6,1.1c-0.6,0.1-1.3,0-1.9-0.4l-2.6-1.7c-0.6-0.4-1-0.9-1.1-1.6
		c-0.1-0.6,0-1.3,0.4-1.9l3.3-5c0.4-0.6,0.9-1,1.6-1.1c0.6-0.1,1.3,0,1.9,0.4l1.6,1l4.5-6.9l-2-1.3c-1.2-0.8-2.3-1.3-3.5-1.5
		L167.8,262.9z M136.9,287.5l-3.4,6.7l1.7,3.5l-3.8,0.7l-3.4,6.7l8.8-1.3l4.2-8.2L136.9,287.5z M721.4,290.5
		c-1.2,0.1-2.4,0.5-3.7,1.1l-17.6,9.1c-1.2,0.6-2.3,1.4-3.1,2.4c-0.8,0.9-1.4,2-1.7,3.1c-0.4,1.1-0.5,2.3-0.4,3.5
		c0.1,1.2,0.5,2.4,1.1,3.7l4.4,8.5c0.6,1.2,1.4,2.3,2.4,3.1c0.9,0.8,2,1.4,3.1,1.7c1.1,0.4,2.3,0.5,3.5,0.4c1.2-0.1,2.4-0.5,3.7-1.1
		l9.7-5l-7-13.4l-6.5,3.4l3.2,6.1l-2.7,1.4c-0.7,0.3-1.3,0.4-1.9,0.2c-0.6-0.2-1.1-0.6-1.4-1.3l-3.2-6.1c-0.3-0.7-0.4-1.3-0.2-1.9
		c0.2-0.6,0.6-1.1,1.3-1.4l16.7-8.7c0.7-0.3,1.3-0.4,1.9-0.2c0.6,0.2,1.1,0.6,1.4,1.3l3.2,6.1c0.3,0.7,0.4,1.3,0.2,1.9
		c-0.2,0.6-0.6,1.1-1.3,1.4l-1.7,0.9l3.8,7.3l2.1-1.1c1.2-0.6,2.3-1.4,3.1-2.4c0.8-0.9,1.4-2,1.7-3.1c0.4-1.1,0.5-2.3,0.4-3.5
		c-0.1-1.2-0.5-2.4-1.1-3.7l-4.4-8.5c-0.6-1.2-1.4-2.3-2.4-3.1c-0.9-0.8-2-1.4-3.1-1.7l-1.7-0.4L721.4,290.5z M145.9,289.8
		l-11.2,21.8l34.2,17.6l11.4-22.3l-6.6-3.4l-7.7,14.9l-7.4-3.8l6.9-13.5l-6.6-3.4l-6.9,13.5l-7.2-3.7l7.4-14.4L145.9,289.8z
		 M738,338.4l0.1,0.2l-10.3,8l-2.8-7.4L738,338.4z M746.6,331.1l-40.7,1.1l3,7.9l8.4-0.5l4.4,11.7l-6.7,5.2l3.2,8.4l31.4-26
		L746.6,331.1z M130.3,320.9l-2.7,7.5l17.3,16.4l-0.1,0.2l-23.7,1.3l-2.9,8l36.2,13.2l2.8-7.7l-19.7-7.2l0.1-0.3l22.8-1.4l0.1-0.3
		l-16.6-15.7l0.1-0.3l19.7,7.2l2.8-7.7L130.3,320.9z M123.3,407.8c-19.3,0-35,15.7-35,35c0,19.3,15.7,35,35,35c19.3,0,35-15.7,35-35
		C158.3,423.5,142.7,407.8,123.3,407.8L123.3,407.8z M748.2,408.3c-19.3,0-35,15.7-35,35c0,19.3,15.7,35,35,35c19.3,0,35-15.7,35-35
		C783.2,424,767.5,408.3,748.2,408.3L748.2,408.3z M697.8,543.9l-3.6,9.1l2.6,4.3l-4.9,1.4l-3.6,9.1l11.3-2.9l4.4-11.3L697.8,543.9z
		 M150.4,547l3.9,10.9c0.3,0.9,0.3,1.7-0.1,2.5c-0.4,0.8-1,1.3-1.9,1.6l-6.2,2.2c-0.9,0.3-1.7,0.3-2.5-0.1c-0.8-0.4-1.3-1-1.6-1.9
		l-3.9-10.9L150.4,547z M155.9,533.6l-47.5,16.9l3.6,10.2l17-6l1.8,5.2L117,574.6l4.1,11.5l14.3-15.3c1.6,2.1,3.5,3.5,6,4.2
		c2.4,0.7,5,0.6,7.8-0.4l7.5-2.7c1.7-0.6,3.2-1.4,4.4-2.5c1.2-1.1,2.1-2.3,2.8-3.7c0.7-1.4,1-2.9,1.1-4.5c0.1-1.6-0.2-3.3-0.8-5
		L155.9,533.6z M718.7,556c0.3,0,0.6,0.1,0.9,0.2l6.2,2.4c0.9,0.3,1.5,0.9,1.9,1.7s0.3,1.6,0,2.5l-4.2,10.7l-12.2-4.8l4.2-10.7
		c0.3-0.9,0.9-1.5,1.7-1.9l0.6-0.2C718.3,556,718,556,718.7,556z M718,545c-1.6,0-3.1,0.3-4.5,1c-1.4,0.6-2.6,1.5-3.7,2.7
		c-1.1,1.2-2,2.6-2.6,4.3l-8.7,22.5l47,18.3l3.9-10.1l-16.8-6.5l2-5.1l20.2-2.2l4.4-11.3l-20.8,2.3c0.2-2.6-0.4-5-1.8-7.1
		s-3.4-3.7-6.1-4.8l-7.4-2.9C721.2,545.3,719.6,544.9,718,545z M683,579.1l-5.8,10.3l5.3,9.9l4.5-8L683,579.1z M169.8,571.7
		l-44.9,22.9l14.9,29.2l8.6-4.4l-10-19.6l9.7-4.9l9,17.6l8.6-4.4l-9-17.6l9.4-4.8l9.6,18.9l8.6-4.4L169.8,571.7z M699,603.2
		l16.6,3.6l-5.1,9l-11.7-12.4L699,603.2z M689.7,591.4l-5.4,9.6l35.4,39.9l5.4-9.7l-7.6-8l8-14.2l10.8,2.3l5.8-10.3L689.7,591.4z
		 M184.4,608.3c-2.7,0.1-1.5-0.1-3.5,0.3c-1.6,0.4-3.1,1.1-4.6,2.1l-21.3,14.8c-1.5,1-2.7,2.2-3.6,3.6c-0.9,1.3-1.5,2.8-1.7,4.3
		c-0.3,1.5-0.2,3,0.1,4.6c0.4,1.6,1.1,3.1,2.1,4.6l7.2,10.4c1,1.5,2.2,2.7,3.6,3.6c1.3,0.9,2.8,1.5,4.3,1.7c1.5,0.3,3,0.2,4.6-0.1
		c1.6-0.4,3.1-1.1,4.6-2.1l11.8-8.2l-11.3-16.3l-7.9,5.5l5.1,7.4l-3.3,2.3c-0.8,0.5-1.6,0.7-2.4,0.6c-0.8-0.2-1.5-0.6-2.1-1.4
		l-5.1-7.4c-0.5-0.8-0.7-1.6-0.6-2.4c0.2-0.8,0.6-1.5,1.4-2.1l20.2-14c0.8-0.5,1.6-0.7,2.4-0.6c0.8,0.2,1.5,0.6,2.1,1.4l5.1,7.4
		c0.5,0.8,0.7,1.6,0.6,2.4c-0.2,0.8-0.6,1.5-1.4,2.1l-2,1.4l6.2,8.9l2.5-1.8c1.5-1,2.7-2.2,3.6-3.6c0.9-1.3,1.5-2.8,1.7-4.3
		s0.2-3-0.1-4.6c-0.4-1.6-1.1-3.1-2.1-4.6l-7.2-10.4c-1-1.5-2.2-2.7-3.6-3.6c-1.3-0.9-2.8-1.5-4.3-1.7L184.4,608.3z M664.4,630.3
		l-6.5,8.6l40.3,30.3l18.4-24.4l-7.7-5.8l-11.9,15.8L664.4,630.3z M436.1,206.7c-129.8,0-235,105.2-235,235
		c0,129.8,105.2,235,235,235c129.8,0,235-105.2,235-235S565.9,206.7,436.1,206.7L436.1,206.7z M212.3,639.2l-38.1,33l7.1,8.2
		l38.1-33L212.3,639.2z M654.6,643.4L647,651l26.7,26.4c0.7,0.7,1,1.4,1,2.3c0,0.8-0.3,1.6-1,2.3l-7.3,7.4c-0.7,0.7-1.4,1-2.3,1
		c-0.8,0-1.6-0.3-2.3-1l-26.7-26.4l-7.6,7.7l27.1,26.8c1.3,1.3,2.7,2.2,4.2,2.9c1.5,0.6,3,0.9,4.5,0.9c1.5,0,3-0.3,4.5-1
		c1.5-0.6,2.8-1.6,4.1-2.9l9.9-10c1.3-1.3,2.2-2.7,2.9-4.2c0.6-1.5,0.9-3,0.9-4.5c0-1.5-0.3-3-1-4.5c-0.6-1.5-1.6-2.8-2.9-4.1
		L654.6,643.4z M223.8,657.6L223.8,657.6c-1.5,0-3,0.4-4.5,1.1c-1.5,0.7-2.8,1.7-4.1,3l-3.7,3.9c-1.2,1.3-2.2,2.7-2.7,4.2
		c-0.6,1.5-0.8,3-0.8,4.5c0,1.5,0.4,3,1.1,4.5s1.7,2.8,3,4.1l7.4,6.9c0.7,0.7,1.1,1.4,1.1,2.3c0,0.8-0.3,1.6-0.9,2.3l-3,3.2
		c-0.7,0.7-1.4,1.1-2.3,1.1c-0.8,0-1.6-0.3-2.3-0.9l-6.6-6.2c-0.7-0.7-1.1-1.4-1.1-2.3c0-0.8,0.3-1.6,0.9-2.3l1.7-1.8l-7.9-7.4
		l-2.1,2.3c-1.2,1.3-2.2,2.7-2.7,4.2s-0.8,3-0.8,4.5c0,1.5,0.4,3,1.1,4.5c0.7,1.5,1.7,2.8,3,4.1l9.2,8.6c1.3,1.2,2.7,2.2,4.2,2.7
		c1.5,0.6,3,0.8,4.5,0.8c1.5,0,3-0.4,4.5-1.1s2.8-1.7,4.1-3l3.9-4.2c1.2-1.3,2.2-2.7,2.7-4.2s0.8-3,0.8-4.5c0-1.5-0.4-3-1.1-4.5
		c-0.7-1.5-1.7-2.8-3-4.1l-7.4-6.9c-0.7-0.7-1.1-1.4-1.1-2.3c0-0.8,0.3-1.6,0.9-2.3l2.8-3c0.7-0.7,1.4-1.1,2.3-1.1s1.6,0.3,2.3,0.9
		l5.8,5.4c0.7,0.7,1.1,1.4,1.1,2.3c0,0.8-0.3,1.6-0.9,2.3l-1.7,1.8l7.9,7.4l2.1-2.3c1.2-1.3,2.2-2.7,2.7-4.2s0.8-3,0.8-4.5
		c0-1.5-0.4-3-1.1-4.5c-0.7-1.5-1.7-2.8-3-4.1l-8.4-7.9c-1.3-1.2-2.7-2.2-4.2-2.7C226.9,657.8,225.4,657.6,223.8,657.6z
		 M251.3,678.6l-5.6,7.8l10.8,7.8l-23.8,33.1l8.8,6.3l23.8-33.1l10.8,7.8l5.6-7.8L251.3,678.6z M365.5,723.1l4.7,10.7l11.8,2.5
		l8.6-7.9l-9.6-2l-3.9,3.3l-2.2-4.6L365.5,723.1z M461.4,730.6l-11.9,0.5l-5.6,9.8l9.1-0.4L461.4,730.6z M624.6,673.8l-8.4,6.2
		l6.9,30.4l-0.2,0.2L596,694.7l-9,6.6l29.7,40.7l8.7-6.4l-16.2-22.1l0.3-0.2l25.8,15.1l0.3-0.3l-6.6-29.2l0.3-0.2l16.2,22.1l8.7-6.4
		L624.6,673.8z M288.5,714.9l10.2,5.4c0.8,0.5,1.4,1.1,1.6,1.9c0.2,0.8,0.1,1.6-0.3,2.5l-3.1,5.8c-0.5,0.8-1.1,1.4-1.9,1.6
		c-0.8,0.2-1.6,0.1-2.5-0.3l-10.2-5.4L288.5,714.9z M283.5,701.3l-23.8,44.4l9.5,5.1l8.5-15.9l4.8,2.6l-0.2,20.3l10.7,5.7l0.3-20.9
		c2.6,0.5,5,0.2,7.3-0.9c2.3-1.1,4.1-2.9,5.5-5.5l3.7-7c0.9-1.6,1.4-3.2,1.6-4.8c0.2-1.6,0-3.1-0.4-4.6c-0.4-1.5-1.2-2.8-2.2-4
		c-1-1.2-2.3-2.3-4-3.1L283.5,701.3z M578.1,717.3l0.6,0.1c0.8,0.3,1.4,0.8,1.9,1.7l3,5.9c0.4,0.9,0.5,1.7,0.3,2.5
		c-0.3,0.8-0.8,1.4-1.7,1.9l-10.2,5.3l-6-11.6l10.2-5.3C577.2,717.3,576.6,717.5,578.1,717.3z M579.4,706.8l-1.2,0.1
		c-1.6,0.2-3.2,0.6-4.8,1.5l-21.4,11.1l23.1,44.8l9.6-5l-8.3-16l4.9-2.5l16.6,11.7l10.8-5.6l-17.1-12.1c1.9-1.8,3-4,3.4-6.5
		c0.4-2.5-0.1-5-1.4-7.6l-3.6-7c-0.8-1.6-1.9-3-3.1-4c-1.2-1-2.6-1.8-4-2.3C580.9,706.8,582,707,579.4,706.8z M537.9,735
		c1.5,0.1,0.9-0.1,1.8,0.3c0.8,0.4,1.3,1,1.6,1.9l8,23.3c0.3,0.9,0.3,1.7-0.1,2.5s-1,1.3-1.9,1.6l-9.9,3.4c-0.9,0.3-1.7,0.3-2.5-0.1
		c-0.8-0.4-1.3-1-1.6-1.9l-8-23.3c-0.3-0.9-0.3-1.7,0.1-2.5c0.4-0.8,1-1.3,1.9-1.6l9.9-3.4L537.9,735z M540.8,724.7
		c-1.6-0.1-3.3,0.2-5,0.8l-13.3,4.6c-1.7,0.6-3.2,1.4-4.4,2.5c-1.2,1.1-2.2,2.3-2.8,3.6s-1,2.9-1.1,4.5c-0.1,1.6,0.2,3.3,0.8,5
		l8.5,24.5c0.6,1.7,1.4,3.2,2.5,4.4c1.1,1.2,2.3,2.2,3.6,2.8c1.4,0.7,2.9,1,4.5,1.1c1.6,0.1,3.3-0.2,5-0.8l13.3-4.6
		c1.7-0.6,3.2-1.4,4.4-2.5c1.2-1.1,2.2-2.3,2.8-3.6c0.7-1.4,1-2.9,1.1-4.5c0.1-1.6-0.2-3.3-0.8-5l-8.5-24.5
		c-0.6-1.7-1.4-3.2-2.5-4.4c-1.1-1.2-2.3-2.2-3.6-2.8C543.9,725.1,542.4,724.7,540.8,724.7z M331.1,739.1l0.3,0.1l-0.8,17l-9.7-3.5
		L331.1,739.1z M331.1,724.3l-33.5,41.5l10.4,3.8l6.7-8.8l15.4,5.6l-0.5,11.1l11.1,4l0.8-53.3L331.1,724.3z M365.5,735.7l-1.2,0.2
		c-1.6,0.3-3,0.8-4.3,1.7c-1.3,0.8-2.4,1.9-3.3,3.3c-0.9,1.3-1.5,2.9-1.9,4.7l-5.3,25.4c-0.4,1.8-0.4,3.5-0.1,5
		c0.3,1.6,0.8,3,1.7,4.3c0.8,1.3,1.9,2.4,3.3,3.3c1.3,0.9,2.9,1.5,4.7,1.9l12.3,2.6c1.8,0.4,3.5,0.4,5,0.1c1.6-0.3,3-0.8,4.3-1.7
		c1.3-0.8,2.4-1.9,3.3-3.3c0.9-1.3,1.5-2.9,1.9-4.7l0.6-3l-10.6-2.2l-0.5,2.4c-0.2,0.9-0.6,1.6-1.4,2.1c-0.7,0.5-1.5,0.6-2.5,0.4
		l-8.8-1.8c-0.9-0.2-1.6-0.7-2.1-1.4c-0.5-0.7-0.6-1.5-0.4-2.5l5-24.1c0.2-0.9,0.7-1.6,1.4-2.1c0.7-0.5,1.5-0.6,2.5-0.4l8.8,1.8
		c0.9,0.2,1.6,0.7,2.1,1.4c0.5,0.7,0.6,1.5,0.4,2.5l-0.5,2.4l10.6,2.2l0.6-3c0.4-1.8,0.4-3.5,0.1-5c-0.3-1.6-0.8-3-1.7-4.3
		c-0.8-1.3-1.9-2.4-3.3-3.3c-1.3-0.9-2.9-1.5-4.7-1.9l-12.3-2.6C367.2,735.6,368.4,735.8,365.5,735.7z M508.4,734.4l-30,6l9.9,49.4
		l10.6-2.1l-4-20.1l18-3.6l-1.9-9.5l-18,3.6l-2.1-10.4l19.4-3.9L508.4,734.4z M453.2,742.8l-10.8,0.5l2.3,50.3l10.8-0.5L453.2,742.8
		z M397.2,741.6l-3.2,50.3l10.8,0.7l1.9-29.7l0.3,0l14.7,30.7l10.8,0.7l3.2-50.3l-10.8-0.7L423,773l-0.3,0L408,742.3L397.2,741.6z
		 M434.4,52.9c215.4,0,390,174.6,390,390s-174.6,390-390,390s-390-174.6-390-390S219,52.9,434.4,52.9L434.4,52.9z"/>
	
		<ellipse transform="matrix(0.1602 -0.9871 0.9871 0.1602 -333.5489 493.7792)" class="st1" cx="123.4" cy="442.9" rx="27.5" ry="27.5"/>
	<circle class="st1" cx="748.3" cy="443.4" r="27.5"/>
	<path class="st2" d="M307.3,255.5l190.5,0l82,79.4l0,279.9c0,6-4.8,10.8-10.6,10.8l-261.9,0c-5.9,0-10.6-4.8-10.6-10.8l0-348.5
		C296.7,260.3,301.4,255.5,307.3,255.5"/>
	<path class="st3" d="M307.3,255.5l190.5,0l82,79.4l0,279.9c0,6-4.8,10.8-10.6,10.8l-261.9,0c-5.9,0-10.6-4.8-10.6-10.8l0-348.5
		C296.7,260.3,301.4,255.5,307.3,255.5"/>
	<path class="st4" d="M497.7,256v65.8c0,6.1,4.9,11.1,10.9,11.1h65.9L497.7,256"/>
	<path class="st3" d="M497.7,256v65.8c0,6.1,4.9,11.1,10.9,11.1h65.9L497.7,256"/>
	<path class="st3" d="M343.3,396h17.1c6,0,10.9,4.9,10.9,10.9V423c0,6-4.9,10.9-10.9,10.9h-17.1c-6,0-10.9-4.9-10.9-10.9V407
		C332.3,400.9,337.2,396,343.3,396z"/>
	<path class="st3" d="M342.8,473.1h17.1c6,0,10.9,4.9,10.9,10.9v16.1c0,6-4.9,10.9-10.9,10.9h-17.1c-6,0-10.9-4.9-10.9-10.9v-16.1
		C331.9,478,336.8,473.1,342.8,473.1z"/>
	<path class="st3" d="M342.5,553.8h17.1c6,0,10.9,4.9,10.9,10.9v16.1c0,6-4.9,10.9-10.9,10.9h-17.1c-6,0-10.9-4.9-10.9-10.9v-16.1
		C331.5,558.7,336.4,553.8,342.5,553.8z"/>
	<line class="st3" x1="515.2" y1="397.8" x2="403.3" y2="397.8"/>
	<line class="st3" x1="403.3" y1="432.3" x2="439.3" y2="432.3"/>
	<line class="st3" x1="403.2" y1="475.2" x2="501.1" y2="475.2"/>
	<line class="st3" x1="403.5" y1="510.5" x2="465.5" y2="510.5"/>
	<line class="st3" x1="403.2" y1="554.7" x2="524.4" y2="554.7"/>
	<polygon class="st2" points="353.8,323.1 354.1,323.1 367,293.3 377.9,293.3 377.9,345.8 366.6,345.8 366.6,317.3 366.3,317.3 
		353.9,345.8 353.4,345.8 341,317.3 340.6,317.3 340.6,345.8 329.4,345.8 329.4,293.3 341,293.3 	"/>
	<polygon class="st5" points="353.8,323.1 354.1,323.1 367,293.3 377.9,293.3 377.9,345.8 366.6,345.8 366.6,317.3 366.3,317.3 
		353.9,345.8 353.4,345.8 341,317.3 340.6,317.3 340.6,345.8 329.4,345.8 329.4,293.3 341,293.3 	"/>
	<path class="st2" d="M398.1,324.5c-1.9,0-3.6-0.3-5.2-0.9c-1.6-0.6-2.9-1.5-4-2.6s-2-2.5-2.6-4s-0.9-3.3-0.9-5.2v-5.6
		c0-1.9,0.3-3.6,0.9-5.2c0.6-1.6,1.5-2.9,2.6-4s2.5-2,4-2.6c1.5-0.6,3.3-0.9,5.2-0.9h12c1.9,0,3.6,0.3,5.2,0.9
		c1.5,0.6,2.9,1.5,4,2.6s2,2.5,2.6,4c0.6,1.5,0.9,3.3,0.9,5.2v3.2h-11.3v-2.5c0-1-0.3-1.8-0.9-2.4s-1.4-0.9-2.4-0.9H400
		c-1,0-1.8,0.3-2.4,0.9s-0.9,1.4-0.9,2.4v4.3c0,1,0.3,1.8,0.9,2.4s1.4,0.9,2.4,0.9h10.5c1.9,0,3.6,0.3,5.2,0.9
		c1.5,0.6,2.9,1.5,4,2.6s2,2.5,2.6,4c0.6,1.6,0.9,3.3,0.9,5.2v5.9c0,1.9-0.3,3.6-0.9,5.2s-1.5,2.9-2.6,4s-2.5,2-4,2.6
		c-1.6,0.6-3.3,0.9-5.2,0.9h-13.1c-1.9,0-3.6-0.3-5.2-0.9c-1.6-0.6-2.9-1.5-4-2.6s-2-2.5-2.6-4s-0.9-3.3-0.9-5.2v-3.2h11.3v2.6
		c0,1,0.3,1.8,0.9,2.4s1.4,0.9,2.4,0.9h9.4c1,0,1.8-0.3,2.4-0.9s0.9-1.4,0.9-2.4v-4.6c0-1-0.3-1.8-0.9-2.4s-1.4-0.9-2.4-0.9H398.1z"
		/>
	<path class="st5" d="M398.1,324.5c-1.9,0-3.6-0.3-5.2-0.9c-1.6-0.6-2.9-1.5-4-2.6s-2-2.5-2.6-4s-0.9-3.3-0.9-5.2v-5.6
		c0-1.9,0.3-3.6,0.9-5.2s1.5-2.9,2.6-4s2.5-2,4-2.6c1.5-0.6,3.3-0.9,5.2-0.9h12c1.9,0,3.6,0.3,5.2,0.9c1.5,0.6,2.9,1.5,4,2.6
		s2,2.5,2.6,4s0.9,3.3,0.9,5.2v3.2h-11.3v-2.5c0-1-0.3-1.8-0.9-2.4s-1.4-0.9-2.4-0.9H400c-1,0-1.8,0.3-2.4,0.9s-0.9,1.4-0.9,2.4v4.3
		c0,1,0.3,1.8,0.9,2.4s1.4,0.9,2.4,0.9h10.5c1.9,0,3.6,0.3,5.2,0.9c1.5,0.6,2.9,1.5,4,2.6s2,2.5,2.6,4c0.6,1.5,0.9,3.3,0.9,5.2v5.9
		c0,1.9-0.3,3.6-0.9,5.2s-1.5,2.9-2.6,4s-2.5,2-4,2.6c-1.6,0.6-3.3,0.9-5.2,0.9h-13.1c-1.9,0-3.6-0.3-5.2-0.9
		c-1.6-0.6-2.9-1.5-4-2.6s-2-2.5-2.6-4s-0.9-3.3-0.9-5.2v-3.2h11.3v2.5c0,1,0.3,1.8,0.9,2.4s1.4,0.9,2.4,0.9h9.4
		c1,0,1.8-0.3,2.4-0.9s0.9-1.4,0.9-2.4v-4.6c0-1-0.3-1.8-0.9-2.4s-1.4-0.9-2.4-0.9H398.1z"/>
	<polygon class="st2" points="461.9,345.8 430,345.8 430,293.3 441.3,293.3 441.3,335.8 461.9,335.8 	"/>
	<polygon class="st5" points="461.9,345.8 430,345.8 430,293.3 441.3,293.3 441.3,335.8 461.9,335.8 	"/>
	<polygon points="351.8,419.4 347.2,426.5 339.5,426.5 348.1,414 339.8,401.5 348,401.5 352.1,408.2 352.3,408.2 356.6,401.5 
		364.3,401.5 356,413.6 364.6,426.5 356.4,426.5 352,419.4 	"/>
	<polygon points="350.6,576.8 346,584 338.3,584 346.9,571.5 338.6,559 346.8,559 350.9,565.7 351.1,565.7 355.4,559 363.1,559 
		354.8,571.1 363.4,584 355.2,584 350.8,576.8 	"/>
</g>
</svg>
