<?xml version="1.0" encoding="utf-8"?>
<!-- Generator: Adobe Illustrator 22.0.0, SVG Export Plug-In . SVG Version: 6.00 Build 0)  -->
<svg version="1.1" id="Layer_1" xmlns="http://www.w3.org/2000/svg" xmlns:xlink="http://www.w3.org/1999/xlink" x="0px" y="0px"
	 viewBox="0 0 900 900" style="enable-background:new 0 0 900 900;" xml:space="preserve">
<style type="text/css">
	.st0{fill:#07C632;}
	.st1{fill:#FFEC02;}
	.st2{fill:#12284B;}
	.st3{fill:#12284C;}
	.st4{fill:none;stroke:#FFEC02;stroke-width:3;}
</style>
<path class="st0" d="M459.7,130.4l8.2,0.7c0.7,0.1,1.3,0.3,1.7,0.8c0.4,0.5,0.6,1.1,0.5,1.8l-0.5,5.6c-0.1,0.7-0.3,1.3-0.8,1.7
	c-0.5,0.4-1.1,0.6-1.8,0.5l-8.2-0.7L459.7,130.4z M452,122.4l-3.1,38.4l8.2,0.7l1.1-13.2l9.6,0.8c1.4,0.1,2.7,0,3.8-0.4
	c1.2-0.4,2.2-0.9,3.1-1.7c0.9-0.8,1.6-1.7,2.2-2.8c0.5-1.1,0.9-2.3,1-3.7l0.5-6.6c0.1-1.4,0-2.7-0.4-3.8c-0.4-1.2-0.9-2.2-1.7-3.1
	c-0.8-0.9-1.7-1.6-2.8-2.2c-1.1-0.5-2.3-0.9-3.7-1L452,122.4z M444.8,121.5l-7.9,0.4l-4.9,25.8l-0.2,0l-7.3-25.2l-8.5,0.4l-4.9,25.8
	l-0.2,0l-7.3-25.2L395,124l12.1,38l8.5-0.4l4.9-25.8l0.2,0l7.3,25.2l8.5-0.4L444.8,121.5z M485.2,125.8l-5.9,38l8.2,1.3l5.9-38
	L485.2,125.8z M378.8,134.7c1.1,0.2,0.7,0,1.4,0.4c0.5,0.4,0.9,0.9,1,1.6l3.5,18.5c0.1,0.7,0,1.3-0.3,1.9c-0.4,0.5-0.9,0.9-1.6,1
	l-7.8,1.5c-0.7,0.1-1.3,0-1.9-0.3c-0.5-0.4-0.9-0.9-1-1.6l-3.5-18.5c-0.1-0.7,0-1.3,0.3-1.9c0.4-0.5,0.9-0.9,1.6-1l7.8-1.5
	L378.8,134.7z M379.7,127.1c-0.5,0-1,0.1-1.4,0.2l-10.5,2c-1.4,0.3-2.6,0.7-3.6,1.4c-1,0.7-1.9,1.5-2.5,2.4c-0.7,1-1.1,2-1.3,3.3
	c-0.2,1.2-0.2,2.5,0,3.9l3.7,19.4c0.3,1.4,0.7,2.6,1.4,3.6c0.7,1,1.5,1.9,2.4,2.5c1,0.7,2,1.1,3.3,1.3c1.2,0.2,2.5,0.2,3.9,0l10.5-2
	c1.4-0.3,2.6-0.7,3.6-1.4c1-0.7,1.9-1.5,2.5-2.4c0.7-1,1.1-2,1.3-3.3c0.2-1.2,0.2-2.5,0-3.9l-3.7-19.4c-0.3-1.4-0.7-2.6-1.4-3.6
	c-0.7-1-1.5-1.9-2.4-2.5c-1-0.7-2-1.1-3.3-1.3l-0.9-0.1C380.2,127.1,380.7,127.1,379.7,127.1L379.7,127.1z M498.8,127.7l-1.6,7.2
	l9.9,2.3l-7,30.3l8,1.8l7-30.3l9.9,2.3l1.6-7.2L498.8,127.7z M265.7,158l-7.8,4.7l-0.2,8.6l6-3.6L265.7,158z M337,137.2l-7.9,2.4
	l11.1,36.9l22.4-6.7l-2.1-7.1L346,167L337,137.2z M538.3,138.5c-1.2,0.1-2.4,0.4-3.4,0.9c-1,0.5-2,1.2-2.8,2.2
	c-0.8,0.9-1.4,2-1.9,3.4l-6.4,18.7c-0.5,1.3-0.6,2.6-0.6,3.8c0.1,1.2,0.4,2.4,0.9,3.4c0.5,1,1.2,2,2.2,2.8c0.9,0.8,2,1.4,3.4,1.9
	l9.1,3.1c1.3,0.5,2.6,0.6,3.8,0.6c1.2-0.1,2.4-0.4,3.4-0.9c1-0.5,2-1.2,2.8-2.2s1.4-2,1.9-3.4l0.8-2.2l-7.8-2.7l-0.6,1.8
	c-0.2,0.7-0.6,1.2-1.2,1.5c-0.6,0.3-1.2,0.3-1.9,0.1l-6.5-2.2c-0.7-0.2-1.2-0.6-1.5-1.2c-0.3-0.6-0.3-1.2-0.1-1.9l6.1-17.8
	c0.2-0.7,0.6-1.2,1.2-1.5s1.2-0.3,1.9-0.1l6.5,2.2c0.7,0.2,1.2,0.6,1.5,1.2c0.3,0.6,0.3,1.2,0.1,1.9l-0.6,1.8l7.8,2.7l0.8-2.2
	c0.5-1.3,0.6-2.6,0.6-3.8c-0.1-1.2-0.4-2.4-0.9-3.4c-0.5-1-1.2-2-2.2-2.8c-0.9-0.8-2-1.4-3.4-1.9l-9.1-3.1
	C540.8,138.6,539.5,138.4,538.3,138.5L538.3,138.5z M315.6,145.2c-1.2,0-2.5,0.3-3.8,0.8l-8.1,3.4c-1.3,0.5-2.4,1.2-3.2,2.1
	c-0.9,0.9-1.5,1.8-2,2.9c-0.4,1.1-0.7,2.2-0.7,3.5c0,1.2,0.3,2.5,0.8,3.8l1.6,3.8c0.5,1.3,1.2,2.4,2.1,3.2c0.9,0.9,1.8,1.5,2.9,2
	c1.1,0.4,2.2,0.7,3.5,0.7c1.2,0,2.5-0.3,3.8-0.8l7.1-2.9c0.7-0.3,1.3-0.3,1.9,0c0.6,0.2,1,0.7,1.3,1.4l1.3,3.1
	c0.3,0.7,0.3,1.3,0,1.9c-0.2,0.6-0.7,1-1.4,1.3l-6.4,2.6c-0.7,0.3-1.3,0.3-1.9,0c-0.6-0.2-1-0.7-1.3-1.4l-0.7-1.7l-7.6,3.1l0.9,2.2
	c0.5,1.3,1.2,2.4,2.1,3.2c0.9,0.9,1.8,1.5,2.9,2c1.1,0.4,2.2,0.7,3.5,0.7c1.2,0,2.5-0.3,3.8-0.8l8.9-3.7c1.3-0.5,2.4-1.2,3.2-2.1
	c0.9-0.9,1.5-1.8,2-2.9c0.4-1.1,0.7-2.2,0.7-3.5c0-1.2-0.3-2.5-0.8-3.8l-1.7-4c-0.5-1.3-1.2-2.4-2.1-3.2c-0.9-0.9-1.8-1.5-2.9-2
	c-1.1-0.4-2.2-0.7-3.5-0.7c-1.2,0-2.5,0.3-3.8,0.8l-7.1,2.9c-0.7,0.3-1.3,0.3-1.9,0c-0.6-0.2-1-0.7-1.3-1.4l-1.2-2.9
	c-0.3-0.7-0.3-1.3,0-1.9c0.2-0.6,0.7-1,1.4-1.3l5.6-2.3c0.7-0.3,1.3-0.3,1.9,0c0.6,0.2,1,0.7,1.3,1.4l0.7,1.7l7.6-3.1l-0.9-2.2
	c-0.5-1.3-1.2-2.4-2.1-3.2c-0.9-0.9-1.8-1.5-2.9-2C318,145.4,316.9,145.2,315.6,145.2L315.6,145.2z M568.1,148.5l-16.5,34.8l7.5,3.5
	l6.7-14.2l11.7,5.5l-6.7,14.2l7.5,3.5l16.5-34.8l-7.5-3.5l-6.6,14l-11.7-5.5l6.6-14L568.1,148.5z M607.8,177.5l0.9,0.4l6.7,4.3
	c0.6,0.4,1,0.9,1.1,1.5c0.1,0.6,0,1.3-0.4,1.9l-10,15.9c-0.4,0.6-0.9,1-1.5,1.1c-0.6,0.1-1.3,0-1.9-0.4l-6.7-4.3
	c-0.6-0.4-1-0.9-1.1-1.5c-0.1-0.6,0-1.3,0.4-1.9l10-15.9c0.4-0.6,0.9-1,1.5-1.1L607.8,177.5z M606.2,169.4l-1.7,0.2
	c-1.1,0.3-2.2,0.7-3.2,1.5c-1,0.7-1.9,1.7-2.6,2.8l-10.6,16.7c-0.7,1.2-1.2,2.4-1.4,3.6c-0.2,1.2-0.2,2.4,0.1,3.5
	c0.3,1.1,0.7,2.2,1.5,3.2c0.7,1,1.7,1.9,2.8,2.6l9.1,5.7c1.2,0.7,2.4,1.2,3.6,1.4c1.2,0.2,2.4,0.2,3.5-0.1c1.1-0.3,2.2-0.7,3.2-1.5
	c1-0.7,1.9-1.7,2.6-2.8l10.6-16.7c0.7-1.2,1.2-2.4,1.4-3.6c0.2-1.2,0.2-2.4-0.1-3.5c-0.3-1.1-0.7-2.2-1.5-3.2
	c-0.7-1-1.7-1.9-2.8-2.6l-9.1-5.7c-1.2-0.7-2.4-1.2-3.6-1.4L606.2,169.4z M681.9,215.2l-8.4,1.8l4.9,5l9.9-0.4L681.9,215.2z
	 M633.9,185.4l-13.7,38.3l5.5,4.4l34.5-21.7l-6.6-5.3l-22.3,15l-0.2-0.1l9.9-25L633.9,185.4z M267.3,180.1l9.7,8.6l-6.8,4.1
	l-3.1-12.6L267.3,180.1z M265.6,168.7l-7.2,4.4l8.4,38.8l-24-8.3l0-20.6l-7.2,5.6l0.4,20.6l-0.2,0.2l-10.2-13l-6.5,5.1l23.7,30.4
	l6.5-5.1l-6.5-8.3l0-6.1l17.3,5.9l7.1-5.6l7-4.2l-2.1-8.2l10.7-6.5l6.3,5.6l7.7-4.7L265.6,168.7z M211.8,211.5
	c-1.2,0-2.3,0.2-3.4,0.7c-1.1,0.5-2.2,1.2-3.2,2.2l-6.3,6.2c-1,1-1.7,2-2.2,3.1c-0.5,1.1-0.7,2.3-0.8,3.4c0,1.2,0.2,2.3,0.7,3.4
	c0.5,1.1,1.2,2.2,2.2,3.2l2.9,2.9c1,1,2,1.7,3.1,2.2c1.1,0.5,2.3,0.7,3.4,0.8c1.2,0,2.3-0.2,3.4-0.7c1.1-0.5,2.2-1.2,3.2-2.2
	l5.5-5.4c0.5-0.5,1.1-0.8,1.8-0.8c0.6,0,1.2,0.3,1.7,0.8l2.3,2.4c0.5,0.5,0.8,1.1,0.8,1.8c0,0.6-0.3,1.2-0.8,1.7l-4.9,4.8
	c-0.5,0.5-1.1,0.8-1.8,0.8c-0.6,0-1.2-0.3-1.7-0.8l-1.3-1.3l-5.9,5.8l1.7,1.7c1,1,2,1.7,3.1,2.2c1.1,0.5,2.3,0.7,3.4,0.8
	c1.2,0,2.3-0.2,3.4-0.7s2.2-1.2,3.2-2.2l6.9-6.7c1-1,1.7-2,2.2-3.1s0.7-2.3,0.8-3.4c0-1.2-0.2-2.3-0.7-3.4c-0.5-1.1-1.2-2.2-2.2-3.2
	l-3-3.1c-1-1-2-1.7-3.1-2.2c-1.1-0.5-2.3-0.7-3.4-0.8c-1.2,0-2.3,0.2-3.4,0.7c-1.1,0.5-2.2,1.2-3.2,2.2l-5.5,5.4
	c-0.5,0.5-1.1,0.8-1.8,0.8c-0.6,0-1.2-0.3-1.7-0.8l-2.2-2.2c-0.5-0.5-0.8-1.1-0.8-1.8c0-0.6,0.3-1.2,0.8-1.7l4.3-4.2
	c0.5-0.5,1.1-0.8,1.8-0.8c0.6,0,1.2,0.3,1.7,0.8l1.3,1.3l5.9-5.8l-1.7-1.7c-1-1-2-1.7-3.1-2.2C214.1,211.8,213,211.5,211.8,211.5
	L211.8,211.5z M667.1,228.2l0.2,0.2l-6.1,11.5l-5.6-5.6L667.1,228.2z M671.9,218l-36.7,17.7l6,6l7.5-3.9l8.8,8.9l-4,7.5l6.4,6.4
	l17.9-36.6L671.9,218z M187.5,232.1l-18.2,22.1l5.7,4.7l6.5-7.8l24,19.8l5.3-6.4l-24-19.8l6.5-7.8L187.5,232.1z M699.9,249l-31,22.8
	l13.8,18.8l5.9-4.4l-8.9-12.2l25.1-18.4L699.9,249z M716.8,273l-32.6,20.6l4.4,7l32.6-20.6L716.8,273z M167.8,262.9l-1.7,0.2
	c-1.1,0.2-2.2,0.7-3.2,1.4c-1,0.7-1.9,1.6-2.7,2.8l-4.9,7.3c-0.8,1.2-1.3,2.3-1.5,3.5c-0.2,1.2-0.2,2.4,0,3.5
	c0.2,1.1,0.7,2.2,1.4,3.2c0.7,1,1.6,1.9,2.8,2.7l3.4,2.3c1.2,0.8,2.3,1.3,3.5,1.5c1.2,0.2,2.4,0.2,3.5,0c1.1-0.2,2.2-0.7,3.2-1.4
	c1-0.7,1.9-1.6,2.7-2.8l4.2-6.4c0.4-0.6,0.9-1,1.6-1.1c0.6-0.1,1.3,0,1.9,0.4l2.8,1.8c0.6,0.4,1,0.9,1.1,1.6c0.1,0.6,0,1.3-0.4,1.9
	l-3.8,5.7c-0.4,0.6-0.9,1-1.6,1.1c-0.6,0.1-1.3,0-1.9-0.4l-1.6-1l-4.5,6.9l2,1.3c1.2,0.8,2.3,1.3,3.5,1.5c1.2,0.2,2.4,0.2,3.5,0
	c1.1-0.2,2.2-0.7,3.2-1.4c1-0.7,1.9-1.6,2.7-2.8l5.3-8c0.8-1.2,1.3-2.3,1.5-3.5s0.2-2.4,0-3.5c-0.2-1.1-0.7-2.2-1.4-3.2
	s-1.6-1.9-2.8-2.7l-3.6-2.4c-1.2-0.8-2.3-1.3-3.5-1.5c-1.2-0.2-2.4-0.2-3.5,0c-1.1,0.2-2.2,0.7-3.2,1.4c-1,0.7-1.9,1.6-2.7,2.8
	l-4.2,6.4c-0.4,0.6-0.9,1-1.6,1.1c-0.6,0.1-1.3,0-1.9-0.4l-2.6-1.7c-0.6-0.4-1-0.9-1.1-1.6c-0.1-0.6,0-1.3,0.4-1.9l3.3-5
	c0.4-0.6,0.9-1,1.6-1.1c0.6-0.1,1.3,0,1.9,0.4l1.6,1l4.5-6.9l-2-1.3c-1.2-0.8-2.3-1.3-3.5-1.5L167.8,262.9z M136.9,287.5l-3.4,6.7
	l1.7,3.5l-3.8,0.7l-3.4,6.7l8.8-1.3l4.2-8.2L136.9,287.5z M721.4,290.5c-1.2,0.1-2.4,0.5-3.7,1.1l-17.6,9.1
	c-1.2,0.6-2.3,1.4-3.1,2.4c-0.8,0.9-1.4,2-1.7,3.1c-0.4,1.1-0.5,2.3-0.4,3.5c0.1,1.2,0.5,2.4,1.1,3.7l4.4,8.5
	c0.6,1.2,1.4,2.3,2.4,3.1c0.9,0.8,2,1.4,3.1,1.7c1.1,0.4,2.3,0.5,3.5,0.4c1.2-0.1,2.4-0.5,3.7-1.1l9.7-5l-7-13.4l-6.5,3.4l3.2,6.1
	l-2.7,1.4c-0.7,0.3-1.3,0.4-1.9,0.2c-0.6-0.2-1.1-0.6-1.4-1.3l-3.2-6.1c-0.3-0.7-0.4-1.3-0.2-1.9c0.2-0.6,0.6-1.1,1.3-1.4l16.7-8.7
	c0.7-0.3,1.3-0.4,1.9-0.2c0.6,0.2,1.1,0.6,1.4,1.3l3.2,6.1c0.3,0.7,0.4,1.3,0.2,1.9c-0.2,0.6-0.6,1.1-1.3,1.4l-1.7,0.9l3.8,7.3
	l2.1-1.1c1.2-0.6,2.3-1.4,3.1-2.4c0.8-0.9,1.4-2,1.7-3.1c0.4-1.1,0.5-2.3,0.4-3.5c-0.1-1.2-0.5-2.4-1.1-3.7l-4.4-8.5
	c-0.6-1.2-1.4-2.3-2.4-3.1c-0.9-0.8-2-1.4-3.1-1.7l-1.7-0.4L721.4,290.5z M145.9,289.8l-11.2,21.8l34.2,17.6l11.4-22.3l-6.6-3.4
	l-7.7,14.9l-7.4-3.8l6.9-13.5l-6.6-3.4l-6.9,13.5l-7.2-3.7l7.4-14.4L145.9,289.8z M738,338.4l0.1,0.2l-10.3,8l-2.8-7.4L738,338.4z
	 M746.6,331.1l-40.7,1.1l3,7.9l8.4-0.5l4.4,11.7l-6.7,5.2l3.2,8.4l31.4-26L746.6,331.1z M130.3,320.9l-2.7,7.5l17.3,16.4l-0.1,0.2
	l-23.7,1.3l-2.9,8l36.2,13.2l2.8-7.7l-19.7-7.2l0.1-0.3l22.8-1.4l0.1-0.3l-16.6-15.7l0.1-0.3l19.7,7.2l2.8-7.7L130.3,320.9z
	 M123.3,407.8c-19.3,0-35,15.7-35,35c0,19.3,15.7,35,35,35s35-15.7,35-35C158.3,423.5,142.7,407.8,123.3,407.8L123.3,407.8z
	 M748.2,408.3c-19.3,0-35,15.7-35,35c0,19.3,15.7,35,35,35c19.3,0,35-15.7,35-35C783.2,424,767.5,408.3,748.2,408.3L748.2,408.3z
	 M723.3,526.1l-3.6,10.2l35.4,12.5c0.9,0.3,1.5,0.9,1.9,1.6c0.4,0.8,0.4,1.6,0.1,2.5l-3.5,9.8c-0.3,0.9-0.9,1.5-1.6,1.9
	c-0.8,0.4-1.6,0.4-2.5,0.1l-35.4-12.5l-3.6,10.2l36,12.7c1.7,0.6,3.4,0.9,5,0.8c1.6-0.1,3.1-0.4,4.5-1.1c1.4-0.7,2.6-1.6,3.7-2.8
	c1.1-1.2,1.9-2.7,2.5-4.4l4.7-13.2c0.6-1.7,0.9-3.4,0.8-5c-0.1-1.6-0.4-3.1-1.1-4.5c-0.7-1.4-1.6-2.6-2.8-3.7
	c-1.2-1.1-2.7-1.9-4.4-2.5L723.3,526.1z M145.9,549.3c0.3,0,0.6,0.1,0.9,0.2c0.8,0.3,1.3,1,1.7,1.9l3.7,9.7c0.3,0.9,0.3,1.7,0,2.5
	c-0.3,0.8-1,1.3-1.9,1.7l-23,8.8c-0.9,0.3-1.7,0.3-2.5,0c-0.8-0.3-1.3-1-1.7-1.9l-3.7-9.7c-0.3-0.9-0.3-1.7,0-2.5
	c0.3-0.8,1-1.3,1.9-1.7l23-8.8l0.7-0.2C145.5,549.3,145.2,549.3,145.9,549.3z M145.9,538.2c-1.6,0-3.3,0.3-5,0.9l-24.2,9.3
	c-1.7,0.7-3.1,1.5-4.3,2.6c-1.2,1.1-2.1,2.3-2.7,3.7c-0.6,1.4-0.9,2.9-1,4.5c0,1.6,0.3,3.3,0.9,5l5,13.1c0.7,1.7,1.5,3.1,2.6,4.3
	c1.1,1.2,2.3,2.1,3.7,2.7c1.4,0.6,2.9,0.9,4.5,1c1.6,0,3.3-0.3,5-0.9l24.2-9.3c1.7-0.7,3.1-1.5,4.3-2.6c1.2-1.1,2.1-2.3,2.7-3.7
	c0.6-1.4,0.9-2.9,1-4.5c0-1.6-0.3-3.3-0.9-5l-5-13.1c-0.7-1.7-1.5-3.1-2.6-4.3c-1.1-1.2-2.3-2.1-3.7-2.7
	C149.1,538.6,147.6,538.3,145.9,538.2z M709,590c1.5,0.2,0.9,0,1.9,0.5l21.5,12.1c0.8,0.5,1.4,1.1,1.6,1.9c0.2,0.8,0.1,1.6-0.4,2.5
	l-5.1,9.1c-0.5,0.8-1.1,1.4-1.9,1.6s-1.6,0.1-2.5-0.4l-21.5-12.1c-0.8-0.5-1.4-1.1-1.6-1.9s-0.1-1.6,0.4-2.5l5.1-9.1
	c0.5-0.8,1.1-1.4,1.9-1.6L709,590z M709.6,579c-2.7,0.2-1.5,0-3.4,0.4c-1.5,0.4-2.8,1.1-4.1,2.1c-1.3,1-2.3,2.3-3.2,3.9l-6.9,12.2
	c-0.9,1.6-1.4,3.2-1.7,4.8c-0.2,1.6-0.1,3.1,0.3,4.6c0.4,1.5,1.1,2.8,2.1,4.1c1,1.3,2.3,2.3,3.9,3.2l22.6,12.7
	c1.6,0.9,3.2,1.4,4.8,1.7c1.6,0.2,3.1,0.1,4.6-0.3c1.5-0.4,2.8-1.1,4.1-2.1c1.3-1,2.3-2.3,3.2-3.9l6.9-12.2c0.9-1.6,1.4-3.2,1.7-4.8
	c0.2-1.6,0.1-3.1-0.3-4.6c-0.4-1.5-1.1-2.8-2.1-4.1c-1-1.3-2.3-2.3-3.9-3.2l-22.6-12.7c-1.6-0.9-3.2-1.4-4.8-1.7L709.6,579z
	 M169.5,597l7.1,11.7c0.5,0.8,0.6,1.6,0.4,2.5c-0.2,0.8-0.7,1.5-1.5,2l-21.1,12.7c-0.8,0.5-1.6,0.6-2.5,0.4c-0.8-0.2-1.5-0.7-2-1.5
	l-7.1-11.7L169.5,597z M172.2,582.8l-43.2,26l13.6,22.5c0.9,1.6,2.1,2.8,3.3,3.8c1.3,1,2.7,1.6,4.1,2c1.5,0.4,3,0.4,4.6,0.2
	c1.6-0.3,3.2-0.9,4.7-1.8l22.2-13.4c1.6-0.9,2.8-2.1,3.8-3.3c1-1.3,1.6-2.7,2-4.1c0.4-1.5,0.4-3,0.2-4.6s-0.9-3.2-1.8-4.7
	L172.2,582.8z M436.1,206.7c-129.8,0-235,105.2-235,235c0,129.8,105.2,235,235,235c129.8,0,235-105.2,235-235
	S565.9,206.7,436.1,206.7L436.1,206.7z M679,619l-6.7,8l13.9,27.9l-0.2,0.2l-29.8-9l-7.2,8.5l38.5,32.5l7-8.3l-21-17.7l0.2-0.3
	l28.7,8.5l0.3-0.3l-13.3-26.8l0.2-0.3l21,17.7l7-8.3L679,619z M211.1,651.2l-8,7.8l12.4,2.2l0.2,0.2l-27.9,27.2l7.5,7.7l36.1-35.2
	l-7.5-7.7L211.1,651.2z M625.8,674.7l-8.3,7l32.5,38.5l23.4-19.7l-6.2-7.4L652,705.9L625.8,674.7z M242.9,672.2l-18.5,24.1l8.1,6.2
	c1-0.7,2.1-1.1,3.5-1.1c1.3-0.1,2.7,0.4,4.1,1.5l3.4,2.6c0.6,0.5,1,1.1,1.2,1.7c0.2,0.6,0,1.3-0.5,1.9l-6.3,8.2
	c-0.5,0.6-1.1,1-1.7,1c-0.6,0-1.3-0.2-1.9-0.7l-6.3-4.8c-1.4-1.1-1.7-2.3-0.7-3.6l1.6-2.1l-8.5-6.5l-1.1,1.5
	c-1.1,1.4-1.9,2.9-2.3,4.5c-0.4,1.5-0.5,3.1-0.3,4.6c0.2,1.5,0.7,3,1.5,4.3c0.8,1.4,1.9,2.6,3.4,3.7l8.2,6.3
	c1.4,1.1,2.9,1.9,4.5,2.3c1.5,0.4,3.1,0.5,4.6,0.3c1.5-0.2,3-0.7,4.3-1.5c1.4-0.8,2.6-1.9,3.7-3.4l5.4-7c1.3-1.8,2.3-3.4,2.9-4.9
	s0.7-2.9,0.6-4.2c-0.2-1.3-0.7-2.5-1.6-3.7c-0.9-1.2-2-2.3-3.5-3.4l-3.8-2.9c-1.1-0.8-2.4-1.4-3.8-1.7c-1.5-0.3-2.9-0.3-4.4-0.1
	l-0.2-0.2l6.9-9l17.9,13.7l5.9-7.7L242.9,672.2z M606.8,689.7l-27.3,16.8l26.5,42.9l27.9-17.2l-5.1-8.2l-18.7,11.5l-5.7-9.3
	l16.8-10.4l-5.1-8.2l-16.8,10.4l-5.6-9l18.1-11.2L606.8,689.7z M304.4,712.9L284.1,759l28,12.4l3.9-8.8l-18.1-8l16.4-37.3
	L304.4,712.9z M567.1,713.2l-10,4.1l7.7,18.7l-15.6,6.5l-7.7-18.7l-10,4.1l19.2,46.6l10-4.1l-7.8-19l15.6-6.5l7.8,19l10-4.1
	L567.1,713.2z M343.6,729.2l-13.2,48.6l31.6,8.6l2.5-9.3l-21.2-5.8l2.9-10.5l19.1,5.2l2.5-9.3l-19.1-5.2l2.8-10.2l20.5,5.6l2.5-9.3
	L343.6,729.2z M482.4,739.4l-1.3,0.1l-11.4,1.5c-1.8,0.2-3.4,0.7-4.8,1.5s-2.6,1.8-3.5,3c-0.9,1.2-1.6,2.6-2,4.1
	c-0.4,1.6-0.5,3.2-0.2,5l0.7,5.4c0.2,1.8,0.7,3.4,1.5,4.8c0.8,1.4,1.8,2.6,3,3.5c1.2,0.9,2.6,1.6,4.1,2c1.6,0.4,3.2,0.5,5,0.2
	l10-1.3c1-0.1,1.8,0.1,2.4,0.6c0.7,0.5,1.1,1.3,1.2,2.2l0.6,4.4c0.1,1-0.1,1.8-0.6,2.4c-0.5,0.7-1.3,1.1-2.2,1.2l-8.9,1.2
	c-1,0.1-1.8-0.1-2.4-0.6c-0.7-0.5-1.1-1.3-1.2-2.2l-0.3-2.4l-10.7,1.4l0.4,3.1c0.2,1.8,0.7,3.4,1.5,4.8c0.8,1.4,1.8,2.6,3,3.5
	s2.6,1.6,4.1,2c1.6,0.4,3.2,0.5,5,0.2l12.5-1.6c1.8-0.2,3.4-0.7,4.8-1.5c1.4-0.8,2.6-1.8,3.5-3c0.9-1.2,1.6-2.6,2-4.1
	c0.4-1.6,0.5-3.2,0.2-5l-0.7-5.6c-0.2-1.8-0.7-3.4-1.5-4.8c-0.8-1.4-1.8-2.6-3-3.5c-1.2-0.9-2.6-1.6-4.1-2c-1.6-0.4-3.2-0.5-5-0.2
	l-10,1.3c-1,0.1-1.8-0.1-2.4-0.6c-0.7-0.5-1.1-1.3-1.2-2.2l-0.5-4.1c-0.1-1,0.1-1.8,0.6-2.4c0.5-0.7,1.3-1.1,2.2-1.2l7.9-1
	c1-0.1,1.8,0.1,2.4,0.6c0.7,0.5,1.1,1.3,1.2,2.2l0.3,2.4l10.7-1.4l-0.4-3.1c-0.2-1.8-0.7-3.4-1.5-4.8c-0.8-1.4-1.8-2.6-3-3.5
	c-1.2-0.9-2.6-1.6-4.1-2C484.1,739.4,485.4,739.6,482.4,739.4z M383.8,739.5l-1.1,9.6l13.2,1.5l-4.6,40.5l10.7,1.2l4.6-40.5
	l13.2,1.5l1.1-9.6L383.8,739.5z M434.4,52.9c215.4,0,390,174.6,390,390s-174.6,390-390,390s-390-174.6-390-390S219,52.9,434.4,52.9
	L434.4,52.9z"/>
<ellipse transform="matrix(0.1602 -0.9871 0.9871 0.1602 -333.5489 493.7792)" class="st0" cx="123.4" cy="442.9" rx="27.5" ry="27.5"/>
<circle class="st0" cx="748.3" cy="443.4" r="27.5"/>
<path class="st1" d="M476,575.8c0,0,6.6,4,12.7,5.4c6.1,1.4,13.5,1.7,21.3,1c7.8-0.7,12.5-1.4,21-5.2c8.5-3.8,13.1-8.4,17.9-15.5
	c4.9-7.1,8.4-13.7,11.1-24.2c2.7-10.5,4.6-20,4.8-28.9c0.2-8.9,0.3-20.2-0.4-29.3c-0.6-9.1-1.4-18.4-2.9-27.5
	c-1.5-9.1-3.7-18-3.7-18l93.6,0.5c0,0,0.5-6.5,0-13.2c-0.5-6.8-2.4-16.8-5.1-23.7c-2.7-6.9-7.4-13.7-13.2-19.1
	c-5.9-5.4-11-7.8-15.9-9.2c-5-1.4-10.1-2.3-10.1-2.3s-5.3-14.3-12.3-24.9c-7.1-10.7-12.8-20.3-24.3-31.6
	c-11.6-11.3-27.8-24.6-49.1-36.1c-21.3-11.4-53.3-20.7-73.7-21.3c-20.4-0.6-59.6,4.1-81.7,14c-22.1,9.9-40.5,20.4-52.4,31.9
	c-11.9,11.4-27.8,31-37.2,46.3c-9.5,15.3-18.9,42.1-23.1,60.9c-4.2,18.8-3,40.4-1.8,61.3c1.2,20.9,6.8,43.4,11.6,56.8
	c4.8,13.4,12.6,33.1,23.6,48.7c11,15.6,28.5,33.7,50.4,44.3c21.9,10.7,44,14.6,67.4,12c23.4-2.6,40.8-12.5,51.9-23.1
	S475.8,576,476,575.8z"/>
<path class="st2" d="M537.1,433l-57.5,0.5L479.4,554c0,0,5.6,4.4,10.2,6c4.6,1.6,12.1,2.5,18,2.1c5.8-0.4,12.8-2.3,17.1-5.5
	c4.2-3.2,10.2-8.5,12.8-15.5s6.3-18.7,6.9-26.8s1.1-21,0.2-30.8c-0.9-9.9-2.8-23.1-4.2-31.7C538.8,443.2,537.1,433.1,537.1,433z"/>
<path class="st2" d="M439.7,289.8l-0.2,7.9c0,0,12.7-0.8,22.6,1.1c9.9,1.9,16.8,3.4,28.6,8.8c11.8,5.4,17.9,7.4,28.4,15.8
	c10.5,8.4,19.7,17.5,19.9,17.5l5.4-4.9c0,0-3.8-4.5-10.5-10.2c-6.7-5.6-10.4-10-24.3-17.2c-13.9-7.2-22.3-12.2-36.1-14.8
	C459.7,291.1,439.7,289.8,439.7,289.8z M440.4,273.8c13.6,1,7.8,0.3,17.3,1.5c14.8,2.1,31,6.1,45.6,13.4
	c14.7,7.3,24.3,12.1,37.2,23.1c12.9,11,22,22.2,28.8,30.6c6.8,8.5,13,21,17,29.4c4.1,8.3,5.7,15,5.7,15s5.7-0.3,9.8,0.1
	c4.1,0.3,7,1.3,12.6,4.3c5.6,2.9,8.5,6.2,11.4,11c2.9,4.8,4.2,9.8,4.2,9.8c0,0-170.7,0.7-170.7,0.7c0,0-0.5,143.1-0.5,143.1
	c0,0.1-1.5,10.8-6.1,20.1c-4.6,9.3-12.6,16.5-21.5,22c-8.8,5.6-19.3,9-29.9,10.4s-21.6,0.4-34.6-2.3c-13-2.7-22.1-8.2-33.3-15.1
	c-11.2-6.9-23.7-21.9-30.8-31.8c-7.1-9.8-13.2-22.2-17.3-33.5c-4.2-11.4-7.3-26.7-10.3-40.8c-3-14-3.7-30.4-3.7-43.3
	c-0.1-12.9,1.1-29.1,5.4-44.3c4.3-15.2,11.3-32.6,19.6-46c8.3-13.4,18.6-24.1,27.3-33.4c8.7-9.2,26.6-20.2,38.8-26.6
	c12.2-6.4,31.7-13.2,47.8-15.7c7.3-1,9.4-1.4,18.2-1.7C432.4,273.6,436.4,273.8,440.4,273.8z"/>
<ellipse class="st1" cx="395.7" cy="547.3" rx="33.8" ry="33.9"/>
<ellipse class="st2" cx="395.2" cy="547.9" rx="12.8" ry="12.8"/>
<polygon class="st3" points="349.6,423.7 331,423.7 331,356.1 330.5,356.1 312.6,368.8 312.6,349.3 331,336.2 349.6,336.2 "/>
<polygon class="st4" points="349.6,423.7 331,423.7 331,356.1 330.5,356.1 312.6,368.8 312.6,349.3 331,336.2 349.6,336.2 "/>
<path class="st3" d="M363.8,389v-52.8h56.8V353h-39.1v19.8h0.5c1.8-1.8,3.8-3.3,6.1-4.4c2.3-1.1,4.7-1.7,7.1-1.7h8.4
	c3.2,0,6,0.4,8.4,1.1c2.5,0.7,4.5,1.9,6.1,3.4c1.6,1.6,2.9,3.7,3.7,6.4c0.8,2.7,1.3,5.9,1.3,9.8v15.3c0,3.2-0.5,6-1.6,8.6
	c-1,2.6-2.5,4.8-4.4,6.7s-4.1,3.3-6.7,4.4c-2.6,1-5.5,1.6-8.6,1.6h-18c-3.2,0-6-0.5-8.6-1.6c-2.6-1-4.8-2.5-6.7-4.4
	s-3.3-4.1-4.4-6.7c-1-2.6-1.6-5.5-1.6-8.6v-3.3h18.6v4.5c0,2.8,1.6,4.3,4.8,4.3h13.8c1.4,0,2.6-0.4,3.4-1.1c0.9-0.7,1.3-1.8,1.3-3.2
	v-18c0-1.4-0.4-2.5-1.3-3.2c-0.9-0.7-2-1.1-3.4-1.1h-7.5c-3,0-5.4,0.8-7.2,2.3c-1.8,1.5-3,3.3-3.6,5.3H363.8z"/>
<path class="st4" d="M363.8,389v-52.7h56.8V353h-39.1v19.8h0.5c1.8-1.8,3.8-3.3,6.1-4.4c2.3-1.1,4.7-1.7,7.1-1.7h8.4
	c3.2,0,6,0.4,8.4,1.1c2.5,0.7,4.5,1.9,6.1,3.4c1.6,1.6,2.9,3.7,3.7,6.4c0.8,2.7,1.3,5.9,1.3,9.8v15.2c0,3.2-0.5,6-1.6,8.6
	c-1,2.6-2.5,4.8-4.4,6.7s-4.1,3.3-6.7,4.4c-2.6,1-5.5,1.6-8.6,1.6h-18c-3.2,0-6-0.5-8.6-1.6c-2.6-1-4.8-2.5-6.7-4.4
	s-3.3-4.1-4.4-6.7c-1-2.6-1.6-5.5-1.6-8.6v-3.3h18.6v4.5c0,2.8,1.6,4.3,4.8,4.3h13.8c1.4,0,2.6-0.4,3.4-1.1c0.9-0.7,1.3-1.8,1.3-3.2
	v-18c0-1.4-0.4-2.5-1.3-3.2c-0.9-0.7-2-1.1-3.4-1.1h-7.5c-3,0-5.4,0.8-7.2,2.3c-1.8,1.5-3,3.3-3.6,5.2H363.8z"/>
<polygon class="st3" points="436.4,358.5 448,358.5 448,376 464.8,376 464.8,387.2 448,387.2 448,404.6 436.4,404.6 436.4,387.2 
	419.6,387.2 419.6,376 436.4,376 "/>
<polygon class="st4" points="436.4,358.5 448,358.5 448,376 464.8,376 464.8,387.2 448,387.2 448,404.6 436.4,404.6 436.4,387.2 
	419.6,387.2 419.6,376 436.4,376 "/>
</svg>
