<?xml version="1.0" encoding="utf-8"?>
<!-- Generator: Adobe Illustrator 22.0.0, SVG Export Plug-In . SVG Version: 6.00 Build 0)  -->
<svg version="1.1" xmlns="http://www.w3.org/2000/svg" xmlns:xlink="http://www.w3.org/1999/xlink" x="0px" y="0px"
	 viewBox="0 0 900 900" style="enable-background:new 0 0 900 900;" xml:space="preserve">
<style type="text/css">
	.st0{fill:#FFFFFF;}
	.st1{fill:#07C632;}
	.st2{fill:#4E6588;}
	.st3{fill:none;stroke:#000000;stroke-width:8;}
	.st4{fill:#012354;}
	.st5{fill:#FFEC02;}
</style>
<g id="Layer_3">
	<circle class="st0" cx="434.5" cy="444.5" r="378.3"/>
</g>
<g id="Layer_1">
	<path class="st1" d="M459.7,130.4l8.2,0.7c0.7,0.1,1.3,0.3,1.7,0.8c0.4,0.5,0.6,1.1,0.5,1.8l-0.5,5.6c-0.1,0.7-0.3,1.3-0.8,1.7
		c-0.5,0.4-1.1,0.6-1.8,0.5l-8.2-0.7L459.7,130.4z M452,122.4l-3.1,38.4l8.2,0.7l1.1-13.2l9.6,0.8c1.4,0.1,2.7,0,3.8-0.4
		c1.2-0.4,2.2-0.9,3.1-1.7c0.9-0.8,1.6-1.7,2.2-2.8c0.5-1.1,0.9-2.3,1-3.7l0.5-6.6c0.1-1.4,0-2.7-0.4-3.8c-0.4-1.2-0.9-2.2-1.7-3.1
		c-0.8-0.9-1.7-1.6-2.8-2.2c-1.1-0.5-2.3-0.9-3.7-1L452,122.4z M444.8,121.5l-7.9,0.4l-4.9,25.8l-0.2,0l-7.3-25.2l-8.5,0.4
		l-4.9,25.8l-0.2,0l-7.3-25.2L395,124l12.1,38l8.5-0.4l4.9-25.8l0.2,0l7.3,25.2l8.5-0.4L444.8,121.5z M485.2,125.8l-5.9,38l8.2,1.3
		l5.9-38L485.2,125.8z M378.8,134.7c1.1,0.2,0.7,0,1.4,0.4c0.5,0.4,0.9,0.9,1,1.6l3.5,18.5c0.1,0.7,0,1.3-0.3,1.9
		c-0.4,0.5-0.9,0.9-1.6,1l-7.8,1.5c-0.7,0.1-1.3,0-1.9-0.3c-0.5-0.4-0.9-0.9-1-1.6l-3.5-18.5c-0.1-0.7,0-1.3,0.3-1.9
		c0.4-0.5,0.9-0.9,1.6-1l7.8-1.5L378.8,134.7z M379.7,127.1c-0.5,0-1,0.1-1.4,0.2l-10.5,2c-1.4,0.3-2.6,0.7-3.6,1.4
		c-1,0.7-1.9,1.5-2.5,2.4c-0.7,1-1.1,2-1.3,3.3c-0.2,1.2-0.2,2.5,0,3.9l3.7,19.4c0.3,1.4,0.7,2.6,1.4,3.6c0.7,1,1.5,1.9,2.4,2.5
		c1,0.7,2,1.1,3.3,1.3c1.2,0.2,2.5,0.2,3.9,0l10.5-2c1.4-0.3,2.6-0.7,3.6-1.4c1-0.7,1.9-1.5,2.5-2.4c0.7-1,1.1-2,1.3-3.3
		c0.2-1.2,0.2-2.5,0-3.9l-3.7-19.4c-0.3-1.4-0.7-2.6-1.4-3.6c-0.7-1-1.5-1.9-2.4-2.5c-1-0.7-2-1.1-3.3-1.3l-0.9-0.1
		C380.2,127.1,380.7,127.1,379.7,127.1L379.7,127.1z M498.8,127.7l-1.6,7.2l9.9,2.3l-7,30.3l8,1.8l7-30.3l9.9,2.3l1.6-7.2
		L498.8,127.7z M265.7,158l-7.8,4.7l-0.2,8.6l6-3.6L265.7,158z M337,137.2l-7.9,2.4l11.1,36.9l22.4-6.7l-2.1-7.1L346,167L337,137.2z
		 M538.3,138.5c-1.2,0.1-2.4,0.4-3.4,0.9c-1,0.5-2,1.2-2.8,2.2c-0.8,0.9-1.4,2-1.9,3.4l-6.4,18.7c-0.5,1.3-0.6,2.6-0.6,3.8
		c0.1,1.2,0.4,2.4,0.9,3.4c0.5,1,1.2,2,2.2,2.8c0.9,0.8,2,1.4,3.4,1.9l9.1,3.1c1.3,0.5,2.6,0.6,3.8,0.6c1.2-0.1,2.4-0.4,3.4-0.9
		c1-0.5,2-1.2,2.8-2.2s1.4-2,1.9-3.4l0.8-2.2l-7.8-2.7l-0.6,1.8c-0.2,0.7-0.6,1.2-1.2,1.5c-0.6,0.3-1.2,0.3-1.9,0.1l-6.5-2.2
		c-0.7-0.2-1.2-0.6-1.5-1.2c-0.3-0.6-0.3-1.2-0.1-1.9l6.1-17.8c0.2-0.7,0.6-1.2,1.2-1.5s1.2-0.3,1.9-0.1l6.5,2.2
		c0.7,0.2,1.2,0.6,1.5,1.2c0.3,0.6,0.3,1.2,0.1,1.9l-0.6,1.8l7.8,2.7l0.8-2.2c0.5-1.3,0.6-2.6,0.6-3.8c-0.1-1.2-0.4-2.4-0.9-3.4
		c-0.5-1-1.2-2-2.2-2.8c-0.9-0.8-2-1.4-3.4-1.9l-9.1-3.1C540.8,138.6,539.5,138.4,538.3,138.5L538.3,138.5z M315.6,145.2
		c-1.2,0-2.5,0.3-3.8,0.8l-8.1,3.4c-1.3,0.5-2.4,1.2-3.2,2.1c-0.9,0.9-1.5,1.8-2,2.9c-0.4,1.1-0.7,2.2-0.7,3.5
		c0,1.2,0.3,2.5,0.8,3.8l1.6,3.8c0.5,1.3,1.2,2.4,2.1,3.2c0.9,0.9,1.8,1.5,2.9,2c1.1,0.4,2.2,0.7,3.5,0.7c1.2,0,2.5-0.3,3.8-0.8
		l7.1-2.9c0.7-0.3,1.3-0.3,1.9,0c0.6,0.2,1,0.7,1.3,1.4l1.3,3.1c0.3,0.7,0.3,1.3,0,1.9c-0.2,0.6-0.7,1-1.4,1.3l-6.4,2.6
		c-0.7,0.3-1.3,0.3-1.9,0c-0.6-0.2-1-0.7-1.3-1.4l-0.7-1.7l-7.6,3.1l0.9,2.2c0.5,1.3,1.2,2.4,2.1,3.2c0.9,0.9,1.8,1.5,2.9,2
		c1.1,0.4,2.2,0.7,3.5,0.7c1.2,0,2.5-0.3,3.8-0.8l8.9-3.7c1.3-0.5,2.4-1.2,3.2-2.1c0.9-0.9,1.5-1.8,2-2.9c0.4-1.1,0.7-2.2,0.7-3.5
		c0-1.2-0.3-2.5-0.8-3.8l-1.7-4c-0.5-1.3-1.2-2.4-2.1-3.2c-0.9-0.9-1.8-1.5-2.9-2c-1.1-0.4-2.2-0.7-3.5-0.7c-1.2,0-2.5,0.3-3.8,0.8
		l-7.1,2.9c-0.7,0.3-1.3,0.3-1.9,0c-0.6-0.2-1-0.7-1.3-1.4l-1.2-2.9c-0.3-0.7-0.3-1.3,0-1.9c0.2-0.6,0.7-1,1.4-1.3l5.6-2.3
		c0.7-0.3,1.3-0.3,1.9,0c0.6,0.2,1,0.7,1.3,1.4l0.7,1.7l7.6-3.1l-0.9-2.2c-0.5-1.3-1.2-2.4-2.1-3.2c-0.9-0.9-1.8-1.5-2.9-2
		C318,145.4,316.9,145.2,315.6,145.2L315.6,145.2z M568.1,148.5l-16.5,34.8l7.5,3.5l6.7-14.2l11.7,5.5l-6.7,14.2l7.5,3.5l16.5-34.8
		l-7.5-3.5l-6.6,14l-11.7-5.5l6.6-14L568.1,148.5z M607.8,177.5l0.9,0.4l6.7,4.3c0.6,0.4,1,0.9,1.1,1.5c0.1,0.6,0,1.3-0.4,1.9
		l-10,15.9c-0.4,0.6-0.9,1-1.5,1.1c-0.6,0.1-1.3,0-1.9-0.4l-6.7-4.3c-0.6-0.4-1-0.9-1.1-1.5c-0.1-0.6,0-1.3,0.4-1.9l10-15.9
		c0.4-0.6,0.9-1,1.5-1.1L607.8,177.5z M606.2,169.4l-1.7,0.2c-1.1,0.3-2.2,0.7-3.2,1.5c-1,0.7-1.9,1.7-2.6,2.8l-10.6,16.7
		c-0.7,1.2-1.2,2.4-1.4,3.6c-0.2,1.2-0.2,2.4,0.1,3.5c0.3,1.1,0.7,2.2,1.5,3.2c0.7,1,1.7,1.9,2.8,2.6l9.1,5.7
		c1.2,0.7,2.4,1.2,3.6,1.4c1.2,0.2,2.4,0.2,3.5-0.1c1.1-0.3,2.2-0.7,3.2-1.5c1-0.7,1.9-1.7,2.6-2.8l10.6-16.7
		c0.7-1.2,1.2-2.4,1.4-3.6c0.2-1.2,0.2-2.4-0.1-3.5c-0.3-1.1-0.7-2.2-1.5-3.2c-0.7-1-1.7-1.9-2.8-2.6l-9.1-5.7
		c-1.2-0.7-2.4-1.2-3.6-1.4L606.2,169.4z M681.9,215.2l-8.4,1.8l4.9,5l9.9-0.4L681.9,215.2z M633.9,185.4l-13.7,38.3l5.5,4.4
		l34.5-21.7l-6.6-5.3l-22.3,15l-0.2-0.1l9.9-25L633.9,185.4z M267.3,180.1l9.7,8.6l-6.8,4.1l-3.1-12.6L267.3,180.1z M265.6,168.7
		l-7.2,4.4l8.4,38.8l-24-8.3l0-20.6l-7.2,5.6l0.4,20.6l-0.2,0.2l-10.2-13l-6.5,5.1l23.7,30.4l6.5-5.1l-6.5-8.3l0-6.1l17.3,5.9
		l7.1-5.6l7-4.2l-2.1-8.2l10.7-6.5l6.3,5.6l7.7-4.7L265.6,168.7z M211.8,211.5c-1.2,0-2.3,0.2-3.4,0.7c-1.1,0.5-2.2,1.2-3.2,2.2
		l-6.3,6.2c-1,1-1.7,2-2.2,3.1c-0.5,1.1-0.7,2.3-0.8,3.4c0,1.2,0.2,2.3,0.7,3.4c0.5,1.1,1.2,2.2,2.2,3.2l2.9,2.9c1,1,2,1.7,3.1,2.2
		c1.1,0.5,2.3,0.7,3.4,0.8c1.2,0,2.3-0.2,3.4-0.7c1.1-0.5,2.2-1.2,3.2-2.2l5.5-5.4c0.5-0.5,1.1-0.8,1.8-0.8c0.6,0,1.2,0.3,1.7,0.8
		l2.3,2.4c0.5,0.5,0.8,1.1,0.8,1.8c0,0.6-0.3,1.2-0.8,1.7l-4.9,4.8c-0.5,0.5-1.1,0.8-1.8,0.8c-0.6,0-1.2-0.3-1.7-0.8l-1.3-1.3
		l-5.9,5.8l1.7,1.7c1,1,2,1.7,3.1,2.2c1.1,0.5,2.3,0.7,3.4,0.8c1.2,0,2.3-0.2,3.4-0.7s2.2-1.2,3.2-2.2l6.9-6.7c1-1,1.7-2,2.2-3.1
		s0.7-2.3,0.8-3.4c0-1.2-0.2-2.3-0.7-3.4c-0.5-1.1-1.2-2.2-2.2-3.2l-3-3.1c-1-1-2-1.7-3.1-2.2c-1.1-0.5-2.3-0.7-3.4-0.8
		c-1.2,0-2.3,0.2-3.4,0.7c-1.1,0.5-2.2,1.2-3.2,2.2l-5.5,5.4c-0.5,0.5-1.1,0.8-1.8,0.8c-0.6,0-1.2-0.3-1.7-0.8l-2.2-2.2
		c-0.5-0.5-0.8-1.1-0.8-1.8c0-0.6,0.3-1.2,0.8-1.7l4.3-4.2c0.5-0.5,1.1-0.8,1.8-0.8c0.6,0,1.2,0.3,1.7,0.8l1.3,1.3l5.9-5.8l-1.7-1.7
		c-1-1-2-1.7-3.1-2.2C214.1,211.8,213,211.5,211.8,211.5L211.8,211.5z M667.1,228.2l0.2,0.2l-6.1,11.5l-5.6-5.6L667.1,228.2z
		 M671.9,218l-36.7,17.7l6,6l7.5-3.9l8.8,8.9l-4,7.5l6.4,6.4l17.9-36.6L671.9,218z M187.5,232.1l-18.2,22.1l5.7,4.7l6.5-7.8l24,19.8
		l5.3-6.4l-24-19.8l6.5-7.8L187.5,232.1z M699.9,249l-31,22.8l13.8,18.8l5.9-4.4l-8.9-12.2l25.1-18.4L699.9,249z M716.8,273
		l-32.6,20.6l4.4,7l32.6-20.6L716.8,273z M167.8,262.9l-1.7,0.2c-1.1,0.2-2.2,0.7-3.2,1.4c-1,0.7-1.9,1.6-2.7,2.8l-4.9,7.3
		c-0.8,1.2-1.3,2.3-1.5,3.5c-0.2,1.2-0.2,2.4,0,3.5c0.2,1.1,0.7,2.2,1.4,3.2c0.7,1,1.6,1.9,2.8,2.7l3.4,2.3c1.2,0.8,2.3,1.3,3.5,1.5
		c1.2,0.2,2.4,0.2,3.5,0c1.1-0.2,2.2-0.7,3.2-1.4c1-0.7,1.9-1.6,2.7-2.8l4.2-6.4c0.4-0.6,0.9-1,1.6-1.1c0.6-0.1,1.3,0,1.9,0.4
		l2.8,1.8c0.6,0.4,1,0.9,1.1,1.6c0.1,0.6,0,1.3-0.4,1.9l-3.8,5.7c-0.4,0.6-0.9,1-1.6,1.1c-0.6,0.1-1.3,0-1.9-0.4l-1.6-1l-4.5,6.9
		l2,1.3c1.2,0.8,2.3,1.3,3.5,1.5c1.2,0.2,2.4,0.2,3.5,0c1.1-0.2,2.2-0.7,3.2-1.4c1-0.7,1.9-1.6,2.7-2.8l5.3-8
		c0.8-1.2,1.3-2.3,1.5-3.5s0.2-2.4,0-3.5c-0.2-1.1-0.7-2.2-1.4-3.2s-1.6-1.9-2.8-2.7l-3.6-2.4c-1.2-0.8-2.3-1.3-3.5-1.5
		c-1.2-0.2-2.4-0.2-3.5,0c-1.1,0.2-2.2,0.7-3.2,1.4c-1,0.7-1.9,1.6-2.7,2.8l-4.2,6.4c-0.4,0.6-0.9,1-1.6,1.1c-0.6,0.1-1.3,0-1.9-0.4
		l-2.6-1.7c-0.6-0.4-1-0.9-1.1-1.6c-0.1-0.6,0-1.3,0.4-1.9l3.3-5c0.4-0.6,0.9-1,1.6-1.1c0.6-0.1,1.3,0,1.9,0.4l1.6,1l4.5-6.9l-2-1.3
		c-1.2-0.8-2.3-1.3-3.5-1.5L167.8,262.9z M136.9,287.5l-3.4,6.7l1.7,3.5l-3.8,0.7l-3.4,6.7l8.8-1.3l4.2-8.2L136.9,287.5z
		 M721.4,290.5c-1.2,0.1-2.4,0.5-3.7,1.1l-17.6,9.1c-1.2,0.6-2.3,1.4-3.1,2.4c-0.8,0.9-1.4,2-1.7,3.1c-0.4,1.1-0.5,2.3-0.4,3.5
		c0.1,1.2,0.5,2.4,1.1,3.7l4.4,8.5c0.6,1.2,1.4,2.3,2.4,3.1c0.9,0.8,2,1.4,3.1,1.7c1.1,0.4,2.3,0.5,3.5,0.4c1.2-0.1,2.4-0.5,3.7-1.1
		l9.7-5l-7-13.4l-6.5,3.4l3.2,6.1l-2.7,1.4c-0.7,0.3-1.3,0.4-1.9,0.2c-0.6-0.2-1.1-0.6-1.4-1.3l-3.2-6.1c-0.3-0.7-0.4-1.3-0.2-1.9
		c0.2-0.6,0.6-1.1,1.3-1.4l16.7-8.7c0.7-0.3,1.3-0.4,1.9-0.2c0.6,0.2,1.1,0.6,1.4,1.3l3.2,6.1c0.3,0.7,0.4,1.3,0.2,1.9
		c-0.2,0.6-0.6,1.1-1.3,1.4l-1.7,0.9l3.8,7.3l2.1-1.1c1.2-0.6,2.3-1.4,3.1-2.4c0.8-0.9,1.4-2,1.7-3.1c0.4-1.1,0.5-2.3,0.4-3.5
		c-0.1-1.2-0.5-2.4-1.1-3.7l-4.4-8.5c-0.6-1.2-1.4-2.3-2.4-3.1c-0.9-0.8-2-1.4-3.1-1.7l-1.7-0.4L721.4,290.5z M145.9,289.8
		l-11.2,21.8l34.2,17.6l11.4-22.3l-6.6-3.4l-7.7,14.9l-7.4-3.8l6.9-13.5l-6.6-3.4l-6.9,13.5l-7.2-3.7l7.4-14.4L145.9,289.8z
		 M738,338.4l0.1,0.2l-10.3,8l-2.8-7.4L738,338.4z M746.6,331.1l-40.7,1.1l3,7.9l8.4-0.5l4.4,11.7l-6.7,5.2l3.2,8.4l31.4-26
		L746.6,331.1z M130.3,320.9l-2.7,7.5l17.3,16.4l-0.1,0.2l-23.7,1.3l-2.9,8l36.2,13.2l2.8-7.7l-19.7-7.2l0.1-0.3l22.8-1.4l0.1-0.3
		l-16.6-15.7l0.1-0.3l19.7,7.2l2.8-7.7L130.3,320.9z M123.3,407.8c-19.3,0-35,15.7-35,35c0,19.3,15.7,35,35,35s35-15.7,35-35
		C158.3,423.5,142.7,407.8,123.3,407.8L123.3,407.8z M748.2,408.3c-19.3,0-35,15.7-35,35c0,19.3,15.7,35,35,35c19.3,0,35-15.7,35-35
		C783.2,424,767.5,408.3,748.2,408.3L748.2,408.3z M436.1,206.7c-129.8,0-235,105.2-235,235c0,129.8,105.2,235,235,235
		c129.8,0,235-105.2,235-235S565.9,206.7,436.1,206.7L436.1,206.7z M561,702.7l-10.9,4.7l-1.8,11.1l8.4-3.6L561,702.7z M515.1,720.1
		l-9.5,2.3l-2,4.7l-4-3.2l-9.5,2.3l8.9,7.6l11.7-2.9L515.1,720.1z M452.9,730l-11.8,0.9l-5.3,9.9l9.1-0.7L452.9,730z M252.1,680
		l-28.7,41.5l8.9,6.1l11.7-16.9l13.9,9.6l-11.7,16.9l8.9,6.1l28.7-41.5l-8.9-6.1l-11.5,16.6l-13.9-9.6l11.5-16.6L252.1,680z
		 M610.4,699.1l0.6,0.1c0.8,0.2,1.5,0.7,2,1.5l13.5,20.6c0.5,0.8,0.7,1.6,0.5,2.5c-0.2,0.8-0.7,1.5-1.5,2l-11.4,7.5l-17.1-26
		l11.4-7.5C609.5,699.2,609,699.4,610.4,699.1z M611.1,688.5c-0.6,0-1.1,0.1-1.7,0.2c-1.6,0.3-3.1,1-4.6,2l-22,14.4l27.6,42.1
		l22-14.4c1.5-1,2.7-2.2,3.7-3.5c0.9-1.3,1.5-2.7,1.8-4.2c0.3-1.5,0.3-3,0-4.6c-0.3-1.6-1-3.1-2-4.6l-14.2-21.7
		c-1-1.5-2.2-2.7-3.5-3.7c-1.3-0.9-2.7-1.5-4.2-1.8l-1.1-0.2C611.8,688.5,612.3,688.5,611.1,688.5z M296.2,708.7l-21.6,45.5
		l29.6,14.1l4.1-8.7l-19.8-9.4l4.7-9.8l17.9,8.5l4.1-8.7l-17.9-8.5l4.5-9.6l19.2,9.1l4.1-8.7L296.2,708.7z M559.1,731.5l11,13
		l-9.5,4.1l-1.8-16.9L559.1,731.5z M558.9,716.5l-10.1,4.3l3.9,53.2l10.2-4.4l-1.2-11l15-6.4l7.2,8.4l10.9-4.6L558.9,716.5z
		 M344.7,739.3l11.1,3.2c0.9,0.3,1.6,0.8,2,1.5c0.4,0.7,0.5,1.6,0.2,2.5l-1.9,6.4c-0.3,0.9-0.8,1.6-1.5,2c-0.7,0.4-1.6,0.5-2.5,0.2
		l-11.1-3.2L344.7,739.3z M337.1,727l-14.1,48.4l10.4,3l5-17.3l5.3,1.5l3.9,19.9l11.7,3.4l-4.1-20.5c2.6,0,4.9-0.8,6.9-2.4
		c2-1.5,3.4-3.7,4.2-6.5l2.2-7.6c0.5-1.8,0.7-3.4,0.5-5c-0.2-1.6-0.6-3.1-1.3-4.4c-0.7-1.3-1.7-2.5-3-3.5c-1.3-1-2.8-1.7-4.5-2.3
		L337.1,727z M514.3,742.6c1.4,0.2,0.9,0,1.8,0.4c0.7,0.4,1.2,1.1,1.4,2.1l1.6,6.4c0.2,0.9,0.1,1.8-0.3,2.5
		c-0.4,0.7-1.1,1.2-2.1,1.4l-11.2,2.7l-3.1-12.7l11.2-2.7L514.3,742.6z M516.9,732.5c-3,0.2-1.7,0-3.8,0.4l-23.4,5.7l12,49l10.5-2.6
		l-4.3-17.5l5.3-1.3l13.4,15.3l11.8-2.9l-13.8-15.8c2.2-1.3,3.8-3.2,4.8-5.5c1-2.3,1.1-4.9,0.4-7.8l-1.9-7.7
		c-0.4-1.8-1.1-3.3-2.1-4.6c-0.9-1.3-2.1-2.4-3.4-3.1c-1.3-0.8-2.8-1.3-4.3-1.5L516.9,732.5z M445,742.5l-10.8,0.8l3.8,50.3
		l10.8-0.8L445,742.5z M383.8,739.6l-5.5,50.1l10.7,1.2l3.3-29.6l0.3,0l13.3,31.4l10.7,1.2l5.5-50.1l-10.7-1.2l-3.3,29.6l-0.3,0
		l-13.3-31.4L383.8,739.6z M434.4,52.9c215.4,0,390,174.6,390,390s-174.6,390-390,390s-390-174.6-390-390S219,52.9,434.4,52.9
		L434.4,52.9z"/>
	
		<ellipse transform="matrix(0.1602 -0.9871 0.9871 0.1602 -333.5489 493.7792)" class="st1" cx="123.4" cy="442.9" rx="27.5" ry="27.5"/>
	<circle class="st1" cx="748.3" cy="443.4" r="27.5"/>
	<path class="st2" d="M307.3,255.5l190.5,0l82,79.4l0,279.9c0,6-4.8,10.8-10.6,10.8l-261.9,0c-5.9,0-10.6-4.8-10.6-10.8l0-348.5
		C296.7,260.3,301.4,255.5,307.3,255.5"/>
	<path class="st3" d="M307.3,255.5l190.5,0l82,79.4l0,279.9c0,6-4.8,10.8-10.6,10.8l-261.9,0c-5.9,0-10.6-4.8-10.6-10.8l0-348.5
		C296.7,260.3,301.4,255.5,307.3,255.5"/>
	<path class="st4" d="M497.7,256v65.8c0,6.1,4.9,11.1,10.9,11.1h65.9L497.7,256"/>
	<path class="st3" d="M497.7,256v65.8c0,6.1,4.9,11.1,10.9,11.1h65.9L497.7,256"/>
	<path class="st3" d="M343.3,396h17.1c6,0,10.9,4.9,10.9,10.9V423c0,6-4.9,10.9-10.9,10.9h-17.1c-6,0-10.9-4.9-10.9-10.9V407
		C332.3,400.9,337.2,396,343.3,396z"/>
	<path class="st3" d="M342.8,473.1h17.1c6,0,10.9,4.9,10.9,10.9v16.1c0,6-4.9,10.9-10.9,10.9h-17.1c-6,0-10.9-4.9-10.9-10.9v-16.1
		C331.9,478,336.8,473.1,342.8,473.1z"/>
	<path class="st3" d="M342.5,553.8h17.1c6,0,10.9,4.9,10.9,10.9v16.1c0,6-4.9,10.9-10.9,10.9h-17.1c-6,0-10.9-4.9-10.9-10.9v-16.1
		C331.5,558.7,336.4,553.8,342.5,553.8z"/>
	<line class="st3" x1="515.2" y1="397.8" x2="403.3" y2="397.8"/>
	<line class="st3" x1="403.3" y1="432.3" x2="439.3" y2="432.3"/>
	<line class="st3" x1="403.2" y1="475.2" x2="501.1" y2="475.2"/>
	<line class="st3" x1="403.5" y1="510.5" x2="465.5" y2="510.5"/>
	<line class="st3" x1="403.2" y1="554.7" x2="524.4" y2="554.7"/>
	<path class="st5" d="M630.8,449.4L526.5,554.4h-26.7l0.7-27.6l105.2-102.4C605.7,424.4,630.5,449.7,630.8,449.4z"/>
	<path class="st3" d="M630.8,449.4L526.5,554.4h-26.7l0.7-27.6l105.2-102.4C605.7,424.4,630.5,449.7,630.8,449.4z"/>
	
		<rect x="589.9" y="430.9" transform="matrix(0.7071 -0.7071 0.7071 0.7071 -139.5431 560.3318)" class="st4" width="33.4" height="35.5"/>
	
		<rect x="589.9" y="430.9" transform="matrix(0.7071 -0.7071 0.7071 0.7071 -139.5431 560.3318)" class="st3" width="33.4" height="35.5"/>
	<rect x="440.2" y="294.3" width="2.7" height="10.3"/>
	<rect x="440.1" y="344.3" width="2.7" height="10.3"/>
	<rect x="461.5" y="322.4" width="10.3" height="2.7"/>
	<rect x="411.3" y="322.3" width="10.3" height="2.7"/>
	<rect x="419" y="306.1" transform="matrix(0.4847 -0.8747 0.8747 0.4847 -55.6208 528.0369)" width="2.7" height="10.3"/>
	<rect x="428.7" y="297.3" transform="matrix(0.8467 -0.532 0.532 0.8467 -94.9786 275.1063)" width="2.7" height="10.3"/>
	<rect x="452.8" y="340.9" transform="matrix(0.8664 -0.4993 0.4993 0.8664 -112.1082 272.9944)" width="2.7" height="10.3"/>
	<rect x="462.1" y="331.3" transform="matrix(0.4847 -0.8747 0.8747 0.4847 -55.4406 578.695)" width="2.7" height="10.3"/>
	<rect x="424.1" y="344.6" transform="matrix(0.4847 -0.8747 0.8747 0.4847 -81.378 553.7343)" width="10.3" height="2.7"/>
	<rect x="414.2" y="334.6" transform="matrix(0.8501 -0.5267 0.5267 0.8501 -114.0364 271.2427)" width="10.3" height="2.7"/>
	<rect x="457.8" y="310.5" transform="matrix(0.866 -0.5001 0.5001 0.866 -93.8914 273.2902)" width="10.3" height="2.7"/>
	<rect x="448.4" y="301.3" transform="matrix(0.4868 -0.8735 0.8735 0.4868 -31.5881 551.4518)" width="10.3" height="2.7"/>
	<path d="M424.9,324.4c0-9.2,7.5-16.7,16.7-16.7c9.2,0,16.7,7.5,16.7,16.7c0,9.2-7.5,16.7-16.7,16.7
		C432.4,341.1,424.9,333.6,424.9,324.4"/>
</g>
</svg>
