<?xml version="1.0" encoding="utf-8"?>
<!-- Generator: Adobe Illustrator 22.0.0, SVG Export Plug-In . SVG Version: 6.00 Build 0)  -->
<svg version="1.1" id="Layer_1" xmlns="http://www.w3.org/2000/svg" xmlns:xlink="http://www.w3.org/1999/xlink" x="0px" y="0px"
	 viewBox="0 0 900 900" style="enable-background:new 0 0 900 900;" xml:space="preserve">
<style type="text/css">
	.st0{fill:#07C632;}
	.st1{fill:#12284C;}
	.st2{fill:none;stroke:#000000;}
	.st3{fill:#FFEC02;}
	.st4{fill:#012354;}
	.st5{fill:#FFFFFF;}
</style>
<path class="st0" d="M459.7,130.4l8.2,0.7c0.7,0.1,1.3,0.3,1.7,0.8c0.4,0.5,0.6,1.1,0.5,1.8l-0.5,5.6c-0.1,0.7-0.3,1.3-0.8,1.7
	c-0.5,0.4-1.1,0.6-1.8,0.5l-8.2-0.7L459.7,130.4z M452,122.4l-3.1,38.4l8.2,0.7l1.1-13.2l9.6,0.8c1.4,0.1,2.7,0,3.8-0.4
	c1.2-0.4,2.2-0.9,3.1-1.7c0.9-0.8,1.6-1.7,2.2-2.8c0.5-1.1,0.9-2.3,1-3.7l0.5-6.6c0.1-1.4,0-2.7-0.4-3.8c-0.4-1.2-0.9-2.2-1.7-3.1
	c-0.8-0.9-1.7-1.6-2.8-2.2c-1.1-0.5-2.3-0.9-3.7-1L452,122.4z M444.8,121.5l-7.9,0.4l-4.9,25.8l-0.2,0l-7.3-25.2l-8.5,0.4l-4.9,25.8
	l-0.2,0l-7.3-25.2L395,124l12.1,38l8.5-0.4l4.9-25.8l0.2,0l7.3,25.2l8.5-0.4L444.8,121.5z M485.2,125.8l-5.9,38l8.2,1.3l5.9-38
	L485.2,125.8z M378.8,134.7c1.1,0.2,0.7,0,1.4,0.4c0.5,0.4,0.9,0.9,1,1.6l3.5,18.5c0.1,0.7,0,1.3-0.3,1.9c-0.4,0.5-0.9,0.9-1.6,1
	l-7.8,1.5c-0.7,0.1-1.3,0-1.9-0.3c-0.5-0.4-0.9-0.9-1-1.6l-3.5-18.5c-0.1-0.7,0-1.3,0.3-1.9c0.4-0.5,0.9-0.9,1.6-1l7.8-1.5
	L378.8,134.7z M379.7,127.1c-0.5,0-1,0.1-1.4,0.2l-10.5,2c-1.4,0.3-2.6,0.7-3.6,1.4c-1,0.7-1.9,1.5-2.5,2.4c-0.7,1-1.1,2-1.3,3.3
	c-0.2,1.2-0.2,2.5,0,3.9l3.7,19.4c0.3,1.4,0.7,2.6,1.4,3.6c0.7,1,1.5,1.9,2.4,2.5c1,0.7,2,1.1,3.3,1.3c1.2,0.2,2.5,0.2,3.9,0l10.5-2
	c1.4-0.3,2.6-0.7,3.6-1.4c1-0.7,1.9-1.5,2.5-2.4c0.7-1,1.1-2,1.3-3.3c0.2-1.2,0.2-2.5,0-3.9l-3.7-19.4c-0.3-1.4-0.7-2.6-1.4-3.6
	c-0.7-1-1.5-1.9-2.4-2.5c-1-0.7-2-1.1-3.3-1.3l-0.9-0.1C380.2,127.1,380.7,127.1,379.7,127.1L379.7,127.1z M498.8,127.7l-1.6,7.2
	l9.9,2.3l-7,30.3l8,1.8l7-30.3l9.9,2.3l1.6-7.2L498.8,127.7z M265.7,158l-7.8,4.7l-0.2,8.6l6-3.6L265.7,158z M337,137.2l-7.9,2.4
	l11.1,36.9l22.4-6.7l-2.1-7.1L346,167L337,137.2z M538.3,138.5c-1.2,0.1-2.4,0.4-3.4,0.9c-1,0.5-2,1.2-2.8,2.2
	c-0.8,0.9-1.4,2-1.9,3.4l-6.4,18.7c-0.5,1.3-0.6,2.6-0.6,3.8c0.1,1.2,0.4,2.4,0.9,3.4c0.5,1,1.2,2,2.2,2.8c0.9,0.8,2,1.4,3.4,1.9
	l9.1,3.1c1.3,0.5,2.6,0.6,3.8,0.6c1.2-0.1,2.4-0.4,3.4-0.9c1-0.5,2-1.2,2.8-2.2s1.4-2,1.9-3.4l0.8-2.2l-7.8-2.7l-0.6,1.8
	c-0.2,0.7-0.6,1.2-1.2,1.5c-0.6,0.3-1.2,0.3-1.9,0.1l-6.5-2.2c-0.7-0.2-1.2-0.6-1.5-1.2c-0.3-0.6-0.3-1.2-0.1-1.9l6.1-17.8
	c0.2-0.7,0.6-1.2,1.2-1.5s1.2-0.3,1.9-0.1l6.5,2.2c0.7,0.2,1.2,0.6,1.5,1.2c0.3,0.6,0.3,1.2,0.1,1.9l-0.6,1.8l7.8,2.7l0.8-2.2
	c0.5-1.3,0.6-2.6,0.6-3.8c-0.1-1.2-0.4-2.4-0.9-3.4c-0.5-1-1.2-2-2.2-2.8c-0.9-0.8-2-1.4-3.4-1.9l-9.1-3.1
	C540.8,138.6,539.5,138.4,538.3,138.5L538.3,138.5z M315.6,145.2c-1.2,0-2.5,0.3-3.8,0.8l-8.1,3.4c-1.3,0.5-2.4,1.2-3.2,2.1
	c-0.9,0.9-1.5,1.8-2,2.9c-0.4,1.1-0.7,2.2-0.7,3.5c0,1.2,0.3,2.5,0.8,3.8l1.6,3.8c0.5,1.3,1.2,2.4,2.1,3.2c0.9,0.9,1.8,1.5,2.9,2
	c1.1,0.4,2.2,0.7,3.5,0.7c1.2,0,2.5-0.3,3.8-0.8l7.1-2.9c0.7-0.3,1.3-0.3,1.9,0c0.6,0.2,1,0.7,1.3,1.4l1.3,3.1
	c0.3,0.7,0.3,1.3,0,1.9c-0.2,0.6-0.7,1-1.4,1.3l-6.4,2.6c-0.7,0.3-1.3,0.3-1.9,0c-0.6-0.2-1-0.7-1.3-1.4l-0.7-1.7l-7.6,3.1l0.9,2.2
	c0.5,1.3,1.2,2.4,2.1,3.2c0.9,0.9,1.8,1.5,2.9,2c1.1,0.4,2.2,0.7,3.5,0.7c1.2,0,2.5-0.3,3.8-0.8l8.9-3.7c1.3-0.5,2.4-1.2,3.2-2.1
	c0.9-0.9,1.5-1.8,2-2.9c0.4-1.1,0.7-2.2,0.7-3.5c0-1.2-0.3-2.5-0.8-3.8l-1.7-4c-0.5-1.3-1.2-2.4-2.1-3.2c-0.9-0.9-1.8-1.5-2.9-2
	c-1.1-0.4-2.2-0.7-3.5-0.7c-1.2,0-2.5,0.3-3.8,0.8l-7.1,2.9c-0.7,0.3-1.3,0.3-1.9,0c-0.6-0.2-1-0.7-1.3-1.4l-1.2-2.9
	c-0.3-0.7-0.3-1.3,0-1.9c0.2-0.6,0.7-1,1.4-1.3l5.6-2.3c0.7-0.3,1.3-0.3,1.9,0c0.6,0.2,1,0.7,1.3,1.4l0.7,1.7l7.6-3.1l-0.9-2.2
	c-0.5-1.3-1.2-2.4-2.1-3.2c-0.9-0.9-1.8-1.5-2.9-2C318,145.4,316.9,145.2,315.6,145.2L315.6,145.2z M568.1,148.5l-16.5,34.8l7.5,3.5
	l6.7-14.2l11.7,5.5l-6.7,14.2l7.5,3.5l16.5-34.8l-7.5-3.5l-6.6,14l-11.7-5.5l6.6-14L568.1,148.5z M607.8,177.5l0.9,0.4l6.7,4.3
	c0.6,0.4,1,0.9,1.1,1.5c0.1,0.6,0,1.3-0.4,1.9l-10,15.9c-0.4,0.6-0.9,1-1.5,1.1c-0.6,0.1-1.3,0-1.9-0.4l-6.7-4.3
	c-0.6-0.4-1-0.9-1.1-1.5c-0.1-0.6,0-1.3,0.4-1.9l10-15.9c0.4-0.6,0.9-1,1.5-1.1L607.8,177.5z M606.2,169.4l-1.7,0.2
	c-1.1,0.3-2.2,0.7-3.2,1.5c-1,0.7-1.9,1.7-2.6,2.8l-10.6,16.7c-0.7,1.2-1.2,2.4-1.4,3.6c-0.2,1.2-0.2,2.4,0.1,3.5
	c0.3,1.1,0.7,2.2,1.5,3.2c0.7,1,1.7,1.9,2.8,2.6l9.1,5.7c1.2,0.7,2.4,1.2,3.6,1.4c1.2,0.2,2.4,0.2,3.5-0.1c1.1-0.3,2.2-0.7,3.2-1.5
	c1-0.7,1.9-1.7,2.6-2.8l10.6-16.7c0.7-1.2,1.2-2.4,1.4-3.6c0.2-1.2,0.2-2.4-0.1-3.5c-0.3-1.1-0.7-2.2-1.5-3.2
	c-0.7-1-1.7-1.9-2.8-2.6l-9.1-5.7c-1.2-0.7-2.4-1.2-3.6-1.4L606.2,169.4z M681.9,215.2l-8.4,1.8l4.9,5l9.9-0.4L681.9,215.2z
	 M633.9,185.4l-13.7,38.3l5.5,4.4l34.5-21.7l-6.6-5.3l-22.3,15l-0.2-0.1l9.9-25L633.9,185.4z M267.3,180.1l9.7,8.6l-6.8,4.1
	l-3.1-12.6L267.3,180.1z M265.6,168.7l-7.2,4.4l8.4,38.8l-24-8.3l0-20.6l-7.2,5.6l0.4,20.6l-0.2,0.2l-10.2-13l-6.5,5.1l23.7,30.4
	l6.5-5.1l-6.5-8.3l0-6.1l17.3,5.9l7.1-5.6l7-4.2l-2.1-8.2l10.7-6.5l6.3,5.6l7.7-4.7L265.6,168.7z M211.8,211.5
	c-1.2,0-2.3,0.2-3.4,0.7c-1.1,0.5-2.2,1.2-3.2,2.2l-6.3,6.2c-1,1-1.7,2-2.2,3.1c-0.5,1.1-0.7,2.3-0.8,3.4c0,1.2,0.2,2.3,0.7,3.4
	c0.5,1.1,1.2,2.2,2.2,3.2l2.9,2.9c1,1,2,1.7,3.1,2.2c1.1,0.5,2.3,0.7,3.4,0.8c1.2,0,2.3-0.2,3.4-0.7c1.1-0.5,2.2-1.2,3.2-2.2
	l5.5-5.4c0.5-0.5,1.1-0.8,1.8-0.8c0.6,0,1.2,0.3,1.7,0.8l2.3,2.4c0.5,0.5,0.8,1.1,0.8,1.8c0,0.6-0.3,1.2-0.8,1.7l-4.9,4.8
	c-0.5,0.5-1.1,0.8-1.8,0.8c-0.6,0-1.2-0.3-1.7-0.8l-1.3-1.3l-5.9,5.8l1.7,1.7c1,1,2,1.7,3.1,2.2c1.1,0.5,2.3,0.7,3.4,0.8
	c1.2,0,2.3-0.2,3.4-0.7s2.2-1.2,3.2-2.2l6.9-6.7c1-1,1.7-2,2.2-3.1s0.7-2.3,0.8-3.4c0-1.2-0.2-2.3-0.7-3.4c-0.5-1.1-1.2-2.2-2.2-3.2
	l-3-3.1c-1-1-2-1.7-3.1-2.2c-1.1-0.5-2.3-0.7-3.4-0.8c-1.2,0-2.3,0.2-3.4,0.7c-1.1,0.5-2.2,1.2-3.2,2.2l-5.5,5.4
	c-0.5,0.5-1.1,0.8-1.8,0.8c-0.6,0-1.2-0.3-1.7-0.8l-2.2-2.2c-0.5-0.5-0.8-1.1-0.8-1.8c0-0.6,0.3-1.2,0.8-1.7l4.3-4.2
	c0.5-0.5,1.1-0.8,1.8-0.8c0.6,0,1.2,0.3,1.7,0.8l1.3,1.3l5.9-5.8l-1.7-1.7c-1-1-2-1.7-3.1-2.2C214.1,211.8,213,211.5,211.8,211.5
	L211.8,211.5z M667.1,228.2l0.2,0.2l-6.1,11.5l-5.6-5.6L667.1,228.2z M671.9,218l-36.7,17.7l6,6l7.5-3.9l8.8,8.9l-4,7.5l6.4,6.4
	l17.9-36.6L671.9,218z M187.5,232.1l-18.2,22.1l5.7,4.7l6.5-7.8l24,19.8l5.3-6.4l-24-19.8l6.5-7.8L187.5,232.1z M699.9,249l-31,22.8
	l13.8,18.8l5.9-4.4l-8.9-12.2l25.1-18.4L699.9,249z M716.8,273l-32.6,20.6l4.4,7l32.6-20.6L716.8,273z M167.8,262.9l-1.7,0.2
	c-1.1,0.2-2.2,0.7-3.2,1.4c-1,0.7-1.9,1.6-2.7,2.8l-4.9,7.3c-0.8,1.2-1.3,2.3-1.5,3.5c-0.2,1.2-0.2,2.4,0,3.5
	c0.2,1.1,0.7,2.2,1.4,3.2c0.7,1,1.6,1.9,2.8,2.7l3.4,2.3c1.2,0.8,2.3,1.3,3.5,1.5c1.2,0.2,2.4,0.2,3.5,0c1.1-0.2,2.2-0.7,3.2-1.4
	c1-0.7,1.9-1.6,2.7-2.8l4.2-6.4c0.4-0.6,0.9-1,1.6-1.1c0.6-0.1,1.3,0,1.9,0.4l2.8,1.8c0.6,0.4,1,0.9,1.1,1.6c0.1,0.6,0,1.3-0.4,1.9
	l-3.8,5.7c-0.4,0.6-0.9,1-1.6,1.1c-0.6,0.1-1.3,0-1.9-0.4l-1.6-1l-4.5,6.9l2,1.3c1.2,0.8,2.3,1.3,3.5,1.5c1.2,0.2,2.4,0.2,3.5,0
	c1.1-0.2,2.2-0.7,3.2-1.4c1-0.7,1.9-1.6,2.7-2.8l5.3-8c0.8-1.2,1.3-2.3,1.5-3.5s0.2-2.4,0-3.5c-0.2-1.1-0.7-2.2-1.4-3.2
	s-1.6-1.9-2.8-2.7l-3.6-2.4c-1.2-0.8-2.3-1.3-3.5-1.5c-1.2-0.2-2.4-0.2-3.5,0c-1.1,0.2-2.2,0.7-3.2,1.4c-1,0.7-1.9,1.6-2.7,2.8
	l-4.2,6.4c-0.4,0.6-0.9,1-1.6,1.1c-0.6,0.1-1.3,0-1.9-0.4l-2.6-1.7c-0.6-0.4-1-0.9-1.1-1.6c-0.1-0.6,0-1.3,0.4-1.9l3.3-5
	c0.4-0.6,0.9-1,1.6-1.1c0.6-0.1,1.3,0,1.9,0.4l1.6,1l4.5-6.9l-2-1.3c-1.2-0.8-2.3-1.3-3.5-1.5L167.8,262.9z M136.9,287.5l-3.4,6.7
	l1.7,3.5l-3.8,0.7l-3.4,6.7l8.8-1.3l4.2-8.2L136.9,287.5z M721.4,290.5c-1.2,0.1-2.4,0.5-3.7,1.1l-17.6,9.1
	c-1.2,0.6-2.3,1.4-3.1,2.4c-0.8,0.9-1.4,2-1.7,3.1c-0.4,1.1-0.5,2.3-0.4,3.5c0.1,1.2,0.5,2.4,1.1,3.7l4.4,8.5
	c0.6,1.2,1.4,2.3,2.4,3.1c0.9,0.8,2,1.4,3.1,1.7c1.1,0.4,2.3,0.5,3.5,0.4c1.2-0.1,2.4-0.5,3.7-1.1l9.7-5l-7-13.4l-6.5,3.4l3.2,6.1
	l-2.7,1.4c-0.7,0.3-1.3,0.4-1.9,0.2c-0.6-0.2-1.1-0.6-1.4-1.3l-3.2-6.1c-0.3-0.7-0.4-1.3-0.2-1.9c0.2-0.6,0.6-1.1,1.3-1.4l16.7-8.7
	c0.7-0.3,1.3-0.4,1.9-0.2c0.6,0.2,1.1,0.6,1.4,1.3l3.2,6.1c0.3,0.7,0.4,1.3,0.2,1.9c-0.2,0.6-0.6,1.1-1.3,1.4l-1.7,0.9l3.8,7.3
	l2.1-1.1c1.2-0.6,2.3-1.4,3.1-2.4c0.8-0.9,1.4-2,1.7-3.1c0.4-1.1,0.5-2.3,0.4-3.5c-0.1-1.2-0.5-2.4-1.1-3.7l-4.4-8.5
	c-0.6-1.2-1.4-2.3-2.4-3.1c-0.9-0.8-2-1.4-3.1-1.7l-1.7-0.4L721.4,290.5z M145.9,289.8l-11.2,21.8l34.2,17.6l11.4-22.3l-6.6-3.4
	l-7.7,14.9l-7.4-3.8l6.9-13.5l-6.6-3.4l-6.9,13.5l-7.2-3.7l7.4-14.4L145.9,289.8z M738,338.4l0.1,0.2l-10.3,8l-2.8-7.4L738,338.4z
	 M746.6,331.1l-40.7,1.1l3,7.9l8.4-0.5l4.4,11.7l-6.7,5.2l3.2,8.4l31.4-26L746.6,331.1z M130.3,320.9l-2.7,7.5l17.3,16.4l-0.1,0.2
	l-23.7,1.3l-2.9,8l36.2,13.2l2.8-7.7l-19.7-7.2l0.1-0.3l22.8-1.4l0.1-0.3l-16.6-15.7l0.1-0.3l19.7,7.2l2.8-7.7L130.3,320.9z
	 M123.3,407.8c-19.3,0-35,15.7-35,35c0,19.3,15.7,35,35,35s35-15.7,35-35C158.3,423.5,142.7,407.8,123.3,407.8L123.3,407.8z
	 M748.2,408.3c-19.3,0-35,15.7-35,35c0,19.3,15.7,35,35,35c19.3,0,35-15.7,35-35C783.2,424,767.5,408.3,748.2,408.3L748.2,408.3z
	 M720.1,537.7l-13.6,34.9l9,3.5l4.9-12.4l38,14.8l3.9-10.1l-38-14.8l4.9-12.4L720.1,537.7z M151.4,532.4l-47.3,17.5l3.7,10.1
	l19.2-7.1l5.9,15.9l-19.2,7.1l3.7,10.1l47.3-17.5l-3.7-10.1l-19,7l-5.9-15.9l19-7L151.4,532.4z M703.8,578.1l-5.4,9.4l32.5,18.7
	c0.8,0.5,1.4,1.1,1.6,1.9c0.2,0.8,0.1,1.6-0.4,2.5l-5.2,9c-0.5,0.8-1.1,1.4-1.9,1.6c-0.8,0.2-1.6,0.1-2.5-0.4L690,602.1l-5.4,9.4
	l33.1,19c1.6,0.9,3.2,1.5,4.8,1.7c1.6,0.2,3.1,0.1,4.6-0.3c1.5-0.4,2.8-1.1,4.1-2.1c1.3-1,2.3-2.3,3.3-3.9l7-12.2
	c0.9-1.6,1.5-3.2,1.7-4.8c0.2-1.6,0.1-3.1-0.3-4.6s-1.1-2.8-2.1-4.1c-1-1.3-2.3-2.3-3.9-3.3L703.8,578.1z M165.7,591.2l5.6,10.1
	c0.5,0.8,0.6,1.7,0.4,2.5c-0.2,0.8-0.8,1.5-1.6,1.9l-5.8,3.2c-0.8,0.5-1.7,0.6-2.5,0.4c-0.8-0.2-1.5-0.8-1.9-1.6l-5.6-10.1
	L165.7,591.2z M168.9,577.1l-44,24.5l5.3,9.4l15.7-8.8l2.7,4.8L137.4,624l5.9,10.6l11.5-17.5c1.9,1.8,4.1,2.9,6.6,3.2
	c2.5,0.3,5-0.3,7.6-1.7l6.9-3.9c1.6-0.9,2.9-2,3.9-3.2s1.7-2.6,2.1-4.1c0.4-1.5,0.5-3,0.3-4.6c-0.2-1.6-0.7-3.2-1.6-4.8L168.9,577.1
	z M436.1,206.7c-129.8,0-235,105.2-235,235c0,129.8,105.2,235,235,235c129.8,0,235-105.2,235-235S565.9,206.7,436.1,206.7
	L436.1,206.7z M191.3,638.3l0.2,0.2l-9.7,14l-6.4-8.2L191.3,638.3z M199.1,625.8l-50.4,17.3l6.8,8.7l10.3-4l10.1,12.9l-6.3,9.1
	l7.3,9.3l29-44.7L199.1,625.8z M679.4,619l-6.8,8.4l23,18.8l-0.2,0.2l-33.6-5.9l-6.8,8.4l39.1,31.9l6.8-8.4l-23-18.8l0.2-0.2
	l33.6,5.9l6.8-8.4L679.4,619z M267.9,677.3l-10.5,4l7.3,5.5l12.7-2.3L267.9,677.3z M646.9,656.6l-7.8,7.5l35,36.3l7.8-7.5
	L646.9,656.6z M219.7,655.7c-1.5,0-3,0.4-4.5,1.1c-1.5,0.7-2.8,1.7-4.1,3l-17.8,18.8c-1.3,1.3-2.2,2.7-2.8,4.2
	c-0.6,1.5-0.9,3-0.8,4.5c0,1.5,0.4,3,1.1,4.5c0.7,1.5,1.7,2.8,3,4.1l9.1,8.7c1.3,1.3,2.7,2.2,4.2,2.8c1.5,0.6,3,0.9,4.5,0.8
	c1.5,0,3-0.4,4.5-1.1c1.5-0.7,2.8-1.7,4.1-3l2.1-2.2l-7.8-7.4l-1.7,1.8c-0.7,0.7-1.4,1.1-2.3,1.1c-0.8,0-1.6-0.3-2.3-1l-6.5-6.2
	c-0.7-0.7-1.1-1.4-1.1-2.3c0-0.8,0.3-1.6,1-2.3l16.9-17.9c0.7-0.7,1.4-1.1,2.3-1.1c0.8,0,1.6,0.3,2.3,1l6.5,6.2
	c0.7,0.7,1.1,1.4,1.1,2.3c0,0.8-0.3,1.6-1,2.3l-1.7,1.8l7.8,7.4l2.1-2.2c1.3-1.3,2.2-2.7,2.8-4.2s0.9-3,0.8-4.5c0-1.5-0.4-3-1.1-4.5
	c-0.7-1.5-1.7-2.8-3-4.1l-9.1-8.7c-1.3-1.3-2.7-2.2-4.2-2.8C222.7,656,221.2,655.7,219.7,655.7z M254.6,682.2l-30.2,40.3l8.6,6.5
	l30.2-40.3L254.6,682.2z M631.8,671.8l-8.4,6.2l7,30.4l-0.2,0.2l-26.9-15.7l-9,6.6l29.9,40.6l8.7-6.4l-16.3-22.1l0.3-0.2l25.9,15
	l0.3-0.3l-6.7-29.1l0.3-0.2l16.3,22.1l8.7-6.4L631.8,671.8z M296.5,720.5l12.3,5.9c0.9,0.4,1.4,1,1.7,1.8c0.3,0.8,0.2,1.6-0.2,2.5
	L299.7,753c-0.4,0.9-1,1.4-1.8,1.7c-0.8,0.3-1.6,0.2-2.5-0.2l-12.3-5.9L296.5,720.5z M291,707.1l-21.9,45.4l23.7,11.4
	c1.6,0.8,3.3,1.2,4.9,1.3c1.6,0.1,3.1-0.1,4.6-0.6s2.8-1.3,3.9-2.4c1.2-1.1,2.2-2.4,3-4.1l11.3-23.3c0.8-1.6,1.2-3.3,1.3-4.9
	c0.1-1.6-0.1-3.1-0.6-4.6c-0.5-1.4-1.3-2.8-2.4-3.9c-1.1-1.2-2.4-2.2-4.1-3L291,707.1z M559.7,728.3l0.6,0.2
	c0.8,0.3,1.4,0.9,1.7,1.8l9.5,22.7c0.4,0.9,0.4,1.7,0.1,2.5c-0.3,0.8-0.9,1.4-1.8,1.7l-7,2.9c-0.9,0.4-1.7,0.4-2.5,0.1
	c-0.8-0.3-1.4-0.9-1.7-1.8l-9.5-22.7c-0.4-0.9-0.4-1.7-0.1-2.5c0.3-0.8,0.9-1.4,1.8-1.7l7-2.9C558.8,728.2,558.2,728.4,559.7,728.3z
	 M560.7,717.9c-1.6,0-3.2,0.4-4.9,1.1l-10.3,4.3c-1.7,0.7-3.1,1.6-4.2,2.7c-1.1,1.1-2,2.4-2.6,3.8c-0.6,1.4-0.9,2.9-0.8,4.5
	c0,1.6,0.4,3.2,1.1,4.9l10,23.9c0.7,1.7,1.6,3.1,2.7,4.2c1.1,1.1,2.4,2,3.8,2.6c1.4,0.6,2.9,0.9,4.5,0.8s3.2-0.4,4.9-1.1l10.3-4.3
	c1.7-0.7,3.1-1.6,4.2-2.7c1.1-1.1,2-2.4,2.6-3.8c0.6-1.4,0.9-2.9,0.8-4.5c0-1.6-0.4-3.2-1.1-4.9l-10-23.9c-0.7-1.7-1.6-3.1-2.7-4.2
	c-1.1-1.1-2.4-2-3.8-2.6C563.8,718.1,562.3,717.9,560.7,717.9z M344.3,740.3l0.7,0.1l10,3c0.9,0.3,1.6,0.8,2,1.5
	c0.4,0.7,0.5,1.6,0.2,2.5l-7,23.6c-0.3,0.9-0.8,1.6-1.5,2c-0.7,0.4-1.6,0.5-2.5,0.2l-10-3c-0.9-0.3-1.6-0.8-2-1.5
	c-0.4-0.7-0.5-1.6-0.2-2.5l7-23.6c0.3-0.9,0.8-1.6,1.5-2C343.4,740.2,342.8,740.4,344.3,740.3z M342.1,730l-1.2,0.1
	c-1.6,0.2-3.1,0.6-4.4,1.3c-1.3,0.7-2.5,1.7-3.5,3c-1,1.3-1.8,2.8-2.3,4.5l-7.4,24.9c-0.5,1.7-0.7,3.4-0.5,5s0.6,3.1,1.3,4.4
	c0.7,1.3,1.7,2.5,3,3.5c1.3,1,2.8,1.8,4.5,2.3l13.5,4c1.7,0.5,3.4,0.7,5,0.5c1.6-0.2,3.1-0.6,4.4-1.3c1.3-0.7,2.5-1.7,3.5-3
	c1-1.3,1.8-2.8,2.3-4.5l7.4-24.9c0.5-1.7,0.7-3.4,0.5-5c-0.2-1.6-0.6-3.1-1.3-4.4c-0.7-1.3-1.7-2.5-3-3.5c-1.3-1-2.8-1.8-4.5-2.3
	l-13.5-4C343.8,730.1,345.1,730.4,342.1,730z M519.5,761.1c1.5,0.2,0.9,0,1.8,0.4c0.7,0.4,1.2,1.1,1.4,2.1l1.5,6.1
	c0.2,0.9,0.1,1.8-0.3,2.5c-0.4,0.7-1.1,1.2-2.1,1.4l-6.6,1.7c-0.9,0.2-1.8,0.1-2.5-0.3c-0.7-0.4-1.2-1.1-1.4-2.1l-1.1-4.4
	c-0.4-1.6-0.3-2.9,0.3-3.9c0.6-1,1.5-1.7,2.7-2l5.6-1.4L519.5,761.1z M517.6,733.3c-3,0.2-1.7,0-3.8,0.4l-10.1,2.5
	c-1.8,0.4-3.3,1.1-4.6,2.1c-1.3,0.9-2.3,2.1-3.1,3.4c-0.8,1.3-1.3,2.8-1.5,4.3c-0.2,1.6-0.1,3.3,0.3,5l6.3,25.1
	c0.4,1.8,1.1,3.3,2.1,4.6c0.9,1.3,2.1,2.3,3.4,3.1c1.3,0.8,2.8,1.3,4.3,1.5c1.6,0.2,3.3,0.1,5-0.3l10.1-2.5c1.8-0.4,3.3-1.1,4.6-2.1
	c1.3-0.9,2.3-2.1,3.1-3.4c0.8-1.3,1.3-2.8,1.5-4.3c0.2-1.6,0.1-3.3-0.3-5l-1.8-7.4c-0.5-2.1-1.2-3.9-2.1-5.3c-0.8-1.4-1.8-2.4-3-3
	c-1.2-0.7-2.5-1-3.9-1.1c-1.5-0.1-3.1,0.1-4.9,0.6l-3.1,0.8c-1.8,0.5-3.4,1.1-4.7,2c-1.3,0.9-2.5,2.1-3.4,3.6l-0.3,0.1l-2.3-9
	c-0.2-0.9-0.1-1.8,0.3-2.5c0.4-0.7,1.1-1.2,2.1-1.4l6.6-1.7c0.9-0.2,1.8-0.1,2.5,0.3c0.7,0.4,1.2,1.1,1.4,2.1l0.4,1.7l10.5-2.6
	l-0.6-2.3c-0.4-1.8-1.1-3.3-2.1-4.6c-0.9-1.3-2.1-2.3-3.4-3.1c-1.3-0.8-2.8-1.3-4.3-1.5L517.6,733.3z M389.7,750.9l11.1,1.4
	c1,0.1,1.7,0.5,2.2,1.2c0.5,0.7,0.7,1.5,0.6,2.4l-0.5,4.1c-0.1,1-0.5,1.7-1.2,2.2c-0.7,0.5-1.5,0.7-2.4,0.6l-11.1-1.4L389.7,750.9z
	 M387.1,770.9l12.1,1.6c1,0.1,1.7,0.5,2.2,1.2c0.5,0.7,0.7,1.5,0.6,2.4l-0.6,4.4c-0.1,1-0.5,1.7-1.2,2.2c-0.7,0.5-1.5,0.7-2.4,0.6
	l-12.1-1.6L387.1,770.9z M380.3,739.9l-6.5,50l24.6,3.2c1.8,0.2,3.5,0.2,5-0.2c1.6-0.4,2.9-1.1,4.1-2c1.2-0.9,2.2-2.1,3-3.5
	c0.8-1.4,1.3-3,1.5-4.8l0.4-2.8c0.3-2.3,0.1-4.5-0.7-6.4c-0.7-1.9-1.9-3.5-3.5-4.7l0-0.3c1.5-0.9,2.8-2.1,3.8-3.7
	c1-1.5,1.6-3.4,1.9-5.5l0.3-2.5c0.2-1.8,0.2-3.5-0.2-5c-0.4-1.6-1.1-2.9-2-4.1s-2.1-2.2-3.5-3c-1.4-0.8-3-1.3-4.8-1.5L380.3,739.9z
	 M441.1,757.7l5.6,16.1l-10.4,0.4l4.4-16.4L441.1,757.7z M446.3,743.6l-11,0.4l-15.5,51l11.1-0.4l2.9-10.7l16.3-0.6l3.7,10.5
	l11.8-0.4L446.3,743.6z M434.4,52.9c215.4,0,390,174.6,390,390s-174.6,390-390,390s-390-174.6-390-390S219,52.9,434.4,52.9
	L434.4,52.9z"/>
<ellipse transform="matrix(0.1602 -0.9871 0.9871 0.1602 -333.5489 493.7792)" class="st0" cx="123.4" cy="442.9" rx="27.5" ry="27.5"/>
<circle class="st0" cx="748.3" cy="443.4" r="27.5"/>
<path class="st1" d="M579.2,324.6l-28.7,23.3l31.6,40l29.9-23.5c0,0,2.2-2.5,3.1-5.1c0.9-2.6,1.4-3.9,1.5-7c0.1-3.1,0.2-4.7-2.2-8.2
	c-2.4-3.5-9.3-13.2-13.1-16.2c-3.9-3-6.6-4.2-9.1-4.6c-2.5-0.4-4.8-0.9-7.9-0.5C581.3,323.3,579.3,324.8,579.2,324.6z"/>
<path class="st2" d="M579.2,324.6l-28.7,23.3l31.6,40l29.9-23.5c0,0,2.2-2.5,3.1-5.1c0.9-2.6,1.4-3.9,1.5-7c0.1-3.1,0.2-4.7-2.2-8.2
	c-2.4-3.5-9.3-13.2-13.1-16.2c-3.9-3-6.6-4.2-9.1-4.6c-2.5-0.4-4.8-0.9-7.9-0.5C581.3,323.3,579.3,324.8,579.2,324.6z"/>
<path class="st1" d="M458.5,270.7l-0.3,32.5l-39.8,1.8l-0.3-2l0.3-32.6h-24.2c0,0-4.6-0.5-7.2-3.8c-2.6-3.3-3.7-5.5-3.6-8.8
	c0.1-3.4,0.1-5.9,2.1-8.6c2-2.7,4.7-5.6,9.8-5.7c5.1-0.1,82.4-0.1,86-0.1c3.6,0,6.4,2,8.2,3.6c1.7,1.6,3.4,4.2,3.4,9
	c0,4.8-1.3,9.3-3.2,10.9c-1.9,1.6-4.8,3.4-8.6,3.6C477.2,270.7,458.6,270.8,458.5,270.7z"/>
<path class="st2" d="M458.5,270.7l-0.3,32.5l-39.8,1.8l-0.3-2l0.3-32.6h-24.2c0,0-4.6-0.5-7.2-3.8c-2.6-3.3-3.7-5.5-3.6-8.8
	c0.1-3.4,0.1-5.9,2.1-8.6c2-2.7,4.7-5.6,9.8-5.7c5.1-0.1,82.4-0.1,86-0.1c3.6,0,6.4,2,8.2,3.6c1.7,1.6,3.4,4.2,3.4,9
	c0,4.8-1.3,9.3-3.2,10.9c-1.9,1.6-4.8,3.4-8.6,3.6C477.2,270.7,458.6,270.8,458.5,270.7z"/>
<ellipse class="st3" cx="437" cy="461.9" rx="169.2" ry="163.3"/>
<ellipse class="st4" cx="438.4" cy="462.8" rx="132.6" ry="127.9"/>
<path class="st3" d="M430.6,387.2l-0.1,79.2c0,0,0.5,7.1,7.4,7.1s8.3-7.8,8.3-7.8v-78.5c0,0-0.8-6.8-7.6-6.8
	C431.8,380.3,430.6,387.1,430.6,387.2z"/>
<path class="st5" d="M430.9,342.7l-0.1,25.9c0,0,0.4,2.3,6.1,2.3c5.7,0,6.9-2.5,6.9-2.5v-25.7c0,0-0.6-2.2-6.3-2.2
	C431.9,340.4,430.9,342.7,430.9,342.7z"/>
<path class="st5" d="M431.6,556l-0.1,25.9c0,0,0.4,2.3,6.1,2.3c5.7,0,6.9-2.5,6.9-2.5V556c0,0-0.6-2.2-6.3-2.2
	C432.6,553.8,431.6,556,431.6,556z"/>
<path class="st5" d="M314.4,468.3l26.8,0.1c0,0,2.4-0.4,2.4-5.9c0-5.5-2.6-6.6-2.6-6.6h-26.6c0,0-2.3,0.6-2.3,6.1
	C312.1,467.4,314.4,468.3,314.4,468.3z"/>
<path class="st5" d="M534.2,468.4l26.8,0.1c0,0,2.4-0.4,2.4-5.9c0-5.5-2.6-6.6-2.6-6.6h-26.6c0,0-2.3,0.6-2.3,6.1
	C531.8,467.5,534.2,468.4,534.2,468.4z"/>
<path class="st5" d="M346.1,382.4l18.9,18.4c0,0,2,1.3,6.1-2.5c4-3.9,3-6.5,3-6.5l-18.8-18.2c0,0-2.1-1.1-6.1,2.7
	S346.1,382.4,346.1,382.4z"/>
<path class="st5" d="M502.1,533l18.9,18.4c0,0,2,1.3,6.1-2.5c4-3.9,3-6.5,3-6.5l-18.8-18.2c0,0-2.1-1.1-6.1,2.7S502.1,533,502.1,533
	z"/>
<path class="st5" d="M355,551.3l19-18.2c0,0,1.4-1.9-2.6-5.8c-4-3.9-6.7-2.9-6.7-2.9l-18.8,18.2c0,0-1.2,2,2.8,5.9
	C352.7,552.2,355,551.3,355,551.3z"/>
<path class="st5" d="M510.3,399.9l19-18.2c0,0,1.4-1.9-2.6-5.8c-4-3.9-6.7-2.9-6.7-2.9l-18.8,18.2c0,0-1.2,2,2.8,5.9
	C507.9,400.8,510.3,399.9,510.3,399.9z"/>
</svg>
