<?xml version="1.0" encoding="utf-8"?>
<!-- Generator: Adobe Illustrator 22.0.0, SVG Export Plug-In . SVG Version: 6.00 Build 0)  -->
<svg version="1.1" id="Layer_1" xmlns="http://www.w3.org/2000/svg" xmlns:xlink="http://www.w3.org/1999/xlink" x="0px" y="0px"
	 viewBox="0 0 900 900" style="enable-background:new 0 0 900 900;" xml:space="preserve">
<style type="text/css">
	.st0{fill:#07C632;}
	.st1{fill:#12284B;}
	.st2{fill:#FFEC02;}
	.st3{fill:#FFFFFF;}
	.st4{fill:none;stroke:#000000;stroke-width:7;}
</style>
<path class="st0" d="M459.7,130.4l8.2,0.7c0.7,0.1,1.3,0.3,1.7,0.8c0.4,0.5,0.6,1.1,0.5,1.8l-0.5,5.6c-0.1,0.7-0.3,1.3-0.8,1.7
	c-0.5,0.4-1.1,0.6-1.8,0.5l-8.2-0.7L459.7,130.4z M452,122.4l-3.1,38.4l8.2,0.7l1.1-13.2l9.6,0.8c1.4,0.1,2.7,0,3.8-0.4
	c1.2-0.4,2.2-0.9,3.1-1.7c0.9-0.8,1.6-1.7,2.2-2.8c0.5-1.1,0.9-2.3,1-3.7l0.5-6.6c0.1-1.4,0-2.7-0.4-3.8c-0.4-1.2-0.9-2.2-1.7-3.1
	c-0.8-0.9-1.7-1.6-2.8-2.2c-1.1-0.5-2.3-0.9-3.7-1L452,122.4z M444.8,121.5l-7.9,0.4l-4.9,25.8l-0.2,0l-7.3-25.2l-8.5,0.4l-4.9,25.8
	l-0.2,0l-7.3-25.2L395,124l12.1,38l8.5-0.4l4.9-25.8l0.2,0l7.3,25.2l8.5-0.4L444.8,121.5z M485.2,125.8l-5.9,38l8.2,1.3l5.9-38
	L485.2,125.8z M378.8,134.7c1.1,0.2,0.7,0,1.4,0.4c0.5,0.4,0.9,0.9,1,1.6l3.5,18.5c0.1,0.7,0,1.3-0.3,1.9c-0.4,0.5-0.9,0.9-1.6,1
	l-7.8,1.5c-0.7,0.1-1.3,0-1.9-0.3c-0.5-0.4-0.9-0.9-1-1.6l-3.5-18.5c-0.1-0.7,0-1.3,0.3-1.9c0.4-0.5,0.9-0.9,1.6-1l7.8-1.5
	L378.8,134.7z M379.7,127.1c-0.5,0-1,0.1-1.4,0.2l-10.5,2c-1.4,0.3-2.6,0.7-3.6,1.4c-1,0.7-1.9,1.5-2.5,2.4c-0.7,1-1.1,2-1.3,3.3
	c-0.2,1.2-0.2,2.5,0,3.9l3.7,19.4c0.3,1.4,0.7,2.6,1.4,3.6c0.7,1,1.5,1.9,2.4,2.5c1,0.7,2,1.1,3.3,1.3c1.2,0.2,2.5,0.2,3.9,0l10.5-2
	c1.4-0.3,2.6-0.7,3.6-1.4c1-0.7,1.9-1.5,2.5-2.4c0.7-1,1.1-2,1.3-3.3c0.2-1.2,0.2-2.5,0-3.9l-3.7-19.4c-0.3-1.4-0.7-2.6-1.4-3.6
	c-0.7-1-1.5-1.9-2.4-2.5c-1-0.7-2-1.1-3.3-1.3l-0.9-0.1C380.2,127.1,380.7,127.1,379.7,127.1L379.7,127.1z M498.8,127.7l-1.6,7.2
	l9.9,2.3l-7,30.3l8,1.8l7-30.3l9.9,2.3l1.6-7.2L498.8,127.7z M265.7,158l-7.8,4.7l-0.2,8.6l6-3.6L265.7,158z M337,137.2l-7.9,2.4
	l11.1,36.9l22.4-6.7l-2.1-7.1L346,167L337,137.2z M538.3,138.5c-1.2,0.1-2.4,0.4-3.4,0.9c-1,0.5-2,1.2-2.8,2.2
	c-0.8,0.9-1.4,2-1.9,3.4l-6.4,18.7c-0.5,1.3-0.6,2.6-0.6,3.8c0.1,1.2,0.4,2.4,0.9,3.4c0.5,1,1.2,2,2.2,2.8c0.9,0.8,2,1.4,3.4,1.9
	l9.1,3.1c1.3,0.5,2.6,0.6,3.8,0.6c1.2-0.1,2.4-0.4,3.4-0.9c1-0.5,2-1.2,2.8-2.2s1.4-2,1.9-3.4l0.8-2.2l-7.8-2.7l-0.6,1.8
	c-0.2,0.7-0.6,1.2-1.2,1.5c-0.6,0.3-1.2,0.3-1.9,0.1l-6.5-2.2c-0.7-0.2-1.2-0.6-1.5-1.2c-0.3-0.6-0.3-1.2-0.1-1.9l6.1-17.8
	c0.2-0.7,0.6-1.2,1.2-1.5s1.2-0.3,1.9-0.1l6.5,2.2c0.7,0.2,1.2,0.6,1.5,1.2c0.3,0.6,0.3,1.2,0.1,1.9l-0.6,1.8l7.8,2.7l0.8-2.2
	c0.5-1.3,0.6-2.6,0.6-3.8c-0.1-1.2-0.4-2.4-0.9-3.4c-0.5-1-1.2-2-2.2-2.8c-0.9-0.8-2-1.4-3.4-1.9l-9.1-3.1
	C540.8,138.6,539.5,138.4,538.3,138.5L538.3,138.5z M315.6,145.2c-1.2,0-2.5,0.3-3.8,0.8l-8.1,3.4c-1.3,0.5-2.4,1.2-3.2,2.1
	c-0.9,0.9-1.5,1.8-2,2.9c-0.4,1.1-0.7,2.2-0.7,3.5c0,1.2,0.3,2.5,0.8,3.8l1.6,3.8c0.5,1.3,1.2,2.4,2.1,3.2c0.9,0.9,1.8,1.5,2.9,2
	c1.1,0.4,2.2,0.7,3.5,0.7c1.2,0,2.5-0.3,3.8-0.8l7.1-2.9c0.7-0.3,1.3-0.3,1.9,0c0.6,0.2,1,0.7,1.3,1.4l1.3,3.1
	c0.3,0.7,0.3,1.3,0,1.9c-0.2,0.6-0.7,1-1.4,1.3l-6.4,2.6c-0.7,0.3-1.3,0.3-1.9,0c-0.6-0.2-1-0.7-1.3-1.4l-0.7-1.7l-7.6,3.1l0.9,2.2
	c0.5,1.3,1.2,2.4,2.1,3.2c0.9,0.9,1.8,1.5,2.9,2c1.1,0.4,2.2,0.7,3.5,0.7c1.2,0,2.5-0.3,3.8-0.8l8.9-3.7c1.3-0.5,2.4-1.2,3.2-2.1
	c0.9-0.9,1.5-1.8,2-2.9c0.4-1.1,0.7-2.2,0.7-3.5c0-1.2-0.3-2.5-0.8-3.8l-1.7-4c-0.5-1.3-1.2-2.4-2.1-3.2c-0.9-0.9-1.8-1.5-2.9-2
	c-1.1-0.4-2.2-0.7-3.5-0.7c-1.2,0-2.5,0.3-3.8,0.8l-7.1,2.9c-0.7,0.3-1.3,0.3-1.9,0c-0.6-0.2-1-0.7-1.3-1.4l-1.2-2.9
	c-0.3-0.7-0.3-1.3,0-1.9c0.2-0.6,0.7-1,1.4-1.3l5.6-2.3c0.7-0.3,1.3-0.3,1.9,0c0.6,0.2,1,0.7,1.3,1.4l0.7,1.7l7.6-3.1l-0.9-2.2
	c-0.5-1.3-1.2-2.4-2.1-3.2c-0.9-0.9-1.8-1.5-2.9-2C318,145.4,316.9,145.2,315.6,145.2L315.6,145.2z M568.1,148.5l-16.5,34.8l7.5,3.5
	l6.7-14.2l11.7,5.5l-6.7,14.2l7.5,3.5l16.5-34.8l-7.5-3.5l-6.6,14l-11.7-5.5l6.6-14L568.1,148.5z M607.8,177.5l0.9,0.4l6.7,4.3
	c0.6,0.4,1,0.9,1.1,1.5c0.1,0.6,0,1.3-0.4,1.9l-10,15.9c-0.4,0.6-0.9,1-1.5,1.1c-0.6,0.1-1.3,0-1.9-0.4l-6.7-4.3
	c-0.6-0.4-1-0.9-1.1-1.5c-0.1-0.6,0-1.3,0.4-1.9l10-15.9c0.4-0.6,0.9-1,1.5-1.1L607.8,177.5z M606.2,169.4l-1.7,0.2
	c-1.1,0.3-2.2,0.7-3.2,1.5c-1,0.7-1.9,1.7-2.6,2.8l-10.6,16.7c-0.7,1.2-1.2,2.4-1.4,3.6c-0.2,1.2-0.2,2.4,0.1,3.5
	c0.3,1.1,0.7,2.2,1.5,3.2c0.7,1,1.7,1.9,2.8,2.6l9.1,5.7c1.2,0.7,2.4,1.2,3.6,1.4c1.2,0.2,2.4,0.2,3.5-0.1c1.1-0.3,2.2-0.7,3.2-1.5
	c1-0.7,1.9-1.7,2.6-2.8l10.6-16.7c0.7-1.2,1.2-2.4,1.4-3.6c0.2-1.2,0.2-2.4-0.1-3.5c-0.3-1.1-0.7-2.2-1.5-3.2
	c-0.7-1-1.7-1.9-2.8-2.6l-9.1-5.7c-1.2-0.7-2.4-1.2-3.6-1.4L606.2,169.4z M681.9,215.2l-8.4,1.8l4.9,5l9.9-0.4L681.9,215.2z
	 M633.9,185.4l-13.7,38.3l5.5,4.4l34.5-21.7l-6.6-5.3l-22.3,15l-0.2-0.1l9.9-25L633.9,185.4z M267.3,180.1l9.7,8.6l-6.8,4.1
	l-3.1-12.6L267.3,180.1z M265.6,168.7l-7.2,4.4l8.4,38.8l-24-8.3l0-20.6l-7.2,5.6l0.4,20.6l-0.2,0.2l-10.2-13l-6.5,5.1l23.7,30.4
	l6.5-5.1l-6.5-8.3l0-6.1l17.3,5.9l7.1-5.6l7-4.2l-2.1-8.2l10.7-6.5l6.3,5.6l7.7-4.7L265.6,168.7z M211.8,211.5
	c-1.2,0-2.3,0.2-3.4,0.7c-1.1,0.5-2.2,1.2-3.2,2.2l-6.3,6.2c-1,1-1.7,2-2.2,3.1c-0.5,1.1-0.7,2.3-0.8,3.4c0,1.2,0.2,2.3,0.7,3.4
	c0.5,1.1,1.2,2.2,2.2,3.2l2.9,2.9c1,1,2,1.7,3.1,2.2c1.1,0.5,2.3,0.7,3.4,0.8c1.2,0,2.3-0.2,3.4-0.7c1.1-0.5,2.2-1.2,3.2-2.2
	l5.5-5.4c0.5-0.5,1.1-0.8,1.8-0.8c0.6,0,1.2,0.3,1.7,0.8l2.3,2.4c0.5,0.5,0.8,1.1,0.8,1.8c0,0.6-0.3,1.2-0.8,1.7l-4.9,4.8
	c-0.5,0.5-1.1,0.8-1.8,0.8c-0.6,0-1.2-0.3-1.7-0.8l-1.3-1.3l-5.9,5.8l1.7,1.7c1,1,2,1.7,3.1,2.2c1.1,0.5,2.3,0.7,3.4,0.8
	c1.2,0,2.3-0.2,3.4-0.7s2.2-1.2,3.2-2.2l6.9-6.7c1-1,1.7-2,2.2-3.1s0.7-2.3,0.8-3.4c0-1.2-0.2-2.3-0.7-3.4c-0.5-1.1-1.2-2.2-2.2-3.2
	l-3-3.1c-1-1-2-1.7-3.1-2.2c-1.1-0.5-2.3-0.7-3.4-0.8c-1.2,0-2.3,0.2-3.4,0.7c-1.1,0.5-2.2,1.2-3.2,2.2l-5.5,5.4
	c-0.5,0.5-1.1,0.8-1.8,0.8c-0.6,0-1.2-0.3-1.7-0.8l-2.2-2.2c-0.5-0.5-0.8-1.1-0.8-1.8c0-0.6,0.3-1.2,0.8-1.7l4.3-4.2
	c0.5-0.5,1.1-0.8,1.8-0.8c0.6,0,1.2,0.3,1.7,0.8l1.3,1.3l5.9-5.8l-1.7-1.7c-1-1-2-1.7-3.1-2.2C214.1,211.8,213,211.5,211.8,211.5
	L211.8,211.5z M667.1,228.2l0.2,0.2l-6.1,11.5l-5.6-5.6L667.1,228.2z M671.9,218l-36.7,17.7l6,6l7.5-3.9l8.8,8.9l-4,7.5l6.4,6.4
	l17.9-36.6L671.9,218z M187.5,232.1l-18.2,22.1l5.7,4.7l6.5-7.8l24,19.8l5.3-6.4l-24-19.8l6.5-7.8L187.5,232.1z M699.9,249l-31,22.8
	l13.8,18.8l5.9-4.4l-8.9-12.2l25.1-18.4L699.9,249z M716.8,273l-32.6,20.6l4.4,7l32.6-20.6L716.8,273z M167.8,262.9l-1.7,0.2
	c-1.1,0.2-2.2,0.7-3.2,1.4c-1,0.7-1.9,1.6-2.7,2.8l-4.9,7.3c-0.8,1.2-1.3,2.3-1.5,3.5c-0.2,1.2-0.2,2.4,0,3.5
	c0.2,1.1,0.7,2.2,1.4,3.2c0.7,1,1.6,1.9,2.8,2.7l3.4,2.3c1.2,0.8,2.3,1.3,3.5,1.5c1.2,0.2,2.4,0.2,3.5,0c1.1-0.2,2.2-0.7,3.2-1.4
	c1-0.7,1.9-1.6,2.7-2.8l4.2-6.4c0.4-0.6,0.9-1,1.6-1.1c0.6-0.1,1.3,0,1.9,0.4l2.8,1.8c0.6,0.4,1,0.9,1.1,1.6c0.1,0.6,0,1.3-0.4,1.9
	l-3.8,5.7c-0.4,0.6-0.9,1-1.6,1.1c-0.6,0.1-1.3,0-1.9-0.4l-1.6-1l-4.5,6.9l2,1.3c1.2,0.8,2.3,1.3,3.5,1.5c1.2,0.2,2.4,0.2,3.5,0
	c1.1-0.2,2.2-0.7,3.2-1.4c1-0.7,1.9-1.6,2.7-2.8l5.3-8c0.8-1.2,1.3-2.3,1.5-3.5s0.2-2.4,0-3.5c-0.2-1.1-0.7-2.2-1.4-3.2
	s-1.6-1.9-2.8-2.7l-3.6-2.4c-1.2-0.8-2.3-1.3-3.5-1.5c-1.2-0.2-2.4-0.2-3.5,0c-1.1,0.2-2.2,0.7-3.2,1.4c-1,0.7-1.9,1.6-2.7,2.8
	l-4.2,6.4c-0.4,0.6-0.9,1-1.6,1.1c-0.6,0.1-1.3,0-1.9-0.4l-2.6-1.7c-0.6-0.4-1-0.9-1.1-1.6c-0.1-0.6,0-1.3,0.4-1.9l3.3-5
	c0.4-0.6,0.9-1,1.6-1.1c0.6-0.1,1.3,0,1.9,0.4l1.6,1l4.5-6.9l-2-1.3c-1.2-0.8-2.3-1.3-3.5-1.5L167.8,262.9z M136.9,287.5l-3.4,6.7
	l1.7,3.5l-3.8,0.7l-3.4,6.7l8.8-1.3l4.2-8.2L136.9,287.5z M721.4,290.5c-1.2,0.1-2.4,0.5-3.7,1.1l-17.6,9.1
	c-1.2,0.6-2.3,1.4-3.1,2.4c-0.8,0.9-1.4,2-1.7,3.1c-0.4,1.1-0.5,2.3-0.4,3.5c0.1,1.2,0.5,2.4,1.1,3.7l4.4,8.5
	c0.6,1.2,1.4,2.3,2.4,3.1c0.9,0.8,2,1.4,3.1,1.7c1.1,0.4,2.3,0.5,3.5,0.4c1.2-0.1,2.4-0.5,3.7-1.1l9.7-5l-7-13.4l-6.5,3.4l3.2,6.1
	l-2.7,1.4c-0.7,0.3-1.3,0.4-1.9,0.2c-0.6-0.2-1.1-0.6-1.4-1.3l-3.2-6.1c-0.3-0.7-0.4-1.3-0.2-1.9c0.2-0.6,0.6-1.1,1.3-1.4l16.7-8.7
	c0.7-0.3,1.3-0.4,1.9-0.2c0.6,0.2,1.1,0.6,1.4,1.3l3.2,6.1c0.3,0.7,0.4,1.3,0.2,1.9c-0.2,0.6-0.6,1.1-1.3,1.4l-1.7,0.9l3.8,7.3
	l2.1-1.1c1.2-0.6,2.3-1.4,3.1-2.4c0.8-0.9,1.4-2,1.7-3.1c0.4-1.1,0.5-2.3,0.4-3.5c-0.1-1.2-0.5-2.4-1.1-3.7l-4.4-8.5
	c-0.6-1.2-1.4-2.3-2.4-3.1c-0.9-0.8-2-1.4-3.1-1.7l-1.7-0.4L721.4,290.5z M145.9,289.8l-11.2,21.8l34.2,17.6l11.4-22.3l-6.6-3.4
	l-7.7,14.9l-7.4-3.8l6.9-13.5l-6.6-3.4l-6.9,13.5l-7.2-3.7l7.4-14.4L145.9,289.8z M738,338.4l0.1,0.2l-10.3,8l-2.8-7.4L738,338.4z
	 M746.6,331.1l-40.7,1.1l3,7.9l8.4-0.5l4.4,11.7l-6.7,5.2l3.2,8.4l31.4-26L746.6,331.1z M130.3,320.9l-2.7,7.5l17.3,16.4l-0.1,0.2
	l-23.7,1.3l-2.9,8l36.2,13.2l2.8-7.7l-19.7-7.2l0.1-0.3l22.8-1.4l0.1-0.3l-16.6-15.7l0.1-0.3l19.7,7.2l2.8-7.7L130.3,320.9z
	 M123.3,407.8c-19.3,0-35,15.7-35,35c0,19.3,15.7,35,35,35s35-15.7,35-35C158.3,423.5,142.7,407.8,123.3,407.8L123.3,407.8z
	 M748.2,408.3c-19.3,0-35,15.7-35,35c0,19.3,15.7,35,35,35c19.3,0,35-15.7,35-35C783.2,424,767.5,408.3,748.2,408.3L748.2,408.3z
	 M699.7,556.7l-5.2,10.7l5.9,9.6l4-8.2L699.7,556.7z M706.5,569.8l-4.7,9.7l45.4,22l4.7-9.7L706.5,569.8z M158.1,551.6l-45.9,20.9
	l4.5,9.8l18.7-8.5l7,15.4l-18.7,8.5l4.5,9.8l45.9-20.9l-4.5-9.8l-18.4,8.4l-7-15.4l18.4-8.4L158.1,551.6z M695.1,593.4l-6,9
	l24.8,16.5l-0.2,0.2l-34-2.6l-6,9l42,27.9l6-9L697,627.9l0.2-0.2l34,2.6l6-9L695.1,593.4z M178.2,613.9l0.6,0.1
	c0.8,0.2,1.5,0.6,2.1,1.4l5.9,8.6c0.5,0.8,0.7,1.6,0.6,2.4c-0.2,0.8-0.6,1.5-1.4,2.1l-20.3,13.9c-0.8,0.5-1.6,0.7-2.4,0.6
	c-0.8-0.2-1.5-0.6-2.1-1.4l-5.9-8.6c-0.5-0.8-0.7-1.6-0.6-2.4c0.2-0.8,0.6-1.5,1.4-2.1l20.3-13.9C177.3,614,176.7,614.3,178.2,613.9
	z M178.9,603c-2.7,0.1-1.5-0.1-3.5,0.2c-1.6,0.3-3.1,1-4.6,2.1l-21.4,14.6c-1.5,1-2.7,2.2-3.6,3.5c-0.9,1.3-1.5,2.8-1.8,4.3
	c-0.3,1.5-0.3,3,0.1,4.6s1,3.1,2.1,4.6l7.9,11.6c1,1.5,2.2,2.7,3.5,3.6c1.3,0.9,2.8,1.5,4.3,1.8c1.5,0.3,3,0.3,4.6-0.1
	c1.6-0.3,3.1-1,4.6-2.1l21.4-14.6c1.5-1,2.7-2.2,3.6-3.5c0.9-1.3,1.5-2.8,1.8-4.3c0.3-1.5,0.3-3-0.1-4.6c-0.3-1.6-1-3.1-2.1-4.6
	l-7.9-11.6c-1-1.5-2.2-2.7-3.5-3.6c-1.3-0.9-2.8-1.5-4.3-1.8L178.9,603z M436.1,206.7c-129.8,0-235,105.2-235,235
	c0,129.8,105.2,235,235,235c129.8,0,235-105.2,235-235S565.9,206.7,436.1,206.7L436.1,206.7z M665.7,635.4L644,658.9l37,34.2
	l22.2-24l-7.1-6.6l-14.9,16.1l-8-7.4l13.4-14.5l-7.1-6.6l-13.4,14.5l-7.8-7.2l14.4-15.6L665.7,635.4z M210.6,640.3L175,676l7.6,7.6
	l19.4-19.4l0.3,0.3l-10.9,27.9l0.3,0.3l27.8-11l0.3,0.3l-19.4,19.4l7.6,7.6l35.6-35.7l-7.4-7.4l-29,11.5l-0.2-0.2l11.5-28.9
	L210.6,640.3z M634.5,667.9l-27.1,21.5l6,7.6l16.6-13.2l0.2,0.2l2.6,37.3l6,7.6l27.1-21.5l-6-7.6l-16.7,13.3l-0.2-0.2l-2.5-37.4
	L634.5,667.9z M254.3,681.4l-28.8,41.3l26.9,18.7l5.5-7.9l-18-12.6l6.2-8.9l16.2,11.3l5.5-7.9l-16.2-11.3l6.1-8.7l17.4,12.2l5.5-7.9
	L254.3,681.4z M597.8,695.8L570,711.6l24.9,43.8l28.5-16.2l-4.8-8.4l-19.1,10.8l-5.4-9.5l17.2-9.8l-4.8-8.4l-17.2,9.8l-5.2-9.2
	l18.5-10.5L597.8,695.8z M297.1,719.7l10.4,5c0.9,0.4,1.4,1,1.7,1.8c0.3,0.8,0.2,1.6-0.2,2.5l-2.9,6c-0.4,0.9-1,1.4-1.8,1.7
	c-0.8,0.3-1.6,0.2-2.5-0.2l-10.4-5L297.1,719.7z M291.6,706.3l-22,45.3l9.7,4.7l7.9-16.2l4.9,2.4l0.6,20.3l10.9,5.3l-0.6-20.9
	c2.6,0.4,5,0,7.2-1.2c2.2-1.2,4-3.1,5.3-5.7l3.5-7.1c0.8-1.6,1.3-3.3,1.4-4.9c0.1-1.6-0.1-3.1-0.6-4.6s-1.3-2.8-2.4-3.9
	c-1.1-1.2-2.4-2.2-4.1-3L291.6,706.3z M558,717.9l-9.8,3.5l-2.1,31.1l-0.3,0.1l-21.2-22.8l-10.5,3.7l16.8,47.5l10.2-3.6l-9.2-25.9
	l0.3-0.1l20.4,21.9l0.4-0.1l2-29.8l0.3-0.1l9.2,25.9l10.2-3.6L558,717.9z M335.7,726.7l-10.6,36.7c-0.5,1.8-0.7,3.4-0.5,5
	c0.2,1.6,0.6,3.1,1.3,4.4c0.7,1.3,1.7,2.5,3,3.5c1.3,1,2.8,1.7,4.5,2.2l13.5,3.9c1.8,0.5,3.4,0.7,5,0.5c1.6-0.2,3.1-0.6,4.4-1.3
	c1.3-0.7,2.5-1.7,3.5-3c1-1.3,1.7-2.8,2.2-4.5l10.6-36.7l-10.4-3l-10.4,36c-0.3,0.9-0.8,1.6-1.5,2c-0.7,0.4-1.6,0.5-2.5,0.2l-10-2.9
	c-0.9-0.3-1.6-0.8-2-1.5c-0.4-0.7-0.5-1.6-0.2-2.5l10.4-36L335.7,726.7z M489.9,747.9c1.4,0.3,0.9,0.1,1.8,0.6
	c0.7,0.5,1.1,1.2,1.2,2.2l3.8,24.3c0.1,0.9,0,1.8-0.5,2.4c-0.5,0.7-1.2,1.1-2.2,1.2l-10.3,1.6c-0.9,0.1-1.8,0-2.5-0.5
	c-0.7-0.5-1.1-1.2-1.2-2.2l-3.8-24.3c-0.1-0.9,0-1.8,0.5-2.5c0.5-0.7,1.2-1.1,2.2-1.2l10.3-1.6L489.9,747.9z M490.8,738l-1.3,0.1
	l-13.9,2.1c-1.8,0.3-3.4,0.8-4.8,1.6c-1.4,0.8-2.5,1.8-3.4,3.1c-0.9,1.2-1.5,2.6-1.9,4.2c-0.4,1.6-0.4,3.2-0.1,5l4,25.6
	c0.3,1.8,0.8,3.4,1.6,4.8c0.8,1.4,1.8,2.5,3.1,3.4c1.2,0.9,2.6,1.5,4.2,1.9c1.6,0.4,3.2,0.4,5,0.1l13.9-2.1c1.8-0.3,3.4-0.8,4.8-1.6
	c1.4-0.8,2.5-1.8,3.4-3.1c0.9-1.2,1.5-2.6,1.9-4.2c0.4-1.6,0.4-3.2,0.1-5l-4-25.6c-0.3-1.8-0.8-3.4-1.6-4.8
	c-0.8-1.4-1.8-2.5-3.1-3.4c-1.2-0.9-2.6-1.5-4.2-1.9C492.5,737.9,493.7,738,490.8,738z M385.8,739.9l-5.3,50.1l10.7,1.1l3.1-29.6
	l0.3,0l13.4,31.3l10.7,1.1l5.3-50.1l-10.7-1.1l-3.1,29.6l-0.3,0L396.6,741L385.8,739.9z M434.4,52.9c215.4,0,390,174.6,390,390
	s-174.6,390-390,390s-390-174.6-390-390S219,52.9,434.4,52.9L434.4,52.9z"/>
<ellipse transform="matrix(0.1602 -0.9871 0.9871 0.1602 -333.5489 493.7792)" class="st0" cx="123.4" cy="442.9" rx="27.5" ry="27.5"/>
<circle class="st0" cx="748.3" cy="443.4" r="27.5"/>
<path class="st1" d="M296,578.8c0,0,75.5-26.3,98.6-34.9c23.2-8.6,60.8-22.5,90-35.2c29.2-12.7,62.1-29.2,83-41.3
	c21-12.1,50.2-43.7,55.2-61.7c5-17.9,9.9-41.1,4.8-63.3c-5-22.2-16.7-44.9-29.4-59c-12.7-14.1-36.3-30.6-59.8-35.7
	c-23.6-5-49.8-4.8-69.1,2c-19.3,6.9-32.6,16.5-39.9,22.8c-7.3,6.2-14.1,18.7-22.4,33.8c-8.3,15.1-22,40.3-32.8,64.5
	c-10.9,24.2-23.4,54.9-35.9,88.8c-12.5,33.9-24.3,67.5-31.8,89C299,570.2,296.1,578.5,296,578.8z"/>
<path class="st2" d="M338.2,535.7c0,0,18.4-4.4,45-11.5c26.6-7.1,50.5-14.7,82.5-25.3c32.1-10.7,59.5-19.9,84.2-33.3
	c24.7-13.4,28-14,38.6-26.1c10.6-12.1,23.4-32.2,26.5-52.1c3.1-19.9,2-36.4-2.2-50.6c-4.2-14.3-9.5-27.6-23.4-42.8
	c-13.9-15.2-29.4-24.5-47.5-30.7c-18.1-6.2-47.5-5.8-61.9-1.6c-14.4,4.2-34.2,14.4-42,21.6c-7.9,7.1-16.6,17.5-22.7,29.2
	c-6,11.7-19.7,41.3-28.3,64.7c-8.6,23.4-21,58.9-27.3,80.8C353.4,479.8,338.4,535.6,338.2,535.7z"/>
<circle class="st3" cx="509.3" cy="366.6" r="98.4"/>
<circle class="st4" cx="509.3" cy="366.6" r="98.4"/>
<path d="M435.4,366.2l1.8,3.3c0,0-2.1,1.2-4.3,2.1c-2.2,0.9-3.8,1.5-5,1.9c-1.2,0.4-2,1.5-2.1,2.2c0,0.7,0.1,2.1,1,2.7
	c0.9,0.6,1.6,1.2,3.2,0.7c1.5-0.5,3.5-1.4,4.9-2.1c1.4-0.6,4.5-2.2,4.5-2.2l2.3,3.8c0,0,1.1,1.3,2,1.4c1,0.1,2-0.2,2.5-0.8
	c0.5-0.5,1.1-1.4,1-2.5c0-1-0.1-1.1-0.6-1.9c-0.4-0.8-1.7-2.7-1.7-2.7s2.2-1.2,5.2-2.9s5.8-3.3,7.9-4.7c2.1-1.3,5-3,5-3l2.9,3.2
	c0,0,0.9,1.3,2.1,1.4c1.3,0.1,2.3-0.3,2.5-1.4c0.2-1.1,0.3-1.7,0.1-2.5c-0.1-0.8-1.1-1.6-1.1-1.6l-1.7-2.1c0,0,3.2-2.3,5.9-4.5
	c2.7-2.2,4.1-3.6,5.8-5.3s4-3.7,4-3.7l2.8,2.5c0,0,1.3,1.3,2.5,1.3c1.2,0,1.8-0.4,2.3-1.2c0.5-0.8,0.9-1.9,0.7-2.6
	c-0.2-0.7-0.8-1.3-1.6-2c-0.8-0.7-2.7-2.2-2.7-2.2s2.3-2.4,4.1-4.4c1.8-2,4-4.5,5.9-6.7c1.8-2.3,3.9-4.9,3.9-4.9l3,2.3
	c0,0,1.3,1.3,2.1,1.1s1.5-0.7,1.9-1.4c0.4-0.7,0.7-1.2,0.3-2.3c-0.3-1.1-1.3-1.6-1.3-1.6l-3-2.1c0,0,2.5-3.7,4.3-6.9
	c1.8-3.2,2.9-4.8,3.9-6.8c1-2,2.6-4.8,2.6-4.8l2.9,2c0,0,1.4,0.6,2.3,0.2c0.8-0.4,1.5-1.5,1.8-2.2c0.3-0.6,0.3-1.6-0.3-2.1
	c-0.7-0.5-1.7-1-1.7-1l-3-1.8c0,0,2.3-5.3,2.8-7c0.5-1.7,1-3,1-3.9c0-0.8-0.4-1.8-1.9-2.1c-1.5-0.3-2.6-0.2-3.1,1
	c-0.5,1.2-1.2,2.8-1.2,2.8s-0.7,2.5-1.4,4.1c-0.7,1.7-1.6,3.1-1.6,3.1l-2.5-1.5c0,0-1.4-0.4-2.2-0.4c-0.8,0-1.7,0-2,0.5
	c-0.3,0.5-0.7,1.7-0.2,2.6c0.4,0.9,1.9,1.9,1.9,1.9l3.2,1.9c0,0-2.1,3.8-4.2,7.2c-2.1,3.4-3,4.8-4,6.3c-1,1.5-2.2,3.4-2.2,3.4
	l-3-2.1c0,0-1.1-0.8-2-0.7c-0.9,0.1-1.8,1-2.1,1.5c-0.3,0.5-0.6,1.2-0.4,2.1c0.1,1,1,1.7,1,1.7l3.3,2.5c0,0-1,1.7-2.6,3.6
	c-1.6,1.9-3.8,4.5-5.9,6.9c-2.1,2.4-4.2,4.2-4.2,4.2l-2.6-2.3c0,0-1.1-1.3-2.2-1.3c-1.2,0-2.6,1.3-2.6,2.5c0,1.2,0.9,2.6,0.9,2.6
	l2.4,2.4c0,0-1.7,2.2-4.8,4.8c-3,2.6-3.9,3.2-5.7,4.7c-1.8,1.5-4.7,3.6-4.7,3.6l-2.6-3.4c0,0-1.1-1.8-2.6-1.4
	c-1.5,0.4-2.4,1.1-2.2,2.8s1.1,2.3,1.1,2.3s1.8,2.4,1.8,2.5c0,0-1.8,1.6-5.3,3.7c-3.5,2.1-6.3,3.5-8.4,4.6c-2.1,1.1-3.9,1.8-3.9,1.8
	l-1.5-3.1c0,0-0.8-1.8-2.1-1.8c-1.3,0-2.7,0.7-3,1.6C435.2,364.5,435.4,366.3,435.4,366.2z"/>
<path d="M581.2,365.4l-1.8-3.3c0,0,2.1-1.2,4.3-2.1c2.2-0.9,3.8-1.5,5-1.9c1.2-0.4,2-1.5,2.1-2.2c0-0.7-0.1-2.1-1-2.7
	c-0.9-0.6-1.6-1.2-3.2-0.7c-1.5,0.5-3.5,1.4-4.9,2.1c-1.4,0.6-4.5,2.2-4.5,2.2l-2.3-3.8c0,0-1.1-1.3-2-1.4c-1-0.1-2,0.2-2.5,0.8
	c-0.5,0.5-1.1,1.4-1,2.5c0,1,0.1,1.1,0.6,1.9c0.4,0.8,1.7,2.7,1.7,2.7s-2.2,1.2-5.2,2.9c-2.9,1.7-5.8,3.3-7.9,4.7c-2.1,1.3-5,3-5,3
	l-2.9-3.2c0,0-0.9-1.3-2.1-1.4c-1.3-0.1-2.3,0.3-2.5,1.4c-0.2,1.1-0.3,1.7-0.1,2.5c0.1,0.8,1.1,1.6,1.1,1.6l1.7,2.1
	c0,0-3.2,2.3-5.9,4.5c-2.7,2.2-4.1,3.6-5.8,5.3s-4,3.7-4,3.7l-2.8-2.5c0,0-1.3-1.3-2.5-1.3s-1.8,0.4-2.3,1.2
	c-0.5,0.8-0.9,1.9-0.7,2.6s0.8,1.3,1.6,2c0.8,0.7,2.7,2.2,2.7,2.2s-2.3,2.4-4.1,4.4c-1.8,2-4,4.5-5.9,6.7c-1.8,2.3-3.9,4.9-3.9,4.9
	l-3-2.3c0,0-1.3-1.3-2.1-1.1c-0.8,0.2-1.5,0.7-1.9,1.4c-0.4,0.7-0.7,1.2-0.3,2.3c0.3,1.1,1.3,1.6,1.3,1.6l3,2.1c0,0-2.5,3.7-4.3,6.9
	c-1.8,3.2-2.9,4.8-3.9,6.8c-1,2-2.6,4.8-2.6,4.8l-2.9-2c0,0-1.4-0.6-2.3-0.2c-0.8,0.4-1.5,1.5-1.8,2.2c-0.3,0.6-0.3,1.6,0.3,2.1
	c0.7,0.5,1.7,1,1.7,1l3,1.8c0,0-2.3,5.3-2.8,7c-0.5,1.7-1,3-1,3.9c0,0.8,0.4,1.8,1.9,2.1c1.5,0.3,2.6,0.2,3.1-1
	c0.5-1.2,1.2-2.8,1.2-2.8s0.7-2.5,1.4-4.1c0.7-1.7,1.6-3.1,1.6-3.1l2.5,1.5c0,0,1.4,0.4,2.2,0.4s1.7,0,2-0.5
	c0.3-0.5,0.7-1.7,0.2-2.6c-0.4-0.9-1.9-1.9-1.9-1.9l-3.2-1.9c0,0,2.1-3.8,4.2-7.2c2.1-3.4,3-4.8,4-6.3c1-1.5,2.2-3.4,2.2-3.4l3,2.1
	c0,0,1.1,0.8,2,0.7c0.9-0.1,1.8-1,2.1-1.5c0.3-0.5,0.6-1.2,0.4-2.1c-0.1-1-1-1.7-1-1.7l-3.3-2.5c0,0,1-1.7,2.6-3.6
	c1.6-1.9,3.8-4.5,5.9-6.9c2.1-2.4,4.2-4.2,4.2-4.2l2.6,2.3c0,0,1.1,1.3,2.2,1.3c1.2,0,2.6-1.3,2.6-2.5c0-1.2-0.9-2.6-0.9-2.6
	l-2.4-2.4c0,0,1.7-2.2,4.8-4.8c3-2.6,3.9-3.2,5.7-4.7c1.8-1.5,4.7-3.6,4.7-3.6l2.6,3.4c0,0,1.1,1.8,2.6,1.4c1.5-0.4,2.4-1.1,2.2-2.8
	c-0.2-1.7-1.1-2.3-1.1-2.3s-1.8-2.4-1.8-2.5s1.8-1.6,5.3-3.7c3.5-2.1,6.3-3.5,8.4-4.6c2.1-1.1,3.9-1.8,3.9-1.8l1.5,3.1
	c0,0,0.8,1.8,2.1,1.8c1.3,0,2.7-0.7,3-1.6S581.3,365.4,581.2,365.4z"/>
<path d="M215.4,486.9l150-150c0,0,2.5-0.9,3.9,0.6c1.4,1.5,0.2,4.4,0.2,4.4L219.8,491.4c0,0-2.4,1.4-4.2-0.2
	C213.9,489.5,215.4,486.9,215.4,486.9z"/>
<path d="M284.1,467.5l69.8-69.8c0,0,2.6-1,3.9,0.5c1.3,1.5,0.4,3.9,0.4,3.9l-70.1,69.8c0,0-1.9,0.8-3.7-0.9S284,467.5,284.1,467.5z"
	/>
<path d="M363.5,388.2c0,0,5.1-5.1,5.1-5.1c0,0,2.7-1.4,4.2,0.3c1.5,1.7,0.7,3.3,0.7,3.3l-6,6.4c0,0-2.5,1.7-4.3-0.4
	C361.4,390.8,363.4,388.3,363.5,388.2z"/>
<path d="M340.3,460.7c0,0,48-47.8,48-47.9c0-0.1,2.5-1.9,4-0.1s0.2,4,0.2,4l-48.5,48.7c0,0-2.7,1.8-4.4,0.1
	C338,463.7,340.3,460.8,340.3,460.7z"/>
<path d="M324.5,544.9l98.6-98.7c0,0,2.6-1.6,4.2,0.1c1.6,1.7,0,4.9,0,4.9L328.4,550c0,0-2.7,1.3-4.3-0.5
	C322.6,547.7,324.4,545,324.5,544.9z"/>
<path d="M294.6,613.9l98.7-98.7c0,0,2.8-1.9,4.6-0.1c1.9,1.7,0.1,4.5,0.1,4.5l-99,98.3c0,0-2.3,2-4.4-0.1
	C292.6,615.6,294.7,614.1,294.6,613.9z"/>
<path d="M405.2,511.1c-1.5,0-2.7-1.2-2.7-2.7c0-1.5,1.2-2.7,2.7-2.7c1.5,0,2.7,1.2,2.7,2.7C407.8,509.9,406.6,511.1,405.2,511.1z"/>
<path d="M371.7,595.5l71.5-70.6c0,0,2.4-2,4-0.6c1.6,1.4,0.2,4.3,0.2,4.3l-71.1,71.3c0,0-3.1,2-4.9,0.2
	C369.6,598.5,371.7,595.6,371.7,595.5z"/>
<path d="M451.6,515.7l25.4-24.8c0,0,2.4-1.2,3.6-0.2c1.2,1.1,1.1,3.6,1.1,3.6c0,0.1-25.9,25.9-25.9,25.9s-2.8,1.1-4.1-0.1
	C450.5,518.9,451.7,515.6,451.6,515.7z"/>
<path d="M352.7,683.6l26.2-25.5c0,0,2-1.3,3.3,0c1.3,1.3,0.6,4,0.6,4l-26.1,26.2c0,0-1.9,0.9-3.6-0.7
	C351.4,686,352.8,683.6,352.7,683.6z"/>
<path d="M391.9,653.7c0,0-2.5,1.3-4.2-0.5c-1.8-1.8-0.4-3.2-0.4-3.2l209.6-210.7c0,0,7.1-9.2,10.6-15.2c3.5-6.1,10.1-20.9,12.3-30.9
	s4.2-26.5,3.2-35.9c-1-9.4-4.3-29.2-9.6-39c-5.3-9.8-13.7-23.8-23.1-32.8c-9.4-9-23.6-21.8-40.6-27c-17-5.1-33.4-9.7-56.7-6.3
	c-23.3,3.4-38.2,10.6-46,15.8c-7.8,5.1-30.1,26.2-30.1,26.2l-37.9,37.5c0,0-2.3,1.3-3.9-0.1c-1.6-1.3,0-3.8,0-3.8l51.2-51.5
	c0,0,6.4-6.4,15.2-11.6c8.7-5.2,15.2-9.6,27.3-13.5c12.2-3.9,23.4-6.6,35.3-6.8s20,0.2,32.8,3.1c12.8,2.9,22.2,6.8,34.1,13.5
	c11.9,6.7,17.9,13.1,27.3,23.2c9.5,10.1,14.1,18,19.8,30.2c5.7,12.2,8.2,18.7,10.2,34.7c2,16,1.4,26-1.3,40.7
	c-2.6,14.7-5.2,19.4-11.9,33.2c-6.8,13.8-12.3,19.4-22,29C583.6,461.7,391.6,654.3,391.9,653.7z"/>
</svg>
