<?xml version="1.0" encoding="utf-8"?>
<!-- Generator: Adobe Illustrator 21.0.0, SVG Export Plug-In . SVG Version: 6.00 Build 0)  -->
<svg version="1.1" id="Vrstva_1" xmlns="http://www.w3.org/2000/svg" xmlns:xlink="http://www.w3.org/1999/xlink" x="0px" y="0px"
	 viewBox="0 0 498 442" style="enable-background:new 0 0 498 442;" xml:space="preserve">
<style type="text/css">
	.st0{fill-rule:evenodd;clip-rule:evenodd;fill:#FFFFFF;stroke:#282D50;stroke-width:4;}
	.st1{fill-rule:evenodd;clip-rule:evenodd;fill:#282D50;}
	.st2{fill:#FFFFFF;}
	.st3{fill:#282D50;}
	.st4{fill:none;stroke:#282D50;stroke-width:3.4016;stroke-linecap:round;stroke-linejoin:round;stroke-miterlimit:22.9256;}
	.st5{font-family:'Impact';}
	.st6{font-size:22.9998px;}
</style>
<path class="st0" d="M236.8,89.8l12.2-12.2l12.2,12.2L248.9,102L236.8,89.8z M380.9,245l12.2-12.2l12.2,12.2l-12.2,12.2L380.9,245z
	 M92.6,245l12.2-12.2L117,245l-12.2,12.2L92.6,245z M240.3,405.7v-11.6h17.2v11.6l-8.6,8.6L240.3,405.7z M125.2,269.7
	c3.1-4.7,4.9-10.4,4.9-16.5c0-6.1-1.8-11.8-4.9-16.5L248.9,113l123.7,123.7c-3.1,4.7-4.9,10.4-4.9,16.5c0,6.1,1.8,11.8,4.9,16.5
	l-105,105c-5.3-3.7-11.8-5.8-18.8-5.8c-7,0-13.4,2.2-18.8,5.8L125.2,269.7z M248.9,60.7c96.8,0,179.5,60.5,212.4,145.7L279.3,388.5
	c1.8,4.1,2.9,8.7,2.9,13.5c0,18.3-14.9,33.2-33.2,33.2s-33.2-14.9-33.2-33.2c0-4.8,1-9.4,2.9-13.5L36.5,206.4
	C69.4,121.2,152.1,60.7,248.9,60.7z"/>
<path class="st1" d="M409.2,68.3l21.6,2.9l0,0c0.7,0.1,1.2,0.7,1.2,1.4v0v6.6c0,0.8-0.6,1.4-1.4,1.4c-0.1,0-0.2,0-0.3,0l-21.7-3.8v0
	c-0.7-0.1-1.2-0.7-1.2-1.4v-5.7c0-0.8,0.6-1.4,1.4-1.4C409,68.2,409.1,68.2,409.2,68.3 M61.6,121.5c-0.2,0.7-0.4,1.4-0.6,2.1
	c-0.8,2.6-2.1,5-3.5,7.3c-1.6,2.4-3.5,4.7-5.5,6.8c-2.2,2.2-4.6,4.2-7.2,5.9c-2.6,1.7-5.4,3-8.2,4.1c-3,1.1-6.2,1.9-9.4,2.1
	c-3,0.1-5.9-0.3-8.7-1.5c-2.6-1.1-4.9-2.8-6.7-5.1c-1.8-2.3-3.1-4.9-3.8-7.7c-0.8-3.2-1.3-6.7-1.5-10c-0.4-4.4-0.5-8.9-0.5-13.4
	v-8.6c0-0.9,0.3-1.7,0.7-2.4l2.3-1.7c0.1,0,0.1,0,0.2,0l2.7-0.7l0,0c2.4-0.6,4.9-1.3,7.3-1.9c2.4-0.6,4.8-1.1,7.1-1.7
	c-0.9-0.7-1.7-1.4-2.6-2.1c-2.3-1.8-4.6-3.7-6.8-5.6c-1.6-1.5-3.3-3.1-4.6-4.7c-1.2-1.5-2.2-3.2-3-5c-0.9-2-1.6-4.1-2.2-6.3
	c-0.7-2.7-1.1-5.4-1.4-8.2c-0.3-3.3-0.5-6.7-0.5-10c0-4.5,0.1-9.1,0.6-13.6c0.4-3.4,0.9-6.9,2.1-10.1c0.9-2.6,2.1-5.1,3.7-7.4
	c1.6-2.2,3.5-4.1,5.7-5.7c2.2-1.6,4.7-2.7,7.3-3.5c2.7-0.8,5.5-1.1,8.3-1.1c3,0,6,0.3,8.9,1.1c2.8,0.7,5.4,1.9,7.8,3.4
	c2.2,1.4,4.2,3.1,5.9,5.1c1.6,2,2.9,4.2,3.7,6.6c0.9,2.7,1.4,5.8,1.7,8.6c0.4,4,0.5,8.1,0.5,12.1v4.5c0,1.1-0.4,2.1-1.1,2.9
	l-2.5,1.3c-0.1,0-0.1,0-0.2,0l-2.8,0.3v0c-2.4,0.3-4.8,0.5-7.2,0.8c-2.6,0.3-5.2,0.5-7.9,0.8c4.1,3,8.3,6.2,12,9.7
	c2.7,2.6,5.5,5.6,7.3,8.9c1.2,2.2,2,4.6,2.6,7V18.3c0-1.3,0.5-2.4,1.4-3.2l2.6-1.1c0.1,0,0.1,0,0.2,0l2.8,0v0L87.4,14
	c0.1,0,0.1,0,0.2,0c2.3,0,4.3,1.9,4.3,4.3v79.9c0.5-0.1,1-0.2,1.5-0.3c2.2-0.4,4.3-0.8,6.5-1.3c0,0,0.1,0,0.1,0
	c-0.1-1.6-0.1-3.3-0.2-4.9c-0.1-4.5-0.2-9-0.2-13.5V60.6c0-4.4,0-8.9,0.2-13.3c0.1-3,0.2-6,0.4-9c0.2-2.4,0.7-4.8,1.4-7.1
	c0.7-2.3,1.7-4.5,2.9-6.5c1.2-2.1,2.7-4,4.4-5.6c1.7-1.6,3.6-3,5.7-4.1c2.1-1.1,4.4-2,6.8-2.5c2.5-0.6,5-0.8,7.6-0.8
	c2.4,0,4.9,0.2,7.2,0.7c2.3,0.5,4.5,1.2,6.6,2.2c2.1,1,4,2.2,5.8,3.7c1.7,1.5,3.3,3.2,4.5,5.1c0.5,0.7,1,1.5,1.4,2.3
	c-0.3-2.4-0.6-4.8-0.9-7.2c0-0.2,0-0.4,0-0.6c0-1.3,0.5-2.4,1.4-3.2l2.6-1.1c0.1,0,0.1,0,0.2,0l2.8,0v0c2.6,0,5.1,0,7.7,0
	c3.4,0,6.8,0.3,10.2,0l0,0c1.3-0.1,2.5,0.4,3.3,1.2l1.2,2.6c0,0.1,0,0.1,0,0.2l0.1,2.1c0.1,1.9,0.3,3.9,0.4,5.8
	c0.1,0.9,0.1,1.8,0.2,2.7c0.5-3.5,1-7.1,1.2-10.6c0.1-1.1,0.6-2.2,1.4-2.9l2.6-1.1c0.1,0,0.1,0,0.2,0l2.8,0v0l19.6,0
	c1.1,0,2.2,0.4,2.9,1.1l1.4,2.5c0,0,0,0.1,0,0.1l0.3,2.8l0,0c0,0.3,0.1,0.7,0.1,1c0.2,1.8,0.3,3.6,0.5,5.4c0,0.4,0.1,0.8,0.1,1.3
	c0.5-3.5,1-7,1.4-10.5c0.2-2.2,2-3.8,4.2-3.8h21.1c0.3,0,0.2,0,0.5,0c0.6,0.1,1.2,0.3,1.7,0.6c0.6-0.4,1.4-0.6,2.2-0.6
	c3.6,0,7.3,0,10.9,0c3.7,0,7.3,0,11,0c2.8,0,5.6,0.1,8.3,0.4c2.2,0.2,4.5,0.6,6.6,1.3c1.8,0.5,3.5,1.2,5.1,2.2
	c1.4,0.8,2.7,1.9,3.9,3.1c0.1,0.1,0.1,0.1,0.2,0.2c1,1.2,1.9,2.5,2.6,4c0.1,0.2,0.2,0.4,0.3,0.5v-7.4c0-2.4,1.9-4.3,4.3-4.3l2.8,0v0
	l18.7,0c0.1,0,0.1,0,0.2,0c0.9,0,1.8,0.3,2.5,0.8c0.7-0.5,1.6-0.8,2.5-0.8l2.8,0v0c14.7,0,29.3,0.1,44,0.1l0.4,0c0.1,0,0.1,0,0.2,0
	c2.3,0,4.3,1.9,4.3,4.3v7.6c0.2-0.4,0.5-0.9,0.8-1.3c1.2-1.9,2.7-3.7,4.4-5.3c1.7-1.6,3.7-2.9,5.7-4c2.2-1.1,4.5-2,6.9-2.6
	c2.5-0.6,5-0.8,7.5-0.8c3.4,0,6.8,0.4,10,1.4c3.1,0.9,5.9,2.3,8.4,4.3c2.4,1.8,4.4,4,6.1,6.5c1.6,2.5,2.8,5.2,3.6,8.1
	c0.7,2.5,1.1,5.1,1.4,7.7V18.3c0-2.4,1.9-4.3,4.3-4.2l2.8,0v0c2.6,0,5.3,0,7.9,0.1c3.6,0,7.2,0.2,10.7,0.1c0.1,0,0.2,0,0.2,0
	c1.3,0,2.5,0.6,3.3,1.5c0.8-0.9,2-1.5,3.3-1.5l2.8,0v0l18.7,0.1c0.1,0,0.1,0,0.2,0c2.3,0,4.3,1.9,4.3,4.3v130.6
	c0,0.5-0.1,1.1-0.3,1.6c-0.9,2.2-3.3,3.3-5.5,2.4c-3.6-1.4-7.2-2.8-10.8-4.2c-3.5-1.4-7-2.8-10.6-4c-1.4-0.5-2.5-1.6-2.8-2.9
	c-1.1,0.7-2.5,1-3.8,0.5c-3.6-1.2-7.2-2.4-10.8-3.6c-3.6-1.2-7.1-2.4-10.7-3.5c-1.8-0.5-3.1-2.2-3.1-4.1V107c-0.3,2.4-0.6,4.8-1.2,7
	c-0.7,2.7-2,5.2-3.7,7.4c-1.8,2.2-3.9,4-6.4,5.5c-2.7,1.6-5.7,2.4-8.8,2.6c-3.3,0.2-6.6-0.2-9.8-1.1c-3.3-0.8-6.5-2-9.5-3.5
	c-2.9-1.4-5.5-3.2-7.9-5.4c-2.3-2-4.3-4.3-5.9-6.9c-1.1-1.8-2-3.6-2.7-5.6l-0.2,0l-0.7-2.6c0-0.1,0-0.1-0.1-0.2l-0.7-2.7l0.1,0
	c-0.5-2.4-0.8-4.8-1-7.2c-0.4-4.3-0.5-8.7-0.5-13.1V52.7c0-3.1,0-6.3,0.2-9.4c0-0.5,0-1,0.1-1.6c-0.2,0-0.3,0-0.5,0l-2.9-0.1v0
	c-1.9-0.1-3.7-0.2-5.6-0.2v71.7c0,0.4,0,0.3-0.1,0.7c-0.4,2.3-2.6,3.9-4.9,3.5c-3.6-0.6-7.2-1.2-10.8-1.8c-3.6-0.6-7.1-1.2-10.7-1.6
	c-2.1-0.3-3.8-2.1-3.8-4.2V40.4c-2.8-0.1-5.6-0.3-8.4-0.2c-0.1,0-0.1,0-0.2,0c-0.3,0-0.5,0-0.8-0.1v67.4c0,0.2,0,0.2,0,0.4
	c-0.2,2.3-2.3,4-4.6,3.8l-2.9-0.3l0,0c-2.6-0.3-5.3-0.5-7.9-0.7c-3.5-0.3-7.1-0.7-10.6-0.9c-2.3-0.1-4.1-2-4.1-4.2V64.3
	c-0.8,1.5-1.8,2.9-3,4.1c-1.4,1.4-3.1,2.4-4.9,3.2c-2,0.9-4.1,1.4-6.2,1.7c-2.4,0.3-4.8,0.4-7.1,0.4c-0.3,0-0.7,0-1,0v0l-0.5,0
	l0,30.5c0,2.4-2,4.2-4.4,4.2l-2.3-0.1c-5.9-0.1-11.8-0.2-17.7-0.2l-1.4,0c-0.1,0-0.1,0-0.2,0c-2.3,0-4.3-1.9-4.3-4.3V54.8
	c-0.2,2.2-0.5,4.3-0.7,6.5l-2.4,21.6l-2.4,21.5c-0.1,1-0.6,2-1.3,2.7l-2.6,1.2c-0.1,0-0.1,0-0.2,0l-2.8,0.1v0
	c-3.6,0.1-7.1,0.3-10.7,0.4c-4.4,0.2-8.9,0.3-13.3,0.7c-1.1,0.1-2.2-0.2-3-0.9l-1.6-2.4c0-0.1,0-0.1,0-0.2l-0.5-2.8l0,0
	c-0.5-2.5-0.9-5.1-1.3-7.6c-0.2-1-0.3-2-0.5-3c-0.7,4.7-1.4,9.3-1.9,14c-0.2,2.1-1.8,3.7-3.9,3.9c-4.5,0.4-8.9,0.8-13.4,1.3
	c-4.4,0.5-8.8,0.9-13.2,1.5c-0.1,0-0.1,0-0.2,0c-1.2,0.1-2.4-0.3-3.3-1.1l-1.4-2.5c0-0.1,0-0.1,0-0.2l-0.3-2.8h0
	c-0.4-3.3-0.7-6.6-1.1-9.8c-1.2-10.9-2.4-21.7-3.5-32.6c0-0.3-0.1-0.6-0.1-0.9v9c0,4,0,8.1-0.2,12.1c-0.1,2.7-0.2,5.5-0.5,8.2
	c-0.2,2.3-0.7,4.5-1.4,6.7c-0.7,2.2-1.7,4.3-2.8,6.3c-1.2,2.1-2.6,3.9-4.3,5.6c-1.6,1.7-3.5,3.2-5.4,4.5c-2.1,1.4-4.3,2.5-6.6,3.4
	c-2.4,0.9-4.9,1.7-7.4,2.1c-1.4,0.3-2.9,0.5-4.4,0.6l0,0.2l-2.6,0c-0.1,0-0.1,0-0.2,0l-2.8,0l0-0.1c-1.3-0.1-2.7-0.4-4-0.8
	c-2.2-0.6-4.3-1.6-6.1-2.9c-1.8-1.3-3.3-2.8-4.6-4.5v7.5c0,0.9-0.3,1.7-0.7,2.4l-2.4,1.7c0,0,0,0-0.1,0l-1.1,0.3
	c-5.5,1.4-11,2.8-16.5,4.3c-5.7,1.5-11.4,2.9-16.9,4.8c-0.5,0.2-0.9,0.2-1.4,0.2c-2.3,0-4.3-1.9-4.3-4.3V121.5z"/>
<path class="st1" d="M409.2,62.6l21.6,2.9l0,0c0.7,0.1,1.2,0.7,1.2,1.4v0v6.6c0,0.8-0.6,1.4-1.4,1.4c-0.1,0-0.2,0-0.3,0l-21.7-3.8v0
	c-0.7-0.1-1.2-0.7-1.2-1.4V64c0-0.8,0.6-1.4,1.4-1.4C409,62.6,409.1,62.6,409.2,62.6 M61.6,115.8c-0.2,0.7-0.4,1.4-0.6,2.1
	c-0.8,2.6-2.1,5-3.5,7.3c-1.6,2.4-3.5,4.7-5.5,6.8c-2.2,2.2-4.6,4.2-7.2,5.9c-2.6,1.7-5.4,3-8.2,4.1c-3,1.1-6.2,1.9-9.4,2.1
	c-3,0.1-5.9-0.3-8.7-1.5c-2.6-1.1-4.9-2.8-6.7-5.1c-1.8-2.3-3.1-4.9-3.8-7.7c-0.8-3.2-1.3-6.7-1.5-10c-0.4-4.4-0.5-8.9-0.5-13.4
	v-8.6c0-0.9,0.3-1.7,0.7-2.4l2.3-1.7c0.1,0,0.1,0,0.2,0l2.7-0.7l0,0c2.4-0.6,4.9-1.3,7.3-1.9c2.4-0.6,4.8-1.1,7.1-1.7
	c-0.9-0.7-1.7-1.4-2.6-2.1c-2.3-1.8-4.6-3.7-6.8-5.6c-1.6-1.5-3.3-3.1-4.6-4.7c-1.2-1.5-2.2-3.2-3-5c-0.9-2-1.6-4.1-2.2-6.3
	C6.4,63,6,60.2,5.7,57.5c-0.3-3.3-0.5-6.7-0.5-10c0-4.5,0.1-9.1,0.6-13.6c0.4-3.4,0.9-6.9,2.1-10.1c0.9-2.6,2.1-5.1,3.7-7.4
	c1.6-2.2,3.5-4.1,5.7-5.7c2.2-1.6,4.7-2.7,7.3-3.5C27.4,6.4,30.2,6,33.1,6c3,0,6,0.3,8.9,1.1c2.8,0.7,5.4,1.9,7.8,3.4
	c2.2,1.4,4.2,3.1,5.9,5.1c1.6,2,2.9,4.2,3.7,6.6c0.9,2.7,1.4,5.8,1.7,8.6c0.4,4,0.5,8.1,0.5,12.1v4.5c0,1.1-0.4,2.1-1.1,2.9
	l-2.5,1.3c-0.1,0-0.1,0-0.2,0l-2.8,0.3v0c-2.4,0.3-4.8,0.5-7.2,0.8c-2.6,0.3-5.2,0.5-7.9,0.8c4.1,3,8.3,6.2,12,9.7
	c2.7,2.6,5.5,5.6,7.3,8.9c1.2,2.2,2,4.6,2.6,7V12.7c0-1.3,0.5-2.4,1.4-3.2l2.6-1.1c0.1,0,0.1,0,0.2,0l2.8,0v0l18.7-0.1
	c0.1,0,0.1,0,0.2,0c2.3,0,4.3,1.9,4.3,4.3v79.9c0.5-0.1,1-0.2,1.5-0.3c2.2-0.4,4.3-0.8,6.5-1.3c0,0,0.1,0,0.1,0
	c-0.1-1.6-0.1-3.3-0.2-4.9c-0.1-4.5-0.2-9-0.2-13.5V54.9c0-4.4,0-8.9,0.2-13.3c0.1-3,0.2-6,0.4-9c0.2-2.4,0.7-4.8,1.4-7.1
	c0.7-2.3,1.7-4.5,2.9-6.5c1.2-2.1,2.7-4,4.4-5.6c1.7-1.6,3.6-3,5.7-4.1c2.1-1.1,4.4-2,6.8-2.5c2.5-0.6,5-0.8,7.6-0.8
	c2.4,0,4.9,0.2,7.2,0.7c2.3,0.5,4.5,1.2,6.6,2.2c2.1,1,4,2.2,5.8,3.7c1.7,1.5,3.3,3.2,4.5,5.1c0.5,0.7,1,1.5,1.4,2.3
	c-0.3-2.4-0.6-4.8-0.9-7.2c0-0.2,0-0.4,0-0.6c0-1.3,0.5-2.4,1.4-3.2l2.6-1.1c0.1,0,0.1,0,0.2,0l2.8,0v0c2.6,0,5.1,0,7.7,0
	c3.4,0,6.8,0.3,10.2,0l0,0c1.3-0.1,2.5,0.4,3.3,1.2l1.2,2.6c0,0.1,0,0.1,0,0.2l0.1,2.1c0.1,1.9,0.3,3.9,0.4,5.8
	c0.1,0.9,0.1,1.8,0.2,2.7c0.5-3.5,1-7.1,1.2-10.6c0.1-1.1,0.6-2.2,1.4-2.9l2.6-1.1c0.1,0,0.1,0,0.2,0l2.8,0v0l19.6,0
	c1.1,0,2.2,0.4,2.9,1.1l1.4,2.5c0,0,0,0.1,0,0.1l0.3,2.8l0,0c0,0.3,0.1,0.7,0.1,1c0.2,1.8,0.3,3.6,0.5,5.4c0,0.4,0.1,0.8,0.1,1.3
	c0.5-3.5,1-7,1.4-10.5c0.2-2.2,2-3.8,4.2-3.8h21.1c0.3,0,0.2,0,0.5,0c0.6,0.1,1.2,0.3,1.7,0.6c0.6-0.4,1.4-0.6,2.2-0.6
	c3.6,0,7.3,0,10.9,0c3.7,0,7.3,0,11,0c2.8,0,5.6,0.1,8.3,0.4c2.2,0.2,4.5,0.6,6.6,1.3c1.8,0.5,3.5,1.2,5.1,2.2
	c1.4,0.8,2.7,1.9,3.9,3.1c0.1,0.1,0.1,0.1,0.2,0.2c1,1.2,1.9,2.5,2.6,4c0.1,0.2,0.2,0.4,0.3,0.5v-7.4c0-2.4,1.9-4.3,4.3-4.3l2.8,0v0
	l18.7,0c0.1,0,0.1,0,0.2,0c0.9,0,1.8,0.3,2.5,0.8c0.7-0.5,1.6-0.8,2.5-0.8l2.8,0v0c14.7,0,29.3,0.1,44,0.1l0.4,0c0.1,0,0.1,0,0.2,0
	c2.3,0,4.3,1.9,4.3,4.3V20c0.2-0.4,0.5-0.9,0.8-1.3c1.2-1.9,2.7-3.7,4.4-5.3c1.7-1.6,3.7-2.9,5.7-4c2.2-1.1,4.5-2,6.9-2.6
	c2.5-0.6,5-0.8,7.5-0.8c3.4,0,6.8,0.4,10,1.4c3.1,0.9,5.9,2.3,8.4,4.3c2.4,1.8,4.4,4,6.1,6.5c1.6,2.5,2.8,5.2,3.6,8.1
	c0.7,2.5,1.1,5.1,1.4,7.7V12.7c0-2.4,1.9-4.3,4.3-4.2l2.8,0v0c2.6,0,5.3,0,7.9,0.1c3.6,0,7.2,0.2,10.7,0.1c0.1,0,0.2,0,0.2,0
	c1.3,0,2.5,0.6,3.3,1.5c0.8-0.9,2-1.5,3.3-1.5l2.8,0v0l18.7,0.1c0.1,0,0.1,0,0.2,0c2.3,0,4.3,1.9,4.3,4.3v130.6
	c0,0.5-0.1,1.1-0.3,1.6c-0.9,2.2-3.3,3.3-5.5,2.4c-3.6-1.4-7.2-2.8-10.8-4.2c-3.5-1.4-7-2.8-10.6-4c-1.4-0.5-2.5-1.6-2.8-2.9
	c-1.1,0.7-2.5,1-3.8,0.5c-3.6-1.2-7.2-2.4-10.8-3.6c-3.6-1.2-7.1-2.4-10.7-3.5c-1.8-0.5-3.1-2.2-3.1-4.1v-24.4
	c-0.3,2.4-0.6,4.8-1.2,7c-0.7,2.7-2,5.2-3.7,7.4c-1.8,2.2-3.9,4-6.4,5.5c-2.7,1.6-5.7,2.4-8.8,2.6c-3.3,0.2-6.6-0.2-9.8-1.1
	c-3.3-0.8-6.5-2-9.5-3.5c-2.9-1.4-5.5-3.2-7.9-5.4c-2.3-2-4.3-4.3-5.9-6.9c-1.1-1.8-2-3.6-2.7-5.6l-0.2,0l-0.7-2.6
	c0-0.1,0-0.1-0.1-0.2l-0.7-2.7l0.1,0c-0.5-2.4-0.8-4.8-1-7.2c-0.4-4.3-0.5-8.7-0.5-13.1V47c0-3.1,0-6.3,0.2-9.4c0-0.5,0-1,0.1-1.6
	c-0.2,0-0.3,0-0.5,0L372,36v0c-1.9-0.1-3.7-0.2-5.6-0.2v71.7c0,0.4,0,0.3-0.1,0.7c-0.4,2.3-2.6,3.9-4.9,3.5
	c-3.6-0.6-7.2-1.2-10.8-1.8c-3.6-0.6-7.1-1.2-10.7-1.6c-2.1-0.3-3.8-2.1-3.8-4.2V34.7c-2.8-0.1-5.6-0.3-8.4-0.2c-0.1,0-0.1,0-0.2,0
	c-0.3,0-0.5,0-0.8-0.1v67.4c0,0.2,0,0.2,0,0.4c-0.2,2.3-2.3,4-4.6,3.8l-2.9-0.3l0,0c-2.6-0.3-5.3-0.5-7.9-0.7
	c-3.5-0.3-7.1-0.7-10.6-0.9c-2.3-0.1-4.1-2-4.1-4.2V58.6c-0.8,1.5-1.8,2.9-3,4.1c-1.4,1.4-3.1,2.4-4.9,3.2c-2,0.9-4.1,1.4-6.2,1.7
	c-2.4,0.3-4.8,0.4-7.1,0.4c-0.3,0-0.7,0-1,0v0l-0.5,0l0,30.5c0,2.4-2,4.2-4.4,4.2l-2.3-0.1c-5.9-0.1-11.8-0.2-17.7-0.2l-1.4,0
	c-0.1,0-0.1,0-0.2,0c-2.3,0-4.3-1.9-4.3-4.3V49.2c-0.2,2.2-0.5,4.3-0.7,6.5l-2.4,21.6l-2.4,21.5c-0.1,1-0.6,2-1.3,2.7l-2.6,1.2
	c-0.1,0-0.1,0-0.2,0l-2.8,0.1v0c-3.6,0.1-7.1,0.3-10.7,0.4c-4.4,0.2-8.9,0.3-13.3,0.7c-1.1,0.1-2.2-0.2-3-0.9l-1.6-2.4
	c0-0.1,0-0.1,0-0.2l-0.5-2.8l0,0c-0.5-2.5-0.9-5.1-1.3-7.6c-0.2-1-0.3-2-0.5-3c-0.7,4.7-1.4,9.3-1.9,14c-0.2,2.1-1.8,3.7-3.9,3.9
	c-4.5,0.4-8.9,0.8-13.4,1.3c-4.4,0.5-8.8,0.9-13.2,1.5c-0.1,0-0.1,0-0.2,0c-1.2,0.1-2.4-0.3-3.3-1.1l-1.4-2.5c0-0.1,0-0.1,0-0.2
	l-0.3-2.8h0c-0.4-3.3-0.7-6.6-1.1-9.8c-1.2-10.9-2.4-21.7-3.5-32.6c0-0.3-0.1-0.6-0.1-0.9v9c0,4,0,8.1-0.2,12.1
	c-0.1,2.7-0.2,5.5-0.5,8.2c-0.2,2.3-0.7,4.5-1.4,6.7c-0.7,2.2-1.7,4.3-2.8,6.3c-1.2,2.1-2.6,3.9-4.3,5.6c-1.6,1.7-3.5,3.2-5.4,4.5
	c-2.1,1.4-4.3,2.5-6.6,3.4c-2.4,0.9-4.9,1.7-7.4,2.1c-1.4,0.3-2.9,0.5-4.4,0.6l0,0.2l-2.6,0c-0.1,0-0.1,0-0.2,0l-2.8,0l0-0.1
	c-1.3-0.1-2.7-0.4-4-0.8c-2.2-0.6-4.3-1.6-6.1-2.9c-1.8-1.3-3.3-2.8-4.6-4.5v7.5c0,0.9-0.3,1.7-0.7,2.4l-2.4,1.7c0,0,0,0-0.1,0
	l-1.1,0.3c-5.5,1.4-11,2.8-16.5,4.3c-5.7,1.5-11.4,2.9-16.9,4.8c-0.5,0.2-0.9,0.2-1.4,0.2c-2.3,0-4.3-1.9-4.3-4.3V115.8z"/>
<path class="st2" d="M57.3,47.6c0-1.5,0-3,0-4.5c0-9.2-0.6-15.6-1.9-19.4c-1.3-3.8-3.9-7-7.9-9.5c-4-2.5-8.8-3.9-14.4-3.9
	c-5.2,0-9.5,1.3-13.2,3.9c-3.7,2.6-6.3,6.3-7.9,11c-1.6,4.7-2.5,12.2-2.5,22.3c0,7,0.6,12.7,1.7,17c1.2,4.3,2.6,7.5,4.3,9.7
	c1.8,2.2,5.3,5.5,10.7,9.7c5.3,4.2,8.8,7,10.2,8.9c1.4,1.9,2,6.4,2,13.6c0,3.3-0.4,5.8-1.1,7.7c-0.7,1.9-1.8,3-3.2,3.5
	c-1.4,0.5-2.5,0.1-3-1c-0.6-1.1-0.9-4.1-0.9-8.7c0-5,0-10.1,0-15.1c-6.7,1.6-13.4,3.4-20.1,5.1c0,2.9,0,5.8,0,8.6
	c0,9.9,0.6,17.3,1.9,22.3c1.3,4.9,4,8.2,8.1,10c4.1,1.8,9,1.5,14.9-0.7c5.3-2,9.9-4.9,13.9-9c3.9-4,6.6-8.1,8-12.4
	c1.4-4.3,2.1-10.5,2.1-18.7c0-11.2-1.2-19.1-3.8-23.8c-2.5-4.7-8.6-10.3-18.2-17.3c-3.4-2.4-5.4-4.7-6.2-6.7c-0.8-2-1.1-5.1-1.1-9.3
	c0-3.2,0.4-5.7,1-7.3c0.7-1.6,1.6-2.5,2.9-2.6c1.2-0.1,2.1,0.4,2.6,1.6c0.5,1.1,0.8,3.8,0.8,8c0,3,0,6,0,9
	C43.8,49,50.5,48.2,57.3,47.6 M87.6,12.5c-7.3,0-14.5,0.1-21.7,0.1c0,18.8,0,37.5,0,56.2c0,18.7,0,37.5,0,56.2
	c11.6-3.4,23.2-6.6,34.9-9.5c0-6.9,0-13.8,0-20.6c-4.4,0.9-8.8,1.8-13.2,2.7c0-14.2,0-28.4,0-42.6C87.6,40.9,87.6,26.7,87.6,12.5z
	 M154,66.7c0-5.3,0-10.6,0-15.9c0-9.6-0.2-16.3-0.6-20.1c-0.4-3.8-1.7-7.3-3.9-10.6c-2.2-3.2-5-5.7-8.6-7.3c-3.6-1.6-7.6-2.5-12-2.5
	c-4.7,0-8.8,0.9-12.4,2.8c-3.5,1.9-6.4,4.6-8.4,8.1c-2.1,3.6-3.3,7.5-3.7,11.8c-0.4,4.3-0.6,11.6-0.6,21.9c0,5.8,0,11.7,0,17.5
	c0,10.5,0.2,17.9,0.6,22c0.4,4.1,1.7,7.8,3.9,10.9c2.2,3.1,5,5.1,8.6,6.1c3.6,1,7.5,1,12,0.1c4.7-0.9,8.8-2.5,12.4-4.9
	c3.5-2.4,6.4-5.2,8.4-8.8c2.1-3.5,3.3-7.3,3.7-11.2C153.8,82.7,154,76.1,154,66.7z M132.3,37.1c0,7.4,0,14.8,0,22.2
	c0,7.4,0,14.8,0,22.2c0,5.7-0.2,9.3-0.6,10.9c-0.4,1.6-1.3,2.5-2.8,2.7c-1.4,0.2-2.4-0.3-2.7-1.5c-0.4-1.3-0.6-4.7-0.6-10.4
	c0-7.6,0-15.2,0-22.8c0-7.6,0-15.2,0-22.8c0-5.1,0.3-8.1,0.9-9.1c0.6-1.1,1.5-1.6,2.6-1.6c1.3,0,2.2,0.6,2.6,1.8
	C132.1,29.8,132.3,32.6,132.3,37.1z M243.7,12.1c-7,0-14.1,0-21.1,0c-1.4,10-2.7,20.2-3.7,30.5c-1,10.3-1.8,20.7-2.4,31.2
	c-0.4-5.5-0.8-11-1.2-16.5c-0.4-5.5-0.7-11-1.2-16.5c-0.6-8.3-1.2-14.8-1.6-19.6c-0.4-4.8-0.7-7.8-0.8-9.1c-7.6,0-15.1,0-22.6,0
	c-1.6,12.6-2.9,24-3.9,34.2c-1,10.2-1.7,19.3-2.1,27.1c-0.4-5-0.8-10-1.2-15c-0.3-5-0.8-10-1.1-15c-0.4-5.2-0.8-10.4-1.2-15.6
	c-0.3-5.2-0.7-10.4-1.1-15.7c-7,0-14.1,0-21.1,0.1c1.6,15.4,3.2,30.7,4.8,45.9c1.6,15.1,3.3,30.2,4.9,45.2c9-1.1,17.9-2.1,26.9-2.8
	c1.6-11.9,2.9-21.7,3.9-29.4c1-7.7,1.7-13.4,2.2-17.1c0.9,8.5,2,16.6,3,24.2c1.1,7.6,2.3,14.7,3.5,21.4c9-0.5,18.1-0.9,27.1-1.3
	c1.6-14.4,3.2-28.8,4.8-43.1C240.4,40.8,242.1,26.5,243.7,12.1z M248,12.1c0,14.3,0,28.7,0,43c0,14.3,0,28.7,0,43
	c7.2,0,14.4,0.1,21.7,0.3c0-5.8,0-11.6,0-17.4c0-5.8,0-11.6,0-17.4c1.9,0,3.9,0,5.8,0.1c4.7,0.1,8.6-0.4,11.5-1.7
	c2.9-1.3,5-3.2,6.1-5.7c1.1-2.5,1.6-6.5,1.6-12.1c0-2.5,0-5.1,0-7.6c0-5.5-0.3-9.5-0.9-12.1c-0.6-2.6-1.7-4.8-3.3-6.7
	c-1.6-1.8-3.9-3.2-7.1-4.2c-3.2-1-7.8-1.5-13.6-1.5C262.6,12.1,255.3,12.1,248,12.1z M269.7,26.9c2.8,0,4.6,0.5,5.5,1.4
	c0.9,0.9,1.3,2.8,1.3,5.8c0,2.4,0,4.7,0,7.1c0,3.2-0.4,5.3-1.2,6.3c-0.8,1-2.2,1.5-4.1,1.5c-0.5,0-1,0-1.6-0.1
	C269.7,41.5,269.7,34.2,269.7,26.9z M322.7,12.2c-7.3,0-14.5,0-21.7,0c0,14.6,0,29.3,0,43.9c0,14.6,0,29.3,0,43.9
	c7.2,0.5,14.4,1.2,21.7,1.9c0-14.9,0-29.9,0-44.8C322.7,42.1,322.7,27.1,322.7,12.2z M375.1,12.3c-15.8-0.1-31.6-0.1-47.4-0.2
	c0,6,0,12,0,18.1c4.3,0.1,8.6,0.2,12.9,0.3c0,12.3,0,24.5,0,36.7c0,12.2,0,24.5,0,36.7c7.2,1.1,14.4,2.2,21.7,3.4
	c0-12.7,0-25.4,0-38c0-12.7,0-25.4,0-38c4.3,0.2,8.6,0.3,12.9,0.5C375.1,25.3,375.1,18.8,375.1,12.3z M430.7,60.9c0-3.5,0-7,0-10.5
	c0-10.3-0.7-18-2-23c-1.3-4.9-4-9-8.2-12.3c-4.1-3.2-9.4-4.8-15.8-4.8c-4.7,0-8.9,1-12.5,2.9c-3.6,1.9-6.5,4.5-8.5,7.8
	c-2,3.2-3.2,6.6-3.7,10.2c-0.4,3.5-0.6,8.8-0.6,15.9c0,4.8,0,9.6,0,14.4c0,4.8,0,9.6,0,14.3c0,9.6,0.7,17,2,22
	c1.3,5.1,4.1,9.4,8.2,13.1c4.1,3.7,9.3,6.3,15.7,7.9c6.1,1.6,11.3,1.3,15.5-1.1c4.2-2.4,6.9-5.9,8.1-10.3c1.2-4.5,1.8-12.5,1.8-23.9
	c0-1.4,0-2.9,0-4.3c-7.3-1.3-14.5-2.5-21.7-3.6c0,4.4,0,8.8,0,13.1c0,5.8-0.2,9.4-0.7,10.8c-0.5,1.5-1.6,2-3.2,1.7
	c-1.7-0.4-2.8-1.3-3.3-3c-0.5-1.6-0.7-4.9-0.7-10c0-8,0-15.9,0-23.9c0-8,0-15.9,0-23.9c0-5.2,0.2-8.6,0.7-10.1
	c0.5-1.5,1.6-2.3,3.4-2.2c1.6,0.1,2.6,0.8,3.1,2.1c0.5,1.3,0.7,4.7,0.7,10c0,6.1,0,12.2,0,18.3C416.2,59.1,423.4,60,430.7,60.9z
	 M488.4,13c-7.3-0.1-14.5-0.1-21.7-0.2c0,7.3,0,14.6,0,21.9c0,7.3,0,14.6,0,21.9c-2.2-0.3-4.3-0.6-6.5-0.9c0-7.2,0-14.3,0-21.5
	c0-7.1,0-14.3,0-21.5c-7.3,0-14.5-0.1-21.7-0.1c0,18.9,0,37.7,0,56.6c0,18.8,0,37.7,0,56.5c7.2,2.3,14.4,4.7,21.7,7.2
	c0-8.4,0-16.8,0-25.2s0-16.8,0-25.2c2.2,0.5,4.3,0.9,6.5,1.4c0,8.6,0,17.2,0,25.7c0,8.6,0,17.1,0,25.7c7.2,2.6,14.4,5.5,21.7,8.3
	c0-21.8,0-43.5,0-65.3S488.4,34.8,488.4,13z"/>
<path class="st3" d="M58.7,43v4.5c0,0.7-0.5,1.4-1.3,1.4l-0.1-1.4l0.1,1.4c-3.3,0.3-6.6,0.7-10.1,1.1c-3.2,0.3-6.5,0.7-10,1.1
	c-0.1,0-0.2,0-0.2,0c-0.8,0-1.4-0.6-1.4-1.4v-9c0-2.1-0.1-3.8-0.2-5c-0.1-1.2-0.3-2-0.5-2.4c-0.1-0.3-0.3-0.5-0.5-0.6
	c-0.2-0.1-0.4-0.2-0.8-0.1c-0.3,0-0.6,0.1-0.9,0.4c-0.3,0.3-0.6,0.7-0.8,1.2c0,0,0,0.1,0,0.1l0,0l0,0l0,0c-0.3,0.7-0.5,1.6-0.7,2.8
	c-0.2,1.1-0.2,2.5-0.2,4c0,2,0.1,3.8,0.3,5.3c0.2,1.4,0.4,2.6,0.8,3.5c0.3,0.8,0.9,1.8,1.8,2.8c1,1,2.2,2.2,3.8,3.3
	c4.9,3.5,8.8,6.7,11.9,9.6c3.2,3,5.4,5.7,6.7,8.1c1.3,2.5,2.3,5.7,3,9.9c0.6,4.1,1,8.9,1,14.6c0,4.1-0.2,7.7-0.5,10.9
	c-0.4,3.2-0.9,6-1.6,8.2c-0.7,2.3-1.8,4.5-3.2,6.7c-1.4,2.1-3.1,4.2-5.1,6.3c-2.1,2.1-4.3,3.9-6.7,5.5c-2.4,1.5-5,2.8-7.7,3.8
	c-3.1,1.1-5.9,1.8-8.5,1.9c-2.7,0.1-5.2-0.3-7.4-1.3c-2.3-1-4.1-2.4-5.6-4.3c-1.5-1.8-2.6-4-3.2-6.7c-0.7-2.6-1.1-5.7-1.5-9.5
	c-0.3-3.8-0.5-8.1-0.5-13.1v-8.6c0-0.6,0.4-1.2,1.1-1.4l0.4,1.4l-0.4-1.4c3.6-0.9,6.9-1.8,10.1-2.6c3.1-0.8,6.4-1.6,10-2.5
	c0.1,0,0.3-0.1,0.4-0.1c0.8,0,1.4,0.6,1.4,1.4v15.1c0,2.3,0.1,4.2,0.2,5.5c0.1,1.3,0.3,2.1,0.5,2.5c0.1,0.2,0.2,0.4,0.4,0.4
	c0.2,0.1,0.5,0,1-0.1c0.5-0.2,0.9-0.4,1.3-0.8c0.4-0.4,0.8-1,1-1.8c0.3-0.8,0.6-1.8,0.7-3c0.2-1.2,0.2-2.6,0.2-4.1
	c0-3.5-0.2-6.4-0.5-8.5c-0.3-2-0.7-3.4-1.3-4.2c-0.6-0.8-1.8-2-3.4-3.4c-1.7-1.5-3.9-3.2-6.5-5.2c-2.6-2.1-4.8-3.9-6.6-5.5
	c-2-1.8-3.4-3.2-4.3-4.4c-1-1.2-1.8-2.7-2.6-4.4c-0.7-1.7-1.4-3.6-2-5.9c-0.6-2.2-1-4.8-1.3-7.7c-0.3-2.9-0.4-6.2-0.4-9.7
	c0-5.1,0.2-9.5,0.6-13.3c0.4-3.8,1.1-7,1.9-9.5c0.9-2.5,2-4.7,3.4-6.7c1.4-2,3.1-3.6,5.1-5c2-1.4,4.1-2.4,6.4-3.1
	c2.3-0.7,4.9-1,7.6-1c2.9,0,5.6,0.3,8.1,1c2.6,0.7,4.9,1.7,7,3.1c2.1,1.3,3.9,2.9,5.3,4.5c1.4,1.7,2.5,3.6,3.2,5.7
	c0.7,2,1.2,4.6,1.5,8C58.5,34.5,58.7,38.4,58.7,43 M55.9,46.3V43c0-4.6-0.2-8.4-0.5-11.6c-0.3-3.1-0.8-5.6-1.4-7.4
	c-0.6-1.8-1.5-3.3-2.7-4.8c-1.2-1.5-2.8-2.8-4.6-4c-1.9-1.2-4-2.1-6.3-2.7c-2.3-0.6-4.7-0.9-7.4-0.9c-2.5,0-4.7,0.3-6.8,0.9
	c-2,0.6-3.9,1.5-5.6,2.7c-1.7,1.2-3.2,2.7-4.4,4.4c-1.2,1.7-2.2,3.7-3,5.9c-0.8,2.3-1.4,5.2-1.8,8.8c-0.4,3.7-0.6,8-0.6,13
	c0,3.5,0.1,6.6,0.4,9.4c0.3,2.7,0.7,5.2,1.3,7.3c0.6,2.1,1.2,3.9,1.9,5.4c0.7,1.5,1.4,2.8,2.2,3.8c0.9,1.1,2.2,2.5,4,4.1
	c1.7,1.6,3.9,3.4,6.5,5.4c2.7,2.1,4.9,3.9,6.6,5.3c1.8,1.5,3.1,2.8,3.8,3.8c0.8,1.1,1.4,2.9,1.8,5.4c0.3,2.3,0.5,5.3,0.5,9
	c0,1.7-0.1,3.2-0.3,4.5c-0.2,1.4-0.5,2.6-0.9,3.6c-0.4,1.1-1,2-1.6,2.7c-0.7,0.8-1.5,1.3-2.5,1.6c-1,0.3-1.9,0.3-2.7,0.1
	c-0.9-0.3-1.6-0.9-2-1.8c-0.4-0.7-0.6-1.9-0.8-3.5c-0.2-1.5-0.2-3.5-0.2-5.8V94.5c-2.6,0.6-5.4,1.3-8.3,2.1c-3.2,0.8-6.1,1.6-9,2.3
	v7.5c0,4.9,0.1,9.2,0.5,12.9c0.3,3.6,0.8,6.7,1.4,9c0.6,2.2,1.5,4.1,2.7,5.6c1.2,1.5,2.7,2.6,4.6,3.4c1.8,0.8,3.9,1.1,6.1,1
	c2.3-0.1,4.9-0.7,7.7-1.7c2.5-0.9,4.9-2.1,7.2-3.6c2.2-1.4,4.3-3.1,6.2-5.1c1.9-1.9,3.5-3.9,4.8-5.9c1.3-2,2.2-4,2.9-6
	c0.7-2.1,1.2-4.6,1.5-7.6c0.3-3,0.5-6.6,0.5-10.6c0-5.6-0.3-10.3-0.9-14.1c-0.6-3.8-1.5-6.8-2.7-9c-1.2-2.2-3.3-4.7-6.2-7.4
	c-3-2.8-6.9-5.9-11.6-9.4c-1.8-1.3-3.2-2.5-4.3-3.7c-1.2-1.3-2-2.5-2.4-3.7c-0.4-1.1-0.7-2.5-0.9-4.2c-0.2-1.6-0.3-3.5-0.3-5.6
	c0-1.6,0.1-3.1,0.3-4.4c0.2-1.3,0.5-2.5,0.8-3.4l1.3,0.5l-1.3-0.5c0,0,0-0.1,0-0.1c0.4-1,0.9-1.7,1.6-2.3c0.7-0.6,1.6-1,2.6-1
	c0.9-0.1,1.7,0.1,2.4,0.5c0.7,0.4,1.2,1,1.6,1.9c0.3,0.7,0.5,1.8,0.7,3.3c0.1,1.4,0.2,3.2,0.2,5.3v7.4c2.7-0.3,5.5-0.6,8.5-0.9
	C49.9,46.9,52.8,46.6,55.9,46.3z M65.9,12.7l0-1.4l21.6-0.1l0.1,0l-0.1,0c0,0,0.1,0,0.1,0c0.8,0,1.4,0.6,1.4,1.4v42.6v40.8
	c1.5-0.3,3.1-0.6,4.9-1c2.3-0.5,4.5-0.9,6.5-1.3c0.1,0,0.2,0,0.4,0c0.8,0,1.4,0.6,1.4,1.4v20.6c0,0.6-0.4,1.2-1.1,1.4l-0.3-1.4
	l0.3,1.4c-6.1,1.5-11.9,3.1-17.6,4.6c-5.7,1.6-11.4,3.2-17.1,4.8c-0.2,0.1-0.3,0.1-0.5,0.1c-0.8,0-1.4-0.6-1.4-1.4V68.9V12.7v0
	c0-0.8,0.6-1.4,1.4-1.4L65.9,12.7z M86.2,14l-18.9,0.1v54.8v54.3c5.1-1.5,10.3-2.9,15.5-4.4c5.7-1.6,11.2-3,16.6-4.4V96.7
	c-1.7,0.3-3.3,0.7-4.9,1c-1.9,0.4-4.2,0.9-6.6,1.4l0,0c-0.8,0.2-1.5-0.3-1.7-1.1c0-0.1,0-0.2,0-0.3V55.1V14z M155.4,50.8v15.9
	c0,4.6-0.1,8.6-0.2,12c-0.1,3.4-0.2,6-0.4,8c-0.2,2.1-0.6,4.1-1.3,6.1c-0.7,2-1.5,3.9-2.6,5.7c-1.1,1.9-2.4,3.6-3.9,5.1
	c-1.5,1.5-3.1,2.9-5,4.1c-1.8,1.2-3.8,2.3-6,3.2c-2.2,0.9-4.4,1.5-6.9,2c-2.3,0.4-4.4,0.7-6.5,0.7c0,0-0.1,0-0.1,0l0-1.4l0,1.4
	c-2.1,0-4.1-0.3-6-0.8c-1.9-0.5-3.7-1.4-5.2-2.5c-1.6-1.1-2.9-2.5-4.1-4.2c-1.2-1.7-2.1-3.5-2.8-5.4c-0.7-1.9-1.1-4-1.3-6.2
	c-0.2-2.1-0.4-5-0.5-8.8c-0.1-3.8-0.2-8.3-0.2-13.4V54.9c0-5,0-9.4,0.1-13.2c0.1-3.7,0.2-6.6,0.4-8.8c0.2-2.3,0.6-4.4,1.3-6.5
	c0.6-2.1,1.5-4.1,2.6-5.9c1.1-1.9,2.4-3.5,3.9-5c1.5-1.5,3.2-2.7,5.1-3.7c1.9-1,3.9-1.7,6.1-2.2c2.2-0.5,4.5-0.7,6.9-0.7
	c2.3,0,4.5,0.2,6.6,0.7c2.1,0.4,4.1,1.1,6,2c1.9,0.9,3.6,2,5.1,3.3c1.5,1.3,2.9,2.8,4,4.6c1.1,1.7,2.1,3.5,2.7,5.4
	c0.7,1.9,1.1,3.8,1.3,5.8c0.2,1.9,0.4,4.6,0.5,8.1C155.3,42.1,155.4,46.1,155.4,50.8z M152.6,66.7V50.8c0-4.9-0.1-8.9-0.2-12.1
	c-0.1-3.3-0.3-5.9-0.5-7.8c-0.2-1.8-0.6-3.5-1.2-5.2c-0.6-1.7-1.4-3.2-2.4-4.8c-1-1.5-2.2-2.8-3.5-4c-1.3-1.1-2.8-2.1-4.5-2.9
	c-1.7-0.8-3.5-1.4-5.4-1.8c-1.9-0.4-3.9-0.6-6.1-0.6c-2.3,0-4.4,0.2-6.3,0.7c-1.9,0.4-3.7,1.1-5.4,2c-1.6,0.9-3.1,1.9-4.5,3.2
	c-1.3,1.3-2.4,2.7-3.4,4.4c-1,1.7-1.8,3.5-2.4,5.4c-0.6,1.9-1,3.8-1.2,5.9c-0.2,2.1-0.3,5-0.4,8.6c-0.1,3.5-0.1,7.9-0.1,13.2v17.5
	c0,5.3,0.1,9.8,0.2,13.3c0.1,3.7,0.3,6.5,0.5,8.6c0.2,1.9,0.6,3.8,1.2,5.5c0.6,1.7,1.4,3.3,2.4,4.7c1,1.4,2.1,2.6,3.4,3.5
	c1.3,0.9,2.7,1.6,4.4,2.1c1.7,0.5,3.4,0.7,5.3,0.7v0c0,0,0.1,0,0.1,0c1.9,0,3.9-0.2,6-0.6c2.3-0.4,4.4-1.1,6.4-1.8
	c2-0.8,3.8-1.7,5.5-2.9c1.7-1.1,3.2-2.4,4.5-3.8c1.3-1.4,2.5-2.9,3.5-4.6c1-1.7,1.8-3.4,2.4-5.2c0.6-1.8,1-3.6,1.2-5.5
	c0.2-1.9,0.3-4.6,0.4-7.8C152.5,75.5,152.6,71.5,152.6,66.7z M130.9,59.3V37.1c0-2.2-0.1-4-0.2-5.4c-0.1-1.3-0.2-2.3-0.4-2.8
	c-0.1-0.3-0.2-0.5-0.4-0.6l0,0l0.8-1.2l-0.8,1.2c-0.2-0.1-0.5-0.2-0.8-0.2c-0.3,0-0.6,0.1-0.8,0.2c-0.2,0.1-0.4,0.4-0.6,0.7
	c-0.2,0.3-0.4,1.2-0.5,2.5c-0.1,1.4-0.2,3.4-0.2,5.9v22.8v22.8c0,2.8,0.1,5,0.2,6.6c0.1,1.7,0.2,2.8,0.4,3.4
	c0.1,0.3,0.2,0.4,0.3,0.5c0.2,0.1,0.5,0.1,0.9,0c0.5-0.1,0.8-0.2,1.1-0.5c0.3-0.3,0.5-0.7,0.6-1.2c0.2-0.7,0.3-1.9,0.4-3.7
	c0.1-1.7,0.2-4,0.2-6.9V59.3z M133.7,37.1v22.2v22.2c0,2.8-0.1,5.2-0.2,7.1c-0.1,1.9-0.3,3.3-0.5,4.2c-0.3,1.1-0.7,1.9-1.4,2.5
	c-0.7,0.7-1.6,1.1-2.6,1.2c-1,0.2-1.9,0-2.7-0.4c-0.8-0.4-1.3-1.2-1.6-2.2c-0.2-0.7-0.4-2.1-0.5-4c-0.1-1.8-0.2-4.1-0.2-6.8V60.3
	V37.5c0-2.5,0.1-4.6,0.2-6.2c0.2-1.8,0.5-3,0.9-3.7c0.4-0.7,1-1.3,1.6-1.7c0.7-0.4,1.4-0.6,2.2-0.7c1,0,1.8,0.2,2.5,0.7l0,0l0,0l0,0
	l0.1,0c0.7,0.5,1.2,1.2,1.5,2c0.3,0.8,0.5,1.9,0.6,3.5C133.7,33,133.7,34.9,133.7,37.1z M222.6,10.7h21.1h0c0.1,0,0.1,0,0.2,0
	c0.8,0.1,1.3,0.8,1.2,1.6l0,0c-0.9,7.5-1.7,15-2.4,21.5c-0.8,7.2-1.6,14.4-2.4,21.5l-2.4,21.6l-2.4,21.5c0,0.7-0.6,1.3-1.4,1.3
	l0-1.4l0,1.4c-4.5,0.2-9,0.3-13.6,0.5c-4.4,0.2-8.9,0.4-13.4,0.7c-0.7,0.1-1.4-0.4-1.6-1.1l1.4-0.3l-1.4,0.3
	c-0.6-3.3-1.2-6.8-1.8-10.4c-0.6-3.6-1.2-7.3-1.7-11.1c-0.5-3.7-1-7.6-1.6-11.8l-0.1-0.9c-0.2,1.7-0.5,3.6-0.7,5.5
	c-0.5,3.9-1.1,8.3-1.7,13.2c-0.6,4.9-1.4,10.3-2.2,16.1c0,0.7-0.6,1.3-1.3,1.3v0c-4.6,0.4-9.1,0.8-13.4,1.3c-4.4,0.5-8.8,1-13.4,1.5
	c0,0-0.1,0-0.1,0c-0.8,0.1-1.5-0.5-1.6-1.3l1.4-0.2l-1.4,0.1c-0.5-4.2-0.9-8.4-1.4-12.7c-1.2-10.8-2.4-21.6-3.5-32.6
	c-0.6-5.9-1.2-11.7-1.8-17.6c-1-9.4-2-18.8-3-28.2c0-0.1,0-0.2,0-0.2c0-0.8,0.6-1.4,1.4-1.4l0,1.4v-1.4c3.5,0,7,0,10.5,0
	c3.5,0,6.9,0,10.4,0l0,0c0.8-0.1,1.5,0.5,1.5,1.3l-1.4,0.1l1.4-0.1c0.2,2.6,0.3,5.2,0.5,7.9c0.2,2.5,0.4,5.1,0.5,7.7
	c0.2,3.4,0.5,6.9,0.8,10.5c0.1,1.6,0.2,3.2,0.4,5.1c0,0,0,0.1,0,0.1l-1.4,0.1l1.4-0.1c0.2,2.4,0.4,5,0.6,7.5
	c0.1,1.1,0.2,2.1,0.2,3.2c0.2-2.5,0.5-5.1,0.7-7.9c0.5-5.2,1.1-10.6,1.7-16.3c0.6-5.4,1.4-11.4,2.2-17.9c0-0.8,0.6-1.4,1.4-1.4
	l0,1.4v-1.4l22.4,0c0.8-0.1,1.4,0.5,1.5,1.3l-1.4,0.2l1.4-0.2c0.1,0.6,0.2,1.9,0.4,3.7c0.2,1.7,0.3,3.6,0.5,5.4
	c0.1,1.4,0.3,3.2,0.4,5.2c0.3,3.9,0.7,8.6,1.2,14.4c0.3,3.6,0.5,7.3,0.8,10.9l0.1,2c0.3-3.7,0.6-7.4,1-11.2c0.5-5.3,1-10.4,1.6-15.4
	c0.6-5,1.3-10.1,2-15.1C221.3,11.3,221.9,10.7,222.6,10.7z M242.1,13.5h-18.3c-0.6,4.6-1.3,9.2-1.8,13.9c-0.6,5.2-1.2,10.3-1.6,15.3
	c-0.5,5-0.9,10.2-1.3,15.5c-0.4,5.2-0.8,10.5-1,15.7l-1.4-0.1l1.4,0.1c0,0.8-0.7,1.4-1.5,1.3c-0.7,0-1.3-0.6-1.3-1.4
	c-0.2-2.6-0.4-5.4-0.6-8.2c-0.2-2.6-0.4-5.4-0.6-8.2c-0.1-1.9-0.3-3.7-0.4-5.6c-0.2-3.6-0.5-7.2-0.8-10.9
	c-0.4-5.4-0.8-10.3-1.2-14.3c-0.2-1.8-0.3-3.5-0.4-5.2c-0.2-2.5-0.3-4.2-0.5-5.4c-0.1-0.9-0.2-1.7-0.2-2.4l-20.1,0
	c-0.7,5.7-1.4,11.2-2,16.7c-0.7,5.8-1.2,11.2-1.7,16.2c-0.5,5-0.9,9.8-1.2,14.4c-0.4,4.6-0.6,8.8-0.8,12.6l-1.4-0.1l1.4,0.1
	c0,0.8-0.7,1.4-1.5,1.3c-0.7,0-1.3-0.6-1.3-1.4c-0.1-1.5-0.3-3.2-0.4-4.9c-0.3-3.3-0.5-6.6-0.8-10c-0.2-2.4-0.4-4.9-0.6-7.5
	c-0.2-2.5-0.4-5-0.6-7.6h0v0l0,0l0-0.1c-0.1-1.5-0.3-3.3-0.4-5c-0.3-3.4-0.5-6.9-0.8-10.5c-0.2-2.5-0.3-5.1-0.5-7.7
	c-0.2-2.2-0.3-4.3-0.4-6.6c-3.1,0-6.1,0-9.2,0c-3,0-6,0-9,0c0.9,9,1.9,17.9,2.8,26.8c0.6,5.9,1.2,11.7,1.8,17.6
	c1.1,10.8,2.3,21.7,3.5,32.6c0.4,3.7,0.8,7.5,1.2,11.2c3.9-0.5,7.9-0.9,12-1.4c4.2-0.4,8.3-0.9,12.4-1.2c0.7-5.5,1.4-10.5,2-15.1
	c0.6-4.9,1.2-9.3,1.7-13.2c0.5-4,1-7.3,1.3-10.1c0.3-2.6,0.6-4.9,0.9-7l1.4,0.2l-1.4-0.2c0.1-0.8,0.8-1.3,1.6-1.2
	c0.7,0.1,1.2,0.7,1.3,1.4c0.5,4.3,0.9,8.4,1.4,12.3c0.5,3.9,1,7.8,1.6,11.7c0.5,3.8,1.1,7.5,1.7,11c0.5,3.1,1,6.1,1.6,9.1
	c4.1-0.2,8.2-0.5,12.3-0.6c4.1-0.2,8.2-0.4,12.4-0.5l2.2-20.4l2.4-21.6c0.8-7.2,1.6-14.4,2.4-21.5C240.7,26.2,241.4,19.8,242.1,13.5
	z M246.6,55.1v-43c0-0.8,0.6-1.4,1.4-1.4c2.4,0,4.2,0,10.9,0c0.7,0,2.1,0,11,0c3,0,5.7,0.1,8,0.4c2.3,0.3,4.4,0.6,6,1.1
	c1.7,0.5,3.2,1.2,4.5,1.9c1.3,0.8,2.4,1.6,3.2,2.6c0,0,0.1,0.1,0.1,0.1h0c0.9,1,1.6,2.1,2.2,3.4c0.6,1.2,1,2.5,1.4,3.9
	c0.3,1.4,0.5,3.1,0.7,5.2c0.1,2.1,0.2,4.5,0.2,7.2v7.6c0,2.8-0.1,5.3-0.4,7.4c-0.3,2.2-0.7,3.9-1.3,5.3c-0.6,1.4-1.5,2.7-2.7,3.8
	c-1.1,1.1-2.5,1.9-4.1,2.6c-1.6,0.7-3.4,1.2-5.4,1.5c-2,0.3-4.2,0.4-6.7,0.3c-1.3,0-2.5,0-3.7-0.1c0,0-0.1,0-0.1,0l0-1.4l0,1.4
	l-0.5,0V81v17.4l0,0c0,0.8-0.7,1.4-1.5,1.4v0c-6.8-0.2-13.4-0.2-20.1-0.3l-1.4,0c0,0-0.1,0-0.1,0c-0.8,0-1.4-0.6-1.4-1.4V55.1z
	 M249.4,13.5v41.6v41.6l0.1,0c6.2,0,12.5,0.1,18.7,0.2V81V63.6c0-0.8,0.6-1.4,1.4-1.4c0,0,0.1,0,0.1,0c0.6,0,1.2,0,1.8,0v0
	c0,0,0.1,0,0.1,0c1.3,0,2.5,0,3.8,0.1c2.3,0.1,4.3-0.1,6.2-0.3c1.8-0.3,3.4-0.7,4.7-1.3c1.3-0.6,2.4-1.3,3.3-2.1
	c0.9-0.8,1.5-1.8,2-2.9c0.5-1.1,0.9-2.7,1.1-4.6c0.3-1.9,0.4-4.3,0.4-7v-7.6c0-2.7-0.1-5.1-0.2-7c-0.1-2-0.3-3.6-0.6-4.8
	c-0.3-1.2-0.6-2.3-1.1-3.3c-0.5-1-1.1-1.9-1.8-2.7l1.1-0.9l-1.1,0.9c0,0,0-0.1-0.1-0.1c-0.7-0.8-1.5-1.4-2.6-2
	c-1.1-0.6-2.4-1.2-3.9-1.6c-1.5-0.5-3.3-0.8-5.5-1c-2.2-0.2-4.8-0.4-7.7-0.4c-1.5,0-4.4,0-11,0C258.3,13.5,257.8,13.5,249.4,13.5z
	 M269.7,26.9v-1.4c0.8,0,1.4,0.6,1.4,1.4H269.7z M272.8,28.6c-0.5-0.1-1-0.2-1.7-0.2v19.1l0.2,0c0.8,0,1.5-0.1,2-0.3
	c0.4-0.2,0.8-0.4,1-0.6c0.2-0.3,0.4-0.9,0.6-1.7c0.2-1,0.3-2.2,0.3-3.7V34c0-1.4-0.1-2.5-0.3-3.3c-0.2-0.7-0.4-1.2-0.6-1.4
	C274,29,273.5,28.7,272.8,28.6z M269.7,25.4c1.5,0,2.7,0.1,3.8,0.4c1.2,0.3,2.1,0.8,2.7,1.4c0.7,0.6,1.1,1.6,1.4,2.8
	c0.3,1.1,0.4,2.4,0.4,4v7.1c0,1.7-0.1,3.1-0.3,4.2c-0.2,1.3-0.6,2.3-1.1,3c-0.6,0.7-1.3,1.2-2.3,1.6c-0.8,0.3-1.9,0.4-3,0.4
	c-0.3,0-0.6,0-0.8,0c-0.3,0-0.6,0-0.9,0l0.1-1.4l-0.1,1.4c-0.7-0.1-1.3-0.7-1.3-1.4V26.9C268.3,26.1,269,25.4,269.7,25.4z M301,10.7
	l21.6,0h0.1h-0.1c0,0,0.1,0,0.1,0c0.8,0,1.4,0.6,1.4,1.4V57v44.8v0c0,0,0,0.1,0,0.1c-0.1,0.8-0.8,1.3-1.5,1.3l0,0
	c-3.7-0.4-7.3-0.7-10.9-1c-3.5-0.3-7-0.6-10.7-0.9c-0.8,0-1.4-0.6-1.4-1.4V56V12.1v0C299.6,11.3,300.2,10.7,301,10.7L301,10.7z
	 M321.3,13.6l-18.9,0V56v42.6c3.1,0.2,6.3,0.5,9.5,0.8c3.2,0.3,6.2,0.6,9.3,0.9V57V13.6z M373.7,13.7c-14.9-0.1-29.7-0.1-44.6-0.1
	v15.3c3.8,0.1,7.7,0.2,11.5,0.3l0,1.4l0-1.4c0.8,0,1.4,0.7,1.4,1.4v0v36.7v35.5c3,0.4,6.2,0.9,9.6,1.5c3.2,0.5,6.2,1,9.2,1.5V69.4
	v-38c0-0.8,0.6-1.4,1.4-1.4c0.1,0,0.1,0,0.2,0c3.8,0.1,7.5,0.3,11.3,0.4V13.7z M374.5,10.9l0.5,0c-0.2,0-0.3,0.1-0.5,0.1l0.6-0.1
	l-0.1,0c0,0,0.1,0,0.1,0c0.8,0,1.4,0.6,1.4,1.4v19.5v0l0,0.1c0,0.8-0.7,1.4-1.5,1.4v0l-0.9,0c-3.6-0.1-7.1-0.3-10.6-0.4v36.6v38v0
	c0,0.1,0,0.2,0,0.2c-0.1,0.8-0.9,1.3-1.6,1.2l0,0c-3.8-0.6-7.3-1.2-10.8-1.8c-3.3-0.5-6.9-1.1-10.8-1.6c-0.7-0.1-1.3-0.7-1.3-1.4
	V67.3V32c-3.8-0.1-7.6-0.2-11.4-0.3c0,0-0.1,0-0.1,0c-0.8,0-1.4-0.6-1.4-1.4V12.2v0c0-0.8,0.6-1.4,1.4-1.4v0
	C343.3,10.8,358.9,10.9,374.5,10.9z M432.1,50.4v10.5v0c0,0.1,0,0.1,0,0.2c-0.1,0.8-0.8,1.3-1.6,1.2l0,0c-3-0.4-6.6-0.8-10.9-1.4
	c-3.7-0.5-7.3-0.9-10.8-1.3c-0.7,0-1.3-0.7-1.3-1.4V40c0-2.6-0.1-4.8-0.2-6.4c-0.1-1.5-0.2-2.6-0.4-3.1c-0.1-0.4-0.3-0.6-0.6-0.8
	c-0.3-0.2-0.7-0.3-1.2-0.3c-0.5,0-1,0.1-1.3,0.2c0,0-0.1,0-0.1,0.1l0,0l0,0l-0.8-1.2l0.8,1.2c-0.3,0.2-0.5,0.5-0.6,1
	c-0.2,0.7-0.4,1.8-0.5,3.4c-0.1,1.6-0.2,3.8-0.2,6.3v23.9v23.9c0,2.5,0.1,4.5,0.2,6.2c0.1,1.6,0.3,2.7,0.5,3.4
	c0.2,0.6,0.4,1,0.8,1.4c0.3,0.3,0.8,0.5,1.4,0.7c0.5,0.1,0.8,0.1,1,0c0.2-0.1,0.4-0.3,0.5-0.7c0.2-0.6,0.4-1.7,0.5-3.4
	c0.1-1.7,0.2-4.1,0.2-6.9V75.4c0-0.1,0-0.1,0-0.2c0.1-0.8,0.8-1.3,1.6-1.2v0c3.8,0.6,7.4,1.2,10.8,1.8c3.7,0.6,7.3,1.2,10.8,1.8
	c0.7,0.1,1.2,0.7,1.2,1.4v4.3c0,5.7-0.2,10.6-0.5,14.6c-0.3,4.1-0.8,7.3-1.4,9.6c-0.6,2.4-1.7,4.6-3.2,6.4c-1.5,1.9-3.3,3.5-5.6,4.7
	c-2.3,1.3-4.8,2-7.6,2.2c-2.7,0.2-5.7-0.2-8.9-1c-3.3-0.8-6.3-1.9-9-3.3c-2.7-1.4-5.2-3-7.3-4.9c-2.2-1.9-4-4-5.4-6.3
	c-1.4-2.3-2.5-4.7-3.2-7.4c0,0,0-0.1,0-0.1l1.4-0.4l-1.4,0.4c-0.7-2.6-1.2-5.7-1.5-9.5c-0.3-3.7-0.5-8-0.5-12.8V61.4V47
	c0-3.4,0.1-6.5,0.2-9.3c0.1-2.7,0.3-5,0.5-6.8c0.2-1.9,0.6-3.7,1.3-5.5c0.6-1.8,1.5-3.5,2.6-5.2c1.1-1.7,2.4-3.3,3.9-4.7
	c1.5-1.4,3.2-2.6,5.2-3.6c1.9-1,4-1.8,6.2-2.3c2.2-0.5,4.5-0.8,6.9-0.8c3.3,0,6.4,0.4,9.2,1.3c2.8,0.9,5.3,2.1,7.5,3.8
	c2.2,1.7,4,3.7,5.5,5.9c1.5,2.2,2.5,4.6,3.2,7.2c0.7,2.6,1.2,5.8,1.5,9.7C432,40.7,432.1,45.2,432.1,50.4z M429.3,59.3v-8.9
	c0-5.1-0.2-9.6-0.5-13.4c-0.3-3.8-0.8-6.9-1.4-9.3c-0.6-2.3-1.6-4.4-2.8-6.4c-1.3-1.9-2.9-3.7-4.9-5.2c-1.9-1.5-4.1-2.6-6.6-3.4
	c-2.5-0.8-5.3-1.1-8.4-1.1c-2.2,0-4.3,0.2-6.3,0.7c-2,0.5-3.8,1.2-5.5,2.1c-1.7,0.9-3.2,2-4.6,3.2c-1.3,1.2-2.5,2.6-3.4,4.1
	c-1,1.5-1.7,3.1-2.3,4.7c-0.6,1.6-1,3.2-1.1,4.9c-0.2,1.8-0.4,4-0.5,6.6c-0.1,2.5-0.2,5.6-0.2,9.2v14.4v14.3c0,4.8,0.2,9,0.5,12.6
	c0.3,3.6,0.8,6.6,1.4,9h0l0,0l0,0c0,0,0,0.1,0,0.1c0.6,2.4,1.6,4.5,2.9,6.6c1.3,2.1,2.9,4,4.9,5.7c2,1.7,4.2,3.2,6.7,4.5
	c2.5,1.3,5.3,2.3,8.4,3.1c2.9,0.7,5.6,1,8,0.9c2.4-0.2,4.5-0.8,6.4-1.9c1.9-1.1,3.5-2.5,4.7-4c1.2-1.6,2.1-3.4,2.7-5.4
	c0.6-2.2,1-5.2,1.3-9.1c0.3-3.9,0.5-8.7,0.5-14.4v-3.1c-3.3-0.6-6.5-1.1-9.7-1.6c-3.2-0.5-6.2-1-9.2-1.5v11.5c0,2.9-0.1,5.2-0.2,7.1
	c-0.1,1.9-0.3,3.3-0.6,4.2c-0.4,1.1-1,1.8-1.9,2.3c-0.8,0.4-1.8,0.5-3,0.3c-1.1-0.2-2-0.7-2.7-1.4c-0.7-0.7-1.3-1.5-1.6-2.6
	c-0.3-0.9-0.5-2.3-0.6-4c-0.1-1.7-0.2-3.8-0.2-6.4V64.2V40.2c0-2.6,0.1-4.8,0.2-6.5c0.1-1.8,0.3-3.2,0.6-4c0.4-1.1,1-1.9,1.8-2.5
	l0,0c0.1,0,0.1-0.1,0.2-0.1c0.8-0.5,1.7-0.7,2.9-0.6c1.1,0,2,0.3,2.7,0.8c0.8,0.5,1.3,1.3,1.7,2.2c0.3,0.8,0.5,2.1,0.6,3.9
	c0.1,1.7,0.2,3.9,0.2,6.6v17c3.3,0.4,6.5,0.8,9.6,1.2C422.6,58.5,425.7,58.9,429.3,59.3z M466.7,11.5l21.6,0.2l0.1,0l-0.1,0
	c0,0,0.1,0,0.1,0c0.8,0,1.4,0.6,1.4,1.4v65.3v65.3c0,0.2,0,0.4-0.1,0.5c-0.3,0.7-1.1,1.1-1.8,0.8l0,0c-3.8-1.5-7.5-3-10.9-4.2
	c-3.5-1.4-7.1-2.7-10.7-4c-0.6-0.2-1-0.7-1-1.4v-25.7V85c-1.3-0.3-2.5-0.5-3.7-0.8v23.5v25.2c0,0.2,0,0.3-0.1,0.5
	c-0.3,0.7-1.1,1.1-1.8,0.9l0,0c-3.5-1.2-7.2-2.4-10.9-3.6c-3.6-1.2-7.2-2.3-10.8-3.5c-0.6-0.2-1-0.7-1-1.4V69.2V12.7v0
	c0-0.8,0.6-1.4,1.4-1.4v0c3.6,0,7.1,0,10.7,0.1c3.6,0,7.2,0,10.9,0.1c0,0,0.1,0,0.1,0c0.8,0,1.4,0.6,1.4,1.4v21.5v20.2l3.7,0.5V34.8
	V12.9v0C465.2,12.1,465.9,11.4,466.7,11.5L466.7,11.5z M487,14.4l-18.9-0.1v20.5v21.9c0,0.8-0.6,1.4-1.4,1.4c-0.1,0-0.2,0-0.3,0
	l-6.4-0.9l0.2-1.4l-0.2,1.4c-0.7-0.1-1.2-0.7-1.2-1.4v0V34.3V14.2c-3.2,0-6.4,0-9.6-0.1c-3.1,0-6.2,0-9.3-0.1v55.1v55.5
	c3.3,1,6.6,2.1,9.9,3.2c2.9,1,5.9,2,9,3v-23.2V82.5c0-0.8,0.6-1.4,1.4-1.4c0.1,0,0.3,0,0.4,0.1c2.2,0.5,4.5,0.9,6.4,1.4l-0.3,1.4
	l0.3-1.4c0.7,0.1,1.1,0.7,1.1,1.4v0v25.7v24.7c3.3,1.2,6.6,2.5,9.9,3.8c3.2,1.2,6.1,2.4,8.9,3.5V78.3V14.4z"/>
<path class="st3" d="M388.8,345.9c-0.7-0.5-1.2-0.1-2.2-0.5c-1.1-1.5-2.3-3.3-1.2-5.1c1.5-1.6,1.4-5.1,0.3-7.2
	c-0.6-1.2-0.5-1.7-1.1-3.4c-0.2-0.7-1.1-2.1-2.4-1.9c0.3-0.1-0.2-0.9-0.9-1.9c-0.9-0.9-1.1-1.3-3.2-1.9c-0.3,0.2-1.4-0.6-1.3-0.8
	c-0.6-2.5-2.8-3.3-4.6-4.8c-0.9,0.8-0.7,0.2-1.8,0.6c-1-1.3-1.4-2.4-0.7-3.4c-0.1-1.4,0-1-1.1-1.6c-2.7-0.6-5.2-1.8-7.6-2.1
	c-5.4-1.7-10.8-3.4-15.4-5c-5.7-1.7-18.3-3.6-23.6-5c-9.1-1.4-19.1-5.4-21.1-5.2c-2.9,0.7-4.4-1.5-5.5-2.8c-2.3-2.5-2.8-5.4-2.9-8.4
	c-0.6-0.6-0.4-1.8-1.5-2.8c-1.7-3.2-2.2-5.7-2.3-9.3c-0.1-4.2-0.7-7.2,0.1-10.6c0.3-3.6,0.7-7.4,0.6-11.4c-0.1,0.5-0.2-0.8,0.2-0.7
	c-0.8-0.7-1.3-0.1-0.9-0.2c-2.9,1.2-5.3,2.2-8,2.5c-1.5,0.5-2.3,1.7-3.9,0.9c-0.5,1.1-1.8,1.3-2.4,1.4c-1.1-0.1-1.2-0.1-2.1,1.4
	c0.4-0.6-0.2,1.1-1.3,0c0,1.1-0.6,1.3-0.5,2.5c-0.8,2.3-0.7,3-1.4,5.5c-1,2.5-2.3,4.8-3.4,6.4c-0.1,1-0.1,1.4-0.6,1.3
	c-2.2,2-3.8,3.5-4.9,6.1c-1.2,1.8-2.8,4.3-4.7,4.5c-3,1.3-6.1,3.8-9.1,4.8c-1.6,0.7-2.7,2-4.2,2.2c-2.5,0.2-5.4,1.2-7.9,2.1
	c-4.6-0.3-9.1,2.4-13,5.3c-3.7,4.6-8.4,7.4-12.5,10.4c-0.1,0.9,0.2,2.2-0.2,1.5c1.6,1.1,0.7,1.7-0.4,2.6c0.2,0.7-0.1,1.1-0.6,3
	c-0.6,2.6,0.3,4.1-0.4,6.5c0.2,0.7-0.3,1.2-1.4,3.1c-0.8,0.5-0.9,0.8-1.8,2.1c-0.9,2-3.4,4.3-6.5,5.3c-0.7,0.3-1.3,0-1.7-0.4
	c-0.9-1.8-0.3-1.2-2-1.1c-0.6-0.2-0.1-0.1-1.4,0.9c-0.5-0.6-1,0.3-3.1-0.7c-0.8,0.2-2.7-0.3-2.4-2.4c-0.7-0.2-0.2-0.6-0.6-0.4
	c-2.2-0.6-4.1,0.3-6.1-0.7c-0.7,1.1-2,1.4-1.7,2.1c-1.2,0.8-2.7,1.3-4.5,0.8c-1.1,0.5-2.1,0.9-2.6,1.1c-1.2-1.9-3.3-1.7-5.6-1.3
	c-0.9,0.6-2.7,0.2-3.3-1.8c-1.1-1.3-2.5-1.2-2.7-1c-1.2,0.4-1.6,0.6-2.4,0.9c-0.3-0.9-0.8-0.6-2.1-0.6c-1.9,0.2-2.1-0.2-3-2.5
	c0.5-0.9-0.2-1.1-0.3-1.4c-2.4-1.3-3.5-2.7-4.4-4.9c-0.4-0.2-0.9-1-0.6-1.1c0.1-3.6,0.1-5.3,1.1-8.3c1-0.6,1.7-2.1,1.9-2.3
	c2.7-0.6,5-0.3,7.7-0.5c1.5,0.7,2.5,0.5,2.9,1.2c0.9,0,1.2-0.6,1.7-0.5c0.1-0.5,1.3-0.8,0.9-0.8c2.4-0.1,4.4-0.3,6.2-0.8
	c2-0.5,3.2-0.5,4.5-2.5c-0.4-1.1,1-0.6,2.1-0.9c4-1.9,7.5-1.8,11.7-3.3c0.8-0.2,1.8,0.4,3.6,0.1c0.1-0.1,0.5,0.2,2.1-0.2
	c2.5-4,5.9-6.8,9.3-10.8c5.6-6.9,10.4-12.6,15-19.5c3.5-3.2,7.8-8.2,11.2-11.2c1-1,3.1-1.8,4.2-4.2c1-0.9,8.4-7.9,8.9-8.1
	c0.2-0.7,1-1.5,1-3c1.1-2.5,2.4-5.3,3.6-7c0.5-0.6,0.6-1.2,0.8-1.3c2.8-1.8,5.6-2.8,8.8-3.7c0.8-0.9,2.5-2.2,3.5-3.3
	c2.1-3.2,5-6.4,7.3-9.1c3.2-3.6,5.4-6.5,9.1-7.9c3-3.7,6.9-5.9,10.6-8.1c4-3.8,7.8-5.9,12.2-9.1c1-1,3-2.3,4.8-2.3
	c0.8,0,1.6-1.5,2-1.3c1.3-2.1,2.6-3.6,4.1-6c1.4-0.8,1.7-1.3,0.4-2.9c-1.5-1.3-3.2-3.8-4.6-6.1c-0.5-0.9,0.2-1.7-0.3-2.1
	c0.1-2.8,1.3-5.4,1.5-7.4c-0.2-1.5-0.7-3.3-0.8-4.8c-0.2-1.3-0.2-2.2-0.1-3.4c-0.7-1.4-0.5-1.6-1.3-1.7c-4-0.2-7.7-0.6-11,0.4
	c-2.3,0.4-5.2,0.6-8.3,1.3c-3.1,0.7-7.3,1.8-11.1,2c-1.3-0.3-2.5-0.8-4.2-0.8c-3.8-1.5-7.9-2.9-12.8-4.8c-2.9-1.2-6.7-2-10.1-3.1
	c-1.8-0.3-3.6-1.1-5.2-0.8c-2.1-0.6-3.6-0.8-5.5-1.3c-3.3,0-6.4,0-9.6-0.3c-3.1-0.2-6.1,1.4-8.4,2c-1.6,0.7-2.7,0.9-5,1.5
	c-1.3-0.4-2,0.2-2.7,1c-1.3,0.1-3,0.4-3.7,0.7c-2.4-0.6-4.1-0.7-5.7-0.9c-1.8,0.2-3,0.7-2.5-0.6c-0.9-1.5-1.1-1.3-3.2-0.9
	c-6,1.5-13.8,2.8-20.3,4.5c-6.2,1.5-10.8,2.5-17.1,4.2c-4.8,0.5-9.1,2.1-14.8,3.3c-5.2,1.5-11.7,3.6-18.2,3.7
	c-5.4,1.5-11.9,3.7-16.9,4.4c-6.4,1.7-13.8,3.5-20.2,5.6c-2.1,0.9-5,0.7-7.3,2.1c-1.9,0.5-4.5-1.3-5.9-4.1
	c-3.4-5.2,1.8-12.9,6.2-13.8c5.7-0.3,11.6-1.4,16.3-1.9c7.2-1.5,14-2.9,21-3.6c4.2-1.3,8.2-2,13.9-2.7c4.7-1.1,11.5-2.4,16.9-3.1
	c5.9-1.1,12.9-2.8,19.5-3.4c3.6-1.3,8.7-2,12-2.6c3.9-0.8,7.4-3,11.4-0.7c0.5-2,1.9-3.5,0.9-3.8c1.2-0.3,1.4-2,3.4-2.1
	c1.5-0.2,2.7-0.4,2.6-2.6c0.2-1,0.9-1.2,2.3-1.2c0.3,0.1,1.2,0.4,1.3-0.1c0,0.4,1.1,0.1,1.9-0.8c1.5-0.4,2.3-0.9,3.8,0.1
	c0.9,0.2,1-0.2,1.8-0.6c1,0.4,2,0.5,1.7,0.8c1.8,0.5,2.1,0.2,2.5-0.3c0.4-0.9,2.6-1,3.1,0.2c1.1,0.1,0.9-0.6,1.3-1.5
	c1-0.2,0.8-1.1,1.6-1.8c1.8-0.5,3.4-0.9,3.8-1.8c1,0.2,0.9,0.6,1.2,0.2c4.3-1.4,8.7-0.7,13.7-0.9c1.8-0.1,4.2,0,7,0
	c2.3,0.2,4.6-0.2,7-0.3c4.3-1.2,9.4-2.2,13.1-4.9c2-0.9,3.8-1.5,5.4-2.9c2.4-1.8,6.6-3.7,10-4.1c2.7-0.1,5.8,0.9,9,0.4
	c3.2,1,6.1,2.1,8.6,2.9c0.3-0.1,1.3,0,2.1,0c2.4-0.6,4.3-0.1,6.5-0.9c0.5-0.5,0.8-0.5,1.3-0.6c3.4-1.7,5.3-2.2,8.4-3.4
	c0.6-1.1,1.7-1.3,3.1-2.5c0.8,1,0.3,0.7,0.7,0c-0.1-1.1-0.6-1.2-0.9-0.8c-0.9-0.8-1.8-1.7-2.8-3.1c-0.2-1.5,0.3-2.4-0.2-3
	c0.6-2,0.6-2.6,0.3-3.8c0.2-1.2,0-1.6-1.4-2.3c-1.4-1.6-1.3-2.1-1.1-3.4c0.6-1.8,1.4-2.9,1.3-4.5c0.9-0.5,1.2-1.1,1.7-2.1
	c0.1-2.1-0.4-2.6-1-1.5c-2.9-1.5-5.1-0.8-8.1-1.5c-1.3-0.5-1.8-0.5-2-1.2c0.1-1.4,0.3-1.7,0.5-3.1c2.8-2,4-2.1,6.7-4.1
	c1.6-0.8,3.1-1.2,4.9-0.9c-0.2-0.2,0.7-1.4,0.7-1.4c0.9-0.6,1.3-2.5,2.4-3.2c2.4-2.7,3.8-6,7.7-6.3c1.9-0.7,4.8-0.8,7-1
	c4.1,1,8.7,2.1,13,1.9c3.3,1.6,6.1,3.9,8.3,5.3c3.7,2.8,4,6.5,4.3,10.8c1.2,2.8,0.5,5.6,0.1,9.8c0.2,0.4-0.9,2.3-2.1,1.6
	c-1.4,1.3-1.3,2.6-2.2,3c0,0.5-1,1.5-1.2,2.3c-1,1.3-0.5,2.1,0.4,1.1c1.8,1,3.5,1.8,5.5,2.4c4.1,2.6,7.1,5.2,9.5,9.3
	c0.8,2.9,2.6,4.5,3.2,7.1c0.8,5.1,0.6,9.4-1.1,13.3c-1.5,3.6-2.3,6.9-4.2,9.4c-0.4,2.8-1.5,3.1-2.3,5.3c-1.4,2.6-3.1,6.1-4.5,9.1
	c-0.8,0.7-1.2,1.9-1.9,3.1c-0.5,0.8-0.2,1.6-0.9,2.1c-0.4,1.8-0.7,2.8-1.1,2.9c-1.9,2.4-1.2,4.5-0.6,6.7c1,1.6,1.4,2.4,2.1,3.6
	c0.6,3-1.5,5.1-2.3,7.4c-0.9,1.8-2.1,1.9-2.3,3c-1.5,1.6-1,3-1.1,5c-0.4,1.7,0.2,4.7,0.2,6.7c0.7,4.3,0,7.2-0.8,10.7
	c-0.1,3-1.3,4.1-3,5.5c-2.1,4.8-4.7,8.6-7.6,12.7c-0.9,1.7-1.7,3-2.5,5.3c-0.8,4-6,22.9-7.9,26.7l-4.5-1.5c-1.9,3.2-1.9,5.7-3.2,8.8
	c-0.4,0.9-0.1,1.1,1.4,1.5c2.6,0.8,5.5,2.2,8,3.5c0.9,0.8,0.9,1.2,1.3,2.4c2.3,2.7,4.8,6.6,6.8,9.4c0.4,0.8,0.7,0.6,1,1.1
	c3.1,2.8,5.2,5.3,9,7.5c1.3,0.2,4,1.1,5.5,2c3.1,1.3,7.3,1.9,10.3,2.6c1-0.1,2.2,0.4,2-0.4c1.4-1.7,2.6-1.9,3.5-0.7
	c0.8,0.7,0.9-0.1,1.7-0.8c2.5-1,6.5-2.2,10.2-2.4c0.9,1.4,2.5,1,3.4,2.7c0.7,0.3,1.3,0.2,1.9,1c-0.2,0.8,1.1,0.7,1.2,0
	c0.8,2.1,2.4,3.8,3.6,4.9c0.3,1.5,0.4,2.4-0.5,3.1c-0.5,1.3-0.8,0.6,0.1,1.7c0.2,2.3,0.8,3.5,0.4,4.6c-0.3,1.5,0.9,2.6,1.3,4.7
	c1.2,1.5,1.9,1.8,2.8,3.3c1.6,1.2,1.4,2.8,2.2,4.9c0.1,0,0.5,1.4,1.4,2.1c0.5,0.6,1.6,2.1,1.4,2.5c0,1.4,0.1,2.3,0,3.3
	c-0.1,0.8-1,1.9-1.8,2.6c-1.2,0.5-1.1,0.5-0.8,2.1c1.9,1.7,0.8,4.8-1.3,7c-0.4,0-0.3,0.3-1,0.4c-0.8,0.7-0.4,0.2-0.6,0.8
	c1.2,2.9,0.8,4.3-0.9,4.4c-0.8,0.7-2.3,0.8-3,1.3C394.4,345.9,392,345.9,388.8,345.9"/>
<path class="st2" d="M197.7,138.3L197.7,138.3c-0.4,0.5-0.7,1,0.2,1.5c-1-0.4-0.8-1.2-0.8-0.6c0,0.1,0.3,0.1,0.5,1.1
	c0.5-1.1,0.3-1.4,0.6-1.7C198.7,139.3,198.4,138.3,197.7,138.3 M350,85.3L350,85.3c-1.1,0.6-1,0.8-1,1.7c-0.3,1.1-0.6,0.4-1,1.3
	c0.8,0.9,0.6,0.6,0.4,0.4c0.5,0.7,0.7-1,1.3-0.8C349.6,86.6,349.8,85.7,350,85.3z M152.4,320.6L152.4,320.6c0.2,1.8,2.9,2,3.8,2.7
	C154.8,321.4,153.6,321.1,152.4,320.6z M320.7,105.2L320.7,105.2c0.7,0.3,0.4,0.8,0.9,1.1c1.1-0.4,1.9,0.4,2,0.7
	c0.2-1.2,0-1.1-0.1-2c-0.2,0.2-1,0-1.1-1.1C321.4,103.8,320.8,103.4,320.7,105.2z M329.6,101.1L329.6,101.1c-0.1,1.2-0.3,1-0.3,0.7
	c-0.1-0.3,0.4,1.2,0.6,1c-0.1,0.2-0.3,1.3,0.2,1.5c0.4-0.3,0.8-0.3,1.1-2c-0.3-0.9,0.1-1.9-0.3-2.8c-0.4-1.2-1.1-1.7-1.1-1.5
	c-0.3-0.3-0.4-0.2-1.1,0.4c0.4-1.2-0.2-0.8,0.2,0.5C329.1,99.7,329.7,100.3,329.6,101.1z M321.6,89.8L321.6,89.8
	c-0.4,0.9,0,0.4-0.4-0.1c0.3-0.5,0,0.5-0.7,0.4c0.2-1.3-0.5-0.9-0.7,0.6c-0.7,0.4-0.4,1.3-1.2,2.4c0.3,0-0.4,1.2,0.2,1.2
	c0.6,0.1,0.8,0.3,2,0.5c-0.3,0,0.4-1.1,0.3-0.6C320.6,92.6,320.9,91.3,321.6,89.8z M213.4,141.6L213.4,141.6c0.1-2,0.4,0.7,0.8-1.6
	c0.9-2.8,0.9-0.9,2.6-3.9c-1-0.6-0.8-2-0.3-1.8c-1,0.7-1.7,0.2-2.1,0.8c-0.4,0.7-1.1,4.3-1.4,7.5C212.4,142.1,213,141.2,213.4,141.6
	z M352.5,84.2L352.5,84.2c0.2,0.4,0.2,0.1,0.4,0.6c0,3.4-0.9,6.4-4.1,8c0.1-0.7,0.2,0.5-0.2,1.1c0.2-0.4,0.1,0.2,0.9-0.6
	c0.2-0.1,0.9-0.1,1.5-1.6c1.4-1.3,1.8-2.5,3.1-4.7C354.8,86.4,354.5,85,352.5,84.2z M204.6,140.7L204.6,140.7
	c0.6-2.5,1.6-1.2,1.1-1.5c-0.3,2.9,0.7,0.8,1-1.2c0.5,0.3-0.5,2.3-0.3,1.2c0.6-2.1,1.2-3,1.7-4.5c0.4,0,0.8-1.1,0.6-2.1
	c-1.3,0.9-1.8,0.9-1.8,1C205.8,135.3,206.1,138.3,204.6,140.7z M351.9,98.5L351.9,98.5c-0.2,0-0.5-0.3-1-2.2
	c-0.9-0.8-0.8-0.9-1.7,0.7c-1.5,0.2-1.8,1.1-2.6,2.6c-0.5-0.3-0.6-0.3-1.3,0.5c1.2,0.3,1.3-0.2,2.5-0.3c0.9-0.3,2-0.6,2.9,0
	C351.6,99.3,351.1,99.7,351.9,98.5z M198.5,142.9L198.5,142.9c2.3-2.8,3.3-5.4,4.4-6.7c1-0.4,0.8-1.3,0.6-1.8
	c-0.3,0.2-0.6-0.1-1.9,0.7c0.5-0.2-0.1,0.3,0.1,0.9c-1.9,2-2.3,3.5-3,6.2C199,142.1,198.5,142.4,198.5,142.9z M208.9,139.2
	L208.9,139.2c-0.5,1.2,1.1,2.5,0.5,3.1c0.9-0.2,0.2-0.4,0.4-1.8c0.9,0,0.7-2.5,2.3-1.4c0.2-0.3-0.2-2.6,0.3-4.1
	c0.2-0.4-0.3-1.3-0.8-0.5c0.5-0.6-0.4-0.6-1,0.6C209.6,137.2,208.9,137.6,208.9,139.2z M245.4,135.9L245.4,135.9
	c-0.5,0.2-1,0.4-0.6,0.5c-0.1-2.2-0.8-4.1-1.5-5.8c-0.8,0-1.1-0.4-1.6-0.6c-0.4,0.3-0.9,0.8-1.4,1.9c-0.1,0.1,0.2,0.7-0.2,1.7
	c0.4,2.3,0.1,5,1,5.4c0.5,2,2.1,0.4,2.4-0.1C244.5,137.2,244.3,138.3,245.4,135.9z M347.2,75.2L347.2,75.2c0.3,0.6-0.2-0.2,0.2,0.4
	c0.7,0,1-0.7,2-0.3c0.3,0.4,0.5,0.2,1.2,0c-0.3-0.8-0.3-1.6-0.6-1.1c-0.6-1.9-1.4-2.8-2.6-2.5c-3.8-1.7-7.2-1.5-10.4,0.8
	c-0.4,0.1-0.9-0.1-1.1-0.1c0.5,0.1,0.9,0.4,0.9,1.2C340.8,73.9,343.6,74.4,347.2,75.2z M200.4,326.9L200.4,326.9
	c-0.2,0.5-0.4-0.5,0.2,0c-3-0.4-5.5-1.3-8.5-2c-5.2-2.1-9.4-2.4-15.9-1c-3.1,2.4-7.8,1-12,0.5c-0.8,0-1.9-0.1-1.7,0.1
	c-0.3,0.4,0.1,0.4-0.6,0.7c-0.1-0.2,0.9-0.3,0.5-0.3c1.8,0.7,2.3,0.1,2.5,1.1c3.8,1.2,8.8,1.5,14.6-0.2c2.3-0.8,6.4-0.4,9.5,0.4
	c2.5-0.5,4.3,1.1,7.1,1c1.6,1.1,1.8,1,3.2,0.6C199.8,328.5,200.5,326.6,200.4,326.9z M182.4,302.9L182.4,302.9
	c-0.3,0.9-0.5,0.4-0.8-0.2c-2.1,0.4-3.1,0.7-5.2,1.8c-0.5-0.7-0.4,0.5,0,1.3c1.5,0.7,2.3,0.9,3.3,1.4c1.3,1.1,2.7,2.2,3.9,0.4
	c0.4,0.5,2.2-0.3,3.2-0.1c0.3-0.8,1.3-2.9,2.9-1.1c0.2,0.3,1.1-0.5,0.8-1c-0.1-0.6-0.3-0.2,0.5-1.6c0.3-2.1-1.1-2.4-1.5-1.5
	c-1.5-0.4-3.3,0.6-4,0.1C184.1,302.4,183.6,303.3,182.4,302.9z M205.3,316.2L205.3,316.2c0.6-2.8,0.8-2.8-0.8-3.3
	c-0.6,0.3-1.5,0-2.2,0.1c-1,0.3-1.1-0.4-1.8,0.6c-1.4,0.6-2.8,0.7-3.8,1.4c-1.9,1.4-4.1,4.2-6.2,6.1c0.1,0.5,0.7,1.9,0.4,1.1
	c1,0.9-0.1,0.6,1-0.7c0,0.4,1.4-1.7,1.3-2.3c2.3-2.5,4.7-3.6,7.9-4.9c1.2,0,2.4,0.2,2.2,0.1c0.9,0.8,0.7,2,0.3,1.3
	c0.8,0.7,0.3,0.7-1.1,1c-1.4-0.2-2.4,0.9-5.1,2.5c0.2-0.1,0,1.4,0.1,1.8c0.2-0.7,0.5-0.8,1.5,0.1c0.5-0.1,0.9,0.1-0.4,1.3
	c0.3-0.1,0.3,1.4,0.6,2.1c0.3-0.3,0.6,0.8,2.1-0.2c1.6-1,2.4-1.9,3.6-3.4C205.1,319.9,206.2,317.2,205.3,316.2z M363.3,147.2
	L363.3,147.2c0.7-0.1,1.2-0.8,2-1.3c3.9-3.8,5.5-10.7,7.9-16.9c0.2-0.8-0.3-1.2-0.4-1.3c-0.2,0.1,0.1,0.4-0.8,0.7
	c-1.7,2.9-5.1,5.2-7.6,6.9c-2.6,2.9-4.2,3.7-7,4c-0.8,0.2-1,0.6,0.4,2.8c0.5-0.2,0.7,0.2,0.8,0.8c0.1,0.2,0.4,0.9,0.5,0.9
	c-0.7,1,0.3,1.9,0.9,2.5C360.5,146.3,361.9,146.4,363.3,147.2z M338.2,81.4L338.2,81.4c0.3-0.2,0.5,1.1-0.1,0.9
	c-0.1,0-0.4-0.8-1.1-0.7c-0.8,0.1-1.7,0.7-1.7,1.6c-0.9,1.6,0.1,1.4,1,1.7c0.4-0.4,1.3,0.3,0.5,0.9c-0.2,0.8-0.4,0.4-0.6,1.2
	c-0.3-0.1-0.7-0.3-1.7-0.2c-0.2-0.1-0.7-0.6-0.2,1.2c0.3,0.5,0.2,1-0.3,1.5c-0.8,0.5-2.5,1.1-3.5,1.4c-0.4-0.1-0.1,0.3-0.6,1.1
	c-0.1-0.1,0.6,0.2,0.5,0.6c0.8-0.8,0.7,0.3,1.4,0.6c1.5,0.8,1.7,0.7,1.6,3.1c0.2,0.6-0.3,1-0.5,2.8c-0.1,1.8,0,3.8,0,4.1
	c-0.1,1-0.6,1.7-0.1,1.1c0,0.1,0.1,0.8,0.5,0.9c2.6-1.9,4.1-2.8,5.3-5.1c0.6-0.9,0.7-1.1,0.1-1.1c-0.9-1.8-1.7-2.4-2.5-1.9
	c-0.4-1.7-0.9-1.5,0.5-2.4c0.7-0.2,0.6-0.8,0.9-0.9c1.5-0.3,1.9-0.7,1.3-3.7c0-0.9,0.3-1.9,1-1.4c1.2-0.8,1.9-1.7,1.6-2.6
	c1.2-1.5,0.9-2.5,0.1-4.1C340.7,81.8,339.6,81.8,338.2,81.4z M311.3,81L311.3,81c0.6-0.8,0.3-0.9,0.1,0.1c0.7-0.1,1.1-0.6,1.7-0.9
	c1.3-0.7,1.8-0.1,2.8-1.3c2-0.1,4.2-0.3,6.1-2.2c-0.1,0.1,1.3,0.8,0.6,0.4c0.7-2.4,1.7-2.9,2.9-2.6c0.1,0.2,1,0.2,1.9-1.2
	c1.2-1,2.1-1.8,2.9-3.1c0.3-1.8,1.5-1.9,2.5-0.5c0.2,1,0.4,0.9,0.7,1.5c0.9,0.8,1.1,0.8,2.3-0.5c0.5-1.1,2.2-1.5,4-1.6
	c2-0.4,5.1-0.1,7.6,0.3c1.6-0.3,3.1,1.7,3.9,2.9c0.8,0.7,0.4,1.6,1.4,1.6c0,0,1.3-0.3,1.7,0.5c0-1.1-0.6-1.4-0.3-1.7
	c-1-0.8-0.5-1.7-0.8-1.7c0.7,0.6,0.5,0,1.1-0.7c0.4,0.5,0.7,0.8,1.5-0.1c-0.5,0.1-0.8-0.6-0.7-0.7c-2.4-1.2-5.6-2.6-8-3
	c-0.9,0.1-0.8-0.3-1.7-0.1c-3.7-0.5-7-1.2-10.7-1.1c-1.2-0.5-3.2-0.6-4.2,0.3c-3.7,2.5-6,6-8,9.2c-0.1,0.9-1.6,1.2-2.4,1.6
	c-2.3,0-4.5,2.1-6.9,2.5C312.2,79,311.5,79.4,311.3,81z M224,129.8L224,129.8c-1.6-0.1-1.6,1.2-2.2,1.8c0,1.5-0.6,2.6-0.9,4.8
	c0.1,0.6,0.3,2.7,0.5,4.8c0.1-1.4,0.5,1.2,0.8,0.5c0.3,0.1,0.1-0.7,0.2-1.5c0.2-1.3,0-1.8,0-3.7c0.3-0.7,0.5-0.7,0.2-1.2
	c0.5,0,1.1-0.1,0.9,0.8c1,0.4,0.6,0.7,0.6,1.1c-0.4,2.3-0.1,3.8,0.3,3.9c0,1.2,0.9,1.9,2,2c0,0.1,1-0.2,0.7-1.1
	c-0.1,0.2,0.2-3.9-0.3-6.1c0.2,0.2,0.3,0.4,0.7,0.2c0.5-0.1,0.9,0.5,0.9,1.6c0.4,1.5,0.5,2.5,0.2,0.7c0.3,0.4,0.2,2.7,0.1,3.5
	c0.8,1.1,1.4,1.7,2.6,1.6c0.1-0.4,0-1.3,0.2-1.7c0,1.5-0.7-1.4-0.1-1.6c0.2,0.7,0.2-0.2-0.1-2.1c-0.6-2,0.5-1.2,0.5-1.7
	c0.2-0.7,0.9,0.5,1.1,1.6c0.6,0.8,0.4,1,0.8,2.5c-0.6,1.2-0.2,2.1,0.7,2.4c1.3,0.3,1.5,0.2,2.1-0.8c2.2-1.3,2.4-1.8,2.5-5.9
	c-1.1-2.8-0.3-5,1.8-7c0.1-0.2-0.4-0.4,0.4-1c-1.6,0-3.2,0.1-4,0.8c-0.2-0.4-1.2-0.2-1.3,0.6c0.6,0.1,1.2,0,1.7-0.4
	c-0.2,0.6,0.2,0,0.3,0.6c0.2,0.2,0.4,0.4,0.3,0.9c0.1,0.5-0.6,0.8-1,1.8c-0.1,0.5-0.3,0.5-0.8,0.7c0.3-0.2-0.3-0.7,0.1-1.3
	c-0.9-0.2-0.5-0.6-0.4-2c-1.5,0.9-2,1.9-1.7,3c0,1.1-0.4,1.7-0.3,1.6c0,0.6-0.3,0.7-0.9,0.9c0.1-1-0.5-1.2-0.4-1.4
	c0.4-1.3-0.1-2.4,1.2-3.6c-0.2,0.1,0.2-0.4,0.1-1c-1.2,0.6-1.8,0.4-2.1,1.8c-0.3,0.2-0.4,0.7-0.3,0.7c0,0.5-0.8,0.7-1.3,1.1
	c0.1-0.3-0.1-0.9-0.5-1.4c-0.1-0.2,0.6-0.5,0.3-0.6c-0.7,0.4-0.7,0-0.7,0.3c-0.8,0.2-0.1,1.2-0.9,0.6c0.1,1.7-0.3,1-0.7,1.6
	c0.5,0-0.1-0.5-0.8-1.2c0.1-0.4,0.2-1.3-1-0.8c-0.4-0.3,0.3-0.7,0.1-1.1c0.3,0.1,0.4-0.5,0-0.8c0.4,0.1,0.4-0.1,1.4,0.7
	c0,0.4,0.8,0.1,0.2-0.1c1.4-0.3,2.4-0.6,2.9-2c-1.4-0.1-3.1-0.2-4.7,0.5c-0.4,0.2-0.5,0.3-0.5,1.6c-0.6,0.5-0.7,0.7-0.9,1.5
	c-0.8,0.4-0.9,0.5-0.9-0.3c0.1,0.1-0.7-0.1,0.1-0.6C223.3,131.1,223.9,130.8,224,129.8z M163.9,309.4L163.9,309.4
	c-1.7,0.5-1.2,0.5-2.4,1.1c-0.2-0.7-0.8,0.6-1.1,1c0.2,0.3,1.3,1.3,1.3,1c1.8,0.3,3.2,1.1,4,0.6c3.3,0.7,6,1,8.7,1.8
	c2.7,0.9,3.6,2.5,3.3,6c0.1,0.8,0.6,1,1.5,1.8c2.1-1.8,5-0.3,7.4-1c2.3,0,1.4,0,3.1-1.7c0.3-1.3,1.3-3.4,1.1-4.8
	c-0.4-3.3-2.3-6-4.9-4.8c-1.8,0.2-3.4,0.5-6.2,0.7c-1.1,0.5-1.5-0.4-3.6,0.4c-1.1-0.6-3.8-0.6-4.8,0c-1.2-0.2-2,0.1-1.4,0.1
	C168,309.4,165.3,309.8,163.9,309.4z M172.5,323.9L172.5,323.9c0.6-0.7,1.8,0.1,2.6-1.1c0.7,0,0.8-0.1,0.5-1c0.9-1.3,1-4.3-1-5.3
	c-2-0.5-3.9-0.3-5.9-0.9c-2.4-0.1-4.6-0.3-6.9-1.2c-1.1-0.2-2.7-1.4-2.8-2.8c1.2-1.7,0.8-2.2-0.8-1.8c-2.7,0.4-3.9-0.3-6.6,0
	c0.2,0.9-0.2,0.6-0.1,1.7c-0.7,0.7-1.9,1.9-1.1,3.5c-0.2-0.1,0.1,0.8-0.1,1.4c2.1,2.2,5.4,3.9,9.5,5.1
	C163.1,322.8,167.2,323,172.5,323.9z M339,105.7L339,105.7c-0.2-0.8-0.4,0.4-0.5-0.1c1,0,1.6-0.3,1.9,0.6c2.5-0.5,5-1.2,8.4-0.6
	c0.5,0.4,2,0.6,2.9,1.7c2.5,0.7,5.1,1.8,7.4,2.7c3.7,2.3,6,5.8,7.6,9.6c0.7,2.5,1.8,4.2,0,7.1c-0.4,1.3-1,3-2.2,3.9
	c0,0.8-0.2,1-0.3,2c0.6,0.1,1.2-0.4,1.7-0.6c3.1-2.7,5.9-5.4,8-9.2c0-0.9,0.3-1.7,0.9-2.8c-0.3-2.4-1.2-5-2.3-6.2
	c-3-5.5-6.3-9.6-11.4-11.3c-4.4-2.6-9.2-2.8-13.8-0.9c-2.2,0.6-4.8,1.9-7.8,2.9C339.1,104.1,339.3,105.4,339,105.7z M258.4,277.3
	c0.2-0.1,0.3-0.3,0.5-0.5c0.9-3.1,3.6-5.3,4.5-7.8c2.3-2.3,2.5-4,2.7-6.5c-0.4-1.5,0.1-1.5-0.5-2.9c0.2-0.2,0-0.2,0-1.7
	c-0.3,0.4-0.1-0.5,0.2-1.6c0.1-0.1,0.1-0.2,0.2-0.2c0,0,0,0,0,0l0,0c0,0,0,0,0-0.1l0.3-1.8l1-1.9l-0.5-0.8c0,0-1.9-2.2-0.5-2.5
	c0.7-0.1,2,0,3.4,0.3c1.3,0.3,2.6,0.6,4,0.7c0.1,0,0.1,0,0.2,0h0c3.5,0.4,7,0.2,10.3-0.4c3.5-0.9-0.5,1.1,2.5-0.5
	c6.1-1.8-1.8-13.6-11.3-22.8c-5.3-5.1-6.2-6.6-6.2-6.6c-2.9,1.8-5.6,5.9-8,8.2c-0.8,1.5-1.5,3.3-3.4,4c-2.4,0.6-5.2,2.9-7.8,2.9
	c-0.8,1.6-1,1.6-1.4,3.6c0.3,2.3,1.4,2.5,2.6,3c-0.1-0.1,1-0.6,1.7,0.2c-0.1,0.1-1.4,1.6-2.3,0.9c-1.3,1.5-1,1.5-0.7,2.2
	c0.1,2,0.3,2.7-0.6,1.9c-1.1,1.2-2.5,1.4-3.9,2.4c-2.4,1.1-2.6,0.5-4.2,1.1c-2,1.3-3.9,2.5-5,3.9c-0.2,1.2-1.1,1-1.6,1.2
	c-0.1,0.8-0.9,0.2-0.7,0.7l-3,3c0,0-0.1,0.1-0.1,0.1c-4.6,5.3-9.2,9.5-14.1,15.2c-4.3,5.5-8.8,11.5-13.7,16.8
	c-2,3.1-4.6,5.7-7.3,9.8c-1.7,0.9-1.6,2.3-2.8,3.4c-0.6,3.4-1.4,2.5-0.2,4.2c0-0.2,0.2,1.1,0.1,1c0.6,0.1,1.2,0.2,1.8,0.4l0,0l0,0
	c0,0,0.2,0.1,0.6,0.2c0.5,0.2,1,0.3,1.4,0.3c0.7,0.1,1.5,0.2,2.2,0.1c2.1-0.2,4.7-1.3,6.3-2c1.6-0.7,3.2-1.7,4.2-2.5l0,0
	c0.3-0.2,0.6-0.4,0.9-0.7c3.4-3.2,6.3-6.3,9.9-8.8c2.3-2.5,4.5-3.3,6.3-5c0.7-0.8,0.4-0.9,0.6,0c1.9-0.8,3.9-1.4,5.8-1.9
	c-1-0.7-2.3-1.7-3-2.5c-2.8-3.1-2.2-3,1-1.1c4,2.4,10.3,1.8,10.3,1.8c3-1.2,6.2-3.2,7.8-4.2c0.6-0.1,1.1-0.2,1.6-0.3
	c0.3-0.1,0.6-0.2,0.9-0.3l0,0c0.8-0.4,2-1.3,3.2-2.2c0.1,0,0.2,0,0.2-0.2C256.2,279.3,257.9,277.9,258.4,277.3L258.4,277.3z
	 M260.2,247.5c0,0.2,1.7,1.2,2.6,0.6c-0.3,1.8-2,2.1-3.6,2.1c-0.1-0.1-1.2-0.6-1.5-1.2c-0.4,0.2-1.4,1.4-1.5,0.4
	c-0.6,1.2-1.9,0.8-2.6,1.2c0.2-0.5,0.4-0.8,0.5-1.6c-0.4,0-0.3-0.5,0.9-1.3C256.7,248.3,258.3,247.8,260.2,247.5z M210.5,296.5
	c-0.1-0.1-4.1,2.2-5.5,3.8c-0.2-1.5,3.2-4.4,6.6-7.1c0.2-0.1,2.7-1.6,3.7-1.8c0.7-0.7,2.3-3,3-2.6c0.7-1.7,3.5-3.5,4.8-4.8
	c-0.1,0.5-0.5,1.2-0.5,1.7c0.8-0.6,0.8-0.2-1.3,2.2C217.2,290.6,214.1,293.4,210.5,296.5z M237,281.2c-0.3-0.2-0.7-0.8-1-1.1
	c-1.8-0.6-2-1-3.7-0.4c-0.7-0.4-1.5-0.5-1.6-0.8c-0.3-1.2-0.1-1.9-0.9-2.6c0.1-0.1,0.7-1.4,0.7-0.9c1.4-0.3,1.9,0,1.1,0.2
	c1,2,3.7,2.4,5.1,2.8c-0.2,1,1.8,0.2,1.6,0.4c0.6-0.1,1.2-0.3,2.4-0.7c-0.3,0.7-1.1,1.2-1.8,1.2C238.8,280.5,237.6,280.8,237,281.2z
	 M316.5,238.8c-1.8,0.5-3.7,1.9-5.5,2.9c-2.8,1.6-9.8,6.6-12.7,7.8c-2.9-2.9-4.6-7.4-12.9-15.5c-8.3-8-15-15.3-15-15.3
	c3.3-3.8,19.3-16.6,23.6-19c2.3-0.2,5.9-1.3,9.2-1.7c3.3-1.1,6.4-1.5,9.1-0.7c1-0.9,1.1-1,1.4-1.1c0.5,0.9,1.4,0.2,1.4,0.6
	c0.1-1.2-0.4-1.9-0.8-2.4c0.1-0.2-0.4-0.3-0.1-0.5c1.5,0,2.2,0.5,3.8,0.1c0.6-0.2,1,0.8,0.7-0.2c0.8-0.1,0.8,0.1,0.7-0.3
	c0-0.9-0.3-0.5-0.8-1.4c0.2-0.2-0.7-0.4-1.6,0.1c-0.6,0.1-0.3-0.4-1.1-1.3c0.5-0.2,1.4,0.3,0.9-0.2c2.7-0.9,5.9-0.5,8.1-0.6
	c0.2,0.4,0.8,0.1,0.8-0.3c0.1,0.1,0.2-0.1,0.3-0.2c-0.8-0.9-1.3-1-1.8,0.2c-3.2-0.8-6.5,0.1-9.4,0c-1.9,0.4-3.4,0.6-4.3,0.6
	c-0.7-0.1-1.5,0-1.1-0.5c0,0-0.4-1.1,0.2-1.1c0.7-2.7,1.8-4,4.2-3.2c1.8,0,3.7-0.4,5.4-0.3c1.4-0.2,2.6,0.1,3.6,0.2
	c0.1-1.3,1.2,0,1.9-0.5c0.4,0.3,1,0,2.3,0.4c-0.4-0.4,0-0.9-0.4-1.3c-0.8,0.6-1.5-0.8-1.6-0.5c-4,0.6-7.2,0.8-10.4-0.1
	c-0.4,0.8-0.7-0.4-0.9-0.3c0.2,0.6-0.2-1-0.3-1c1.1,0,1.9-0.9,2.5-0.9c4.6,0,9.1-1,13.9-0.7c2.6-0.3,5.1,0.1,8.3,1.1
	c1.2,0.8,1.6,0.8,0.2,2.1c-0.3,0,0.2-0.2-0.1,0.7c-0.5,0.7,0.1,0.8-0.4,2.2c0.4-0.2,1.1-1,1,0.1c0.4-0.4,1-0.1,1-0.5
	c0.2,0.8-0.3,1.7-0.4,1.9c-0.1,0.8-0.9,1.2-1.2,2.5c0.1,1.2-1,0.8-1.4,0.2c-0.3-0.4-1.3,0-1.9,0.3c0.1,0.1-0.9-0.1-1.1,0.2
	c0.7,0.6,1.1,0.7,1.3,0.3c0.4,1.4,0.4,0.7,1.2,1.2c2.3,1.3,3,2.8,3.2,4.5c-0.4,4.1-2.5,6.4-5.1,9.5c-1.4,1.3-4.1,2.1-6.4,3.7
	c-2.4,0.1-3.9,2.2-5.9,3.4c-4.2,2.9-9,6.9-12.6,10.4c0.6,1.9-1,2.1-1.6,2.6c-0.3,0.3-2.4-0.5,1.3,1.8c0.7-0.3,1.4-1.2,2.1-1.8
	c2.4-2,4.3-4.5,7.4-7c1.6-0.5,3.8-2.9,5.6-4.1c1.3-0.7,3-1.6,4.4-2c0.9-0.5,1.5-0.6,1.7-1.2c2.4-2.5,5.3-3,7.2-5.2
	c0.9-1,2.3-2.3,3-4.7c0,0.4,0.1,0-0.1-0.7c0.2-1.3,0.3-1.5-0.3-2.4c0.7-2.3,0.3-4,0.2-6.4c0.7-1.5,0.4-3.5,1.9-4.9
	c0.5-0.1,0.7-0.7,0.2-2c-0.5-0.7,0.1-1.1,0-1.8c0.2-1.2,1-2,2.1-0.8c2.4,0.1,5.3,0.9,8.2,1.9c0.9-0.3,1.4,0.2,1,1.2
	c-0.3,2.6-0.3,2.4-2.4,2.5c-2-0.8-3-0.7-4.5-1.5c-0.6,0.1-1.1,1.3-0.9,1.1c-0.4,0.7-0.1,1.4,0,0.5c0.8,0.6,1.5,0.9,1.5,1.4
	c2.4-0.7,3.7-0.2,5.5-0.2c0.3,0.8,0.5,0.3,0.4,1.4c1.1,4.2,1.8,8.2,0.3,13c-0.6,1.6-1,2.1-1.6,4.3c-0.7,0.3-1.1,0.2-1.6,0.6
	c0.2-0.6,0.4-1.1-0.3-0.8c0.3-0.8,0.3-1.1,0.7-1.8c0.2-1.7,0.4-2.9,1-4.2c0-0.3-0.4-0.9-0.5-1.5c-0.9-0.7-1.2,0.6-0.9,1.1
	c-1,2-1.2,4.1-1.1,6.9c0.1,0.1-0.7,1-0.9,1.8c-0.2-1-0.4-0.6-0.6-0.2c-0.2-0.8-0.3-1.8-0.3-0.7c0.3-1.4,0-2.9,0.2-4.6
	c0.2-0.8-0.3-1.2-0.7-1.6c-0.1,1.3-0.8,1.5-0.4,2.2c0.4,2-0.1,4.5,0.2,6.3c-0.1,3-0.3,4.4-1.4,5.8c-2.4,3.9-6.1,6.2-9.6,8.1
	c-3.9,2.5-7.6,3.8-11.3,5.2C321.3,234,320.5,237.3,316.5,238.8z M80,174L80,174c2.2,0.8,2.9-0.4,4.9,0.1c4-1.5,9-3.6,13-3.5
	c5.6-1.8,9.9-2,13.7-3.2c5.4-1.7,12.4-3.9,18.1-5.3c5.3-0.9,8.8-1.3,14.5-2.8c6.2-1.5,11.7-3.2,17.1-4.3c4.5-0.9,7.8-2.5,11.9-2.8
	c3.9-1.2,6.8-2.2,10-2.9c5.3-1.1,9.1-1.4,13.6-2.7c1.5-0.1,1.1-0.4,1.3-1.1c-0.4-0.6,0-1.2-0.7-1.5c0.2-2.1,0.1-2.7-2.7-2.4
	c-1.2,0.5-3,0.9-5.4,1.1c-4.9,1.8-10,2.6-16.6,3.7c-8,1.8-14.9,2.6-23.4,4.3c-4.4,1.1-7.9,1.7-13.1,2.3c-6.3,1.3-11.9,2.3-19.1,3.6
	c-5.5,1.2-9.6,1.5-15.7,2.6c-2.5,0.9-6.3,2-9.7,1.6c-3.1,0.7-6.4,1.6-9.8,2.2c-3.4,1.6-6,5.1-4.5,8.8C77.9,174.3,79.1,174.4,80,174z
	 M338.4,139.2L338.4,139.2c-3.9,0.2-7.9,0.8-11.3,3.4c-2.3,2.3-4.5,3.9-6.8,5.9c-1.2,1-2.1,2.3-2.1,3.7c-0.7-0.2-0.8,0.8-0.9,1.2
	c0.6-0.4,0.7-0.6,1.2-0.2c0.5-0.3,0.9,0.3,1,0c1-0.6,2.7-1.4,4.6-3c0.5,0.3,1.1,0.5,0.9,0.3c0.1,0.8-0.2,1.8-0.1,2.6
	c-2.8,2.6-5.7,6.3-8.3,10c-0.9,1.6-1.5,3-2.5,4.8c-0.1,0.5,0.2,0.5,0,1.2c0.9-1,0.9-0.6,1.5-0.6c-0.3,0.3,0.2-0.9,0.4-0.4
	c1.3-1.9,2.8-2.2,3.5-3.4c3-1.8,5.8-4.8,9.6-7c0.4-1,0.3-1.3,0.7-0.8c0.8-0.6,0.8-0.3,1-0.8c0.7,1.1,0.3,1-0.1,1.8
	c-1.7,2.7-3.3,5.6-5.1,8.5c-1,2.3-1.5,3.4-1.9,6c-0.7-0.1-0.8,2.1,0.4,1.7c0.9,0.8,1.8,1.3,2,0.1c1.2,0.7,1.6,0,2.9-0.3
	c1.3-1,1.9-0.8,2.6,0.6c0.5,1.9,1.8,3.1,3,1.8c1.5,0.2,3.1,0.5,4.1-1.2c2.5-1.4,3.8-4.2,6.2-6.5c-0.4,0.2-0.1,0.1,0.4-0.2
	c-0.1-0.9,0.6-0.5,1.1-0.5c0.2-0.2,0.1,0.2,0.2,1c0,0-0.4,0.7-0.6,0.4c-1.2,3.2,0.7,6.8,4.5,6.4c0.3,0,1-1,2.6-1.1
	c1.1,0.7,1.2,1.3,1,1.8c-0.5,1.7-0.5,3.3-0.1,4.6c0.4,1.4,1.1,0.8,2,0.4c0.8-2.5,1.7-2.7,2.1-5.1c0.8-1,1.6-2.2,0.7-3.5
	c0.1-1.4-1.3-3.8-1.5-4.2c-0.4-2.7-1-4.5,0.6-6.7c0.5-0.6,0.5-1.4,0.7-2.5c0.1-0.8,0.5-2.1,0.7-2.6c1.6-0.9,1.6-2.1,1.1-3.8
	c-0.8-1.3-1.4-2.4-2.4-3.2c-0.8-1-3.1-2.5-4.5-3.7c-0.5-0.8-0.9-1.2-0.4-2.1c0-0.3-0.6-1-0.6-0.5c-0.6-1.1-2-2.5-2.7-4.4
	c-1.1,2.1-1.2,1.1-1.6,1.1c0.8,2.3,0.9,3.1,1.2,4.3c2,4,3.9,8.4,6.2,12.5c0.8-0.1,0.4,0.9,0.1,1.6c-0.4,0.1-0.6-0.5-1.3-1.1
	c-0.1,0-0.5-0.5-0.4-0.6c-1.5-1.2-2.8-3.2-4.7-5.1c-0.3-0.9-0.9-0.4-0.7,0.2c-0.2-0.4-0.4,0-0.5,0.4c-0.1,1-0.1,1.3-0.6,1.4
	c-0.8,0-1.2-1.2-1.3-1.4c-0.1-4.1-1.4-7.1-2.8-10.5C342.1,139.1,340.5,137.4,338.4,139.2z M256.5,131.1c0,0.1,1.1,0.8,1.7,0.4
	c-0.2,1.2-1.3,1.4-2.4,1.4c-0.1,0-0.8-0.4-1-0.8c-0.3,0.1-0.9,0.9-1,0.2c-0.4,0.8-1.2,0.5-1.7,0.8c0.1-0.3,0.3-0.5,0.4-1
	c-0.2,0-0.2-0.4,0.6-0.9C254.3,131.6,255.3,131.2,256.5,131.1z M316.2,132.8c-0.2-0.2-0.5-0.7-0.7-1c-1.2-0.5-1.4-0.9-2.6-0.4
	c-0.5-0.4-1-0.4-1.1-0.7c-0.2-1-0.1-1.7-0.6-2.3c0-0.1,0.5-1.2,0.5-0.8c1-0.2,1.3,0,0.8,0.2c0.7,1.7,2.6,2.1,3.5,2.4
	c-0.2,0.8,1.2,0.1,1.1,0.4c0.4-0.1,0.8-0.3,1.7-0.6c-0.2,0.6-0.8,1.1-1.3,1C317.4,132.2,316.5,132.5,316.2,132.8z M334.5,108.4
	L334.5,108.4c0.1,0.9,0.7,1.3,0.3,1.7c-0.8,0.2-1.4-0.1-1.6,0.1c-0.4,0.4-1.2-0.3-1.1,0.2c-3.5,0-7.4,1.1-10.7,1.2
	c-2.8,2.1-5.7,3.2-8.6,4.9c-1.5,1-3.2,2.1-5.3,2.4c-1.8-0.3-3.3-0.5-5.2,1.3c0.1-0.2-0.8,0.2-1.5,0.3c-2.1-1.7-3.4-2.8-5.4-3.3
	c-3.9-1.4-6.7-1.6-9.5-1.4c-5.4-0.1-9.8,2-13.5,4.9c-2.3,1.8-5.3,3-8.6,4.2c-4.7,0.8-8.9,2.2-13.2,2.6c-1,0.7-1.4,1.2-1.7,1.3
	c-0.9,1.3-0.9,1.3-2.3,0.6c-0.8-0.6-1.6-1.1-3.8-0.6c1,0.6,0.9,0.9,1.4,1.1c0.6,1.8,0.9,1.6,1.3,2.8c0.3,1.4,0.3,2.6,0.6,3.2
	c0.1,0.8,0.5,0.7,1,0.3c0.5,0,0.4-0.3,1-1.3c0.3-1.1,0-3,0.6-2.3c1.7,0.1,0.7,1.3,1,2.3c-0.2,0.4,0.6,0.2,0.9,0.8
	c2.2,0.4,4.2-0.2,6.6,0.1c2.6,0.2,5.3,0.6,8,2.4c0.4,0.8,0.9-0.6,1.4-1.9c1.6,0.9,1.8,1,2.7,1.7c0.6,0,0.6-1,0.8-1.2
	c1.9,2.1,3.9,3,5.6,2.7c1.6,0.7,2.8,2.1,4.5,2c3.4,1.1,7.4,1.2,11.3,1.2c0.3-0.6,0.8,0,0.6,0.3c2.2,0.3,3.8-0.4,5.2-0.2
	c2.4-2,3.8-6.3,6.8-6.2c0.4-0.3,0.7,0.4,1.1-0.1c-0.3-0.1-0.6-0.6-1.1-0.8c-0.6,0.2-0.9,0.1-2,0c-1.1-1.1-2.5-1.2-3.9-1.4
	c-2.9-0.2-5.8-0.6-8.5-0.1c-1.1-0.7-2.6-1-3.6-0.8c-0.2,0.2-0.2-0.1-1.4-0.6c0.7-0.2,1.1-1.2,1.8-0.7c2.5,0.4,6.3-0.6,9.3-1.7
	c1.4-0.3,4.1-1.1,4.5-3.6c0.2-0.7-0.2-1.4,1.3-0.7c0.6,0,0,0.8,0.5,1.4c-0.2,1.5,0.4,2.7,1.8,3.2c0.7-0.1,1,0.4,1,0.9
	c1,1.3,3.5,2.8,4.4,2.1c1.4-0.4,2.1-0.9,4-1.2c0.1,0.2,0.9,1.2,0.6,1.4c0.7,0.2,0.8,0.6,1.5,0.5c2.4,0.3,5.1,0.1,7.2-1.1
	c1.3-0.8,3.6-1.2,4.9-0.6c0.4,0.2,0.3-0.1,0.5-0.4c2.1,0.3,4.3-0.2,5.6-0.9c2.6-0.7,6.1-1.5,7.6-4.1c0.7-1.5,1-2.7,1.4-3.6
	c-0.9-1.3-1.8-2-2.8-3.2c-3.3-0.7-6.2-1.6-9.4-1.6c-3.6,0.6-5.6,1.4-8.9,2c-0.6-0.1-0.8,0.7-1.5-0.1c0.5-0.8,0.6-1.4,1.7-2.1
	c-0.4,0.5,0,0.5-0.4,0.3c2.2-0.4,5.2-0.6,6.8-1.4c3.9-0.4,7.8,0.2,11,0.7c4,1.1,8.4,1.7,12.7,3c1.8-0.1,2.6-0.3,4.2-0.3
	c1-0.3,1.9,0,1.6,1.6c-0.3,0.7-0.9,0.4-1.4,0.3c-2.9,0.3-6,0.1-8.4,0.7c-1.7,0.5-2.6,1.7-3.3,3.2c-0.8,2.1-2.4,4.4-5.9,5.6
	c-0.7,0.2-1.2,0.6-2.5,0.3c-3,1-5.8,1.1-8.4,1.4c-1.5-0.4-2,0.4-3.1,0.3c-0.2-0.3-0.7,0.5-1.4,0.5c0.6,0,0.7,0.3,1.2,0.7
	c0.5,0.3,1.7,0,1.7,0c5.9,3.3,11.5,0.5,17.4-0.2c0.6,0.5,1,0,1.1,0.4c1.9-1.8,4.4-2.6,7.4-4c1.6-1.9,3.6-2.2,4.3-3.5
	c1.3-1.9,2-1.7,3.3-1.1c0.2-0.6,0.3,0.2,1.1,0.1c3.4,0,4.4-2.9,3.6-5.3c-0.2-3.4-2.6-6-4.7-7.5c-4.1-1.6-7.4-4.3-11.6-5.4
	c-3.2-0.4-6.7-1.3-10-1.7C336.6,107.1,335.4,108.6,334.5,108.4z M192,328.6L192,328.6c-1-0.6-1.5-0.9-2.6-1.5
	c0.2,0.8,0.2,0.7-0.2,1.5C190.2,329.2,191.7,329.6,192,328.6z"/>
<text transform="matrix(0.7071 -0.7071 0.7071 0.7071 315.7735 401.2175)" class="st4 st5 st6">CHOCE</text>
<text transform="matrix(0.7071 -0.7071 0.7071 0.7071 315.7735 401.2175)" class="st2 st5 st6">CHOCE</text>
<text transform="matrix(0.7071 0.7071 -0.7071 0.7071 104.163 324.1143)" class="st4 st5 st6">SINCE 1995</text>
<text transform="matrix(0.7071 0.7071 -0.7071 0.7071 104.163 324.1143)" class="st2 st5 st6">SINCE 1995</text>
<path class="st2" d="M316,286.7c1.3-0.6,1.8-1.7,2-2.3c1.1-1.1,1.9-2.1,1.8-4.4c0.4-0.3,0-1.7-1.3-1.3c0.2-0.2-0.5,0.3-0.9,0.1
	c-0.4,0.9-0.7,1.8-1.7,2.2c0.2,0.2-0.4,0-0.3,0.2c-0.1-0.4-0.2-0.5-0.3-0.8c1.3-1.8,2.4-3.7,3.9-5.8c0-0.1,0.1-0.5-0.2-0.7
	c0.1-0.9-0.2-1.5-0.9-0.9c-0.6,0.3-1.3,0.3-1.9,0.8c-2.4,2.5-5,4.4-7.4,6.8c-1,0.8-2.1,2.5-3.1,3.5c-0.4,0.8-0.8,1.6-1.6,2
	c-0.4-0.2-0.2,0-0.1-0.2c0.1-0.2,0.4-0.9,0.4-1.3c1.5-2.1,2.9-4.6,5.3-6c0.2-0.6,0.1-0.9,0.3-1.4c-0.5-0.5-1.2-0.2-1.3,0.3
	c-1,0.7-2.1,1.3-3.3,2.6c-0.6,0.2-1.1,0.7-1.6,0.6c-0.2,0.6-0.8,0.3-1.1,0.7c-0.5-0.2-0.3-0.4-0.4-0.5c0.1-0.5,0.5-0.7,0.9-0.5
	c1.1-1,2.3-1.4,3.3-2.9c0.9-0.3,1.8-1.1,3.2-1.7c0.2-0.1,0.9-0.6,1.5-1.1c0.5-0.1,0.7-0.1,0.9,0.1c0.1-0.9,0.1-1.1,0-1.6
	c-0.2-0.7-0.7-0.3-0.9-0.4c-0.9,0.2-2.4,0-3.8,0.1c-0.9,0.1-1.1,0.7-2,0.2c1-0.8,2.6-1.3,3.9-1.6c1.9-1.5,4.4-1.5,6.1-3.3
	c0.5,0,0.9-0.6,1.3-0.5c0.1-0.5,0.6-1-0.1-1.5c-1.8-1.9-3.2-2.8-5-4.6c-1.4-0.2-2.3-1.2-3.2-3c0,0.2,0.7,0.3,0.8,0.4
	c0.8,0.3,1.8,1.5,3.3,1.9c2.2,1.5,4.9,2.6,7.9,2.2c0-0.4,0.5-0.5,0.7-0.3c-0.2-2,0-4.2-0.3-6.2c0.7-1.3,2.3,2.4,2.1,2.8
	c0.9,1.5,1.1,2.9,0.9,5c-0.2,1.6-1,2-1.9,2.7c-0.5,0.5-0.9,0.3-1.9,0.6c-0.8,0.4-0.9,0.5-1.5,1.1c-0.5,0.3-0.7,0.9-0.7,1.6
	c0.7-0.3,1.1-0.3,1.3-0.1c1.1-0.5,3.1-0.7,3.9-1.3c1.8-1.1,3.9-1.1,5.9-1.7c0.9-0.1,2,0.4,3.2,0.9c0.7,0.1,1.7,1.1,2.2,1.7
	c0.5-0.1,1.1,0.1,1.3,0.8c1.1,1.6,2.2,3.1,3.4,4.3c-0.2,0.3,3.9,6,3.6,5.9c-1.5,1.2,2.1,3,0.7,3.9c-0.8,1.4-8.6-5.5-9.4-3.9
	c-0.8,0.6-4.3,3.5-4.9,4.5c-0.1,0.6-0.9,0.3-0.6-0.1c-0.3-0.5,0-1.2,0.1-1.9c-0.5-0.8,0.1-1.5,0-2.7c-0.6-1-1-1-1.8-0.4
	c-1-0.3-1,0.4-1.7,0.7c-2,1.5-4.4,3.3-6,4.6c-1,0.6-1.6,1.2-2,1.7c0.2,0-0.7,0.1-0.8,0.1C316.4,287.1,316.2,286.7,316,286.7"/>
<path class="st2" d="M259,148.7c0-1.1,0.9-0.4,1.1-0.9c2.4,0.3,4,0,6.1-0.7c0.8,0.1,1.5-0.1,1.7-0.2c0.5-0.2,1.1,0.1,1.7-0.1
	c2.6,0.9,4.1,0.8,6.4,0.5c1,0.5,1.5,0.2,2.6-0.4c2.6,0.1,4.4,1.4,6.8,2c1.2-0.2,1.4,0.3,1.3,1.7c0.1,0.5,0.1,0.6,0.8,0.9
	c-0.2,0.1,0.4,0.7,0.6,0.7c-0.1,0.3-0.6,0.8-1.1,0.7c-1.6,0.5-3.2,0.9-4.5,1.2c-2,0.4-3.7,0.4-5.4,0.5c-1.3-0.2-2.3-0.2-3.6-0.7
	c0.2,0-0.3,0.2-0.5,0.1c-2-0.7-3.8-1-5.7-1.5c-0.5-0.3-1.8-0.8-3.3-1.5C262.7,150.8,260.5,150.1,259,148.7"/>
<path class="st2" d="M388.5,304.1c-2.7,0.1-4.9-1.2-7.3-3c-0.9-0.7-1.6-1.4-2.5-2c-0.3-0.6-0.4-0.8-0.3-0.8
	c-0.2-1.7-0.2-3.2,0.1-4.3c-0.1-0.6,0.2-1,0.5-1.1c2.4-1.7,5.5-1.8,8.3-1.5c1.3,0.4,2.4,1.2,3.2,2.6c0.2,0.3,0.2,0.5,0,0.8
	c-0.5,1.5-0.5,3.4,0.1,5.2c0.1,1.2,0.1,2.2,0.9,2.9c0.4,0.7-0.1,0.9-0.5,1.1C390.3,303.9,389.5,304,388.5,304.1"/>
<path class="st2" d="M392.3,318.1c-2.3-0.6-4-1.4-5.5-3.6c-0.2-1.4-0.8-2.2-1.2-3.1c-0.3-0.1-0.5-0.7-0.8-1.1
	c-0.8-0.2-1.4-1-1.9-1.7c-0.4-0.1-0.5,0-0.3-0.2c0-0.8-0.1-1.2,0-1.8c0.3-1.6,0.6-2.1,2.2-1.6c1.1,0.5,1.9,0.8,2.9,0.8
	c1-0.3,2.2-0.1,3.8-0.1c0.6-0.1,1.1,0.1,1.4,1c1.1,2.5,2.1,4.9,3.5,7.3c-0.1,0.2,0.1,0.5,0.3,0.7c-0.1,0.4,0.4,0.7,0.2,1.2
	c-0.1,0.5-0.4,0.6-0.7,0.5c-1,0.9-1.5,0.9-2.3,1.5C393.4,318.3,392.9,318,392.3,318.1"/>
<path class="st2" d="M348.8,289.5c0.4-0.6,1-1.2,1.6-1.4c0.1-0.3-0.1-0.2,0.4,0.1c1.1,0.8,2.7,1.9,4.3,2.2c0.8,0.5,1.8,0.7,2.5,1.2
	c2.5,1,5.1,1.4,7.9,2.1c1.5,0.5,2.6,1.1,4.3,1.7c0.3-0.1,0.4,0,0.6,0c2.6,0.3,4.3,2,6,3.8c0.4,0.3,0.5,0.4,0.5,0.8
	c0.1,0.6-0.3,0.6-0.5,0.8c-0.9-0.3-1.4-0.4-2.4-0.6c-0.5,0-1.1-0.4-1.6-0.6c-1.4-0.1-2.7-0.3-4.4-1c-1.7-0.8-3.6-1.4-5.5-2.1
	c-1.8-0.9-3.2-1.2-4.9-2c-1.5-0.7-3-1.3-3.8-2.4c-1.4-0.6-2.4-1-3.6-1.6C349.7,290.3,349.2,289.6,348.8,289.5"/>
<path class="st2" d="M374.2,309.2c-0.4,0.7-1.1,0.5-1.4,0.8c-1.2,1.1-2.3,1.1-3.6,0.9c-2.2-0.3-4.4-1-6.5-1.7
	c-1.2-0.4-2.5-0.9-3.6-1.4c-1-0.3-2.3-0.7-3.2-0.9c-1.6-0.7-2.7-1-4.3-1.4c-1.1-0.1-2.3-0.5-3.9-1c-1.5-0.1-2.8-0.6-4.7-1
	c-0.9-0.2-1.7-0.4-2.4-0.8c0,0.1-0.3-0.1-0.9-0.4c0.4,0.1,0.8,0.1,1-0.1c1.6-0.2,3,0,5,0.5c0.6,0.2,1.5,0.3,2.2,0.3
	c1.9,0,3.9,0.7,5.8,0.8c1.9,0.6,4.1,1.3,5.9,1.6c0.6-0.2,1.1,0.1,1.4,0.1c0.5,0,1-0.2,1.5,0.2c1.3,0.8,3.2,1.2,4.7,1.7
	c1.6,0.1,3,0.7,4.8,1.3c0.4,0.2,0.8,0.2,1.2,0C373.3,309.1,373.7,309.3,374.2,309.2"/>
<path class="st2" d="M297.2,148.7c1.1,0,2.2-1.2,2.9-0.9c0.7,0,1-0.9,1.2-0.9c0.7,0.1,0.5-0.1,0.7,0c1.8-0.2,4.1-0.8,5.5-1
	c1.4-0.7,2.3,0.8,1.8,1.8c0.2,0.2-0.3-0.1-0.5,0.8c-0.2,0.1-0.5,1.3-1.3,0.7c-2.2,0.2-5,0.6-7.5,0.3c-0.9,0.3-1.2,0.2-2,0.3
	C297.3,148.3,297.8,148.7,297.2,148.7"/>
<path class="st2" d="M399,318.6c-0.6,0.4-1.1,1.3-1.4,1.8c-0.7,1-0.8,2.1-1,3.4c0.3,2.5-0.5,5.3-1.1,8c-0.7,1.2-0.9,2.8-1.8,3.6
	c-1,1-1.9,1.5-3,2c-0.4,0.1-1.1,0.2-0.8,1c-0.1,0.2-0.4,0.9-0.3,1c-0.6,0.8-0.6,1.3-0.6,2.1c0.1,0.1,0.1,0.7-0.2,1.2
	c-0.2-0.4-0.5-0.4-0.5-0.5c-0.3-0.4-0.5-0.6-0.6-0.8c0.3-0.9,0.7-1.6,1-2.4c0.1-0.5,0.2-1,0-1.3c-0.2-1.1,0.3-1.2,1.3-1.4
	c2.2-0.7,3.6-2.8,4.4-5.4c0.6-1.8,0.7-4.3,1-6.1c0.1-2.1,0.6-4.1,1.2-5.8C397.1,317.5,397.8,317.4,399,318.6"/>
<path class="st2" d="M350.5,290.8c-0.8-0.1-3.9-2.8-4.2-3.4c-1.3-0.6-2.3-1.3-2.8-2c-1.2-0.9-1.7-2.2-2.6-3.8
	c-0.6-0.6-1.1-2.1-1.2-2.9c-0.6-0.4-0.5-0.7-0.5-1.3c0.3,0.1,0.1-0.6,0.7-0.1c0.1-0.2,0.6-0.2,0.7,0.1c1.3,1.7,2.3,3.2,3.3,4.7
	c1.2,2.5,6.3,4.8,8,6.6C351.7,288.7,350.7,290.4,350.5,290.8"/>
<path class="st2" d="M383,317.5c-0.4-0.6-0.5-0.7-1-0.6c-0.1-0.7-0.6-1.1-0.9-1c-1.2-0.4-1-1.3-1.4-1.8c0.2-0.9-0.3-1.5-0.6-2.3
	c-0.1-0.2-0.9,0-0.9,0c-1.2,0.8-2,0.7-3,0.5c-1.3-0.2-1.5,0.2-2,1.2c-0.3,0.5-0.3,0.5-1,1.1c0.3-2.3,0.7-2.9,2.6-3.4
	c1.1-0.1,2.1-0.6,3.5-0.8c0.6-0.3,0.8-0.1,1,0.5c0.4,0.1,0.5,0.9,1.1,1.2c0.9,0.7,1.8,1.7,2,3.1c-0.1,0,0.3,0.2,0.4,0.5
	C382.9,315.9,383.2,316,383,317.5"/>
<path class="st2" d="M402.1,320.3c0,1.3,0.1,1.8,0.2,2.4c0.1,2.6-0.2,5.2-1,8.1c-0.2,1.2-0.5,2.5-1.5,3.3c0,0.3,0,0.8-0.2,2
	c-0.6-0.8-0.4-1.4-0.3-1.8c0.6-2.2,1-4.7,1.3-6.8c0-2,0.5-4,0.3-6.1c0.3-0.4,0.4-0.7,0.4-0.8C401.7,320.6,401.7,320.4,402.1,320.3"
	/>
<path class="st2" d="M393.6,303.6c-0.4-0.7-1-1.5-1.2-2.1c-0.4-1.4-0.8-3.1-0.6-4.8c0-0.1,0.2-0.7,0.2-0.9c0.5,0.1,0.9,0.2,1.1,0.4
	c0.3,0.5,0.2,1.1,0.1,1.6c0.3,0.3,0.1,0.5,0.3,0.8c0.4,0.7,0.3,1.1-0.1,1.8c-0.3,0.7-0.1,0.9,0.4,1.4
	C394,302.6,394.1,302.9,393.6,303.6"/>
<path class="st2" d="M374.2,294c0.7-0.7,1.5-0.8,2.1,0.8c0.2,0.4,0.1,0.5,0.5,0.9c0,0.6-0.4,1-0.8,0.5c-0.6-0.2-0.7-0.3-1.3-0.5
	c0.2,0,0.1-0.3,0.3-0.3C374.8,295.1,374.2,294.7,374.2,294"/>
<path class="st2" d="M402.8,332.8c0.6,1.5,0.3,2.3-1.2,3C401.1,335,401.6,333.8,402.8,332.8"/>
<path class="st2" d="M403.8,323.5c0.3,0,0.4,0.1,0.6,0c0.1,0.8,0.2,1.7,0,2.8c0.1,0.2-0.1,0.3-0.6,0.4c0,0-0.1-0.2,0-0.6
	C403.6,325.4,403.4,324.6,403.8,323.5"/>
<path class="st2" d="M397.8,342.3c0.4-0.5,0.5-0.9,0.9-1.5c0.8,0.3,0.7,0.6,0.6,1.2C399.1,342.5,398.7,342.5,397.8,342.3"/>
</svg>
