<?xml version="1.0" encoding="utf-8"?>
<!-- Generator: Adobe Illustrator 22.0.0, SVG Export Plug-In . SVG Version: 6.00 Build 0)  -->
<svg version="1.1" id="Layer_1" xmlns="http://www.w3.org/2000/svg" xmlns:xlink="http://www.w3.org/1999/xlink" x="0px" y="0px"
	 viewBox="0 0 900 900" style="enable-background:new 0 0 900 900;" xml:space="preserve">
<style type="text/css">
	.st0{fill:#07C632;}
	.st1{fill:#12284B;}
</style>
<path class="st0" d="M459.7,130.4l8.2,0.7c0.7,0.1,1.3,0.3,1.7,0.8c0.4,0.5,0.6,1.1,0.5,1.8l-0.5,5.6c-0.1,0.7-0.3,1.3-0.8,1.7
	c-0.5,0.4-1.1,0.6-1.8,0.5l-8.2-0.7L459.7,130.4z M452,122.4l-3.1,38.4l8.2,0.7l1.1-13.2l9.6,0.8c1.4,0.1,2.7,0,3.8-0.4
	c1.2-0.4,2.2-0.9,3.1-1.7c0.9-0.8,1.6-1.7,2.2-2.8c0.5-1.1,0.9-2.3,1-3.7l0.5-6.6c0.1-1.4,0-2.7-0.4-3.8c-0.4-1.2-0.9-2.2-1.7-3.1
	c-0.8-0.9-1.7-1.6-2.8-2.2c-1.1-0.5-2.3-0.9-3.7-1L452,122.4z M444.8,121.5l-7.9,0.4l-4.9,25.8l-0.2,0l-7.3-25.2l-8.5,0.4l-4.9,25.8
	l-0.2,0l-7.3-25.2L395,124l12.1,38l8.5-0.4l4.9-25.8l0.2,0l7.3,25.2l8.5-0.4L444.8,121.5z M485.2,125.8l-5.9,38l8.2,1.3l5.9-38
	L485.2,125.8z M378.8,134.7c1.1,0.2,0.7,0,1.4,0.4c0.5,0.4,0.9,0.9,1,1.6l3.5,18.5c0.1,0.7,0,1.3-0.3,1.9c-0.4,0.5-0.9,0.9-1.6,1
	l-7.8,1.5c-0.7,0.1-1.3,0-1.9-0.3c-0.5-0.4-0.9-0.9-1-1.6l-3.5-18.5c-0.1-0.7,0-1.3,0.3-1.9c0.4-0.5,0.9-0.9,1.6-1l7.8-1.5
	L378.8,134.7z M379.7,127.1c-0.5,0-1,0.1-1.4,0.2l-10.5,2c-1.4,0.3-2.6,0.7-3.6,1.4c-1,0.7-1.9,1.5-2.5,2.4c-0.7,1-1.1,2-1.3,3.3
	c-0.2,1.2-0.2,2.5,0,3.9l3.7,19.4c0.3,1.4,0.7,2.6,1.4,3.6c0.7,1,1.5,1.9,2.4,2.5c1,0.7,2,1.1,3.3,1.3c1.2,0.2,2.5,0.2,3.9,0l10.5-2
	c1.4-0.3,2.6-0.7,3.6-1.4c1-0.7,1.9-1.5,2.5-2.4c0.7-1,1.1-2,1.3-3.3c0.2-1.2,0.2-2.5,0-3.9l-3.7-19.4c-0.3-1.4-0.7-2.6-1.4-3.6
	c-0.7-1-1.5-1.9-2.4-2.5c-1-0.7-2-1.1-3.3-1.3l-0.9-0.1C380.2,127.1,380.7,127.1,379.7,127.1L379.7,127.1z M498.8,127.7l-1.6,7.2
	l9.9,2.3l-7,30.3l8,1.8l7-30.3l9.9,2.3l1.6-7.2L498.8,127.7z M265.7,158l-7.8,4.7l-0.2,8.6l6-3.6L265.7,158z M337,137.2l-7.9,2.4
	l11.1,36.9l22.4-6.7l-2.1-7.1L346,167L337,137.2z M538.3,138.5c-1.2,0.1-2.4,0.4-3.4,0.9c-1,0.5-2,1.2-2.8,2.2
	c-0.8,0.9-1.4,2-1.9,3.4l-6.4,18.7c-0.5,1.3-0.6,2.6-0.6,3.8c0.1,1.2,0.4,2.4,0.9,3.4c0.5,1,1.2,2,2.2,2.8c0.9,0.8,2,1.4,3.4,1.9
	l9.1,3.1c1.3,0.5,2.6,0.6,3.8,0.6c1.2-0.1,2.4-0.4,3.4-0.9c1-0.5,2-1.2,2.8-2.2s1.4-2,1.9-3.4l0.8-2.2l-7.8-2.7l-0.6,1.8
	c-0.2,0.7-0.6,1.2-1.2,1.5c-0.6,0.3-1.2,0.3-1.9,0.1l-6.5-2.2c-0.7-0.2-1.2-0.6-1.5-1.2c-0.3-0.6-0.3-1.2-0.1-1.9l6.1-17.8
	c0.2-0.7,0.6-1.2,1.2-1.5s1.2-0.3,1.9-0.1l6.5,2.2c0.7,0.2,1.2,0.6,1.5,1.2c0.3,0.6,0.3,1.2,0.1,1.9l-0.6,1.8l7.8,2.7l0.8-2.2
	c0.5-1.3,0.6-2.6,0.6-3.8c-0.1-1.2-0.4-2.4-0.9-3.4c-0.5-1-1.2-2-2.2-2.8c-0.9-0.8-2-1.4-3.4-1.9l-9.1-3.1
	C540.8,138.6,539.5,138.4,538.3,138.5L538.3,138.5z M315.6,145.2c-1.2,0-2.5,0.3-3.8,0.8l-8.1,3.4c-1.3,0.5-2.4,1.2-3.2,2.1
	c-0.9,0.9-1.5,1.8-2,2.9c-0.4,1.1-0.7,2.2-0.7,3.5c0,1.2,0.3,2.5,0.8,3.8l1.6,3.8c0.5,1.3,1.2,2.4,2.1,3.2c0.9,0.9,1.8,1.5,2.9,2
	c1.1,0.4,2.2,0.7,3.5,0.7c1.2,0,2.5-0.3,3.8-0.8l7.1-2.9c0.7-0.3,1.3-0.3,1.9,0c0.6,0.2,1,0.7,1.3,1.4l1.3,3.1
	c0.3,0.7,0.3,1.3,0,1.9c-0.2,0.6-0.7,1-1.4,1.3l-6.4,2.6c-0.7,0.3-1.3,0.3-1.9,0c-0.6-0.2-1-0.7-1.3-1.4l-0.7-1.7l-7.6,3.1l0.9,2.2
	c0.5,1.3,1.2,2.4,2.1,3.2c0.9,0.9,1.8,1.5,2.9,2c1.1,0.4,2.2,0.7,3.5,0.7c1.2,0,2.5-0.3,3.8-0.8l8.9-3.7c1.3-0.5,2.4-1.2,3.2-2.1
	c0.9-0.9,1.5-1.8,2-2.9c0.4-1.1,0.7-2.2,0.7-3.5c0-1.2-0.3-2.5-0.8-3.8l-1.7-4c-0.5-1.3-1.2-2.4-2.1-3.2c-0.9-0.9-1.8-1.5-2.9-2
	c-1.1-0.4-2.2-0.7-3.5-0.7c-1.2,0-2.5,0.3-3.8,0.8l-7.1,2.9c-0.7,0.3-1.3,0.3-1.9,0c-0.6-0.2-1-0.7-1.3-1.4l-1.2-2.9
	c-0.3-0.7-0.3-1.3,0-1.9c0.2-0.6,0.7-1,1.4-1.3l5.6-2.3c0.7-0.3,1.3-0.3,1.9,0c0.6,0.2,1,0.7,1.3,1.4l0.7,1.7l7.6-3.1l-0.9-2.2
	c-0.5-1.3-1.2-2.4-2.1-3.2c-0.9-0.9-1.8-1.5-2.9-2C318,145.4,316.9,145.2,315.6,145.2L315.6,145.2z M568.1,148.5l-16.5,34.8l7.5,3.5
	l6.7-14.2l11.7,5.5l-6.7,14.2l7.5,3.5l16.5-34.8l-7.5-3.5l-6.6,14l-11.7-5.5l6.6-14L568.1,148.5z M607.8,177.5l0.9,0.4l6.7,4.3
	c0.6,0.4,1,0.9,1.1,1.5c0.1,0.6,0,1.3-0.4,1.9l-10,15.9c-0.4,0.6-0.9,1-1.5,1.1c-0.6,0.1-1.3,0-1.9-0.4l-6.7-4.3
	c-0.6-0.4-1-0.9-1.1-1.5c-0.1-0.6,0-1.3,0.4-1.9l10-15.9c0.4-0.6,0.9-1,1.5-1.1L607.8,177.5z M606.2,169.4l-1.7,0.2
	c-1.1,0.3-2.2,0.7-3.2,1.5c-1,0.7-1.9,1.7-2.6,2.8l-10.6,16.7c-0.7,1.2-1.2,2.4-1.4,3.6c-0.2,1.2-0.2,2.4,0.1,3.5
	c0.3,1.1,0.7,2.2,1.5,3.2c0.7,1,1.7,1.9,2.8,2.6l9.1,5.7c1.2,0.7,2.4,1.2,3.6,1.4c1.2,0.2,2.4,0.2,3.5-0.1c1.1-0.3,2.2-0.7,3.2-1.5
	c1-0.7,1.9-1.7,2.6-2.8l10.6-16.7c0.7-1.2,1.2-2.4,1.4-3.6c0.2-1.2,0.2-2.4-0.1-3.5c-0.3-1.1-0.7-2.2-1.5-3.2
	c-0.7-1-1.7-1.9-2.8-2.6l-9.1-5.7c-1.2-0.7-2.4-1.2-3.6-1.4L606.2,169.4z M681.9,215.2l-8.4,1.8l4.9,5l9.9-0.4L681.9,215.2z
	 M633.9,185.4l-13.7,38.3l5.5,4.4l34.5-21.7l-6.6-5.3l-22.3,15l-0.2-0.1l9.9-25L633.9,185.4z M267.3,180.1l9.7,8.6l-6.8,4.1
	l-3.1-12.6L267.3,180.1z M265.6,168.7l-7.2,4.4l8.4,38.8l-24-8.3l0-20.6l-7.2,5.6l0.4,20.6l-0.2,0.2l-10.2-13l-6.5,5.1l23.7,30.4
	l6.5-5.1l-6.5-8.3l0-6.1l17.3,5.9l7.1-5.6l7-4.2l-2.1-8.2l10.7-6.5l6.3,5.6l7.7-4.7L265.6,168.7z M211.8,211.5
	c-1.2,0-2.3,0.2-3.4,0.7c-1.1,0.5-2.2,1.2-3.2,2.2l-6.3,6.2c-1,1-1.7,2-2.2,3.1c-0.5,1.1-0.7,2.3-0.8,3.4c0,1.2,0.2,2.3,0.7,3.4
	c0.5,1.1,1.2,2.2,2.2,3.2l2.9,2.9c1,1,2,1.7,3.1,2.2c1.1,0.5,2.3,0.7,3.4,0.8c1.2,0,2.3-0.2,3.4-0.7c1.1-0.5,2.2-1.2,3.2-2.2
	l5.5-5.4c0.5-0.5,1.1-0.8,1.8-0.8c0.6,0,1.2,0.3,1.7,0.8l2.3,2.4c0.5,0.5,0.8,1.1,0.8,1.8c0,0.6-0.3,1.2-0.8,1.7l-4.9,4.8
	c-0.5,0.5-1.1,0.8-1.8,0.8c-0.6,0-1.2-0.3-1.7-0.8l-1.3-1.3l-5.9,5.8l1.7,1.7c1,1,2,1.7,3.1,2.2c1.1,0.5,2.3,0.7,3.4,0.8
	c1.2,0,2.3-0.2,3.4-0.7s2.2-1.2,3.2-2.2l6.9-6.7c1-1,1.7-2,2.2-3.1s0.7-2.3,0.8-3.4c0-1.2-0.2-2.3-0.7-3.4c-0.5-1.1-1.2-2.2-2.2-3.2
	l-3-3.1c-1-1-2-1.7-3.1-2.2c-1.1-0.5-2.3-0.7-3.4-0.8c-1.2,0-2.3,0.2-3.4,0.7c-1.1,0.5-2.2,1.2-3.2,2.2l-5.5,5.4
	c-0.5,0.5-1.1,0.8-1.8,0.8c-0.6,0-1.2-0.3-1.7-0.8l-2.2-2.2c-0.5-0.5-0.8-1.1-0.8-1.8c0-0.6,0.3-1.2,0.8-1.7l4.3-4.2
	c0.5-0.5,1.1-0.8,1.8-0.8c0.6,0,1.2,0.3,1.7,0.8l1.3,1.3l5.9-5.8l-1.7-1.7c-1-1-2-1.7-3.1-2.2C214.1,211.8,213,211.5,211.8,211.5
	L211.8,211.5z M667.1,228.2l0.2,0.2l-6.1,11.5l-5.6-5.6L667.1,228.2z M671.9,218l-36.7,17.7l6,6l7.5-3.9l8.8,8.9l-4,7.5l6.4,6.4
	l17.9-36.6L671.9,218z M187.5,232.1l-18.2,22.1l5.7,4.7l6.5-7.8l24,19.8l5.3-6.4l-24-19.8l6.5-7.8L187.5,232.1z M699.9,249l-31,22.8
	l13.8,18.8l5.9-4.4l-8.9-12.2l25.1-18.4L699.9,249z M716.8,273l-32.6,20.6l4.4,7l32.6-20.6L716.8,273z M167.8,262.9l-1.7,0.2
	c-1.1,0.2-2.2,0.7-3.2,1.4c-1,0.7-1.9,1.6-2.7,2.8l-4.9,7.3c-0.8,1.2-1.3,2.3-1.5,3.5c-0.2,1.2-0.2,2.4,0,3.5
	c0.2,1.1,0.7,2.2,1.4,3.2c0.7,1,1.6,1.9,2.8,2.7l3.4,2.3c1.2,0.8,2.3,1.3,3.5,1.5c1.2,0.2,2.4,0.2,3.5,0c1.1-0.2,2.2-0.7,3.2-1.4
	c1-0.7,1.9-1.6,2.7-2.8l4.2-6.4c0.4-0.6,0.9-1,1.6-1.1c0.6-0.1,1.3,0,1.9,0.4l2.8,1.8c0.6,0.4,1,0.9,1.1,1.6c0.1,0.6,0,1.3-0.4,1.9
	l-3.8,5.7c-0.4,0.6-0.9,1-1.6,1.1c-0.6,0.1-1.3,0-1.9-0.4l-1.6-1l-4.5,6.9l2,1.3c1.2,0.8,2.3,1.3,3.5,1.5c1.2,0.2,2.4,0.2,3.5,0
	c1.1-0.2,2.2-0.7,3.2-1.4c1-0.7,1.9-1.6,2.7-2.8l5.3-8c0.8-1.2,1.3-2.3,1.5-3.5s0.2-2.4,0-3.5c-0.2-1.1-0.7-2.2-1.4-3.2
	s-1.6-1.9-2.8-2.7l-3.6-2.4c-1.2-0.8-2.3-1.3-3.5-1.5c-1.2-0.2-2.4-0.2-3.5,0c-1.1,0.2-2.2,0.7-3.2,1.4c-1,0.7-1.9,1.6-2.7,2.8
	l-4.2,6.4c-0.4,0.6-0.9,1-1.6,1.1c-0.6,0.1-1.3,0-1.9-0.4l-2.6-1.7c-0.6-0.4-1-0.9-1.1-1.6c-0.1-0.6,0-1.3,0.4-1.9l3.3-5
	c0.4-0.6,0.9-1,1.6-1.1c0.6-0.1,1.3,0,1.9,0.4l1.6,1l4.5-6.9l-2-1.3c-1.2-0.8-2.3-1.3-3.5-1.5L167.8,262.9z M136.9,287.5l-3.4,6.7
	l1.7,3.5l-3.8,0.7l-3.4,6.7l8.8-1.3l4.2-8.2L136.9,287.5z M721.4,290.5c-1.2,0.1-2.4,0.5-3.7,1.1l-17.6,9.1
	c-1.2,0.6-2.3,1.4-3.1,2.4c-0.8,0.9-1.4,2-1.7,3.1c-0.4,1.1-0.5,2.3-0.4,3.5c0.1,1.2,0.5,2.4,1.1,3.7l4.4,8.5
	c0.6,1.2,1.4,2.3,2.4,3.1c0.9,0.8,2,1.4,3.1,1.7c1.1,0.4,2.3,0.5,3.5,0.4c1.2-0.1,2.4-0.5,3.7-1.1l9.7-5l-7-13.4l-6.5,3.4l3.2,6.1
	l-2.7,1.4c-0.7,0.3-1.3,0.4-1.9,0.2c-0.6-0.2-1.1-0.6-1.4-1.3l-3.2-6.1c-0.3-0.7-0.4-1.3-0.2-1.9c0.2-0.6,0.6-1.1,1.3-1.4l16.7-8.7
	c0.7-0.3,1.3-0.4,1.9-0.2c0.6,0.2,1.1,0.6,1.4,1.3l3.2,6.1c0.3,0.7,0.4,1.3,0.2,1.9c-0.2,0.6-0.6,1.1-1.3,1.4l-1.7,0.9l3.8,7.3
	l2.1-1.1c1.2-0.6,2.3-1.4,3.1-2.4c0.8-0.9,1.4-2,1.7-3.1c0.4-1.1,0.5-2.3,0.4-3.5c-0.1-1.2-0.5-2.4-1.1-3.7l-4.4-8.5
	c-0.6-1.2-1.4-2.3-2.4-3.1c-0.9-0.8-2-1.4-3.1-1.7l-1.7-0.4L721.4,290.5z M145.9,289.8l-11.2,21.8l34.2,17.6l11.4-22.3l-6.6-3.4
	l-7.7,14.9l-7.4-3.8l6.9-13.5l-6.6-3.4l-6.9,13.5l-7.2-3.7l7.4-14.4L145.9,289.8z M738,338.4l0.1,0.2l-10.3,8l-2.8-7.4L738,338.4z
	 M746.6,331.1l-40.7,1.1l3,7.9l8.4-0.5l4.4,11.7l-6.7,5.2l3.2,8.4l31.4-26L746.6,331.1z M130.3,320.9l-2.7,7.5l17.3,16.4l-0.1,0.2
	l-23.7,1.3l-2.9,8l36.2,13.2l2.8-7.7l-19.7-7.2l0.1-0.3l22.8-1.4l0.1-0.3l-16.6-15.7l0.1-0.3l19.7,7.2l2.8-7.7L130.3,320.9z
	 M123.3,407.8c-19.3,0-35,15.7-35,35c0,19.3,15.7,35,35,35s35-15.7,35-35C158.3,423.5,142.7,407.8,123.3,407.8L123.3,407.8z
	 M748.2,408.3c-19.3,0-35,15.7-35,35c0,19.3,15.7,35,35,35c19.3,0,35-15.7,35-35C783.2,424,767.5,408.3,748.2,408.3L748.2,408.3z
	 M701.9,580.5l-16.2,27.7l43.5,25.5l16.5-28.3l-8.3-4.9l-11.1,19l-9.4-5.5l10-17.1l-8.3-4.9l-10,17.1l-9.1-5.3l10.7-18.3
	L701.9,580.5z M170.2,594.2l-9.6,5.8l11.6,5l0.1,0.2l-33.3,20.3l5.6,9.2l43-26.2l-5.6-9.2L170.2,594.2z M664.9,617l-6.2,7.6l1.2,4.9
	l-5.1-0.2l-6.2,7.6l11.7,0.7l7.7-9.4L664.9,617z M195.3,636.9c0.8,0.1,1.6,0.5,2.2,1.2l4.8,5.8c0.6,0.7,0.9,1.5,0.8,2.4
	c-0.1,0.8-0.5,1.6-1.2,2.2l-19,15.6c-0.7,0.6-1.5,0.9-2.4,0.8c-0.8-0.1-1.6-0.5-2.2-1.2l-4.8-5.8c-0.6-0.7-0.9-1.5-0.8-2.4
	c0.1-0.8,0.5-1.6,1.2-2.2l19-15.6C193.6,637.1,194.4,636.8,195.3,636.9z M194.4,625.9c-2.7,0.3-1.5,0.1-3.4,0.6
	c-1.5,0.5-3,1.3-4.4,2.5l-20,16.5c-1.4,1.2-2.5,2.4-3.3,3.8c-0.8,1.4-1.2,2.9-1.4,4.4c-0.1,1.5,0,3,0.5,4.6c0.5,1.5,1.3,3,2.5,4.4
	l7.1,8.6c1.2,1.4,2.4,2.5,3.8,3.3c1.4,0.8,2.9,1.2,4.4,1.4c1.5,0.1,3,0,4.6-0.5c1.5-0.5,3-1.3,4.4-2.5l20-16.5
	c1.4-1.2,2.5-2.4,3.3-3.8c0.8-1.4,1.2-2.9,1.4-4.4c0.1-1.5,0-3-0.5-4.6c-0.5-1.5-1.3-3-2.5-4.4l-7.1-8.6c-1.2-1.4-2.4-2.5-3.8-3.3
	s-2.9-1.2-4.4-1.4L194.4,625.9z M436.1,206.7c-129.8,0-235,105.2-235,235c0,129.8,105.2,235,235,235c129.8,0,235-105.2,235-235
	S565.9,206.7,436.1,206.7L436.1,206.7z M679.4,634.6c0.8-0.1,1.6,0.2,2.4,0.8l5.1,4.2c0.7,0.6,1.2,1.3,1.2,2.2
	c0.1,0.8-0.2,1.6-0.8,2.4l-7.3,8.9l-10.1-8.3l7.3-8.9C677.8,635.1,678.5,634.7,679.4,634.6z M680.2,623.7l-1.1,0.1
	c-1.5,0.2-3,0.6-4.4,1.4c-1.4,0.8-2.7,1.9-3.8,3.3L655.6,647l39,31.9l6.8-8.4l-13.9-11.4l3.5-4.2l19.9,4.2l7.7-9.4l-20.5-4.3
	c1-2.4,1.2-4.8,0.5-7.3c-0.6-2.4-2.1-4.6-4.4-6.4l-6.1-5c-1.4-1.2-2.9-2-4.4-2.5C681.8,623.7,682.9,624,680.2,623.7z M646.1,657.1
	l-8.1,7.1l13.3,15.2l-12.8,11.1l-13.3-15.2l-8.1,7.1l33.1,38l8.1-7.1l-13.5-15.5l12.8-11.1l13.5,15.5l8.1-7.1L646.1,657.1z
	 M357.1,720.5l-8.5,7.4l8.8,2.6l11.1-6.6L357.1,720.5z M247.7,676.4l-29.5,40.8l8.8,6.3l12-16.6l13.7,9.9l-12,16.6l8.8,6.3
	l29.5-40.8l-8.8-6.3L258.3,709l-13.7-9.9l11.9-16.4L247.7,676.4z M389.9,728.2l5.7,10.3l12,1.4l7.9-8.6l-9.7-1.2l-3.6,3.6l-2.6-4.4
	L389.9,728.2z M448.7,730.8c1.6,0.4,2.1,0.8,2.3,2.5c0.1,1.8-0.7,2.8-2.5,2.9c-1.8,0.1-2.8-0.7-2.9-2.5c-0.1-1.8,0.7-2.8,2.5-2.9
	L448.7,730.8z M447.7,725.5c-2.4,0.2-4.3,1-5.6,2.6c-1.4,1.6-2,3.5-1.8,5.9c0.2,2.4,1,4.3,2.6,5.6c1.6,1.4,3.5,2,5.9,1.8
	c2.4-0.2,4.3-1,5.6-2.6c1.4-1.6,2-3.5,1.8-5.9c-0.2-2.4-1-4.3-2.6-5.6S450.1,725.4,447.7,725.5z M584.6,703.9L556,718.2l22.5,45.1
	l29.3-14.6l-4.3-8.6l-19.6,9.8l-4.9-9.7l17.7-8.8l-4.3-8.6l-17.7,8.8l-4.7-9.5l19-9.5L584.6,703.9z M296.2,719.2l10.3,5.1
	c0.9,0.4,1.4,1,1.7,1.8c0.3,0.8,0.2,1.6-0.2,2.5l-2.9,6c-0.4,0.9-1,1.4-1.8,1.7c-0.8,0.3-1.6,0.2-2.5-0.2l-10.3-5.1L296.2,719.2z
	 M290.7,705.8l-22.1,45.3l9.7,4.7l7.9-16.2l4.9,2.4l0.5,20.3l10.9,5.3l-0.5-20.9c2.6,0.4,5,0,7.2-1.2c2.2-1.2,4-3.1,5.3-5.7l3.5-7.1
	c0.8-1.6,1.3-3.3,1.4-4.9c0.1-1.6-0.1-3.1-0.6-4.6c-0.5-1.4-1.3-2.8-2.4-4c-1.1-1.2-2.4-2.2-4.1-3L290.7,705.8z M547,722.4
	l-10.6,3.3l0.1,35.2l-0.3,0.1l-20-29l-11.3,3.5l31.7,42.9l8.8-2.8L547,722.4z M348.3,744.8l0.3,0.1l0.2,17l-9.9-2.9L348.3,744.8z
	 M347.4,730l-31,43.4l10.6,3.2l6.1-9.2l15.7,4.6l0.2,11.1l11.3,3.4l-2.4-53.3L347.4,730z M393.5,740.7c-2.9,0.2-1.7,0-3.7,0.4
	c-1.5,0.4-2.9,1.1-4.1,2c-1.2,0.9-2.2,2.1-3,3.5c-0.8,1.4-1.3,3-1.5,4.8l-3.1,25.7c-0.2,1.8-0.1,3.5,0.3,5c0.4,1.5,1.1,2.9,2,4.1
	s2.1,2.2,3.5,3c1.4,0.8,3,1.3,4.8,1.5l12.5,1.5c1.8,0.2,3.5,0.1,5-0.3c1.5-0.4,2.9-1.1,4.1-2c1.2-0.9,2.2-2.1,3-3.5
	c0.8-1.4,1.3-3,1.5-4.8l0.4-3.1l-10.7-1.3l-0.3,2.4c-0.1,1-0.5,1.7-1.2,2.2c-0.7,0.5-1.5,0.7-2.4,0.6l-8.9-1.1
	c-1-0.1-1.7-0.5-2.2-1.2c-0.5-0.7-0.7-1.5-0.6-2.4l2.9-24.4c0.1-1,0.5-1.7,1.2-2.2c0.7-0.5,1.5-0.7,2.4-0.6l8.9,1.1
	c1,0.1,1.7,0.5,2.2,1.2c0.5,0.7,0.7,1.5,0.6,2.4l-0.3,2.4l10.7,1.3l0.4-3.1c0.2-1.8,0.1-3.5-0.3-5c-0.4-1.5-1.1-2.9-2-4.1
	c-0.9-1.2-2.1-2.2-3.5-3c-1.4-0.8-3-1.3-4.8-1.5l-12.5-1.5L393.5,740.7z M468.6,741.1l-10.8,0.7l2.5,37.4c0.1,1-0.2,1.8-0.7,2.4
	c-0.6,0.6-1.3,1-2.3,1.1l-10.4,0.7c-1,0.1-1.8-0.2-2.4-0.7c-0.6-0.6-1-1.3-1.1-2.3l-2.5-37.4l-10.8,0.7l2.6,38.1
	c0.1,1.8,0.5,3.5,1.2,4.9c0.7,1.4,1.6,2.7,2.8,3.7c1.2,1,2.5,1.8,4,2.3c1.5,0.5,3.2,0.7,5,0.6l14-0.9c1.8-0.1,3.5-0.5,4.9-1.2
	c1.4-0.7,2.7-1.6,3.7-2.8c1-1.2,1.8-2.5,2.3-4c0.5-1.5,0.7-3.2,0.6-5L468.6,741.1z M434.4,52.9c215.4,0,390,174.6,390,390
	s-174.6,390-390,390s-390-174.6-390-390S219,52.9,434.4,52.9L434.4,52.9z"/>
<ellipse transform="matrix(0.1602 -0.9871 0.9871 0.1602 -333.5489 493.7792)" class="st0" cx="123.4" cy="442.9" rx="27.5" ry="27.5"/>
<circle class="st0" cx="748.3" cy="443.4" r="27.5"/>
<path class="st1" d="M442.3,244.2l-5,0c-54.3,0.8-98,14.7-138,40.7s-80.7,89.4-80.7,89.4l178.7,182.9c0,0-4.3,9.8-5.3,16.1
	c-0.9,6.3-0.6,15.5,1.5,20.3s4.5,11.9,11.2,18.2s13.8,11.5,21.2,13c7.4,1.5,15.8,1.3,25.7-1.7c9.9-3,17.9-10.4,22.2-16.8
	s8.7-17.5,8.4-25.7c-0.4-8.2-1.5-11.9-2.8-15.1c-1.3-3.2-4.3-8.4-4.2-8.7l179.5-182.4c0,0-36.8-63.6-80.9-88.5
	C528.6,260.2,494,245.7,442.3,244.2z M436.6,222.8c74.9-0.3,121.5,26.3,163.1,54.6c41.6,28.3,80.2,101.2,80.2,101.2
	S500.2,562.5,500.2,562.5c0.1,0.2,1.4,4,2.4,8.9c0.9,4.8,1.2,9.7-0.1,18.7c-1.3,9-4.2,18.2-10.7,28.3c-6.6,10.1-14.5,16-25.3,21.9
	c-10.7,5.9-18.7,6.6-29.1,7.1c-10.4,0.5-17.8-1.7-27.5-5.6s-15.6-8.6-20.3-13.6c-4.7-5-9.8-12.6-13.6-20.4c-3.8-7.9-5-18.1-5.5-25
	c-0.5-6.9,2.3-19,2.3-19c0,0-180.1-184.4-180.1-184.4c0,0,23.6-49.6,63.6-86.9C296.2,255.1,361.7,223.2,436.6,222.8z"/>
<path class="st1" d="M469.3,397c1.6,0,2.9,0.5,3.9,1.5s1.5,2.3,1.5,3.9v41c0,1.6-0.5,2.9-1.5,3.9s-2.3,1.5-3.9,1.5h-12.6
	c-1.6,0-2.9-0.5-3.9-1.5s-1.5-2.3-1.5-3.9v-41c0-1.6,0.5-2.9,1.5-3.9s2.3-1.5,3.9-1.5H469.3z M472.3,380.9h-18.6
	c-3,0-5.8,0.5-8.3,1.5c-2.5,1-4.6,2.4-6.4,4.2s-3.2,3.9-4.2,6.4c-1,2.5-1.5,5.2-1.5,8.3v43.2c0,3,0.5,5.8,1.5,8.3s2.4,4.6,4.2,6.4
	c1.8,1.8,3.9,3.2,6.4,4.2c2.5,1,5.2,1.5,8.3,1.5h18.6c3,0,5.8-0.5,8.3-1.5c2.5-1,4.6-2.4,6.4-4.2c1.8-1.8,3.2-3.9,4.2-6.4
	s1.5-5.2,1.5-8.3v-43.2c0-3-0.5-5.8-1.5-8.3c-1-2.5-2.4-4.6-4.2-6.4s-3.9-3.2-6.4-4.2C478.1,381.4,475.4,380.9,472.3,380.9z
	 M421.3,380.9h-17.9l-17.6,12.6v18.7L403,400h0.5v64.9h17.9V380.9z M474.8,292c0,0,83.7,84.9,83.7,84.9s-7,7.2-9.2,9.9
	c-2.2,2.8-3.3,4.7-6.8,12.3c-3.5,7.6-4,15-3.3,22.9c0.7,7.9,5.2,15.3,8.1,19.6c2.9,4.3,12.8,10.2,12.8,10.2l-92.7,93.5
	c0,0-8.4-8.4-12.9-11.8c-4.6-3.4-13.3-4.9-19.5-4.9c-6.3,0-12.3,2.3-17.5,5.5c-5.1,3.2-11.5,10.9-11.5,10.9s-92.1-92.3-92.1-92.3
	c0,0,7.7-5.7,12.7-11.8c5-6.1,5.1-11.6,6.9-18.6c1.7-7,0-14.9-1.1-20.3s-4.3-9.8-8-14.5c-3.7-4.7-9.8-9.9-9.8-9.9
	c0,0,83-83.2,83-83.2s7.1,7.6,11.3,10.4c4.2,2.8,13,6.9,18.7,7.7c5.7,0.9,14.2,0.9,21.4-1.2c7.3-2.1,11.9-4.5,16.1-7.9
	C469.2,300,474.8,292,474.8,292z"/>
<path class="st1" d="M296.6,415.4l17.8-18c0,0,3.4,5.5,4.3,10.5c0.9,5,1.4,11.5-0.1,15.7c-1.5,4.2-4.7,9.6-4.7,9.6
	S296.6,415.5,296.6,415.4z"/>
<path class="st1" d="M418.4,293.2l17.8-17.9l18.1,17.9c0,0-7.9,3.9-11.9,4.7c-4,0.8-10.5,1.2-14.3-0.3
	C424.2,296.1,418.3,293.1,418.4,293.2z"/>
<path class="st1" d="M576.6,415.8l-17.2,17.8c0,0-3.5-3.3-4.8-8.2c-1.3-4.9-1.8-8.8-1.1-13c0.7-4.2,1.6-6.7,2.8-9.2s2.6-4.3,2.7-4.3
	C559,399,576.6,416,576.6,415.8z"/>
<ellipse transform="matrix(0.4472 -0.8944 0.8944 0.4472 -278.7077 712.3386)" class="st1" cx="436.9" cy="581.6" rx="21.4" ry="21.4"/>
</svg>
