<?xml version="1.0" encoding="utf-8"?>
<!-- Generator: Adobe Illustrator 22.0.0, SVG Export Plug-In . SVG Version: 6.00 Build 0)  -->
<svg version="1.1" id="Layer_1" xmlns="http://www.w3.org/2000/svg" xmlns:xlink="http://www.w3.org/1999/xlink" x="0px" y="0px"
	 viewBox="0 0 900 900" style="enable-background:new 0 0 900 900;" xml:space="preserve">
<style type="text/css">
	.st0{fill:#07C632;}
	.st1{fill:#12284B;}
</style>
<path class="st0" d="M459.7,130.4l8.2,0.7c0.7,0.1,1.3,0.3,1.7,0.8c0.4,0.5,0.6,1.1,0.5,1.8l-0.5,5.6c-0.1,0.7-0.3,1.3-0.8,1.7
	c-0.5,0.4-1.1,0.6-1.8,0.5l-8.2-0.7L459.7,130.4z M452,122.4l-3.1,38.4l8.2,0.7l1.1-13.2l9.6,0.8c1.4,0.1,2.7,0,3.8-0.4
	c1.2-0.4,2.2-0.9,3.1-1.7c0.9-0.8,1.6-1.7,2.2-2.8c0.5-1.1,0.9-2.3,1-3.7l0.5-6.6c0.1-1.4,0-2.7-0.4-3.8c-0.4-1.2-0.9-2.2-1.7-3.1
	c-0.8-0.9-1.7-1.6-2.8-2.2c-1.1-0.5-2.3-0.9-3.7-1L452,122.4z M444.8,121.5l-7.9,0.4l-4.9,25.8l-0.2,0l-7.3-25.2l-8.5,0.4l-4.9,25.8
	l-0.2,0l-7.3-25.2L395,124l12.1,38l8.5-0.4l4.9-25.8l0.2,0l7.3,25.2l8.5-0.4L444.8,121.5z M485.2,125.8l-5.9,38l8.2,1.3l5.9-38
	L485.2,125.8z M378.8,134.7c1.1,0.2,0.7,0,1.4,0.4c0.5,0.4,0.9,0.9,1,1.6l3.5,18.5c0.1,0.7,0,1.3-0.3,1.9c-0.4,0.5-0.9,0.9-1.6,1
	l-7.8,1.5c-0.7,0.1-1.3,0-1.9-0.3c-0.5-0.4-0.9-0.9-1-1.6l-3.5-18.5c-0.1-0.7,0-1.3,0.3-1.9c0.4-0.5,0.9-0.9,1.6-1l7.8-1.5
	L378.8,134.7z M379.7,127.1c-0.5,0-1,0.1-1.4,0.2l-10.5,2c-1.4,0.3-2.6,0.7-3.6,1.4c-1,0.7-1.9,1.5-2.5,2.4c-0.7,1-1.1,2-1.3,3.3
	c-0.2,1.2-0.2,2.5,0,3.9l3.7,19.4c0.3,1.4,0.7,2.6,1.4,3.6c0.7,1,1.5,1.9,2.4,2.5c1,0.7,2,1.1,3.3,1.3c1.2,0.2,2.5,0.2,3.9,0l10.5-2
	c1.4-0.3,2.6-0.7,3.6-1.4c1-0.7,1.9-1.5,2.5-2.4c0.7-1,1.1-2,1.3-3.3c0.2-1.2,0.2-2.5,0-3.9l-3.7-19.4c-0.3-1.4-0.7-2.6-1.4-3.6
	c-0.7-1-1.5-1.9-2.4-2.5c-1-0.7-2-1.1-3.3-1.3l-0.9-0.1C380.2,127.1,380.7,127.1,379.7,127.1L379.7,127.1z M498.8,127.7l-1.6,7.2
	l9.9,2.3l-7,30.3l8,1.8l7-30.3l9.9,2.3l1.6-7.2L498.8,127.7z M265.7,158l-7.8,4.7l-0.2,8.6l6-3.6L265.7,158z M337,137.2l-7.9,2.4
	l11.1,36.9l22.4-6.7l-2.1-7.1L346,167L337,137.2z M538.3,138.5c-1.2,0.1-2.4,0.4-3.4,0.9c-1,0.5-2,1.2-2.8,2.2
	c-0.8,0.9-1.4,2-1.9,3.4l-6.4,18.7c-0.5,1.3-0.6,2.6-0.6,3.8c0.1,1.2,0.4,2.4,0.9,3.4c0.5,1,1.2,2,2.2,2.8c0.9,0.8,2,1.4,3.4,1.9
	l9.1,3.1c1.3,0.5,2.6,0.6,3.8,0.6c1.2-0.1,2.4-0.4,3.4-0.9c1-0.5,2-1.2,2.8-2.2s1.4-2,1.9-3.4l0.8-2.2l-7.8-2.7l-0.6,1.8
	c-0.2,0.7-0.6,1.2-1.2,1.5c-0.6,0.3-1.2,0.3-1.9,0.1l-6.5-2.2c-0.7-0.2-1.2-0.6-1.5-1.2c-0.3-0.6-0.3-1.2-0.1-1.9l6.1-17.8
	c0.2-0.7,0.6-1.2,1.2-1.5s1.2-0.3,1.9-0.1l6.5,2.2c0.7,0.2,1.2,0.6,1.5,1.2c0.3,0.6,0.3,1.2,0.1,1.9l-0.6,1.8l7.8,2.7l0.8-2.2
	c0.5-1.3,0.6-2.6,0.6-3.8c-0.1-1.2-0.4-2.4-0.9-3.4c-0.5-1-1.2-2-2.2-2.8c-0.9-0.8-2-1.4-3.4-1.9l-9.1-3.1
	C540.8,138.6,539.5,138.4,538.3,138.5L538.3,138.5z M315.6,145.2c-1.2,0-2.5,0.3-3.8,0.8l-8.1,3.4c-1.3,0.5-2.4,1.2-3.2,2.1
	c-0.9,0.9-1.5,1.8-2,2.9c-0.4,1.1-0.7,2.2-0.7,3.5c0,1.2,0.3,2.5,0.8,3.8l1.6,3.8c0.5,1.3,1.2,2.4,2.1,3.2c0.9,0.9,1.8,1.5,2.9,2
	c1.1,0.4,2.2,0.7,3.5,0.7c1.2,0,2.5-0.3,3.8-0.8l7.1-2.9c0.7-0.3,1.3-0.3,1.9,0c0.6,0.2,1,0.7,1.3,1.4l1.3,3.1
	c0.3,0.7,0.3,1.3,0,1.9c-0.2,0.6-0.7,1-1.4,1.3l-6.4,2.6c-0.7,0.3-1.3,0.3-1.9,0c-0.6-0.2-1-0.7-1.3-1.4l-0.7-1.7l-7.6,3.1l0.9,2.2
	c0.5,1.3,1.2,2.4,2.1,3.2c0.9,0.9,1.8,1.5,2.9,2c1.1,0.4,2.2,0.7,3.5,0.7c1.2,0,2.5-0.3,3.8-0.8l8.9-3.7c1.3-0.5,2.4-1.2,3.2-2.1
	c0.9-0.9,1.5-1.8,2-2.9c0.4-1.1,0.7-2.2,0.7-3.5c0-1.2-0.3-2.5-0.8-3.8l-1.7-4c-0.5-1.3-1.2-2.4-2.1-3.2c-0.9-0.9-1.8-1.5-2.9-2
	c-1.1-0.4-2.2-0.7-3.5-0.7c-1.2,0-2.5,0.3-3.8,0.8l-7.1,2.9c-0.7,0.3-1.3,0.3-1.9,0c-0.6-0.2-1-0.7-1.3-1.4l-1.2-2.9
	c-0.3-0.7-0.3-1.3,0-1.9c0.2-0.6,0.7-1,1.4-1.3l5.6-2.3c0.7-0.3,1.3-0.3,1.9,0c0.6,0.2,1,0.7,1.3,1.4l0.7,1.7l7.6-3.1l-0.9-2.2
	c-0.5-1.3-1.2-2.4-2.1-3.2c-0.9-0.9-1.8-1.5-2.9-2C318,145.4,316.9,145.2,315.6,145.2L315.6,145.2z M568.1,148.5l-16.5,34.8l7.5,3.5
	l6.7-14.2l11.7,5.5l-6.7,14.2l7.5,3.5l16.5-34.8l-7.5-3.5l-6.6,14l-11.7-5.5l6.6-14L568.1,148.5z M607.8,177.5l0.9,0.4l6.7,4.3
	c0.6,0.4,1,0.9,1.1,1.5c0.1,0.6,0,1.3-0.4,1.9l-10,15.9c-0.4,0.6-0.9,1-1.5,1.1c-0.6,0.1-1.3,0-1.9-0.4l-6.7-4.3
	c-0.6-0.4-1-0.9-1.1-1.5c-0.1-0.6,0-1.3,0.4-1.9l10-15.9c0.4-0.6,0.9-1,1.5-1.1L607.8,177.5z M606.2,169.4l-1.7,0.2
	c-1.1,0.3-2.2,0.7-3.2,1.5c-1,0.7-1.9,1.7-2.6,2.8l-10.6,16.7c-0.7,1.2-1.2,2.4-1.4,3.6c-0.2,1.2-0.2,2.4,0.1,3.5
	c0.3,1.1,0.7,2.2,1.5,3.2c0.7,1,1.7,1.9,2.8,2.6l9.1,5.7c1.2,0.7,2.4,1.2,3.6,1.4c1.2,0.2,2.4,0.2,3.5-0.1c1.1-0.3,2.2-0.7,3.2-1.5
	c1-0.7,1.9-1.7,2.6-2.8l10.6-16.7c0.7-1.2,1.2-2.4,1.4-3.6c0.2-1.2,0.2-2.4-0.1-3.5c-0.3-1.1-0.7-2.2-1.5-3.2
	c-0.7-1-1.7-1.9-2.8-2.6l-9.1-5.7c-1.2-0.7-2.4-1.2-3.6-1.4L606.2,169.4z M681.9,215.2l-8.4,1.8l4.9,5l9.9-0.4L681.9,215.2z
	 M633.9,185.4l-13.7,38.3l5.5,4.4l34.5-21.7l-6.6-5.3l-22.3,15l-0.2-0.1l9.9-25L633.9,185.4z M267.3,180.1l9.7,8.6l-6.8,4.1
	l-3.1-12.6L267.3,180.1z M265.6,168.7l-7.2,4.4l8.4,38.8l-24-8.3l0-20.6l-7.2,5.6l0.4,20.6l-0.2,0.2l-10.2-13l-6.5,5.1l23.7,30.4
	l6.5-5.1l-6.5-8.3l0-6.1l17.3,5.9l7.1-5.6l7-4.2l-2.1-8.2l10.7-6.5l6.3,5.6l7.7-4.7L265.6,168.7z M211.8,211.5
	c-1.2,0-2.3,0.2-3.4,0.7c-1.1,0.5-2.2,1.2-3.2,2.2l-6.3,6.2c-1,1-1.7,2-2.2,3.1c-0.5,1.1-0.7,2.3-0.8,3.4c0,1.2,0.2,2.3,0.7,3.4
	c0.5,1.1,1.2,2.2,2.2,3.2l2.9,2.9c1,1,2,1.7,3.1,2.2c1.1,0.5,2.3,0.7,3.4,0.8c1.2,0,2.3-0.2,3.4-0.7c1.1-0.5,2.2-1.2,3.2-2.2
	l5.5-5.4c0.5-0.5,1.1-0.8,1.8-0.8c0.6,0,1.2,0.3,1.7,0.8l2.3,2.4c0.5,0.5,0.8,1.1,0.8,1.8c0,0.6-0.3,1.2-0.8,1.7l-4.9,4.8
	c-0.5,0.5-1.1,0.8-1.8,0.8c-0.6,0-1.2-0.3-1.7-0.8l-1.3-1.3l-5.9,5.8l1.7,1.7c1,1,2,1.7,3.1,2.2c1.1,0.5,2.3,0.7,3.4,0.8
	c1.2,0,2.3-0.2,3.4-0.7s2.2-1.2,3.2-2.2l6.9-6.7c1-1,1.7-2,2.2-3.1s0.7-2.3,0.8-3.4c0-1.2-0.2-2.3-0.7-3.4c-0.5-1.1-1.2-2.2-2.2-3.2
	l-3-3.1c-1-1-2-1.7-3.1-2.2c-1.1-0.5-2.3-0.7-3.4-0.8c-1.2,0-2.3,0.2-3.4,0.7c-1.1,0.5-2.2,1.2-3.2,2.2l-5.5,5.4
	c-0.5,0.5-1.1,0.8-1.8,0.8c-0.6,0-1.2-0.3-1.7-0.8l-2.2-2.2c-0.5-0.5-0.8-1.1-0.8-1.8c0-0.6,0.3-1.2,0.8-1.7l4.3-4.2
	c0.5-0.5,1.1-0.8,1.8-0.8c0.6,0,1.2,0.3,1.7,0.8l1.3,1.3l5.9-5.8l-1.7-1.7c-1-1-2-1.7-3.1-2.2C214.1,211.8,213,211.5,211.8,211.5
	L211.8,211.5z M667.1,228.2l0.2,0.2l-6.1,11.5l-5.6-5.6L667.1,228.2z M671.9,218l-36.7,17.7l6,6l7.5-3.9l8.8,8.9l-4,7.5l6.4,6.4
	l17.9-36.6L671.9,218z M187.5,232.1l-18.2,22.1l5.7,4.7l6.5-7.8l24,19.8l5.3-6.4l-24-19.8l6.5-7.8L187.5,232.1z M699.9,249l-31,22.8
	l13.8,18.8l5.9-4.4l-8.9-12.2l25.1-18.4L699.9,249z M716.8,273l-32.6,20.6l4.4,7l32.6-20.6L716.8,273z M167.8,262.9l-1.7,0.2
	c-1.1,0.2-2.2,0.7-3.2,1.4c-1,0.7-1.9,1.6-2.7,2.8l-4.9,7.3c-0.8,1.2-1.3,2.3-1.5,3.5c-0.2,1.2-0.2,2.4,0,3.5
	c0.2,1.1,0.7,2.2,1.4,3.2c0.7,1,1.6,1.9,2.8,2.7l3.4,2.3c1.2,0.8,2.3,1.3,3.5,1.5c1.2,0.2,2.4,0.2,3.5,0c1.1-0.2,2.2-0.7,3.2-1.4
	c1-0.7,1.9-1.6,2.7-2.8l4.2-6.4c0.4-0.6,0.9-1,1.6-1.1c0.6-0.1,1.3,0,1.9,0.4l2.8,1.8c0.6,0.4,1,0.9,1.1,1.6c0.1,0.6,0,1.3-0.4,1.9
	l-3.8,5.7c-0.4,0.6-0.9,1-1.6,1.1c-0.6,0.1-1.3,0-1.9-0.4l-1.6-1l-4.5,6.9l2,1.3c1.2,0.8,2.3,1.3,3.5,1.5c1.2,0.2,2.4,0.2,3.5,0
	c1.1-0.2,2.2-0.7,3.2-1.4c1-0.7,1.9-1.6,2.7-2.8l5.3-8c0.8-1.2,1.3-2.3,1.5-3.5s0.2-2.4,0-3.5c-0.2-1.1-0.7-2.2-1.4-3.2
	s-1.6-1.9-2.8-2.7l-3.6-2.4c-1.2-0.8-2.3-1.3-3.5-1.5c-1.2-0.2-2.4-0.2-3.5,0c-1.1,0.2-2.2,0.7-3.2,1.4c-1,0.7-1.9,1.6-2.7,2.8
	l-4.2,6.4c-0.4,0.6-0.9,1-1.6,1.1c-0.6,0.1-1.3,0-1.9-0.4l-2.6-1.7c-0.6-0.4-1-0.9-1.1-1.6c-0.1-0.6,0-1.3,0.4-1.9l3.3-5
	c0.4-0.6,0.9-1,1.6-1.1c0.6-0.1,1.3,0,1.9,0.4l1.6,1l4.5-6.9l-2-1.3c-1.2-0.8-2.3-1.3-3.5-1.5L167.8,262.9z M136.9,287.5l-3.4,6.7
	l1.7,3.5l-3.8,0.7l-3.4,6.7l8.8-1.3l4.2-8.2L136.9,287.5z M721.4,290.5c-1.2,0.1-2.4,0.5-3.7,1.1l-17.6,9.1
	c-1.2,0.6-2.3,1.4-3.1,2.4c-0.8,0.9-1.4,2-1.7,3.1c-0.4,1.1-0.5,2.3-0.4,3.5c0.1,1.2,0.5,2.4,1.1,3.7l4.4,8.5
	c0.6,1.2,1.4,2.3,2.4,3.1c0.9,0.8,2,1.4,3.1,1.7c1.1,0.4,2.3,0.5,3.5,0.4c1.2-0.1,2.4-0.5,3.7-1.1l9.7-5l-7-13.4l-6.5,3.4l3.2,6.1
	l-2.7,1.4c-0.7,0.3-1.3,0.4-1.9,0.2c-0.6-0.2-1.1-0.6-1.4-1.3l-3.2-6.1c-0.3-0.7-0.4-1.3-0.2-1.9c0.2-0.6,0.6-1.1,1.3-1.4l16.7-8.7
	c0.7-0.3,1.3-0.4,1.9-0.2c0.6,0.2,1.1,0.6,1.4,1.3l3.2,6.1c0.3,0.7,0.4,1.3,0.2,1.9c-0.2,0.6-0.6,1.1-1.3,1.4l-1.7,0.9l3.8,7.3
	l2.1-1.1c1.2-0.6,2.3-1.4,3.1-2.4c0.8-0.9,1.4-2,1.7-3.1c0.4-1.1,0.5-2.3,0.4-3.5c-0.1-1.2-0.5-2.4-1.1-3.7l-4.4-8.5
	c-0.6-1.2-1.4-2.3-2.4-3.1c-0.9-0.8-2-1.4-3.1-1.7l-1.7-0.4L721.4,290.5z M145.9,289.8l-11.2,21.8l34.2,17.6l11.4-22.3l-6.6-3.4
	l-7.7,14.9l-7.4-3.8l6.9-13.5l-6.6-3.4l-6.9,13.5l-7.2-3.7l7.4-14.4L145.9,289.8z M738,338.4l0.1,0.2l-10.3,8l-2.8-7.4L738,338.4z
	 M746.6,331.1l-40.7,1.1l3,7.9l8.4-0.5l4.4,11.7l-6.7,5.2l3.2,8.4l31.4-26L746.6,331.1z M130.3,320.9l-2.7,7.5l17.3,16.4l-0.1,0.2
	l-23.7,1.3l-2.9,8l36.2,13.2l2.8-7.7l-19.7-7.2l0.1-0.3l22.8-1.4l0.1-0.3l-16.6-15.7l0.1-0.3l19.7,7.2l2.8-7.7L130.3,320.9z
	 M123.3,407.8c-19.3,0-35,15.7-35,35c0,19.3,15.7,35,35,35s35-15.7,35-35C158.3,423.5,142.7,407.8,123.3,407.8L123.3,407.8z
	 M748.2,408.3c-19.3,0-35,15.7-35,35c0,19.3,15.7,35,35,35c19.3,0,35-15.7,35-35C783.2,424,767.5,408.3,748.2,408.3L748.2,408.3z
	 M436.1,206.7c-129.8,0-235,105.2-235,235c0,129.8,105.2,235,235,235c129.8,0,235-105.2,235-235S565.9,206.7,436.1,206.7
	L436.1,206.7z M600.3,679.7l-10,6.3l0,11.3l7.7-4.9L600.3,679.7z M568,699.2l-8.9,4.1l-1.1,5l-4.5-2.4l-8.9,4.1l10.2,5.8l11-5.1
	L568,699.2z M599.2,694.4l-9.1,5.8l26.9,42.6l9.1-5.8L599.2,694.4z M261.4,698.2l9.6,6.4c0.8,0.5,1.3,1.2,1.4,2.1
	c0.2,0.8,0,1.6-0.6,2.4l-3.7,5.5c-0.5,0.8-1.2,1.3-2.1,1.4c-0.8,0.2-1.6,0-2.4-0.6l-9.6-6.4L261.4,698.2z M257.8,684.2L229.8,726
	l9,6l10-15l4.5,3l-2.2,20.2l10.1,6.8l2.3-20.8c2.5,0.8,4.9,0.7,7.3-0.2s4.4-2.5,6-4.9l4.4-6.6c1-1.5,1.7-3.1,2-4.6
	c0.3-1.6,0.3-3.1,0.1-4.6c-0.3-1.5-0.9-2.9-1.8-4.2c-0.9-1.3-2.1-2.5-3.6-3.5L257.8,684.2z M572.9,711.6l-1.2,0
	c-1.6,0.1-3.2,0.5-4.9,1.3l-11.4,5.3c-1.7,0.8-3,1.7-4.1,2.9s-1.9,2.5-2.4,3.9s-0.8,3-0.7,4.6c0.1,1.6,0.5,3.2,1.3,4.9l10.9,23.5
	c0.8,1.7,1.7,3,2.9,4.1c1.2,1.1,2.5,1.9,3.9,2.4s3,0.8,4.6,0.7c1.6-0.1,3.2-0.5,4.9-1.3l11.4-5.3c1.7-0.8,3-1.7,4.1-2.9
	c1.1-1.2,1.9-2.5,2.4-3.9c0.5-1.4,0.8-3,0.7-4.6c-0.1-1.6-0.5-3.2-1.3-4.9l-1.3-2.8l-9.8,4.5l1,2.2c0.4,0.9,0.5,1.7,0.2,2.5
	c-0.3,0.8-0.9,1.4-1.7,1.8l-8.2,3.8c-0.9,0.4-1.7,0.5-2.5,0.2c-0.8-0.3-1.4-0.9-1.8-1.7l-10.3-22.4c-0.4-0.9-0.5-1.7-0.2-2.5
	c0.3-0.8,0.9-1.4,1.7-1.8l8.2-3.8c0.9-0.4,1.7-0.5,2.5-0.2c0.8,0.3,1.4,0.9,1.8,1.7l1,2.2l9.8-4.5l-1.3-2.8c-0.8-1.7-1.7-3-2.9-4.1
	c-1.2-1.1-2.5-1.9-3.9-2.4C574.5,711.7,575.6,712,572.9,711.6z M305.7,724.6c1.5,0.1,0.9-0.1,1.9,0.3l9.5,4.2c0.9,0.4,1.5,1,1.8,1.8
	c0.3,0.8,0.3,1.6-0.1,2.5l-10,22.5c-0.4,0.9-1,1.5-1.8,1.8c-0.8,0.3-1.6,0.3-2.5-0.1l-9.5-4.2c-0.9-0.4-1.5-1-1.8-1.8
	c-0.3-0.8-0.3-1.6,0.1-2.5l10-22.5c0.4-0.9,1-1.5,1.8-1.8L305.7,724.6z M304.9,714.1c-1.6-0.1-3.1,0.2-4.5,0.7
	c-1.4,0.5-2.7,1.4-3.9,2.5c-1.2,1.1-2.1,2.5-2.8,4.2l-10.5,23.7c-0.7,1.7-1.1,3.3-1.2,4.9s0.2,3.1,0.7,4.5c0.5,1.4,1.4,2.7,2.5,3.9
	c1.1,1.2,2.5,2.1,4.2,2.8l12.8,5.7c1.7,0.7,3.3,1.1,4.9,1.2c1.6,0.1,3.1-0.2,4.5-0.7c1.4-0.5,2.7-1.4,3.9-2.5
	c1.2-1.1,2.1-2.5,2.8-4.2l10.5-23.7c0.7-1.7,1.1-3.3,1.2-4.9c0.1-1.6-0.2-3.1-0.7-4.5c-0.5-1.4-1.4-2.7-2.5-3.9
	c-1.1-1.2-2.5-2.1-4.2-2.8l-12.8-5.7C308.2,714.6,306.5,714.2,304.9,714.1z M521.2,740.7c1.5,0.2,0.9,0,1.8,0.4
	c0.7,0.4,1.2,1.1,1.5,2l6.3,23.8c0.2,0.9,0.2,1.8-0.3,2.5c-0.4,0.7-1.1,1.2-2,1.5l-13.2,3.5l-7.9-30.1l13.2-3.5L521.2,740.7z
	 M523.7,730.5c-3,0.2-1.7,0-3.8,0.5l-25.4,6.7l12.8,48.7l25.4-6.7c1.8-0.5,3.3-1.2,4.6-2.1c1.3-1,2.3-2.1,3.1-3.4
	c0.8-1.3,1.3-2.8,1.5-4.4c0.2-1.6,0.1-3.3-0.4-5l-6.6-25.1c-0.5-1.8-1.2-3.3-2.1-4.6c-1-1.3-2.1-2.3-3.4-3.1
	c-1.3-0.8-2.8-1.3-4.4-1.5L523.7,730.5z M345.7,729.9l-2.4,9.3l20.6,5.3l-0.1,0.3l-28.3,24.5l-2.4,9.3l33.5,8.6l2.4-9.3l-20.6-5.3
	l0.1-0.3l28.3-24.5l2.4-9.3L345.7,729.9z M468.5,750.9c1.4,0.4,0.9,0.1,1.7,0.7c0.6,0.5,1,1.3,1.1,2.3l2.1,24.5
	c0.1,1-0.1,1.8-0.7,2.4c-0.5,0.6-1.3,1-2.3,1.1l-10.4,0.9c-1,0.1-1.8-0.1-2.4-0.7c-0.6-0.5-1-1.3-1.1-2.3l-2.1-24.5
	c-0.1-1,0.1-1.8,0.7-2.4s1.3-1,2.3-1.1l10.4-0.9L468.5,750.9z M470.1,741l-1.3,0.1l-14,1.2c-1.8,0.2-3.4,0.6-4.9,1.3
	c-1.4,0.7-2.6,1.7-3.6,2.8c-1,1.2-1.7,2.5-2.2,4.1c-0.5,1.5-0.6,3.2-0.5,5l2.2,25.8c0.2,1.8,0.6,3.4,1.3,4.9s1.7,2.6,2.8,3.6
	c1.2,1,2.5,1.7,4.1,2.2c1.5,0.5,3.2,0.6,5,0.5l14-1.2c1.8-0.2,3.4-0.6,4.9-1.3c1.4-0.7,2.6-1.7,3.6-2.8c1-1.2,1.7-2.5,2.2-4.1
	c0.5-1.5,0.6-3.2,0.5-5l-2.2-25.8c-0.2-1.8-0.6-3.4-1.3-4.9c-0.7-1.4-1.7-2.6-2.8-3.6c-1.2-1-2.5-1.7-4.1-2.2
	C471.8,741.1,473,741.3,470.1,741z M391.5,740.8L387,791l10.8,1l1.8-20.4l16.9,1.5l-1.8,20.4l10.8,1l4.5-50.2l-10.8-1l-1.8,20.2
	l-16.9-1.5l1.8-20.2L391.5,740.8z M434.4,52.9c215.4,0,390,174.6,390,390s-174.6,390-390,390s-390-174.6-390-390
	S219,52.9,434.4,52.9L434.4,52.9z"/>
<ellipse transform="matrix(0.1602 -0.9871 0.9871 0.1602 -333.5489 493.7792)" class="st0" cx="123.4" cy="442.9" rx="27.5" ry="27.5"/>
<circle class="st0" cx="748.3" cy="443.4" r="27.5"/>
<path class="st1" d="M502.7,456.8c0,0,0.2,147.1,0,147c0,0,10.1,0.1,10.1,0.1c0,0,0.1-37.1,0.1-37.1c0,0,17.9,0.1,17.9,0.1
	c0,0-0.1,9.1-0.1,9.1c0,0,8.9,0,20.3-0.9c11.4-0.9,17.1-2.4,20.3-3.1c3.2-0.7,7-2,7-2c0,0,0.2-8.3-1.9-17.5
	c-2-9.2-3.6-15.1-6.7-24.8c-3.2-9.7-7.5-20.9-12.6-31c-5.1-10.1-21.3-34.8-21.3-34.8c0,0-5.1-0.2-5.1-0.2c0,0,0.2,84.9,0.2,84.9
	c0,0-18.1,0.2-18.1,0.2c0,0,0-88.1,0-88.1L502.7,456.8L502.7,456.8z M452.7,468.8c0,0-6,3.4-6,3.4c0,0-0.2,131.6-0.2,131.6l10.2,0
	c0,0-0.1-135-0.1-135C456.7,468.9,452.7,468.8,452.7,468.8L452.7,468.8z M372.8,456.5c0,0-10,1.9-10,1.9l-0.1,23.2
	c0,0-18-0.1-18-0.1c0,0,0.2-19.8,0.2-19.8c0,0-4.8,0-4.8,0c0,0-5.1,6.1-11.5,16.2c-6.3,10.1-11.9,19.8-16.5,31.1
	c-4.6,11.2-8.6,24.7-11,36.3c-2.5,11.6-3.9,25.2-3.9,25.2c0,0,3.5,1.2,9.5,2.4c6,1.2,11.9,2,20.2,2.8c8.4,0.7,16.8,0.6,16.8,0.6
	c0,0-0.1-75.5-0.1-75.5c0.2,0.1,19.1,0.4,19.1,0.4c0,0-0.1,102.7-0.1,102.7l10.1,0V456.5z M566.7,590.5c-1.6,0.2-0.9,0-2.1,0.4
	c-4.5,1.6-8.3,2-12.2,2.5c-3.9,0.5-21.7,0.5-21.7,0.5c0,0-0.1,10-0.2,10.1l38.2,0c0,0-0.1-10.7-0.1-10.7
	C568.8,591.7,568.2,590.7,566.7,590.5L566.7,590.5z M479.3,452.6c0,0-4.6,4.5-4.6,4.5s0,146.9-0.1,146.9c0,0,10.1,0,10.1,0
	c0,0,0.2-149.3,0.2-149.3c0,0-2.5-2-2.5-2C482.4,452.7,479.3,452.6,479.3,452.6L479.3,452.6z M421.9,469.3c0,0-3.1,0.1-3.1,0.1
	c0,0-0.2,134.5-0.2,134.6l10.1,0c0,0-0.2-132.1-0.2-132.1C428.5,471.9,421.9,469.3,421.9,469.3L421.9,469.3z M396.4,452.9h-5.6
	c0,0,0,151.1-0.2,151.1l10.1,0c0,0-0.1-146.1-0.1-146.1S396.4,452.9,396.4,452.9L396.4,452.9z M307.1,590.8c-1,0.4-1.3,0.3-1.4,1.5
	c0,2.6-0.1,11.6,0,11.5c0,0,39.1,0.2,39.1,0.2c0,0-0.1-10.1-0.1-10.1c0,0-11.3,0.1-18.2-0.3c-6.9-0.4-12.1-1.3-14.4-1.9
	C310.5,591.4,308.8,590.8,307.1,590.8L307.1,590.8z M475.5,418.6c0,2.9,0.1,5.9,0.1,8.8c0.1,4.4,4.9,6.2,4.9,6.2l64.6,11.6
	c0,0,15.4,19.7,24.2,34.9c8.9,15.2,12,26,16.4,39.5c4.3,13.5,7.7,28.9,9.2,38.2c1.4,9.3,1,18.3,0.8,21.1c-0.2,2.7-2.5,3.9-4.3,5.4
	c-1.9,1.4-4.6,1.5-4.6,1.5c0,0,0.1,29.7,0.1,29.7c0,0-0.2,2.4-2,4.6c-1.8,2.2-6.4,1.9-6.4,1.9l-281.8,0c0.1,0-1.7-0.1-2.7-0.2
	c-1.1-0.2-2.5-1.3-4.4-2.6c-1.9-1.3-1.5-4.1-1.5-4.1c0,0,0.2-29.1,0.2-29.1s-0.9-0.2-2.1-0.4c-1.1-0.2-2.3-0.7-5.1-2.9
	c-2.8-2.2-2.6-5.2-2.6-5.2c0,0,0.7-19.4,4.2-35.4c3.4-16,7.9-30.6,13.8-43.7s15.3-28.4,21.2-37.2c5.9-8.8,12.6-15.8,12.6-15.8
	c0,0,50.3-8.3,57.2-9.4c6.9-1.1,8.1-1.7,9.8-2.9c1.7-1.2,3.1-3.8,3.1-3.8v-10.6h18.7c0,2.4,0,4.7-0.1,7.1c-0.2,4.1-0.3,7.4-2.1,11
	c-1.9,3.5-4.6,7.3-4.7,7.3c0,0,3.7,4.2,8.6,6.4c4.8,2.2,9.3,3.4,15.6,3.4c6.3,0,14.7-0.1,19.6-3.5c4.9-3.4,7.4-6.4,7.4-6.4
	s-2-3-4.3-6.4c-2.2-3.4-2.7-6.8-2.7-11.7c0-2.4,0-4.8,0-7.2H475.5z"/>
<path class="st1" d="M624.4,318.1l-89.2,11.8c0,0-6,1.6-5.4,7.2c0.6,5.6,2.8,6.3,6.9,6c4.1-0.3,92.7-12,92.7-12s6.6-2.8,9-5.4
	c2.4-2.6,4.8-6.6,5.3-9.3c0.4-2.6,0.3-43.3,0.3-43.3s-0.7-5.4-3.7-9c-2.9-3.5-5.4-5.3-8.5-6.3s-4.3-1.2-7.3-1.2
	c-3.1,0-88.5-0.4-88.5-0.4s-3.4,0.3-4.7,2.2c-1.3,1.9-1.3,2.1-1.3,3.4c0,1.3,0,3.8,0,3.8s-0.5,1.8-2.4,3c-1.9,1.2-2,1.3-4.1,1.3
	c-2.1,0-3.5-1-4.7-2.3c-1.3-1.3-1.6-1.8-1.8-2.8c-0.2-1,0-3.8,0-3.8s-0.2-2.2-1.4-3.1c-1.3-0.9-2.6-1.8-4.6-1.9
	c-2-0.1-80.7-0.1-80.7-0.1s-12.7,1.2-22.3,4.6c-9.6,3.5-22.7,11.3-28.9,16.1c-6.3,4.9-17.3,19.6-20.7,26.7
	c-3.5,7.2-9.5,24.8-9.3,38.4c0.1,13.6,4.5,31.7,9.9,41.1c5.4,9.3,13.9,21.6,25,29.6c11,7.9,23.3,13.4,34.9,15.9
	c11.6,2.4,25.5,2.2,35.3,0.3c9.9-1.9,27.1-9,35.8-16.4c8.7-7.4,19.2-18.9,24.2-29.3c5-10.4,8.7-21.4,9.3-31.6
	c0.6-10.2-0.7-31-4.3-36.3c-3.5-5.3-6-5.6-7.3-5.6c-1.3,0-4.4,1.7-5.3,3c-0.9,1.3-1.8,3.9-1.2,5.6c0.5,1.8,3.3,7.5,3.5,11.2
	c0.2,3.7,1.6,14,0.7,21.6c-1,7.6-3.3,18.5-7.9,26.8c-4.5,8.3-13.8,20.5-23.6,26.3c-9.9,5.8-19.3,11.7-35.1,12.3
	c-15.9,0.6-29.7-1-42.8-9.1c-13-8.1-19.4-14.5-25.8-24.5c-6.4-10-11.6-24-11.5-34.4c0.1-10.4-0.2-22.9,5.6-34.1
	c5.8-11.2,11.6-19.9,20-27.1c8.4-7.1,20.7-13.6,32.8-16.2c12.1-2.6,11.8-1.7,18.7-1.5c6.8,0.2,64.4,0.2,64.4,0.2s1,3.2,3.5,6
	c2.5,2.8,5.7,5.5,10.1,6.4c4.4,1,7.5,0.8,10.9,0c3.4-0.8,7.5-3.6,10.5-7c3-3.4,3.4-5.9,3.4-5.9l83.1,0.6c0,0,1.6,0.1,2.7,1.3
	c1.1,1.1,1.8,1.5,1.9,2.9c0.1,1.4-0.1,39.4-0.1,39.4s-0.5,2.4-1.6,3.3C627.7,317.5,624.5,318.1,624.4,318.1z"/>
<path class="st1" d="M517.2,207.8l0.1,23.8c0,0,1.3,5.1,5.5,5.2c4.2,0.1,6.6-2.4,6.9-4.9c0.3-2.5,0.1-24.2,0.1-24.2
	s-1.4-4.7-5.8-4.8C519.5,202.7,517.3,206.3,517.2,207.8z"/>
<path class="st1" d="M483.8,232.1l16.9,16.8c0,0,4.6,2.7,7.6-0.2c3-2.9,3-6.4,1.4-8.4c-1.6-2-17-17.1-17-17.1s-4.3-2.3-7.5,0.7
	C481.9,226.9,482.8,231,483.8,232.1z"/>
<path class="st1" d="M546,249.2l16.8-16.9c0,0,2.7-4.6-0.2-7.6c-2.9-3-6.4-3-8.4-1.4c-2,1.6-17.1,17-17.1,17s-2.3,4.3,0.7,7.5
	C540.8,251.2,544.9,250.2,546,249.2z"/>
<path class="st1" d="M436.5,302.9c-22.2,0-40.2,18-40.2,40.2c0,22.2,18,40.2,40.2,40.2c22.2,0,40.2-18,40.2-40.2
	C476.7,320.9,458.7,302.9,436.5,302.9z M436.3,289.8c29.6,0,53.6,24,53.6,53.6c0,29.6-24,53.6-53.6,53.6c-29.6,0-53.6-24-53.6-53.6
	C382.8,313.8,406.8,289.8,436.3,289.8z"/>
</svg>
