<?xml version="1.0" encoding="utf-8"?>
<!-- Generator: Adobe Illustrator 22.0.0, SVG Export Plug-In . SVG Version: 6.00 Build 0)  -->
<svg version="1.1" id="Layer_1" xmlns="http://www.w3.org/2000/svg" xmlns:xlink="http://www.w3.org/1999/xlink" x="0px" y="0px"
	 viewBox="0 0 900 900" style="enable-background:new 0 0 900 900;" xml:space="preserve">
<style type="text/css">
	.st0{fill:#F42300;}
	.st1{fill:#011C43;}
	.st2{fill:#12284B;}
	.st3{fill:#FFEC02;}
	.st4{fill:#FFFFFF;}
</style>
<path class="st0" d="M459.7,130.4l8.2,0.7c0.7,0.1,1.3,0.3,1.7,0.8c0.4,0.5,0.6,1.1,0.5,1.8l-0.5,5.6c-0.1,0.7-0.3,1.3-0.8,1.7
	c-0.5,0.4-1.1,0.6-1.8,0.5l-8.2-0.7L459.7,130.4z M452,122.4l-3.1,38.4l8.2,0.7l1.1-13.2l9.6,0.8c1.4,0.1,2.7,0,3.8-0.4
	c1.2-0.4,2.2-0.9,3.1-1.7c0.9-0.8,1.6-1.7,2.2-2.8c0.5-1.1,0.9-2.3,1-3.7l0.5-6.6c0.1-1.4,0-2.7-0.4-3.8c-0.4-1.2-0.9-2.2-1.7-3.1
	c-0.8-0.9-1.7-1.6-2.8-2.2c-1.1-0.5-2.3-0.9-3.7-1L452,122.4z M444.8,121.5l-7.9,0.4l-4.9,25.8l-0.2,0l-7.3-25.2l-8.5,0.4l-4.9,25.8
	l-0.2,0l-7.3-25.2L395,124l12.1,38l8.5-0.4l4.9-25.8l0.2,0l7.3,25.2l8.5-0.4L444.8,121.5z M485.2,125.8l-5.9,38l8.2,1.3l5.9-38
	L485.2,125.8z M378.8,134.7c1.1,0.2,0.7,0,1.4,0.4c0.5,0.4,0.9,0.9,1,1.6l3.5,18.5c0.1,0.7,0,1.3-0.3,1.9c-0.4,0.5-0.9,0.9-1.6,1
	l-7.8,1.5c-0.7,0.1-1.3,0-1.9-0.3c-0.5-0.4-0.9-0.9-1-1.6l-3.5-18.5c-0.1-0.7,0-1.3,0.3-1.9c0.4-0.5,0.9-0.9,1.6-1l7.8-1.5
	L378.8,134.7z M379.7,127.1c-0.5,0-1,0.1-1.4,0.2l-10.5,2c-1.4,0.3-2.6,0.7-3.6,1.4c-1,0.7-1.9,1.5-2.5,2.4c-0.7,1-1.1,2-1.3,3.3
	c-0.2,1.2-0.2,2.5,0,3.9l3.7,19.4c0.3,1.4,0.7,2.6,1.4,3.6c0.7,1,1.5,1.9,2.4,2.5c1,0.7,2,1.1,3.3,1.3c1.2,0.2,2.5,0.2,3.9,0l10.5-2
	c1.4-0.3,2.6-0.7,3.6-1.4c1-0.7,1.9-1.5,2.5-2.4c0.7-1,1.1-2,1.3-3.3c0.2-1.2,0.2-2.5,0-3.9l-3.7-19.4c-0.3-1.4-0.7-2.6-1.4-3.6
	c-0.7-1-1.5-1.9-2.4-2.5c-1-0.7-2-1.1-3.3-1.3l-0.9-0.1C380.2,127.1,380.7,127.1,379.7,127.1L379.7,127.1z M498.8,127.7l-1.6,7.2
	l9.9,2.3l-7,30.3l8,1.8l7-30.3l9.9,2.3l1.6-7.2L498.8,127.7z M265.7,158l-7.8,4.7l-0.2,8.6l6-3.6L265.7,158z M337,137.2l-7.9,2.4
	l11.1,36.9l22.4-6.7l-2.1-7.1L346,167L337,137.2z M538.3,138.5c-1.2,0.1-2.4,0.4-3.4,0.9c-1,0.5-2,1.2-2.8,2.2
	c-0.8,0.9-1.4,2-1.9,3.4l-6.4,18.7c-0.5,1.3-0.6,2.6-0.6,3.8c0.1,1.2,0.4,2.4,0.9,3.4c0.5,1,1.2,2,2.2,2.8c0.9,0.8,2,1.4,3.4,1.9
	l9.1,3.1c1.3,0.5,2.6,0.6,3.8,0.6c1.2-0.1,2.4-0.4,3.4-0.9c1-0.5,2-1.2,2.8-2.2s1.4-2,1.9-3.4l0.8-2.2l-7.8-2.7l-0.6,1.8
	c-0.2,0.7-0.6,1.2-1.2,1.5c-0.6,0.3-1.2,0.3-1.9,0.1l-6.5-2.2c-0.7-0.2-1.2-0.6-1.5-1.2c-0.3-0.6-0.3-1.2-0.1-1.9l6.1-17.8
	c0.2-0.7,0.6-1.2,1.2-1.5s1.2-0.3,1.9-0.1l6.5,2.2c0.7,0.2,1.2,0.6,1.5,1.2c0.3,0.6,0.3,1.2,0.1,1.9l-0.6,1.8l7.8,2.7l0.8-2.2
	c0.5-1.3,0.6-2.6,0.6-3.8c-0.1-1.2-0.4-2.4-0.9-3.4c-0.5-1-1.2-2-2.2-2.8c-0.9-0.8-2-1.4-3.4-1.9l-9.1-3.1
	C540.8,138.6,539.5,138.4,538.3,138.5L538.3,138.5z M315.6,145.2c-1.2,0-2.5,0.3-3.8,0.8l-8.1,3.4c-1.3,0.5-2.4,1.2-3.2,2.1
	c-0.9,0.9-1.5,1.8-2,2.9c-0.4,1.1-0.7,2.2-0.7,3.5c0,1.2,0.3,2.5,0.8,3.8l1.6,3.8c0.5,1.3,1.2,2.4,2.1,3.2c0.9,0.9,1.8,1.5,2.9,2
	c1.1,0.4,2.2,0.7,3.5,0.7c1.2,0,2.5-0.3,3.8-0.8l7.1-2.9c0.7-0.3,1.3-0.3,1.9,0c0.6,0.2,1,0.7,1.3,1.4l1.3,3.1
	c0.3,0.7,0.3,1.3,0,1.9c-0.2,0.6-0.7,1-1.4,1.3l-6.4,2.6c-0.7,0.3-1.3,0.3-1.9,0c-0.6-0.2-1-0.7-1.3-1.4l-0.7-1.7l-7.6,3.1l0.9,2.2
	c0.5,1.3,1.2,2.4,2.1,3.2c0.9,0.9,1.8,1.5,2.9,2c1.1,0.4,2.2,0.7,3.5,0.7c1.2,0,2.5-0.3,3.8-0.8l8.9-3.7c1.3-0.5,2.4-1.2,3.2-2.1
	c0.9-0.9,1.5-1.8,2-2.9c0.4-1.1,0.7-2.2,0.7-3.5c0-1.2-0.3-2.5-0.8-3.8l-1.7-4c-0.5-1.3-1.2-2.4-2.1-3.2c-0.9-0.9-1.8-1.5-2.9-2
	c-1.1-0.4-2.2-0.7-3.5-0.7c-1.2,0-2.5,0.3-3.8,0.8l-7.1,2.9c-0.7,0.3-1.3,0.3-1.9,0c-0.6-0.2-1-0.7-1.3-1.4l-1.2-2.9
	c-0.3-0.7-0.3-1.3,0-1.9c0.2-0.6,0.7-1,1.4-1.3l5.6-2.3c0.7-0.3,1.3-0.3,1.9,0c0.6,0.2,1,0.7,1.3,1.4l0.7,1.7l7.6-3.1l-0.9-2.2
	c-0.5-1.3-1.2-2.4-2.1-3.2c-0.9-0.9-1.8-1.5-2.9-2C318,145.4,316.9,145.2,315.6,145.2L315.6,145.2z M568.1,148.5l-16.5,34.8l7.5,3.5
	l6.7-14.2l11.7,5.5l-6.7,14.2l7.5,3.5l16.5-34.8l-7.5-3.5l-6.6,14l-11.7-5.5l6.6-14L568.1,148.5z M607.8,177.5l0.9,0.4l6.7,4.3
	c0.6,0.4,1,0.9,1.1,1.5c0.1,0.6,0,1.3-0.4,1.9l-10,15.9c-0.4,0.6-0.9,1-1.5,1.1c-0.6,0.1-1.3,0-1.9-0.4l-6.7-4.3
	c-0.6-0.4-1-0.9-1.1-1.5c-0.1-0.6,0-1.3,0.4-1.9l10-15.9c0.4-0.6,0.9-1,1.5-1.1L607.8,177.5z M606.2,169.4l-1.7,0.2
	c-1.1,0.3-2.2,0.7-3.2,1.5c-1,0.7-1.9,1.7-2.6,2.8l-10.6,16.7c-0.7,1.2-1.2,2.4-1.4,3.6c-0.2,1.2-0.2,2.4,0.1,3.5
	c0.3,1.1,0.7,2.2,1.5,3.2c0.7,1,1.7,1.9,2.8,2.6l9.1,5.7c1.2,0.7,2.4,1.2,3.6,1.4c1.2,0.2,2.4,0.2,3.5-0.1c1.1-0.3,2.2-0.7,3.2-1.5
	c1-0.7,1.9-1.7,2.6-2.8l10.6-16.7c0.7-1.2,1.2-2.4,1.4-3.6c0.2-1.2,0.2-2.4-0.1-3.5c-0.3-1.1-0.7-2.2-1.5-3.2
	c-0.7-1-1.7-1.9-2.8-2.6l-9.1-5.7c-1.2-0.7-2.4-1.2-3.6-1.4L606.2,169.4z M681.9,215.2l-8.4,1.8l4.9,5l9.9-0.4L681.9,215.2z
	 M633.9,185.4l-13.7,38.3l5.5,4.4l34.5-21.7l-6.6-5.3l-22.3,15l-0.2-0.1l9.9-25L633.9,185.4z M267.3,180.1l9.7,8.6l-6.8,4.1
	l-3.1-12.6L267.3,180.1z M265.6,168.7l-7.2,4.4l8.4,38.8l-24-8.3l0-20.6l-7.2,5.6l0.4,20.6l-0.2,0.2l-10.2-13l-6.5,5.1l23.7,30.4
	l6.5-5.1l-6.5-8.3l0-6.1l17.3,5.9l7.1-5.6l7-4.2l-2.1-8.2l10.7-6.5l6.3,5.6l7.7-4.7L265.6,168.7z M211.8,211.5
	c-1.2,0-2.3,0.2-3.4,0.7c-1.1,0.5-2.2,1.2-3.2,2.2l-6.3,6.2c-1,1-1.7,2-2.2,3.1c-0.5,1.1-0.7,2.3-0.8,3.4c0,1.2,0.2,2.3,0.7,3.4
	c0.5,1.1,1.2,2.2,2.2,3.2l2.9,2.9c1,1,2,1.7,3.1,2.2c1.1,0.5,2.3,0.7,3.4,0.8c1.2,0,2.3-0.2,3.4-0.7c1.1-0.5,2.2-1.2,3.2-2.2
	l5.5-5.4c0.5-0.5,1.1-0.8,1.8-0.8c0.6,0,1.2,0.3,1.7,0.8l2.3,2.4c0.5,0.5,0.8,1.1,0.8,1.8c0,0.6-0.3,1.2-0.8,1.7l-4.9,4.8
	c-0.5,0.5-1.1,0.8-1.8,0.8c-0.6,0-1.2-0.3-1.7-0.8l-1.3-1.3l-5.9,5.8l1.7,1.7c1,1,2,1.7,3.1,2.2c1.1,0.5,2.3,0.7,3.4,0.8
	c1.2,0,2.3-0.2,3.4-0.7s2.2-1.2,3.2-2.2l6.9-6.7c1-1,1.7-2,2.2-3.1s0.7-2.3,0.8-3.4c0-1.2-0.2-2.3-0.7-3.4c-0.5-1.1-1.2-2.2-2.2-3.2
	l-3-3.1c-1-1-2-1.7-3.1-2.2c-1.1-0.5-2.3-0.7-3.4-0.8c-1.2,0-2.3,0.2-3.4,0.7c-1.1,0.5-2.2,1.2-3.2,2.2l-5.5,5.4
	c-0.5,0.5-1.1,0.8-1.8,0.8c-0.6,0-1.2-0.3-1.7-0.8l-2.2-2.2c-0.5-0.5-0.8-1.1-0.8-1.8c0-0.6,0.3-1.2,0.8-1.7l4.3-4.2
	c0.5-0.5,1.1-0.8,1.8-0.8c0.6,0,1.2,0.3,1.7,0.8l1.3,1.3l5.9-5.8l-1.7-1.7c-1-1-2-1.7-3.1-2.2C214.1,211.8,213,211.5,211.8,211.5
	L211.8,211.5z M667.1,228.2l0.2,0.2l-6.1,11.5l-5.6-5.6L667.1,228.2z M671.9,218l-36.7,17.7l6,6l7.5-3.9l8.8,8.9l-4,7.5l6.4,6.4
	l17.9-36.6L671.9,218z M187.5,232.1l-18.2,22.1l5.7,4.7l6.5-7.8l24,19.8l5.3-6.4l-24-19.8l6.5-7.8L187.5,232.1z M699.9,249l-31,22.8
	l13.8,18.8l5.9-4.4l-8.9-12.2l25.1-18.4L699.9,249z M716.8,273l-32.6,20.6l4.4,7l32.6-20.6L716.8,273z M167.8,262.9l-1.7,0.2
	c-1.1,0.2-2.2,0.7-3.2,1.4c-1,0.7-1.9,1.6-2.7,2.8l-4.9,7.3c-0.8,1.2-1.3,2.3-1.5,3.5c-0.2,1.2-0.2,2.4,0,3.5
	c0.2,1.1,0.7,2.2,1.4,3.2c0.7,1,1.6,1.9,2.8,2.7l3.4,2.3c1.2,0.8,2.3,1.3,3.5,1.5c1.2,0.2,2.4,0.2,3.5,0c1.1-0.2,2.2-0.7,3.2-1.4
	c1-0.7,1.9-1.6,2.7-2.8l4.2-6.4c0.4-0.6,0.9-1,1.6-1.1c0.6-0.1,1.3,0,1.9,0.4l2.8,1.8c0.6,0.4,1,0.9,1.1,1.6c0.1,0.6,0,1.3-0.4,1.9
	l-3.8,5.7c-0.4,0.6-0.9,1-1.6,1.1c-0.6,0.1-1.3,0-1.9-0.4l-1.6-1l-4.5,6.9l2,1.3c1.2,0.8,2.3,1.3,3.5,1.5c1.2,0.2,2.4,0.2,3.5,0
	c1.1-0.2,2.2-0.7,3.2-1.4c1-0.7,1.9-1.6,2.7-2.8l5.3-8c0.8-1.2,1.3-2.3,1.5-3.5s0.2-2.4,0-3.5c-0.2-1.1-0.7-2.2-1.4-3.2
	s-1.6-1.9-2.8-2.7l-3.6-2.4c-1.2-0.8-2.3-1.3-3.5-1.5c-1.2-0.2-2.4-0.2-3.5,0c-1.1,0.2-2.2,0.7-3.2,1.4c-1,0.7-1.9,1.6-2.7,2.8
	l-4.2,6.4c-0.4,0.6-0.9,1-1.6,1.1c-0.6,0.1-1.3,0-1.9-0.4l-2.6-1.7c-0.6-0.4-1-0.9-1.1-1.6c-0.1-0.6,0-1.3,0.4-1.9l3.3-5
	c0.4-0.6,0.9-1,1.6-1.1c0.6-0.1,1.3,0,1.9,0.4l1.6,1l4.5-6.9l-2-1.3c-1.2-0.8-2.3-1.3-3.5-1.5L167.8,262.9z M136.9,287.5l-3.4,6.7
	l1.7,3.5l-3.8,0.7l-3.4,6.7l8.8-1.3l4.2-8.2L136.9,287.5z M721.4,290.5c-1.2,0.1-2.4,0.5-3.7,1.1l-17.6,9.1
	c-1.2,0.6-2.3,1.4-3.1,2.4c-0.8,0.9-1.4,2-1.7,3.1c-0.4,1.1-0.5,2.3-0.4,3.5c0.1,1.2,0.5,2.4,1.1,3.7l4.4,8.5
	c0.6,1.2,1.4,2.3,2.4,3.1c0.9,0.8,2,1.4,3.1,1.7c1.1,0.4,2.3,0.5,3.5,0.4c1.2-0.1,2.4-0.5,3.7-1.1l9.7-5l-7-13.4l-6.5,3.4l3.2,6.1
	l-2.7,1.4c-0.7,0.3-1.3,0.4-1.9,0.2c-0.6-0.2-1.1-0.6-1.4-1.3l-3.2-6.1c-0.3-0.7-0.4-1.3-0.2-1.9c0.2-0.6,0.6-1.1,1.3-1.4l16.7-8.7
	c0.7-0.3,1.3-0.4,1.9-0.2c0.6,0.2,1.1,0.6,1.4,1.3l3.2,6.1c0.3,0.7,0.4,1.3,0.2,1.9c-0.2,0.6-0.6,1.1-1.3,1.4l-1.7,0.9l3.8,7.3
	l2.1-1.1c1.2-0.6,2.3-1.4,3.1-2.4c0.8-0.9,1.4-2,1.7-3.1c0.4-1.1,0.5-2.3,0.4-3.5c-0.1-1.2-0.5-2.4-1.1-3.7l-4.4-8.5
	c-0.6-1.2-1.4-2.3-2.4-3.1c-0.9-0.8-2-1.4-3.1-1.7l-1.7-0.4L721.4,290.5z M145.9,289.8l-11.2,21.8l34.2,17.6l11.4-22.3l-6.6-3.4
	l-7.7,14.9l-7.4-3.8l6.9-13.5l-6.6-3.4l-6.9,13.5l-7.2-3.7l7.4-14.4L145.9,289.8z M738,338.4l0.1,0.2l-10.3,8l-2.8-7.4L738,338.4z
	 M746.6,331.1l-40.7,1.1l3,7.9l8.4-0.5l4.4,11.7l-6.7,5.2l3.2,8.4l31.4-26L746.6,331.1z M130.3,320.9l-2.7,7.5l17.3,16.4l-0.1,0.2
	l-23.7,1.3l-2.9,8l36.2,13.2l2.8-7.7l-19.7-7.2l0.1-0.3l22.8-1.4l0.1-0.3l-16.6-15.7l0.1-0.3l19.7,7.2l2.8-7.7L130.3,320.9z
	 M123.3,407.8c-19.3,0-35,15.7-35,35c0,19.3,15.7,35,35,35s35-15.7,35-35C158.3,423.5,142.7,407.8,123.3,407.8L123.3,407.8z
	 M748.2,408.3c-19.3,0-35,15.7-35,35c0,19.3,15.7,35,35,35c19.3,0,35-15.7,35-35C783.2,424,767.5,408.3,748.2,408.3L748.2,408.3z
	 M436.1,206.7c-129.8,0-235,105.2-235,235c0,129.8,105.2,235,235,235c129.8,0,235-105.2,235-235S565.9,206.7,436.1,206.7
	L436.1,206.7z M257.2,668l-10.7,3.5l7.1,5.8l12.8-1.8L257.2,668z M202.5,629.8l-7.2,6.4l14.1,15.9l-0.2,0.2l-37.2,4.5l-7.2,6.4
	l22.9,25.9l7.2-6.4l-14.1-16l0.2-0.2l37.2-4.5l7.2-6.4L202.5,629.8z M664.5,642.1c-1.5,0-3,0.4-4.5,1.1c-1.5,0.7-2.8,1.7-4.1,3
	l-7.9,8.3c-1.3,1.3-2.2,2.7-2.8,4.2c-0.6,1.5-0.9,3-0.8,4.5c0,1.5,0.4,3,1.1,4.5c0.7,1.5,1.7,2.8,3,4.1l3.9,3.7
	c1.3,1.3,2.7,2.2,4.2,2.8c1.5,0.6,3,0.9,4.5,0.8c1.5,0,3-0.4,4.5-1.1c1.5-0.7,2.8-1.7,4.1-3l6.9-7.3c0.7-0.7,1.4-1.1,2.3-1.1
	c0.8,0,1.6,0.3,2.3,1l3.2,3c0.7,0.7,1.1,1.4,1.1,2.3c0,0.8-0.3,1.6-1,2.3l-6.2,6.5c-0.7,0.7-1.4,1.1-2.3,1.1c-0.8,0-1.6-0.3-2.3-1
	l-1.8-1.7l-7.4,7.8l2.2,2.1c1.3,1.3,2.7,2.2,4.2,2.8c1.5,0.6,3,0.9,4.5,0.8c1.5,0,3-0.4,4.5-1.1c1.5-0.7,2.8-1.7,4.1-3l8.7-9.1
	c1.3-1.3,2.2-2.7,2.8-4.2c0.6-1.5,0.9-3,0.8-4.5c0-1.5-0.4-3-1.1-4.5c-0.7-1.5-1.7-2.8-3-4.1l-4.1-3.9c-1.3-1.3-2.7-2.2-4.2-2.8
	c-1.5-0.6-3-0.9-4.5-0.8c-1.5,0-3,0.4-4.5,1.1c-1.5,0.7-2.8,1.7-4.1,3l-6.9,7.3c-0.7,0.7-1.4,1.1-2.3,1.1c-0.8,0-1.6-0.3-2.3-1
	l-3-2.8c-0.7-0.7-1.1-1.4-1.1-2.3c0-0.8,0.3-1.6,1-2.3l5.5-5.7c0.7-0.7,1.4-1.1,2.3-1.1c0.8,0,1.6,0.3,2.3,1l1.8,1.7l7.4-7.8
	l-2.2-2.1c-1.3-1.3-2.7-2.2-4.2-2.8C667.5,642.4,666,642.1,664.5,642.1z M239.7,686.9l0.2,0.2l-6.4,15.8l-8-6.6L239.7,686.9z
	 M244.6,673l-45.4,27.9l8.6,7l9.2-6.1l12.6,10.4l-4.2,10.3l9.1,7.5l18.5-50L244.6,673z M629.9,671.8l-25.5,19.4l30.5,40.1l26.1-19.8
	l-5.8-7.7l-17.5,13.3l-6.6-8.7l15.8-12l-5.8-7.7l-15.8,12l-6.4-8.4l16.9-12.9L629.9,671.8z M274.4,696l-24.8,43.9l9.4,5.3l6.8-12
	l7.3-3l1.5,23.9l11.2,6.3l-2.1-34.6l24.9-10.4l-10.4-5.9l-24.7,10.8l-0.3-0.2l10.6-18.8L274.4,696z M594.3,698.2l-10.5,5.6
	l-4.1,26.7l-0.3,0.2l-10.2-19l-9.5,5.1l23.8,44.4l9.5-5.1l-6.5-12.2l1.4-7.8l21,11.5l11.4-6.1l-30.4-16.7L594.3,698.2z M545.2,722.3
	l-10.1,3.8l17.6,47.2l10.1-3.8L545.2,722.3z M331.7,739.3l0.3,0.1l-0.8,17l-9.8-3.5L331.7,739.3z M331.7,724.5L298.2,766l10.4,3.8
	l6.6-8.9l15.4,5.5l-0.5,11.1l11.1,4l0.7-53.3L331.7,724.5z M512.2,743.2c1.4,0.2,0.9,0,1.8,0.4c0.7,0.4,1.2,1.1,1.4,2.1l1.7,7.2
	c0.2,0.9,0.1,1.8-0.3,2.5s-1.1,1.2-2.1,1.4l-10.5,2.5l-3.1-13.5l10.5-2.5L512.2,743.2z M514.9,733.1c-3,0.1-1.7,0-3.8,0.4l-22.8,5.3
	l11.5,49.1l10.5-2.5l-3.9-16.8l12.3-2.9c1.8-0.4,3.3-1.1,4.6-2c1.3-0.9,2.4-2,3.2-3.3c0.8-1.3,1.3-2.7,1.6-4.3s0.2-3.3-0.3-5l-2-8.4
	c-0.4-1.8-1.1-3.3-2-4.6c-0.9-1.3-2-2.4-3.3-3.2c-1.3-0.8-2.7-1.3-4.3-1.6L514.9,733.1z M366.4,735.8l-1.7,9.5l20.9,3.8l-0.1,0.3
	l-26.4,26.5l-1.7,9.5l34,6.2l1.7-9.5l-21-3.8l0.1-0.3l26.5-26.5l1.7-9.5L366.4,735.8z M463.9,741.7l-1.3,0l-11.5,0.8
	c-1.8,0.1-3.5,0.5-4.9,1.2c-1.4,0.7-2.7,1.6-3.7,2.8c-1,1.1-1.8,2.5-2.3,4c-0.5,1.5-0.7,3.2-0.6,5l0.4,5.4c0.1,1.8,0.5,3.5,1.2,4.9
	c0.7,1.4,1.6,2.7,2.8,3.7c1.1,1,2.5,1.8,4,2.3c1.5,0.5,3.2,0.7,5,0.6l10.1-0.7c1-0.1,1.8,0.2,2.4,0.7c0.6,0.6,1,1.3,1.1,2.3l0.3,4.4
	c0.1,1-0.2,1.8-0.7,2.4c-0.6,0.6-1.3,1-2.3,1.1l-9,0.6c-1,0.1-1.8-0.2-2.4-0.7c-0.6-0.6-1-1.3-1.1-2.3l-0.2-2.4l-10.8,0.7l0.2,3.1
	c0.1,1.8,0.5,3.5,1.2,4.9c0.7,1.4,1.6,2.7,2.8,3.7c1.1,1,2.5,1.8,4,2.3c1.5,0.5,3.2,0.7,5,0.6l12.6-0.8c1.8-0.1,3.5-0.5,4.9-1.2
	c1.4-0.7,2.7-1.6,3.7-2.8s1.8-2.5,2.3-4c0.5-1.5,0.7-3.2,0.6-5l-0.4-5.7c-0.1-1.8-0.5-3.5-1.2-4.9c-0.7-1.4-1.6-2.7-2.8-3.7
	c-1.1-1-2.5-1.8-4-2.3c-1.5-0.5-3.2-0.7-5-0.6l-10.1,0.7c-1,0.1-1.8-0.2-2.4-0.7c-0.6-0.6-1-1.3-1.1-2.3l-0.3-4.1
	c-0.1-1,0.2-1.8,0.7-2.4c0.6-0.6,1.3-1,2.3-1.1l7.9-0.5c1-0.1,1.8,0.2,2.4,0.7c0.6,0.6,1,1.3,1.1,2.3l0.2,2.4l10.8-0.7l-0.2-3.1
	c-0.1-1.8-0.5-3.5-1.2-4.9c-0.7-1.4-1.6-2.7-2.8-3.7c-1.1-1-2.5-1.8-4-2.3C465.6,741.7,466.8,742,463.9,741.7z M434.4,52.9
	c215.4,0,390,174.6,390,390s-174.6,390-390,390s-390-174.6-390-390S219,52.9,434.4,52.9L434.4,52.9z"/>
<ellipse transform="matrix(0.1602 -0.9871 0.9871 0.1602 -333.5489 493.7792)" class="st0" cx="123.4" cy="442.9" rx="27.5" ry="27.5"/>
<circle class="st0" cx="748.3" cy="443.4" r="27.5"/>
<path class="st1" d="M639.7,518.1c0,0-2.1,11.2-3.4,17.6s-2.2,15-3.3,19.2c-1,4.2-4.9,7.5-7.6,9.8c-2.7,2.2-8.7,3.8-13.3,4
	c-4.6,0.2-10-0.3-10-0.3l-2.5-12.6l-14.8-0.1l-2.3,12.4l-16.5-0.2l-2.4-13.1c0,0-13.9-0.1-13.9,0c0,0.1-3.1,13.2-3.1,13.2l-16.2-0.2
	l-2.9-12.9l-13.6-0.4l-3.8,12.5c0,0-9.1,0.1-13.3-0.1s-5.4-1.6-7.5-3.8c-2.1-2.2-1.4-3.8-2.9-6.1c-1.5-2.3-3.2-2.5-3.2-2.5
	l-52.7-1.3l-3.9,12.8h-16.3l-3.3-12.9l-13.4,0.1l-3.8,12.5l-16.2-0.1l-3.9-13l-13.3,0l-3.2,12.4h-15.7l-4.6-13.1l-13-0.1l-3.3,12.7
	l-16.7-0.1l-2.7-13.3l-14,0.2l-2.6,11.9c0,0-17.5-4-26.5-7.9c-9-3.9-15.6-8.9-21.7-14.8c-6.2-5.9-12.2-15.6-14.9-22
	c-2.7-6.4-4.8-11.7-5.8-18.9s-0.8-12-0.8-12h2.1c0.9,0.2,1.7,0.2,3,2.6c1.3,2.4,4.8,9.1,6.9,13.6c2.1,4.5,4.1,9.2,7.7,12
	c3.6,2.8,6.6,3.9,13.4,4.8c6.8,0.8,37.9,0.4,53.1,0.8c15.2,0.4,67.2,0.7,87.2,1c20,0.3,45.3,1.3,45.3,1.3s19-3.3,37.4-5
	c18.4-1.7,27.9-2.6,41.2-2.6c13.3,0,46.9,1.3,71,1.4c24.1,0.1,58.1,0.7,58.1,0.7C637.4,518,639.6,518.1,639.7,518.1z"/>
<path class="st2" d="M352.3,453.5c-4.1,0.5-9.4,0.4-15.7,0.2c-6.3-0.2-17.9-2-25.1-3.3c-7.2-1.3-12.5-3.3-16.2-4.6
	c-3.8-1.3-7.5-2.8-9.7-3.1c-6.8,2.1-9,2.3-14.9,3.5c-13,2.5-18.1,3.6-22.7,4.4c-4.6,0.8-10.5,2.9-14.3,5.5s-8.1,5.6-12.4,11.2
	s-8.5,20.3-8.3,20.1c0.9,0.2,1.7,0.2,3,2.6c1.3,2.4,4.8,9.1,6.9,13.6c2.1,4.5,4.1,9.2,7.7,12c3.6,2.8,6.6,3.9,13.4,4.8
	c6.8,0.8,37.9,0.4,53.1,0.8c15.2,0.4,67.2,0.7,87.2,1c0,0-1.1-3.3-3.3-11c-2.3-7.7-4.2-12.7-8.3-21.6c-4.1-8.9-6.8-14.5-10.4-20.9
	C358.6,462.2,354.1,455.9,352.3,453.5"/>
<path class="st3" d="M384.2,522.2c20,0.3,45.3,1.3,45.3,1.3s19-3.3,37.4-5c18.4-1.7,27.9-2.6,41.2-2.6c0,0-8.2-20.9-13.8-33.4
	c-5.6-12.5-12.1-23.7-18.9-35.1c-6.7-11.4-12.1-18-18.1-25.5c-6-7.5-10.9-11.9-14.1-16.4c-3.8,2.9-6.3,4.6-12.2,9
	s-14.3,11-22.9,17.2c-8.5,6.3-22.1,12.9-29.9,15.8c-7.8,2.9-22,5.3-26.1,5.8c1.9,2.4,6.4,8.8,10,15.2c3.6,6.4,6.3,12,10.4,20.9
	c4.1,8.9,6,13.9,8.3,21.6C383.2,518.8,384.2,522.2,384.2,522.2"/>
<path class="st2" d="M443.3,405.6c3.3,4.4,8.2,8.8,14.1,16.4c6,7.5,11.3,14.1,18.1,25.5c6.7,11.4,13.3,22.6,18.9,35.1
	c5.6,12.5,13.8,33.4,13.8,33.4c13.3,0,46.9,1.3,71,1.4c24.1,0.1,58.1,0.7,58.1,0.7c0,0,2.3,0.1,2.3,0.1c0,0-2-3.3-5.8-13.9
	s-10.9-27.6-18.7-42.7c-7.9-15.1-16-27.1-25-38.6c-9-11.5-15.6-19.3-26.5-29.3c-10.9-10.1-19-16.3-33.8-26.3
	c-14.9-9.9-32.7-20-49.7-27.4c-17.1-7.4-27.4-11.2-33.8-13.6c0,0,3.8,3.4,6.5,7.2c2.7,3.8,7.3,13.2,8.9,20.2s1.3,15.9,0.1,21.6
	c-1.1,5.8-4.1,12.8-6.8,17.4C452.4,397.1,447.1,402.6,443.3,405.6"/>
<path class="st3" d="M639.7,518.1c0,0,2-8,1.7-17.6c-0.2-9.6-0.8-28.4-1.6-39.1c-0.7-10.7-3.9-30.9-5.6-44.4
	c-1.7-13.4-3.9-32.7-5.4-44.9c-1.6-12.2-5.7-42.6-6.4-48.6c0,0-0.7,11.4-0.7,11.4c0,0-2-3.5-3.8-7.3c-1.8-3.8-4.6-8-7.3-11.4
	c-2.7-3.4-7.6-6-14-8.3c-6.5-2.3-13.7-4.4-24.4-7.9c-10.7-3.5-16-5.1-25.4-8.2c-9.4-3.1-14.8-4.9-22.5-7.5c-7.7-2.5-12.7-3.9-16.8-4
	c-4.2-0.1-8.7,0-18.5-0.1c-9.9-0.1-13.6,1.2-18.1,2.4c-4.5,1.2-8.5,4.2-12.6,7.2c-4.1,3-8.6,7.1-11.7,10.3c-0.7,8-0.3,26.1-0.3,26.1
	c6.4,2.4,16.7,6.2,33.8,13.6c17.1,7.4,34.9,17.5,49.7,27.4c14.9,9.9,22.9,16.2,33.8,26.3c10.9,10.1,17.5,17.8,26.5,29.3
	c9,11.5,17.1,23.5,25,38.6c7.9,15.1,14.9,32.1,18.7,42.7C637.6,514.9,639.7,518.1,639.7,518.1"/>
<path class="st2" d="M621.1,313c0,0-1-4.5-5.7-11.3c-4.7-6.8-8.6-10.6-16.2-13.5c-7.6-2.9-9.5-3.9-21.7-7.7
	c-12.2-3.8-36.9-12.3-45.5-15.1c-8.6-2.8-15.7-5.2-28-5.3c-12.4-0.1-23.6-0.2-30.4,4.3c-6.8,4.5-13.1,7.9-16.7,13.9
	c-3.5,5.9-9.6,13.8-10.4,21.8c3.1-3.2,7.6-7.3,11.7-10.3c4.1-3,8.2-5.9,12.6-7.2c4.5-1.2,8.2-2.5,18.1-2.4
	c9.9,0.1,14.4,0.1,18.5,0.1c4.2,0.1,9.2,1.5,16.8,4c7.7,2.5,13.1,4.3,22.5,7.5c9.4,3.1,14.7,4.7,25.4,8.2
	c10.7,3.5,17.9,5.6,24.4,7.9c6.5,2.3,11.3,4.9,14,8.3c2.7,3.4,5.5,7.6,7.3,11.4c1.8,3.8,3.8,7.3,3.8,7.3c-0.1,0,0.6-11.4,0.7-11.4
	C622.3,323.6,621.1,313.1,621.1,313z"/>
<path class="st1" d="M285.5,442.7c2.2,0.2,5.9,1.8,9.7,3.1c3.8,1.3,9,3.3,16.2,4.6c7.2,1.3,18.8,3.1,25.1,3.3
	c6.3,0.2,11.6,0.3,15.7-0.2c4.1-0.5,18.3-2.9,26.1-5.8c7.8-2.9,21.4-9.5,29.9-15.8c8.5-6.3,16.9-12.7,22.9-17.2s8.4-6.1,12.2-9
	c3.8-2.9,9-8.4,11.7-13c2.6-4.6,5.6-11.6,6.8-17.4c1.1-5.8,1.5-14.7-0.1-21.6c-1.6-7-6.2-16.4-8.9-20.2c-2.7-3.8-6.5-7.2-6.5-7.2
	s-5.2,4-11.2,8.8c-5.9,4.8-9.3,7.4-16.8,13.3c-7.5,5.9-21.5,16.8-30,23.4c-8.5,6.6-15.9,12.8-25.2,19.9c-9.3,7.1-20.6,16.1-30,23.2
	c-9.4,7.1-20.7,14.8-31.9,20C299.2,436,288.5,441.6,285.5,442.7"/>
<path class="st3" d="M313.3,426.3l-1.4,5l27.8,8.2l-2-5.3C337.7,434.1,313.3,426.5,313.3,426.3z"/>
<path class="st3" d="M349.9,422.6L349,399l4.6-0.3l0.7,29.4C354.3,428.1,350,422.6,349.9,422.6z"/>
<path class="st3" d="M381.3,399l-23.5-6.9l-1.8,1.2l0.7,3.3l27,8.2C383.7,404.8,381.3,399.1,381.3,399z"/>
<path class="st3" d="M394.2,387.6l-1.2-23.1l1.4-1.3l2.9,2.1l0.6,27.2C397.9,392.4,394.2,387.5,394.2,387.6z"/>
<path class="st3" d="M399.7,361.1l27.7,8.2V364l-26.2-6.9C401.1,357.1,399.8,361.1,399.7,361.1z"/>
<polygon class="st3" points="437.8,352.8 437.1,329.6 438.6,328.1 441.7,331.2 441.5,357.3 "/>
<path class="st4" d="M331,429.6l16-12.7l12.1,15.2c0,0,1.5,3.5,1.1,6c-0.4,2.4-1.3,5.1-3.4,6.6c-2.1,1.5-4.9,2.8-7.5,2.8
	s-6.1-1.6-6.1-1.6S331.1,429.4,331,429.6z"/>
<ellipse transform="matrix(0.7071 -0.7071 0.7071 0.7071 -207.131 376.19)" class="st3" cx="350.5" cy="438.1" rx="4.6" ry="4.6"/>
<path class="st4" d="M374.9,394.6l16-12.7l12.1,15.2c0,0,1.5,3.5,1.1,6c-0.4,2.4-1.3,5.1-3.4,6.6c-2.1,1.5-4.9,2.8-7.5,2.8
	c-2.6,0-6.1-1.6-6.1-1.6S375,394.5,374.9,394.6z"/>
<path class="st3" d="M394.5,407.8c-2.6,0-4.6-2.1-4.6-4.6c0-2.6,2.1-4.6,4.6-4.6c2.6,0,4.6,2.1,4.6,4.6
	C399.1,405.8,397,407.8,394.5,407.8z"/>
<path class="st4" d="M418.8,359.6l16-12.7l12.1,15.2c0,0,1.5,3.5,1.1,6c-0.4,2.4-1.3,5.1-3.4,6.6c-2.1,1.5-4.9,2.8-7.5,2.8
	s-6.1-1.6-6.1-1.6S418.9,359.4,418.8,359.6z"/>
<path class="st3" d="M438.3,372.8c-2.6,0-4.6-2.1-4.6-4.6c0-2.6,2.1-4.6,4.6-4.6s4.6,2.1,4.6,4.6C443,370.7,440.9,372.8,438.3,372.8
	z"/>
</svg>
