<?xml version="1.0" encoding="utf-8"?>
<!-- Generator: Adobe Illustrator 22.0.0, SVG Export Plug-In . SVG Version: 6.00 Build 0)  -->
<svg version="1.1" id="Layer_1" xmlns="http://www.w3.org/2000/svg" xmlns:xlink="http://www.w3.org/1999/xlink" x="0px" y="0px"
	 viewBox="0 0 900 900" style="enable-background:new 0 0 900 900;" xml:space="preserve">
<style type="text/css">
	.st0{fill:#07C632;}
	.st1{fill:#FFEC02;}
	.st2{fill:none;stroke:#000000;stroke-width:8;}
	.st3{fill:#12284B;}
	.st4{fill:#8091AA;}
	.st5{fill:#FFFFFF;}
	.st6{fill:none;stroke:#000000;stroke-width:8;stroke-dasharray:24,16;}
	.st7{fill:#12284C;}
</style>
<path class="st0" d="M459.7,130.4l8.2,0.7c0.7,0.1,1.3,0.3,1.7,0.8c0.4,0.5,0.6,1.1,0.5,1.8l-0.5,5.6c-0.1,0.7-0.3,1.3-0.8,1.7
	c-0.5,0.4-1.1,0.6-1.8,0.5l-8.2-0.7L459.7,130.4z M452,122.4l-3.1,38.4l8.2,0.7l1.1-13.2l9.6,0.8c1.4,0.1,2.7,0,3.8-0.4
	c1.2-0.4,2.2-0.9,3.1-1.7c0.9-0.8,1.6-1.7,2.2-2.8c0.5-1.1,0.9-2.3,1-3.7l0.5-6.6c0.1-1.4,0-2.7-0.4-3.8c-0.4-1.2-0.9-2.2-1.7-3.1
	c-0.8-0.9-1.7-1.6-2.8-2.2c-1.1-0.5-2.3-0.9-3.7-1L452,122.4z M444.8,121.5l-7.9,0.4l-4.9,25.8l-0.2,0l-7.3-25.2l-8.5,0.4l-4.9,25.8
	l-0.2,0l-7.3-25.2L395,124l12.1,38l8.5-0.4l4.9-25.8l0.2,0l7.3,25.2l8.5-0.4L444.8,121.5z M485.2,125.8l-5.9,38l8.2,1.3l5.9-38
	L485.2,125.8z M378.8,134.7c1.1,0.2,0.7,0,1.4,0.4c0.5,0.4,0.9,0.9,1,1.6l3.5,18.5c0.1,0.7,0,1.3-0.3,1.9c-0.4,0.5-0.9,0.9-1.6,1
	l-7.8,1.5c-0.7,0.1-1.3,0-1.9-0.3c-0.5-0.4-0.9-0.9-1-1.6l-3.5-18.5c-0.1-0.7,0-1.3,0.3-1.9c0.4-0.5,0.9-0.9,1.6-1l7.8-1.5
	L378.8,134.7z M379.7,127.1c-0.5,0-1,0.1-1.4,0.2l-10.5,2c-1.4,0.3-2.6,0.7-3.6,1.4c-1,0.7-1.9,1.5-2.5,2.4c-0.7,1-1.1,2-1.3,3.3
	c-0.2,1.2-0.2,2.5,0,3.9l3.7,19.4c0.3,1.4,0.7,2.6,1.4,3.6c0.7,1,1.5,1.9,2.4,2.5c1,0.7,2,1.1,3.3,1.3c1.2,0.2,2.5,0.2,3.9,0l10.5-2
	c1.4-0.3,2.6-0.7,3.6-1.4c1-0.7,1.9-1.5,2.5-2.4c0.7-1,1.1-2,1.3-3.3c0.2-1.2,0.2-2.5,0-3.9l-3.7-19.4c-0.3-1.4-0.7-2.6-1.4-3.6
	c-0.7-1-1.5-1.9-2.4-2.5c-1-0.7-2-1.1-3.3-1.3l-0.9-0.1C380.2,127.1,380.7,127.1,379.7,127.1L379.7,127.1z M498.8,127.7l-1.6,7.2
	l9.9,2.3l-7,30.3l8,1.8l7-30.3l9.9,2.3l1.6-7.2L498.8,127.7z M265.7,158l-7.8,4.7l-0.2,8.6l6-3.6L265.7,158z M337,137.2l-7.9,2.4
	l11.1,36.9l22.4-6.7l-2.1-7.1L346,167L337,137.2z M538.3,138.5c-1.2,0.1-2.4,0.4-3.4,0.9c-1,0.5-2,1.2-2.8,2.2
	c-0.8,0.9-1.4,2-1.9,3.4l-6.4,18.7c-0.5,1.3-0.6,2.6-0.6,3.8c0.1,1.2,0.4,2.4,0.9,3.4c0.5,1,1.2,2,2.2,2.8c0.9,0.8,2,1.4,3.4,1.9
	l9.1,3.1c1.3,0.5,2.6,0.6,3.8,0.6c1.2-0.1,2.4-0.4,3.4-0.9c1-0.5,2-1.2,2.8-2.2s1.4-2,1.9-3.4l0.8-2.2l-7.8-2.7l-0.6,1.8
	c-0.2,0.7-0.6,1.2-1.2,1.5c-0.6,0.3-1.2,0.3-1.9,0.1l-6.5-2.2c-0.7-0.2-1.2-0.6-1.5-1.2c-0.3-0.6-0.3-1.2-0.1-1.9l6.1-17.8
	c0.2-0.7,0.6-1.2,1.2-1.5s1.2-0.3,1.9-0.1l6.5,2.2c0.7,0.2,1.2,0.6,1.5,1.2c0.3,0.6,0.3,1.2,0.1,1.9l-0.6,1.8l7.8,2.7l0.8-2.2
	c0.5-1.3,0.6-2.6,0.6-3.8c-0.1-1.2-0.4-2.4-0.9-3.4c-0.5-1-1.2-2-2.2-2.8c-0.9-0.8-2-1.4-3.4-1.9l-9.1-3.1
	C540.8,138.6,539.5,138.4,538.3,138.5L538.3,138.5z M315.6,145.2c-1.2,0-2.5,0.3-3.8,0.8l-8.1,3.4c-1.3,0.5-2.4,1.2-3.2,2.1
	c-0.9,0.9-1.5,1.8-2,2.9c-0.4,1.1-0.7,2.2-0.7,3.5c0,1.2,0.3,2.5,0.8,3.8l1.6,3.8c0.5,1.3,1.2,2.4,2.1,3.2c0.9,0.9,1.8,1.5,2.9,2
	c1.1,0.4,2.2,0.7,3.5,0.7c1.2,0,2.5-0.3,3.8-0.8l7.1-2.9c0.7-0.3,1.3-0.3,1.9,0c0.6,0.2,1,0.7,1.3,1.4l1.3,3.1
	c0.3,0.7,0.3,1.3,0,1.9c-0.2,0.6-0.7,1-1.4,1.3l-6.4,2.6c-0.7,0.3-1.3,0.3-1.9,0c-0.6-0.2-1-0.7-1.3-1.4l-0.7-1.7l-7.6,3.1l0.9,2.2
	c0.5,1.3,1.2,2.4,2.1,3.2c0.9,0.9,1.8,1.5,2.9,2c1.1,0.4,2.2,0.7,3.5,0.7c1.2,0,2.5-0.3,3.8-0.8l8.9-3.7c1.3-0.5,2.4-1.2,3.2-2.1
	c0.9-0.9,1.5-1.8,2-2.9c0.4-1.1,0.7-2.2,0.7-3.5c0-1.2-0.3-2.5-0.8-3.8l-1.7-4c-0.5-1.3-1.2-2.4-2.1-3.2c-0.9-0.9-1.8-1.5-2.9-2
	c-1.1-0.4-2.2-0.7-3.5-0.7c-1.2,0-2.5,0.3-3.8,0.8l-7.1,2.9c-0.7,0.3-1.3,0.3-1.9,0c-0.6-0.2-1-0.7-1.3-1.4l-1.2-2.9
	c-0.3-0.7-0.3-1.3,0-1.9c0.2-0.6,0.7-1,1.4-1.3l5.6-2.3c0.7-0.3,1.3-0.3,1.9,0c0.6,0.2,1,0.7,1.3,1.4l0.7,1.7l7.6-3.1l-0.9-2.2
	c-0.5-1.3-1.2-2.4-2.1-3.2c-0.9-0.9-1.8-1.5-2.9-2C318,145.4,316.9,145.2,315.6,145.2L315.6,145.2z M568.1,148.5l-16.5,34.8l7.5,3.5
	l6.7-14.2l11.7,5.5l-6.7,14.2l7.5,3.5l16.5-34.8l-7.5-3.5l-6.6,14l-11.7-5.5l6.6-14L568.1,148.5z M607.8,177.5l0.9,0.4l6.7,4.3
	c0.6,0.4,1,0.9,1.1,1.5c0.1,0.6,0,1.3-0.4,1.9l-10,15.9c-0.4,0.6-0.9,1-1.5,1.1c-0.6,0.1-1.3,0-1.9-0.4l-6.7-4.3
	c-0.6-0.4-1-0.9-1.1-1.5c-0.1-0.6,0-1.3,0.4-1.9l10-15.9c0.4-0.6,0.9-1,1.5-1.1L607.8,177.5z M606.2,169.4l-1.7,0.2
	c-1.1,0.3-2.2,0.7-3.2,1.5c-1,0.7-1.9,1.7-2.6,2.8l-10.6,16.7c-0.7,1.2-1.2,2.4-1.4,3.6c-0.2,1.2-0.2,2.4,0.1,3.5
	c0.3,1.1,0.7,2.2,1.5,3.2c0.7,1,1.7,1.9,2.8,2.6l9.1,5.7c1.2,0.7,2.4,1.2,3.6,1.4c1.2,0.2,2.4,0.2,3.5-0.1c1.1-0.3,2.2-0.7,3.2-1.5
	c1-0.7,1.9-1.7,2.6-2.8l10.6-16.7c0.7-1.2,1.2-2.4,1.4-3.6c0.2-1.2,0.2-2.4-0.1-3.5c-0.3-1.1-0.7-2.2-1.5-3.2
	c-0.7-1-1.7-1.9-2.8-2.6l-9.1-5.7c-1.2-0.7-2.4-1.2-3.6-1.4L606.2,169.4z M681.9,215.2l-8.4,1.8l4.9,5l9.9-0.4L681.9,215.2z
	 M633.9,185.4l-13.7,38.3l5.5,4.4l34.5-21.7l-6.6-5.3l-22.3,15l-0.2-0.1l9.9-25L633.9,185.4z M267.3,180.1l9.7,8.6l-6.8,4.1
	l-3.1-12.6L267.3,180.1z M265.6,168.7l-7.2,4.4l8.4,38.8l-24-8.3l0-20.6l-7.2,5.6l0.4,20.6l-0.2,0.2l-10.2-13l-6.5,5.1l23.7,30.4
	l6.5-5.1l-6.5-8.3l0-6.1l17.3,5.9l7.1-5.6l7-4.2l-2.1-8.2l10.7-6.5l6.3,5.6l7.7-4.7L265.6,168.7z M211.8,211.5
	c-1.2,0-2.3,0.2-3.4,0.7c-1.1,0.5-2.2,1.2-3.2,2.2l-6.3,6.2c-1,1-1.7,2-2.2,3.1c-0.5,1.1-0.7,2.3-0.8,3.4c0,1.2,0.2,2.3,0.7,3.4
	c0.5,1.1,1.2,2.2,2.2,3.2l2.9,2.9c1,1,2,1.7,3.1,2.2c1.1,0.5,2.3,0.7,3.4,0.8c1.2,0,2.3-0.2,3.4-0.7c1.1-0.5,2.2-1.2,3.2-2.2
	l5.5-5.4c0.5-0.5,1.1-0.8,1.8-0.8c0.6,0,1.2,0.3,1.7,0.8l2.3,2.4c0.5,0.5,0.8,1.1,0.8,1.8c0,0.6-0.3,1.2-0.8,1.7l-4.9,4.8
	c-0.5,0.5-1.1,0.8-1.8,0.8c-0.6,0-1.2-0.3-1.7-0.8l-1.3-1.3l-5.9,5.8l1.7,1.7c1,1,2,1.7,3.1,2.2c1.1,0.5,2.3,0.7,3.4,0.8
	c1.2,0,2.3-0.2,3.4-0.7s2.2-1.2,3.2-2.2l6.9-6.7c1-1,1.7-2,2.2-3.1s0.7-2.3,0.8-3.4c0-1.2-0.2-2.3-0.7-3.4c-0.5-1.1-1.2-2.2-2.2-3.2
	l-3-3.1c-1-1-2-1.7-3.1-2.2c-1.1-0.5-2.3-0.7-3.4-0.8c-1.2,0-2.3,0.2-3.4,0.7c-1.1,0.5-2.2,1.2-3.2,2.2l-5.5,5.4
	c-0.5,0.5-1.1,0.8-1.8,0.8c-0.6,0-1.2-0.3-1.7-0.8l-2.2-2.2c-0.5-0.5-0.8-1.1-0.8-1.8c0-0.6,0.3-1.2,0.8-1.7l4.3-4.2
	c0.5-0.5,1.1-0.8,1.8-0.8c0.6,0,1.2,0.3,1.7,0.8l1.3,1.3l5.9-5.8l-1.7-1.7c-1-1-2-1.7-3.1-2.2C214.1,211.8,213,211.5,211.8,211.5
	L211.8,211.5z M667.1,228.2l0.2,0.2l-6.1,11.5l-5.6-5.6L667.1,228.2z M671.9,218l-36.7,17.7l6,6l7.5-3.9l8.8,8.9l-4,7.5l6.4,6.4
	l17.9-36.6L671.9,218z M187.5,232.1l-18.2,22.1l5.7,4.7l6.5-7.8l24,19.8l5.3-6.4l-24-19.8l6.5-7.8L187.5,232.1z M699.9,249l-31,22.8
	l13.8,18.8l5.9-4.4l-8.9-12.2l25.1-18.4L699.9,249z M716.8,273l-32.6,20.6l4.4,7l32.6-20.6L716.8,273z M167.8,262.9l-1.7,0.2
	c-1.1,0.2-2.2,0.7-3.2,1.4c-1,0.7-1.9,1.6-2.7,2.8l-4.9,7.3c-0.8,1.2-1.3,2.3-1.5,3.5c-0.2,1.2-0.2,2.4,0,3.5
	c0.2,1.1,0.7,2.2,1.4,3.2c0.7,1,1.6,1.9,2.8,2.7l3.4,2.3c1.2,0.8,2.3,1.3,3.5,1.5c1.2,0.2,2.4,0.2,3.5,0c1.1-0.2,2.2-0.7,3.2-1.4
	c1-0.7,1.9-1.6,2.7-2.8l4.2-6.4c0.4-0.6,0.9-1,1.6-1.1c0.6-0.1,1.3,0,1.9,0.4l2.8,1.8c0.6,0.4,1,0.9,1.1,1.6c0.1,0.6,0,1.3-0.4,1.9
	l-3.8,5.7c-0.4,0.6-0.9,1-1.6,1.1c-0.6,0.1-1.3,0-1.9-0.4l-1.6-1l-4.5,6.9l2,1.3c1.2,0.8,2.3,1.3,3.5,1.5c1.2,0.2,2.4,0.2,3.5,0
	c1.1-0.2,2.2-0.7,3.2-1.4c1-0.7,1.9-1.6,2.7-2.8l5.3-8c0.8-1.2,1.3-2.3,1.5-3.5s0.2-2.4,0-3.5c-0.2-1.1-0.7-2.2-1.4-3.2
	s-1.6-1.9-2.8-2.7l-3.6-2.4c-1.2-0.8-2.3-1.3-3.5-1.5c-1.2-0.2-2.4-0.2-3.5,0c-1.1,0.2-2.2,0.7-3.2,1.4c-1,0.7-1.9,1.6-2.7,2.8
	l-4.2,6.4c-0.4,0.6-0.9,1-1.6,1.1c-0.6,0.1-1.3,0-1.9-0.4l-2.6-1.7c-0.6-0.4-1-0.9-1.1-1.6c-0.1-0.6,0-1.3,0.4-1.9l3.3-5
	c0.4-0.6,0.9-1,1.6-1.1c0.6-0.1,1.3,0,1.9,0.4l1.6,1l4.5-6.9l-2-1.3c-1.2-0.8-2.3-1.3-3.5-1.5L167.8,262.9z M136.9,287.5l-3.4,6.7
	l1.7,3.5l-3.8,0.7l-3.4,6.7l8.8-1.3l4.2-8.2L136.9,287.5z M721.4,290.5c-1.2,0.1-2.4,0.5-3.7,1.1l-17.6,9.1
	c-1.2,0.6-2.3,1.4-3.1,2.4c-0.8,0.9-1.4,2-1.7,3.1c-0.4,1.1-0.5,2.3-0.4,3.5c0.1,1.2,0.5,2.4,1.1,3.7l4.4,8.5
	c0.6,1.2,1.4,2.3,2.4,3.1c0.9,0.8,2,1.4,3.1,1.7c1.1,0.4,2.3,0.5,3.5,0.4c1.2-0.1,2.4-0.5,3.7-1.1l9.7-5l-7-13.4l-6.5,3.4l3.2,6.1
	l-2.7,1.4c-0.7,0.3-1.3,0.4-1.9,0.2c-0.6-0.2-1.1-0.6-1.4-1.3l-3.2-6.1c-0.3-0.7-0.4-1.3-0.2-1.9c0.2-0.6,0.6-1.1,1.3-1.4l16.7-8.7
	c0.7-0.3,1.3-0.4,1.9-0.2c0.6,0.2,1.1,0.6,1.4,1.3l3.2,6.1c0.3,0.7,0.4,1.3,0.2,1.9c-0.2,0.6-0.6,1.1-1.3,1.4l-1.7,0.9l3.8,7.3
	l2.1-1.1c1.2-0.6,2.3-1.4,3.1-2.4c0.8-0.9,1.4-2,1.7-3.1c0.4-1.1,0.5-2.3,0.4-3.5c-0.1-1.2-0.5-2.4-1.1-3.7l-4.4-8.5
	c-0.6-1.2-1.4-2.3-2.4-3.1c-0.9-0.8-2-1.4-3.1-1.7l-1.7-0.4L721.4,290.5z M145.9,289.8l-11.2,21.8l34.2,17.6l11.4-22.3l-6.6-3.4
	l-7.7,14.9l-7.4-3.8l6.9-13.5l-6.6-3.4l-6.9,13.5l-7.2-3.7l7.4-14.4L145.9,289.8z M738,338.4l0.1,0.2l-10.3,8l-2.8-7.4L738,338.4z
	 M746.6,331.1l-40.7,1.1l3,7.9l8.4-0.5l4.4,11.7l-6.7,5.2l3.2,8.4l31.4-26L746.6,331.1z M130.3,320.9l-2.7,7.5l17.3,16.4l-0.1,0.2
	l-23.7,1.3l-2.9,8l36.2,13.2l2.8-7.7l-19.7-7.2l0.1-0.3l22.8-1.4l0.1-0.3l-16.6-15.7l0.1-0.3l19.7,7.2l2.8-7.7L130.3,320.9z
	 M123.3,407.8c-19.3,0-35,15.7-35,35c0,19.3,15.7,35,35,35s35-15.7,35-35C158.3,423.5,142.7,407.8,123.3,407.8L123.3,407.8z
	 M748.2,408.3c-19.3,0-35,15.7-35,35c0,19.3,15.7,35,35,35c19.3,0,35-15.7,35-35C783.2,424,767.5,408.3,748.2,408.3L748.2,408.3z
	 M436.1,206.7c-129.8,0-235,105.2-235,235c0,129.8,105.2,235,235,235c129.8,0,235-105.2,235-235S565.9,206.7,436.1,206.7
	L436.1,206.7z M612,671l-9.7,6.9l0.6,11.3l7.5-5.3L612,671z M239.6,672.5l-1.1,0.1c-1.5,0.2-3,0.6-4.4,1.4c-1.4,0.8-2.7,1.9-3.8,3.3
	l-3.4,4.2c-1.1,1.4-1.9,2.9-2.4,4.4c-0.5,1.5-0.6,3.1-0.4,4.6c0.2,1.5,0.6,3,1.4,4.4c0.8,1.4,1.9,2.7,3.3,3.8l7.9,6.3
	c0.7,0.6,1.2,1.3,1.3,2.2c0.1,0.8-0.2,1.6-0.8,2.4l-2.7,3.4c-0.6,0.7-1.3,1.2-2.2,1.3c-0.8,0.1-1.6-0.2-2.4-0.8l-7-5.6
	c-0.7-0.6-1.2-1.3-1.3-2.2c-0.1-0.8,0.2-1.6,0.8-2.4l1.5-1.9l-8.4-6.8l-1.9,2.4c-1.1,1.4-1.9,2.9-2.4,4.4c-0.5,1.5-0.6,3.1-0.4,4.6
	c0.2,1.5,0.6,3,1.4,4.4c0.8,1.4,1.9,2.7,3.3,3.8l9.8,7.9c1.4,1.1,2.9,1.9,4.4,2.4c1.5,0.5,3.1,0.6,4.6,0.4c1.5-0.2,3-0.6,4.4-1.4
	c1.4-0.8,2.7-1.9,3.8-3.3l3.6-4.4c1.1-1.4,1.9-2.9,2.4-4.4c0.5-1.5,0.6-3.1,0.4-4.6c-0.2-1.5-0.6-3-1.4-4.4
	c-0.8-1.4-1.9-2.7-3.3-3.8l-7.9-6.3c-0.7-0.6-1.2-1.3-1.3-2.2c-0.1-0.8,0.2-1.6,0.8-2.4l2.6-3.2c0.6-0.7,1.3-1.2,2.2-1.3
	c0.8-0.1,1.6,0.2,2.4,0.8l6.2,4.9c0.7,0.6,1.2,1.3,1.3,2.2c0.1,0.8-0.2,1.6-0.8,2.4l-1.5,1.9l8.4,6.8l1.9-2.4
	c1.1-1.4,1.9-2.9,2.4-4.4c0.5-1.5,0.6-3.1,0.4-4.6c-0.2-1.5-0.6-3-1.4-4.4c-0.8-1.4-1.9-2.7-3.3-3.8l-9-7.2
	c-1.4-1.1-2.9-1.9-4.4-2.4C241.1,672.6,242.3,672.8,239.6,672.5z M621.9,678.5L595.8,697l29.2,41.1l26.7-18.9l-5.6-7.9L628.2,724
	l-6.3-8.9l16.2-11.5l-5.6-7.9l-16.2,11.5l-6.1-8.6l17.3-12.3L621.9,678.5z M274.4,696.1l-4.7,8.4l11.6,6.6l-20,35.5l9.4,5.3l20-35.5
	l11.6,6.6l4.7-8.4L274.4,696.1z M583.9,704.4l-9.7,4.7l13,26.7l-0.3,0.1l-28-19.5l-9.7,4.7l22,45.3l9.7-4.7l-13-26.7l0.3-0.1
	l28,19.5l9.7-4.7L583.9,704.4z M323.9,736.4l0.3,0.1l-1.2,17l-9.7-3.7L323.9,736.4z M324.2,721.6l-34.4,40.7l10.3,4l6.8-8.7
	l15.2,5.9l-0.7,11.1l11,4.3l2-53.3L324.2,721.6z M540.6,724.9l-10.6,3.1l-0.6,35.2l-0.3,0.1l-19.4-29.4l-11.3,3.3l30.8,43.5l8.8-2.6
	L540.6,724.9z M368.6,745.7l11.3,2.3c0.9,0.2,1.6,0.6,2.1,1.3c0.5,0.7,0.6,1.5,0.4,2.5l-1.3,6.5c-0.2,0.9-0.6,1.6-1.3,2.1
	c-0.7,0.5-1.5,0.6-2.5,0.4l-11.3-2.3L368.6,745.7z M360,734.1l-10.1,49.4l10.6,2.2l3.6-17.6l5.4,1.1l5.6,19.5l11.9,2.4l-5.7-20.1
	c2.6-0.3,4.8-1.2,6.7-2.9c1.9-1.7,3.1-4,3.7-6.9l1.6-7.8c0.4-1.8,0.4-3.5,0.1-5c-0.3-1.6-0.9-3-1.7-4.3c-0.8-1.3-1.9-2.4-3.3-3.2
	c-1.3-0.9-2.9-1.5-4.7-1.9L360,734.1z M478.3,749.7c1.4,0.4,0.9,0.1,1.7,0.7c0.7,0.5,1.1,1.3,1.2,2.2L484,777c0.1,1-0.1,1.8-0.6,2.4
	c-0.5,0.7-1.3,1.1-2.2,1.2l-10.4,1.2c-1,0.1-1.8-0.1-2.4-0.6c-0.7-0.5-1.1-1.3-1.2-2.2l-2.8-24.5c-0.1-1,0.1-1.8,0.6-2.4
	c0.5-0.7,1.3-1.1,2.2-1.2l10.4-1.2L478.3,749.7z M479.6,739.8l-1.3,0.1l-13.9,1.6c-1.8,0.2-3.4,0.7-4.8,1.5s-2.6,1.7-3.5,2.9
	c-1,1.2-1.6,2.6-2.1,4.1c-0.4,1.5-0.5,3.2-0.3,5l2.9,25.8c0.2,1.8,0.7,3.4,1.5,4.8c0.8,1.4,1.7,2.6,2.9,3.5c1.2,1,2.6,1.6,4.1,2.1
	c1.5,0.4,3.2,0.5,5,0.3L484,790c1.8-0.2,3.4-0.7,4.8-1.5c1.4-0.8,2.6-1.7,3.5-2.9s1.6-2.6,2.1-4.1c0.4-1.5,0.5-3.2,0.3-5l-2.9-25.8
	c-0.2-1.8-0.7-3.4-1.5-4.8c-0.8-1.4-1.7-2.6-2.9-3.5c-1.2-1-2.6-1.6-4.1-2.1C481.3,739.8,482.5,740,479.6,739.8z M403.8,742.8
	l-0.2,9.6l13.3,0.3l-0.9,40.7l10.8,0.3l0.9-40.7l13.3,0.3l0.2-9.6L403.8,742.8z M434.4,52.9c215.4,0,390,174.6,390,390
	s-174.6,390-390,390s-390-174.6-390-390S219,52.9,434.4,52.9L434.4,52.9z"/>
<ellipse transform="matrix(0.1602 -0.9871 0.9871 0.1602 -333.5489 493.7792)" class="st0" cx="123.4" cy="442.9" rx="27.5" ry="27.5"/>
<circle class="st0" cx="748.3" cy="443.4" r="27.5"/>
<rect x="253.1" y="343.6" transform="matrix(0.9848 -0.1736 0.1736 0.9848 -70.3412 82.5485)" class="st1" width="367.1" height="199.3"/>
<rect x="253.1" y="343.6" transform="matrix(0.9848 -0.1736 0.1736 0.9848 -70.3412 82.5484)" class="st2" width="367.1" height="199.3"/>
<rect x="254.9" y="343.3" class="st3" width="367.1" height="199.3"/>
<rect x="254.9" y="343.3" class="st2" width="367.1" height="199.3"/>
<path class="st4" d="M306.4,343.9c-0.8,28.2-20.3,50.4-50.9,51.9c-0.1,0-0.6-51.9-0.6-51.9S306.4,343.8,306.4,343.9z"/>
<path class="st2" d="M306.4,343.9c-0.8,28.2-20.3,50.4-50.9,51.9c-0.1,0-0.6-51.9-0.6-51.9S306.4,343.8,306.4,343.9z"/>
<path class="st4" d="M283.8,423l-0.1,44.4c0,0,0,0.6,0.8,0.9c23,8.8,37.6,24.7,44.5,45.2c0.2,0.6,0.8,0.6,0.8,0.6l215.5,0.1
	c0,0,0.8,0.1,0.9-0.5c6.6-22,24-40.2,45.9-46.3c1.4-0.4,1.1-0.7,1.1-0.7v-42.6c0,0,0.2-1.2-1-1.6c-21.6-8.4-38.4-25.2-45.2-46.7
	c-0.6-1.7-1.5-1.4-1.5-1.4H332.6c0,0-1.5-0.1-1.6,0.5C327.1,395.2,306.5,415.7,283.8,423z"/>
<path class="st4" d="M570.1,343.7c0.8,28.2,20.3,50.4,50.9,51.9c0.1,0,0.6-51.9,0.6-51.9S570.1,343.7,570.1,343.7z"/>
<path class="st2" d="M570.1,343.7c0.8,28.2,20.3,50.4,50.9,51.9c0.1,0,0.6-51.9,0.6-51.9S570.1,343.7,570.1,343.7z"/>
<path class="st4" d="M570.8,542.7c0.8-28.2,20.3-50.4,50.9-51.9c0.1,0,0.6,51.9,0.6,51.9S570.8,542.7,570.8,542.7z"/>
<path class="st2" d="M570.8,542.7c0.8-28.2,20.3-50.4,50.9-51.9c0.1,0,0.6,51.9,0.6,51.9S570.8,542.7,570.8,542.7z"/>
<path class="st4" d="M306.3,542.6c-0.8-28.2-20.3-50.4-50.9-51.9c-0.1,0-0.6,51.9-0.6,51.9S306.3,542.6,306.3,542.6z"/>
<path class="st2" d="M306.3,542.6c-0.8-28.2-20.3-50.4-50.9-51.9c-0.1,0-0.6,51.9-0.6,51.9S306.3,542.6,306.3,542.6z"/>
<circle class="st5" cx="320.7" cy="443" r="13.6"/>
<circle class="st2" cx="320.7" cy="443" r="13.6"/>
<circle class="st5" cx="551.6" cy="443.1" r="13.6"/>
<circle class="st2" cx="551.6" cy="443.1" r="13.6"/>
<ellipse transform="matrix(0.7071 -0.7071 0.7071 0.7071 -187.2467 438.3061)" class="st5" cx="435.5" cy="445.2" rx="73.8" ry="73.8"/>
<ellipse transform="matrix(0.7071 -0.7071 0.7071 0.7071 -187.2467 438.3061)" class="st6" cx="435.5" cy="445.2" rx="73.8" ry="73.8"/>
<path class="st7" d="M386,450.3v-25.3h27.2v8h-18.8v9.5h0.2c0.8-0.9,1.8-1.6,2.9-2.1c1.1-0.5,2.3-0.8,3.4-0.8h4
	c1.5,0,2.9,0.2,4.1,0.5c1.2,0.3,2.2,0.9,2.9,1.6c0.8,0.8,1.4,1.8,1.8,3.1s0.6,2.8,0.6,4.7v7.3c0,1.5-0.3,2.9-0.8,4.1
	c-0.5,1.2-1.2,2.3-2.1,3.2c-0.9,0.9-2,1.6-3.2,2.1c-1.2,0.5-2.6,0.8-4.1,0.8h-8.6c-1.5,0-2.9-0.3-4.1-0.8s-2.3-1.2-3.2-2.1
	c-0.9-0.9-1.6-2-2.1-3.2c-0.5-1.2-0.8-2.6-0.8-4.1v-1.6h8.9v2.2c0,1.4,0.8,2,2.3,2h6.6c0.7,0,1.2-0.2,1.6-0.5s0.6-0.9,0.6-1.5v-8.6
	c0-0.7-0.2-1.2-0.6-1.5s-1-0.5-1.6-0.5h-3.6c-1.4,0-2.6,0.4-3.5,1.1c-0.9,0.7-1.4,1.6-1.7,2.5H386z"/>
<path class="st7" d="M437.4,458.9c0.8,0,1.5-0.3,2-0.8s0.8-1.1,0.8-2v-20.5c0-0.8-0.3-1.5-0.8-2s-1.1-0.8-2-0.8h-6.3
	c-0.8,0-1.5,0.3-2,0.8s-0.8,1.1-0.8,2v20.5c0,0.8,0.3,1.5,0.8,2s1.2,0.8,2,0.8H437.4z M429.6,466.9c-1.5,0-2.9-0.3-4.1-0.8
	c-1.2-0.5-2.3-1.2-3.2-2.1c-0.9-0.9-1.6-2-2.1-3.2c-0.5-1.2-0.8-2.6-0.8-4.1v-21.6c0-1.5,0.3-2.9,0.8-4.1c0.5-1.2,1.2-2.3,2.1-3.2
	s2-1.6,3.2-2.1c1.2-0.5,2.6-0.8,4.1-0.8h9.3c1.5,0,2.9,0.3,4.1,0.8s2.3,1.2,3.2,2.1s1.6,2,2.1,3.2c0.5,1.2,0.8,2.6,0.8,4.1v21.6
	c0,1.5-0.3,2.9-0.8,4.1c-0.5,1.2-1.2,2.3-2.1,3.2c-0.9,0.9-2,1.6-3.2,2.1s-2.6,0.8-4.1,0.8H429.6z"/>
<path class="st7" d="M473.1,458.9c0.8,0,1.5-0.3,2-0.8s0.8-1.1,0.8-2v-20.5c0-0.8-0.3-1.5-0.8-2s-1.2-0.8-2-0.8h-6.3
	c-0.8,0-1.5,0.3-2,0.8s-0.8,1.1-0.8,2v20.5c0,0.8,0.3,1.5,0.8,2s1.1,0.8,2,0.8H473.1z M465.3,466.9c-1.5,0-2.9-0.3-4.1-0.8
	s-2.3-1.2-3.2-2.1c-0.9-0.9-1.6-2-2.1-3.2c-0.5-1.2-0.8-2.6-0.8-4.1v-21.6c0-1.5,0.3-2.9,0.8-4.1c0.5-1.2,1.2-2.3,2.1-3.2
	s2-1.6,3.2-2.1s2.6-0.8,4.1-0.8h9.3c1.5,0,2.9,0.3,4.1,0.8c1.2,0.5,2.3,1.2,3.2,2.1s1.6,2,2.1,3.2c0.5,1.2,0.8,2.6,0.8,4.1v21.6
	c0,1.5-0.3,2.9-0.8,4.1c-0.5,1.2-1.2,2.3-2.1,3.2c-0.9,0.9-2,1.6-3.2,2.1c-1.2,0.5-2.6,0.8-4.1,0.8H465.3z"/>
</svg>
