<?xml version="1.0" encoding="utf-8"?>
<!-- Generator: Adobe Illustrator 22.0.0, SVG Export Plug-In . SVG Version: 6.00 Build 0)  -->
<svg version="1.1" id="Layer_1" xmlns="http://www.w3.org/2000/svg" xmlns:xlink="http://www.w3.org/1999/xlink" x="0px" y="0px"
	 viewBox="0 0 900 900" style="enable-background:new 0 0 900 900;" xml:space="preserve">
<style type="text/css">
	.st0{fill:#07C632;}
	.st1{fill:#12284A;}
</style>
<path class="st0" d="M459.7,130.4l8.2,0.7c0.7,0.1,1.3,0.3,1.7,0.8c0.4,0.5,0.6,1.1,0.5,1.8l-0.5,5.6c-0.1,0.7-0.3,1.3-0.8,1.7
	c-0.5,0.4-1.1,0.6-1.8,0.5l-8.2-0.7L459.7,130.4z M452,122.4l-3.1,38.4l8.2,0.7l1.1-13.2l9.6,0.8c1.4,0.1,2.7,0,3.8-0.4
	c1.2-0.4,2.2-0.9,3.1-1.7c0.9-0.8,1.6-1.7,2.2-2.8c0.5-1.1,0.9-2.3,1-3.7l0.5-6.6c0.1-1.4,0-2.7-0.4-3.8c-0.4-1.2-0.9-2.2-1.7-3.1
	c-0.8-0.9-1.7-1.6-2.8-2.2c-1.1-0.5-2.3-0.9-3.7-1L452,122.4z M444.8,121.5l-7.9,0.4l-4.9,25.8l-0.2,0l-7.3-25.2l-8.5,0.4l-4.9,25.8
	l-0.2,0l-7.3-25.2L395,124l12.1,38l8.5-0.4l4.9-25.8l0.2,0l7.3,25.2l8.5-0.4L444.8,121.5z M485.2,125.8l-5.9,38l8.2,1.3l5.9-38
	L485.2,125.8z M378.8,134.7c1.1,0.2,0.7,0,1.4,0.4c0.5,0.4,0.9,0.9,1,1.6l3.5,18.5c0.1,0.7,0,1.3-0.3,1.9c-0.4,0.5-0.9,0.9-1.6,1
	l-7.8,1.5c-0.7,0.1-1.3,0-1.9-0.3c-0.5-0.4-0.9-0.9-1-1.6l-3.5-18.5c-0.1-0.7,0-1.3,0.3-1.9c0.4-0.5,0.9-0.9,1.6-1l7.8-1.5
	L378.8,134.7z M379.7,127.1c-0.5,0-1,0.1-1.4,0.2l-10.5,2c-1.4,0.3-2.6,0.7-3.6,1.4c-1,0.7-1.9,1.5-2.5,2.4c-0.7,1-1.1,2-1.3,3.3
	c-0.2,1.2-0.2,2.5,0,3.9l3.7,19.4c0.3,1.4,0.7,2.6,1.4,3.6c0.7,1,1.5,1.9,2.4,2.5c1,0.7,2,1.1,3.3,1.3c1.2,0.2,2.5,0.2,3.9,0l10.5-2
	c1.4-0.3,2.6-0.7,3.6-1.4c1-0.7,1.9-1.5,2.5-2.4c0.7-1,1.1-2,1.3-3.3c0.2-1.2,0.2-2.5,0-3.9l-3.7-19.4c-0.3-1.4-0.7-2.6-1.4-3.6
	c-0.7-1-1.5-1.9-2.4-2.5c-1-0.7-2-1.1-3.3-1.3l-0.9-0.1C380.2,127.1,380.7,127.1,379.7,127.1L379.7,127.1z M498.8,127.7l-1.6,7.2
	l9.9,2.3l-7,30.3l8,1.8l7-30.3l9.9,2.3l1.6-7.2L498.8,127.7z M265.7,158l-7.8,4.7l-0.2,8.6l6-3.6L265.7,158z M337,137.2l-7.9,2.4
	l11.1,36.9l22.4-6.7l-2.1-7.1L346,167L337,137.2z M538.3,138.5c-1.2,0.1-2.4,0.4-3.4,0.9c-1,0.5-2,1.2-2.8,2.2
	c-0.8,0.9-1.4,2-1.9,3.4l-6.4,18.7c-0.5,1.3-0.6,2.6-0.6,3.8c0.1,1.2,0.4,2.4,0.9,3.4c0.5,1,1.2,2,2.2,2.8c0.9,0.8,2,1.4,3.4,1.9
	l9.1,3.1c1.3,0.5,2.6,0.6,3.8,0.6c1.2-0.1,2.4-0.4,3.4-0.9c1-0.5,2-1.2,2.8-2.2s1.4-2,1.9-3.4l0.8-2.2l-7.8-2.7l-0.6,1.8
	c-0.2,0.7-0.6,1.2-1.2,1.5c-0.6,0.3-1.2,0.3-1.9,0.1l-6.5-2.2c-0.7-0.2-1.2-0.6-1.5-1.2c-0.3-0.6-0.3-1.2-0.1-1.9l6.1-17.8
	c0.2-0.7,0.6-1.2,1.2-1.5s1.2-0.3,1.9-0.1l6.5,2.2c0.7,0.2,1.2,0.6,1.5,1.2c0.3,0.6,0.3,1.2,0.1,1.9l-0.6,1.8l7.8,2.7l0.8-2.2
	c0.5-1.3,0.6-2.6,0.6-3.8c-0.1-1.2-0.4-2.4-0.9-3.4c-0.5-1-1.2-2-2.2-2.8c-0.9-0.8-2-1.4-3.4-1.9l-9.1-3.1
	C540.8,138.6,539.5,138.4,538.3,138.5L538.3,138.5z M315.6,145.2c-1.2,0-2.5,0.3-3.8,0.8l-8.1,3.4c-1.3,0.5-2.4,1.2-3.2,2.1
	c-0.9,0.9-1.5,1.8-2,2.9c-0.4,1.1-0.7,2.2-0.7,3.5c0,1.2,0.3,2.5,0.8,3.8l1.6,3.8c0.5,1.3,1.2,2.4,2.1,3.2c0.9,0.9,1.8,1.5,2.9,2
	c1.1,0.4,2.2,0.7,3.5,0.7c1.2,0,2.5-0.3,3.8-0.8l7.1-2.9c0.7-0.3,1.3-0.3,1.9,0c0.6,0.2,1,0.7,1.3,1.4l1.3,3.1
	c0.3,0.7,0.3,1.3,0,1.9c-0.2,0.6-0.7,1-1.4,1.3l-6.4,2.6c-0.7,0.3-1.3,0.3-1.9,0c-0.6-0.2-1-0.7-1.3-1.4l-0.7-1.7l-7.6,3.1l0.9,2.2
	c0.5,1.3,1.2,2.4,2.1,3.2c0.9,0.9,1.8,1.5,2.9,2c1.1,0.4,2.2,0.7,3.5,0.7c1.2,0,2.5-0.3,3.8-0.8l8.9-3.7c1.3-0.5,2.4-1.2,3.2-2.1
	c0.9-0.9,1.5-1.8,2-2.9c0.4-1.1,0.7-2.2,0.7-3.5c0-1.2-0.3-2.5-0.8-3.8l-1.7-4c-0.5-1.3-1.2-2.4-2.1-3.2c-0.9-0.9-1.8-1.5-2.9-2
	c-1.1-0.4-2.2-0.7-3.5-0.7c-1.2,0-2.5,0.3-3.8,0.8l-7.1,2.9c-0.7,0.3-1.3,0.3-1.9,0c-0.6-0.2-1-0.7-1.3-1.4l-1.2-2.9
	c-0.3-0.7-0.3-1.3,0-1.9c0.2-0.6,0.7-1,1.4-1.3l5.6-2.3c0.7-0.3,1.3-0.3,1.9,0c0.6,0.2,1,0.7,1.3,1.4l0.7,1.7l7.6-3.1l-0.9-2.2
	c-0.5-1.3-1.2-2.4-2.1-3.2c-0.9-0.9-1.8-1.5-2.9-2C318,145.4,316.9,145.2,315.6,145.2L315.6,145.2z M568.1,148.5l-16.5,34.8l7.5,3.5
	l6.7-14.2l11.7,5.5l-6.7,14.2l7.5,3.5l16.5-34.8l-7.5-3.5l-6.6,14l-11.7-5.5l6.6-14L568.1,148.5z M607.8,177.5l0.9,0.4l6.7,4.3
	c0.6,0.4,1,0.9,1.1,1.5c0.1,0.6,0,1.3-0.4,1.9l-10,15.9c-0.4,0.6-0.9,1-1.5,1.1c-0.6,0.1-1.3,0-1.9-0.4l-6.7-4.3
	c-0.6-0.4-1-0.9-1.1-1.5c-0.1-0.6,0-1.3,0.4-1.9l10-15.9c0.4-0.6,0.9-1,1.5-1.1L607.8,177.5z M606.2,169.4l-1.7,0.2
	c-1.1,0.3-2.2,0.7-3.2,1.5c-1,0.7-1.9,1.7-2.6,2.8l-10.6,16.7c-0.7,1.2-1.2,2.4-1.4,3.6c-0.2,1.2-0.2,2.4,0.1,3.5
	c0.3,1.1,0.7,2.2,1.5,3.2c0.7,1,1.7,1.9,2.8,2.6l9.1,5.7c1.2,0.7,2.4,1.2,3.6,1.4c1.2,0.2,2.4,0.2,3.5-0.1c1.1-0.3,2.2-0.7,3.2-1.5
	c1-0.7,1.9-1.7,2.6-2.8l10.6-16.7c0.7-1.2,1.2-2.4,1.4-3.6c0.2-1.2,0.2-2.4-0.1-3.5c-0.3-1.1-0.7-2.2-1.5-3.2
	c-0.7-1-1.7-1.9-2.8-2.6l-9.1-5.7c-1.2-0.7-2.4-1.2-3.6-1.4L606.2,169.4z M681.9,215.2l-8.4,1.8l4.9,5l9.9-0.4L681.9,215.2z
	 M633.9,185.4l-13.7,38.3l5.5,4.4l34.5-21.7l-6.6-5.3l-22.3,15l-0.2-0.1l9.9-25L633.9,185.4z M267.3,180.1l9.7,8.6l-6.8,4.1
	l-3.1-12.6L267.3,180.1z M265.6,168.7l-7.2,4.4l8.4,38.8l-24-8.3l0-20.6l-7.2,5.6l0.4,20.6l-0.2,0.2l-10.2-13l-6.5,5.1l23.7,30.4
	l6.5-5.1l-6.5-8.3l0-6.1l17.3,5.9l7.1-5.6l7-4.2l-2.1-8.2l10.7-6.5l6.3,5.6l7.7-4.7L265.6,168.7z M211.8,211.5
	c-1.2,0-2.3,0.2-3.4,0.7c-1.1,0.5-2.2,1.2-3.2,2.2l-6.3,6.2c-1,1-1.7,2-2.2,3.1c-0.5,1.1-0.7,2.3-0.8,3.4c0,1.2,0.2,2.3,0.7,3.4
	c0.5,1.1,1.2,2.2,2.2,3.2l2.9,2.9c1,1,2,1.7,3.1,2.2c1.1,0.5,2.3,0.7,3.4,0.8c1.2,0,2.3-0.2,3.4-0.7c1.1-0.5,2.2-1.2,3.2-2.2
	l5.5-5.4c0.5-0.5,1.1-0.8,1.8-0.8c0.6,0,1.2,0.3,1.7,0.8l2.3,2.4c0.5,0.5,0.8,1.1,0.8,1.8c0,0.6-0.3,1.2-0.8,1.7l-4.9,4.8
	c-0.5,0.5-1.1,0.8-1.8,0.8c-0.6,0-1.2-0.3-1.7-0.8l-1.3-1.3l-5.9,5.8l1.7,1.7c1,1,2,1.7,3.1,2.2c1.1,0.5,2.3,0.7,3.4,0.8
	c1.2,0,2.3-0.2,3.4-0.7s2.2-1.2,3.2-2.2l6.9-6.7c1-1,1.7-2,2.2-3.1s0.7-2.3,0.8-3.4c0-1.2-0.2-2.3-0.7-3.4c-0.5-1.1-1.2-2.2-2.2-3.2
	l-3-3.1c-1-1-2-1.7-3.1-2.2c-1.1-0.5-2.3-0.7-3.4-0.8c-1.2,0-2.3,0.2-3.4,0.7c-1.1,0.5-2.2,1.2-3.2,2.2l-5.5,5.4
	c-0.5,0.5-1.1,0.8-1.8,0.8c-0.6,0-1.2-0.3-1.7-0.8l-2.2-2.2c-0.5-0.5-0.8-1.1-0.8-1.8c0-0.6,0.3-1.2,0.8-1.7l4.3-4.2
	c0.5-0.5,1.1-0.8,1.8-0.8c0.6,0,1.2,0.3,1.7,0.8l1.3,1.3l5.9-5.8l-1.7-1.7c-1-1-2-1.7-3.1-2.2C214.1,211.8,213,211.5,211.8,211.5
	L211.8,211.5z M667.1,228.2l0.2,0.2l-6.1,11.5l-5.6-5.6L667.1,228.2z M671.9,218l-36.7,17.7l6,6l7.5-3.9l8.8,8.9l-4,7.5l6.4,6.4
	l17.9-36.6L671.9,218z M187.5,232.1l-18.2,22.1l5.7,4.7l6.5-7.8l24,19.8l5.3-6.4l-24-19.8l6.5-7.8L187.5,232.1z M699.9,249l-31,22.8
	l13.8,18.8l5.9-4.4l-8.9-12.2l25.1-18.4L699.9,249z M716.8,273l-32.6,20.6l4.4,7l32.6-20.6L716.8,273z M167.8,262.9l-1.7,0.2
	c-1.1,0.2-2.2,0.7-3.2,1.4c-1,0.7-1.9,1.6-2.7,2.8l-4.9,7.3c-0.8,1.2-1.3,2.3-1.5,3.5c-0.2,1.2-0.2,2.4,0,3.5
	c0.2,1.1,0.7,2.2,1.4,3.2c0.7,1,1.6,1.9,2.8,2.7l3.4,2.3c1.2,0.8,2.3,1.3,3.5,1.5c1.2,0.2,2.4,0.2,3.5,0c1.1-0.2,2.2-0.7,3.2-1.4
	c1-0.7,1.9-1.6,2.7-2.8l4.2-6.4c0.4-0.6,0.9-1,1.6-1.1c0.6-0.1,1.3,0,1.9,0.4l2.8,1.8c0.6,0.4,1,0.9,1.1,1.6c0.1,0.6,0,1.3-0.4,1.9
	l-3.8,5.7c-0.4,0.6-0.9,1-1.6,1.1c-0.6,0.1-1.3,0-1.9-0.4l-1.6-1l-4.5,6.9l2,1.3c1.2,0.8,2.3,1.3,3.5,1.5c1.2,0.2,2.4,0.2,3.5,0
	c1.1-0.2,2.2-0.7,3.2-1.4c1-0.7,1.9-1.6,2.7-2.8l5.3-8c0.8-1.2,1.3-2.3,1.5-3.5s0.2-2.4,0-3.5c-0.2-1.1-0.7-2.2-1.4-3.2
	s-1.6-1.9-2.8-2.7l-3.6-2.4c-1.2-0.8-2.3-1.3-3.5-1.5c-1.2-0.2-2.4-0.2-3.5,0c-1.1,0.2-2.2,0.7-3.2,1.4c-1,0.7-1.9,1.6-2.7,2.8
	l-4.2,6.4c-0.4,0.6-0.9,1-1.6,1.1c-0.6,0.1-1.3,0-1.9-0.4l-2.6-1.7c-0.6-0.4-1-0.9-1.1-1.6c-0.1-0.6,0-1.3,0.4-1.9l3.3-5
	c0.4-0.6,0.9-1,1.6-1.1c0.6-0.1,1.3,0,1.9,0.4l1.6,1l4.5-6.9l-2-1.3c-1.2-0.8-2.3-1.3-3.5-1.5L167.8,262.9z M136.9,287.5l-3.4,6.7
	l1.7,3.5l-3.8,0.7l-3.4,6.7l8.8-1.3l4.2-8.2L136.9,287.5z M721.4,290.5c-1.2,0.1-2.4,0.5-3.7,1.1l-17.6,9.1
	c-1.2,0.6-2.3,1.4-3.1,2.4c-0.8,0.9-1.4,2-1.7,3.1c-0.4,1.1-0.5,2.3-0.4,3.5c0.1,1.2,0.5,2.4,1.1,3.7l4.4,8.5
	c0.6,1.2,1.4,2.3,2.4,3.1c0.9,0.8,2,1.4,3.1,1.7c1.1,0.4,2.3,0.5,3.5,0.4c1.2-0.1,2.4-0.5,3.7-1.1l9.7-5l-7-13.4l-6.5,3.4l3.2,6.1
	l-2.7,1.4c-0.7,0.3-1.3,0.4-1.9,0.2c-0.6-0.2-1.1-0.6-1.4-1.3l-3.2-6.1c-0.3-0.7-0.4-1.3-0.2-1.9c0.2-0.6,0.6-1.1,1.3-1.4l16.7-8.7
	c0.7-0.3,1.3-0.4,1.9-0.2c0.6,0.2,1.1,0.6,1.4,1.3l3.2,6.1c0.3,0.7,0.4,1.3,0.2,1.9c-0.2,0.6-0.6,1.1-1.3,1.4l-1.7,0.9l3.8,7.3
	l2.1-1.1c1.2-0.6,2.3-1.4,3.1-2.4c0.8-0.9,1.4-2,1.7-3.1c0.4-1.1,0.5-2.3,0.4-3.5c-0.1-1.2-0.5-2.4-1.1-3.7l-4.4-8.5
	c-0.6-1.2-1.4-2.3-2.4-3.1c-0.9-0.8-2-1.4-3.1-1.7l-1.7-0.4L721.4,290.5z M145.9,289.8l-11.2,21.8l34.2,17.6l11.4-22.3l-6.6-3.4
	l-7.7,14.9l-7.4-3.8l6.9-13.5l-6.6-3.4l-6.9,13.5l-7.2-3.7l7.4-14.4L145.9,289.8z M738,338.4l0.1,0.2l-10.3,8l-2.8-7.4L738,338.4z
	 M746.6,331.1l-40.7,1.1l3,7.9l8.4-0.5l4.4,11.7l-6.7,5.2l3.2,8.4l31.4-26L746.6,331.1z M130.3,320.9l-2.7,7.5l17.3,16.4l-0.1,0.2
	l-23.7,1.3l-2.9,8l36.2,13.2l2.8-7.7l-19.7-7.2l0.1-0.3l22.8-1.4l0.1-0.3l-16.6-15.7l0.1-0.3l19.7,7.2l2.8-7.7L130.3,320.9z
	 M123.3,407.8c-19.3,0-35,15.7-35,35c0,19.3,15.7,35,35,35s35-15.7,35-35C158.3,423.5,142.7,407.8,123.3,407.8L123.3,407.8z
	 M748.2,408.3c-19.3,0-35,15.7-35,35c0,19.3,15.7,35,35,35c19.3,0,35-15.7,35-35C783.2,424,767.5,408.3,748.2,408.3L748.2,408.3z
	 M436.1,206.7c-129.8,0-235,105.2-235,235c0,129.8,105.2,235,235,235c129.8,0,235-105.2,235-235S565.9,206.7,436.1,206.7
	L436.1,206.7z M218.3,653.2c-1.5,0-3,0.4-4.5,1c-1.5,0.7-2.8,1.6-4.1,3l-3.7,3.9c-1.3,1.3-2.2,2.7-2.8,4.2c-0.6,1.5-0.9,3-0.9,4.5
	c0,1.5,0.4,3,1,4.5c0.7,1.5,1.6,2.8,3,4.1l7.3,7c0.7,0.7,1,1.4,1.1,2.3s-0.3,1.6-1,2.3l-3,3.2c-0.7,0.7-1.4,1-2.3,1.1
	c-0.8,0-1.6-0.3-2.3-1l-6.5-6.2c-0.7-0.7-1-1.4-1.1-2.3c0-0.8,0.3-1.6,1-2.3l1.7-1.8l-7.8-7.5l-2.1,2.2c-1.3,1.3-2.2,2.7-2.8,4.2
	c-0.6,1.5-0.9,3-0.9,4.5c0,1.5,0.4,3,1,4.5c0.7,1.5,1.6,2.8,3,4.1l9.1,8.7c1.3,1.3,2.7,2.2,4.2,2.8c1.5,0.6,3,0.9,4.5,0.9
	c1.5,0,3-0.4,4.5-1s2.8-1.6,4.1-3l3.9-4.1c1.3-1.3,2.2-2.7,2.8-4.2c0.6-1.5,0.9-3,0.9-4.5c0-1.5-0.4-3-1-4.5c-0.7-1.5-1.6-2.8-3-4.1
	l-7.3-7c-0.7-0.7-1-1.4-1.1-2.3c0-0.8,0.3-1.6,1-2.3l2.8-3c0.7-0.7,1.4-1,2.3-1.1c0.8,0,1.6,0.3,2.3,1l5.7,5.5
	c0.7,0.7,1,1.4,1.1,2.3c0,0.8-0.3,1.6-1,2.3l-1.7,1.8l7.8,7.5l2.1-2.2c1.3-1.3,2.2-2.7,2.8-4.2c0.6-1.5,0.9-3,0.9-4.5
	c0-1.5-0.4-3-1-4.5c-0.7-1.5-1.6-2.8-3-4.1l-8.3-8c-1.3-1.3-2.7-2.2-4.2-2.8C221.3,653.5,219.8,653.2,218.3,653.2z M643.3,677.9
	l14.6,8.8l-7.7,6.9l-7.1-15.5L643.3,677.9z M638.3,663.8l-8.2,7.4l20.7,49.1l8.3-7.4l-4.7-10l12.2-10.9l9.5,5.7l8.8-7.9L638.3,663.8
	z M554.7,705.7l-11,4.4l-2.1,11.1l8.5-3.4L554.7,705.7z M252.1,679.9l-5.5,7.9l10.9,7.6l-23.3,33.5l8.9,6.2l23.3-33.5l10.9,7.6
	l5.5-7.9L252.1,679.9z M609.6,687.9l-9.2,5.7l15.7,25.3l-0.2,0.2l-29.8-16.5l-9.2,5.7l26.6,42.8l9.2-5.7L597,720.1l0.2-0.2
	l29.8,16.5l9.2-5.7L609.6,687.9z M297.7,720l10.4,5c0.9,0.4,1.4,1,1.7,1.8c0.3,0.8,0.2,1.6-0.2,2.5l-2.9,6c-0.4,0.9-1,1.4-1.8,1.7
	c-0.8,0.3-1.6,0.2-2.5-0.2l-10.4-5L297.7,720z M292.1,706.6l-22,45.4l9.7,4.7l7.8-16.2l4.9,2.4l0.6,20.3l11,5.3l-0.6-20.9
	c2.6,0.4,5,0,7.2-1.2c2.2-1.2,4-3.1,5.3-5.7l3.4-7.1c0.8-1.6,1.2-3.3,1.4-4.9c0.1-1.6-0.1-3.1-0.6-4.6c-0.5-1.4-1.3-2.8-2.4-3.9
	c-1.1-1.2-2.4-2.2-4.1-3L292.1,706.6z M556.4,728.4c0.7,0,0.3,0,1,0l0.6,0.2c0.8,0.3,1.3,0.9,1.7,1.8l9.2,22.9
	c0.4,0.9,0.4,1.7,0,2.5s-0.9,1.3-1.8,1.7l-9.7,3.9c-0.9,0.4-1.7,0.4-2.5,0c-0.8-0.3-1.3-0.9-1.7-1.8l-9.2-22.9
	c-0.4-0.9-0.4-1.7,0-2.5c0.3-0.8,0.9-1.3,1.8-1.7l9.7-3.9C555.7,728.5,556,728.4,556.4,728.4z M558.5,717.9c-1.6,0-3.3,0.3-4.9,1
	l-13,5.2c-1.7,0.7-3.1,1.6-4.3,2.7c-1.2,1.1-2,2.4-2.6,3.8c-0.6,1.4-0.9,2.9-0.9,4.5c0,1.6,0.3,3.3,1,4.9l9.7,24.1
	c0.7,1.7,1.6,3.1,2.7,4.3c1.1,1.2,2.4,2,3.8,2.6c1.4,0.6,2.9,0.9,4.5,0.9c1.6,0,3.3-0.3,4.9-1l13-5.2c1.7-0.7,3.1-1.6,4.3-2.7
	c1.2-1.1,2-2.4,2.6-3.8s0.9-2.9,0.9-4.5c0-1.6-0.3-3.3-1-4.9l-9.7-24.1c-0.7-1.7-1.6-3.1-2.7-4.3c-1.1-1.2-2.4-2-3.8-2.6
	C561.6,718.3,560.1,718,558.5,717.9z M338.4,727l-15.9,47.8l10.3,3.4l15.9-47.8L338.4,727z M517.3,732.2l-33.8,7.3l2,9.4l20.8-4.5
	l0.1,0.3l-14.2,34.6l2,9.4l33.8-7.3l-2-9.4l-20.8,4.5l-0.1-0.3l14.3-34.6L517.3,732.2z M363.4,735.1l-9.3,49.5l10.6,2l2.6-13.6
	l6-5.2l9.2,22.2l12.7,2.4l-13.2-32.1l20.2-17.9l-11.7-2.2l-19.9,18.2l-0.4-0.1l4-21.2L363.4,735.1z M413,743.5l-0.1,50.4l32.8,0
	l0-9.6l-22,0l0-10.9l19.8,0l0-9.6l-19.8,0l0-10.6l21.2,0l0-9.6L413,743.5z M434.4,52.9c215.4,0,390,174.6,390,390
	s-174.6,390-390,390s-390-174.6-390-390S219,52.9,434.4,52.9L434.4,52.9z"/>
<ellipse transform="matrix(0.1602 -0.9871 0.9871 0.1602 -333.5489 493.7792)" class="st0" cx="123.4" cy="442.9" rx="27.5" ry="27.5"/>
<circle class="st0" cx="748.3" cy="443.4" r="27.5"/>
<path class="st1" d="M294.8,484.3c-2.4,1.1-4.5,1.7-6.3,1.9c-1.8,0.1-3.2-0.2-4.2-1c-1-0.8-1.7-2-2-3.6c-0.3-1.6-0.1-3.7,0.6-6.1
	l1.9-7.3c0.7-2.5,1.6-4.9,3-7.2c1.3-2.4,2.9-4.6,4.7-6.7c1.8-2.1,3.8-4,6-5.8c2.2-1.7,4.5-3.2,6.9-4.3l15.3-7.1
	c2.4-1.1,4.5-1.7,6.3-1.9c1.8-0.1,3.2,0.2,4.2,1c1,0.8,1.7,2,2,3.6c0.3,1.6,0.1,3.7-0.6,6.1l-1.1,4.2l-14.3,6.7l0.9-3.3
	c0.3-1.3,0.2-2.2-0.4-2.6c-0.6-0.4-1.5-0.4-2.8,0.2l-10.5,4.9c-1.3,0.6-2.4,1.5-3.4,2.7c-1,1.2-1.7,2.4-2,3.7l-1.5,5.5
	c-0.3,1.3-0.2,2.2,0.4,2.6c0.6,0.4,1.5,0.4,2.8-0.2L314,464c2.4-1.1,4.5-1.7,6.3-1.9c1.8-0.1,3.2,0.2,4.2,1s1.7,2,2,3.6
	c0.3,1.6,0.1,3.7-0.6,6.1l-2,7.7c-0.7,2.5-1.6,4.9-3,7.2c-1.3,2.4-2.9,4.6-4.7,6.7c-1.8,2.1-3.8,4-6,5.8c-2.2,1.7-4.5,3.2-6.9,4.3
	l-16.7,7.8c-2.4,1.1-4.5,1.7-6.3,1.9c-1.8,0.1-3.2-0.2-4.2-1c-1-0.8-1.7-2-2-3.6c-0.3-1.6-0.1-3.7,0.6-6.1l1.1-4.2l14.3-6.7
	l-0.9,3.3c-0.3,1.3-0.2,2.2,0.4,2.6c0.6,0.4,1.5,0.4,2.8-0.2l11.9-5.6c1.3-0.6,2.4-1.5,3.4-2.7c1-1.2,1.7-2.4,2-3.7l1.6-5.9
	c0.3-1.3,0.2-2.2-0.4-2.6c-0.6-0.4-1.5-0.4-2.8,0.2L294.8,484.3z"/>
<polygon class="st1" points="355.5,432.1 337.9,440.4 341.3,427.4 391,404.2 387.5,417.2 369.9,425.5 355.2,480.3 340.9,487 "/>
<path class="st1" d="M401.9,426l15.3-7.1c1.3-0.6,2.4-1.5,3.4-2.7c1-1.2,1.7-2.4,2-3.7l2.4-8.9c0.3-1.3,0.2-2.2-0.4-2.6
	c-0.6-0.4-1.5-0.4-2.8,0.2l-15.3,7.1L401.9,426z M405.7,435.6l-7.3,3.4l-6.5,24.2l-14.3,6.7l18.1-67.8l32-14.9
	c2.4-1.1,4.5-1.7,6.3-1.9c1.8-0.1,3.2,0.2,4.2,1c1,0.8,1.7,2,2,3.6c0.3,1.6,0.1,3.7-0.6,6.1l-2.8,10.7c-1.1,3.9-2.9,7.7-5.6,11.4
	c-2.7,3.7-5.8,6.8-9.4,9.4l6.1,19l-16.1,7.5L405.7,435.6z"/>
<polygon class="st1" points="447.8,437.1 433.5,443.8 451.6,376 465.9,369.3 "/>
<polygon class="st1" points="512.6,406.9 495.5,414.9 485.4,396 476.6,407.4 471.7,426 457.4,432.7 475.5,364.9 489.8,358.2 
	482,387.3 482.5,387 511.7,347.9 527.6,340.6 498,379.5 "/>
<polygon class="st1" points="573.5,330.5 545.4,343.6 541.6,357.9 567.8,345.6 564.4,358.6 538.1,370.8 534.2,385.5 563.3,371.9 
	559.9,384.9 516.4,405.1 534.5,337.3 577,317.5 "/>
<polygon class="st1" points="340.3,510.4 343.8,497.4 389.6,476.1 386.1,489 346.8,543.7 346.7,544.1 375,530.9 371.5,543.9 
	325.7,565.3 329.2,552.3 368.4,497.7 368.5,497.3 "/>
<path class="st1" d="M415.1,512.2c1.3-0.6,2.4-1.5,3.4-2.7c1-1.2,1.7-2.4,2-3.7l8.8-33.1c0.3-1.3,0.2-2.2-0.4-2.6s-1.5-0.4-2.8,0.2
	l-13.8,6.5c-1.3,0.6-2.4,1.5-3.4,2.7c-1,1.2-1.7,2.4-2,3.7l-8.8,33.1c-0.3,1.3-0.2,2.2,0.4,2.6c0.6,0.4,1.5,0.4,2.8-0.2L415.1,512.2
	z M395.4,532.8c-2.4,1.1-4.5,1.7-6.3,1.9c-1.8,0.1-3.2-0.2-4.2-1c-1-0.8-1.7-2-2-3.6c-0.3-1.6-0.1-3.7,0.6-6.1l9.3-34.9
	c0.7-2.5,1.6-4.9,3-7.2c1.3-2.4,2.9-4.6,4.7-6.7c1.8-2.1,3.8-4,6-5.8c2.2-1.7,4.5-3.2,6.9-4.3l18.6-8.7c2.4-1.1,4.5-1.7,6.3-1.9
	c1.8-0.1,3.2,0.2,4.2,1c1,0.8,1.7,2,2,3.6c0.3,1.6,0.1,3.7-0.6,6.1l-9.3,34.9c-0.7,2.5-1.6,4.9-3,7.2c-1.3,2.4-2.9,4.6-4.7,6.7
	c-1.8,2.1-3.8,4-6,5.8c-2.2,1.7-4.5,3.2-6.9,4.3L395.4,532.8z"/>
<polygon class="st1" points="439.8,512.1 457.9,444.2 472.2,437.6 483.6,467.3 483.9,467.1 494.6,427.1 508.9,420.4 490.8,488.3 
	476.5,494.9 465.1,465.2 464.8,465.4 454.1,505.4 "/>
<polygon class="st1" points="557.5,409.2 529.3,422.3 525.5,436.5 551.8,424.3 548.3,437.3 522.1,449.5 518.2,464.1 547.3,450.6 
	543.8,463.6 500.4,483.8 518.5,416 560.9,396.2 "/>
</svg>
