<?xml version="1.0" encoding="utf-8"?>
<!-- Generator: Adobe Illustrator 22.0.0, SVG Export Plug-In . SVG Version: 6.00 Build 0)  -->
<svg version="1.1" id="Layer_1" xmlns="http://www.w3.org/2000/svg" xmlns:xlink="http://www.w3.org/1999/xlink" x="0px" y="0px"
	 viewBox="0 0 900 900" style="enable-background:new 0 0 900 900;" xml:space="preserve">
<style type="text/css">
	.st0{fill:#07C632;}
	.st1{fill:#012354;}
</style>
<path class="st0" d="M459.7,130.4l8.2,0.7c0.7,0.1,1.3,0.3,1.7,0.8c0.4,0.5,0.6,1.1,0.5,1.8l-0.5,5.6c-0.1,0.7-0.3,1.3-0.8,1.7
	c-0.5,0.4-1.1,0.6-1.8,0.5l-8.2-0.7L459.7,130.4z M452,122.4l-3.1,38.4l8.2,0.7l1.1-13.2l9.6,0.8c1.4,0.1,2.7,0,3.8-0.4
	c1.2-0.4,2.2-0.9,3.1-1.7c0.9-0.8,1.6-1.7,2.2-2.8c0.5-1.1,0.9-2.3,1-3.7l0.5-6.6c0.1-1.4,0-2.7-0.4-3.8c-0.4-1.2-0.9-2.2-1.7-3.1
	c-0.8-0.9-1.7-1.6-2.8-2.2c-1.1-0.5-2.3-0.9-3.7-1L452,122.4z M444.8,121.5l-7.9,0.4l-4.9,25.8l-0.2,0l-7.3-25.2l-8.5,0.4l-4.9,25.8
	l-0.2,0l-7.3-25.2L395,124l12.1,38l8.5-0.4l4.9-25.8l0.2,0l7.3,25.2l8.5-0.4L444.8,121.5z M485.2,125.8l-5.9,38l8.2,1.3l5.9-38
	L485.2,125.8z M378.8,134.7c1.1,0.2,0.7,0,1.4,0.4c0.5,0.4,0.9,0.9,1,1.6l3.5,18.5c0.1,0.7,0,1.3-0.3,1.9c-0.4,0.5-0.9,0.9-1.6,1
	l-7.8,1.5c-0.7,0.1-1.3,0-1.9-0.3c-0.5-0.4-0.9-0.9-1-1.6l-3.5-18.5c-0.1-0.7,0-1.3,0.3-1.9c0.4-0.5,0.9-0.9,1.6-1l7.8-1.5
	L378.8,134.7z M379.7,127.1c-0.5,0-1,0.1-1.4,0.2l-10.5,2c-1.4,0.3-2.6,0.7-3.6,1.4c-1,0.7-1.9,1.5-2.5,2.4c-0.7,1-1.1,2-1.3,3.3
	c-0.2,1.2-0.2,2.5,0,3.9l3.7,19.4c0.3,1.4,0.7,2.6,1.4,3.6c0.7,1,1.5,1.9,2.4,2.5c1,0.7,2,1.1,3.3,1.3c1.2,0.2,2.5,0.2,3.9,0l10.5-2
	c1.4-0.3,2.6-0.7,3.6-1.4c1-0.7,1.9-1.5,2.5-2.4c0.7-1,1.1-2,1.3-3.3c0.2-1.2,0.2-2.5,0-3.9l-3.7-19.4c-0.3-1.4-0.7-2.6-1.4-3.6
	c-0.7-1-1.5-1.9-2.4-2.5c-1-0.7-2-1.1-3.3-1.3l-0.9-0.1C380.2,127.1,380.7,127.1,379.7,127.1L379.7,127.1z M498.8,127.7l-1.6,7.2
	l9.9,2.3l-7,30.3l8,1.8l7-30.3l9.9,2.3l1.6-7.2L498.8,127.7z M265.7,158l-7.8,4.7l-0.2,8.6l6-3.6L265.7,158z M337,137.2l-7.9,2.4
	l11.1,36.9l22.4-6.7l-2.1-7.1L346,167L337,137.2z M538.3,138.5c-1.2,0.1-2.4,0.4-3.4,0.9c-1,0.5-2,1.2-2.8,2.2
	c-0.8,0.9-1.4,2-1.9,3.4l-6.4,18.7c-0.5,1.3-0.6,2.6-0.6,3.8c0.1,1.2,0.4,2.4,0.9,3.4c0.5,1,1.2,2,2.2,2.8c0.9,0.8,2,1.4,3.4,1.9
	l9.1,3.1c1.3,0.5,2.6,0.6,3.8,0.6c1.2-0.1,2.4-0.4,3.4-0.9c1-0.5,2-1.2,2.8-2.2s1.4-2,1.9-3.4l0.8-2.2l-7.8-2.7l-0.6,1.8
	c-0.2,0.7-0.6,1.2-1.2,1.5c-0.6,0.3-1.2,0.3-1.9,0.1l-6.5-2.2c-0.7-0.2-1.2-0.6-1.5-1.2c-0.3-0.6-0.3-1.2-0.1-1.9l6.1-17.8
	c0.2-0.7,0.6-1.2,1.2-1.5s1.2-0.3,1.9-0.1l6.5,2.2c0.7,0.2,1.2,0.6,1.5,1.2c0.3,0.6,0.3,1.2,0.1,1.9l-0.6,1.8l7.8,2.7l0.8-2.2
	c0.5-1.3,0.6-2.6,0.6-3.8c-0.1-1.2-0.4-2.4-0.9-3.4c-0.5-1-1.2-2-2.2-2.8c-0.9-0.8-2-1.4-3.4-1.9l-9.1-3.1
	C540.8,138.6,539.5,138.4,538.3,138.5L538.3,138.5z M315.6,145.2c-1.2,0-2.5,0.3-3.8,0.8l-8.1,3.4c-1.3,0.5-2.4,1.2-3.2,2.1
	c-0.9,0.9-1.5,1.8-2,2.9c-0.4,1.1-0.7,2.2-0.7,3.5c0,1.2,0.3,2.5,0.8,3.8l1.6,3.8c0.5,1.3,1.2,2.4,2.1,3.2c0.9,0.9,1.8,1.5,2.9,2
	c1.1,0.4,2.2,0.7,3.5,0.7c1.2,0,2.5-0.3,3.8-0.8l7.1-2.9c0.7-0.3,1.3-0.3,1.9,0c0.6,0.2,1,0.7,1.3,1.4l1.3,3.1
	c0.3,0.7,0.3,1.3,0,1.9c-0.2,0.6-0.7,1-1.4,1.3l-6.4,2.6c-0.7,0.3-1.3,0.3-1.9,0c-0.6-0.2-1-0.7-1.3-1.4l-0.7-1.7l-7.6,3.1l0.9,2.2
	c0.5,1.3,1.2,2.4,2.1,3.2c0.9,0.9,1.8,1.5,2.9,2c1.1,0.4,2.2,0.7,3.5,0.7c1.2,0,2.5-0.3,3.8-0.8l8.9-3.7c1.3-0.5,2.4-1.2,3.2-2.1
	c0.9-0.9,1.5-1.8,2-2.9c0.4-1.1,0.7-2.2,0.7-3.5c0-1.2-0.3-2.5-0.8-3.8l-1.7-4c-0.5-1.3-1.2-2.4-2.1-3.2c-0.9-0.9-1.8-1.5-2.9-2
	c-1.1-0.4-2.2-0.7-3.5-0.7c-1.2,0-2.5,0.3-3.8,0.8l-7.1,2.9c-0.7,0.3-1.3,0.3-1.9,0c-0.6-0.2-1-0.7-1.3-1.4l-1.2-2.9
	c-0.3-0.7-0.3-1.3,0-1.9c0.2-0.6,0.7-1,1.4-1.3l5.6-2.3c0.7-0.3,1.3-0.3,1.9,0c0.6,0.2,1,0.7,1.3,1.4l0.7,1.7l7.6-3.1l-0.9-2.2
	c-0.5-1.3-1.2-2.4-2.1-3.2c-0.9-0.9-1.8-1.5-2.9-2C318,145.4,316.9,145.2,315.6,145.2L315.6,145.2z M568.1,148.5l-16.5,34.8l7.5,3.5
	l6.7-14.2l11.7,5.5l-6.7,14.2l7.5,3.5l16.5-34.8l-7.5-3.5l-6.6,14l-11.7-5.5l6.6-14L568.1,148.5z M607.8,177.5l0.9,0.4l6.7,4.3
	c0.6,0.4,1,0.9,1.1,1.5c0.1,0.6,0,1.3-0.4,1.9l-10,15.9c-0.4,0.6-0.9,1-1.5,1.1c-0.6,0.1-1.3,0-1.9-0.4l-6.7-4.3
	c-0.6-0.4-1-0.9-1.1-1.5c-0.1-0.6,0-1.3,0.4-1.9l10-15.9c0.4-0.6,0.9-1,1.5-1.1L607.8,177.5z M606.2,169.4l-1.7,0.2
	c-1.1,0.3-2.2,0.7-3.2,1.5c-1,0.7-1.9,1.7-2.6,2.8l-10.6,16.7c-0.7,1.2-1.2,2.4-1.4,3.6c-0.2,1.2-0.2,2.4,0.1,3.5
	c0.3,1.1,0.7,2.2,1.5,3.2c0.7,1,1.7,1.9,2.8,2.6l9.1,5.7c1.2,0.7,2.4,1.2,3.6,1.4c1.2,0.2,2.4,0.2,3.5-0.1c1.1-0.3,2.2-0.7,3.2-1.5
	c1-0.7,1.9-1.7,2.6-2.8l10.6-16.7c0.7-1.2,1.2-2.4,1.4-3.6c0.2-1.2,0.2-2.4-0.1-3.5c-0.3-1.1-0.7-2.2-1.5-3.2
	c-0.7-1-1.7-1.9-2.8-2.6l-9.1-5.7c-1.2-0.7-2.4-1.2-3.6-1.4L606.2,169.4z M681.9,215.2l-8.4,1.8l4.9,5l9.9-0.4L681.9,215.2z
	 M633.9,185.4l-13.7,38.3l5.5,4.4l34.5-21.7l-6.6-5.3l-22.3,15l-0.2-0.1l9.9-25L633.9,185.4z M267.3,180.1l9.7,8.6l-6.8,4.1
	l-3.1-12.6L267.3,180.1z M265.6,168.7l-7.2,4.4l8.4,38.8l-24-8.3l0-20.6l-7.2,5.6l0.4,20.6l-0.2,0.2l-10.2-13l-6.5,5.1l23.7,30.4
	l6.5-5.1l-6.5-8.3l0-6.1l17.3,5.9l7.1-5.6l7-4.2l-2.1-8.2l10.7-6.5l6.3,5.6l7.7-4.7L265.6,168.7z M211.8,211.5
	c-1.2,0-2.3,0.2-3.4,0.7c-1.1,0.5-2.2,1.2-3.2,2.2l-6.3,6.2c-1,1-1.7,2-2.2,3.1c-0.5,1.1-0.7,2.3-0.8,3.4c0,1.2,0.2,2.3,0.7,3.4
	c0.5,1.1,1.2,2.2,2.2,3.2l2.9,2.9c1,1,2,1.7,3.1,2.2c1.1,0.5,2.3,0.7,3.4,0.8c1.2,0,2.3-0.2,3.4-0.7c1.1-0.5,2.2-1.2,3.2-2.2
	l5.5-5.4c0.5-0.5,1.1-0.8,1.8-0.8c0.6,0,1.2,0.3,1.7,0.8l2.3,2.4c0.5,0.5,0.8,1.1,0.8,1.8c0,0.6-0.3,1.2-0.8,1.7l-4.9,4.8
	c-0.5,0.5-1.1,0.8-1.8,0.8c-0.6,0-1.2-0.3-1.7-0.8l-1.3-1.3l-5.9,5.8l1.7,1.7c1,1,2,1.7,3.1,2.2c1.1,0.5,2.3,0.7,3.4,0.8
	c1.2,0,2.3-0.2,3.4-0.7s2.2-1.2,3.2-2.2l6.9-6.7c1-1,1.7-2,2.2-3.1s0.7-2.3,0.8-3.4c0-1.2-0.2-2.3-0.7-3.4c-0.5-1.1-1.2-2.2-2.2-3.2
	l-3-3.1c-1-1-2-1.7-3.1-2.2c-1.1-0.5-2.3-0.7-3.4-0.8c-1.2,0-2.3,0.2-3.4,0.7c-1.1,0.5-2.2,1.2-3.2,2.2l-5.5,5.4
	c-0.5,0.5-1.1,0.8-1.8,0.8c-0.6,0-1.2-0.3-1.7-0.8l-2.2-2.2c-0.5-0.5-0.8-1.1-0.8-1.8c0-0.6,0.3-1.2,0.8-1.7l4.3-4.2
	c0.5-0.5,1.1-0.8,1.8-0.8c0.6,0,1.2,0.3,1.7,0.8l1.3,1.3l5.9-5.8l-1.7-1.7c-1-1-2-1.7-3.1-2.2C214.1,211.8,213,211.5,211.8,211.5
	L211.8,211.5z M667.1,228.2l0.2,0.2l-6.1,11.5l-5.6-5.6L667.1,228.2z M671.9,218l-36.7,17.7l6,6l7.5-3.9l8.8,8.9l-4,7.5l6.4,6.4
	l17.9-36.6L671.9,218z M187.5,232.1l-18.2,22.1l5.7,4.7l6.5-7.8l24,19.8l5.3-6.4l-24-19.8l6.5-7.8L187.5,232.1z M699.9,249l-31,22.8
	l13.8,18.8l5.9-4.4l-8.9-12.2l25.1-18.4L699.9,249z M716.8,273l-32.6,20.6l4.4,7l32.6-20.6L716.8,273z M167.8,262.9l-1.7,0.2
	c-1.1,0.2-2.2,0.7-3.2,1.4c-1,0.7-1.9,1.6-2.7,2.8l-4.9,7.3c-0.8,1.2-1.3,2.3-1.5,3.5c-0.2,1.2-0.2,2.4,0,3.5
	c0.2,1.1,0.7,2.2,1.4,3.2c0.7,1,1.6,1.9,2.8,2.7l3.4,2.3c1.2,0.8,2.3,1.3,3.5,1.5c1.2,0.2,2.4,0.2,3.5,0c1.1-0.2,2.2-0.7,3.2-1.4
	c1-0.7,1.9-1.6,2.7-2.8l4.2-6.4c0.4-0.6,0.9-1,1.6-1.1c0.6-0.1,1.3,0,1.9,0.4l2.8,1.8c0.6,0.4,1,0.9,1.1,1.6c0.1,0.6,0,1.3-0.4,1.9
	l-3.8,5.7c-0.4,0.6-0.9,1-1.6,1.1c-0.6,0.1-1.3,0-1.9-0.4l-1.6-1l-4.5,6.9l2,1.3c1.2,0.8,2.3,1.3,3.5,1.5c1.2,0.2,2.4,0.2,3.5,0
	c1.1-0.2,2.2-0.7,3.2-1.4c1-0.7,1.9-1.6,2.7-2.8l5.3-8c0.8-1.2,1.3-2.3,1.5-3.5s0.2-2.4,0-3.5c-0.2-1.1-0.7-2.2-1.4-3.2
	s-1.6-1.9-2.8-2.7l-3.6-2.4c-1.2-0.8-2.3-1.3-3.5-1.5c-1.2-0.2-2.4-0.2-3.5,0c-1.1,0.2-2.2,0.7-3.2,1.4c-1,0.7-1.9,1.6-2.7,2.8
	l-4.2,6.4c-0.4,0.6-0.9,1-1.6,1.1c-0.6,0.1-1.3,0-1.9-0.4l-2.6-1.7c-0.6-0.4-1-0.9-1.1-1.6c-0.1-0.6,0-1.3,0.4-1.9l3.3-5
	c0.4-0.6,0.9-1,1.6-1.1c0.6-0.1,1.3,0,1.9,0.4l1.6,1l4.5-6.9l-2-1.3c-1.2-0.8-2.3-1.3-3.5-1.5L167.8,262.9z M136.9,287.5l-3.4,6.7
	l1.7,3.5l-3.8,0.7l-3.4,6.7l8.8-1.3l4.2-8.2L136.9,287.5z M721.4,290.5c-1.2,0.1-2.4,0.5-3.7,1.1l-17.6,9.1
	c-1.2,0.6-2.3,1.4-3.1,2.4c-0.8,0.9-1.4,2-1.7,3.1c-0.4,1.1-0.5,2.3-0.4,3.5c0.1,1.2,0.5,2.4,1.1,3.7l4.4,8.5
	c0.6,1.2,1.4,2.3,2.4,3.1c0.9,0.8,2,1.4,3.1,1.7c1.1,0.4,2.3,0.5,3.5,0.4c1.2-0.1,2.4-0.5,3.7-1.1l9.7-5l-7-13.4l-6.5,3.4l3.2,6.1
	l-2.7,1.4c-0.7,0.3-1.3,0.4-1.9,0.2c-0.6-0.2-1.1-0.6-1.4-1.3l-3.2-6.1c-0.3-0.7-0.4-1.3-0.2-1.9c0.2-0.6,0.6-1.1,1.3-1.4l16.7-8.7
	c0.7-0.3,1.3-0.4,1.9-0.2c0.6,0.2,1.1,0.6,1.4,1.3l3.2,6.1c0.3,0.7,0.4,1.3,0.2,1.9c-0.2,0.6-0.6,1.1-1.3,1.4l-1.7,0.9l3.8,7.3
	l2.1-1.1c1.2-0.6,2.3-1.4,3.1-2.4c0.8-0.9,1.4-2,1.7-3.1c0.4-1.1,0.5-2.3,0.4-3.5c-0.1-1.2-0.5-2.4-1.1-3.7l-4.4-8.5
	c-0.6-1.2-1.4-2.3-2.4-3.1c-0.9-0.8-2-1.4-3.1-1.7l-1.7-0.4L721.4,290.5z M145.9,289.8l-11.2,21.8l34.2,17.6l11.4-22.3l-6.6-3.4
	l-7.7,14.9l-7.4-3.8l6.9-13.5l-6.6-3.4l-6.9,13.5l-7.2-3.7l7.4-14.4L145.9,289.8z M738,338.4l0.1,0.2l-10.3,8l-2.8-7.4L738,338.4z
	 M746.6,331.1l-40.7,1.1l3,7.9l8.4-0.5l4.4,11.7l-6.7,5.2l3.2,8.4l31.4-26L746.6,331.1z M130.3,320.9l-2.7,7.5l17.3,16.4l-0.1,0.2
	l-23.7,1.3l-2.9,8l36.2,13.2l2.8-7.7l-19.7-7.2l0.1-0.3l22.8-1.4l0.1-0.3l-16.6-15.7l0.1-0.3l19.7,7.2l2.8-7.7L130.3,320.9z
	 M123.3,407.8c-19.3,0-35,15.7-35,35c0,19.3,15.7,35,35,35s35-15.7,35-35C158.3,423.5,142.7,407.8,123.3,407.8L123.3,407.8z
	 M748.2,408.3c-19.3,0-35,15.7-35,35c0,19.3,15.7,35,35,35c19.3,0,35-15.7,35-35C783.2,424,767.5,408.3,748.2,408.3L748.2,408.3z
	 M436.1,206.7c-129.8,0-235,105.2-235,235c0,129.8,105.2,235,235,235c129.8,0,235-105.2,235-235S565.9,206.7,436.1,206.7
	L436.1,206.7z M646.2,657.3l-8.5,7.2l4,21.2l-0.2,0.2l-19.8-7.7l-9.2,7.8l31.3,11.5l13.9,16.3l8.2-7L652,690.5L646.2,657.3z
	 M229.5,660.3l-19,49.8l7.1,5.9l45.6-27.5l-8.5-7.1l-29.6,19.1l-0.2-0.2l13.6-32.4L229.5,660.3z M475.2,728.6l-11.8,1l-5.2,10
	l9.1-0.8L475.2,728.6z M602.1,694.4l-1.2,0.1c-1.6,0.3-3.2,0.9-4.7,1.8l-10.8,6.5c-1.6,0.9-2.8,2.1-3.8,3.4c-1,1.3-1.6,2.7-2,4.2
	c-0.4,1.5-0.4,3-0.2,4.6c0.3,1.6,0.9,3.2,1.8,4.7l13.5,22.1c0.9,1.6,2.1,2.8,3.4,3.8c1.3,1,2.7,1.6,4.2,2c1.5,0.4,3,0.4,4.6,0.2
	c1.6-0.3,3.2-0.9,4.7-1.8l10.8-6.5c1.6-0.9,2.8-2.1,3.8-3.4c1-1.3,1.6-2.7,2-4.2c0.4-1.5,0.4-3,0.2-4.6c-0.3-1.6-0.9-3.2-1.8-4.7
	l-7.4-12.2l-16.9,10.3l5,8.2l7.7-4.7l2.1,3.4c0.5,0.8,0.6,1.6,0.4,2.5c-0.2,0.8-0.7,1.5-1.5,2l-7.7,4.7c-0.8,0.5-1.6,0.6-2.5,0.4
	c-0.8-0.2-1.5-0.7-2-1.5l-12.8-21c-0.5-0.8-0.6-1.6-0.4-2.5c0.2-0.8,0.7-1.5,1.5-2l7.7-4.7c0.8-0.5,1.6-0.6,2.5-0.4
	c0.8,0.2,1.5,0.7,2,1.5l1.3,2.1l9.2-5.6l-1.6-2.6c-0.9-1.6-2.1-2.8-3.4-3.8c-1.3-1-2.7-1.6-4.2-2
	C603.6,694.3,604.7,694.5,602.1,694.4z M271.7,693.9l-25.9,43.2l28.1,16.8l5-8.3L260,734.4l5.6-9.3l17,10.2l5-8.3l-17-10.2l5.4-9.1
	l18.2,10.9l5-8.3L271.7,693.9z M560.8,715.7l-9.9,4.3l20.3,46.1l9.9-4.3L560.8,715.7z M316.8,729.1l12.7,5c0.9,0.4,1.5,0.9,1.8,1.7
	c0.3,0.8,0.3,1.6,0,2.5l-9,22.9c-0.4,0.9-0.9,1.5-1.7,1.8c-0.8,0.3-1.6,0.3-2.5,0l-12.7-5L316.8,729.1z M310.3,716.2l-18.4,46.9
	l24.5,9.6c1.7,0.7,3.3,1,5,1c1.6,0,3.1-0.3,4.5-0.9c1.4-0.6,2.7-1.5,3.8-2.7c1.1-1.2,2-2.6,2.7-4.3l9.5-24.1c0.7-1.7,1-3.3,1-5
	c0-1.6-0.3-3.1-0.9-4.5s-1.5-2.7-2.7-3.8c-1.2-1.1-2.6-2-4.3-2.7L310.3,716.2z M519.7,730.9l-10.3,3.1l14.6,48.2l29.3-8.9l-2.8-9.2
	l-19,5.7L519.7,730.9z M359.6,733.9l-10.5,49.3l32,6.8l2-9.4l-21.5-4.6l2.3-10.6l19.4,4.1l2-9.4l-19.4-4.1l2.2-10.4l20.8,4.4l2-9.4
	L359.6,733.9z M467.5,741.2l-10.8,0.9l4.3,50.2l10.8-0.9L467.5,741.2z M402.6,742.6l-1.5,50.4l10.8,0.3l0.9-29.7l0.3,0l15.7,30.2
	l10.8,0.3l1.5-50.4l-10.8-0.3l-0.9,29.7l-0.3,0L413.3,743L402.6,742.6z M434.4,52.9c215.4,0,390,174.6,390,390s-174.6,390-390,390
	s-390-174.6-390-390S219,52.9,434.4,52.9L434.4,52.9z"/>
<ellipse transform="matrix(0.1602 -0.9871 0.9871 0.1602 -333.5489 493.7792)" class="st0" cx="123.4" cy="442.9" rx="27.5" ry="27.5"/>
<circle class="st0" cx="748.3" cy="443.4" r="27.5"/>
<path class="st1" d="M432.6,656.4l9.8-8.2l10.7,8.4l-4.7-11.9l11.3-8.4l-13.5,0.7l-3.4-13l-3.7,13.2l-12.9-0.6l10.6,8.6
	C436.8,645,432.6,656.5,432.6,656.4z"/>
<path class="st1" d="M559.6,601.8l12.4-3.3l6.2,12.2l0.8-12.8l13.8-2.9l-12.5-5.1l2.4-13.3l-8.9,10.4l-11.4-6l6,12.2
	C568.3,593.2,559.5,601.8,559.6,601.8z"/>
<path class="st1" d="M619,477.1l6.4-11.1l13,4.2l-8.5-9.6l7.7-11.8l-12.4,5.3l-7.7-11.1l1,13.6l-12.4,3.8l12.9,4.4
	C619.1,464.9,619,477.2,619,477.1z"/>
<path class="st1" d="M557.1,339.8L568,333l9.5,9.8l-3-12.5l12.3-6.8l-13.4-1.2l-1.6-13.4l-5.5,12.5l-12.7-2.4l9.3,9.9
	C562.9,329.1,557.1,339.8,557.1,339.8z"/>
<path class="st1" d="M315.8,601.8l-12.4-3.3l-6.2,12.2l-0.8-12.8l-13.8-2.9l12.5-5.1l-2.4-13.3l8.9,10.4l11.4-6l-6,12.2
	C307.2,593.2,315.9,601.8,315.8,601.8z"/>
<path class="st1" d="M256.4,477.2l-6.4-11.1l-13,4.2l8.5-9.6l-7.7-11.8l12.4,5.3l7.7-11.1l-1,13.6l12.4,3.8l-12.9,4.4
	C256.4,465,256.4,477.2,256.4,477.2z"/>
<path class="st1" d="M318.3,339.9l-10.9-6.8l-9.5,9.8l3-12.5l-12.3-6.8l13.4-1.2l1.6-13.4l5.5,12.5l12.7-2.4l-9.3,9.9
	C312.5,329.1,318.3,339.9,318.3,339.9z"/>
<path class="st1" d="M443.6,342c-31.4,0.1-61.3,12.6-83.5,34.8c25.3,11,52.7,15.4,80.1,16c29.3,0.4,57.9-6.9,84.8-18
	C503.3,353.1,473.8,342.8,443.6,342z M539.4,391.2c-29.7,15.5-62.9,22.2-96.2,23.1c-33.4,0.5-65.7-8.7-95.7-22.8
	c-14.8,20.4-21.5,43.7-22.1,68.6c0.3,22,5.8,44.6,18.3,63c30.3-16.5,64.4-23.3,98.6-24.2c35.1,0,69.5,9,100.5,25.2
	c12.9-18.8,18.3-41.4,18.9-63.9c0-21.6-6-42.7-17.1-61.2C543,396.3,541.1,393.8,539.4,391.2z M439.2,520.4
	c-29.1-0.4-57.5,6.8-84.3,17.8c21.9,26.2,55,39.3,88.6,40.1c34.8-0.5,61.6-12.8,86-37.2C501.5,527,470.4,521.1,439.2,520.4z
	 M442.2,321.2c76.3,0,138.2,61.9,138.2,138.2s-61.9,138.2-138.2,138.2c-76.3,0-138.2-61.9-138.2-138.2S365.9,321.2,442.2,321.2
	L442.2,321.2z"/>
<path class="st1" d="M474.5,302.6c0,0,8.6-23.5,19.2-42.6c10.6-19.1,22.2-37.7,22.2-37.7l-3.4-4.2l-19.5,7.3c0,0,1.4,6.1,0.2,9.3
	c-1.2,3.2-2,7.4-8.8,9.5c-6.8,2.1-9.4,1.9-13.3,0.3c-3.9-1.5-10.2-6-11.2-10.3c-1-4.3-0.6-8-0.3-9.1c0.2-1.1,7.8-7.7,7.8-7.7
	s-4.9-11.6-10.2-19.1c-5.2-7.6-10.8-14.8-10.8-14.8l-6.6,0c0,0-5.8,7.6-10.3,13.8c-4.5,6.2-12.5,19.6-12.5,19.6s6.8,5.4,7.4,7.5
	c0.6,2.1,1.4,7.6,0.3,10c-1.1,2.4-4.8,11-11.4,11.2c-6.6,0.2-11.7-0.4-15.4-3.7s-5.6-4.2-5.8-7.1c-0.2-2.9,1-8.8,1-8.8l-20.4-8.1
	l-3.5,2.9c0,0,16.6,28.8,23.5,42.6c6.9,13.8,18.7,38.1,18.7,38.1s12.2-2.9,22.4-3.6s9.8-0.9,18.9,0.5
	C461.9,299.8,474.5,302.5,474.5,302.6z"/>
</svg>
