<?xml version="1.0" encoding="utf-8"?>
<!-- Generator: Adobe Illustrator 22.0.0, SVG Export Plug-In . SVG Version: 6.00 Build 0)  -->
<svg version="1.1" id="Layer_1" xmlns="http://www.w3.org/2000/svg" xmlns:xlink="http://www.w3.org/1999/xlink" x="0px" y="0px"
	 viewBox="0 0 900 900" style="enable-background:new 0 0 900 900;" xml:space="preserve">
<style type="text/css">
	.st0{fill:#5EED6B;}
	.st1{fill:#2E1500;}
	.st2{fill:#C1882C;}
	.st3{fill:#6A4B18;}
	.st4{fill:#FFFFFF;}
	.st5{fill:#F0B453;}
	.st6{fill:#84632E;}
	.st7{fill:#8C8C8C;}
	.st8{fill:#32823B;}
	.st9{fill:#E5E5E5;}
</style>
<path class="st0" d="M294.8,266.4c-2,1.8-4,3.7-6.1,5.5c-2.4,2.1-5.1,4.8-5.1,4.8s6.7-4,9.5-5.4c2.8-1.4,4.1-1.7,4.1-1.7
	c0,0,0-0.9,0-0.9C297.1,268.7,294.8,266.4,294.8,266.4L294.8,266.4z M305.3,291.7c0,0-2.3,1.1-4.5,2.5c-2.3,1.4-5.1,3.1-9.1,5.5
	c-4,2.4-7.6,4.3-11.3,6.5c-3.6,2.2-5.2,3.4-5.2,3.4c0,0,0.3,0.3,0.3,0.3c3.6-0.7,4.3-0.9,6.6-1.3c2.2-0.3,6.4-0.6,6.4-0.6
	c0,0,2.7-1.8,4.5-3.3c1.8-1.5,3.6-3.1,6-5.6C301.2,296.8,305.3,291.7,305.3,291.7z M506.9,564.4c0,0-4.3,0.1-4.3,0.1
	c0,0,1.1,1.4,3.1,2.8c2,1.4,3.1,2,4.9,3.1c1.8,1,2.7,1.3,4.7,1.1s3.2-0.5,5-0.8c1.8-0.3,3.6-0.6,4-0.6c0.4,0,0.8-0.1,0.8-0.2
	c0-0.2-0.2-0.3-1.6-0.3c-1.4,0-3.4,0-5.8-0.2c-2.5-0.2-3.8-0.5-4.9-1.2c-1.1-0.6-3.1-1.9-4.2-2.6
	C507.5,564.7,506.9,564.4,506.9,564.4z M332.8,568.5c0,0-1.2,0.5-4.1,2.6c-3,2-7.6,5-11.8,7.9c-4.2,2.9-7.7,5.3-15.2,11
	c-7.4,5.7-11.5,8.9-21.2,17c-9.7,8.1-18.1,15.4-18.1,15.4c0,0,0.4,0.7,0.4,0.7c0,0,1.7,0.4,2.8,1.1c1.2,0.7,2.6,1.9,4.8,3.5
	c2.1,1.6,6.1,4.4,6.1,4.4c0,0,1.3-1.8,4.2-4.8c2.9-3,5.6-6,11.3-9.9c5.7-3.9,9.4-6.2,14.6-8.4c5.2-2.2,6.5-2.6,9.3-3.2
	c2.8-0.6,4.5-0.8,4.5-0.8c0,0,0.5-2,1.8-6.8c1.3-4.8,2.8-8.6,4.7-14.1C328.7,578.6,332.8,568.5,332.8,568.5z M206,100.3
	c2.7,0,5.3,0.1,8,0.2c5.2,0.4,13.9,2.3,21.6,4.5c7.7,2.1,13.3,5.2,21.5,7.6c8.2,2.4,19.4,5.9,29.2,6.8s19.4,1.2,26.5,0.2
	c7.1-1,18.7-3.2,25.6-5.7c6.9-2.5,12.5-4.9,19.2-6.5c6.6-1.6,12.5-2.2,20.9-2.1c8.4,0.1,11.2,0.1,18.7,2.4
	c7.5,2.2,11.3,4.4,19.2,8.3c7.9,3.9,11.9,6,17.5,8.6c5.6,2.6,10.1,5.3,12,5c1.8-0.3,3.6-1,5.5-1.4s5.2-0.8,8.2-0.1
	c3,0.7,7.9,3,10.6,4.7c2.7,1.6,5.4,3.5,7.5,5.4c2.1,1.9,4.9,4.9,5.6,6.1c0.7,1.3,1.6,3,2,3.7c0.3,0.8,0.6,2.1,0.6,3
	c0.1,0.9,0.2,2.9,0.2,2.9s1,1.4,1.7,2.5c0.6,1.1,1.4,2.9,1.9,4.2c0.5,1.4,0.9,3,1.1,3.9c0.2,0.9,0.5,3.3,0.5,5.4
	c0,2.1,0.1,4.7,0,6.4c0,1.7,0,3.5,0,3.5l0.5,0.3c0,0,0.9-0.3,2.8-1.2c1.9-0.9,4.4-1.8,7.9-3c3.4-1.2,6-2.2,7.9-2.8
	c1.8-0.6,4.4-1.4,4.4-1.4l0.4,0.2l-0.3,0.8c0,0-0.4,0.3-2.2,1.1c-1.8,0.8-6.7,3.1-10,4.6c-3.3,1.5-11.3,5.1-11.3,5.1s-0.2,1.4-0.4,3
	c-0.2,1.6-0.4,3.3-0.9,4.7c-0.5,1.4-2.1,4.2-2.1,4.2l0,2.1l0.8,0.5c0,0,0.5,1.2,0.7,3.7c0.1,2.5,0.1,5,0.1,7.3
	c0,2.2-0.3,4.3-0.7,5.2s-0.8,1.8-0.9,3.2c0,1.4,0.1,3.5-0.3,4c-0.3,0.5-0.6,0.9-0.6,0.9l1-0.7c0,0,0.6,0,3.4-0.7
	c2.8-0.7,6-1.7,11.4-2.7c5.4-0.9,10.1-1.8,14.3-2.2c4.2-0.5,8.1-0.5,8.1-0.5s2.7-1.7,7.3-4.2c4.6-2.5,8.3-4.4,14.4-7.1
	c6.1-2.8,9.7-4.5,14.1-6.2c4.4-1.7,9.1-3.5,9.8-3.7s2-0.4,2-0.4l0.2,1.5c0,0-1.1,1.7-3.6,3.6c-2.5,1.9-5.3,4.1-8.3,6.1
	c-3.1,2-8.3,5.1-10.3,6.2c-2,1.1-3.8,2.1-3.8,2.1l0.4,0.3c0,0,1.6-0.2,4.6-0.3c3-0.1,5.1-0.2,7.7-0.3c2.6,0,7.2,0.2,7.2,0.2
	s2.9-2.6,6.2-4.6c3.3-2.1,8.9-5.3,13.3-7.4c4.4-2,10.7-4.7,16.4-6.8c5.7-2.1,9.6-4,13.5-4.6c3.9-0.7,9.4-0.9,12.2-0.7
	c2.8,0.2,6.1,0.9,8.3,2.1c2.2,1.2,5.9,4.2,6.9,5.3c1,1.1,1.7,2.5,1.7,2.5s0.8-0.2,2.1,0c1.3,0.2,4.4,1.2,6.7,2.9
	c2.3,1.7,3.4,2.8,4.6,4.1s2.7,3.6,3.2,4.8c0.5,1.2,1.2,3.2,1.4,4.4c0.2,1.2,0.5,2.9,0.5,2.9s1.9,0.8,2.5,1.5
	c0.6,0.7,2.7,0.8,2.7,0.8s1.4-0.8,5.3-2.5c3.9-1.7,7.2-2.9,11.5-4.7c4.3-1.8,5.9-2.4,7.6-3.1c1.7-0.7,2.3-0.9,2.6-0.8
	c0.3,0,1.9,0.1,0.5,0.8c-1.4,0.7-4.4,2.4-11.1,5.7c-6.7,3.3-14.4,7.3-14.4,7.3l0.1,0.6c0,0,1,0.5,1.8,1.7c0.8,1.2,1.3,2,1.9,3.6
	c0.6,1.6,0.9,2.4,1.3,3.7c0.3,1.3,0.6,3,0.6,5.8c0,2.8,0,3.9-0.2,6c-0.3,2-0.6,3.4-1,4.2c-0.3,0.8-0.9,3-1.6,6.4
	c-0.7,3.4-2.1,8.1-3.9,12.8c-1.8,4.7-2.6,6.2-5.5,9c-2.8,2.8-4.5,4.1-8.2,5.7c-3.7,1.6-5,2-10.8,2.2c-5.7,0.2-9.4,0.4-10.9,0.1
	c-1.5-0.3-2.2-0.6-2.6-1c-0.4-0.4-0.9-0.9-1.1-1.3c-0.2-0.4-0.7-0.7-0.7-0.7s-0.5,0.3-0.9,1c-0.4,0.6-1.2,1.3-2.6,1.9
	c-1.3,0.5-3.4,1.2-7.7,1.3c-4.2,0.1-7,0.4-11.8-1.3c-4.9-1.7-7.7-4.1-9.6-5.8c-1.9-1.8-3.8-3.2-5.6-3.6c-1.8-0.4-6.4-1.6-6.4-1.6
	s-2.9,2.4-7.2,5.3c-4.3,2.9-9.1,6.2-13.7,8.7c-4.6,2.5-9.5,4.8-13.9,6c-4.4,1.2-10.7,1.4-10.7,1.4s0.2-1.6,1.6-4.1
	c1.4-2.5,2.8-4.6,5.3-7.1c2.5-2.5,10.6-9,10.6-9s-2.9,1-4.9,2s-3.7,1.9-6.8,3.4c-3.1,1.5-7.3,3.7-12,6.3c-4.8,2.6-7.8,4-12,6.1
	c-4.3,2.2-9.6,4.9-16.5,8.4c-6.9,3.4-15.1,7.6-19.5,9.7c-4.4,2-8.4,3.7-8.4,3.7s1.8,4.2,2.9,6.7c1.1,2.5,3.3,7,4.2,8.7
	c0.9,1.7,1.3,2.3,1.3,2.3l1.2,0.1c0,0-0.2,0.2,4.1-2.5c4.3-2.7,5.9-3.6,10.6-6.5c4.7-2.9,9.2-5.7,13.6-8.3c4.4-2.7,7.7-4.7,9.4-5.7
	c1.7-1,2.1-1.3,2.7-1.6c0.5-0.3,1.2-0.4,1.3-0.3c0.1,0.2,0.4,0.8-0.4,1.5c-0.8,0.7-3.8,3.3-6.9,5.7c-3.1,2.4-9.6,7.4-14.1,11.1
	c-4.6,3.7-7.6,6.4-10.4,8.5c-2.8,2.1-6.9,5.4-6.9,5.4l2.2,3.7l1.5-0.2c0,0,2.6-1.4,7.2-2.9c4.7-1.5,10.6-3.3,17.3-5
	c6.7-1.7,10.4-2.6,16-3.5c5.6-0.9,13.1-1.6,13.1-1.6l2.2-0.1c0,0,1.5-2.1,3.7-3.5c2.2-1.3,5.1-2.8,8.1-4.1c3-1.3,6.5-2.8,8.4-2.9
	s2.5-0.3,5-1.7c2.5-1.3,6.6-3.5,11.1-6.1c4.5-2.6,7.4-4.1,12.2-6.7c4.8-2.6,9-5,9.9-5.4c0.9-0.4,2.2-0.8,2.8-0.8
	c0.6,0,1.4,0.2,1.2,0.8c-0.1,0.6-0.3,1.1-0.9,1.6c-0.6,0.4-2.1,1.8-4.1,3c-2,1.2-5.4,3.5-8.4,5.3c-3,1.7-10,5.9-10,5.9l3.4-0.3
	c0,0,1.5-0.4,3.9-1.1c2.4-0.7,7.9-1.7,12.5-2.4c4.6-0.8,8.6-1.4,14.3-2c5.7-0.6,11.2-1,18.4-1.5c7.1-0.4,15.1-0.9,21-1
	c6,0,11.2,0,19.8,0.6c8.6,0.6,13.1,1.1,20.8,2.4c7.7,1.3,13,3.4,18.8,5.7c5.7,2.4,11,7.2,11,7.2l10.3-5.9l-0.8,1.6l-7.4,5.2v0.9
	c0,0,1.1,1.1,2.7,2.9c1.7,1.8,2.6,3.2,3.2,4.2c0.6,1,1,1.7,1,1.7l0.2,18.3c0,0-0.6,3.1-2.5,5.9c-2,2.8-5,6.8-9.2,10.4
	c-4.3,3.7-6.6,5.8-11.4,8.7c-4.8,2.9-9.7,6-15.2,8.5c-5.5,2.5-8.3,3.5-16.1,7.4c-7.8,3.9-13.1,6.7-16,8.3c-2.8,1.6-4.4,2.6-4.4,2.6
	s-0.1,1.8-0.4,2.4c-0.4,0.7-1.3,1.9-2.3,3.2c-1,1.3-2,2.8-4.3,5.8c-2.3,3-4,5.1-8.4,9.6c-4.4,4.5-7.1,7.1-12.1,10.9
	c-5,3.8-9.7,6.8-17.3,10.7c-7.6,3.9-15.9,7.5-22.2,9.1c-6.3,1.6-17.8,3.9-24.5,4.5c-6.7,0.6-12.5,0.2-12.5,0.2s-1.6,1.4-4.4,3.9
	s-4.8,4.5-4.8,4.5l-0.1,1.6c0,0,1.1,0.6,1.7,1.3c0.7,0.7,1.6,2.1,2.2,3.3c0.7,1.3,1.2,3.5,1.2,3.5l1.8,0.1c0,0,0.5-0.5,3.5-2.9
	c3.1-2.4,5.6-4.5,9.9-7.6c4.3-3.1,6.8-4.8,8.9-6.2c2.1-1.4,2.8-2,3.6-2.4c0.8-0.4,1.6-0.5,2-0.4c0.3,0.1,0.8,0.4,0.8,0.8
	s0,1-0.3,1.4c-0.3,0.4-1.4,1.7-3.8,3.8s-5.9,5.3-11.5,9.8c-5.6,4.5-9.8,7.7-10.6,8.4c-0.8,0.6-1.8,1.5-1.8,1.5l0.1,0.6
	c0,0,1.9,0.2,2.8,1c0.8,0.8,2.3,2.2,3.8,3.8c1.5,1.5,3.1,3.4,3.9,4.8c0.8,1.4,1.3,2.6,1.7,3.7c0.4,1.1,0.9,2.8,0.9,2.8l0.6,0.1
	c0,0,0.6-0.6,2.8-2.3c2.2-1.7,3.3-2.4,7.4-5.4s9.1-6.2,11.9-8c2.8-1.8,3.8-2.5,4.3-2.8c0.5-0.3,1.7-1,1.7-1l-0.5,1.5
	c0,0-0.6,0.9-2.6,2.7c-1.9,1.7-4.8,4.5-9.9,8.8c-5.1,4.3-8,6.7-10.2,8.5c-2.2,1.7-3.3,3.1-3.3,3.1s0.2,1.7,0.3,3.8
	c0.1,2.2,0.1,4.7-0.1,7.4c-0.2,2.7-1,5.9-2.1,8.3c-1.1,2.4-2.6,6-4.9,9.1c-2.3,3-4.1,5.1-6.4,6.8c-2.3,1.7-3.5,2.5-3.5,2.5l-0.6,4.8
	c0,0,1.6-1.2,3.1-2.3c1.5-1.1,2.3-1.6,3.4-2.2c1.1-0.6,1.8-1,2.3-1s1.2-0.1,1.1,0.8c-0.1,0.9,0,1.4-1.7,2.8
	c-1.7,1.4-3.9,3.3-7.2,5.9c-3.3,2.6-4.4,3.3-6.9,5.8c-2.5,2.5-4.5,4.4-6.7,5.7c-2.1,1.4-3.7,2.4-3.7,2.4l2.7-0.4c0,0,1.3-0.2,4.6-1
	c3.3-0.9,6.2-1.4,10.6-2c4.3-0.6,7.6-0.7,11.5-0.5c3.9,0.2,6,0.4,8.4,1.4c2.3,1,2.8,1.7,3.5,1.9c0.6,0.2,1.9-0.4,3.6-1.7
	c1.7-1.3,6-3.7,10-6.1c4.1-2.4,6.1-3.4,8.4-3.7c2.3-0.4,6.5-0.8,11.7-1.2c5.1-0.5,7.9-0.6,9.6-0.6c1.7-0.1,3.7-1,4.7-1.7
	c1-0.7,2.6-0.9,4.9-1.2c2.2-0.3,9.4-1.2,13.9-2.2c4.5-1,7.6-1.6,9.4-2c1.8-0.4,3.8-1.4,6.7-3.2c2.9-1.8,4.6-2.9,9.5-5.7
	c4.9-2.8,8.3-4.6,13.8-7.7c5.6-3.1,6.9-3.8,7.6-4.3c0.8-0.4,1.5-0.7,1.7-0.5c0.2,0.2,0.7,0.5-0.3,1.7c-1,1.2-2.6,3.5-5.7,6.7
	c-3.1,3.2-5.8,5.9-7,7c-1.2,1.1-2.2,1.8-2.2,1.8l2.8,0c0,0,1.7-0.4,6.2-1.6c4.5-1.1,8.1-1.7,15-3c6.9-1.3,11.3-2.5,14.9-2.8
	c3.6-0.2,6.2-0.4,9.1-0.3s4.9,1.2,7.6,3c2.7,1.7,5.7,4,9.1,6.7c3.4,2.6,5.1,4.4,7,6.6c1.9,2.2,4.4,6.6,4.4,6.6
	c0,0,0.4,26.7,0.4,26.7s0.1,1.8-0.5,3.3c-0.6,1.5-1.1,3.1-2.8,5.1c-1.6,2.1-2.3,3.3-4.9,5.2c-2.6,1.9-5,3.2-8.4,4.1
	c-3.4,0.9-5.6,1.5-10.3,2.2c-4.6,0.7-11.1,1.6-11.1,1.6l-0.2,64.9c0,0-0.3,4-3,6.9c-2.7,2.9-4.9,5.4-9.2,7.4
	c-4.3,2-7.7,2.4-13.8,3.3c-6.1,0.9-10.3,1.4-12.4,1.2c-2.1-0.2-5.2-1.4-7.2-2.4c-2-1-5.2-2.9-7.3-4.8c-2.1-1.9-5.7-5.4-7.4-7.3
	c-1.7-2-3.8-4.3-4.7-5.7c-0.9-1.5-1.4-2.2-1.4-2.2l-0.1,14.2c0,0-0.1,2.9-3,6.7c-2.8,3.8-4.7,5.7-8.6,7.7c-3.9,2-7.7,2.6-12.4,3.6
	c-4.7,1-9.9,1.7-13.7,1.7c-3.7,0-5.7-0.2-6.6-0.7c-0.9-0.5-2.3-1.8-3-2.3c-0.6-0.6-0.8-1-1.2-1c-0.3,0.1-0.7,0.3-1,1.1
	c-0.3,0.8-1,1.4-2.7,2.6c-1.7,1.2-2.5,1.8-6.7,3.6c-4.3,1.8-11.7,3.6-17.6,4.5c-5.9,0.9-14.7,2.6-21.7,3.7c-7,1.1-14.7,2-14.7,2
	s0.1,4.7,0,6.9c-0.1,2.2,0,3-0.6,5c-0.6,2-1.5,5.2-5.4,8.8c-3.8,3.6-5.8,5.6-11.9,8.2c-6.1,2.6-8.7,3-14.4,3.1
	c-5.7,0-8.2-0.5-9.7-1.3c-1.5-0.8-2.8-1.8-2.8-1.8l-1.1,0.1c0,0,0,1.1-0.7,1.9s-1.6,1.9-4.1,3.3c-2.5,1.3-6,2.5-9.7,3
	c-3.7,0.5-6.8,0.2-6.8,0.2s-1.2,0.7-3.4,1.3c-2.1,0.6-4.8,1.3-8,1.5c-3.3,0.2-5-0.2-6.4-0.7c-1.4-0.5-2.4-1.1-2.4-1.1
	s-0.5,0.5-1.7,1.5c-1.2,1-2,1.5-4.6,2.5c-2.5,1-3.4,1.1-7.2,1.7c-3.8,0.6-4.6,0.5-6.4,0.4c-1.8,0-2.7-0.3-3-0.5
	c-0.4-0.2-0.6-0.4-0.6-0.4s-0.2,0.3-0.6,0.7c-0.4,0.4-0.7,1-2.4,1.6s-2.6,1.1-5.8,1.6c-3.2,0.4-4.3,0.5-7.1,0.4
	c-2.8-0.1-4.6-0.2-6-1c-1.4-0.8-5-4.3-5-4.3s-0.3,1.3-2.6,3.7c-2.3,2.4-4.5,4-6.8,5c-2.3,1.1-5.8,2.1-8.4,2.5
	c-2.6,0.4-6.8,0.6-8.6,0.3c-1.8-0.3-4.8-1.8-8-4.5c-3.2-2.6-5.1-5.3-6-7.1c-0.9-1.9-1.6-5.3-1.6-6.5s-0.1-5.5-0.1-5.5
	s-0.9,0-3.2-0.5c-2.3-0.5-5.6-2.2-7.7-3.8c-2.1-1.6-4.6-3.8-7.3-6.3c-2.7-2.5-4.1-4.2-5-5.3c-0.9-1.1-1.9-2.3-1.9-2.3
	s-2.2,0.2-5.1,0.8c-2.9,0.5-7.1,1.6-7.1,1.6l-0.6,0.6c0,0,0.1,0.7,0.2,2.1c0.1,1.3,0.3,2.5,0.3,4.1c0,1.7-0.1,2.8-0.3,4.1
	c-0.2,1.3-0.7,2.6-1.8,4.6c-1.1,2-2,3.6-5.1,6.1c-3.1,2.6-7.3,4.7-11.2,5.5c-3.8,0.8-7.3,1.9-13.3,2.3c-5.9,0.4-8.7,0.2-8.7,0.2
	s-0.3,0.6-1.4,1.1c-1.1,0.5-4,1.2-9.6,2.2c-5.6,1-13,2.5-17.6,3.1c-4.6,0.6-8.2,1-11.2-0.1s-5.4-2.2-9.5-4.8
	c-4.1-2.6-19.2-14.5-19.2-14.5l0.2,12c0,0,0.1,2.2-2.4,5.9c-2.5,3.7-4.2,5.9-8.9,8.7c-4.6,2.8-7.3,2.7-14.6,3.9
	c-7.2,1.2-10.7,1.5-14.5,1.1s-6.3-1.3-12.2-6.4c-5.9-5.1-10.4-10-12.3-12c-1.9-2.1-2.5-3.5-2.6-4.5c-0.1-1-0.2-2.1-0.2-2.1l0.4-96.9
	c0,0,0.7-4.7,3.1-8.5s3.2-4.8,6.7-7.9c3.5-3.1,7.5-5.4,9.9-6.2c2.4-0.9,4.6-1.4,9.6-2.3c5-0.9,8-1.3,10.5-1.7s6.4-0.7,6.4-0.7
	s1.9-2.5,4.7-5.6c2.8-3.1,6.6-7.2,9.1-9.7c2.5-2.5,6.6-6.4,9.7-9.5c3.1-3,6.7-6.4,10.9-10.2c4.2-3.7,11-9.6,16-13.6
	c5-4.1,12-9.7,16.5-13.2c4.5-3.5,8.3-6.2,10.6-7.8c2.3-1.5,3.6-2.4,4.6-2.9c1-0.5,1.7-0.8,2.2-0.9c0.5-0.1,1-0.1,1.3,0
	c0.3,0.2,0.4,0.5,0.4,0.9c0,0.4-0.1,1-0.7,1.7c-0.6,0.7-2.5,3.2-5.2,5.7s-4.6,4.2-8.2,7.6c-3.6,3.4-7.4,6.7-10.3,9.4
	c-2.9,2.7-5.6,5-8.6,7.9c-3,2.9-5.4,5.3-8.1,7.9c-2.7,2.6-5.6,6.1-8.5,9s-5.6,5.7-8.7,8.8c-3.1,3.1-6.2,5.6-8.3,7.4
	c-2.1,1.8-3.4,2.7-4.2,3.2c-0.7,0.5-2.7,2.2-0.8,1.4s5.6-1.4,10-2.3s8.2-1.8,12.5-2.5c4.3-0.7,9.5-0.9,11.7-0.8c2.1,0,4.1,0,4.1,0
	s2.1-2.2,4.4-4.3c2.3-2.1,4.4-4.1,7.6-6.8c3.1-2.7,5.8-5.1,10-8.6c4.2-3.5,9-7.2,13.3-10.5c4.4-3.3,8.9-6.6,14.3-10.1
	c5.4-3.5,10.6-6.4,15.7-9c5-2.5,9.2-4.5,11.1-5.1c2-0.6,3.5-0.9,4.8-0.9c1.3,0,3.6,0,3.6,0s1-2.2,2.2-5.2c1.2-3,3.2-7.3,4.9-11.2
	c1.7-3.9,3.5-7.3,6.2-12.6c2.7-5.3,5.6-9.8,7.7-13.2c2.2-3.4,6.3-8.5,6.3-8.5s-3.4-5-3.9-5.8c-0.5-0.9-0.8-1.5-0.8-1.5
	s-2.9,1.6-7.4,5.4c-4.5,3.8-7.1,5.9-11,9s-7.3,5.4-10.9,8.2c-3.7,2.8-5.6,4.2-6.9,5.3s-1.7,1.4-2.1,1.7s-1,0.3-1-0.3
	s0.1-2.5,0.9-4.4c0.7-1.9,2.6-5,4.5-7.6c1.9-2.6,4.5-5.5,6.8-7.9s4-4,6.9-6.6c2.9-2.6,6.6-5.5,9.5-7.7s5.4-4.1,5.4-4.1
	s-1-1.4-2.3-3.6c-1.3-2.1-3.7-6.5-4.8-9.2c-1.1-2.7-3.3-8.2-3.3-8.2l-0.7,0.1c0,0-0.7,0.6-2.1,1.8c-1.4,1.2-2.7,2.1-4.1,3.2
	c-1.4,1.1-3.4,2.5-5.7,4.1c-2.3,1.6-4.4,3.3-6.8,5.1c-2.4,1.8-3.1,2.5-5.7,4.4c-2.6,1.9-4,3.1-5.2,4.1c-1.2,1-5.8,2.9-2.7-0.1
	c3-3,6.4-6,9.4-8.7c3-2.7,5.6-5.3,8.9-8.2c3.3-2.9,6.3-5.4,8.6-7.4c2.4-2,3.4-2.8,3.4-2.8l0.2-1.4c0,0-0.1-0.6-0.5-1.4
	c-0.3-0.8-1.9-4.1-2.4-5.4c-0.5-1.3-1.6-4.5-2.2-6.7c-0.6-2.2-2.1-8.3-2.1-8.3h-0.5l-0.8,1c0,0-1.9,1.4-3.6,2.6
	c-1.6,1.2-3.4,2.6-5.8,4.3c-2.4,1.7-4,2.9-6.6,4.7c-2.6,1.9-7.7,5.6-10.9,7.8c-3.1,2.2-7.2,5.2-10.7,7.7
	c-3.5,2.5-10.3,6.9-16.9,11.4c-6.5,4.4-14.3,9.5-23.3,15.5c-9,5.9-14.7,9.5-22.6,14.6c-7.9,5.1-13.5,8.8-18.2,11.6
	c-4.6,2.8-5.8,3.4-7,4.1c-1.3,0.7-1.9,1.1-2.3,1.2c-0.4,0.1-0.7,0.1-0.8-0.1c-0.1-0.1-0.2-0.4,0.1-0.7c0.3-0.3,2.5-2.1,4.5-3.6
	c2-1.6,6.9-5,12.3-9.1s11-8.1,19.6-14.5c8.6-6.4,20.9-15.3,32.3-23.9c11.4-8.6,19.3-14.6,26.4-20.1c7.1-5.5,15.9-12.6,21.2-16.9
	c5.3-4.3,10.6-8.8,10.6-8.8s-0.5-2.7-0.6-4c-0.1-1.3-0.2-3.7-0.2-3.7s-1.8,0.4-5.6,1.7c-3.8,1.3-7.5,2.6-12.9,4.8
	c-5.5,2.2-12.7,5.1-22.8,10.2c-10.1,5.1-17.5,9.5-27.9,16.6c-10.4,7.1-17.2,11.7-29.3,20.8c-12.2,9-18.3,14.2-29.2,22.5
	c-11,8.4-18,14.2-25.3,19.8c-7.3,5.5-9.2,7.2-11.4,8.9c-2.2,1.7-3.2,2.5-3.7,2.9c-0.6,0.4-0.9,0.5-1.1,0.5c-0.2,0-0.6-0.2-0.6-0.5
	c0-0.3,0.1-0.7,0.8-2c0.7-1.3,1.6-3,4.5-7.2c2.9-4.2,5.2-6.9,9.9-12.3c4.7-5.4,8.8-9.6,19-18.7c10.2-9.1,18.3-15.7,31.6-26
	c13.3-10.2,27.8-20.4,40-29c12.1-8.6,18.6-12.8,33-22.3c14.4-9.5,18.8-12.4,21.7-14.3s5.8-3.6,5.8-3.6s-0.1-3.1-0.1-4.7
	c0-1.5,0.2-7.1,0.2-7.1s-1.2,0.2-3.2,1c-2,0.8-4.3,1.4-7.6,2.4c-3.4,1-7,1.9-9.9,2.3c-2.9,0.4-9.2,0.8-9.2,0.8s-0.7,0.9-2.2,1.4
	c-1.4,0.6-4.2,1.5-6.5,2.1c-2.3,0.6-3.9,1.1-5.6,1.4c-1.7,0.3-3.9,0.3-3.9,0.3s-3.6,3.4-6.8,5.6c-3.1,2.3-6.8,5.6-11.2,8.8
	c-4.4,3.2-6.1,4.5-11.6,7.8c-5.4,3.3-10.6,6.3-13.7,7.9c-3,1.6-8.7,3.6-8.7,3.6s-7.4,1.9-9.5,0.2c-2.1-1.8,2.8-3.9,3.9-4.5
	c1.1-0.6,5-2.9,9.8-6c4.8-3.1,11.5-7.1,18-11.1c6.5-4.1,12.1-7.5,14.1-8.7c2-1.2,5-3,5-3s-2.1,0-5.1-0.2c-3-0.2-5.5-0.9-8.7-1.8
	c-3.2-0.9-7.6-2.4-7.6-2.4L243,399c0,0-1.5,0.7-3.7,2.5c-2.2,1.8-4.8,3.9-9,6.8s-9.6,7-14.1,10c-4.4,3-6.3,4.5-7.3,5.2
	c-1,0.7-1.8,0.9-2.1,0.7c-0.3-0.2-0.5-0.9,0.6-2.4s3.8-4.6,7.9-8.6c4.1-4.1,7.6-7.2,10.8-10.1c3.2-2.9,8.1-6.6,8.1-6.6l0-1.4
	c0,0-1,0.2-1.8,0c-0.8-0.2-1.9-0.9-3.3-2c-1.4-1.1-2.5-1.8-3.1-2.4c-0.6-0.6-1.3-2.3-1.3-2.3l-1-0.1c0,0-0.2,0.6-0.8,1.3
	c-0.6,0.7-1.9,1.5-3.5,2.6c-1.6,1.1-3.4,2.4-5.4,3.8c-2,1.4-4.1,2.9-6.3,4.3c-2.2,1.4-5.1,2.9-7.3,4.3c-2.2,1.4-2.9,1.9-3.4,2.2
	c-0.5,0.3-1.1,0.5-1.4,0.3c-0.3-0.2-0.3-0.8,0-1.3c0.2-0.5,1.2-1.6,2.1-2.8c1-1.1,3.2-3.2,5.1-5.1c2-1.9,4.6-4.1,7.3-6.5
	c2.7-2.3,5.4-4.6,6.9-5.8c1.5-1.2,3.5-2.7,3.5-2.7l0.1-0.7c0,0-0.8-1.1-1.4-2.4c-0.6-1.3-1.1-2.6-1.3-3.7
	c-0.1-1.1,0.1-12.1,0.1-12.1s0.5-2.5,1-4.2c0.5-1.8,2.1-5.6,3.7-9s2.9-6.2,4.3-8.6c1.4-2.4,5.4-8,5.4-8l-1,0c0,0-1.7,1-3.5,2.1
	c-1.8,1.1-4.2,2.3-6.6,3.5c-2.3,1.2-5.6,2.8-6.1,3c-0.6,0.2-1.1,0.4-1.7,0.4c-0.6,0-1.1-0.1-1.1-0.4c0-0.3,0.2-0.6,0.7-0.9
	c0.5-0.3,4.8-3,7.7-4.7c2.9-1.7,7.2-4.2,10.7-6.4s6.3-4.2,8.8-6.9s5.1-4.6,8.1-6.4c3-1.9,5.2-3.1,7.7-4.2c2.4-1.1,4.4-1.8,6.2-2.3
	c1.7-0.5,3.2-1.2,6.2-3.2c3-2,6.8-4.4,10-6.6c3.2-2.2,7-4.5,10.3-6.8c3.2-2.3,9.2-6.1,9.2-6.1s-1.6-0.5-4.4,0s-6.1,1-10.4,2.1
	c-4.3,1.2-8.6,2.5-13.2,4.5s-6.8,2.7-12.2,5.4s-8.6,4.6-13.6,7.6c-5,3.1-9,5.3-13.5,8c-4.5,2.7-9.7,5.9-14.9,9.1
	c-5.2,3.2-10.2,6.3-16.3,10.3c-6.2,3.9-8.9,6-9.8,6.6c-0.9,0.7-2.1,1.3-2.4,1c-0.3-0.3-0.2-0.8,0.2-1.8c0.4-0.9,2.7-3.8,5-6.3
	c2.2-2.5,5.1-5.4,9-8.8c3.9-3.4,6.8-5.6,11.2-8.6s11.2-7.3,14.8-9.6c3.6-2.3,7.9-5.1,13.9-8.7c6-3.5,22.2-12,22.2-12l-2.5-0.1
	c0,0-3.8,1.5-8.3,2c-4.5,0.5-12.8,0.9-17.2,0.5c-4.4-0.4-11-1.3-14.5-2.6s-10.5-4.4-14.8-6.8c-4.3-2.3-10.7-6-15.1-9.1
	c-4.4-3.1-10.7-8.8-14.3-13.1c-3.6-4.3-6.3-8.3-7.9-13c-1.6-4.7-1.9-6.8-1.8-10.6s0.5-7.5,2.3-10.6c1.7-3.1,4.2-6,7.4-8.5
	c3.2-2.4,6.7-4.5,10.1-5.1c3.4-0.6,10.3-0.8,14.1-0.4c3.7,0.4,7.8,1.4,10.2,2c2.5,0.7,5.7,1.4,10.7,1.4c5.1,0,7.2,0.2,9.8-0.2
	c2.7-0.4,4.8-1,7.6-1.4c2.8-0.4,7.4-1.2,10.6-2.3c3.3-1.1,8.1-2.5,11.6-4.1c3.5-1.6,7.8-4,7.8-4s-1.5,0-3.8,0.1
	c-2.3,0.2-3.9,0.2-8.1,0.2c-4.2,0-5.7-0.2-9.9-0.7s-9.3-1.5-17-4.1c-7.6-2.6-14.4-5.8-22.4-10.5c-8-4.7-12.5-7.6-22.4-18.5
	c-9.9-11-11.8-14.9-15.3-21.3c-3.4-6.4-4.2-9.4-4.2-9.4l-0.2-13c0,0,0.7-2.9,2.5-6.5c1.8-3.6,4-6.4,6.8-8.8c2.8-2.4,5-3.6,7.7-4.8
	c2.7-1.3,6.3-2.5,9.8-3.2C197.3,100.2,201.7,100.3,206,100.3z"/>
<path class="st1" d="M717.4,599.8v68.4c0,0-0.2,1.8-1.1,3.3c-0.9,1.5-2.5,3.5-3.5,4.3c-1,0.7-3.2,2.3-5.3,3.3
	c-2.1,1-4.8,2.1-8.3,2.7s-5.7,0.8-9.4,1c-3.7,0.2-5.9,0-8.8-1c-2.9-0.9-5.9-2.5-7.6-4c-1.7-1.4-6.4-5.9-8.5-8
	c-2.1-2.1-3.1-3.3-3.6-4.5c-0.5-1.2-1-3-1-4.3c0-1.4-0.1-49.2-0.1-49.2s0.1-0.9,0-1.3c-0.1-0.5-0.4-0.8-0.7-0.8c-0.3,0-0.8,0-1,0.2
	c-0.2,0.2-0.5,0.5-0.6,0.7c-0.1,0.2-0.2,0.4-0.7,0.4c-0.5,0-5.3,0-5.3,0s-0.7,0-1,0.2c-0.3,0.2-0.3,0.5-0.3,1.1s0.1,66.2,0.1,66.2
	s0,1.4-0.3,2.2c-0.3,0.8-0.7,2.1-1.7,3.4c-1,1.3-2.6,4-4.7,5.4c-2,1.3-5,2.8-7.3,3.3c-2.2,0.5-7.5,1.8-10.3,2
	c-2.8,0.2-10.4,0.5-12,0.1c-1.7-0.4-3.7-1.6-4.4-2.2c-0.7-0.6-1.4-1.7-2.3-1.7c-0.9,0-1.5,0.4-2.3,1.1c-0.8,0.8-3,2.9-5.7,4.4
	c-2.7,1.5-5.5,2.8-9.1,3.9c-3.6,1.1-11,2.8-15.4,3.6c-4.4,0.7-14.4,2.5-22.4,3.7c-7.9,1.2-14,1.9-14,1.9s-0.3,2.9-0.2,5.8
	c0.1,2.9,0.2,6.8-0.4,8.1c-0.6,1.2-1.7,4.6-4.5,7.3c-2.8,2.6-4.4,4.8-10.3,7.2c-5.9,2.4-7.5,2.6-12.6,2.6c-5.1,0.1-7.1-0.4-8.5-1.1
	c-1.4-0.7-5.4-3.4-5.4-3.4l-0.8,0.2c0,0-0.1,1.2-1.1,2.5c-1.1,1.3-2.1,2.7-4.3,4.2c-2.2,1.4-3.6,1.6-6.8,2.4
	c-3.2,0.8-4.7,0.5-7.2,0.8c-2.5,0.3-2.3,0.7-5,1.2c-2.7,0.6-5.4,1.5-8.5,1.6c-3,0.2-4.2-0.2-5.3-0.7c-1.1-0.5-3.2-1.8-3.2-1.8
	s-1.1,0.6-1.6,1.3c-0.5,0.7-1.2,1.4-2.5,2.1c-1.3,0.8-2.8,1.6-5,2.3c-2.2,0.7-4.1,1.1-6.7,1.1c-2.6,0-4,0.2-4.7,0
	c-0.8-0.2-1.7-0.9-2-1.1c-0.3-0.2-0.9-0.4-1.4,0.1c-0.5,0.4-1.1,1.7-2.6,2.5c-1.5,0.8-3.6,1.4-5.7,1.8c-2.1,0.4-3.5,0.3-6.4,0.1
	c-2.9-0.1-4.4-0.3-5.5-1.3c-1-1-2.6-2.3-3.8-3.8c-1.2-1.5-1.9-2.4-2.1-2.7c-0.2-0.3-0.9-1-1.1-0.4c-0.2,0.5-0.5,2.2-0.9,3.5
	s-1.5,3.2-3.2,4.8c-1.7,1.6-3.9,3.1-6.6,4.1c-2.7,1-3.9,1.4-7.3,1.8c-3.5,0.5-5.4,0-7.6-0.9c-2.1-0.9-4-2.5-5.5-4.3
	c-1.6-1.8-2.9-3.2-3.3-6.4c-0.5-3.2-0.7-5.5-0.5-7.9c0.2-2.3,0.3-3.8,0.3-3.8l-6.8,0c0,0-1-0.2-3.2-1.5s-4.1-2.3-6.6-4.3
	c-2.5-2-5.6-4.8-7.2-6.6c-1.6-1.7-2.5-2.7-3.2-3.8s-1.7-2.1-1.7-2.1s-0.9,0.1-3.3,0.5c-2.4,0.4-5.4,0.9-8.3,1.4
	c-2.9,0.6-5.3,1.3-6.5,1.6c-1.2,0.3-1.8,0.7-1.8,0.7l0,13.9c0,0,0.2,1.5-1.2,3.3c-1.4,1.7-2.5,3.3-4.5,4.6c-2,1.3-3.9,2.6-6.9,3.4
	c-3,0.7-7.3,1.9-11.9,2.3c-4.7,0.5-6.4,0.4-7.7,0.3c-1.3-0.2-2.4-0.5-2.4-0.5s-1.1,0.9-2.7,1.7c-1.6,0.8-6,2.1-8.4,2.3
	c-2.5,0.2-4.5,0.2-8.2,1c-3.6,0.8-6.9,1.6-9.5,2.1c-2.6,0.5-4.9,0.7-7.1,0.4c-2.2-0.3-3.5-0.8-6.2-2.2c-2.7-1.4-4.7-2.7-9-5.5
	c-4.2-2.8-10.1-6.8-14.2-9.8c-4.2-3-5.7-4.4-6.3-5c-0.6-0.6-1.4-1.1-1.4-1.1l-0.1,20.1c0,0-0.2,1.5-1.3,3.3
	c-1.1,1.9-1.8,3.2-3.3,4.7c-1.5,1.5-2.3,2.3-5.4,3.6c-3.1,1.3-5.4,2-10.1,2.7c-4.7,0.8-9,1.3-11.9,1.3c-2.9-0.1-6.6-0.8-9.2-2.7
	c-2.6-1.9-6.2-5.1-9.1-7.9c-2.8-2.8-6.1-6.1-6.6-7.6c-0.5-1.5-1.2-3.7-1.3-7.4c0-3.8,0.4-91,0.4-91s0.3-1.8,1.7-4.4
	c1.4-2.6,2.2-4,4.3-6.3c2.1-2.3,3.6-3.8,6.4-5.6c2.7-1.8,5.1-3.3,10-4.1c4.9-0.8,7.2-1.2,15.8-2.7c8.5-1.5,12.9-2.6,20.6-3.9
	c7.7-1.3,19.1-3.7,22.5-4c3.4-0.3,8.8-0.6,13.3-0.6c4.6,0,6.8,0,7.9,0.6c1.1,0.6,5.6,2.9,8.1,4.7c2.5,1.8,4.9,3.5,7.3,5.5
	c2.4,2,4,3.5,4,3.5l0.4,1l0.6-1.3c0,0,0.3-1.1,1.5-2.5c1.2-1.4,2.8-3.1,6.4-6.5c3.6-3.5,7.3-6.7,11.8-9.3c4.5-2.6,8.8-5.1,12.6-6.5
	c3.8-1.4,7.8-2.5,10-3c2.2-0.4,3.8-0.7,3.8-0.7s0.3-1.2,1-3.9c0.7-2.7,1.6-4.8,2.6-8.1c1-3.4,2-5.9,3.7-10.9
	c1.7-5,3.7-10.2,5.6-15.2c1.8-5,5.2-13.2,10-23.6c4.9-10.4,10-18.8,14.2-25.2s6.3-9,6.3-9s-0.4-0.7-2.1-2.9c-1.6-2.2-3.7-5.6-5.8-9
	c-2.1-3.5-3.9-6.7-6.2-10.8c-2.2-4.1-5.5-11.3-8.4-18c-2.9-6.7-6.1-14.4-8.3-22.2c-2.2-7.8-3.9-13.3-5.3-22.8
	c-1.4-9.5-2.8-24-3.1-31.4c-0.3-7.4,0-12.7,0-12.7s-0.8-0.5-1.6-0.1c-0.8,0.4-6.5,3.4-13.5,5.2c-7.1,1.7-11.7,2.7-15.5,3.2
	c-3.8,0.5-6,0.6-6,0.6s-2.2,1.5-4.2,2.2c-2,0.7-4.4,1.5-6.4,2.1c-2,0.5-4.2,1.2-4.2,1.2s-4.5,0.3-7.8,0.3c-3.3,0-5.9,0-8.4-0.4
	c-2.5-0.4-4.8-0.9-8.8-1.9c-4-0.9-7.5-1.9-11.6-3.6c-4.2-1.7-6.2-2.8-9.6-5.5c-3.4-2.7-4.8-5.3-6-7.8c-1.2-2.5-1.7-4.3-1.7-6.5
	c-0.1-2.2-0.3-4.7,0-6.5c0.3-1.8,0.4-2.4,1.6-5.4c1.3-3,1.9-4.9,3.9-8.9c2-4,3.6-7.7,6.2-11.7c2.6-4,5.4-8.5,8.2-11
	c2.8-2.6,7.4-6.3,11.2-8.3c3.8-2,9.1-4.4,11-4.8c1.9-0.4,4.6-0.9,8.7-1.4c4-0.5,6.4-0.8,10.7-1.2c4.3-0.4,6.3-0.8,7.9-1.9
	s2.8-1.7,5.3-3.8c2.5-2.1,5.2-5.2,8-8.7c2.8-3.4,4.3-5.8,6.4-8c2-2.2,3.8-4.2,5.5-5.8c1.7-1.6,3.6-3.3,3.6-3.3l-0.6-1
	c0,0-1.6-0.7-4-2.4s-4.8-3.2-7.9-5.6c-3.1-2.4-4.9-4.1-7.5-6.7c-2.7-2.6-5.8-6.1-5.8-6.1s-1,0.6-2.6,2.2c-1.6,1.6-2.7,2.7-5.9,5.4
	c-3.2,2.7-7.3,6.1-12.6,9.1c-5.3,2.9-9.2,4.9-14.3,6c-5.1,1.1-8.2,1.8-13.2,1.8c-5,0-7.3,0-11.8-0.7s-6.6-1-11.2-2.5
	c-4.6-1.5-8.5-3.5-13.4-6c-4.9-2.5-10-5.2-14.5-8.2c-4.5-3.1-8.4-6.4-12.2-10.5c-3.8-4.1-7.7-10.1-8.7-12.6c-1-2.5-1.7-6.2-1.7-9.1
	s0.2-4.9,1-7.1c0.8-2.2,1.9-4.1,3.5-5.7c1.6-1.6,3.9-3.4,6-4.5c2.1-1.1,4.3-2.3,5.9-2.4c1.6-0.2,5.1-0.5,8.1-0.3
	c3,0.3,4.9,0.5,8.5,1.2c3.5,0.7,5.9,1.7,9.8,1.8c4,0.1,6.2,0,11.4,0c5.3,0,8.5-0.4,13.4-1.3c4.9-0.9,8.5-1.8,15.3-4.1
	c6.8-2.3,11.4-4.1,15.7-6.4c4.3-2.4,9.1-5.4,10.9-7.4c1.8-2,2.8-3.4,3.2-4.4c0.5-0.9,0.9-2.7,0.9-2.7s-1.5,0.1-3.4,0.8
	c-2,0.6-5.4,2.1-8.7,2.6c-3.3,0.5-8.8,1.1-14.1,1.3c-5.2,0.2-9.6,0-14.7-0.9c-5.1-1-10.9-2.6-16.3-4.4c-5.4-1.9-10.7-4.5-16.8-8
	s-10.6-6.5-15-10.4c-4.3-4-6.3-6.1-11-11.2c-4.6-5.1-7-9-10.3-14.7c-3.3-5.7-5.8-11.8-5.8-11.8s0.1-10.4,0.1-10.4c0,0,1.2-3.2,3.1-6
	c1.8-2.8,4.1-5.4,6.8-7.2c2.8-1.8,4.1-3,7.4-4.1c3.3-1.1,6.8-1.7,6.8-1.7l18.5,0c0,0,4.4,0.4,8.5,1.2c4.1,0.8,5.8,1.3,10.2,2.6
	c4.4,1.3,8.5,3.1,13.7,4.8s8.2,3.2,13.3,4.5c5.1,1.3,9,2.9,14.5,3.8c5.5,0.9,12.5,1.9,19.9,2.3c7.4,0.3,13.7,0.6,19.9-0.3
	s12.5-2.1,20.4-4.3c7.9-2.2,13.9-4.5,19.7-6.4c5.9-2,8.7-2.9,12.1-3.2c3.5-0.3,7.4-0.8,12.5-0.7c5,0.1,10.1,0.4,14.4,1.5
	c4.3,1.1,6.8,1.9,13,4.5c6.2,2.7,11.7,5.8,17.6,8.7c5.9,2.9,9.9,4.9,14,6.7c4.1,1.8,8.1,3.6,9.9,3.5c1.8-0.1,2.7-0.7,3.6-1
	c0.9-0.3,2.6-1,4.9-0.9c2.3,0.1,4.7,0,6.5,0.9c1.9,0.9,4,1.9,5.8,3c1.9,1.1,3.9,2.6,5.8,4.4c2,1.8,3.4,3.1,4.5,4.9
	c1.1,1.9,2.6,4.2,2.7,4.8c0.1,0.7-0.1,3.4,0.6,4.7c0.6,1.4,2.2,4.2,3,6.3c0.8,2,1.3,2.8,1.3,4.9c0,2.1,0.1,16.3,0.1,16.3
	s0.1,2.2-0.4,3.5c-0.5,1.3-1.2,3.4-1.9,5.1c-0.7,1.7-0.9,4.8-0.7,6.5c0.2,1.7,0.5,3.9,0.5,6.1c0,2.2,0.2,4.7-0.1,7
	c-0.3,2.4-0.8,7.4-1.4,10.5c-0.6,3.1-1.5,5.7-1.5,5.7l0.7,0.6c0,0,0.3-0.8,1.8-1.1c1.5-0.3,1.8-0.4,7.8-1.6c6-1.2,7.7-1.6,16.4-3.1
	c8.7-1.5,12.9-2.6,25.2-3.6c12.3-1,21.9-1.1,27.5-1.1c5.7,0,9.2,0,9.2,0s1-1.4,3.3-2.8c2.3-1.4,4.8-3.5,9.7-6
	c4.9-2.5,6-3.3,12.3-5.9c6.3-2.6,13.6-5.6,16.7-6.6c3.1-1,6.5-1.9,9.2-2c2.7-0.1,10.2,0.1,10.2,0.1s2,0.6,3.7,1.6s3.4,2.2,4.7,3.3
	c1.2,1.1,2.2,1.9,2.6,2.4c0.5,0.5,1,2.3,1,2.3s0.8-0.3,1.7-0.3c0.9,0,1.9,0.1,3,0.5c1.1,0.4,2.5,0.9,4,1.9c1.5,1,3.2,2.7,4.3,4.1
	c1,1.3,1.8,2.8,2.2,4.5c0.3,1.7,0.7,6.4,0.7,6.4s1.6,0.1,2.8,0.7c1.1,0.6,2.4,1.5,3.7,2.7c1.3,1.2,2.4,2.1,3,3.2
	c0.7,1.2,1.3,2.5,1.6,3.9c0.4,1.4,0.7,2.5,0.8,5c0.1,2.5,0.3,5.3,0,7.9c-0.4,2.6-1.4,6.6-2.5,10.5c-1.1,3.9-1.9,8.6-3,11.2
	c-1.2,2.6-3.2,6-5.5,7.9c-2.3,1.9-6.5,4.5-8.1,4.8c-1.7,0.3-5.9,0.6-10.3,0.6s-5.8,0-7.1-0.7c-1.4-0.6-2.9-2.3-3.5-2.4
	c-0.5-0.1-1.1-0.1-1.4,0.1c-0.4,0.2-0.8,0.6-1.2,1c-0.4,0.4-1.3,1.6-3.8,2.1c-2.5,0.5-4.2,0.6-7.2,0.7c-3,0-4.8,0.1-7.7-0.9
	c-3-0.9-3.9-1.7-6.4-3.4c-2.5-1.7-3.5-3.2-4.6-3.9c-1.1-0.7-1.9-1.3-4-1.9c-2.1-0.6-3.1-1-6.1-1.5c-3-0.6-4.8-1.1-7-2.5
	c-2.2-1.4-3.2-2.3-4.1-3c-0.8-0.7-1.5-1-3-0.4c-1.5,0.6-6,1.7-11.1,3.6s-8.2,3.6-14,6.3c-5.8,2.7-9.2,4.5-16.3,8.1
	c-7.1,3.6-15,7.5-26.2,13.1c-11.2,5.5-21.1,10.5-27.3,13.6c-6.1,3-7.6,3.9-7.6,3.9s0.5,2.3,2,6.4c1.6,4.1,3.2,8.4,6.4,14.4
	c3.2,6,6.4,10.6,8.3,13c1.8,2.3,3.3,3.9,3.3,3.9s1.8-1.1,6-2.7c4.2-1.5,7.2-3,15-5.1c7.8-2,11.3-3,19.4-4.4c8-1.4,19.4-2.8,19.4-2.8
	s1.8-2,3.9-3.1c2.1-1.1,5.1-3.3,9.8-4.9c4.6-1.6,8.6-2.9,10.1-3.2c1.5-0.4,4.8-1.3,14.7-3.2c9.9-1.9,12.8-2.6,23.9-4.1
	c11.1-1.5,22.9-3.4,41.1-3.5c18.3-0.1,30.4,0.4,41.8,2c11.4,1.5,18.6,3.7,25.2,7.1c6.6,3.5,8.6,5.9,10.9,8.2c2.3,2.3,4,5,4,5
	l0.3,16.2c0,0-1.4,3.4-4.3,6.7c-2.9,3.3-5.9,6.7-10.5,10.1c-4.5,3.4-9.2,6-15.2,9.1c-6,3.1-11.8,6-19.7,9.8
	c-7.9,3.8-14.7,7.5-18.9,9.8c-4.2,2.3-5.2,3.3-5.2,3.3s-0.8,2.4-2.7,5.4c-1.9,2.9-4.8,8.6-9.6,13.3c-4.8,4.7-10.5,10.6-16.5,14.5
	c-6,4-15.1,9.6-23,12.8c-7.9,3.2-14.1,5.7-19.3,6.6c-5.2,0.9-13,2.3-18.2,2.8c-5.1,0.5-12.5,0-12.5,0s-3.5,2.2-6.5,5
	c-3,2.8-6.5,6.5-7.4,7.4c-0.9,0.8-1.1,2.7-1.1,2.7s1.2,0.8,2.5,2.1c1.3,1.2,3,2.8,4,4.4c1,1.6,1.8,2.5,2.3,4.8c0.5,2.3,1,6.6,1,6.6
	s1.5,0.1,2.7,0.8c1.2,0.7,3.8,2.5,5.4,4.3c1.6,1.8,3.9,4.8,4.8,6.8c0.9,2,1.9,3.5,2.3,5.9c0.4,2.4,0.5,7.2,0.4,10
	c-0.1,2.8-0.9,4.9-2.3,8.2c-1.4,3.3-3.2,7.9-5.9,10.4c-2.7,2.5-8.3,6.3-8.3,6.3l-0.3,4.9c0,0-0.4,2.8-1.8,4.8c-1.5,2-3,4.8-6.6,7.7
	c-3.5,2.9-7,5.5-10.6,6.5c-3.6,1-5.8,1.6-10.5,1.3c-4.7-0.4-9-1-11.7-2.3c-2.7-1.3-5.5-3.9-5.5-3.9l-14.1,0.3c0,0-1.1,0-1.4,0.2
	c-0.3,0.3-0.4,0.8-0.2,1.2c0.2,0.4,1.2,1.7,2.9,3.5c1.7,1.8,3,3.5,6,5.8c3,2.3,4.8,3.4,7.1,4.6c2.4,1.3,3.3,1.5,4.3,1.7
	c0.9,0.2,2.4,0.2,3.5,0.1c1.1-0.1,3.2-0.6,8.9-1.9c5.7-1.3,9.5-2.3,19.7-4.1c10.2-1.8,13.1-2.9,20.4-3.3c7.3-0.4,12.3,0,14.5,0.9
	c2.2,0.9,5.8,2.7,7.9,4.1c2.1,1.4,3.3,2.6,3.8,3.4c0.4,0.8,1,1.4,1.4,1.4c0.4,0,0.8-0.3,0.8-0.8c0-0.4-0.3-2.3-0.2-3.3
	c0.1-1,0.5-1.9,1.8-3.6c1.3-1.7,3.9-5,5.7-6.4c1.9-1.4,3.1-2.4,8.3-3.2c5.2-0.9,9-1.9,13.3-2c4.2-0.1,8.2-0.1,8.2-0.1
	c0,0,1.8-1.6,3.3-2.1c1.5-0.5,3.8-0.7,5.9-0.9c2.1-0.2,4.3-1.1,9.1-2c4.8-0.9,6.5-1.5,12.4-2.6c5.9-1.1,7.8-1.4,14.1-2.5
	c6.3-1.1,9.5-1.6,18.1-3.2c8.7-1.6,13.6-2.5,21.8-3.8c8.1-1.4,12.7-1.6,15.4-1.6c2.6,0.1,5.7,1.6,8.7,3.7c3,2.1,5,3.6,7.6,5.5
	c2.6,1.9,5.1,4.5,6.4,6.8c1.3,2.2,2.2,4.2,2.2,4.2l0.3,24.3c0,0-0.4,1.5-1.5,3.1c-1.1,1.6-2,3.4-4.1,5c-2.2,1.6-3.9,2.9-7.4,4
	c-3.5,1.1-5.2,1.2-9.9,2C727.8,598.4,717.4,599.8,717.4,599.8z"/>
<path class="st2" d="M374.8,132.1c-1.7,0-4.4-0.1-5.7,0.6c-1.3,0.7-3.6,2.3-4.4,3.3c-0.8,1-1.5,2-1.8,2.7c-0.3,0.8-0.3,1.6-0.3,1.6
	s0.3-0.2,1-0.9c0.8-0.6,1.7-1.3,2.4-1.7c0.7-0.4,1.3-0.6,1.9-0.7c0.6-0.1,1.2-0.1,1.6-0.1c0.4,0,0.8,0.1,0.8,0.7c0,0.6,0,1.6-0.2,2
	c-0.2,0.4-0.9,1.3-0.9,1.9c-0.1,0.6-0.3,1.8-0.2,3c0.1,1.2,0.3,2.4,1.2,3.4c0.9,1,2.4,2.4,3.5,2.8c1.1,0.5,1.8,0.5,2,0.7
	c0.3,0.1,0.5,0.5,0.5,0.8c0,0.3-0.2,0.6-0.6,0.7c-0.4,0.1-1.1,0.2-2,0.5c-1,0.3-1.6,0.3-2.3,0.6s-1.3,1-1.3,1
	c1.5,0.4,2.8,0.7,4.3,0.9c1.5,0.2,3,0.2,4.9,0c1.9-0.2,4.7-0.7,6.8-1.7c2.1-1,4.3-2.4,6.3-3.9c2-1.5,4-3.1,4.7-3.9
	c0.7-0.8,1.6-2.8,1.6-2.8c0,0,1.8-0.4,2.6-0.4c0.8,0,1.5,0,1.8-0.2c0.3-0.2,0.6-0.5,0.8-0.8c0.3-0.3,0.9-1,1-2.5
	c0.1-1.5,0.1-1.7-0.2-2.8c-0.3-1.1-1.5-3.6-1.5-3.6c0,0-0.5,0.7-0.9,1.3c-0.4,0.6-0.9,1.1-1.4,1.5c-0.6,0.4-1.5,0.8-2.3,0.9
	c-0.8,0.1-3,0.1-4.4,0.1c-1.3,0-2.6-0.3-4.1-0.9c-1.5-0.6-2.8-1.3-4.4-1.8c-1.6-0.5-2.2-1.1-4.7-1.6
	C378.7,132.5,376.5,132.1,374.8,132.1z M365.2,211.5c0,0-1.1,0.4-2.2,1.3c-1,0.8-2.8,2.5-4.4,4.4c-1.5,1.9-3.5,4.2-4.2,6.1
	c-0.7,1.8-1.8,4.2-1.8,7.5c0,3.3,0.1,6.2,1.4,8.5c1.2,2.3,2.8,4.5,4.7,5.8c1.9,1.3,5.3,2.6,8.5,2.7c3.2,0.1,5.2,0.1,7.8-0.1
	s3.8-0.6,5.1-1c1.4-0.4,2.6-1.2,2.6-1.2c0,0-1.2,0.2-3.1,0.4c-1.9,0.2-5.6-0.1-8.5-1.4c-2.8-1.3-5.1-3-7.1-5c-2-1.9-3.1-3.8-3.7-6.3
	c-0.7-2.5-1-5-0.8-7.2c0.2-2.2,0.6-4.8,1.5-7.1c0.9-2.2,2-4.3,2.8-5.4C364.6,212.3,365.2,211.5,365.2,211.5z M208.2,118.3
	c5.6,0.1,11,1.4,16.4,2.7c6.6,1.6,9,2.5,13.3,4.2c4.3,1.6,12.2,5,21.3,7.4c9.1,2.4,18.1,4.2,27.3,4.9c9.2,0.6,20.4,0.4,26.6,0
	c6.3-0.4,13.3-2,19.5-3.7s10.5-2.8,13.9-4c3.4-1.1,5.2-2.3,6.9-3.1c1.6-0.8,5.7-1.7,9.7-2.6c4-0.9,5.8-1,9.8-1.4
	c4-0.4,9.2,0.2,11.3,0.4c2.1,0.2,6.2,1.3,11.1,3.2c4.9,1.9,6.6,3,10.6,4.9c4,1.9,6.9,3.4,8.9,4.4c2,1.1,2.9,1.7,5.8,2.7
	c2.8,1.1,3.6,2.1,3.8,2.4c0.3,0.3,0.1,0.6-0.1,0.9c-0.2,0.3-0.8,0.2-0.8,0.2s-4.1,0.2-7.3,1c-3.3,0.8-6.7,2.3-8.8,3.2
	c-2.1,0.9-2.7,1.2-4.6,2.3c-1.9,1-3.8,2.6-5.9,4.5c-2.1,1.8-3.6,4.2-4.1,4.8c-0.4,0.5-0.4,0.7-0.1,1c0.3,0.3,0.8,0,0.8,0
	c0,0,3.7-2.8,7-4.6c3.3-1.9,7.9-3.7,11.9-5.1c3.9-1.4,8.5-2,12.8-2.3c4.3-0.3,5.6-0.4,9.1-0.3c3.5,0.1,6,0.4,10.1,1
	c4.1,0.6,5.3,0.9,6.7,1.4c1.4,0.5,3.4,3,5.2,4.6c1.8,1.5,3.2,3.2,3.9,4.2c0.7,1,0.4,2.7,0.4,4.3c0,1.6-0.7,3.3-1.5,4.7
	s-2.3,3.3-3.7,4.6c-1.4,1.3-3,2.3-3.6,2.7c-0.5,0.3-1.4,0.3-2.4,0.4c-1,0-2.2,0-4.5-0.1c-2.3-0.1-3.6-0.3-3.6-0.3c0,0-1-0.5-2.5-1.2
	c-1.5-0.7-7.9-2.8-12-4.1c-4.1-1.3-6.8-2-8.7-2.4c-1.8-0.3-4.9-0.1-7.2,0.4c-2.3,0.4-5.4,2.5-8.1,5c-2.8,2.5-5.3,6.1-8.9,11.4
	c-3.7,5.3-6,9.4-9.2,14.3c-3.2,4.8-4.5,6.9-6.2,9.8c-1.7,2.9-3.5,7.6-4.7,10.4c-1.3,2.8-1.5,4.7-1.9,6.9c-0.4,2.2,0,4,0.6,6
	c0.5,2,2,3.3,4.1,4.6c2.1,1.3,3.4,1.4,6.8,1.4c3.4,0,6.4-0.8,10.8-2.2c4.4-1.4,8.5-2.9,11.3-3.6c2.8-0.7,5.8-0.6,9.7-0.6
	c3.8,0,4.6,0.1,7,0.6c2.4,0.5,2.9,0.6,4.9,1.6c2,1,2.6,1.7,3.9,2.9c1.3,1.3,2,2.8,2.5,4.1c0.5,1.2,0.7,1.8,0.7,1.8
	c0,0,0.5-0.1,0.5-0.1c0,0,0.3-2.2,0.3-4c0-1.8-0.4-3.2-0.7-4.5c-0.3-1.3-0.9-1.9-2-3.1c-1.1-1.2-2.2-1.8-3.5-2.5
	c-1.3-0.6-2.8-1-3.3-1c-0.5,0-1.3,0-1.7-0.2c-0.3-0.2-0.6-0.9-0.7-1.5c-0.1-0.6,0.5-1.4,1.2-2.6c0.7-1.2,1.9-3.1,2.4-3.9
	c0.5-0.8,1.2-0.7,1.8-0.6c0.5,0.2,1.6,0.7,3.2,1.5c1.6,0.9,2.5,1.7,3.9,2.8c1.3,1.2,3.1,2.5,3.9,2.9c0.9,0.4,2.3,0.5,3.6,0.3
	c1.3-0.2,2.3-1.3,3.8-3c1.5-1.7,3-4.7,5.6-9c2.6-4.3,3.6-6,5.5-9.4c1.9-3.4,2.7-5.2,3.4-6.3c0.7-1.1,0.9-2.4,0.9-3.8
	c0-1.4,0.1-3.1,0-5c0-1.9-1.1-2.6-2.3-4.1c-1.2-1.5-2.2-2.4-3-3.2c-0.8-0.9-1.3-1.8-1.3-2.2c0-0.4,0.1-0.8,0.6-1.1
	c0.6-0.4,1.2-0.8,2.4-1.8c1.2-1,2.3-2.2,3.8-4.1c1.5-1.8,1.9-2.7,2.9-4.2c1-1.5,1.5-2.7,2-3.5c0.5-0.8,1.1-0.7,1.7-0.7
	c0.6,0,1,0.2,1.3,0.8c0.3,0.6,0.9,2.4,1.6,5.1c0.7,2.7,0.8,4.6,0.9,8c0.1,3.4-0.4,8.3-1,10.4c-0.5,2.1-1.4,4.5-2.1,5.9
	c-0.6,1.4-1.8,3.1-3.2,5.4c-1.4,2.3-2.5,4.1-3.9,5.5c-1.4,1.4-2.1,2-2.6,2.3c-0.5,0.3-0.4,1.3-0.4,1.3s0.8,0,1.4-0.1
	c0.6-0.1,1.2-0.3,2.2-0.8c1-0.5,2.4-1.3,3.5-1.9c1.1-0.7,2.2-1.8,2.6-2.2c0.5-0.4,0.7,0.2,0.7,0.2c0,0,0.1,3.4,0.1,6.1
	c0,2.7-0.2,4.9-0.8,8.5c-0.5,3.5-1.6,6.8-2.6,10.2c-1.1,3.4-1.8,4.7-3.6,7.7c-1.7,3-3.4,4.9-5.4,7.2c-2,2.3-3.1,2.9-3.9,3.5
	c-0.9,0.5-1.3,0.6-1.8,0.8c-0.5,0.2-1.1,0.3-1.8,0.6c-0.7,0.3-1,0.7-1.5,1.3c0,0-0.2,0.2-0.8,0.3c-0.4,0-0.9,0.1-1.5-0.1
	c-0.6-0.1-1.2-0.5-2.4-0.7c-1.2-0.2-3.6,0-8.9-0.1c-5.3-0.1-10,0.7-14.2,1.6c-4.2,0.8-9.6,3.2-12.7,5c-3.1,1.8-6,5.4-8.5,8.5
	c-2.5,3.1-3.9,5.9-5.3,8.5c-1.4,2.5-2,3.9-2.1,5.1c-0.1,1.2-1.4,1.6-2.6,1.6c-1.1,0-1.9-0.3-4.2-1c-2.2-0.7-4.1-1.3-6.2-2.2
	c-2.2-0.9-3.7-1.5-5.1-1.8c-1.4-0.3-3-0.2-4.6,0c-1.6,0.2-3.2,1.4-4.7,2.6c-1.5,1.2-3.2,2.9-5.1,4.3c-1.9,1.5-3.8,2.6-3.8,2.6
	c0,0-5.2-1.3-12.5-4c-7.2-2.6-10.3-4.2-17.1-7.9c-6.7-3.7-12.1-8.4-16.8-12.4c-4.7-4-7-7.9-10.1-12.7s-4.2-8.8-5.3-12.7
	c-1-3.9-1.4-8.7-1.4-15.1c0-6.3,1-11.1,3.3-16.3c2.3-5.2,6.5-11,11.5-17.1c5.1-6.1,9.8-10.7,14.2-15.5c4.4-4.8,6.6-9.4,8.3-12.3
	c1.7-2.9,2.4-5.8,3-7.9c0.7-2.1,0.5-4.1,0.4-5.4c-0.1-1.3-0.9-2.7-1.2-3.2c-0.3-0.5-0.6-0.3-0.8-0.2c-0.2,0.1-0.1,0.9-0.2,3.1
	c-0.1,2.2-1,3.6-1.9,5.8c-0.9,2.2-1.9,3-3.6,4c-1.7,1-4.9,2-11.4,4c-6.5,2-11.9,2.5-18.5,2.8c-6.5,0.3-10.4-0.4-19.1-1.4
	c-8.6-1-16.6-4.2-23.9-6.7c-7.3-2.5-13.5-5-20.8-8.1c-7.3-3.1-12.6-5.2-17.1-6.8c-4.5-1.6-7.2-2.3-10-2.9c-2.8-0.6-5.3-0.3-7,0
	c-1.7,0.3-3.8,1.5-4.7,2.4c-0.9,0.9-1.5,2.6-1.7,4.2c-0.2,1.6,0.7,4.7,1,5.7c0.3,1,0.5,1.7,0.5,2.3c0,0.6-0.2,1.1-0.5,1.3
	c-0.2,0.1-0.9-0.2-1.5-1c-0.6-0.8-3.6-5.2-5.3-8c-1.8-2.7-2.8-7.1-3.3-8.9c-0.5-1.8,0.3-4.6,1.5-6.8c1.2-2.2,3.6-3,6.6-4.5
	c3-1.5,6.7-2,14.1-2.3L208.2,118.3z"/>
<path class="st3" d="M363.1,124.1c-4,0.9-8.1,1.8-9.7,2.6c-1.6,0.8-3.5,2-6.9,3.1c-3.4,1.1-7.7,2.3-13.9,4s-13.2,3.3-19.5,3.7
	c-6.3,0.4-17.4,0.7-26.6,0c-9.2-0.6-18.2-2.4-27.3-4.9c-9.1-2.4-17-5.8-21.3-7.4c-4.3-1.6-6.7-2.5-13.3-4.2
	c-6.6-1.6-11.7-2.9-19.1-2.7c-7.4,0.2-11,0.8-14.1,2.3c-3,1.5-5.5,2.3-6.6,4.5c-1.2,2.2-2,5-1.5,6.8c0.5,1.8,1.5,6.2,3.3,8.9
	c1.8,2.7,4.7,7.2,5.3,8c0.6,0.8,1.3,1.1,1.5,1c0.2-0.1,0.5-0.6,0.5-1.3c0-0.6-0.2-1.3-0.5-2.3c-0.3-1-1.2-4.2-1-5.7
	c0.2-1.6,0.7-3.3,1.7-4.2c0.9-0.9,3-2.1,4.7-2.4c1.7-0.3,4.2-0.6,7,0c2.8,0.6,5.5,1.3,10,2.9c4.5,1.6,9.9,3.7,17.1,6.8
	c7.3,3.1,13.4,5.6,20.8,8.1c7.3,2.5,15.3,5.7,23.9,6.7c8.6,1,12.5,1.7,19.1,1.4c6.5-0.3,11.9-0.8,18.5-2.8c6.5-2,9.7-3,11.4-4
	c1.7-1,2.7-1.8,3.6-4c0.9-2.2,1.7-3.5,1.9-5.8c0.1-2.2,0.1-3,0.2-3.1c0.2-0.1,0.6-0.3,0.8,0.2c0.3,0.5,1.1,1.9,1.2,3.2
	c0.1,1.3,0.3,3.3-0.4,5.4c-0.7,2.1-1.4,5-3,7.9c-1.7,2.9-3.9,7.4-8.3,12.3s-9.2,9.4-14.2,15.5c-5.1,6.1-9.2,11.9-11.5,17.1
	c-2.3,5.2-3.2,9.9-3.3,16.3c0,6.3,0.3,11.2,1.4,15.1c1,3.9,2.2,7.9,5.3,12.7s5.4,8.6,10.1,12.7c4.7,4,10.1,8.7,16.8,12.4
	c6.7,3.7,9.8,5.3,17.1,7.9c7.2,2.6,12.5,4,12.5,4s1.9-1.1,3.8-2.6c1.9-1.5,3.6-3.1,5.1-4.3c-1.7-1.1-5.3-4-9.2-6.9
	c-3.8-2.9-6.7-5.3-10.7-9.6c-3.9-4.3-6.3-7.3-8.8-12.6s-4.3-8.5-4.9-12.3c-0.6-3.8-1-6.9-0.9-11.9c0.1-4.9,0-8.2,1.1-12.2
	c1.1-4,2.9-8,5.4-12.6c2.6-4.6,5-8,8.8-11.4c3.8-3.4,10.3-7.8,10.3-7.8s-0.9-0.4-2.5-1.8c-1.6-1.4-3.9-3.9-4.6-6.5
	c-0.7-2.7-0.9-4.7-0.3-7.6c0.5-2.9,1.6-6.1,2.9-8.5s2.3-3.6,2.9-4.4c0.7-0.8,1.8-1.9,1.8-1.9s-2,0-3.9,0.8c-1.9,0.8-4.8,2-6.2,3
	c-1.3,1-3.2,2.3-4,3c-0.9,0.7-1.3,1-1.5,0.8c-0.2-0.2-0.5-0.8-0.4-1.3s0.5-1.7,1.1-3.2c0.6-1.5,1.2-3.1,3-6.2
	c1.8-3.1,3.8-6.1,6.5-9.1c2.7-3.1,4.5-4.8,6.6-6.9C359.9,126.2,363.1,124.1,363.1,124.1"/>
<path class="st4" d="M395.2,126.1c4.9,1.9,6.6,3,10.6,4.9c4,1.9,6.9,3.4,8.9,4.4c2,1.1,2.9,1.7,5.8,2.7c2.8,1.1,3.6,2.1,3.8,2.4
	c0.3,0.3,0.1,0.6-0.1,0.9c-0.2,0.3-0.8,0.2-0.8,0.2s-4.1,0.2-7.3,1c-3.3,0.8-6.7,2.3-8.8,3.2l-3.3-3.3c0.3-0.3,0.9-1,1-2.5
	c0.1-1.5,0.1-1.7-0.2-2.8c-0.3-1.1-1.5-3.6-1.5-3.6s-0.5,0.7-0.9,1.3c-0.4,0.6-0.9,1.1-1.4,1.5c-0.6,0.4-1.5,0.8-2.3,0.9
	c-0.8,0.1-3,0.1-4.4,0.1c-1.3,0-2.6-0.3-4.1-0.9c-1.5-0.6-2.8-1.3-4.4-1.8c0-0.8,0.3-2,1.2-2.2c0.8-0.2,1.8-0.6,2.8-1
	c0.9-0.5,2-1.3,2.9-2C393.5,128.9,394.4,127.6,395.2,126.1"/>
<path class="st4" d="M425.2,146.2c4.3-0.3,5.6-0.4,9.1-0.3c3.5,0.1,6,0.4,10.1,1c4.1,0.6,5.3,0.9,6.7,1.4c1.4,0.5,3.4,3,5.2,4.6
	c1.8,1.5,3.2,3.2,3.9,4.2c0.7,1,0.4,2.7,0.4,4.3c0,1.6-0.7,3.3-1.5,4.7c-0.7,1.4-2.3,3.3-3.7,4.6c-1.4,1.3-3,2.3-3.6,2.7
	c-0.5,0.3-1.4,0.3-2.4,0.4c-1,0-2.2,0-4.5-0.1c-2.3-0.1-3.6-0.3-3.6-0.3s-1-0.5-2.5-1.2c1-0.3,3.1-1.6,3.8-2.1
	c0.7-0.4,1.4-1,2.1-1.8c0.6-0.8,1.1-1.7,1.4-2.7c0.3-1,0.4-2.4,0.3-3.1c-0.1-0.7-0.3-1.8-0.5-2.4s-0.6-1.2-0.9-1.6
	c-0.3-0.4-0.4-0.9-0.4-1c0.1-0.1,0.4-0.3,1-0.2c0.6,0.2,1.8,0.7,2.8,1.2c1,0.6,2,1.2,2.7,1.9c0.8,0.7,1.3,1.2,1.6,1.5
	c0.3,0.3,0.6,0.8,0.8,1c0.2,0.1,0.6,0,0.7-0.1c0.1-0.1,0.3-0.5,0.3-0.9c0-0.4,0.1-1,0-1.5c0-0.5-0.3-1.1-1.4-2.4
	c-1-1.3-1.7-2.3-4.1-4c-2.4-1.7-3.4-2.1-6.4-3.4c-3-1.3-6.3-2.1-9.6-2.7C429.9,147.2,425.2,146.2,425.2,146.2"/>
<path class="st4" d="M462.4,170.8c1.5-1.8,1.9-2.7,2.9-4.2c1-1.5,1.5-2.7,2-3.5c0.5-0.8,1.1-0.7,1.7-0.7c0.6,0,1,0.2,1.3,0.8
	c0.3,0.6,0.9,2.4,1.6,5.1c0.7,2.7,0.8,4.6,0.9,8c0.1,3.4-0.4,8.3-1,10.4c-0.5,2.1-1.4,4.5-2.1,5.9c-0.6,1.4-1.8,3.1-3.2,5.4
	c-1.4,2.3-2.5,4.1-3.9,5.5s-2.1,2-2.6,2.3c0,0,1.7-3.5,2.7-5.6c1-2.1,2-4.4,2.7-6.6c0.7-2.2,1-4.9,1.1-6.7c0.2-1.7,0.2-3.7,0.2-4.1
	c0-0.4-0.4-0.5-0.6-0.5c-0.2,0-0.5,0.3-0.6,0.6c-0.1,0.3-0.3,0.9-0.6,1.5c-0.2,0.6-0.7,1.2-0.7,1.2s0-0.7,0.1-1.3
	c0-0.6,0.1-1.6,0-3.3c-0.1-1.7-0.3-3.6-0.4-4.7c-0.1-1.1-0.4-2.1-0.5-2.7C463.7,173,463.2,172,462.4,170.8"/>
<path class="st4" d="M466.9,204.3c1.1-0.7,2.2-1.8,2.6-2.2c0.5-0.4,0.7,0.2,0.7,0.2s0.1,3.4,0.1,6.1c0,2.7-0.2,4.9-0.8,8.5
	c-0.5,3.5-1.6,6.8-2.6,10.2c-1.1,3.4-1.8,4.7-3.6,7.7c-1.7,3-3.4,4.9-5.4,7.2c-2,2.3-3.1,2.9-3.9,3.5c-0.9,0.5-1.3,0.6-1.8,0.8
	c-0.5,0.2-1.1,0.3-1.8,0.6c-0.7,0.3-1,0.7-1.5,1.3c0,0-0.2,0.2-0.8,0.3c-0.4,0-0.9,0.1-1.5-0.1c-0.6-0.1-1.2-0.5-2.4-0.7
	c1.4-1.2,3.7-3.8,5.9-6.2c1.7-1.9,2.7-2.9,4.6-5.4c2-2.5,4.1-6.2,6-9.6c1.9-3.5,3-6.3,4.1-9.7c1.1-3.4,2.1-5.8,2.2-7.5
	C467.1,207.6,466.9,204.3,466.9,204.3"/>
<path class="st5" d="M316.5,167.4c0.7-1.2,1.5-2,2.4-2.9c0.8-1,2.2-2.7,2.8-3.4c0.6-0.7,1-1.2,1.2-1.6c0.2-0.4,2.4-2.9-1.4-0.9
	c-3.8,2-4.5,2.2-9.6,3.5c-5.1,1.2-8.1,2-15.7,2c-7.6,0-16.8-0.9-23-2c-6.2-1.1-12.4-2.6-21.5-5.7c-9.1-3.1-19.3-7.9-27.8-11.6
	c-8.5-3.7-11.6-5.3-14.9-6.2c-3.3-0.9-5.7-1.6-7.7-1.4s-3.3,0.9-4,1.7c-0.7,0.8-1.1,2.4-1.1,3.9s0.2,3.5,0.7,5.4
	c0.5,1.9,1.4,4.5,3.1,7.3c1.7,2.8,2.9,4.7,6.4,8.3s8.3,7.7,15.7,11.3c7.4,3.6,13.8,6.4,20.9,7.7c7.1,1.4,13.6,1.9,17.7,1.8
	c4-0.1,11.3-1.1,18.1-3.1c6.7-2,10.4-3.8,16.3-6c5.9-2.3,10.5-4.3,14-5.4C312.4,168.7,316.5,167.4,316.5,167.4z"/>
<path class="st5" d="M292.4,242.4c-0.3-1.8-1.3-2.7-1.9-4.4c-0.6-1.7-1.2-3.4-1.3-4.3c-0.1-0.9-0.4-1.9-0.8-1.9
	c-0.4,0-0.8,0.1-1.1,1c-0.3,1-0.8,1.7-2.2,3.5c-1.4,1.8-4.3,5.8-8.1,8.8s-7.8,6.3-11.1,7.3c-3.3,1-5,1.8-10.6,1.8
	c-5.5,0.1-12,0.2-16.7-0.5c-4.7-0.7-10.4-1.7-16-2.8c-5.6-1.1-8-1.8-12-2.2c-4-0.3-5.7-0.4-7.2-0.2c-1.4,0.2-2.4,1-2.9,1.6
	c-0.4,0.6-0.6,1.8-0.5,2.3c0.1,0.6,0.5,1.9,1,2.5s1.5,1.7,3.4,3.1c1.9,1.3,4.4,3.1,8.1,5c3.7,1.9,6.8,3.3,10.7,4.8
	c3.9,1.5,8.3,3,11.4,3.5c3.1,0.5,5.9,0.6,9.4,0.6c3.5,0,7,0,11.3-1.3c4.3-1.3,8.3-2.7,13.1-5.3c4.8-2.6,9.6-6.2,13.7-9.9
	c4-3.8,7.1-7.6,8.3-9.4c1.3-1.8,1.9-2.6,1.9-2.9C292.3,242.8,292.4,242.4,292.4,242.4z"/>
<path class="st3" d="M287.6,226c-0.3-2-0.3-2.7-0.4-4.7c-0.1-2-0.1-5.9-0.1-7.1c0-1.2,0.6-3.4-1.3-1.7c-2,1.6-5.2,4.2-9.6,6.3
	c-4.3,2.1-9.9,5-17.3,7.2c-7.4,2.1-13.9,3.7-22.5,4.6c-8.6,0.9-16.1,1.6-22.3,0.7c-6.2-0.9-8.2-1.5-11.9-2.4c-3.7-0.9-5.5-1.6-8-1.2
	s-4.9,0.8-6.2,2.4c-1.3,1.5-3.1,4.9-2.2,7.1c0.8,2.2,2,4.5,4.2,7.2c2.2,2.7,6.5,6.8,6.5,6.8s0.1-0.6,0.6-1.8
	c0.5-1.2,0.7-1.8,1.9-2.5c1.2-0.7,2-1.3,3.9-1.4c2-0.1,3.6-0.2,6.8-0.1c3.2,0.1,6.1,0.4,9.9,1.1c3.8,0.8,6.9,1.4,11.4,2.1
	s7.6,1,13.2,1.2c5.6,0.2,9.4,0.3,13.6-0.1c4.2-0.4,5.9-1,9.2-2.7c3.3-1.6,5.9-3.1,9-6.2c3.1-3.2,5.6-6.6,7.9-9.8
	C286.1,228,287.6,226,287.6,226z"/>
<path class="st4" d="M376.9,138c1.9,0.1,2.6,0.6,4.4,1.3c1.8,0.7,4.3,2,5.2,2.6s1.5,0.9,1.5,0.9l1.2,0.1c0,0,0.6,0.6,0.3,1.1
	c-0.3,0.5-0.8,0.8-1.3,0.9c-0.5,0-0.7,0.4-1,0.7s-1,0.7-2.1,1s-1.6,0.6-2.2,0.7s-1.2,0.1-2,0s-1.2-0.4-1.9-1
	c-0.8-0.6-1.7-1.5-2.1-2.1c-0.3-0.7-0.8-2.2-0.9-2.9c0-0.7,0-1.5,0.2-2.1S376.9,138,376.9,138z"/>
<path class="st4" d="M430.1,211.1c3,0.6,3.7,0.9,4.7,1.5c1,0.6,2.4,1.4,3.4,2.2c1,0.8,2.1,1.7,2.4,2.1c0.3,0.3,1.2,1.3,1.2,1.3
	s0.5-0.8,1.2-1.8s2-3,3.6-5.3c1.6-2.4,2.8-4.5,4.1-6.8s2.4-4.5,3.7-7c1.4-2.5,2.2-3.8,2.2-4.9c0-1.2,0.1-2.3,0-2.9
	c-0.1-0.6-0.3-1.3-0.6-2.1c-0.4-0.8-2-3.1-2-3.1s-1,0.8-1.3,1.4c-0.3,0.6-0.8,2-1.5,3.8c-0.7,1.8-1.2,2.9-2.3,5.4
	c-1.1,2.5-1.8,4.3-3.5,7.5c-1.7,3.2-3.4,5.7-4.2,7c-0.9,1.3-2,1.3-1.4-0.1s1.2-3.3,2.2-6c1-2.7,1.8-5.3,2.7-8.6
	c0.9-3.4,2-8.1,2.5-10.5c0.4-2.4,0.8-5,0.8-5s-1.8,0-4.3-0.3c-2.5-0.3-4.7-0.7-6.4-1.2c-1.8-0.5-4.4-1.5-4.4-1.5s0.3,2.6,0.3,4
	s0.1,4.8,0,8.3c-0.2,3.5-0.2,8.3-0.9,11.9c-0.7,3.6-1.1,7.2-1.4,8.3C430.5,209.7,430.1,211.1,430.1,211.1z"/>
<path class="st4" d="M466.2,155.5c0,1.1,0,1.8,0,2.5c0,0.6-0.1,1.1,0.2,1.3c0.4,0.2,1,0.1,1.3-0.2c0.3-0.3,0.7-1.1,1-1.6
	c0.4-0.5,0.8-1.4,0.9-1.9c0.1-0.6,0.3-1.7-0.2-2.4c-0.5-0.8-0.8-1.4-2-2.6s-1.7-1.8-3.6-3c-1.9-1.2-2.7-1.6-3.7-2s-1.8-0.7-1.9-0.5
	c-0.1,0.2-0.4,1,0.1,1.4s1.8,1.2,2.7,2c0.9,0.8,1.8,1.7,3.2,3.4S466.2,155.4,466.2,155.5z"/>
<path class="st2" d="M362.9,284.4c1.7-1,2.7-2.6,3.8-3.6c1.1-1,1.7-1.7,2.3-2.2s1.4-1.1,2.4-1.1c1,0,2.2,0.1,3.6,0.6
	c1.4,0.5,4.3,2.1,6.6,2.9c2.4,0.8,3.9,1.4,6.3,1.9c2.4,0.5,3.3,0.8,4.7,1c1.3,0.2,2.1,0.3,2.1,0.7c0,0.4,0.1,1.7,0,2.5
	c-0.1,0.8-0.4,1.5-0.9,2.6c-0.6,1.1-1,2-1.4,2.6c-0.4,0.6-0.6,0.8-0.9,1.1c-0.2,0.3-1,1-0.8,1.4c0.2,0.4,0.4,0.6,0.9,0.4
	c0.4-0.1,0.9-0.4,1.2-0.5c0.3-0.2,0.5-0.4,0.8-0.6c0.3-0.2,1-0.7,1.4-0.9s0.6-0.5,0.9-0.7c0.4-0.2,1.3-1,1.3,0.9
	c0,1.9-0.2,3.2-0.4,4.7s-0.8,3.4-1.3,4.5c-0.4,1.1-1.1,2.5-1.1,2.5s-1.2-1-2.6-2.2c-1.4-1.2-4.6-3.4-7.3-5.3
	c-2.7-1.9-5.1-3.9-6.7-5.5c-1.6-1.5-2.5-2.4-3-3c-0.5-0.6-2.3-2.1-1.8-0.3c0.5,1.8,1,3.9,2.3,6.1c1.4,2.2,2.7,4.2,4.8,6.1
	c2.1,2,3.4,3.2,5.7,4.9s3.4,2.5,4,2.9s1.3,0.8,1.3,1.9c0,1.1,0,2.7-0.4,4.2c-0.4,1.6-1.3,3.4-2.4,5.2s-1.6,2.8-1.7,3
	c-0.2,0.2-1,0.3-1.3,0.3c-0.3,0-0.8-0.4-1-0.8c-0.1-0.3-1.3-1.8-3.2-3.8s-4.3-4.7-6.2-6.9c-1.9-2.2-3.6-4.2-4.2-5
	c-0.5-0.8-1.1-1.8-1.2-2.3s-0.4-1.5-0.6-0.6c-0.2,1-0.6,2.7-0.5,3.7c0.1,1,0.5,3.1,0.9,4.1c0.5,1,1.5,2.9,3,4.7
	c1.5,1.8,2.6,3.4,4.8,6s3.4,4.1,4.1,5.3c0.7,1.2,1.4,2.2,1.4,2.7c0,0.5,0.1,1.3,0,1.7c-0.1,0.4-0.6,1.3-0.9,1.6
	c-0.4,0.3-1.2,1.2-1.9,1.8s-1.9,1.3-3.7,2.4c-1.8,1.1-3.5,1.9-5.2,3.4c-1.7,1.4-2.5,2.3-2.9,2.5c-0.4,0.2-1.4,0.4-1.9,0.4
	c-0.5,0-1.5,0-1.8-0.2c-0.4-0.2-1.9-1-3.5-2.7c-1.6-1.6-3-3.6-4.1-4.9s-1.5-1.7-1.7-2s-0.3-0.7-0.2-0.9c0-0.3,0.2-0.6,0.5-0.9
	c0.3-0.3,0.8-0.8,1.3-1.2c0.5-0.4,0.9-0.8,1.3-0.8c0.4-0.1,1-0.1,1.7,0.4c0.7,0.5,1.9,1.5,3.2,1.7c1.3,0.2,2.9,0.3,3.7,0.4
	c0.9,0,2.6,0.3,0.2-1.6s-3.2-2.7-3.9-3.3c-0.6-0.5-1.2-1-1.1-1.9c0-0.8,0.4-1.6,0.8-2.3c0.4-0.7,0.5-0.9,0.7-1.4
	c0.2-0.5,1.2-2.9-1.2-0.6c-2.3,2.3-5.2,4.3-8.3,6c-3.1,1.7-8.6,5.1-15.5,6.2c-6.9,1-16,1-16,1s-2-1-2.7-1.9
	c-0.8-0.9-1.9-2.2-2.5-3.6c-0.6-1.4-1.1-3.1-1.1-4.6c-0.1-1.4,0-3.3,0.2-4.6c0.3-1.3,1-2.7,2-4.1c1-1.3,2-2.3,3.8-4.1
	c1.8-1.8,4.1-3.8,6.7-6.2c2.7-2.4,4.3-3.6,7.5-6s6.3-4.4,10.2-6.9c4-2.5,7.6-4.2,11.2-6.1C361.1,285.5,362.8,284.5,362.9,284.4z"/>
<path class="st2" d="M610,227.1c0.6-0.2,1.2-0.5,2-0.4c0.8,0,1.2-0.1,2,0.1c0.8,0.2,1.9,0.8,2.4,1.7s1,1.5,1.3,2.5
	c0.3,1,0.7,1.9,0.7,3.9c0,1.9,0,3.4-0.1,4.3c-0.2,0.9-0.5,2.2-0.7,2.6c-0.2,0.4-0.5,1.1-0.6,1.1c-0.1,0-0.4-0.1-0.4-0.8
	c0-0.8-0.1-2-0.3-3c-0.2-1-0.5-2-0.8-2.8c-0.3-0.8-0.5-1.1-0.9-1.2s-0.9-0.2-1.3,0c-0.4,0.1-0.8,0.4-1.6,0.9s-1.7,0.8-2.4,1.1
	c-0.8,0.3-1.4,0.5-1.7,0.6s-0.8,0.3-0.8,0.6c0,0.2,0,1,0.1,1.3c0.1,0.4,0.9,1.6,1.5,2.7c0.7,1.1,1.5,2.3,3,4.4
	c1.5,2.1,3.1,4.1,4.9,5.6c1.8,1.5,3.1,2.5,3.7,2.7c0.6,0.2,2,0.2,3.6,0.1c1.6-0.1,2-0.4,3.3-0.8c1.3-0.4,3-1.4,4.3-2.1
	s2.1-1.4,2.6-1.8s0.9-0.7,0.3-1.3c-0.6-0.6-1-1-1.5-1.4s-0.9-0.8-1.7-1c-0.9-0.2-1.6-0.3-2.6-0.3c-1,0-1.5-0.4-1.5-0.8
	c0-0.4,0-1,0.6-1c0.6,0,1.7,0,2.5,0c0.9,0,1.5,0.1,2.2,0.2c0.7,0.2,1.3,0.4,1.8,0.5c0.4,0,0.9-0.2,1.1-0.4c0.2-0.2,0.3-0.7,0.3-1.2
	c0-0.4-0.1-1-0.4-1.7c-0.3-0.7-0.9-2-1.4-4.1c-0.5-2.1-0.9-4-1.1-7.8c-0.2-3.8-0.4-7.7-0.4-10.8c0-3,0-4.3,0-5.2
	c0-0.9,0.2-1.4-0.6-2.7c-0.8-1.3-1.1-1.5-1.9-2.4c-0.9-0.9-1.6-1.5-2.8-1.7c-1.2-0.2-2.3-0.1-4.2,0s-3.6,0.3-6.1,1.1
	c-2.4,0.8-6,2.5-10.7,4.3c-4.7,1.8-12,4.9-16.7,6.9c-4.6,2-9.2,4.9-11.4,7.3c-2.2,2.5-4,4.7-4.1,6.9c-0.1,2.2-0.4,4.9,0,6.1
	c0.4,1.2,1.2,3.8,2.4,5.8c1.3,2,2.6,3.8,4.8,5.7c2.2,1.9,4,3,6,4c2,1,5,1.8,7,2.1c2,0.3,5,1.2,7.5,2.6c2.6,1.4,4.3,2.9,5.9,4.6
	c1.7,1.6,3.7,3.3,4.4,3.4c0.7,0.1,2.5,0.1,4.5,0.2c2,0.1,3.1,0,4.3-0.7c1.2-0.7,2.7-1.8,3.5-2.8s1.3-3.8,1.3-3.8s-1.4,0-2.8,0
	c-1.4,0-2.6-0.1-3.8-0.9c-1.2-0.8-1.9-1.2-4.5-3.3c-2.6-2.1-4.8-4-7.1-7c-2.3-3-3.9-5.5-4.7-7.8c-0.8-2.4-0.8-3.5-0.7-4.5
	c0.1-1,0.3-1.7,0.8-2.3c0.5-0.6,0.9-1.4,2.7-2.3c1.8-1,2.5-1.6,3.6-1.9c1.1-0.3,1.6-0.5,2.1-0.6c0.5-0.1,1.1-0.3,1.2-0.7
	c0.1-0.4,0.1-0.7-0.1-0.9c-0.2-0.3-0.5-0.3-0.9-0.4C610,228,608.9,227.5,610,227.1z"/>
<path class="st2" d="M691.1,332.3c-4.3,0-2.4,0-5.7,0.1c-0.1,0-6.9,1.2-9.7,2.2c-2.8,1-6.8,3.8-9,5.9c-2.2,2.1-3.2,6.2-3.5,8.1
	c-0.3,1.9,0.1,5.4,0.5,7.3c0.4,2,2.6,5.1,3.9,6.2c1.2,1.1,5.6,3.4,9,3.5c3.3,0.1,8.3,0.1,12.2-0.9c3.9-1,11.3-4,14.9-5.9
	c3.6-1.9,8.1-6.1,9.7-7.9c1.6-1.8,2.2-3.9,2.4-5.8c0.2-1.8-0.5-4-1.6-5.5c-1.1-1.5-3.3-2.9-6.2-4.3c-2.9-1.4-6.4-2.2-9.8-2.6
	C694.1,332.4,696.5,332.5,691.1,332.3z M653.5,324.7c13.3,0,7.2-0.1,18.2,0.3c9.7,0.5,15.6,1.2,21.1,2c5.5,0.8,10.1,1.8,14.2,3.1
	c4.1,1.4,5.5,2.1,8.3,3.5c2.8,1.4,5.1,3.4,6.3,4.8c1.2,1.5,1.5,2.2,1.5,3.5c0.1,1.3-0.1,2.7-0.8,4.7c-0.8,2-2.6,4.5-5.9,7.5
	c-3.3,3-8,6.2-11.4,8.2c-3.4,2-6.1,3.3-10.5,5.4c-4.4,2.1-6.5,2.9-10,4.5c-3.5,1.5-5.5,2.7-9.3,4.5c-3.8,1.9-5.5,2.7-8.1,4.3
	c-2.6,1.6-5.1,3.2-5.1,3.2c0,0,0.6-2.4,1.4-4.1c0.8-1.8,1.8-3.7,2.6-5.1c0.8-1.4,1.6-2.6,3-4.5c0-0.1-2.5,1.5-5,3.7
	c-2.4,2.2-4.1,4.6-6.3,7.8c-2.2,3.2-4.8,8.1-9.6,15.4c-4.8,7.4-7.3,11.1-11.3,15.2c-4.1,4.1-9.3,8.2-11,10c-1.8,1.8-1.5,0.1-1.5-0.9
	c0-1-0.2-2.3-0.3-3.9c-0.1-1.6-1.6-2.2-3.3-2.9c-1.7-0.7-5.1-1.3-7.8-1.4c-2.8,0-5.4,0.5-6.9,1c-1.5,0.5-2.7,0.3-2.9-0.1
	c-0.3-0.4,1.3-1.7,2.8-2.8c1.5-1.2,4.7-4.1,8-7.4c3.3-3.3,4.7-5.6,6.3-8.1c1.6-2.4,1.5-5.6,1.5-5.6c0,0-2.3,3.4-4.4,5.5
	c-2.1,2.1-4.6,4.3-7.8,6.8c-3.2,2.5-6.2,5.2-7.8,6.6c-1.6,1.4-2.5,0.8-2.8,0.7c-0.2-0.2-0.2-1.1-0.2-2.1c0-1-0.3-2-0.7-2.9
	c-0.4-0.8-1.5-2-2.6-2.9c-1.1-0.9-3-1.9-5.8-2.6c-2.8-0.7-6.8-1-10.9-1c-4.1,0-6,0.3-10.3,0.8c-4.3,0.4-7.5,1.5-11,2.8
	c-3.6,1.3-4.9,2.3-7.6,3.9c-2.7,1.7-4.6,3.9-5.6,4.7c-1,0.8-1.6,1.6-2.6,2.9c-1,1.3-1.6,3.8-1.8,5.3c-0.2,1.5,0,3.9,0.1,5.2
	c0.1,1.3,1.3,2.5,2.1,3.3c0.8,0.7,1.1,1,1.5,2.2c0.3,1.2-0.7,1.2-1.6,1.1c-0.9-0.1-1.9,0-3.7-0.5c-1.8-0.6-3.8-1.2-5.7-2.9
	c-1.9-1.7-2.1-3.1-2.5-5.7c-0.3-2.5-0.4-6.9,0.1-10.7c0.5-3.9,1.9-8.5,2.3-10.2c0.4-1.7,1.7-1.1,2.7-0.9c0.9,0.1,1.7,0.3,4,0.3
	c2.4,0,3.2,0,7.3-0.2c4.1-0.3,4.7-0.2,16.7-2.8c12-2.6,17-6.5,22.5-9.3c5.5-2.8,8.8-5.8,11.8-8.9c3-3.1,4.1-5.5,5-6.7
	c0.9-1.2,0.2-2.1,0-2.1c-0.2,0-0.7,0.5-1.9,1.5c-1.2,1.1-2.6,2.5-3.7,3.5c-1.1,1-1.8,1.9-2.1,2.2c-0.3,0.3-0.9,0.3-1.1,0.2
	c-0.2-0.1-0.3-0.5-0.3-0.8c0-0.3,0.2-1.1,0.4-2c0.2-0.9,0.2-1.7,0.1-3.7c0-2-0.7-2.7-1.7-3.7c-1-1.1-2.4-1.9-4.9-2.8
	c-2.5-0.9-5.4-1.2-9.3-1.3c-3.9-0.1-7.5,0.4-11.1,1c-3.6,0.5-7.9,2.2-11.8,3.8c-3.8,1.6-6.7,4-9.5,6.5c-2.8,2.4-4.7,5.3-6.2,7.5
	c-1.5,2.2-1.5,4.2-1.5,6.6c0,2.5,0.2,3.2,1.6,4.8c1.4,1.6-0.3,1.5-1,1.4c-0.7-0.1-1.2,0-2.5-0.1s-2.1-0.2-2.8-0.6
	c-0.7-0.4-1.7-1-2.5-1.9c-0.8-0.9-0.6-2.8-0.4-5.2c0.1-2.4,1.4-6.9,3.1-10.8c1.8-3.9,3.9-7.9,7.6-13.7c3.7-5.8,10.1-12.6,13.7-15.9
	c3.6-3.3,10.9-7.7,18.6-10.5c7.7-2.7,16-4.8,32.3-7.3c16.4-2.5,29.7-3.6,37.8-4C649,324.8,645.7,324.9,653.5,324.7z"/>
<path class="st2" d="M548.9,378.2c4-3.1,5.7-4,9.6-5.7c3.9-1.7,7.4-3.2,10.3-3.9c2.9-0.7,7.5-1,11.8-0.7c4.3,0.3,5.8,0.6,6.6,1.5
	c0.8,0.9,1.2,2,1.1,3.6c-0.1,1.6-0.5,3-1.5,4.3s-1.6,2.4-4.3,4.4c-2.7,2-5.3,4.1-9.6,5.9c-4.3,1.8-9.3,3.4-13.6,4.6
	c-4.3,1.1-6.4,1.8-9.1,1.5c-2.7-0.3-4.7-1.6-5.6-2.7c-0.9-1.1-1.4-2.9-1.2-4.1c0.2-1.2,0.5-3.4,1.9-5.1S548.9,378.2,548.9,378.2z"/>
<path class="st2" d="M549.1,412.7c4.7-3.6,6.3-4.5,9.9-5.8s6.7-2.2,9.8-2.9c3.1-0.7,7-1.4,10.7-1.3c3.7,0.1,6.4,0.3,8.1,0.7
	c1.7,0.4,2.4,0.7,3.4,1.5c1,0.8,2.7,2,2.8,3.4c0.1,1.5,0.3,3.2,0.1,4.1c-0.2,0.9-1.2,2.3-3.1,3.4c-1.8,1.1-7.2,3.9-12.5,5.9
	c-5.4,2-14.4,4.9-17.9,5.7c-3.5,0.8-5.8,1.1-7.5,0.8c-1.7-0.2-4.3-1.6-5.5-3c-1.1-1.4-2.3-2.9-2.3-5c0.1-2.1,0.4-3.9,1.3-5
	C547.3,414.2,549.1,412.7,549.1,412.7z"/>
<path class="st2" d="M582.2,427.4c3.2-1.8,5.5-3.3,8.1-4.4c2.6-1.1,4.4-1.8,7.5-2.9c3.1-1.1,6.4-2.1,9.1-2.4c2.7-0.3,5-0.6,7-0.4
	s3.2,0.3,4.2,0.6c1,0.3,2.2,1.1,2.4,1.8c0.3,0.7,0.1,2-0.6,3c-0.6,1-2,3-3.7,4.5c-1.7,1.5-5,3.5-8.1,4.8c-3.1,1.3-6.9,2.9-11.6,4.3
	c-4.7,1.5-10,2.9-13,3.3c-3,0.5-5,0.5-6.3,0.5c-1.3-0.1-1.8-0.4-1.8-1.6c-0.1-1.2-0.1-2.1,0.1-3.1c0.2-1,0.7-2.1,1.3-3
	c0.6-0.9,1.8-2.4,2.7-3.1C580.3,428.5,582.2,427.4,582.2,427.4z"/>
<path class="st2" d="M478.6,591.4l5.9,5l1.6-0.1c0,0,0-0.8,0.1-1.8c0.1-1,0.7-2.5,1.4-3.8c0.7-1.3,1.4-2.4,2.4-3.3
	c1-0.9,1.5-1.6,2.6-2.5c1-0.9,3-2.6,3-2.6s-4.1-3.6-6.8-6.2c-2.7-2.6-5.1-5.1-7.2-7.9c-2.1-2.7-3.5-5.2-5.2-7.2
	c-1.7-2.1-5.1-4.9-5.1-4.9l-4.4,4.5c0,0-2.6,3-4.1,4.3c-1.5,1.3-4,3.8-4,3.8s1.2,0.4,2.7,0.7s4.7,0.6,7.5,2.6c2.8,2,4.8,3.6,6.3,5.8
	s2.7,4.3,3.1,7.5C478.7,588.6,478.6,591.4,478.6,591.4z"/>
<path class="st4" d="M630.2,258l0,2.9c0,0,1.6,0.2,3.2,0.2c1.6,0,3-0.4,4.1-0.8c1.2-0.4,1.7-0.8,2.9-1.7c1.1-0.9,1.5-1.4,2.3-3
	s1.1-2.7,1.4-4.6c0.3-1.8,0.7-4,0.8-7.8c0.1-3.9,0.1-7.6,0-12.8c0-5.3,0-8.5-0.1-9.4c-0.1-0.8-0.5-1.9-1.2-2.5
	c-0.6-0.6-1.3-1.2-2-1.3c-0.7-0.2-1.3-0.2-1.9-0.2c-0.6,0-1.3,0.2-1.9,0.5s-0.9,1.1-0.8,3.2c0,2.2,0.5,6.5,0.7,10.4
	c0.2,3.9,0.8,6.4,1.4,8.5c0.6,2,0.9,2.3,1.3,3c0.4,0.7,1,1.7,1,3.7c0,2-0.2,3.6-1,4.9c-0.8,1.2-2.3,2.8-3.8,3.8
	c-1.4,1-2.1,1.3-3.5,1.9C631.6,257.5,630.2,257.9,630.2,258z"/>
<path class="st4" d="M637,265.9v0.7c0,0,1.4,0.3,2.6,0.4c1.2,0.1,2.4,0,3.7,0c1.3-0.1,1.9-0.3,3.2-0.9c1.3-0.6,2.2-1,3.4-2.5
	s1.5-2.5,2.3-5.4c0.8-3,1.2-4.6,1.6-6.8c0.4-2.1,0.9-4.2,1.4-5.6c0.5-1.4,1-2.3,1.4-3.1c0.4-0.8,0.5-2.1,0.5-3.3s0-2.4-0.7-3.3
	c-0.7-0.8-1.3-1.6-2.1-2.2c-0.8-0.6-1.5-1-2-1.1c-0.5-0.1-1.1-0.1-1.2,0c-0.1,0.1-0.8,0.2-0.7,1.4c0,1.2,0.2,3.6,0.2,6.1
	c0,2.6-0.1,5.1-0.2,7.5s-0.4,4.1-1,6.2c-0.6,2.1-1,3.3-1.8,4.9c-0.8,1.6-1.8,2.8-3.1,3.6c-1.3,0.9-2.3,1.5-3.7,2
	C639.4,265.2,636.9,266,637,265.9z"/>
<path class="st4" d="M626.8,254c1.3-0.4,3-1.4,4.3-2.1s2.1-1.4,2.6-1.8s0.9-0.7,0.3-1.3c-0.6-0.6-1-1-1.5-1.4s-0.9-0.8-1.7-1
	c0,0-1.8,2-2.4,3.1C627.7,250.5,627.1,252.2,626.8,254"/>
<path class="st4" d="M616,208.2c2.4-0.8,4.2-0.9,6.1-1.1c1.8-0.2,3-0.2,4.2,0c1.2,0.2,2,0.8,2.8,1.7c0.9,0.9,1.1,1.1,1.9,2.4
	c0.8,1.3,0.6,1.8,0.6,2.7c0,0.9,0,2.2,0,5.2c0,3,0.2,6.9,0.4,10.8c0.2,3.8,0.6,5.7,1.1,7.8c0.5,2.1,1.1,3.5,1.4,4.1
	c0.3,0.7,0.4,1.3,0.4,1.7c0,0.4-0.1,0.9-0.3,1.2c-0.2,0.2-0.6,0.5-1.1,0.4c-0.4,0-1.1-0.3-1.8-0.5c-0.7-0.2-1.3-0.2-2.2-0.2
	c0,0-0.4-5.6-1.3-8.9c-0.8-3.3-1.3-5.1-1.9-8.4s-0.8-3.9-1.2-6.1c-0.4-2.2-0.8-4.2-1.5-5.4c-0.7-1.2-2.6-3-3.4-3.9
	C619.6,210.7,617.1,209.1,616,208.2"/>
<path class="st3" d="M588.6,219.4c-4.6,2-9.2,4.9-11.4,7.3c-2.2,2.5-4,4.7-4.1,6.9c-0.1,2.2-0.4,4.9,0,6.1c0.4,1.2,1.2,3.8,2.4,5.8
	c1.3,2,2.6,3.8,4.8,5.7c2.2,1.9,4,3,6,4c2,1,5,1.8,7,2.1c2,0.3,5,1.2,7.5,2.6c2.6,1.4,4.3,2.9,6,4.6c1.7,1.6,3.7,3.3,4.4,3.4
	c0.7,0.1,2.5,0.1,4.5,0.2c2,0.1,3.1,0,4.3-0.7c1.2-0.7,2.7-1.8,3.5-2.8s1.3-3.8,1.3-3.8s-1.4,0-2.8,0c-1.4,0-2.6-0.1-3.8-0.9
	c-1.2-0.8-1.9-1.2-4.5-3.3c0,0-1.5,1.4-2.8,1.3c-1.3-0.1-2.8-0.4-4.9-1.4c-2.1-1-2.7-1.7-4.6-3.3c-2-1.6-2.6-2.7-4.1-4.5
	s-3.4-3.2-4.4-3.6c-1-0.4-2-0.5-4.6-1.9c-2.6-1.4-3.4-2.5-4.8-4.1c-1.4-1.6-1.6-4.8-1.7-7.1c-0.1-2.3,1.6-4.8,2.5-6.5
	C584.8,223.6,586.9,221.1,588.6,219.4"/>
<path class="st4" d="M707,330.1c-4.1-1.4-8.7-2.4-14.2-3.1c-5.5-0.8-11.4-1.5-21.1-2c-9.7-0.5-19.9-0.4-28.1,0
	c-8.2,0.4-21.4,1.6-37.8,4c-16.4,2.5-24.6,4.6-32.4,7.3c-7.7,2.7-15,7.1-18.6,10.5c-3.6,3.3-10.1,10.2-13.7,15.9
	c2.8-1.8,6.2-4.6,10.7-7.2c4.5-2.6,6.1-3.7,12.1-6.5c6-2.7,13.4-5.8,16-6.7c2.6-0.8,5.8-1.8,9.9-2.8c4.1-1,6.8-1.6,8.3-1.8
	c1.5-0.2,4-0.5,4-0.5s-0.7,1.4-1.4,2.2c-0.7,0.8-1.5,1.9-2.3,2.9c-0.8,1-1.8,2-2.8,3c-1,1-2.1,2-2.9,2.7c-0.8,0.7-3.3,2.5-3.3,2.5
	s2.5-0.4,5-0.9c2.5-0.5,6.4-1.4,10.8-2.7c4.5-1.3,8.9-2.8,15.8-5.1c7-2.3,8.8-3.2,14.5-5s7.6-2.7,14.4-4.2c6.8-1.6,9.9-2.4,15.3-3
	c5.4-0.6,13.1-1.1,19.3-1.2C690.6,328.2,707,330.1,707,330.1"/>
<path class="st3" d="M539.1,400.2c-2.4,0-3.1-0.2-4-0.3c-0.9-0.1-2.3-0.8-2.7,0.9c-0.4,1.7-1.8,6.4-2.3,10.2
	c-0.5,3.9-0.4,8.2-0.1,10.7c0.3,2.5,0.6,4,2.5,5.7c1.9,1.7,4,2.4,5.7,2.9c1.8,0.6,2.8,0.4,3.7,0.5c0.9,0.1,1.9,0,1.6-1.1
	c-0.3-1.2-0.7-1.4-1.5-2.2c-0.8-0.7-2-2-2.1-3.3c-0.1-1.3-0.3-3.7-0.1-5.2c0.2-1.5,0.9-4,1.8-5.3c1-1.3,1.6-2.1,2.6-2.9
	c0,0-1.7-2-2.2-2.5s-1.3-1.2-1.9-1.8s-0.8-1.3-1.2-2c-0.3-0.7-0.3-1.3-0.3-1.9C538.5,402.1,538.9,400.8,539.1,400.2"/>
<path class="st3" d="M597.9,405.2c0.4,0.8,0.7,1.8,0.7,2.9c0,1-0.1,2,0.2,2.1c0.3,0.2,1.2,0.7,2.8-0.7c1.6-1.4,4.7-4.1,7.8-6.6
	c3.2-2.5,5.7-4.7,7.8-6.8c2.1-2.1,4.4-5.5,4.4-5.5s-4.2,2.7-7,4.6c-2.6,1.7-5.4,3.7-8,5.3C604.2,402.1,600.7,403.9,597.9,405.2"/>
<path class="st3" d="M669,370.5c0-0.1-2.5,1.5-5,3.7s-4.1,4.6-6.3,7.8s-4.8,8.1-9.6,15.4c-4.8,7.4-7.3,11.1-11.3,15.2
	c-4.1,4.1-9.3,8.2-11,10c-1.8,1.8-1.5,0.1-1.5-0.9s-0.2-2.3-0.3-3.9c-0.1-1.6-1.6-2.2-3.3-2.9c2.2-1.9,5.2-4.6,7.4-6.5
	c2.2-1.9,3.6-3.8,6.5-6.8c2.9-3,3.9-4.7,6.8-8.1c2.9-3.4,4.9-5.9,7.3-8.6c2.4-2.7,3.4-4.2,6-6.5c2.6-2.3,3.3-3.7,6.3-5.3
	C663.9,371.5,669,370.5,669,370.5"/>
<path class="st6" d="M548.9,378.2c0,0-2.3,1.8-3.7,3.5c-1.4,1.7-1.7,3.9-1.9,5.1c-0.2,1.2,0.4,3,1.2,4.1c0.9,1.1,2.9,2.4,5.6,2.7
	c2.7,0.3,4.8-0.4,9.1-1.5c4.3-1.1,9.3-2.7,13.6-4.6c4.3-1.8,6.9-3.9,9.6-5.9c0,0-8.3,0.5-11.6,0.7c-3.3,0.2-7.4,0.3-10.2,0.1
	c-2.8-0.2-5.4-0.7-7.1-1.2C551.9,380.6,549.8,379,548.9,378.2"/>
<path class="st6" d="M549.1,412.7c0,0-1.8,1.6-2.7,2.7c-0.9,1.1-1.2,2.9-1.3,5c-0.1,2.1,1.1,3.6,2.3,5c1.1,1.4,3.7,2.7,5.5,3
	c1.7,0.2,4-0.1,7.5-0.8c3.5-0.8,12.6-3.6,17.9-5.7c5.4-2,10.7-4.8,12.5-5.9c1.8-1.1,2.8-2.5,3.1-3.4c0.2-0.9,0.1-2.6-0.1-4.1
	c-0.1-1.5-1.7-2.6-2.8-3.4c0,0-2,1.7-3.4,2.5c-1.4,0.7-3.9,2-6.7,3.4c-2.8,1.3-4.6,2-8,3c-3.4,1-5.9,1.5-8.8,1.8
	c-2.8,0.3-5.4,0.5-6.9,0.3c-1.6-0.1-3.5-0.4-4.8-0.9C551.1,414.6,550.1,413.8,549.1,412.7"/>
<path class="st6" d="M618,417.8c1,0.3,2.2,1.1,2.4,1.8s0.1,2-0.6,3c-0.6,1-2,3-3.7,4.5c-1.7,1.5-5,3.5-8.1,4.8
	c-3.1,1.3-6.9,2.9-11.6,4.3c-4.7,1.5-10,2.9-13,3.3c-3,0.5-5,0.5-6.3,0.5c-1.3-0.1-1.8-0.4-1.8-1.6c-0.1-1.2-0.1-2.1,0.1-3.1
	c0.2-1,0.7-2.1,1.3-3c0.6-0.9,1.8-2.4,2.7-3.1c0.9-0.7,2.7-1.8,2.8-1.8c0.4,0.7,0.9,1.7,1.5,2c0.6,0.3,2.4,0.6,4.5,0.7
	c2.1,0,4,0.1,6.1-0.2c2.1-0.3,4.8-1,7.8-2.2c3.1-1.2,7.4-2.8,9.9-4.3c2.5-1.5,3.8-2.3,4.5-2.8c0.7-0.5,1.2-1.2,1.3-1.5
	C618,418.6,618,417.8,618,417.8"/>
<path class="st4" d="M492.6,584.9c1-0.9,3-2.6,3-2.6s-4.1-3.6-6.8-6.2c-2.7-2.6-5.1-5.1-7.2-7.9c-2.1-2.7-3.5-5.2-5.2-7.2
	c-1.7-2.1-5.1-4.9-5.1-4.9l-4.4,4.5L492.6,584.9"/>
<path class="st4" d="M362.9,284.4c1.7-1,2.7-2.6,3.8-3.6c1.1-1,1.7-1.7,2.3-2.2c0.6-0.5,1.4-1.1,2.4-1.1c1,0,2.2,0.1,3.6,0.6
	c1.4,0.5,4.3,2.1,6.6,2.9c2.4,0.8,3.9,1.4,6.3,1.9c2.4,0.5,3.3,0.8,4.7,1c1.3,0.2,2.1,0.3,2.1,0.7c0,0.4,0.1,1.7,0,2.5
	c-0.1,0.8-0.4,1.5-0.9,2.6c-0.6,1.1-1,2-1.4,2.6c-0.4,0.6-0.6,0.8-0.9,1.1c-1.4-1.1-4.4-3-6.3-4.5c-2-1.6-4.1-3.2-6.1-4.5
	c-2-1.4-3.3-2.2-4.4-2.4c-1-0.3-1.9-0.4-2.4-0.4s-1.4,0-2.3,0.3c-0.8,0.3-2.5,0.7-3.9,1.3C364.7,283.8,362.9,284.4,362.9,284.4"/>
<path class="st4" d="M392.8,294.8c0.7,0.5,3.2,2.5,4,3.4c0.2-1.6,0.4-2.8,0.4-4.7c0-1.9-0.9-1.1-1.3-0.9c-0.4,0.2-0.4,0.4-0.9,0.7
	s-1.2,0.8-1.4,0.9C393.3,294.4,393,294.6,392.8,294.8"/>
<path class="st3" d="M380,335.8c-0.8,0.5-1.9,1.3-3.7,2.4c-1.8,1.1-3.5,1.9-5.2,3.4c-1.7,1.4-2.5,2.3-2.9,2.5
	c-0.4,0.2-1.4,0.4-1.9,0.4c-0.5,0-1.5,0-1.8-0.2c-0.4-0.2-1.9-1-3.5-2.7c-1.6-1.6-3-3.6-4.1-4.9s-1.5-1.7-1.7-2s-0.3-0.7-0.2-0.9
	c0-0.3,0.2-0.6,0.5-0.9c0.3-0.3,0.8-0.8,1.2-1.2c0.5-0.4,0.9-0.8,1.3-0.8c0.4-0.1,1-0.1,1.7,0.4c0.7,0.5,1.9,1.5,3.2,1.7
	c1.3,0.2,2.9,0.3,3.7,0.4c0.9,0,2.6,0.3,0.2-1.6s-3.2-2.7-3.9-3.3c-0.6-0.5-1.2-1-1.1-1.9c0-0.8,0.4-1.6,0.8-2.3
	c0.4-0.7,0.5-0.9,0.7-1.4c0.2-0.5,1.2-2.9-1.2-0.6c-2.3,2.3-5.2,4.3-8.3,6c-3.1,1.7-8.6,5.1-15.5,6.2c-6.9,1-16,1-16,1s-2-1-2.7-1.9
	c-0.8-0.9-1.9-2.2-2.5-3.6c-0.6-1.4-1.1-3.1-1.1-4.6c-0.1-1.4,0-3.3,0.2-4.6c0.3-1.3,1-2.7,2-4.1c1-1.3,2-2.3,3.8-4.1
	c0.7,1,2.2,2.3,3.1,3c0.9,0.8,2,1.6,3.3,2.1c1.3,0.5,2.9,0.9,4.7,1c1.8,0.1,2.5,0.2,4.9,0.1c2.5-0.1,6.3-0.8,6.3-0.8
	s0.7-0.2,0.1-0.5c-0.6-0.2-0.8-0.2-1.2-0.2c-0.4,0-1.5-0.2-2.6-0.7c-1.1-0.5-1.7-0.8-3.2-2c-1.5-1.1-2.1-1.7-2.5-2.1
	c-0.5-0.4-0.8-0.9,0.7-0.9c1.5,0,2.5,0,3.4,0.1c0.9,0.1,1.7,0.2,3.1,0.4c1.4,0.2,2.7,0.3,4.6,0.3c1.9,0,3.5-0.2,5.4-0.5
	c1.9-0.3,4.4-0.5,5.7-0.5c1.3,0,2.7-0.1,3.5,0.1c0.9,0.2,1.6,0,2.5,1.3c0.9,1.3,1.6,2.3,2.6,4.1c1,1.9,1.5,2.7,2.5,4.1
	c1,1.4,1.7,2.3,3.1,4c1.4,1.7,2.2,2.6,3.6,4c1.3,1.4,2.1,2.2,2.7,3.4S380,335.8,380,335.8"/>
<path class="st7" d="M447.9,179.1c0,0-1.8,0-4.3-0.3c-2.5-0.3-4.7-0.7-6.4-1.2c-1.8-0.5-4.4-1.5-4.4-1.5s0.3,2.6,0.3,4
	s0.1,4.8,0,8.3c-0.2,3.5-0.2,8.3-0.9,11.9c-0.7,3.6-1.1,7.2-1.4,8.3c-0.3,1.1-0.7,2.5-0.7,2.6c0.8-0.7,2.1-2.3,2.8-3.7
	c0.7-1.4,1.9-4.3,2.8-8c0.9-3.7,1.6-8.6,1.8-11.1c0.2-2.5,0.2-4.5,0.2-4.5s2-1.2,3.5-1.9c1.5-0.7,5.7-2.4,5.7-2.4"/>
<path class="st2" d="M202.1,229c3.7,0.9,5.7,1.5,11.9,2.4c6.2,0.9,13.8,0.2,22.3-0.7c8.6-0.9,15.1-2.5,22.5-4.6
	c7.4-2.1,13-5,17.3-7.2c4.3-2.1,7.6-4.7,9.6-6.3c2-1.6,1.4,0.5,1.3,1.7c0,1.2,0,5.1,0.1,7.1c0,0-1.9,1.8-4,3.7c-2,1.8-3.3,3.4-6.1,5
	c-2.8,1.6-4.9,2.6-7.7,3.6s-4.2,1.3-6.9,1.5s-4.3,0.4-7.4,0.3s-4.3-0.1-6.5-0.3c-2.2-0.2-1.4,0.5-0.9,1c0.4,0.5,1.3,1.3,3,2.7
	c1.6,1.3,3.9,2.7,6.4,3.7c2.4,1.1,3.1,1.3,3.1,1.3s-13.9-0.1-22-0.9c-8.1-0.7-10.9-1.4-14.8-2.5c-3.9-1.1-5.6-1.7-8.8-3
	s-5.3-2.6-7.3-3.9C205.3,232.3,203.4,230.5,202.1,229"/>
<path class="st4" d="M355.2,300c1-1.1,1.7-1.8,2.4-2.3c0.7-0.5,1.3-1,2-1.3c0.6-0.3,1.3-0.6,1.9-0.6c0.6,0,1.3,0.2,1.7,0.5
	c0.4,0.3,1.3,1,1.7,1.4c0.4,0.4,0.8,0.9,1,1.5s0.2,1.1,0.2,1.3c0,0.2-0.5,0.2-0.6,0.2c-0.2,0-0.6-0.1-0.8-0.2
	c-0.3-0.1-1-0.5-1.4-0.6c-0.4-0.1-1.1-0.3-1.5-0.3c-0.4,0-1.1-0.1-1.6-0.1c-0.4,0-1,0-1.5,0.3s-1.6,0.5-2.1,0.9
	c-0.5,0.3-1.1,0.5-1.3,0.5c-0.3,0-0.6,0-0.5-0.3C354.8,300.5,355.2,300,355.2,300z"/>
<path class="st4" d="M359.9,289.2c0.9-0.8,1.3-1.1,1.7-1.4c0.4-0.4,1.1-0.9,1.7-1c0.5-0.1,1.2-0.3,2.1-0.3s2,0,2.3,0.2
	c0.3,0.2,0.9,0.6,1.2,1c0.3,0.4,0.7,1.1,0.9,1.5c0.2,0.5,0.4,1.1,0.4,1.4s-0.3,0.6-0.5,0.6c-0.2,0-0.7,0-1-0.2
	c-0.3-0.2-0.7-0.7-1-0.8c-0.3-0.2-0.9-0.3-1.6-0.3s-1.3-0.1-1.9,0c-0.6,0-1.3,0.1-2,0.3c-0.6,0.2-1.4,0.4-1.8,0.6
	c-0.5,0.2-0.9,0.3-1.1,0.2c-0.2-0.1-0.4-0.3-0.3-0.6C359.3,289.9,359.9,289.2,359.9,289.2z"/>
<path class="st5" d="M685.3,337.4c3.7-0.3,6.8-0.4,9.7-0.2c2.9,0.2,6.6,0.8,9.1,1.5c2.5,0.7,4.2,1.5,5.3,2.3s1.9,1.6,2,2.2
	c0.1,0.6,0.4,2.5-0.4,3.5c-0.8,1-4.7,4.6-7.3,6.2c-2.6,1.6-7.6,4.1-11.1,5.3c-3.4,1.2-7.3,2.2-11.6,2.4s-7.5-0.5-8.6-1.1
	c-1.1-0.7-3.1-2.9-3.7-4.6c-0.6-1.7-0.7-3.9-0.5-5.6c0.2-1.7,1.4-4.5,2.4-5.6c1-1.1,3.6-3,5.5-3.9c1.9-1,3.6-1.5,5.3-1.9
	C683,337.6,682.9,337.5,685.3,337.4z"/>
<path class="st4" d="M484.8,542.1l0-0.9c0,0,2.9-2.8,6.7-7.3c3.8-4.5,10.4-12.6,17-22.2c6.6-9.6,9.7-15,12.5-19.7
	c2.8-4.7,9-14.8,9-14.8l1.2-0.2c0,0,2.5,0.3,3.8,1.3c1.3,0.9,3.2,2.7,4.4,4.4c1.2,1.8,2.4,3.9,2.8,6.3c0.4,2.4,0.5,4.3,0.3,6.3
	c-0.2,2-0.5,3.3-1.2,4.8c-0.7,1.6-1.2,2.6-1.6,3.4c-0.4,0.8-0.6,1.2-0.5,1.3c0.1,0.1,0.5,0.1,1.5-0.7c1-0.8,1.9-1.5,3.1-2.5
	c1.2-1.1,1.7-1.8,2-2.2c0.3-0.4,0.7-0.8,1.6-0.7c0.8,0.1,1.7,0.3,2.9,0.9c1.1,0.6,2.1,1.2,3.3,2.5c1.2,1.3,2.1,2.7,2.7,4.5
	c0.7,1.8,0.8,3.5,0.8,5.7c0,2.2-0.1,4.7-1.1,6.7c-1,2-1.8,3.5-3.2,5.3c-1.4,1.8-3.3,3.2-4.6,4.1c-1.2,0.9-1.8,1.2-2.1,1.2
	c-0.3,0-0.6-0.5-0.7-1.2s-0.2-1.3-0.6-2.6c-0.3-1.3-0.7-2.1-1.1-2.8c-0.4-0.7-0.7-1.1-0.8-1.3c-0.1-0.2-0.8-1-0.8,0.4
	c0,1.4,0,4.6,0,8.9c0,4.3-0.4,6.9-1.2,9.2c-0.8,2.3-1.6,4.1-2.5,5.5c-0.9,1.4-2.5,3-4.2,4c-1.6,1-4.1,1.9-6.3,2.4
	c-2.2,0.4-4.1,0.4-6.6,0.2c-2.4-0.2-4.5-1.1-6-1.9c-1.5-0.8-3.4-2.1-3.8-2.5c-0.4-0.4-0.6-1.3-0.4-1.7c0.2-0.5,0.7-1.1,1.3-2.3
	c0.6-1.2,1.2-2.6,1.2-4.2s0-2.9-0.3-4.1c-0.3-1.2-1.7-4.3-1.7-4.3s-0.1,3.6-0.5,4.9s-1.2,3.3-2.6,5.1c-1.4,1.8-2.7,3.6-4.7,4.6
	c-2,1-4,1.7-6.5,2c-2.5,0.2-4.1-0.1-6.3-0.8c-2.3-0.7-3.5-1.7-4.7-2.7C485.7,543.2,484.8,542.1,484.8,542.1z"/>
<path class="st7" d="M508.6,511.7c-6.6,9.6-13.2,17.7-17,22.2c-3.8,4.5-6.7,7.3-6.7,7.3l0,0.9c0,0,0.9,1.1,2.1,2.1
	c1.2,1,2.4,2,4.7,2.7c2.3,0.7,3.8,1,6.3,0.8c2.5-0.2,4.5-1,6.5-2c2-1,3.3-2.7,4.7-4.6c1.4-1.8,2.2-3.8,2.6-5.1s0.5-4.9,0.5-4.9
	s1.4,3.1,1.7,4.3c0.3,1.2,0.4,2.5,0.3,4.1s-0.6,3-1.2,4.2c-0.6,1.2-1,1.8-1.3,2.3c-0.2,0.5,0,1.3,0.4,1.7c0.4,0.4,2.2,1.7,3.8,2.5
	c1.5,0.8,3.6,1.7,6,1.9c2.4,0.2,4.4,0.2,6.6-0.2c2.2-0.4,4.6-1.4,6.3-2.4c0,0,0.3-2.1,0.6-4c0.3-1.9,0.5-4.3,0.6-6.8
	c0.1-2.4-0.1-4.5-0.5-7.1c-0.4-2.6-1-4.3-2.1-6.6c-1.1-2.3-2.6-4.5-4-6.1c-1.3-1.7-3-3.5-3.9-4.3c-0.8-0.8-2-1.8-2-1.8
	s0.8,3.2,1,4.4s0.2,2.5,0.2,4c0,1.5,0.1,2.2-0.1,4.7c-0.1,2.5-0.6,4.2-1.3,5.7c-0.6,1.5-1.3,2.5-1.8,3.1c-0.6,0.6-1.7,1.2-1.7,1.2
	s0.1-1.7,0.1-2.5c0-0.8-0.1-1.8-0.4-4.7c-0.4-2.9-1.3-5.1-2.5-7.7c-1.1-2.6-2.9-4.8-4-6C511.6,514,509.5,512.3,508.6,511.7"/>
<path class="st0" d="M347,284.3c-1.4-0.2-2.9-0.4-3.8-0.4c-0.9,0-2.3,0-3,0.2c-0.7,0.2-2.4,0.6-3.9,1.5c-1.5,0.8-3.5,2.3-6.6,4.8
	c-3.1,2.5-6.6,6.4-9.6,9.9c-3,3.5-5.3,6.5-7,8.4s-3.1,3.4-4.9,5.1c-1.8,1.7-3.3,3.2-3,3.7c0.3,0.5,1,0.6,1.7,0.6
	c0.7,0,2.1-0.5,3.3-1c1.2-0.4,2.8-1.1,3.7-2.1c0.9-1,1.4-1.7,2.2-2.9c0.8-1.2,1.6-2.4,3-3.7c1.4-1.4,2.5-2.7,4.4-4.3
	c1.9-1.6,3.3-2.8,6.3-5.2c3-2.4,5.8-4.4,9.2-6.8c3.4-2.4,5.2-3.7,6.9-4.4c1.7-0.7,2.7-1.3,2.6-1.7c0-0.4-0.2-0.9-0.4-1.2
	C347.8,284.6,347.1,284.3,347,284.3z"/>
<path class="st0" d="M313.1,334.7l-0.1-1.4c0,0-0.6-0.5-1-1.4c-0.5-1-1-2-1.3-3.4c-0.3-1.4-0.3-2.8-0.2-3.8c0.1-1,0.2-2-0.3-2.1
	c-0.5-0.1-1.5-0.2-2.9,0.4c-1.4,0.6-4.3,1.4-10.2,2.2c-5.9,0.8-10.1,1.3-15.4,1.7c-5.3,0.5-8.2,0.5-11,1.2c-2.8,0.8-5.9,1.7-9.2,3.6
	c-3.4,1.9-6.2,3.7-8.3,5.6c-2.1,1.9-3.4,3.1-4.9,5c-1.4,1.9-3.9,5.7-5.8,9.5c-1.9,3.8-3.6,8-4.6,11.1c-0.9,3.2-1.2,5.2-1.2,5.8
	c0,0.5,0,1.1,1.5,1.2c1.5,0.1,7.1,0.6,10.8,0.8c3.7,0.2,7.9-0.3,10.4-0.8c2.5-0.5,8.2-2.4,12.8-4.9c4.6-2.5,10-5.7,14.9-9
	c5-3.3,10.5-7.7,14.5-11.1c4-3.4,7.9-6.5,9.5-7.9C312.5,335.6,313,334.7,313.1,334.7z"/>
<path class="st0" d="M426.3,270.1c-0.7,0.1-0.4,0-0.9,0.3c-0.4,0.2-0.9,0.7-2,1.7c-1.1,1-2.3,2.1-3.6,3.7c-1.3,1.6-2.3,3.4-3.7,5.7
	c-1.4,2.3-1.7,4-2.1,5.8c-0.3,1.8-0.3,3.6-0.2,5.2c0.1,1.6,1,3.7,1.6,4.8c0.7,1.1,1.9,2.3,2.3,2.7c0.5,0.5,2.1,1.5,2.1,1.5
	c0,0-0.3-2.2-0.4-2.9c-0.1-0.7-0.1-1.6-0.2-2.6c-0.1-1.1,0.2-3,0.3-4.1c0.1-1.2,0.7-3.3,1.3-5.6c0.7-2.3,1.8-5.4,2.6-7.4
	c0.8-2,2.1-5.1,2.8-6.6c0-0.1,0.3-1,0.5-1.4c0.2-0.4,0-0.5-0.2-0.7L426.3,270.1z M447.9,399.4c0,0-3.9,5.2-5.4,7.7
	c-1.5,2.5-2.9,6.8-3.9,10.8c-1,3.9-1.3,7.3-1.4,11.3c-0.1,3.9,0.4,7.7,1.1,11.2c0.8,3.5,2,6.1,3.7,9.9c1.7,3.8,3.6,6.5,5.4,8.8
	c1.9,2.3,3.8,3.5,3.8,3.5c0,0-2.2-4.5-2.9-7.2c-0.7-2.8-1.3-5.9-2.1-9.7c-0.8-3.8-1-7.3-1.3-11.2c-0.2-3.8-0.2-7.9-0.1-10.8
	c0.1-2.8,0.5-8.5,0.9-11.7c0.4-3.2,1.1-7.5,1.4-8.8C447.4,401.5,447.9,399.4,447.9,399.4z M567.1,230.3c1.3,0,1.2,0.4,1.4,0.8
	c0.1,0.4-0.1,1.1-0.5,2c-0.4,0.9-0.3,3.2-0.3,5.3s0.8,4.8,1.7,6.2c0.9,1.5,1.9,2.7,2.3,3.2c0.3,0.5,0.2,1.3,0.2,1.7
	c0,0.5-0.5,0.5-0.9,0.5c-0.4,0.1-1.1,0.3-2.8,0.8c-1.8,0.5-4.1,1.6-8.1,3.2c-4,1.6-8.3,3.9-13.5,6.4c-5.2,2.5-10.2,4.9-15,7.3
	c-4.9,2.4-8.5,4-12.8,5.9c-4.3,1.9-8.6,4.1-13.5,6.4c-4.9,2.3-10.6,5.2-15.1,7.3c-4.5,2.1-8.1,3.9-14.8,7c-6.7,3-10.9,5.1-16,7
	c-5.1,1.9-9.9,3.4-14.4,4.4c-4.5,1-6.1,1.4-9.2,1.6c-3,0.2-4.3,0.2-6.8-0.1c-2.5-0.3-4.6-1-4.6-1c0,0,0.7,1,1.8,1.8
	c1.1,0.8,2.2,1.5,4.6,2.3c2.4,0.8,3.4,1.1,5.4,1.3c2,0.2,4.5,0.2,4.5,0.2s1,10.2,2,14.7c1,4.5,4,11.4,6.1,15.6
	c2.1,4.3,4.9,9.6,7.7,13.5c2.8,3.9,5.7,7.6,8.2,10.4c2.5,2.8,2.6,3.1,2.6,3.1c0,0-0.3,1.2-0.3,1.2c0,0-4.5,3.9-6.3,5.5
	c-1.8,1.6-3.7,5.6-3.7,5.6c0,0,4.3-2.9,9.5-6.1c5.2-3.3,8.6-5.4,17.7-9.7c9.1-4.3,15-6.6,25-9.8c10.1-3.2,21.9-5.8,27.2-6.8
	c5.3-1,7.2-1.4,8.8-1.6c1.6-0.2,0.7,0.8,0.7,0.8c0,0-2.9,3.8-4.8,6.1c-1.9,2.3-4,5.3-5.3,7.3c-1.3,2-2,3.2-2.9,4.7
	c-0.9,1.5-1.5,2.8-2,3.8c-0.5,1-0.8,1.6-1.9,3.8c-1.1,2.3-1.7,4.1-2.6,6.5c-0.9,2.4-1.1,3.9-1.6,5.6c-0.5,1.7-0.5,3.1-0.6,5
	c0,1.9,0.1,3.4,0.5,4.7c0.4,1.3,1,2,1.6,2.4c0.6,0.4,1.2,0.4,1.2,0.4c0,0,0.1,1.7,0.1,1.7c0,0-0.9,3.9-1.6,7.1
	c-0.8,3.2-1.4,6.9-1.6,9.6c-0.2,2.7,0.2,5.4,0.6,7.8c0.5,2.4,1.1,4.2,2.6,5.6c1.5,1.4,4.2,3,6.5,3.6c2.4,0.7,4.5,1.1,6.2,1.2
	c1.7,0.2,3.1,0.1,3.1,0.1s-0.1,1.5-0.1,2.3c0,0.8,0.4,2.4,1.2,3.5c0.8,1.2,2.4,2.8,3.2,3.5c0.9,0.7,2,1.2,2,1.2c0,0-0.2,1.2-0.2,1.2
	c0,0-0.5,0.5-1.3,1.1c-0.8,0.7-2.3,1.9-6,5.5c-3.7,3.6-6,6.3-9.1,10.2c-3.1,3.8-6.4,9-10.2,14.7c-3.8,5.7-8,13.2-12.5,20.1
	c-4.5,6.9-13,19.2-18,25.5c-5.1,6.3-12.4,14.5-19.2,21.5c-6.9,7-12.3,12.8-16.9,17.4c-4.6,4.6-9.9,9.5-13.4,12.9
	c-3.6,3.4-7.4,7.1-9.9,9.5c-2.5,2.4-5.4,5.5-6.5,6.4c-1,0.9-2.3,1.3-2.3,1.3c0,0-4.3,0.4-8.4,0.9c-4.1,0.5-9.2,1.5-13.6,2.2
	c-4.4,0.7-6.8,1.3-9.9,2.6c-3.1,1.3-5.3,3-7.1,4.6c-1.8,1.6-3.3,3.7-3.4,4.5c-0.1,0.8-0.6,1.2-1,1.2c-0.4,0-0.9-0.3-1.3-0.8
	c-0.4-0.5-1.9-1.5-3.6-2.4c-1.7-0.9-5-1.8-7.6-2c-2.7-0.2-6.7-0.4-10.8,0c-4.1,0.3-10.5,1.7-12.9,2.2c-2.4,0.5-4.3,1-4.8,1.2
	c-0.5,0.2-1.5,0.2-1.8,0c-0.2-0.2,0.2-1.7,0.5-2.5c0.3-0.7,2.3-6.5,4.4-12.8c2.2-6.3,4.7-13.9,5.9-16.7c1.2-2.8,2.7-7.4,4.4-11.1
	c1.7-3.6,4-9,5.7-12.2c1.6-3.2,3.3-6.7,5.4-10.1c2.1-3.4,4.3-7.5,5.9-9.8c1.6-2.4,3.2-4.9,4.8-7.3c1.6-2.4,3.9-5.7,5.8-8
	c1.8-2.3,3.8-5.1,5.4-6.9c1.6-1.9,3.4-4.1,4.8-5.5c1.4-1.4,3.1-3.4,3.1-3.4s-2.9,1-4.5,1.8c-1.5,0.8-2.7,1.6-4.1,2.6
	c-1.4,1.1-2.5,2-3.2,2.7c-0.7,0.7-1.1,1.3-1.1,1.3c0,0-1.4-0.4-1.4-0.4c0,0-1-1.6-2.3-3.5c-1.3-1.9-4.3-7-6.3-10.2
	c-2-3.2-7.1-12.6-9.6-17.8c-2.4-5.2-6.1-14.1-8-19.4c-1.8-5.3-3.8-11.9-5.2-17.2c-1.4-5.3-2.7-11.8-3.5-16.4
	c-0.8-4.6-1.6-10.4-2-14.5c-0.4-4-0.6-9-0.8-12.5c-0.1-3.4,0-10.5,0-15.4c0-5,0.2-12,0.3-16.4c0.2-4.3,0.8-11.3,0.9-14.3
	c0.2-3,0.6-7.2,0.8-9.2c0.2-2,0.8-4.9,0.8-4.9c0,0,0.6-0.7,0.6-0.7c0,0,0.9-0.6,1.8-1c0.9-0.5,1.5-0.6,2.1-0.7c0.6,0,1,0.3,1.2,0.9
	c0.2,0.6,0.6,1.4,1.4,2.5c0.8,1,3.6,4,5.3,5.6c1.7,1.6,3.9,3.5,5,4.3c1.1,0.8,2,0.9,3.7,1c1.8,0.1,2.8,0.1,3.8-0.4
	c1-0.5,1.6-1.2,2.8-2.3c1.2-1,1.1,0.1,1.2,0.5c0.1,0.4,0,1.7,0,3.6c0,1.9,0.2,5.8,0.3,8.8c0.1,3,0.3,5.9,0.4,8
	c0.1,2.1,0.3,3.5,0.4,4.3c0,0.9-0.1,3.1-0.1,3.1c0,0-1.4,1.4-2.8,3.3c-1.4,1.8-2.2,3.3-3.2,4.9c-1,1.6-1.2,2.4-1.9,3.9
	c-0.7,1.5-1.2,3.8-1.2,3.8s0.9-1,1.7-2c0.8-1,1.5-1.9,2.6-3.3c1.1-1.4,2.2-2.3,3-3.3c0.8-1,1.4-1.1,2-1c0.6,0.1,0.7,0.9,0.7,1.4
	c0,0.5,0,1.8,0.1,3.8c0.1,2.1,0.4,4.5,0.7,7.4c0.4,2.9,0.8,5.5,1,7.4c0.2,1.9-0.2,2.2-0.2,2.2c0,0-4.4,5.6-6.9,9.8
	s-3.9,7.9-5.6,11.7c-1.7,3.8-2.6,6.9-3.1,10.6c-0.5,3.7-0.4,7-0.4,9.7c0.1,2.7,0.3,5.2,0.3,5.2c0,0,0.7-4.6,1.5-8.1
	c0.8-3.5,1.4-5.3,2.2-8c0.9-2.7,2.7-6.5,3.6-8.1c0.9-1.7,1.8-3,2.9-4.9c1.1-1.8,2.9-4.4,3.9-6.2c1-1.8,2.8-3.7,2.8-3.7
	c0,0,0.8,6,2.5,13.5c1.8,7.5,5.1,20.4,7.6,27.1c2.5,6.7,5.9,14.6,9.3,20.6c3.3,6,6.9,11.1,10.1,14.5c3.2,3.4,8.3,7.5,9.4,8.3
	c1,0.8,1.4,1.2,1.6,1.6c0.2,0.4,0.4,0.9,0.9,0.9c0.5,0,0.6-0.8,0.7-1.2c0.1-0.4,0.3-0.8,1-1.7c0.7-0.9,1.3-1.7,2.5-3
	c1.1-1.4,2.2-2.6,2.6-3.2c0.5-0.6,0.8-1,1.2-1.2c0.4-0.1,0.4-0.6,0.4-1.2c0-0.6-0.9-0.9-0.9-0.9c0,0-0.8-0.6-2.6-2.5
	c-1.8-1.8-5.8-6.5-8.9-10.7c-3.1-4.2-4-6.2-6.1-9.8c-2.1-3.6-3.9-6.5-6-11.3c-2-4.8-2.9-7.3-4.1-10.8c-1.2-3.5-2.2-7.3-3.6-12.9
	c-1.4-5.6-2.7-11.4-3.4-14.8c-0.7-3.4-1.4-6.5-1.8-9.1c-0.4-2.7-0.9-5.6-1-6.5c-0.1-1,0.5-2.2,1.1-2.7c0.6-0.6,4.7-4.7,8-7.6
	c3.3-3,5.2-4.5,7.8-6.5c2.6-2,5.3-3.9,7.2-5.1c1.9-1.2,3.7-2.8,3.7-2.8c0,0-3.5,0.6-4.9,1c-1.5,0.4-3.2,1.3-5.8,2.6
	c-2.5,1.3-4.3,2.4-6.9,4.2c-2.6,1.8-3.8,2.8-5.4,4.2c-1.6,1.3-3.1,2.9-3.5,3.4c-0.4,0.5-1.1,0.8-1.7,0.8c-0.6-0.1-0.6-1-0.8-2
	c-0.2-0.9-0.4-2.2-0.6-3.7c-0.2-1.5-0.5-4.2-0.6-5.7c-0.1-1.5,0.1-5,0.1-5c0,0,1.1-0.8,2.3-1.4c1.3-0.7,4.6-2.4,8.2-3.7
	c3.6-1.2,5.7-1.9,8.9-2.6c3.2-0.7,5.8-1.2,8-1.6c2.2-0.4,6.4-0.7,6.4-0.7c0,0-6.3-0.8-8.8-0.8c-2.5,0-6,0.1-8.8,0.5
	c-2.8,0.4-4,0.8-6.1,1.3c-2.1,0.5-3.2,0.9-4.7,1.5c-1.5,0.6-2.8,1.2-3.2,1.3c-0.3,0.2-0.8,0.4-1.2,0.5s-0.9,0.1-1.2-0.2
	c-0.3-0.3-0.5-0.9-0.6-1.5c-0.1-0.6-0.1-1.8-0.1-1.8c0,0-0.4-24.1-0.4-25.3c0-1.2,0.7-2.1,1.1-2.7c0.4-0.7,0.6-1.3,0.9-2
	c0.3-0.7,0.1-1.8,0-2.2c-0.1-0.4-0.5-1-0.5-1.3c0-0.4,0.2-0.7,0.5-0.9c0.3-0.2,0.7-0.4,1.4-1.2c0.7-0.8,2.2-2.9,3.7-4.9
	c1.4-2,1.9-3.7,2.3-5.2c0.4-1.5,0.4-3,0.5-4.3c0.1-1.3,0.6-2.5,1.5-3.9c0.9-1.3,1.7-2.9,2.8-5c1.1-2.1,1.3-4.4,1.6-6.5
	c0.3-2.1,0.3-4.6,0.3-6.8c0-2.2,0.1-5.2,0-6.6c0-1.3-0.3-1.5-0.8-2.2c-0.5-0.6-1.3-1.3-2-1.7c-0.7-0.4-1.5-0.5-2.2-0.5
	c-0.7-0.1-1.1-0.7-1.2-1.4c-0.1-0.7,0.5-1.7,1.4-3.3c0.9-1.7,2.4-4,4.2-6.7c1.8-2.7,3.5-4.9,5.8-7.1c2.3-2.2,4.3-3.7,6.3-4.9
	c1.9-1.2,3.6-1.7,6-2.6c2.4-0.8,4.6-1.3,8.3-1.4c3.7-0.2,6.9,0,10.3,0c3.4,0,1.4,1.6,0.8,2.1c-0.6,0.5-1,1-2,2.1
	c-1,1.1-1.8,2.6-2.6,4.2c-0.9,1.6,0.3,0.9,0.3,0.9c0,0,5.4-4.2,9.9-6.8c4.4-2.6,10.2-5.4,17.1-8c6.9-2.6,17-6,26.6-8.2
	s20-4.2,30-5.6c10-1.5,15.2-1.8,19-2.2c3.8-0.4,10.2-0.6,15.7-0.7C558.5,230.4,565.8,230.4,567.1,230.3z"/>
<path class="st8" d="M365.9,349.6c-1.8-0.1-2.6-0.2-3.7-1c-1.1-0.8-3.3-2.7-5-4.3c-1.7-1.6-4.5-4.6-5.3-5.6c-0.8-1-1.2-1.8-1.4-2.5
	c-0.2-0.6-0.5-0.9-1.2-0.9c-0.6,0-1.2,0.2-2.1,0.7c-0.9,0.5-1.8,1-1.8,1l-0.6,0.7c0,0-0.6,3-0.8,4.9c-0.2,2-0.7,6.2-0.8,9.2
	c-0.2,3-0.7,10-0.9,14.3c-0.2,4.3-0.3,11.4-0.3,16.4c0,5-0.1,12,0,15.4c0.1,3.4,0.3,8.4,0.8,12.5c0.4,4,1.2,9.9,2,14.5
	c0.8,4.6,2.1,11.1,3.5,16.4c1.4,5.3,3.4,11.8,5.2,17.2c1.8,5.3,5.5,14.2,8,19.4c2.4,5.2,7.5,14.6,9.6,17.8s5.1,8.3,6.3,10.2
	c1.3,1.9,2.3,3.5,2.3,3.5l1.4,0.4c0,0,0.4-0.6,1.1-1.3c0.7-0.7,1.8-1.6,3.2-2.7c1.4-1.1,2.6-1.8,4.1-2.6c1.5-0.8,4.5-1.8,4.5-1.8
	s-1.7,2-3.1,3.4c-1.4,1.4-3.2,3.6-4.8,5.5c-1.6,1.9-3.6,4.7-5.4,6.9c-1.8,2.3-4.2,5.6-5.8,8c-1.6,2.4-3.2,5-4.8,7.3
	c-1.6,2.4-3.8,6.5-5.9,9.8c-2.1,3.4-3.8,6.9-5.4,10.1c-1.6,3.2-4,8.6-5.7,12.2c-1.7,3.6-3.2,8.2-4.4,11.1
	c-1.2,2.8-3.8,10.4-5.9,16.7c-2.2,6.3-4.1,12-4.4,12.8c-0.3,0.7-0.7,2.2-0.5,2.5c0.2,0.2,1.2,0.2,1.8,0c0.5-0.2,2.4-0.7,4.8-1.2
	c2.4-0.5,8.8-1.9,12.9-2.2c4.1-0.3,8.1-0.2,10.8,0c2.7,0.2,6,1.1,7.6,2c1.7,0.9,3.1,1.9,3.6,2.4c0.4,0.5,0.9,0.8,1.3,0.8
	s0.9-0.4,1-1.2c0.1-0.8,1.6-2.9,3.4-4.5c1.8-1.6,4-3.3,7.1-4.6c3.1-1.3,5.5-1.9,9.9-2.6c4.4-0.7,9.5-1.7,13.6-2.2
	c4.1-0.5,8.4-0.9,8.4-0.9s1.2-0.4,2.3-1.3c1-0.9,4-4,6.5-6.4c2.5-2.4,6.3-6.1,9.9-9.5s8.8-8.3,13.4-12.9c4.6-4.6,10-10.4,16.9-17.4
	c6.9-7,14.2-15.2,19.2-21.5c5.1-6.3,13.6-18.6,18-25.5c4.5-6.9,8.7-14.4,12.5-20.1c3.8-5.7,7.2-10.9,10.2-14.7
	c3.1-3.8,5.4-6.5,9.1-10.2c3.7-3.6,5.2-4.8,6-5.5c0.8-0.7,1.3-1.1,1.3-1.1l0.2-1.2c0,0-1.1-0.5-2-1.2s-2.4-2.3-3.2-3.5
	c-0.8-1.2-1.2-2.8-1.2-3.5c0-0.8,0.1-2.3,0.1-2.3s-1.4,0-3.1-0.1c-1.7-0.2-3.8-0.6-6.2-1.2c-2.4-0.7-5-2.3-6.5-3.6
	c-1.5-1.4-2.1-3.2-2.6-5.6c-0.5-2.4-0.9-5.2-0.6-7.8s0.8-6.4,1.6-9.6c0,0-7.3,3.2-13,6.4c-5.8,3.2-10,5.9-15.2,9.8
	c-5.2,3.9-10.3,8.5-13.6,11.6c-3.2,3.1-5.3,5.6-7.9,8.7c-2.6,3.1-3.7,5-3.7,5s4.3-3.1,6.8-4.4c2.5-1.4,4.2-2.2,8-3.9
	c3.8-1.8,6.7-2.7,9.8-3.6c3.1-0.9,6.1-1.3,6.1-1.3s-3.4,3.4-5.9,6.4c-2.5,3-4.3,5.5-7.9,10.9c-3.6,5.4-7,10.8-11.7,18.1
	c-4.7,7.4-9.6,14.8-16.5,23.9c-6.9,9.1-11.7,14.2-17.3,20c-5.6,5.8-11.5,10.8-11.5,10.8s-14.8-12-24.3-21.3
	c-9.5-9.3-18.1-24.1-23-33c-4.9-8.9-7.8-16.9-10.7-25.2c-2.9-8.3-4.6-15.9-5.2-19.8c-0.9,1.7-2.7,5.4-3.6,8.1
	c-0.9,2.7-1.4,4.5-2.2,8c-0.8,3.5-1.5,8.1-1.5,8.1s-0.3-2.5-0.3-5.2s-0.1-6.1,0.4-9.7s1.4-6.8,3.1-10.6c1.7-3.8,1.2-3.6,2.9-8
	c0,0-0.5-1-0.9-4c-0.3-2-0.5-3.2-0.7-5.6c-0.2-1.9-0.4-4.9-0.5-6.1c0-0.8,0-1.7-0.3-1.7c-0.3,0-0.7,1.2-1.1,2.2
	c-0.4,1-1.4,3.3-2.7,7c-1.3,3.8-2.2,7-3.1,11.4c-0.9,4.4-1.5,9.5-1.5,9.5s-1.5-11.6-1.5-19c0-7.4,0.2-14.9,0.8-22.2
	s1.3-13.2,2.4-18.3c1-5,2.7-9.4,4-12.9c1.2-3.6,1.7-5,2.9-7.4"/>
<path class="st4" d="M456.8,381.7c0,0,4.3-2.9,9.5-6.1c5.2-3.3,8.6-5.4,17.7-9.7c9.1-4.3,15-6.6,25-9.8c10.1-3.2,21.9-5.8,27.2-6.8
	c5.3-1,7.2-1.4,8.8-1.6c1.6-0.2,0.7,0.8,0.7,0.8s-2.9,3.8-4.8,6.1c-1.9,2.3-4,5.3-5.3,7.3c-1.3,2-2,3.2-2.9,4.7
	c-0.9,1.5-1.5,2.8-2,3.8c0,0-6.9-0.7-12.1-0.5c-5.2,0.2-10.6,0.8-19.2,2.1c-8.6,1.3-17.5,3.3-24.8,4.9
	C467.5,378.3,459.8,380.8,456.8,381.7"/>
<path class="st4" d="M460.4,376c1.8-1.6,6.3-5.5,6.3-5.5c0,0,0.3-1.2,0.3-1.2s-0.1-0.3-2.6-3.1c-2.5-2.8-5.4-6.5-8.2-10.4
	c-2.8-3.9-5.6-9.2-7.7-13.5c-2.1-4.3-5.1-11.1-6.1-15.6c-1-4.5-2-14.7-2-14.7c-1.4,2.6-3.6,8.5-4.2,11.7c-0.6,3.2-1.2,7.5-1.6,11.6
	c-0.4,4.1-0.5,7.3-0.2,10.3c0.2,3,0.9,6.1,1.6,8.6c0.7,2.5,2.4,6.1,2.4,6.1s-0.2-1.7,0-4.4c0.2-2.7,0.6-4.7,1-6.5
	c0.4-1.8,0.8-4.6,1.9-1.7c1.1,2.9,2.2,5.1,4.2,8.9s4.6,7.5,7.4,10.7C455.6,370.6,460.4,376,460.4,376"/>
<path class="st8" d="M248.2,342.3c-1.4,1.9-3.9,5.7-5.8,9.5c-1.9,3.8-3.6,8-4.6,11.1c-0.9,3.2-1.2,5.2-1.2,5.8c0,0.5,0,1.1,1.5,1.2
	c1.5,0.1,7.1,0.6,10.8,0.8s7.9-0.3,10.4-0.8s8.2-2.4,12.8-4.9c4.6-2.5,10-5.7,14.9-9c5-3.3,10.5-7.7,14.5-11.1
	c4-3.4,7.9-6.5,9.5-7.9c1.6-1.4,2.1-2.3,2.1-2.3c0,0-4.9,2.5-9.3,4.4c-4.4,1.9-8.3,2.8-12.7,3.6c-4.5,0.8-8,0.8-12.4,0.5
	c-4.4-0.3-5.7-0.6-7.4-0.9c-1.8-0.3-3-0.8-3.4-0.9c-0.4-0.2-1.3-0.3-1.4-0.2c-0.1,0.2-0.2,0.4,0.1,1.2c0.3,0.8,0.8,2.1,2,4.1
	c1.2,1.9,2.3,3.4,3.5,4.7c1.1,1.3,2.7,2.9,2.7,2.9s-4.3-0.1-7.5-0.8c-3.1-0.7-5-1.6-7.4-2.7s-4.2-2.5-6.2-3.8
	C251.5,345.5,249.3,343.5,248.2,342.3"/>
<path class="st8" d="M424.3,306.4c0,0,2.2,0.8,4.6,1c2.5,0.3,3.8,0.3,6.8,0.1c3-0.2,4.7-0.5,9.2-1.6c4.5-1,9.3-2.5,14.4-4.4
	s9.3-4,16-7c6.7-3,10.2-4.9,14.8-7c4.5-2.1,10.2-5,15.1-7.3c4.9-2.3,9.2-4.5,13.5-6.4c4.3-1.9,7.9-3.5,12.8-5.9
	c4.9-2.4,9.9-4.8,15-7.3c5.2-2.5,9.5-4.8,13.5-6.4c4-1.6,6.4-2.7,8.1-3.2c1.8-0.5,2.4-0.7,2.8-0.8c0.4-0.1,0.9-0.1,0.9-0.5
	c0-0.5,0.1-1.3-0.2-1.7c-0.3-0.5-1.4-1.8-2.3-3.2c-0.9-1.5-1.6-4.1-1.7-6.2c0,0-12.9,0.2-22.7,1.5c-9.9,1.3-17,2.8-23.5,4.1
	c-6.5,1.3-14.4,3.3-19.7,4.8c-5.3,1.5-9.4,3.1-13.9,4.7c-4.5,1.6-9.5,4-13.7,6.6c-4.1,2.6-7.5,5.2-9.9,7.3c-2.4,2.2-4.2,3.9-6.1,5.8
	c-1.9,1.9-0.9,1.6,0.1,1.4c1-0.3,2.1-0.5,5.2-1.3c3.1-0.7,6.1-0.9,9.9-1.1c3.8-0.2,5.1-0.2,7.5-0.4c2.4-0.2,1.1,1,0.3,1.6
	c-0.8,0.6-4.6,3.4-11.3,8.1c-6.7,4.7-13.7,9-20.7,13.3c-7,4.2-9.8,5.6-14.3,7.8C430.2,304.8,426.5,306.1,424.3,306.4"/>
<path class="st4" d="M455.5,309.1l-3.8,1.5l-0.5,0.9c0,0,0.5,2.5,1.2,5.7c0.7,3.2,1.4,5.2,2.8,9.5c1.5,4.3,2.1,6.1,4.2,10.3
	c2.1,4.2,3.6,7,6,11.1c2.5,4.1,4.9,7.1,7.4,10s4.8,5,4.8,5l5-3.1l0.1-1.2c0,0-1.6-1.6-3.9-4.1c-2.4-2.6-5.5-6.6-7.9-10.6
	c-2.4-4-3.9-6.6-6.4-12.1c-2.5-5.5-4.8-11.1-6.2-15.3c-1.4-4.1-2.3-7.5-2.3-7.5S455.4,309.1,455.5,309.1z"/>
<path class="st4" d="M376.8,344.1c0,0,4.5-3,4.5-3c0,0,0.7-0.5,1-0.2s0.6,0.5,0.6,1.6c0,1.1,0.1,7,0.2,11.3
	c0.1,4.3,0.3,9.7,0.4,11.3c0.1,1.6,0.1,2.2,0.2,2.5c0,0.4,0.2,0.9-0.6,1.2s-1.4,0.6-2.1,1.1c-0.8,0.5-1.4,1-1.8,1.4
	c-0.5,0.4-1.4,1.7-1.4-0.3s-0.4-6.2-0.7-10.6c-0.2-4.4-0.4-8.3-0.4-11.4C376.7,345.9,376.9,344,376.8,344.1z"/>
<path class="st4" d="M379.3,377.7l3.6-2.6c0,0,0.8-0.7,1.2-0.4c0.4,0.3,0.9,0.9,0.9,2.1c0,1.2,0,4.7,0.2,7.8c0.2,3.1,0.3,6,0.3,6.8
	c0,0.7,0.2,1.5-0.5,2.3s-2.4,2.6-2.9,3.1c-0.5,0.5-2.1,2.6-2.1-0.1s-0.6-6.2-0.7-9.4c-0.1-3.1-0.6-6.2-0.6-7.3
	C378.8,378.9,379.3,377.7,379.3,377.7z"/>
<path class="st4" d="M381.6,408.2l0.3-1.8l3.5-4.3c0,0,0.5-0.7,1.1-0.6c0.6,0.1,0.9,0.3,1,1.4c0.1,1.2,0.4,3.7,1,8
	c0.6,4.4,0.8,5.2,1.8,9.8c1,4.6,1.5,7.1,3.1,12.4c1.5,5.2,2.9,9.7,5.1,15.3c2.1,5.5,4.9,11.1,7.4,15.7c2.5,4.6,3.8,7,6.8,10.9
	c3,3.9,4.1,5.5,6.4,8c2.3,2.5,3.2,3.1,3.2,3.1l0.4,1.9c0,0-1.4,1.7-2.1,2.3c-0.7,0.7-1.2,2.7-4,0.2c-2.7-2.5-5.4-5.5-8.2-9.1
	c-2.9-3.7-5.2-7.6-8-12.9c-2.8-5.2-5.8-12-7.6-16.3c-1.8-4.4-3.6-9.7-5-15.5c-1.3-5.7-2.6-10.1-3.8-15.8
	C382.7,415.2,381.6,408.2,381.6,408.2z"/>
<path class="st8" d="M333.1,340c1.4-0.1,1.9-0.1,2.9-0.4c1-0.2,3.1-1.3,3,0.6c-0.1,1.9-0.7,6.6-1.1,10.2c-0.4,3.7-0.6,6.5-0.8,9.4
	c-0.2,2.9-0.3,3.7-0.3,4.3c0,0.6-0.2,1.4-1.5,2c-1.3,0.6-3.6,1.9-6.7,3.3c-3.1,1.4-5.4,2.4-9.4,3.8c-4,1.4-5.4,1.9-8.8,2.9
	c-3.4,1-4,1.1-4.8,1.3c-0.7,0.2-2.7,0.3-0.3-1.6c2.4-1.8,3.6-3,6.4-5.7c2.8-2.7,5-5,8-8.8c3-3.9,4.3-5.8,6.4-9.4
	c2.2-3.6,3.6-6.6,4.3-8.4c0.7-1.8,0.7-2.9,1.2-3.2C331.9,340,333,340,333.1,340z"/>
<path class="st8" d="M321.2,339.8c0,0,2.9,0.3,2.9,0.3s1,0.2,1,0.8c0.1,0.6,0,1.3-0.1,1.9c-0.1,0.6-0.9,1.6-1.6,2.7
	c-0.7,1.1-2.2,3.7-4.7,7c-2.5,3.4-5.1,6.6-7.7,9.6c-2.6,3.1-4.5,5-8.5,8.6c-4,3.6-8.7,7-13.8,9.5c-5.1,2.5-7.5,3.4-10.1,4
	c-2.6,0.6-7.2,1.5-11.5,1.2c-4.3-0.3-6-0.6-8.2-1c-2.2-0.5-4.3-1.5-4.1-2.1c0.3-0.7,1.3-0.9,3.3-0.9s3.9-0.2,7.1-1
	c3.2-0.8,7.9-2.8,11.6-4.9c3.7-2.1,6.4-3.7,11.5-7c5.1-3.4,9-6.3,14.3-10.9c5.2-4.6,9.6-9,12.3-11.7c2.6-2.7,3.7-3.8,4.3-4.5
	s0.8-1.2,1.2-1.3C320.7,339.8,321.2,339.8,321.2,339.8z"/>
<path class="st9" d="M169.3,748.9l-0.1-88.9c0,0,0.1-1.6,0.7-2.9c0.7-1.3,1.4-2.3,2.4-3.2c1-0.9,1.8-1.5,3.4-2.3
	c1.5-0.8,2.6-1,4.9-1.4c2.3-0.4,3.2-0.7,6.3-1.2c3-0.6,6.9-1.3,11.2-2.1c4.3-0.7,11.1-1.8,17.2-2.9c6.1-1.1,15.6-2.9,21.1-3.8
	c5.5-1,8.2-1.3,11.3-1.3c3.1,0,4.4,0,6,1c1.6,1,2.2,1.4,3.3,2.4c1.1,0.9,1.7,1.4,2.5,2.4c0.8,1,1,1.3,1.6,2.5c0.6,1.2,1.1,2,1.6,3.4
	c0.5,1.4,0.9,1.8,0.9,3.5c0,1.7,0.1,18.9,0.1,18.9s0.1,2.4-0.7,5.1c-0.7,2.7-1.3,4.5-2.1,6.6c-0.8,2.1-2.5,4.9-4.4,7.4
	c-1.9,2.5-4.1,4.8-6.9,6.9c-2.8,2.2-4.9,3.6-7.7,4.9c-2.8,1.2-7.9,2.5-7.9,2.5s0.9,0.8,2.3,1.8c1.4,1,2.8,1.8,5.1,3.4
	c2.3,1.6,7.8,5.5,11,7.7c3.2,2.2,7.2,5.1,9.5,6.6c2.3,1.5,3.4,2.4,4.4,3c0.9,0.5,1.4,1,1.4,1.4c0,0.4-0.2,1.4-1.6,1.7
	c-1.4,0.3-8.5,1.7-13.1,2.4c-4.5,0.7-7,1.2-8.3,1.4c-1.3,0.2-1.9,0.4-2.8,0.4s-2-0.1-3-0.8c-1-0.7-4.3-3.2-6.6-4.8
	c-2.4-1.7-9.8-6.8-13.7-9.5s-8.6-6.2-10-7.2c-1.4-1.1-2.1-2.1-2.6-2.2c-0.5-0.1-1.4-0.3-2.5,0s-3.9,0.6-5.7,1.2
	c-1.9,0.6-2.6,0.7-3.3,0.7c-0.7,0-1.5-0.5-1.6-1c-0.1-0.4-0.2-1.3-0.2-2.5s0-12.8,0-12.8s0-0.9,0.4-1.5c0.4-0.6,0.7-0.8,1.7-0.9
	c1-0.2,9.2-1.8,13.3-2.4c4.1-0.7,10.1-1.5,15.8-2.6c5.7-1.2,8.6-1.7,11.1-3s4-2.1,6.1-4c2-1.8,2.9-3,3.8-5.6s1-4.8,1.1-7.9
	c0-3.2,0.2-5.6,0.1-7.2c-0.2-1.6-0.1-3.3-1.1-3.7c-1-0.4-1.9-0.7-3.3-0.4s-3.5,0.4-8,1.3c-4.5,0.9-6.1,1.2-11.8,2.2
	c-5.8,1-13.1,2.5-19.1,3.6c-6,1.1-9.4,1.6-11.6,1.9c-2.1,0.3-3.4,0.5-3.4,2.9c0,2.4-0.1,73.5-0.1,73.5s0,1.7-0.2,1.9
	c-0.2,0.2-0.8,0.6-1.8,1c-1,0.4-6,1.5-8.4,1.9C174.8,748.2,169.3,748.9,169.3,748.9z"/>
<path class="st9" d="M353.8,638.1l-0.3,0c-0.5,0.1-6.2,1-11.1,2c-4.9,1-14.3,2.3-17.8,3.4c-3.4,1.1-6.5,2.1-9.1,3.5
	c-2.6,1.5-4.7,2.8-6.9,4.6c-2.1,1.8-4.3,3.7-5.6,5.8c-1.3,2.1-3.1,4.6-4.3,7.5c-1.2,2.9-1.9,5.7-2.2,8.7c-0.3,2.9-0.3,6.3-0.3,8
	c0,1.7-0.3,2.7,0.2,2.9s1.5,0.3,1.5,0.3c2.7-0.5,5.3-1.1,8.8-1.8c3.5-0.7,8.7-1.6,14.7-2.7c5.9-1.1,10.8-1.9,16.8-3
	s8.2-1.5,11.1-1.9c2.9-0.4,5.4-0.6,5.4-0.6l0-35.4c0,0,0-0.6-0.2-0.9C354.1,638.1,354.3,638.3,353.8,638.1z M364.8,618.1l1.3,0
	c1.6,0.1,2.7,0.2,3.6,1.1c0.9,0.9,2,2.3,2.5,3.1c0.4,0.8,0.9,1.9,0.9,4.3s0,83.3,0,83.3s0.1,1.1-0.1,1.5c-0.2,0.5-0.5,1-0.9,1.4
	c-0.4,0.4-0.8,0.6-1.9,0.9c-1,0.2-13.2,2.3-13.2,2.3s-0.8,0-1.2-0.1c-0.4-0.1-0.9-0.5-1-0.9s-0.3-0.8-0.2-2.3c0-1.6,0-19.4,0-19.4
	s0-0.5-0.1-0.6c-0.1-0.1-0.4-0.2-0.7-0.2c-0.3,0-0.7,0.2-1.3,0.4c-0.6,0.2-8.7,1.9-12.3,2.6c-3.6,0.7-9.8,1.8-18.2,3.4
	c-8.4,1.5-19.5,3.3-21.8,3.7c-2.3,0.3-4.2,0.1-4.2,4.1c0,4.1,0,18.1,0,18.1s0,1-0.2,1.3s-0.6,0.5-1.2,0.7c-0.6,0.2-1.2,0.3-2.3,0.5
	c-1.1,0.2-12.4,2.4-12.4,2.4s-0.8,0.1-1-0.1c-0.3-0.2-0.4-0.4-0.5-0.7s-0.1-0.8-0.1-0.7v-52.5c0,0,0-3.1,1.1-7
	c1.1-3.8,1.6-5.4,3.3-9.5c1.7-4.1,2.7-6,4.9-9.3c2.2-3.3,3.2-5.1,7.4-9.2c4.1-4.1,7.2-6.2,12.6-9.2c5.4-3,9.9-4.6,16.1-6.1
	c6.2-1.4,14-2.9,20.7-4c6.7-1.1,12.2-2.3,15.3-2.7C361.4,618.4,363.1,618.3,364.8,618.1z"/>
<path class="st9" d="M457.7,620.3c-0.8,0-1.4,0-2.8,0.4c-1.5,0.3-10.3,1.8-19.2,3.3c-8.9,1.5-20.8,3.7-22.6,4
	c-1.8,0.3-2.6,0.4-2.9,0.6c-0.3,0.2-0.6,0.8-0.6,2.3c0,1.5,0,55.7,0,55.7s-0.1,1.3,0.3,1.3c0.4,0,1.4-0.2,2.8-0.6
	c1.4-0.4,7.8-1.6,11.9-2.5c4.1-0.9,9-1.8,17.5-3.3c8.5-1.5,14.7-2.5,17.8-2.9c3-0.4,4.8-0.7,5.5-1.1c0.7-0.4,1.6-1.4,1.8-2.7
	s0.4-3.2,0.2-4.6c-0.2-1.3-0.8-3.2-1.5-4.6c-0.7-1.5-1.9-2.9-3.2-3.8c-1.3-0.8-3.3-1.9-4.8-2.1c-1.5-0.1-3.7-0.4-7,0.2
	c-3.3,0.6-12.5,2.2-18,3.1c-5.6,0.9-11.8,2.1-14,2.7c-2.2,0.6-3,1-3.5,0.7c-0.4-0.3-0.5-1-0.5-1l-0.2-16.4c0,0-0.1-0.8,0.5-1.2
	c0.5-0.4,1-0.5,1.9-0.7c1-0.2,5.4-0.9,8.8-1.4c3.4-0.5,6.8-1.1,11.6-1.9c4.8-0.8,8.5-1.3,11.2-2.2c2.6-0.9,3.8-1.7,5.5-3.1
	c1.7-1.4,2.4-2.4,3.4-4.1c1-1.8,1.9-3.6,2.1-6c0.2-2.3,0.2-4.4,0.1-5.2c0-0.8,0-1.5-0.5-2C459,620.7,458.4,620.3,457.7,620.3
	L457.7,620.3z M461.2,601.2c2.5,0.1,4.7,0.5,6.7,1.2c1.9,0.7,3.8,2,5.5,3.5c1.7,1.5,2.3,2.9,3.5,5c1.2,2.1,1.3,4.1,1.4,7
	c0.1,2.9,0.1,4.4,0.1,7.6c0,3.1-0.6,6-1.7,9c-1,3.1-1.9,4.6-2.7,6.1c-0.8,1.5-1.6,2.6-1.6,2.6c0,0,2.6,1.6,4.2,2.8
	c1.6,1.2,2.7,2.5,4.3,4.4c1.5,1.9,2.2,3.5,3.3,5.9c1.1,2.3,1.4,3.9,1.6,5.7c0.2,1.9,0.1,4.2,0.2,7.1c0.1,2.9-0.2,5.4-0.6,7.8
	c-0.4,2.4-0.9,4.2-2.3,6.5c-1.4,2.3-1.9,3.4-4.1,5.7c-2.2,2.3-3.2,3-6.1,4.8c-2.9,1.8-5.1,2.4-7,2.8c-1.9,0.4-3.3,0.4-6.3,0.8
	c-2.8,0.5-4.7,0.7-6.7,1c-1.8,0.3-3.4,0.7-6,1.3c-2.4,0.5-3.9,0.8-6.7,1.2c-2.6,0.4-5.9,0.7-9.9,1.2c-4,0.5-6,1-9.5,1.7
	c-3.3,0.6-9.1,2.1-12.8,2.7c-3.7,0.6-6.7,1.2-8.7,1.2s-2.8,0-3.9-0.4c-1.1-0.4-1.8-0.9-2.6-2c-0.9-1.1-1.5-2.3-1.8-3.3
	c-0.3-1-0.3-2.4-0.3-2.4c0,0,0-76.1,0-76.1c0,0,0-2.3,0.4-3.6c0.3-1.3,1-2.4,1.9-3.7c0.9-1.3,2.5-2.7,4.1-3.7c1.7-1,4.1-1.4,8.1-2
	c4-0.6,15.4-2.6,23.6-4.1c8.2-1.5,18.4-3.2,22.8-4.1C456.2,601.6,458.6,601.1,461.2,601.2z"/>
<path class="st9" d="M566.1,601.3c-0.8,0-1.4,0-2.8,0.4c-1.5,0.3-10.3,1.8-19.2,3.3c-8.9,1.5-20.8,3.7-22.6,4
	c-1.8,0.3-2.6,0.4-2.9,0.6c-0.3,0.2-0.6,0.8-0.6,2.3c0,1.5,0,55.7,0,55.7s-0.1,1.3,0.3,1.3s1.4-0.2,2.8-0.6
	c1.4-0.4,7.8-1.6,11.9-2.5c4.1-0.9,9-1.8,17.5-3.3c8.5-1.5,14.7-2.5,17.8-2.9c3-0.4,4.8-0.7,5.5-1.1s1.6-1.4,1.8-2.7
	c0.2-1.3,0.4-3.2,0.2-4.6c-0.2-1.3-0.8-3.2-1.5-4.6s-1.9-2.9-3.2-3.8c-1.3-0.8-3.3-1.9-4.8-2.1c-1.5-0.1-3.7-0.4-7,0.2
	c-3.3,0.6-12.5,2.2-18,3.1c-5.6,0.9-11.8,2.1-14,2.7c-2.2,0.6-3,1-3.5,0.7c-0.4-0.3-0.5-1-0.5-1l-0.2-16.4c0,0-0.1-0.8,0.5-1.2
	s1-0.5,1.9-0.7c1-0.2,5.4-0.9,8.8-1.4c3.4-0.5,6.8-1.1,11.6-1.9c4.8-0.8,8.5-1.3,11.2-2.2c2.6-0.9,3.8-1.7,5.5-3.1
	c1.7-1.4,2.4-2.4,3.4-4.1c1-1.8,1.9-3.6,2.1-6c0.2-2.3,0.2-4.4,0.1-5.2c0-0.8,0-1.5-0.5-2S566.9,601.3,566.1,601.3L566.1,601.3z
	 M569.6,582.2c2.5,0.1,4.7,0.5,6.7,1.2c1.9,0.7,3.8,2,5.5,3.5c1.7,1.5,2.3,2.9,3.5,5c1.2,2.1,1.3,4.1,1.4,7c0.1,2.9,0.1,4.4,0.1,7.6
	c0,3.1-0.6,6-1.7,9c-1,3.1-1.9,4.6-2.7,6.1c-0.8,1.5-1.6,2.6-1.6,2.6c0,0,2.6,1.6,4.2,2.8c1.6,1.2,2.7,2.5,4.3,4.4
	c1.5,1.9,2.2,3.5,3.3,5.9c1.1,2.3,1.4,3.9,1.6,5.7c0.2,1.9,0.1,4.2,0.2,7.1c0.1,2.9-0.2,5.4-0.6,7.8c-0.4,2.4-0.9,4.2-2.3,6.5
	c-1.4,2.3-1.9,3.4-4.1,5.7c-2.2,2.3-3.2,3-6.1,4.8c-2.9,1.8-5.1,2.4-7,2.8c-1.9,0.4-3.4,0.6-6.3,0.6c-3,0-4.6,0.4-6.4,0.8
	c-1.8,0.4-3.2,1.1-5.7,1.8c-2.5,0.7-4.6,1-7.3,1.2c-2.6,0.2-5.3,0.2-9.3,0.7c-4.1,0.4-6.8,1.3-10.1,2.2c-3.3,1-9.1,2.1-12.8,2.7
	c-3.7,0.6-6.7,1.2-8.7,1.2c-2,0-2.8,0-3.9-0.4c-1.1-0.4-1.8-0.9-2.6-2c-0.9-1.1-1.5-2.3-1.8-3.3c-0.3-1-0.3-2.4-0.3-2.4
	c0,0,0-76.1,0-76.1c0,0,0-2.3,0.4-3.6c0.3-1.3,1-2.4,1.9-3.7c0.9-1.3,2.5-2.7,4.1-3.7c1.7-1,4.1-1.4,8.1-2c4-0.6,15.4-2.6,23.6-4.1
	c8.2-1.5,18.4-3.2,22.8-4.1C564.7,582.6,567.1,582.1,569.6,582.2z"/>
<path class="st9" d="M610.1,574.5l14.8-2.5c0,0,0.6,0,0.8,0.2c0.1,0.3,0.3,0.6,0.3,1.3s0,92.4,0,92.4s0,0.9-0.1,1.2
	c-0.2,0.3-0.5,0.6-1.1,0.9c-0.6,0.3-1.8,0.7-3.1,1c-1.3,0.3-12.1,2.1-12.1,2.1s-1.1,0-1.4-0.4c-0.4-0.4-0.6-1-0.7-1.7
	c-0.1-0.7-0.2-1.6-0.1-2.6c0-1,0-89.2,0-89.2s0.1-1.1,0.4-1.5c0.4-0.4,0.7-0.7,1.2-0.9C609.3,574.7,610.1,574.5,610.1,574.5z"/>
<path class="st9" d="M637,586.8l0-14.9c0,0,0-0.8,0.1-1.1c0.2-0.4,0.5-0.8,0.7-0.9c0.2-0.2,0.7-0.4,1.1-0.5s3.1-0.6,6.2-1.2
	c3.1-0.5,9.2-1.5,13.1-2.2c3.9-0.7,9.2-1.6,15.4-2.6c6.2-1.1,12.6-2.2,19.9-3.5c7.4-1.4,17-2.9,23.5-4.1c6.5-1.2,9.3-1.9,10.1-2
	c0.8-0.1,1.9-0.2,2.3,0.2c0.4,0.4,1.2,0.8,1.2,2.4c0,1.5,0,13.8,0,13.8s0,1.1-0.1,1.3c-0.1,0.2-0.6,0.6-1.5,0.9
	c-0.9,0.3-9.1,1.9-13.2,2.7c-4.2,0.8-11.6,2-15.4,2.6c-3.8,0.6-4.9,0.8-5.7,1c-0.8,0.2-1.5,0.5-1.5,1.4c0,0.9,0,75.4,0,75.4
	s-0.1,0.9-0.6,1.1c-0.5,0.3-1.5,0.7-4.3,1.3c-2.9,0.6-6.5,1.2-9.1,1.6c-2.6,0.4-3.2,0.4-3.6,0.3c-0.4-0.1-0.8-0.6-0.8-1.7
	c0-1.1,0-75.4,0-75.4s0-0.6-0.6-0.5c-0.6,0-1.3,0.2-2.7,0.6c-1.4,0.4-6.2,1.2-10.4,2c-4.2,0.8-11.2,2.1-15.8,2.9
	c-4.5,0.8-5.8,1-6.5,1c-0.6,0-1.3,0-1.5-0.3C637.1,587.6,637,586.8,637,586.8z"/>
<path class="st9" d="M393.1,725.8c-0.6,0-1.4,0.2-2,0.4c-0.7,0.2-1.4,0.9-1.4,0.9c0,0-0.1,7.1-0.1,7.1c0-0.1,1.3,0.1,2.1,0
	c0.8-0.1,2.2-0.6,3.2-1.2s1.5-1.3,1.7-1.7c0.2-0.4,0.3-1,0.3-1.6s-0.1-1.3-0.4-1.8c-0.3-0.5-0.9-1.1-1.5-1.5
	C394.3,726,393.7,725.8,393.1,725.8z M397.7,721.3l0.8,0c0.9,0.1,1.9,0.4,2.8,0.9c1,0.5,1.8,1.2,2.4,1.7c0.5,0.6,1,1.1,1,1.9
	c0.1,0.8,0.1,1.9,0.1,2.6c0,0.7-0.1,2.1-0.5,2.7c-0.4,0.6-1,1.6-2.6,2.9c-1.6,1.2-2.5,1.6-4.2,2.4c-1.7,0.8-3.2,1-4.8,1.4
	c-1.6,0.4-2.3,0.6-2.6,0.9c-0.3,0.3-0.4,1.6-0.4,3.1c0,1.4,0,3.1,0,4c0,0.8,0.1,2-0.6,2.2c-0.7,0.3-2.5,0.7-3.9,0.9
	c-1.4,0.2-2.3,0.3-2.7,0.1c-0.4-0.2-0.5-1.1-0.5-1.1v-22.8c0,0,0-0.6,0.7-1.1c0.7-0.5,1.6-0.6,3.1-0.9c1.6-0.3,5.1-1,7.7-1.4
	C395,721.6,396.4,721.4,397.7,721.3z"/>
<path class="st9" d="M429.1,724.7c0,0-3,8.4-3,8.3l6.6-0.9L429.1,724.7L429.1,724.7z M432.9,715.2c1,0.2,0.7,0,1.2,0.5
	c0.3,0.5,2.6,4.9,3.4,6.4s2.9,6.9,3.8,9c0.9,2.1,2.1,5.1,2.3,5.7c0.3,0.6,0.7,1.4-0.2,1.7c-0.9,0.3-6.3,1.3-6.3,1.3
	s-1.1,0.3-1.4-0.5c-0.3-0.7-0.5-1.6-0.8-2.2c-0.3-0.6-0.5-1-1.4-1c-0.9,0-2.7,0.2-4.5,0.5c-1.8,0.3-2.7,0.3-3.1,0.4
	c-0.5,0.1-1.1,0.2-1.4,0.8c-0.3,0.6-1,1.9-1.5,2.9s-0.8,2.1-1.8,2.2c-1,0-4.1,0.2-4.2,0.2c0,0-1.4,0.2-0.8-1.1
	c0,0,9.4-24.4,9.4-24.4s0.2-0.6,0.5-0.9c0.3-0.3,0.7-0.6,1-0.7c0.3-0.1,0.8-0.2,1.3-0.3c0.6-0.1,1.3-0.2,2-0.2
	c0.7,0,1.4-0.1,1.9-0.1L432.9,715.2z"/>
<path class="st9" d="M454.6,711.3c0,0,3.9-1.2,4.7-1.2c0.9,0,1.4,0,1.7,0.3c0.3,0.3,0.8,0.9,1.1,1.6c0.2,0.8,1.8,5.5,2.2,6.6
	c0.4,1.1,1.4,4.1,1.4,4.1s0.1,0.5,0.5,0.5c0.4,0,0.6-0.4,0.7-0.7c0.1-0.3,0.5-2,0.9-3.7c0.4-1.7,1.4-4.5,1.8-5.5
	c0.4-1,0.5-1.7,1.7-2c1.1-0.3,2.3-0.7,3.1-0.9c0.7-0.2,2.1-1,2.7,1s1.9,6,2.3,7c0.4,1,0.9,2.2,0.9,2.2s0.5,1.3,0.9-0.4
	c0.4-1.7,1.4-5.1,2.1-7.4c0.7-2.4,1.7-5.1,2-6c0.3-0.9,0.7-1.3,1.7-1.4c1-0.1,2.1-0.2,2.8-0.2c0.7,0,2.1-0.2,1.7,0.9
	c-0.3,1.1-3,9.3-4.1,12.7c-1.1,3.4-2.2,6.7-2.7,8.7c-0.5,2-0.6,3.3-1.7,3.7c-1.1,0.4-2.3,0.8-3.3,1.1c-1.1,0.3-2.2,0.2-2.8,0.2
	c-0.6,0-1.1-0.3-1.4-1.5c-0.4-1.2-1.3-4-1.6-4.9c-0.2-0.9-0.7-2.5-0.7-2.5s-0.2-0.2-0.3-0.1c-0.2,0.1-0.3,0.2-0.5,0.9
	c-0.2,0.7-1,2.7-1.5,4.4c-0.5,1.7-0.8,2.7-1,3.4c-0.2,0.7-0.3,1.4-1.8,1.8c-1.5,0.3-3,0.6-3.9,0.8c-0.9,0.2-2.4,0.3-2.8-0.5
	c-0.4-0.9-1.2-2.9-2.2-5.4s-2.7-6.9-3.7-9.6c-1-2.7-2-5.6-2.2-6.2c-0.2-0.6,0-1,0.1-1.3C453.7,711.6,454.6,711.3,454.6,711.3z"/>
<path class="st9" d="M520.3,707.8c0,0,4-2.1,4-2.1c0,0,0.1-0.7,0-1.3s-0.2-1.4-0.7-1.9c-0.5-0.5-1.8-1.6-3-2.1
	c-1.2-0.5-2.5-0.8-3.8-0.8c-1.3,0-2.9,0.4-4.3,0.9c-1.4,0.5-3,1.1-4.5,2c-1.5,0.9-2.7,1.9-3.5,3.4s-1.2,2.5-1.2,3.8
	c0,1.3,0.2,2.5,1.4,3.7c1.2,1.3,2.6,1.7,4.3,2.2c1.7,0.5,3,0.8,4.4,1c1.3,0.3,2.4,0.5,2.9,0.9c0.5,0.4,0.9,0.6,1,1.4
	c0,0.9-0.1,1.7-0.5,2c-0.4,0.3-1.2,0.8-2,1.1s-1.9,0.5-2.8,0.4c-1-0.1-1.8-0.5-2.5-1.1c-0.7-0.7-0.9-1.4-0.9-1.9
	c0-0.5,0.1-1.2,0-1.5c0-0.3-0.2-0.4-0.9-0.4c-0.7,0-1.4,0.5-2.2,1c-0.8,0.5-1.4,0.8-1.9,1.1c-0.5,0.3-0.8,0.9-0.8,1.6
	c0,0.6,0,1.4,0.6,2.3c0.6,0.9,1.3,1.4,2,2.1c0.7,0.7,1.5,1.2,3.1,1.2c1.6,0.1,3.5-0.1,5-0.1c1.4-0.1,2.7-0.1,4.4-1
	c1.7-0.9,3.7-2.1,5.1-3.4c1.4-1.3,2.6-2.3,2.6-4.1c0-1.7,0.1-2.7,0-3.4c-0.2-0.7-0.5-1.3-1-1.9c-0.5-0.7-1-1.4-2.1-1.7
	c-1.1-0.3-2.2-0.6-3.9-0.8c-1.8-0.1-2.7-0.3-3.7-0.6c-1.1-0.3-2.1-1-2.3-1.6c-0.2-0.6-0.2-1.8,0.3-2.4c0.5-0.6,1.5-1.4,2.2-1.5
	c0.7-0.2,1.9-0.3,2.5-0.2c0.6,0.1,1,0.3,1.3,0.8c0.2,0.5,0.5,1.1,0.7,1.6C519.7,707.1,520.4,707.8,520.3,707.8z"/>
</svg>
