<?xml version="1.0" encoding="UTF-8"?>
<!DOCTYPE svg PUBLIC "-//W3C//DTD SVG 1.1//EN" "http://www.w3.org/Graphics/SVG/1.1/DTD/svg11.dtd">
<svg version="1.1" xmlns="http://www.w3.org/2000/svg" xmlns:xlink="http://www.w3.org/1999/xlink" x="0" y="0" width="900" height="450" viewBox="0, 0, 900, 450">
  <defs>
    <linearGradient id="Gradient_1" gradientUnits="userSpaceOnUse" x1="199.785" y1="286.134" x2="199.785" y2="176.443">
      <stop offset="0" stop-color="#FFFFFF"/>
      <stop offset="0.45" stop-color="#CCB198"/>
      <stop offset="0.807" stop-color="#CCB198"/>
      <stop offset="0.902" stop-color="#FFFFFF"/>
    </linearGradient>
    <linearGradient id="Gradient_2" gradientUnits="userSpaceOnUse" x1="300.382" y1="255.492" x2="300.382" y2="159.02">
      <stop offset="0" stop-color="#FFFFFF"/>
      <stop offset="0.45" stop-color="#CCB198"/>
      <stop offset="0.807" stop-color="#CCB198"/>
      <stop offset="0.902" stop-color="#FFFFFF"/>
    </linearGradient>
    <linearGradient id="Gradient_3" gradientUnits="userSpaceOnUse" x1="384.819" y1="247.913" x2="384.819" y2="150.984">
      <stop offset="0" stop-color="#FFFFFF"/>
      <stop offset="0.45" stop-color="#CCB198"/>
      <stop offset="0.807" stop-color="#CCB198"/>
      <stop offset="0.902" stop-color="#FFFFFF"/>
    </linearGradient>
    <linearGradient id="Gradient_4" gradientUnits="userSpaceOnUse" x1="485.262" y1="240.642" x2="485.262" y2="150.788">
      <stop offset="0" stop-color="#FFFFFF"/>
      <stop offset="0.45" stop-color="#CCB198"/>
      <stop offset="0.807" stop-color="#CCB198"/>
      <stop offset="0.902" stop-color="#FFFFFF"/>
    </linearGradient>
    <linearGradient id="Gradient_5" gradientUnits="userSpaceOnUse" x1="562.641" y1="212.429" x2="562.641" y2="192.267">
      <stop offset="0" stop-color="#FFFFFF"/>
      <stop offset="0.45" stop-color="#CCB198"/>
      <stop offset="0.807" stop-color="#CCB198"/>
      <stop offset="0.902" stop-color="#FFFFFF"/>
    </linearGradient>
    <linearGradient id="Gradient_6" gradientUnits="userSpaceOnUse" x1="626.678" y1="252.281" x2="626.678" y2="163.941">
      <stop offset="0" stop-color="#FFFFFF"/>
      <stop offset="0.45" stop-color="#CCB198"/>
      <stop offset="0.807" stop-color="#CCB198"/>
      <stop offset="0.902" stop-color="#FFFFFF"/>
    </linearGradient>
    <linearGradient id="Gradient_7" gradientUnits="userSpaceOnUse" x1="718.384" y1="274.292" x2="718.384" y2="180.679">
      <stop offset="0" stop-color="#FFFFFF"/>
      <stop offset="0.45" stop-color="#CCB198"/>
      <stop offset="0.807" stop-color="#CCB198"/>
      <stop offset="0.902" stop-color="#FFFFFF"/>
    </linearGradient>
  </defs>
  <g id="background"/>
  <g id="Obrys_-_spodni">
    <path d="M119.446,706.418 C119.446,706.418 155.928,690.843 155.928,690.843 C155.928,690.843 162.564,687.064 163.458,683.191 C163.53,682.881 163.667,682.286 163.667,682.286 C163.667,682.286 168.202,689.04 175.274,689.573 C182.345,690.106 188.992,690.596 191.918,689.543 C194.844,688.49 222.794,675.101 222.794,675.101 C222.794,675.101 224.058,674.399 224.492,673.169 C224.586,672.903 224.616,672.617 224.616,672.617 C224.616,672.617 229.033,676.415 232.697,676.782 C236.361,677.148 252.01,677.522 256.586,677.352 C261.162,677.183 276.36,674.188 280.202,672.719 C284.043,671.251 294.552,666.9 297.49,665.205 C300.428,663.51 304.719,660.198 304.719,660.198 C304.719,660.198 305.693,660.349 305.693,660.349 C305.693,660.349 304.749,662.91 304.382,666.279 C304.014,669.647 303.647,675.527 304.32,678.528 C304.994,681.529 306.954,685.632 308.791,687.775 C310.629,689.919 314.365,693.104 316.202,694.39 C318.039,695.676 319.754,696.288 320.673,696.595 C321.591,696.901 321.315,696.805 321.315,696.805 C321.315,696.805 336.18,697.697 340.468,696.965 C344.756,696.232 351.943,693.192 354.01,688.83 C354.189,688.451 354.294,688.213 354.294,688.213 C354.294,688.213 355.139,688.081 355.139,688.081 C355.139,688.081 358.643,693.545 362.856,693.753 C367.069,693.962 403.081,692.764 403.081,692.764 C403.081,692.764 406.667,691.538 407.201,690.933 C407.735,690.328 408.838,690.221 409.408,690.755 C409.977,691.289 411.899,692.57 413.038,692.642 C414.177,692.713 449.15,692.296 449.15,692.214 C449.15,692.132 452.654,691.282 453.498,690.113 C454.343,688.944 455.415,690.048 455.479,690.146 C455.544,690.243 458.175,692.744 461.716,692.744 C465.256,692.744 490.556,692.502 490.556,692.502 C490.556,692.502 496.079,690.776 496.638,690.106 C497.196,689.436 497.457,689.51 497.792,689.994 C498.127,690.478 500.919,692.712 503.823,692.861 C506.727,693.01 542.022,693.802 542.022,693.802 C542.022,693.802 544.363,693.516 544.776,692.788 C545.188,692.061 545.867,692.716 546.231,693.104 C546.595,693.492 548.25,695.595 553.231,695.894 C558.211,696.193 579.953,696.744 579.953,696.744 C579.953,696.744 586.908,696.286 591.717,692.17 C596.526,688.054 597.219,687.606 599.012,684.671 C600.805,681.737 602.232,680.351 602.476,677.825 C602.721,675.298 603.495,672.119 603.047,669.389 C602.598,666.658 602.639,666.169 602.639,666.169 C602.639,666.169 602.589,665.327 603.089,666.068 C603.588,666.809 606.846,669.776 609.361,670.89 C611.877,672.004 613.042,672.444 616.328,673.015 C619.614,673.586 625.33,673.71 628.744,673.765 C632.159,673.82 641.356,672.699 644.842,671.984 C648.328,671.269 656.517,668.78 658.702,667.002 C660.887,665.223 665.425,661.382 666.698,658.837 C667.97,656.292 669.243,653.075 669.349,650 C669.455,646.924 670.24,649.575 670.505,650.37 C670.769,651.164 675.438,656.571 679.993,661.126 C684.547,665.68 693.825,673.777 699.954,677.769 C706.083,681.762 708.33,683.426 719.091,687.85 C729.852,692.274 740.398,694.731 748.178,695.422 C755.958,696.114 767.801,696.114 772.382,694.904 C776.964,693.693 786.04,690.236 790.708,681.159 C795.376,672.082 797.883,664.821 794.944,653.497 C792.005,642.173 784.584,629.623 779.179,621.335 C773.773,613.047 760.801,593.588 757.317,588.302 C753.834,583.017 748.909,574.609 743.504,569.084 C738.098,563.558 739.547,561.243 724.183,559.73 C708.819,558.217 708.542,557.71 701.451,557.827 C698.393,557.877 697.584,558.282 696.977,558.653 C696.695,558.825 696.698,558.638 696.698,558.638 C696.698,558.638 693.865,553.563 691.794,552.228 C689.723,550.894 685.154,546.617 677.708,546.274 C670.262,545.931 666.725,545.771 662.762,546.088 C662.304,546.124 661.689,546.176 661.689,546.176 C661.689,546.176 659.974,540.542 650.911,538.827 C641.849,537.113 600.037,528.552 588.464,528.728 C576.892,528.903 574.331,528.864 568.814,534.439 C563.298,540.015 563.063,541.071 562.007,544.592 C560.95,548.114 558.849,555.124 558.721,556.596 C558.685,557.014 558.576,557.171 558.576,557.171 C558.576,557.171 541.518,555.469 532.699,556.315 C531.046,556.474 531.154,556.669 530.162,557.176 C529.098,557.719 528.756,557.317 528.511,555.532 C528.266,553.747 527.155,547.31 526.83,545.218 C526.496,543.064 526.284,540.589 522.467,535.122 C521.133,533.211 522.559,533.343 524.513,533.38 C526.468,533.417 536.559,533.389 544.25,532.269 C551.941,531.149 562.693,528.162 565.232,527.191 C567.771,526.221 572.116,524.082 573.78,522.834 C575.445,521.586 575.306,522.557 575.352,523.296 C575.398,524.036 576.045,525.469 578.773,526.162 C581.5,526.855 586.353,526.901 588.895,525.7 C591.438,524.498 599.576,519.688 602.477,516.954 C605.378,514.22 612.743,507.358 614.919,504.345 C617.095,501.333 623.399,492.294 625.073,488.445 C626.746,484.595 629.257,478.793 630.317,474.441 C631.377,470.09 631.377,470.089 631.377,470.089 C631.377,470.089 633.497,460.884 633.72,457.425 C633.943,453.966 633.801,454.55 633.801,453.501 C633.801,452.452 636.985,453.935 639.336,452.958 C641.687,451.982 643.935,451.164 645.851,448.581 C647.768,445.997 648.351,443.373 648.351,440.914 C648.351,438.456 648.351,438.081 647.309,435.331 C646.268,432.581 636.016,405.509 621.954,388.835 C621.258,388.01 620.98,387.207 620.661,386.25 C620.094,384.548 613.305,358.377 611.571,353.87 C611.099,352.642 611.09,352.475 612.176,352.381 C615.322,352.107 636.241,350.042 638.277,349.102 C640.313,348.163 640.158,347.207 640.158,347.207 C640.158,347.207 642.511,348.725 642.511,348.725 C642.511,348.725 722.179,337.788 727.749,335.931 C733.318,334.074 745.285,324.195 730.17,313.411 C715.054,302.627 647.455,259.614 612.538,244.621 C612.189,244.471 611.762,244.08 611.762,244.08 C611.762,244.08 611.814,235.541 599.206,219.582 C599.028,219.356 598.532,218.985 598.532,218.985 C598.532,218.985 597.536,218.613 598.454,217.565 C599.371,216.516 603.59,209.434 592.212,202.77 C580.833,196.105 569.167,193.965 558.385,194.321 C547.602,194.676 541.189,197.162 534.688,199.66 C531.724,200.799 530.238,202.657 527.867,204.079 C527.015,204.591 526.149,205.028 524.219,203.869 C521.323,202.13 475.733,184.059 463.402,180.109 C454.977,177.41 452.673,178.99 447.538,180.241 C439.658,182.16 394.932,200.115 386.66,203.808 C384.508,204.769 384.194,204.944 382.721,204.131 C378.768,201.949 371.869,194.769 354.387,194.519 C336.906,194.269 330.163,197.016 324.544,199.763 C318.925,202.51 315.132,204.5 312.107,209.277 C309.082,214.054 311.908,217.206 312.142,217.675 C312.376,218.143 312.831,218.479 311.605,219.398 C310.379,220.318 300.476,232.309 299.196,242.553 C299.026,243.915 298.558,244.553 297.792,244.638 C296.674,244.762 293.927,246.188 291.303,247.551 C288.679,248.914 189.72,305.361 181.039,311.975 C172.358,318.588 170.265,333.625 183.312,336.007 C196.359,338.39 237.472,344.999 241.548,345.435 C245.624,345.872 246.026,345.22 247.188,345.165 C248.349,345.11 249.788,345.663 250.396,346.216 C251.004,346.769 251.226,346.769 252.996,346.99 C254.766,347.212 296.407,351.665 298.471,351.665 C300.535,351.665 299.168,353.774 298.802,354.767 C298.437,355.76 291.033,377.402 289.841,385.697 C289.395,388.799 289.065,389.349 288.039,389.643 C286.955,389.952 286.904,390.526 285.319,393.016 C283.734,395.507 268.106,418.477 264.247,432.258 C260.388,446.039 265.399,452.542 272.681,452.617 C275.573,452.646 275.902,452.149 275.902,452.149 C275.902,452.149 279.524,490.437 294.836,504.984 C310.148,519.53 313.299,522.313 318.204,524.612 C323.108,526.911 330.693,526.98 333.427,523.822 C336.161,520.663 334.877,522.132 334.877,522.132 C334.877,522.132 337.99,523.633 337.99,523.633 C337.99,523.633 316.176,531.041 316.176,531.041 C316.176,531.041 314.041,531.892 313.364,532.865 C312.687,533.838 311.344,533.5 310.472,532.687 C309.599,531.875 308.967,531.303 307.763,531.152 C306.559,531.002 300.23,528.643 294.232,530.871 C288.235,533.099 271.013,539.867 271.013,539.867 C271.013,539.867 269.847,540.25 268.533,540.203 C267.22,540.156 260.246,539.928 260.246,539.928 C260.246,539.928 259.106,539.546 256.114,540.629 C253.121,541.711 225.547,550.396 225.547,550.396 C225.547,550.396 223.823,551.59 223.823,551.59 C223.823,551.59 222.101,550.761 222.101,550.761 C222.101,550.761 210.003,550.348 210.003,550.348 C210.003,550.348 177.43,564.382 177.43,564.382 C177.43,564.382 175.474,564.727 171.863,568.602 C168.252,572.477 89.203,670.726 89.203,670.864 C89.203,671.001 81.825,681.544 88.051,693.516 C94.277,705.489 101.061,706.287 103.216,706.686 C105.371,707.086 112.927,708.703 119.446,706.418 z" fill="#C85F64" display="none"/>
    <path d="M128.565,318.856 C128.565,318.856 165.047,303.281 165.047,303.281 C165.047,303.281 171.684,299.503 172.577,295.63 C172.649,295.32 172.786,294.725 172.786,294.725 C172.786,294.725 177.322,301.479 184.393,302.012 C191.464,302.545 198.111,303.035 201.037,301.982 C203.963,300.929 231.913,287.54 231.913,287.54 C231.913,287.54 233.177,286.838 233.611,285.608 C233.705,285.342 233.735,285.056 233.735,285.056 C233.735,285.056 238.152,288.854 241.816,289.22 C245.48,289.587 261.129,289.961 265.705,289.791 C270.281,289.622 285.479,286.627 289.321,285.158 C293.163,283.689 303.671,279.339 306.609,277.644 C309.547,275.949 313.838,272.637 313.838,272.637 C313.838,272.637 314.812,272.788 314.812,272.788 C314.812,272.788 313.868,275.349 313.501,278.717 C313.133,282.086 312.766,287.965 313.44,290.966 C314.113,293.967 316.073,298.071 317.91,300.214 C319.748,302.358 323.484,305.543 325.321,306.829 C327.158,308.115 328.873,308.727 329.792,309.034 C330.711,309.34 330.434,309.244 330.434,309.244 C330.434,309.244 345.299,310.135 349.587,309.403 C353.875,308.671 361.062,305.631 363.129,301.268 C363.308,300.89 363.413,300.652 363.413,300.652 C363.413,300.652 364.258,300.519 364.258,300.519 C364.258,300.519 367.762,305.983 371.975,306.192 C376.188,306.401 412.2,305.203 412.2,305.203 C412.2,305.203 415.786,303.977 416.32,303.372 C416.854,302.767 417.957,302.66 418.527,303.194 C419.096,303.728 421.018,305.009 422.157,305.08 C423.296,305.152 458.269,304.734 458.269,304.652 C458.269,304.57 461.773,303.721 462.617,302.552 C463.462,301.383 464.534,302.487 464.599,302.584 C464.664,302.682 467.295,305.183 470.835,305.183 C474.375,305.183 499.675,304.941 499.675,304.941 C499.675,304.941 505.199,303.215 505.757,302.545 C506.316,301.875 506.576,301.949 506.911,302.433 C507.246,302.917 510.039,305.151 512.943,305.3 C515.846,305.449 551.141,306.241 551.141,306.241 C551.141,306.241 553.482,305.955 553.895,305.227 C554.307,304.499 554.986,305.154 555.35,305.542 C555.714,305.931 557.369,308.034 562.35,308.332 C567.331,308.631 589.073,309.183 589.073,309.183 C589.073,309.183 596.027,308.725 600.836,304.609 C605.645,300.493 606.338,300.044 608.131,297.11 C609.924,294.176 611.351,292.79 611.595,290.264 C611.84,287.737 612.614,284.558 612.166,281.827 C611.717,279.097 611.758,278.608 611.758,278.608 C611.758,278.608 611.709,277.766 612.208,278.507 C612.707,279.248 615.965,282.215 618.481,283.329 C620.996,284.443 622.161,284.882 625.447,285.454 C628.733,286.025 634.449,286.148 637.863,286.204 C641.278,286.259 650.475,285.138 653.961,284.423 C657.448,283.708 665.637,281.219 667.821,279.441 C670.006,277.662 674.544,273.821 675.817,271.276 C677.089,268.73 678.362,265.514 678.468,262.439 C678.574,259.363 679.359,262.014 679.624,262.809 C679.888,263.603 684.557,269.01 689.112,273.564 C693.666,278.119 702.944,286.216 709.073,290.208 C715.202,294.201 717.449,295.865 728.21,300.289 C738.971,304.713 749.517,307.169 757.297,307.861 C765.077,308.553 776.92,308.553 781.501,307.342 C786.083,306.132 795.159,302.674 799.827,293.598 C804.495,284.521 807.002,277.26 804.063,265.936 C801.124,254.611 793.703,242.062 788.298,233.774 C782.893,225.485 769.92,206.026 766.436,200.741 C762.953,195.456 758.028,187.048 752.623,181.522 C747.218,175.997 748.666,173.681 733.302,172.169 C717.938,170.656 717.661,170.149 710.57,170.266 C707.513,170.316 706.703,170.721 706.096,171.092 C705.814,171.264 705.817,171.077 705.817,171.077 C705.817,171.077 702.984,166.002 700.913,164.667 C698.842,163.332 694.273,159.055 686.827,158.712 C679.381,158.369 675.844,158.209 671.881,158.526 C671.423,158.563 670.808,158.614 670.808,158.614 C670.808,158.614 669.093,152.981 660.031,151.266 C650.968,149.552 609.156,140.991 597.584,141.166 C586.011,141.342 583.45,141.303 577.934,146.878 C572.417,152.453 572.182,153.51 571.126,157.031 C570.069,160.553 567.968,167.562 567.84,169.035 C567.804,169.452 567.695,169.609 567.695,169.609 C567.695,169.609 550.637,167.908 541.818,168.754 C540.165,168.912 540.274,169.108 539.281,169.615 C538.217,170.158 537.875,169.756 537.63,167.971 C537.385,166.185 536.274,159.749 535.949,157.657 C535.615,155.502 535.508,152.953 531.586,147.561 C524.022,137.163 509.938,132.154 507.903,131.808 C491.446,129.007 482.278,130.122 481.257,130.401 C467.185,134.239 459.509,141.183 447.656,135.672 C438.805,131.558 436.781,128.894 430.911,130.808 C423.454,133.24 416.68,136.093 413.939,137.189 C407.558,139.741 400.539,144.208 398.37,138.338 C394.082,126.734 384.205,131.446 376.768,133.141 C373.948,133.784 365.649,138.828 365.649,138.828 C361.603,133.394 351.999,133.647 351.999,133.647 C351.999,133.647 344.038,135.922 344.038,135.922 C344.038,135.922 325.295,143.48 325.295,143.48 C325.295,143.48 323.161,144.331 322.484,145.304 C321.807,146.277 320.463,145.939 319.591,145.126 C318.718,144.313 318.086,143.742 316.882,143.591 C315.678,143.441 309.349,141.082 303.351,143.31 C297.354,145.537 280.132,152.306 280.132,152.306 C280.132,152.306 278.966,152.689 277.652,152.642 C276.339,152.595 269.365,152.366 269.365,152.366 C269.365,152.366 268.226,151.985 265.233,153.067 C262.241,154.15 234.666,162.834 234.666,162.834 C234.666,162.834 232.942,164.028 232.942,164.028 C232.942,164.028 231.221,163.2 231.221,163.2 C231.221,163.2 219.122,162.787 219.122,162.787 C219.122,162.787 186.549,176.821 186.549,176.821 C186.549,176.821 184.593,177.166 180.982,181.041 C177.371,184.916 98.322,283.165 98.322,283.302 C98.322,283.44 90.944,293.983 97.17,305.955 C103.396,317.928 110.18,318.726 112.336,319.125 C114.491,319.524 122.046,321.142 128.565,318.856 z" fill="#ECB021" id="Shape_II"/>
  </g>
  <g id="Bila_-_spodni"/>
  <g id="Obrys_-_navy">
    <path d="M476.939,142.514 C476.939,142.514 489.513,140.908 505.298,143.049 C513.723,144.191 521.815,149.684 523.561,157.748 C525.307,165.812 527.635,177.451 527.884,179.696 C528.134,181.94 528.381,182.614 529.993,182.572 C531.605,182.529 533.726,182.614 535.083,183.929 C536.441,185.244 536.186,184.99 536.186,184.99 C536.186,184.99 539.579,180.281 543.906,180.281 C548.232,180.281 573.309,181.462 576.666,181.822 C578.359,182.003 578.039,180.937 578.039,179.273 C578.039,177.609 578.003,176.486 579.281,171.852 C580.56,167.217 582.398,159.786 582.398,159.786 C582.398,159.786 584.555,151.076 594.384,152.195 C604.212,153.313 654.406,161.602 654.406,161.602 C654.406,161.602 661.897,162.442 664.822,168.292 C665.588,169.825 665.283,169.541 667.75,169.585 C670.217,169.629 686.812,170.129 686.812,170.129 C686.812,170.129 696.943,172.221 700.786,183.401 C701.194,184.586 701.708,185.242 701.708,185.242 C701.708,185.242 704.587,181.008 711.363,181.347 C718.138,181.685 735.267,183.735 735.267,183.735 C735.267,183.735 740.165,182.776 746.554,192.359 C752.943,201.943 778.856,240.442 783.339,248.628 C787.822,256.815 791.273,262.021 792.345,268.453 C793.417,274.886 792.965,280.724 792.375,282.731 C791.784,284.739 788.078,294.446 777.427,296.204 C766.776,297.962 757.883,296.101 751.886,295.067 C745.889,294.033 733.273,289.897 726.345,286.174 C719.417,282.451 705.354,273.662 699.15,267.251 C692.946,260.84 684.053,248.845 681.468,242.331 C678.883,235.816 680.514,240.406 679.468,241.872 C678.421,243.337 674.664,247.849 670.694,247.56 C666.723,247.271 664.63,247.271 664.63,247.271 C664.63,247.271 666.723,252.397 666.723,252.397 C666.723,252.397 666.426,263.681 666.426,263.681 C666.426,263.681 662.224,270.478 657.651,271.59 C653.079,272.702 630.711,276.039 626.138,273.691 C621.566,271.343 618.847,269.86 616.623,264.793 C614.398,259.726 608.25,243.411 608.194,240.319 C608.171,239.036 607.644,238.67 607.644,238.67 C607.644,238.67 602.995,237.822 599.233,233.81 C598.849,233.4 598.524,232.807 598.524,232.807 C598.524,232.807 593.877,235.325 593.877,235.325 C593.877,235.325 592.41,236.138 582.176,234.781 C571.942,233.423 550.357,230.308 541.439,231.039 C538.21,231.304 538.422,232.574 537.575,233.051 C536.786,233.495 535.709,233.22 535.471,233.458 C535.233,233.696 535.352,242.335 535.352,242.335 C535.352,242.335 534.757,246.021 533.767,247.052 C532.776,248.082 533.014,248.597 534.203,248.478 C535.392,248.36 539.553,248.518 539.553,248.518 C539.553,248.518 544.123,249.315 545.948,252.027 C547.774,254.74 550.538,258.756 550.538,258.756 C550.538,258.756 555.128,253.853 555.128,253.853 C555.128,253.853 557.423,250.515 563.943,250.515 C570.463,250.515 584.493,251.506 584.493,251.506 C584.493,251.506 588.874,252.549 590.648,255.209 C592.421,257.869 594.403,261.051 594.872,262.772 C595.342,264.493 595.237,266.788 595.237,266.788 C595.237,266.788 598.106,268.77 598.628,270.7 C599.149,272.63 601.548,281.392 600.14,285.669 C598.732,289.946 595.237,293.806 592.629,295.214 C590.022,296.622 582.155,296.847 574.409,296.651 C566.663,296.456 563.409,295.805 563.409,295.805 C563.409,295.805 557.784,293.419 556.085,290.493 C554.386,287.567 555.46,289.599 554.769,290.693 C554.077,291.788 552.601,294.145 549.947,294.396 C547.294,294.646 535.678,294.396 535.678,294.396 C535.678,294.396 532.774,292.693 532.774,292.693 C532.774,292.693 531.071,293.444 531.071,293.444 C531.071,293.444 517.136,293.485 517.136,293.485 C517.136,293.485 510.3,290.725 508.68,286.096 C508.516,285.628 508.436,285.207 508.436,285.207 C508.436,285.207 504.894,292.734 497.03,292.857 C489.167,292.98 471.877,292.736 471.877,292.736 C471.877,292.736 465.511,290.822 463.686,286.654 C463.546,286.335 463.445,286 463.445,286 C463.445,286 460.207,293.251 454.632,293.35 C449.058,293.448 441.875,293.05 441.875,293.05 C441.875,293.05 439.441,291.769 439.441,291.769 C439.441,291.769 439.057,292.538 439.057,292.538 C439.057,292.538 424.39,293.05 424.39,293.05 C424.39,293.05 418.918,291.434 417.76,288.603 C417.619,288.259 417.537,287.926 417.537,287.926 C417.537,287.926 416.899,287.722 416.899,287.722 C416.899,287.722 413.978,293.341 408.701,293.569 C403.425,293.796 394.476,293.58 394.476,293.58 C394.476,293.58 394.413,292.505 394.413,292.505 C394.413,292.505 390.742,294.213 390.742,294.213 C390.742,294.213 376.503,294.593 376.503,294.593 C376.503,294.593 369.295,292.648 369.213,287.884 C369.197,286.978 369.196,286.644 369.196,286.644 C369.196,286.644 369.295,284.728 366.839,287.184 C364.383,289.64 359.57,289.443 358.342,289.885 C357.114,290.327 356.476,291.359 356.377,291.555 C356.279,291.752 354.266,295.828 349.698,296.614 C345.13,297.4 333.932,297.203 333.932,297.203 C333.932,297.203 326.565,294.649 325.632,289.099 C324.699,283.549 325.484,280.75 325.484,280.75 C325.484,280.75 327.154,273.383 328.137,271.074 C329.119,268.766 329.483,269.649 327.769,268.519 C326.055,267.388 322.684,264.786 322.259,261.766 C321.834,258.745 321.74,252.657 321.928,251.477 C322.117,250.297 322.164,250.203 322.164,250.203 C322.164,250.203 313.035,260.222 304.848,264.703 C296.66,269.185 293.557,271.081 284.249,274.011 C274.941,276.942 272.183,277.287 264.426,277.89 C256.669,278.493 249.066,278.381 245.399,277.481 C241.732,276.582 235.505,272.223 234.743,271.185 C233.982,270.147 233.522,270.391 232.933,271.231 C232.345,272.072 229.849,275.187 227.222,276.627 C224.596,278.067 199.944,289.843 199.944,289.843 C199.944,289.843 189.948,292.045 185.712,289.673 C181.476,287.301 179.019,284.082 178.342,282.388 C177.664,280.694 175.292,276.288 175.292,276.288 C175.292,276.288 174.31,274.023 172.692,277.035 C171.075,280.047 164.203,289.105 160.837,291.683 C157.472,294.261 124.911,307.626 124.911,307.626 C124.911,307.626 113.817,309.941 110.055,304.539 C106.293,299.137 106.696,292.766 107.683,291.073 C108.671,289.381 143.939,244.591 143.939,244.591 C143.939,244.591 184.826,193.643 184.826,193.643 C184.826,193.643 185.812,190.411 197.899,185.246 C209.987,180.082 220.276,175.657 220.276,175.657 C220.276,175.657 225.252,172.992 230.405,175.835 C235.559,178.678 233.655,177.791 235.278,176.303 C236.902,174.815 242.177,173.056 245.154,172.177 C248.13,171.297 265.445,165.278 269.165,164.601 C272.885,163.925 276.064,164.06 276.876,164.466 C277.687,164.872 279.852,165.142 282.151,163.992 C284.451,162.843 301.293,155.741 304.945,154.726 C308.598,153.712 314.279,154.523 315.767,155.741 C317.256,156.958 320.367,159.799 320.367,159.867 C320.367,159.867 321.178,157.905 324.831,156.62 C328.483,155.335 349.384,147.624 349.383,147.624 C349.384,147.624 356.702,146.206 358.535,147.539 C360.369,148.872 363.04,151.209 363.38,151.515 C363.657,151.764 363.989,151.82 363.989,151.82 C363.989,151.82 376.02,143.514 378.295,143.048 C380.57,142.581 388.737,141.589 391.362,144.681 C393.987,147.773 394.979,149.756 395.737,151.448 C396.495,153.14 399.12,159.44 399.12,159.44 C399.12,159.44 399.529,161.657 399.995,159.265 C400.462,156.873 400.724,154.055 402.504,151.915 C408.987,144.119 421.992,141.287 422.898,141.176 C436.007,139.571 453.129,147.062 453.129,147.062 z M374.933,243.462 L374.933,243.462 C374.933,243.462 371.214,253.154 371.214,253.154 C371.214,252.816 376.511,258.001 376.511,258.001 C376.511,258.001 380.906,251.576 380.906,251.576 C380.906,251.576 374.933,243.462 374.933,243.462 L374.933,243.462 z M434.08,238.621 L434.08,238.621 C434.081,238.621 433.809,243.599 433.809,243.599 C433.809,243.599 431.908,246.404 431.908,246.404 C431.818,246.314 443.222,248.033 441.14,247.038 C439.058,246.042 434.081,238.621 434.081,238.621 L434.08,238.621 z M239.251,225.788 L239.251,225.788 C239.251,225.788 230.705,231.855 230.705,231.855 C230.705,231.855 233.525,236.299 233.44,236.384 C233.44,236.385 239.251,225.788 239.251,225.788 L239.251,225.788 z" fill="#1C2E4A"/>
  </g>
  <g id="Bila_/_usi"/>
  <g id="Kung-Fu">
    <path d="M128.019,282.793 C129.948,280.6 193.362,202.509 194.23,201.12 C195.098,199.731 195.708,199.167 197.36,198.528 C199.013,197.888 222.411,187.388 223.104,187.068 C223.797,186.748 227.262,185.202 225.236,188.134 C223.211,191.066 220.599,195.383 219.533,196.769 C218.467,198.154 215.642,202.418 214.523,203.804 C213.404,205.19 211.591,207.695 210.792,208.655 C209.992,209.614 204.289,217.023 211.698,210.68 C219.107,204.337 221.985,202.312 224.224,200.5 C226.462,198.687 229.34,196.076 231.952,194.157 C234.564,192.238 237.282,189.733 239.041,188.454 C240.8,187.175 240.96,186.375 245.277,184.883 C249.594,183.39 252.579,182.324 256.204,181.205 C259.828,180.086 265.211,178.114 267.823,177.527 C270.435,176.941 276.511,174.649 270.595,179.286 C264.678,183.923 253.752,193.198 250.66,195.543 C247.569,197.888 229.966,212.081 225.75,214.966 C221.535,217.85 215.893,222.004 214.906,222.662 C213.919,223.32 211.78,224.526 213.48,226.83 C215.18,229.133 217.95,234.155 218.676,235.462 C219.402,236.768 223.684,243.88 224.41,245.114 C225.135,246.348 227.174,249.188 228.075,250.149 C228.976,251.11 230.176,251.997 230.439,252.155 C230.702,252.313 231.243,252.653 230.162,253.289 C229.081,253.925 219.451,259.544 217.75,260.292 C216.05,261.04 205.374,266.82 204.218,267.296 C203.062,267.772 197.893,270.696 195.921,266.548 C193.949,262.4 190.549,254.783 189.529,252.063 C188.509,249.343 187.421,245.943 186.945,244.651 C186.469,243.359 185.706,240.111 182.122,244.644 C178.538,249.177 174.637,253.763 172.687,256.451 C170.736,259.139 166.941,264.305 165.834,265.939 C164.727,267.573 162.988,269.945 162.461,270.63 C161.934,271.316 158.876,273.266 156.241,274.478 C153.605,275.691 148.492,277.799 146.12,278.853 C143.748,279.907 135.894,283.439 133.944,284.335 C131.994,285.231 122.885,288.631 128.019,282.793 z" fill="url(#Gradient_1)" id="K"/>
    <path d="M281.875,178.382 C280.172,181.072 251.048,227.888 250.246,229.607 C249.444,231.326 247.776,233.623 247.46,234.966 C247.144,236.308 245.802,240.334 245.723,241.755 C245.644,243.176 246.118,247.834 246.67,248.782 C247.223,249.729 249.434,252.966 250.46,253.361 C251.486,253.756 255.907,255.335 257.328,255.335 C258.75,255.335 263.565,255.492 265.776,255.492 C267.987,255.492 273.987,255.492 275.961,255.019 C277.934,254.545 287.566,251.703 290.645,250.519 C293.724,249.334 301.619,245.229 303.83,243.808 C306.04,242.387 313.304,236.781 315.04,234.966 C316.777,233.15 323.014,226.123 324.593,223.755 C326.172,221.386 332.567,212.228 333.909,209.307 C335.251,206.386 340.225,195.807 341.094,193.754 C341.962,191.701 345.831,183.096 346.778,180.648 C347.726,178.201 350.962,171.017 351.752,169.043 C352.541,167.069 354.199,162.727 354.515,161.622 C354.831,160.516 356.465,158.1 351.802,159.388 C347.139,160.677 332.72,165.892 331.615,166.322 C330.511,166.751 328.67,166.506 326.891,170.126 C325.112,173.746 322.719,178.347 321.492,180.986 C320.264,183.624 316.706,191.136 315.429,193.886 C314.152,196.636 308.455,207.245 306.884,210.388 C305.312,213.531 300.598,222.175 299.026,224.238 C297.454,226.3 293.624,230.033 291.463,231.211 C289.302,232.39 285.538,233.935 283.371,234.244 C281.205,234.554 277.878,233.238 277.414,232.465 C276.95,231.691 276.486,229.138 277.182,227.204 C277.879,225.27 280.223,221.389 281.384,219.3 C282.544,217.212 284.313,214.452 287.248,209.594 C290.183,204.736 293.909,197.684 295.842,194.327 C297.763,190.99 301.428,184.447 302.541,182.524 C303.654,180.601 307.702,173.011 308.714,171.493 C309.726,169.975 314.115,164.106 307.08,167.088 C300.046,170.07 289.418,173.893 287.965,174.505 C286.512,175.117 283.584,175.683 281.875,178.382 z" fill="url(#Gradient_2)" id="U"/>
    <path d="M337.323,243.363 C338.622,240.383 348.992,214.611 351.075,209.663 C353.157,204.715 362.208,179.977 362.69,178.77 C363.173,177.563 363.9,176.678 362.564,172.727 C361.227,168.776 359.717,167.614 362.215,166.219 C364.713,164.825 370.93,160.869 372.615,159.945 C374.3,159.02 379.587,155.819 380.575,155.296 C381.563,154.773 384.642,152.624 385.63,156.342 C386.618,160.061 388.841,166.321 389.757,168.929 C390.673,171.536 392.576,176.751 393.492,179.006 C394.408,181.261 396.24,185.983 397.297,188.379 C398.354,190.775 399.905,193.946 401.173,196.342 C402.442,198.738 404.415,202.12 404.415,202.191 C404.415,202.261 404.979,198.808 404.979,198.808 C404.979,198.808 406.66,190.243 407.212,186.541 C407.763,182.839 408.551,177.484 409.102,174.175 C409.654,170.867 410.52,164.251 410.914,162.046 C411.308,159.84 410.915,157.367 415.147,155.937 C419.379,154.507 426.786,151.876 427.786,151.647 C428.786,151.419 433.906,149.188 432.99,154.45 C432.075,159.711 431.332,165.202 431.046,167.661 C430.76,170.12 429.36,179.333 429.073,183.168 C428.786,187.003 427.582,193.821 427.156,198.508 C426.73,203.195 424.954,213.493 424.812,215.836 C424.67,218.18 423.818,225.282 423.747,226.915 C423.676,228.548 424.386,230.679 420.835,232.525 C417.284,234.372 411.603,237.284 408.904,238.704 C406.206,240.124 402.868,241.758 401.518,242.397 C400.169,243.036 398.962,243.604 397.044,240.835 C395.127,238.065 391.86,233.307 390.156,230.608 C388.451,227.909 385.61,223.435 384.261,221.234 C382.912,219.032 380.213,214.7 378.864,212.285 C377.514,209.871 376.307,207.03 376.023,206.036 C375.739,205.042 374.603,202.698 373.75,205.965 C372.898,209.232 371.975,212.001 371.194,214.984 C370.413,217.967 368.566,222.867 367.856,225.282 C367.146,227.696 365.867,231.531 365.228,233.662 C364.583,235.813 364.021,239.272 360.186,240.622 C355.371,242.315 352.8,243.036 349.178,244.385 C345.556,245.735 344.349,246.161 342.219,246.942 C340.088,247.723 334.486,249.869 337.323,243.363 z" fill="url(#Gradient_3)" id="N"/>
    <path d="M487.392,213.122 C488.56,213.189 496.657,213.024 497.438,213.219 C498.218,213.414 498.855,213.777 498.855,214.526 C498.855,215.275 498.748,219.289 498.641,219.824 C498.534,220.359 498.962,222.018 496.393,222.285 C493.825,222.553 490.239,223.034 488.366,222.927 C486.493,222.82 481.731,221.857 481.142,221.59 C480.554,221.322 476.968,218.646 475.844,217.309 C474.721,215.971 472.527,212.921 471.992,211.262 C471.456,209.603 470.012,205.375 469.958,204.091 C469.905,202.807 469.69,199.917 469.69,197.991 C469.69,196.064 469.744,190.98 470.065,189.75 C470.386,188.519 472.099,182.846 472.955,181.562 C473.811,180.278 477.129,175.943 478.306,175.141 C479.483,174.338 482.962,172.037 484.567,171.502 C486.172,170.967 490.453,170.646 493.236,170.967 C496.019,171.288 498.694,172.09 501.905,173.856 C505.116,175.622 510.2,178.084 511.27,178.886 C512.34,179.689 517.424,182.953 516.033,177.174 C514.641,171.395 512.501,162.351 512.233,161.067 C511.966,159.782 511.591,158.605 509.45,157.374 C507.31,156.144 502.752,153.619 499.568,152.841 C496.384,152.063 491.149,150.984 489.38,150.984 C487.611,150.984 482.517,150.542 480.112,150.984 C477.706,151.426 473.673,152.204 469.853,154.185 C466.032,156.166 461.646,158.501 459.452,160.341 C457.259,162.18 451.811,167.345 450.538,169.114 C449.264,170.882 446.222,175.623 445.302,177.604 C444.383,179.585 441.482,186.235 440.916,188.287 C440.35,190.339 439.076,196.07 439.076,198.192 C439.076,200.315 439.359,206.611 439.925,208.946 C440.491,211.281 441.836,216.304 443.038,218.568 C444.241,220.832 449.052,227.695 450.75,229.11 C452.448,230.525 459.169,234.77 461.15,235.548 C463.131,236.326 470.065,238.873 472.188,239.227 C474.31,239.581 481.385,240.642 484.427,240.642 C487.47,240.642 495.323,240.642 497.658,240.359 C499.992,240.076 507.421,238.378 510.251,237.176 C513.081,235.973 519.307,232.86 520.439,232.152 C521.571,231.445 522.029,230.583 522.029,228.827 C522.029,227.071 521.866,221.182 521.866,219.841 C521.866,218.499 522.018,215.81 522.163,214.942 C522.308,214.073 522.814,213.458 523.9,213.458 C524.986,213.458 525.999,213.458 526.759,213.458 C527.519,213.458 529.347,213.784 529.51,211.142 C529.673,208.5 529.987,205.593 530.414,203.548 C530.84,201.502 530.883,199.712 531.138,198.689 C531.394,197.666 532.204,194.853 529.433,194.597 C526.663,194.342 521.563,193.668 518.938,193.537 C516.312,193.405 508.631,193.011 505.873,193.011 C503.116,193.011 495.829,192.618 494.188,192.618 C492.547,192.618 490.009,192.399 489.382,195.324 C488.755,198.25 487.711,202.555 487.376,204.227 C487.042,205.899 486.499,209.284 486.331,210.329 C486.164,211.374 485.819,213.031 487.392,213.122 z" fill="url(#Gradient_4)" id="G"/>
    <path d="M536.129,205.839 C536.974,204.362 541.956,196.257 543.949,194.264 C545.942,192.271 546.862,191.964 552.304,192.501 C557.747,193.037 575.532,193.881 579.595,194.034 C583.658,194.187 590.25,193.957 589.331,200.397 C588.411,206.836 588.794,203.693 588.257,207.373 C587.721,211.052 588.871,213.582 579.365,211.895 C569.859,210.209 548.318,207.833 543.182,208.062 C538.046,208.292 534.903,207.986 536.129,205.839 z" fill="url(#Gradient_5)" id="-"/>
    <path d="M602.451,212.429 C603.001,210.592 606.534,203.186 606.874,201.826 C607.214,200.465 607.639,198.849 606.959,196.978 C606.278,195.107 603.982,187.112 603.557,185.752 C603.132,184.391 602.536,183.2 601.346,183.03 C600.155,182.86 592.501,181.414 591.65,181.244 C590.8,181.074 589.354,180.734 589.949,178.012 C590.544,175.291 592.756,168.402 593.096,167.041 C593.436,165.68 592.756,163.384 596.328,164.064 C599.9,164.745 609.68,166.361 612.317,166.616 C614.953,166.871 625.839,168.827 628.816,169.252 C631.793,169.678 641.063,171.208 644.125,171.719 C647.186,172.229 650.928,172.654 652.289,173.08 C653.65,173.505 655.861,173.59 656.286,177.842 C656.712,182.095 657.477,186.007 657.477,187.623 C657.477,189.239 658.242,191.96 653.48,190.684 C648.717,189.409 642.253,188.218 639.957,187.963 C637.661,187.708 633.494,186.687 631.963,186.602 C630.432,186.517 627.03,185.411 628.731,189.494 C630.432,193.576 631.913,197.734 632.429,198.939 C632.946,200.144 633.118,201.981 636.676,202.669 C640.234,203.358 648.957,204.965 651.137,205.309 C653.318,205.654 657.163,206.457 658.597,206.801 C660.032,207.146 663.246,208.465 663.303,211.966 C663.361,215.467 663.59,220.287 663.533,222.066 C663.475,223.845 664.221,226.14 659.745,224.878 C655.269,223.615 649.645,222.181 648.612,222.181 C647.579,222.181 644.194,221.549 643.275,221.607 C642.357,221.664 640.75,220.918 642.816,225.739 C644.882,230.559 647.491,237.888 648.356,240.326 C649.221,242.764 649.299,242.842 649.85,245.123 C650.401,247.404 652.445,249.291 646.626,250.235 C640.806,251.179 636.559,251.651 634.2,252.044 C631.84,252.437 625.785,252.83 624.054,248.898 C622.324,244.966 619.65,237.652 618.942,234.585 C618.235,231.518 615.797,225.069 615.403,223.024 C615.01,220.979 614.481,217.654 610.45,217.157 C606.42,216.66 606.751,216.494 605.481,216.384 C604.211,216.273 601.685,214.99 602.451,212.429 z" fill="url(#Gradient_6)" id="F"/>
    <path d="M665.844,180.683 C667.244,180.73 682.295,181.341 683.694,181.506 C685.092,181.67 686.079,181.341 687.313,183.398 C688.547,185.454 698.829,203.715 699.98,205.689 C701.132,207.663 711.085,226.171 712.072,228.145 C713.059,230.119 717.995,238.909 719.475,240.642 C720.956,242.376 723.753,247.064 728.277,249.038 C732.801,251.013 734.167,251.784 736.788,252.033 C739.41,252.281 739.745,252.423 740.637,251.921 C741.529,251.419 742.98,250.598 742.255,247.913 C741.529,245.228 739.028,240.706 737.434,237.864 C735.84,235.022 732.72,229.962 731.126,227.466 C729.532,224.971 726.284,219.292 724.607,216.472 C722.93,213.652 718.89,207.326 717.823,205.725 C716.756,204.124 713.097,198.027 712.335,196.883 C711.573,195.74 709.195,192.857 713.607,193.317 C718.019,193.776 728.912,194.65 730.153,194.833 C731.393,195.017 733.324,194.374 735.438,197.545 C737.552,200.716 743.73,209.314 745.45,212.027 C747.17,214.739 757.159,230.152 758.416,232.335 C759.672,234.518 765.295,243.845 767.015,246.954 C768.735,250.063 771.977,255.62 772.704,258.795 C773.432,261.971 773.498,266.072 773.101,268.123 C772.704,270.173 768.801,273.613 767.015,274.076 C765.229,274.539 755.836,274.142 753.587,273.944 C751.337,273.746 739.563,271.629 735.593,269.975 C731.624,268.321 720.445,263.029 718.328,261.706 C716.211,260.383 707.347,254.036 705.495,252.281 C703.642,250.526 693.451,240.117 690.785,235.181 C688.119,230.245 681.406,218.398 679.234,213.659 C677.062,208.92 671.237,198.258 669.263,194.21 C667.288,190.162 664.601,184.848 664.074,184.03 C663.547,183.212 662.296,180.564 665.844,180.683 z" fill="url(#Gradient_7)" id="U"/>
  </g>
  <g id="Pandas">
    <path d="M357.74,262.784 C357.74,262.784 363.544,262.784 364.252,263.633 C364.959,264.482 365.88,266.252 365.596,268.446 C365.313,270.64 365.101,272.764 364.181,274.179 C363.261,275.595 360.217,277.364 359.226,277.86 C358.235,278.355 357.315,278.497 356.041,278.568 C354.767,278.638 350.167,278.568 350.096,278.568 C350.025,278.568 347.265,280.549 347.265,280.549 C347.265,280.549 345.92,286.07 345.92,286.07 C345.92,286.07 336.223,286.212 336.223,286.353 C336.223,286.353 342.805,264.199 342.805,264.199 C342.805,264.199 346.557,263.208 346.557,263.208 C346.557,263.208 357.74,262.784 357.74,262.784 z M353.12,268.187 L352.502,268.234 C351.865,268.375 350.167,270.499 350.096,270.216 C350.096,270.216 349.53,272.834 349.53,272.834 C349.53,272.834 350.167,273.755 350.167,273.755 C350.167,273.755 353.635,273.825 353.635,273.825 C353.635,273.825 354.413,273.542 355.05,272.764 C355.687,271.985 356.466,270.853 356.395,270.216 C356.324,269.579 355.546,268.588 355.121,268.446 C354.132,268.222 354.792,268.35 353.12,268.187 z" fill="#ECB021"/>
    <path d="M403.393,259.386 C403.393,259.386 407.569,268.446 407.569,268.446 C407.569,268.446 407.215,282.248 407.215,282.248 C407.215,282.248 397.164,282.39 397.093,282.39 C397.023,282.39 397.023,277.294 397.023,277.294 C397.023,277.294 389.732,277.223 389.732,277.223 C389.732,277.223 388.671,283.451 388.812,283.239 C388.812,283.239 379.399,283.451 379.399,283.451 C379.399,283.451 380.248,274.675 380.248,274.675 C380.248,274.675 389.025,260.59 389.025,260.59 C389.025,260.59 403.393,259.386 403.393,259.386 z M395.253,266.181 C395.253,266.181 392.351,270.853 392.422,270.853 C392.422,270.853 397.518,270.853 397.518,270.853 C397.518,270.853 396.456,266.252 396.456,266.252 C396.456,266.252 395.253,266.181 395.253,266.181 z" fill="#ECB021"/>
    <path d="M427.741,259.103 C427.741,259.103 426.396,281.328 426.396,281.328 C426.396,281.328 436.022,281.682 436.022,281.682 C436.022,281.682 436.447,270.711 436.447,270.711 C436.447,270.711 437.792,270.64 437.792,270.64 C437.792,270.64 443.383,276.727 443.383,276.727 C443.383,276.727 443.596,281.328 443.596,281.328 C443.596,281.328 453.434,281.54 453.434,281.54 C453.434,281.54 454.213,258.82 454.213,258.82 C454.213,258.82 444.303,258.537 444.303,258.537 C444.303,258.537 444.162,265.898 444.162,265.898 C444.162,265.898 436.659,258.749 436.659,258.749 C436.659,258.749 428.166,258.325 428.166,258.325 C428.166,258.325 427.812,259.245 427.741,259.103 z" fill="#ECB021"/>
    <path d="M472.615,258.749 C472.544,258.891 488.824,258.678 494.203,258.891 C499.582,259.103 500.078,265.756 500.078,265.756 C500.078,265.756 499.936,273.401 499.936,277.223 C499.936,281.045 494.698,281.328 494.698,281.328 C494.698,281.328 472.828,281.045 472.757,281.045 C472.686,281.045 472.615,258.749 472.615,258.749 z M488.753,264.695 C487.125,264.624 482.595,265.332 482.737,265.049 C482.737,265.049 482.878,275.099 482.949,275.099 C483.02,275.099 488.541,275.241 488.541,275.241 C488.541,275.241 490.169,274.958 490.239,273.684 C490.31,272.41 490.381,266.393 490.381,266.393 C490.381,266.393 490.381,264.766 488.753,264.695 z" fill="#ECB021"/>
    <path d="M523.01,259.103 C523.01,259.103 537.308,260.236 537.308,260.236 C537.308,260.236 546.438,275.524 546.438,275.524 C546.438,275.524 546.934,282.744 546.934,282.743 L537.095,282.743 C537.095,282.744 536.246,277.223 536.246,277.223 C536.246,277.223 528.531,277.294 528.531,277.293 C528.531,277.294 528.885,282.39 528.885,282.39 C528.885,282.39 518.905,282.036 518.905,282.036 C518.905,282.036 517.985,270.499 517.985,270.499 C517.843,270.428 523.01,259.103 523.01,259.103 z M530.938,265.969 C530.938,265.969 530.017,266.04 530.017,266.039 C530.017,266.11 528.248,268.021 528.248,268.021 C528.248,268.021 528.46,270.64 528.46,270.64 C528.46,270.64 534.406,270.853 534.406,270.852 C534.406,270.853 530.938,265.969 530.938,265.969 z" fill="#ECB021"/>
    <path d="M563.921,279.063 C563.921,279.063 565.407,284.371 566.681,285.079 C567.955,285.787 577.535,285.451 577.535,285.451 C577.535,285.451 584.239,285.506 586.234,285.246 C587.817,285.039 588.821,284.088 589.065,282.907 C589.311,281.717 589.331,280.125 588.977,279.063 C588.623,278.001 587.632,275.807 586.995,275.312 C586.358,274.816 585.013,273.613 584.235,273.259 C583.456,272.905 580.908,271.914 580.342,271.773 C579.776,271.631 577.298,271.136 576.52,270.994 C575.741,270.853 574.75,270.64 573.901,270.569 C573.052,270.499 571.955,269.696 573.473,269.367 C575.109,269.014 577.371,269.203 578.561,269.203 C579.958,269.203 582.09,269.326 582.459,269.326 C582.828,269.326 584.51,269.572 584.141,268.177 C583.772,266.782 583.402,265.755 583.115,265.182 C582.623,264.197 582.5,263.459 581.802,263.336 C581.105,263.213 578.11,263.008 576.592,262.802 C575.896,262.708 570.437,262.228 568.591,262.187 C567.606,262.165 566.006,262.351 564.241,262.925 C563.578,263.141 561.821,264.362 561.369,265.551 C561.023,266.463 561.13,267.846 561.164,268.711 C561.205,269.737 561.591,271.447 562.026,272.034 C562.723,272.978 564.652,274.414 565.308,274.66 C565.965,274.906 569.78,276.014 570.396,276.219 C571.011,276.424 574.007,277.04 574.622,277.122 C575.237,277.204 576.181,277.204 576.674,277.532 C577.166,277.861 578.971,279.461 577.248,279.584 C575.525,279.707 574.991,279.748 574.458,279.666 C573.925,279.584 573.391,279.297 573.022,278.886 C572.653,278.476 572.612,278.312 571.996,278.312 C571.381,278.312 565.062,278.23 565.062,278.23 C565.062,278.23 563.97,278.173 563.921,279.063 z" fill="#ECB021"/>
  </g>
</svg>
