<?xml version="1.0" encoding="utf-8"?>
<!-- Generator: Adobe Illustrator 22.0.0, SVG Export Plug-In . SVG Version: 6.00 Build 0)  -->
<svg version="1.1" id="Layer_1" xmlns="http://www.w3.org/2000/svg" xmlns:xlink="http://www.w3.org/1999/xlink" x="0px" y="0px"
	 viewBox="0 0 1500 1000" style="enable-background:new 0 0 1500 1000;" xml:space="preserve">
<style type="text/css">
	.st0{fill:#5EED6B;}
	.st1{fill:#2E1500;}
	.st2{fill:#E5E5E5;}
</style>
<path class="st0" d="M282.1,375.8c-6.4-1.4-20.8-0.8-20.8-0.8s-4.6,0.1-9.6,0c-5.1-0.1-17.5,0.4-27.7,2s-19.1,3.7-29.6,5.9
	c-10.6,2.2-19.2,3.8-23.8,5.6c-24.1,2.4-34.3,5.4-34.3,5.4s-9.3,0.9-15.2,1.7c-6,0.8-12.9,1.9-24.8,3.9c-11.9,2-17.2,3.4-22.8,5.4
	c-5.6,2-15.1,7.5-23.4,14.8c-8.3,7.2-10,9.8-15.8,18.7c-5.8,8.9-7.4,20.1-7.4,20.1l-1,229.6c0-0.1,0.1,2.5,0.4,4.9
	c0.4,2.4,1.7,5.8,6.3,10.7c4.5,4.9,15.2,16.5,29.2,28.5c14,12.1,20.1,14.2,28.9,15.2c8.9,0.9,17.1,0.3,34.2-2.5
	c17.2-2.9,23.5-2.7,34.5-9.3c11-6.6,15.1-11.9,21-20.7c5.9-8.8,5.7-14,5.7-14l-0.5-28.4c0,0,35.8,28.1,45.6,34.3
	c9.8,6.1,15.6,8.8,22.6,11.4c7,2.6,15.5,1.8,26.5,0.3c11-1.5,28.5-5,41.8-7.4s20-3.9,22.7-5.2c2.7-1.3,3.4-2.7,3.4-2.7
	s6.5,0.4,20.5-0.5c14.1-0.9,22.3-3.6,31.4-5.5c9.1-1.9,19-7,26.5-13c7.5-6,9.4-9.7,12.1-14.5c2.7-4.8,3.7-7.9,4.2-11
	c0.5-3.1,0.9-5.7,0.8-9.7c-0.1-3.9-0.4-6.6-0.7-9.7c-0.3-3.1-0.5-4.9-0.5-4.9l1.5-1.3c0,0,9.9-2.5,16.8-3.8c6.9-1.3,12-1.8,12-1.8
	s2.2,2.8,4.4,5.5c2.2,2.7,5.5,6.7,11.9,12.6c6.4,5.9,12.4,11.2,17.3,14.9s12.8,7.7,18.2,9c5.4,1.2,7.5,1.2,7.5,1.2s0.1,10.3,0.1,13
	c0,2.7,1.8,10.9,3.9,15.3c2.1,4.4,6.6,10.7,14.2,16.9c7.6,6.2,14.7,9.8,18.9,10.6c4.2,0.8,14.2,0.3,20.4-0.7c6.2-1,14.5-3.3,20-5.9
	c5.5-2.6,10.8-6.4,16.2-12c5.4-5.6,6-8.7,6-8.7s8.6,8.3,12,10.2c3.3,1.9,7.6,2.3,14.2,2.4c6.6,0.2,9.2,0,16.8-1s9.9-2.3,13.8-3.7
	c3.9-1.4,4.7-2.7,5.7-3.7c1-1.1,1.4-1.7,1.4-1.7s0.6,0.3,1.4,0.9c0.9,0.6,2.9,1.1,7.2,1.2c4.3,0.1,6.2,0.3,15.1-1.1
	c8.9-1.3,10.9-1.6,17-4c6-2.4,8.1-3.7,10.8-6c2.8-2.3,3.9-3.5,3.9-3.5s2.3,1.3,5.7,2.5c3.4,1.2,7.5,2.2,15.2,1.6
	c7.8-0.6,14-2.1,19.1-3.5c5.1-1.4,8-3.2,8-3.2s7.3,0.7,16-0.6c8.7-1.2,17.1-3.9,23-7.1s8.1-5.8,9.8-7.8c1.7-2,1.7-4.6,1.7-4.6
	l2.5-0.2c0,0,3.1,2.3,6.5,4.2c3.5,1.9,9.3,3.2,22.9,3.1c13.6-0.1,19.7-1.1,34.2-7.3c14.5-6.2,19.2-10.8,28.3-19.5
	c9.1-8.6,11.3-16.1,12.7-20.9c1.4-4.8,1.3-6.7,1.5-11.9c0.2-5.2,0-16.4,0-16.4s18.1-2.3,34.8-4.8c16.7-2.5,37.4-6.6,51.5-8.7
	c14.1-2.2,31.5-6.6,41.7-10.8c10.2-4.2,11.9-5.7,16-8.5c4-2.7,5.6-4.2,6.3-6.1c0.8-1.9,1.6-2.5,2.4-2.6c0.8-0.1,1.2,1,2.8,2.3
	c1.5,1.3,5,4.4,7.1,5.6c2.1,1.2,6.8,1.6,15.7,1.6c8.9,0,21.2-1.8,32.4-4s20.2-3.8,29.4-8.5c9.3-4.7,13.6-9.1,20.3-18.1
	c6.7-9,7-15.9,7-15.9l0.3-33.7c0,0,1.1,1.7,3.2,5.1c2.1,3.5,7.2,8.9,11.2,13.6c4,4.6,12.7,13,17.6,17.4c5,4.4,12.6,8.9,17.3,11.3
	c4.7,2.4,12,5.2,17,5.7c5,0.4,15-0.8,29.4-2.8c14.4-2,22.4-3,32.6-7.8c10.2-4.7,15.4-10.7,21.8-17.6c6.4-6.9,7.1-16.4,7.1-16.4
	L1384,340c0,0,15.4-2,26.4-3.7c10.9-1.7,16.3-3.1,24.3-5.3c8-2.1,13.7-5.2,19.9-9.7c6.2-4.6,7.8-7.4,11.6-12.3
	c3.8-4.9,5.1-8.7,6.5-12.2c1.4-3.5,1.3-7.8,1.3-7.8s-0.9-63.2-0.9-63.3c0-0.1-6-10.4-10.5-15.7c-4.5-5.2-8.6-9.3-16.6-15.6
	c-8.1-6.3-15-11.7-21.5-15.8c-6.5-4.1-11.2-6.6-18-7c-6.9-0.4-12.8,0.1-21.5,0.6c-8.6,0.5-19,3.5-35.4,6.5c-16.4,3-25,4.4-35.6,7.1
	c-10.6,2.7-14.8,3.7-14.8,3.7l-6.5-0.1c-26,1.5-30,3.7-38,5c-7.9,1.3-15.2,3.8-19.4,4.7c-4.2,0.9-11.6,2.5-22.3,4.8
	c-10.7,2.3-27.7,4.5-33,5.1c-5.3,0.6-9.2,1.1-11.6,2.7c-2.4,1.6-7,3.8-11.1,3.9c-4.1,0.2-10.7,0.4-22.8,1.5
	c-12.1,1.1-22.3,2.1-27.6,2.9c-5.4,0.8-10.1,3.2-19.8,8.8c-9.7,5.6-19.8,11.3-23.8,14.4c-4,3.1-7.1,4.5-8.6,4
	c-1.5-0.5-2.7-2.1-8.2-4.5c-5.6-2.4-10.5-2.8-19.9-3.3c-9.4-0.5-17-0.2-27.3,1.1c-10.3,1.3-17.3,2.6-25,4.6
	c-7.8,2.1-10.9,2.4-10.9,2.4l0.5,0l-10.6,1.8l-25.4,4.4l-8.2,1.4l-4.6,0.8l4.6-0.8c4.3-0.7,1.5-0.3,8.2-1.4c8.5-1.5,17-2.9,25.4-4.4
	c3.4-0.6,6.8-1.2,10.1-1.8l-532.3,93c0,0-4.5,0-11.2,1.3c-6.7,1.3-9.8,2.4-22.1,7.6c-12.3,5.1-21.1,10.6-34.6,19.8
	c-13.5,9.2-19.9,16.2-26.8,23.4c-6.9,7.1-10,11.3-10,11.3c0,0-9.3-6.7-14.4-10.4c-5.1-3.8-8.6-6.6-11.3-8.2
	c-6.5-1.6-7.6-4.3-7.6-4.3"/>
<path class="st1" d="M894.1,273.5l-454.6,77.7C439.5,351.2,890.5,274.7,894.1,273.5z M894.1,273.5c2.7-0.3,7.5-1.4,21-4.5
	c13.5-3.1,22.5-5.5,46.8-9.6c24.3-4.2,31-6.9,48.4-7.8c17.4-0.9,29.1,0.1,34.3,2.1c5.2,2.1,13.6,6.5,18.6,9.8s7.9,6.2,8.9,8.1
	s2.4,3.2,3.3,3.2c0.9,0,1.8-0.8,1.8-1.8c0-1-0.6-5.5-0.4-7.9c0.2-2.4,1.2-4.5,4.3-8.6c3.1-4.1,9.1-11.8,13.5-15.3
	c4.4-3.4,7.3-5.6,19.6-7.7c12.4-2,21.4-4.5,31.4-4.8c10-0.3,19.4-0.2,19.5-0.2c0.1,0,4.2-3.7,7.8-5.1c3.6-1.3,9-1.7,13.9-2.1
	c4.9-0.4,10.3-2.5,21.7-4.6c11.4-2.1,15.4-3.6,29.5-6.1c14.1-2.5,18.4-3.3,33.3-6c14.9-2.7,22.4-3.8,43-7.6
	c20.6-3.7,32.3-5.9,51.6-9.1c19.2-3.3,30.1-3.9,36.4-3.7c6.3,0.2,13.5,3.8,20.5,8.8c7,5,11.8,8.6,17.9,13c6.1,4.5,12,10.8,15.2,16
	c3.2,5.3,5.3,9.9,5.3,9.9l0.8,57.6c0,0-0.9,3.6-3.6,7.4c-2.6,3.8-4.7,8-9.8,11.8c-5.1,3.9-9.1,6.8-17.5,9.4
	c-8.4,2.6-12.2,2.9-23.5,4.6c-11.3,1.8-36,4.9-36,5v162.1c0,0-0.5,4.3-2.7,7.9c-2.2,3.5-5.9,8.4-8.2,10.1c-2.3,1.7-7.5,5.5-12.5,7.8
	c-5,2.3-11.5,5-19.7,6.3c-8.2,1.4-13.5,1.9-22.2,2.4c-8.7,0.5-14.1-0.1-20.9-2.3c-6.9-2.2-14-6-17.9-9.5c-4-3.4-15.2-14-20.1-19
	c-4.9-5-7.3-7.9-8.6-10.6c-1.3-2.7-2.4-7-2.3-10.3c0.1-3.2-0.2-116.6-0.2-116.6s0.1-2-0.1-3.1c-0.2-1.1-0.9-1.9-1.6-2
	c-0.7-0.1-1.9-0.1-2.5,0.4c-0.6,0.5-1.1,1.1-1.4,1.6c-0.3,0.6-0.6,1-1.7,1c-1.1,0-12.4,0-12.4,0s-1.7,0-2.3,0.4
	c-0.6,0.4-0.8,1.1-0.8,2.5c0,1.5,0.2,156.8,0.2,156.8s-0.1,3.3-0.8,5.1c-0.7,1.8-1.7,5-4,8s-6.3,9.6-11.1,12.7
	c-4.8,3.1-11.9,6.6-17.2,7.7c-5.3,1.1-17.8,4.3-24.4,4.7c-6.6,0.4-24.6,1.2-28.5,0.2c-4-1-8.8-3.8-10.5-5.1c-1.7-1.3-3.2-4-5.4-4
	c-2.2,0-3.6,0.9-5.4,2.7c-1.9,1.8-7.2,6.8-13.6,10.4c-6.4,3.6-13,6.6-21.6,9.2c-8.6,2.7-26,6.7-36.5,8.5c-10.4,1.7-34.2,5.9-53,8.8
	c-18.8,2.9-33.1,4.6-33.1,4.6s-0.6,7-0.5,13.8c0.1,6.8,0.4,16.1-1,19.1c-1.3,2.9-4,11-10.6,17.3c-6.6,6.3-10.3,11.4-24.4,17.2
	c-14.1,5.8-17.9,6.1-29.9,6.2c-12,0.1-16.7-0.9-20.1-2.6c-3.3-1.7-12.7-8-12.7-8l-1.8,0.4c0,0-0.2,2.8-2.7,6
	c-2.5,3.2-4.9,6.5-10.2,9.9c-5.3,3.4-8.6,3.9-16.1,5.7c-7.6,1.8-11.1,1.3-17.1,1.9c-6,0.6-5.4,1.6-11.9,2.9
	c-6.5,1.3-12.9,3.4-20.1,3.8c-7.2,0.4-10-0.4-12.5-1.6s-7.6-4.3-7.6-4.3s-2.6,1.5-3.8,3.1c-1.2,1.7-2.8,3.2-5.9,5
	c-3.1,1.8-6.7,3.8-11.9,5.4s-9.8,2.5-16,2.6c-6.1,0.1-9.4,0.4-11.2-0.1c-1.8-0.6-4-2.1-4.8-2.6c-0.8-0.6-2.2-0.9-3.3,0.2
	c-1.1,1-2.5,4.1-6.1,5.9s-8.6,3.4-13.5,4.3c-4.9,0.9-8.2,0.7-15.2,0.3c-7-0.3-10.5-0.7-13-3c-2.5-2.3-6.1-5.5-9-9
	c-3-3.5-4.5-5.7-5.1-6.5c-0.6-0.8-2.2-2.3-2.7-1c-0.5,1.2-1.2,5.1-2.2,8.3s-3.5,7.7-7.6,11.4c-4.1,3.8-9.2,7.4-15.7,9.7
	c-6.5,2.3-9.2,3.2-17.4,4.4c-8.2,1.2-12.9,0-17.9-2.2c-5-2.2-9.4-5.9-13.1-10.1c-3.7-4.2-6.8-7.5-7.9-15.1
	c-1.1-7.6-1.7-13.1-1.3-18.6c0.5-5.5,0.8-9.1,0.8-9.1l-16.1,0c0,0-2.4-0.5-7.7-3.5c-5.3-2.9-9.7-5.4-15.5-10.2
	c-5.8-4.8-13.2-11.5-17-15.6c-3.8-4.1-5.8-6.5-7.5-9.1c-1.7-2.6-4-5.1-4-5.1s-2.1,0.3-7.9,1.2c-5.8,0.9-12.7,2.1-19.6,3.4
	s-12.6,3-15.4,3.8c-2.8,0.8-4.3,1.7-4.3,1.7l0,32.8c0,0,0.4,3.6-2.9,7.7c-3.3,4.1-6,7.8-10.7,11c-4.7,3.2-9.3,6.3-16.4,8
	c-7.1,1.8-17.2,4.5-28.3,5.6c-11,1.1-15.2,1-18.3,0.6c-3.1-0.4-5.6-1.2-5.6-1.2s-2.7,2.1-6.5,4c-3.8,1.9-14.1,4.9-20,5.4
	c-5.9,0.5-10.8,0.4-19.4,2.4c-8.6,2-16.3,3.9-22.6,5c-6.3,1.2-11.6,1.7-16.7,1c-5.1-0.6-8.3-1.8-14.7-5.1c-6.4-3.3-11.2-6.4-21.2-13
	c-10-6.6-23.9-16.1-33.7-23.2c-9.8-7.1-13.5-10.4-15-11.8c-1.5-1.4-3.2-2.7-3.2-2.7l-0.2,47.6c0,0-0.4,3.5-3.1,7.9
	c-2.7,4.5-4.3,7.6-7.9,11.2c-3.7,3.6-5.3,5.3-12.8,8.5c-7.4,3.2-12.9,4.7-24,6.4c-11.1,1.8-21.3,3.2-28.1,3
	c-6.8-0.2-15.6-2-21.9-6.4c-6.2-4.5-14.8-12.1-21.5-18.6c-6.7-6.5-14.6-14.4-15.7-17.9c-1.2-3.6-2.9-8.7-3-17.6
	c-0.1-8.9,0.9-215.6,0.9-215.6s0.7-4.3,3.9-10.4c3.2-6.1,5.3-9.5,10.2-15c5-5.5,8.6-9,15.1-13.2s12.1-7.8,23.7-9.7
	c11.6-1.8,17.2-2.7,37.3-6.4c20.2-3.6,30.7-6.2,48.9-9.3s45.3-8.7,53.4-9.4c8-0.7,20.7-1.3,31.6-1.3s16.1,0,18.7,1.4
	c2.6,1.4,13.4,6.8,19.3,11c5.9,4.2,11.6,8.4,17.4,13.1c5.8,4.7,9.5,8.2,9.5,8.2l1,2.4l1.4-3.1c0,0,0.7-2.7,3.6-5.9
	c2.9-3.2,6.7-7.2,15.3-15.5c8.5-8.3,17.4-15.8,28-22c10.6-6.2,20.8-12,29.9-15.4c9.1-3.4,18.5-6,23.7-7c5.3-1.1,9-1.6,9-1.6
	L894.1,273.5z"/>
<path class="st2" d="M72.9,681.3l-0.2-210.6c0,0,0.2-3.9,1.7-7c1.6-3.1,3.3-5.4,5.7-7.5c2.4-2.1,4.3-3.6,8-5.5
	c3.7-1.9,6.2-2.4,11.7-3.4c5.5-0.9,7.6-1.6,14.8-2.9c7.2-1.3,16.4-3.1,26.6-4.9c10.3-1.7,26.4-4.2,40.7-6.8
	c14.3-2.6,37-6.8,50.1-9.1c13.1-2.3,19.4-3.1,26.8-3.1c7.4,0,10.4,0,14.2,2.5c3.9,2.4,5.1,3.4,7.8,5.6c2.7,2.2,4,3.3,5.9,5.6
	c1.8,2.3,2.4,3,3.9,5.9c1.5,2.9,2.5,4.7,3.7,8.1c1.2,3.4,2,4.3,2.1,8.2c0.1,3.9,0.1,44.7,0.1,44.7s0.1,5.8-1.6,12.1
	c-1.7,6.3-3,10.7-4.9,15.7c-1.9,5-6,11.5-10.4,17.5c-4.4,6-9.7,11.4-16.3,16.5c-6.7,5.1-11.7,8.6-18.2,11.5
	c-6.5,2.9-18.7,5.9-18.7,5.9s2.2,2,5.5,4.4c3.3,2.4,6.6,4.4,12,8.1c5.4,3.7,18.5,13.1,26,18.3c7.5,5.2,17.1,12.1,22.5,15.7
	c5.4,3.6,8.1,5.8,10.3,7.1c2.2,1.3,3.4,2.4,3.4,3.3c0,1-0.4,3.4-3.7,4.1c-3.3,0.7-20.3,3.9-31,5.6c-10.8,1.7-16.6,2.8-19.6,3.4
	c-3,0.5-4.6,1-6.7,1c-2.2,0-4.7-0.1-7.1-1.9c-2.4-1.7-10.1-7.5-15.7-11.4c-5.6-4-23.3-16.2-32.4-22.6c-9.1-6.4-20.3-14.6-23.8-17.1
	c-3.4-2.5-5-4.9-6.2-5.3c-1.3-0.3-3.2-0.7-6,0c-2.8,0.7-9.2,1.4-13.6,2.8c-4.4,1.3-6.3,1.7-7.8,1.7c-1.6,0-3.5-1.3-3.8-2.3
	c-0.3-1-0.5-3.1-0.5-6c0-3,0-30.4,0-30.4s-0.1-2.2,0.9-3.6c0.9-1.3,1.6-1.8,4-2.2c2.4-0.4,21.9-4.2,31.6-5.7
	c9.7-1.6,23.9-3.5,37.3-6.2c13.4-2.7,20.4-4,26.3-7.1c6-3.1,9.5-5.1,14.3-9.4c4.8-4.4,6.9-7,9.1-13.2c2.2-6.2,2.4-11.3,2.5-18.8
	c0.1-7.5,0.5-13.3,0.2-17.1s-0.3-7.9-2.6-8.8c-2.3-0.9-4.5-1.6-7.9-1.1c-3.3,0.5-8.2,1-18.9,3c-10.6,2-14.4,2.8-28.1,5.1
	c-13.7,2.3-31,5.9-45.3,8.5c-14.3,2.6-22.3,3.8-27.4,4.5c-5.1,0.8-8.1,1.1-8.2,6.9c-0.1,5.7-0.2,174.1-0.2,174.1s0,3.9-0.5,4.4
	s-1.9,1.5-4.2,2.3c-2.3,0.8-14.2,3.5-19.8,4.5C85.8,679.8,72.7,681.3,72.9,681.3z"/>
<path class="st2" d="M510,418.7l-0.8,0.1c-1.2,0.3-14.8,2.3-26.4,4.7c-11.6,2.4-34,5.5-42.1,8.1c-8.1,2.6-15.5,4.9-21.6,8.3
	c-6.1,3.4-11.3,6.7-16.3,10.9c-5.1,4.3-10.2,8.8-13.3,13.8c-3.1,5-7.4,10.8-10.2,17.8c-2.8,7-4.5,13.6-5.3,20.5
	c-0.8,6.9-0.7,14.9-0.8,19c-0.1,4.1-0.6,6.5,0.4,7c1,0.4,3.6,0.6,3.7,0.6c6.4-1.2,12.7-2.7,21-4.4c8.3-1.6,20.7-3.7,34.8-6.4
	c14.1-2.6,25.5-4.6,39.8-7.1c14.2-2.6,19.4-3.6,26.3-4.6c6.8-1,12.8-1.5,12.8-1.5l0-83.9c0,0-0.1-1.4-0.4-2.1
	C510.9,418.8,511.3,419.2,510,418.7z M536.2,371.5l3,0.1c3.9,0.3,6.4,0.6,8.5,2.6c2.1,2,4.8,5.4,5.8,7.3c1,1.9,2.2,4.4,2.2,10.1
	s-0.1,197.3-0.1,197.3s0.2,2.5-0.3,3.7c-0.5,1.2-1.1,2.4-2.1,3.3c-0.9,0.8-2,1.5-4.5,2.1c-2.4,0.6-31.2,5.4-31.2,5.4
	s-1.8,0.1-2.9-0.2c-1.1-0.3-2.1-1.2-2.4-2.1c-0.4-0.8-0.6-1.8-0.6-5.5c0.1-3.7,0.1-46,0.1-46s-0.1-1.1-0.3-1.4
	c-0.2-0.3-0.9-0.6-1.7-0.4c-0.8,0.1-1.7,0.4-3.2,0.9c-1.5,0.5-20.5,4.6-29.1,6.2c-8.6,1.6-23.2,4.4-43.1,8
	c-19.9,3.6-46.2,7.9-51.7,8.7c-5.5,0.8-10,0.2-10,9.8c0,9.7,0.1,43,0.1,43s0.1,2.3-0.4,3.1c-0.4,0.9-1.5,1.2-2.9,1.7
	s-2.8,0.7-5.4,1.2c-2.6,0.6-29.3,5.7-29.3,5.7s-1.8,0.1-2.5-0.3c-0.6-0.5-1-0.9-1.1-1.6c-0.2-0.7-0.2-1.8-0.2-1.8V507.9
	c0,0,0.1-7.4,2.6-16.5c2.5-9.1,3.7-12.8,7.8-22.5c4.1-9.7,6.5-14.3,11.7-22.1c5.2-7.9,7.7-12,17.5-21.9c9.8-9.8,17-14.7,29.8-21.9
	c12.8-7.1,23.4-11,38.2-14.4c14.7-3.4,33.2-6.9,49.2-9.4c15.9-2.6,29-5.6,36.3-6.5C528.1,372.1,532.1,371.8,536.2,371.5z"/>
<path class="st2" d="M756.2,376.6c-1.8,0-3.2,0-6.7,0.9c-3.5,0.8-24.3,4.3-45.5,7.9c-21.2,3.7-49.4,8.8-53.6,9.5
	c-4.2,0.7-6.2,1-6.8,1.5c-0.6,0.5-1.4,1.8-1.4,5.5c0,3.7,0,132,0,132s-0.3,3,0.7,3c1,0,3.4-0.5,6.7-1.4c3.3-0.9,18.5-3.8,28.3-5.8
	c9.8-2,21.3-4.2,41.6-7.8c20.2-3.7,34.9-5.9,42.2-7c7.2-1.1,11.4-1.6,13.1-2.5c1.7-0.9,3.8-3.3,4.3-6.4c0.5-3.1,1-7.6,0.4-10.8
	s-1.9-7.5-3.6-11c-1.7-3.4-4.5-7-7.6-8.9s-7.8-4.6-11.3-4.9s-8.7-0.9-16.6,0.5c-7.9,1.4-29.5,5.2-42.7,7.4s-28,5.1-33.2,6.4
	s-7.2,2.4-8.2,1.7c-1-0.7-1.1-2.4-1.1-2.4l-0.4-38.9c0,0-0.2-1.9,1.1-2.8c1.3-0.9,2.3-1.3,4.6-1.6c2.3-0.4,12.9-2.1,20.9-3.3
	c8-1.2,16.1-2.6,27.5-4.5c11.4-1.9,20.2-3.1,26.5-5.3c6.3-2.2,9-4,13-7.4c4-3.4,5.8-5.6,8.2-9.8c2.4-4.2,4.4-8.6,5-14.1
	c0.6-5.5,0.4-10.5,0.3-12.4c-0.1-2-0.1-3.7-1.3-4.9C759.3,377.6,758,376.6,756.2,376.6L756.2,376.6z M764.5,331.2
	c6,0.2,11.2,1.2,15.8,2.8c4.6,1.5,9,4.7,13,8.2c4,3.5,5.5,6.8,8.4,11.8c2.9,5,3.2,9.7,3.4,16.5c0.2,6.8,0.2,10.5,0.2,17.9
	c-0.1,7.4-1.5,14.1-3.9,21.4c-2.4,7.3-4.5,11-6.4,14.5c-2,3.5-3.7,6.3-3.7,6.3c0,0,6.1,3.8,9.9,6.7c3.8,2.9,6.4,6,10.1,10.4
	c3.7,4.4,5.3,8.4,7.8,13.9c2.5,5.5,3.3,9.1,3.8,13.6c0.5,4.5,0.3,9.9,0.5,16.8c0.2,6.8-0.5,12.8-1.4,18.6c-0.9,5.8-2.2,9.9-5.5,15.5
	c-3.3,5.5-4.5,8.1-9.7,13.4c-5.2,5.4-7.5,7.2-14.3,11.3c-6.8,4.2-12.1,5.6-16.6,6.5c-4.6,0.9-7.9,0.8-14.8,2
	c-6.7,1.1-11.2,1.7-15.8,2.5c-4.3,0.7-8.1,1.6-14.2,3c-5.6,1.3-9.3,1.8-16,2.9c-6.2,1-14,1.6-23.6,2.9c-9.6,1.3-14.2,2.4-22.4,4
	c-7.9,1.5-21.5,4.9-30.2,6.4c-8.7,1.5-15.8,2.8-20.5,2.8c-4.7,0-6.7,0-9.3-0.9c-2.7-0.9-4.2-2.2-6.2-4.8c-2-2.5-3.5-5.5-4.3-7.8
	c-0.8-2.3-0.6-5.6-0.6-5.6c0,0,0.1-180.3,0.1-180.3c0,0,0.1-5.4,0.9-8.5c0.8-3.1,2.3-5.7,4.5-8.8c2.2-3.1,5.9-6.3,9.8-8.8
	c3.9-2.4,9.7-3.4,19.1-4.9c9.4-1.5,36.6-6.1,55.9-9.7c19.3-3.6,43.6-7.6,54.1-9.7C752.8,332.2,758.5,331.1,764.5,331.2z"/>
<path class="st2" d="M1013.3,331.6c-1.8,0-3.2,0-6.7,0.9s-24.3,4.3-45.5,7.9c-21.2,3.7-49.4,8.8-53.6,9.5c-4.2,0.7-6.2,1-6.8,1.5
	c-0.6,0.5-1.4,1.8-1.4,5.5c0,3.7,0,132,0,132s-0.3,3,0.7,3c1,0,3.4-0.5,6.7-1.4c3.3-0.9,18.5-3.8,28.3-5.8c9.8-2,21.3-4.2,41.6-7.8
	c20.2-3.7,34.9-5.9,42.2-7c7.2-1.1,11.4-1.6,13.1-2.5c1.7-0.9,3.8-3.3,4.3-6.4c0.5-3.1,1-7.6,0.4-10.8c-0.6-3.2-1.9-7.5-3.6-11
	c-1.7-3.4-4.5-7-7.6-8.9c-3.1-2-7.8-4.6-11.3-4.9c-3.5-0.3-8.7-0.9-16.6,0.5s-29.5,5.2-42.7,7.4c-13.2,2.2-28,5.1-33.2,6.4
	c-5.2,1.3-7.2,2.4-8.2,1.7c-1-0.7-1.1-2.4-1.1-2.4l-0.4-38.9c0,0-0.2-1.9,1.1-2.8c1.3-0.9,2.3-1.3,4.6-1.6
	c2.3-0.4,12.9-2.1,20.9-3.3c8-1.2,16.1-2.6,27.5-4.5c11.4-1.9,20.2-3.1,26.5-5.3c6.3-2.2,9-4,13-7.4c4-3.4,5.8-5.6,8.2-9.8
	c2.4-4.2,4.4-8.6,5-14.1c0.6-5.5,0.4-10.5,0.3-12.4c-0.1-2,0-3.7-1.3-4.9C1016.4,332.6,1015.1,331.6,1013.3,331.6z M1021.5,286.2
	c6,0.2,11.2,1.2,15.8,2.8c4.6,1.5,9,4.7,13,8.2c4,3.5,5.5,6.8,8.4,11.8c2.9,5,3.2,9.7,3.4,16.5c0.2,6.8,0.2,10.5,0.2,17.9
	c-0.1,7.4-1.5,14.1-3.9,21.4c-2.4,7.3-4.5,11-6.4,14.5c-2,3.5-3.7,6.3-3.8,6.3c0,0,6.1,3.8,9.9,6.7c3.8,2.9,6.4,6,10.1,10.4
	c3.7,4.4,5.3,8.4,7.8,13.9c2.5,5.5,3.3,9.1,3.8,13.6c0.5,4.5,0.3,9.9,0.5,16.8c0.2,6.8-0.5,12.8-1.4,18.6c-0.9,5.8-2.2,9.9-5.5,15.5
	c-3.3,5.5-4.5,8.1-9.7,13.4c-5.2,5.4-7.5,7.2-14.3,11.3c-6.8,4.2-12.1,5.6-16.6,6.5c-4.6,0.9-8,1.3-15,1.4c-7,0.1-10.9,0.9-15.2,1.8
	c-4.2,0.9-7.5,2.5-13.4,4.2c-6,1.7-10.9,2.4-17.2,2.9c-6.3,0.5-12.5,0.6-22.1,1.5c-9.6,1-16.1,3-23.9,5.3
	c-7.7,2.3-21.5,4.9-30.2,6.4c-8.7,1.5-15.8,2.8-20.5,2.8c-4.7,0-6.7,0-9.3-0.9c-2.7-0.9-4.2-2.2-6.2-4.8c-2-2.5-3.5-5.5-4.3-7.8
	c-0.8-2.3-0.6-5.6-0.6-5.6c0,0,0.1-180.3,0.1-180.3c0,0,0.1-5.4,0.9-8.5c0.8-3.1,2.3-5.7,4.5-8.8c2.2-3.1,5.9-6.3,9.8-8.8
	c3.9-2.4,9.7-3.4,19.1-4.9c9.4-1.5,36.6-6.1,55.9-9.7c19.3-3.6,43.6-7.6,54.1-9.7C1009.8,287.2,1015.5,286.1,1021.5,286.2z"/>
<path class="st2" d="M1117.4,268l35-5.9c0,0,1.5-0.1,1.9,0.5c0.3,0.7,0.8,1.5,0.8,3.1s0,219,0,219s0.1,2.2-0.3,2.9
	c-0.4,0.7-1.2,1.5-2.5,2.2c-1.3,0.7-4.3,1.7-7.4,2.3c-3.1,0.6-28.6,5-28.6,5s-2.5,0.1-3.4-1c-0.9-1-1.3-2.3-1.6-4.1
	c-0.3-1.7-0.4-3.8-0.3-6.1c0.1-2.3-0.1-211.3-0.1-211.3s0.1-2.7,1-3.6c0.9-0.9,1.7-1.6,2.8-2.1C1115.6,268.5,1117.4,268,1117.4,268z
	"/>
<path class="st2" d="M1181.3,297.2l-0.1-35.4c0,0,0-1.8,0.3-2.7c0.4-0.9,1.1-1.8,1.6-2.1c0.6-0.4,1.6-0.9,2.6-1.2
	c1-0.3,7.3-1.5,14.6-2.8c7.3-1.2,21.8-3.6,31-5.2c9.3-1.6,21.8-3.7,36.4-6.3c14.6-2.5,29.8-5.2,47.2-8.4c17.4-3.2,40.3-6.8,55.8-9.7
	c15.5-2.9,22.1-4.4,24.1-4.8c2-0.3,4.4-0.5,5.4,0.4c1,0.9,2.9,2,2.9,5.6c0,3.6,0,32.7,0,32.7s0.1,2.6-0.3,3.1
	c-0.4,0.5-1.4,1.3-3.5,2c-2.1,0.7-21.5,4.6-31.4,6.4c-9.9,1.9-27.4,4.8-36.4,6.3c-9.1,1.5-11.6,2-13.5,2.4c-1.9,0.4-3.6,1.2-3.6,3.2
	c0,2,0,178.7,0,178.7s-0.2,2-1.4,2.6c-1.2,0.6-3.5,1.6-10.2,3.1c-6.8,1.5-15.4,2.7-21.6,3.7c-6.2,0.9-7.6,1-8.6,0.7
	c-0.9-0.3-1.9-1.4-1.9-4.1c0.1-2.6,0.1-178.8,0.1-178.8s-0.1-1.4-1.5-1.3c-1.4,0.1-3.1,0.5-6.5,1.4c-3.4,0.9-14.8,2.9-24.7,4.7
	c-9.9,1.9-26.7,4.9-37.4,6.8s-13.8,2.3-15.3,2.3c-1.5,0-3.1,0-3.5-0.8C1181.4,299.1,1181.3,297.2,1181.3,297.2z"/>
<path class="st2" d="M603.1,626.6c-1.4-0.1-3.2,0.4-4.8,0.8c-1.6,0.4-3.3,2.1-3.3,2.1c0,0-0.2,16.9-0.2,16.9c-0.1-0.2,3,0.3,5,0.1
	c2-0.2,5.2-1.4,7.6-2.9c2.4-1.5,3.6-3.2,4.1-4c0.5-1,0.8-2.5,0.8-3.7c0-1.2-0.2-3-1-4.2c-0.7-1.2-2.2-2.5-3.7-3.5
	C606.1,627.1,604.6,626.7,603.1,626.6z M614.1,616l1.9,0c2.2,0.2,4.4,1,6.7,2.1c2.3,1.1,4.4,2.8,5.6,4.1c1.2,1.4,2.3,2.5,2.5,4.5
	c0.2,1.9,0.3,4.5,0.2,6.2c-0.1,1.6-0.2,5-1.1,6.5c-0.9,1.5-2.4,3.9-6.1,6.8c-3.7,2.9-5.9,3.9-9.9,5.7c-4,1.8-7.7,2.5-11.4,3.4
	c-3.7,0.9-5.5,1.4-6.2,2.2c-0.7,0.8-0.8,3.8-0.9,7.2c-0.1,3.4-0.1,7.5,0,9.4c0.1,1.9,0.2,4.7-1.4,5.3c-1.6,0.6-6,1.6-9.2,2.2
	c-3.2,0.6-5.3,0.7-6.3,0.2c-1-0.5-1.1-2.6-1.1-2.6l0-54c0,0,0.1-1.5,1.7-2.6c1.6-1.1,3.7-1.5,7.5-2.1c3.7-0.7,12.2-2.4,18.2-3.3
	C607.8,616.6,610.9,616.3,614.1,616z"/>
<path class="st2" d="M688.6,623.9c0,0-7.1,19.8-7,19.7l15.7-2L688.6,623.9L688.6,623.9z M697.6,601.5c2.4,0.5,1.6-0.1,2.8,1.1
	c0.7,1.2,6.2,11.6,8,15.3c1.8,3.7,6.9,16.4,9.1,21.3s4.9,12,5.6,13.5c0.7,1.5,1.6,3.3-0.4,4c-2.2,0.7-14.9,3-14.9,3
	s-2.5,0.8-3.3-1.2c-0.7-1.8-1.2-3.8-1.8-5.3c-0.6-1.3-1.2-2.4-3.3-2.3c-2.1,0.1-6.3,0.5-10.6,1.2c-4.2,0.7-6.4,0.8-7.5,1
	c-1.1,0.2-2.6,0.5-3.3,1.9c-0.7,1.3-2.4,4.6-3.5,6.8c-1,2.2-2,5-4.2,5.1c-2.3,0.1-9.8,0.4-9.8,0.4s-3.2,0.5-1.9-2.6
	c0-0.1,22.2-57.8,22.2-57.8s0.6-1.4,1.2-2.2c0.7-0.7,1.6-1.5,2.3-1.8c0.7-0.3,1.8-0.5,3.2-0.7c1.4-0.2,3.2-0.4,4.8-0.5
	c1.7-0.1,3.3-0.2,4.4-0.2L697.6,601.5z"/>
<path class="st2" d="M749.1,592.2c0.1,0,9.2-2.7,11.2-2.8c2-0.1,3.4,0,4.1,0.7c0.7,0.7,2,2,2.5,3.9c0.6,1.8,4.2,13,5.2,15.7
	c1,2.7,3.4,9.8,3.4,9.8s0.3,1.2,1.2,1.3c0.9,0.1,1.4-0.9,1.5-1.7c0.1-0.8,1.3-4.8,2.2-8.8c1-4,3.4-10.6,4.3-13
	c0.9-2.4,1.3-4.1,3.9-4.7c2.7-0.6,5.5-1.6,7.3-2c1.8-0.4,5-2.4,6.5,2.5c1.5,4.8,4.6,14.2,5.5,16.7c0.9,2.5,2.1,5.3,2.1,5.3
	s1.1,3.2,2.1-1c1-4.1,3.4-12,5-17.7c1.7-5.7,4.1-12,4.8-14.3c0.8-2.2,1.6-3.1,4.1-3.3c2.5-0.2,4.9-0.4,6.7-0.5
	c1.8-0.1,4.9-0.4,4.1,2.1c-0.8,2.5-7,21.9-9.7,30.1c-2.7,8.1-5.1,15.8-6.3,20.5c-1.2,4.8-1.5,7.8-4.1,8.7c-2.6,1-5.3,1.9-7.9,2.5
	c-2.5,0.6-5.3,0.5-6.7,0.5c-1.5-0.1-2.5-0.6-3.4-3.4c-0.9-2.8-3.2-9.5-3.8-11.6s-1.6-5.8-1.6-5.8s-0.4-0.4-0.8-0.2
	c-0.4,0.2-0.7,0.5-1.2,2.2c-0.5,1.7-2.3,6.4-3.4,10.5c-1.2,4.1-1.8,6.3-2.3,8c-0.5,1.7-0.8,3.3-4.3,4.2c-3.4,0.8-7,1.5-9.2,1.9
	c-2.2,0.4-5.8,0.8-6.7-1.3c-0.9-2.1-2.9-6.9-5.1-12.7c-2.3-5.8-6.4-16.4-8.8-22.7c-2.4-6.3-4.8-13.3-5.2-14.7
	c-0.4-1.4,0-2.4,0.2-3.2C746.9,593.1,749,592.2,749.1,592.2z"/>
<path class="st2" d="M904.7,583.9c0,0,9.5-4.9,9.5-4.9c0,0,0.1-1.7,0.1-3c0-1.3-0.5-3.2-1.7-4.5c-1.2-1.2-4.3-3.7-7.2-5
	c-2.8-1.2-5.9-1.9-8.9-1.9c-3,0-6.8,0.9-10.1,2.1c-3.3,1.2-7.2,2.6-10.7,4.8c-3.5,2.2-6.4,4.6-8.3,8c-1.9,3.4-2.8,5.9-2.8,9.1
	s0.4,5.9,3.4,8.9c2.9,3,6.1,4,10.1,5.1c4,1.1,7.2,1.9,10.3,2.5s5.6,1.2,6.8,2.2c1.2,0.9,2.2,1.4,2.3,3.4c0.1,2-0.2,4-1.1,4.7
	c-0.9,0.6-2.8,1.8-4.8,2.7c-2,0.9-4.4,1.1-6.7,0.9c-2.3-0.2-4.2-1.1-5.9-2.7c-1.7-1.6-2.2-3.2-2.2-4.5c0-1.3,0.1-2.9,0.1-3.6
	c0-0.7-0.5-1-2.2-1c-1.7,0-3.3,1.2-5.2,2.3s-3.2,1.9-4.5,2.7c-1.3,0.8-2,2.2-2,3.7s0,3.4,1.4,5.5c1.5,2,3.1,3.4,4.8,5
	c1.8,1.7,3.6,2.8,7.4,2.9c3.8,0.1,8.4-0.1,11.8-0.3c3.4-0.1,6.4-0.3,10.4-2.4c4-2.1,8.7-5,12.1-8c3.4-3,6.1-5.5,6.1-9.6
	c0-4.1,0.3-6.4-0.1-8s-1.1-3-2.4-4.6c-1.3-1.6-2.3-3.4-4.9-4.1c-2.6-0.7-5.1-1.5-9.3-1.9c-4.2-0.3-6.3-0.8-8.8-1.5
	c-2.5-0.7-5-2.3-5.5-3.7c-0.5-1.5-0.4-4.4,0.8-5.7c1.2-1.3,3.6-3.2,5.3-3.6c1.7-0.4,4.4-0.7,5.8-0.4c1.4,0.2,2.4,0.7,3,1.8
	c0.6,1.1,1.2,2.6,1.8,3.8C903.2,582.3,904.8,583.9,904.7,583.9z"/>
</svg>
