<?xml version="1.0" encoding="utf-8"?>
<!-- Generator: Adobe Illustrator 22.0.0, SVG Export Plug-In . SVG Version: 6.00 Build 0)  -->
<svg version="1.1" id="Layer_1" xmlns="http://www.w3.org/2000/svg" xmlns:xlink="http://www.w3.org/1999/xlink" x="0px" y="0px"
	 viewBox="0 0 2834.6 2834.6" style="enable-background:new 0 0 2834.6 2834.6;" xml:space="preserve">
<style type="text/css">
	.st0{fill:#919191;}
	.st1{fill:#13284A;}
	.st2{fill:#FFC120;}
	.st3{fill:#FEFFFF;}
	.st4{fill:#FFFFFF;}
	.st5{fill:#FFC42E;}
	.st6{fill:none;stroke:#FFFFFF;stroke-width:25;}
</style>
<path class="st0" d="M51.9,30.6l-0.1,1387.9l1364.8,1385.7l1366.1-1387.3l0.1-1386.5C2782.9,30.4,53,30.5,51.9,30.6z"/>
<path class="st1" d="M117.8,98.5l-0.1,1299.9l1298.9,1297.9l1300.1-1299.4l0.1-1298.6C2716.9,98.3,118.9,98.4,117.8,98.5z"/>
<path class="st2" d="M952.2,1907.3l-0.1,211.4l-211-211.2C740.9,1907.9,952.2,1907.3,952.2,1907.3"/>
<polyline class="st3" points="952.1,2118.7 1038.4,2205.2 1038.4,1907 952.2,1907.3 952.1,2118.7 "/>
<polyline class="st2" points="1121.3,2288 1038.4,2205.2 1038.4,1907 1121.3,1907.3 1121.3,2288 "/>
<polyline class="st3" points="1121.3,2288 1207.6,2374.1 1208,1907.3 1121.3,1907.3 1121.3,2288 "/>
<polyline class="st2" points="1289.2,1907.5 1289.2,2455.7 1207.6,2374.1 1208,1907.3 1289.2,1907.5 "/>
<polyline class="st3" points="1375.2,2542.2 1289.2,2455.7 1289.2,1907.5 1375.7,1907 1375.2,2542.2 "/>
<polyline class="st2" points="1417.3,2584 1375.2,2542.2 1375.7,1907 1459.1,1906.8 1459.1,2542.2 1417.3,2584 "/>
<polyline class="st3" points="1459.1,1906.8 1545.1,1907 1545.1,2456 1459.1,2542.2 1459.1,1906.8 "/>
<polyline class="st2" points="1628.2,2373.1 1545.1,2456 1545.1,1907 1628,1907.3 1628.2,2373.1 "/>
<polyline class="st3" points="1714.4,1907 1714.4,2287.1 1628.2,2373.1 1628,1907.3 1714.4,1907 "/>
<polyline class="st2" points="1797.3,1907 1714.4,1907 1714.4,2287.1 1797.6,2203.2 1797.3,1907 "/>
<polyline class="st3" points="1797.3,1907 1797.6,2203.2 1883.8,2117.7 1883.8,1907 1797.3,1907 "/>
<polyline class="st2" points="2093.5,1907.5 1883.8,2117.7 1883.8,1907 2093.5,1907.5 "/>
<path class="st4" d="M903.4,1842.9l85.5-55l84.9,53.9l-24.8-97.3l77-64.1l-99.1-6.2l-37.5-93l-38.2,93l-99.3,6.2l76.9,64.5
	C928.7,1745,903.5,1842.8,903.4,1842.9z"/>
<path class="st4" d="M1749.2,1842.9l85.5-55l84.9,53.9l-24.8-97.3l77-64.1l-99.1-6.2l-37.5-93l-38.2,93l-99.3,6.2l76.9,64.5
	C1774.6,1744.9,1749.3,1842.7,1749.2,1842.9z"/>
<path class="st4" d="M1302.9,1813.7l109-70.1l108.2,68.8l-31.6-124l98.1-81.8l-126.4-7.9l-47.8-118.5l-48.7,118.5l-126.6,7.9
	l98,82.2C1335.2,1688.8,1303.1,1813.6,1302.9,1813.7z"/>
<path class="st4" d="M2138.9,1801.7c0.1-2-0.1-3.8-0.6-5.2c-0.5-1.4-1.4-2.8-2.6-3.9l-2.8-2.8c-1.1-1.1-2.4-1.7-3.8-1.7
	c-1.4,0-2.7,0.6-3.8,1.7l-6.7,6.7c-1.1,1.1-1.7,2.4-1.7,3.8c0,1.4,0.6,2.7,1.7,3.8l2.9,2.9l-12.7,12.7l-3.6-3.6
	c-2.1-2.1-3.7-4.5-4.8-6.9c-1-2.5-1.6-5-1.6-7.5c0-2.5,0.5-5,1.6-7.5c1-2.5,2.6-4.8,4.8-6.9l10.9-10.9c2.1-2.1,4.5-3.7,6.9-4.8
	c2.5-1,5-1.6,7.5-1.6c2.5,0,5,0.5,7.5,1.6c2.5,1,4.8,2.6,6.9,4.8l4.1,4.1c2.1,2.2,3.7,4.5,4.6,7.1c0.9,2.6,1.4,5.2,1.4,7.7l0.1,37.4
	l0.3,0.3l23.5-23.5l11.4,11.4L2150,1861l-11.4-11.4L2138.9,1801.7z"/>
<path class="st4" d="M2218.5,1769.8c1.1-1.1,1.7-2.4,1.7-3.8c0-1.4-0.6-2.7-1.7-3.8l-29-29c-1.1-1.1-2.4-1.7-3.8-1.7
	c-1.4,0-2.7,0.6-3.8,1.7l-8.9,8.9c-1.1,1.1-1.7,2.4-1.7,3.8c0,1.4,0.6,2.7,1.7,3.8l29,29c1.1,1.1,2.4,1.7,3.8,1.7
	c1.4,0,2.7-0.6,3.8-1.7L2218.5,1769.8z M2218.8,1792.2c-2.1,2.1-4.5,3.7-6.9,4.8c-2.5,1-5,1.6-7.5,1.6c-2.5,0-5-0.5-7.5-1.6
	c-2.5-1-4.8-2.6-6.9-4.8l-30.5-30.5c-2.1-2.1-3.7-4.5-4.8-6.9c-1-2.5-1.6-5-1.6-7.5c0-2.5,0.5-5,1.6-7.5c1-2.5,2.6-4.8,4.8-6.9
	l13.2-13.2c2.1-2.2,4.5-3.7,6.9-4.8c2.5-1,5-1.6,7.5-1.6c2.5,0,5,0.5,7.5,1.6c2.5,1,4.8,2.6,6.9,4.8l30.5,30.5
	c2.1,2.2,3.7,4.5,4.8,6.9c1,2.5,1.6,5,1.6,7.5s-0.5,5-1.6,7.5c-1,2.5-2.6,4.8-4.8,6.9L2218.8,1792.2z"/>
<path class="st4" d="M2249.4,1691.2c0.1-2-0.1-3.8-0.6-5.2c-0.5-1.4-1.4-2.8-2.6-3.9l-2.8-2.8c-1.1-1.1-2.4-1.7-3.8-1.7
	c-1.4,0-2.7,0.6-3.8,1.7l-6.7,6.7c-1.1,1.1-1.7,2.4-1.7,3.8c0,1.4,0.6,2.7,1.7,3.8l2.9,2.9l-12.7,12.7l-3.6-3.6
	c-2.1-2.1-3.7-4.5-4.8-6.9c-1-2.5-1.6-5-1.6-7.5c0-2.5,0.5-5,1.6-7.5c1-2.5,2.6-4.8,4.8-6.9l10.9-10.9c2.1-2.1,4.5-3.7,6.9-4.8
	c2.5-1,5-1.6,7.5-1.6c2.5,0,5,0.5,7.5,1.6c2.5,1,4.8,2.6,6.9,4.8l4.1,4.1c2.1,2.2,3.7,4.5,4.6,7.1s1.4,5.2,1.4,7.7l0.1,37.4l0.3,0.3
	l23.5-23.5l11.4,11.4l-40.2,40.2l-11.4-11.4L2249.4,1691.2z"/>
<polygon class="st4" points="2336.8,1674.2 2324.2,1686.9 2278.2,1641 2277.9,1641.3 2274.4,1662.1 2261.2,1648.9 2264.8,1627.5 
	2277.4,1614.8 "/>
<path class="st4" d="M892.7,1348v14c0,8.2-1.4,15.7-4.1,22.4c-2.7,6.7-6.5,12.5-11.4,17.4s-10.7,8.7-17.4,11.4
	c-6.7,2.7-14.2,4.1-22.4,4.1h-56.9c-8.2,0-15.7-1.4-22.4-4.1c-6.7-2.7-12.5-6.5-17.4-11.4s-8.7-10.7-11.4-17.4
	c-2.7-6.7-4.1-14.2-4.1-22.4v-117c0-8.2,1.4-15.7,4.1-22.4c2.7-6.7,6.5-12.5,11.4-17.4s10.7-8.7,17.4-11.4
	c6.7-2.7,14.2-4.1,22.4-4.1h56.9c8.2,0,15.7,1.4,22.4,4.1c6.7,2.7,12.5,6.5,17.4,11.4s8.7,10.7,11.4,17.4c2.7,6.7,4.1,14.2,4.1,22.4
	v14h-48.8v-11.1c0-4.3-1.4-7.9-4.1-10.6c-2.7-2.7-6.2-4.1-10.6-4.1h-40.6c-4.3,0-7.9,1.4-10.6,4.1c-2.7,2.7-4.1,6.2-4.1,10.6V1359
	c0,4.3,1.4,7.9,4.1,10.6c2.7,2.7,6.2,4.1,10.6,4.1h40.6c4.3,0,7.9-1.4,10.6-4.1c2.7-2.7,4.1-6.2,4.1-10.6V1348H892.7z"/>
<polygon class="st4" points="958.7,1417.2 958.7,1189.7 1007.4,1189.7 1007.4,1281 1083.8,1281 1083.8,1189.7 1132.6,1189.7 
	1132.6,1417.2 1083.8,1417.2 1083.8,1324.6 1007.4,1324.6 1007.4,1417.2 "/>
<path class="st4" d="M1315.6,1373.6c4.3,0,7.9-1.4,10.6-4.1c2.7-2.7,4.1-6.2,4.1-10.6v-111.2c0-4.3-1.4-7.9-4.1-10.6
	c-2.7-2.7-6.2-4.1-10.6-4.1h-47.1c-4.3,0-7.9,1.4-10.6,4.1c-2.7,2.7-4.1,6.2-4.1,10.6V1359c0,4.3,1.4,7.9,4.1,10.6
	c2.7,2.7,6.2,4.1,10.6,4.1H1315.6z M1260.3,1417.2c-8.2,0-15.7-1.4-22.4-4.1c-6.7-2.7-12.5-6.5-17.4-11.4s-8.7-10.7-11.4-17.4
	c-2.7-6.7-4.1-14.2-4.1-22.4v-117c0-8.2,1.4-15.7,4.1-22.4c2.7-6.7,6.5-12.5,11.4-17.4s10.7-8.7,17.4-11.4
	c6.7-2.7,14.2-4.1,22.4-4.1h63.4c8.2,0,15.7,1.4,22.4,4.1c6.7,2.7,12.5,6.5,17.4,11.4s8.7,10.7,11.4,17.4c2.7,6.7,4.1,14.2,4.1,22.4
	v117c0,8.2-1.4,15.7-4.1,22.4c-2.7,6.7-6.5,12.5-11.4,17.4s-10.7,8.7-17.4,11.4c-6.7,2.7-14.2,4.1-22.4,4.1H1260.3z"/>
<path class="st4" d="M1618.8,1348v14c0,8.2-1.4,15.7-4.1,22.4c-2.7,6.7-6.5,12.5-11.4,17.4s-10.7,8.7-17.4,11.4
	c-6.7,2.7-14.2,4.1-22.4,4.1h-56.9c-8.2,0-15.7-1.4-22.4-4.1c-6.7-2.7-12.5-6.5-17.4-11.4s-8.7-10.7-11.4-17.4
	c-2.7-6.7-4.1-14.2-4.1-22.4v-117c0-8.2,1.4-15.7,4.1-22.4c2.7-6.7,6.5-12.5,11.4-17.4s10.7-8.7,17.4-11.4
	c6.7-2.7,14.2-4.1,22.4-4.1h56.9c8.2,0,15.7,1.4,22.4,4.1c6.7,2.7,12.5,6.5,17.4,11.4s8.7,10.7,11.4,17.4c2.7,6.7,4.1,14.2,4.1,22.4
	v14h-48.8v-11.1c0-4.3-1.4-7.9-4.1-10.6c-2.7-2.7-6.2-4.1-10.6-4.1h-40.6c-4.3,0-7.9,1.4-10.6,4.1c-2.7,2.7-4.1,6.2-4.1,10.6V1359
	c0,4.3,1.4,7.9,4.1,10.6c2.7,2.7,6.2,4.1,10.6,4.1h40.6c4.3,0,7.9-1.4,10.6-4.1c2.7-2.7,4.1-6.2,4.1-10.6V1348H1618.8z"/>
<polygon class="st4" points="1829.4,1233.2 1733.6,1233.2 1733.6,1281 1822.9,1281 1822.9,1324.6 1733.6,1324.6 1733.6,1373.6 
	1832.7,1373.6 1832.7,1417.2 1684.8,1417.2 1684.8,1189.7 1829.4,1189.7 "/>
<path class="st4" d="M1925.7,1136.1h44.2l14,18.2l14-18.2h44.2l-30.9,42.9h-54.6L1925.7,1136.1z M1895.4,1417.2v-227.5h48.8
	l75.1,134.2h1.3v-134.2h48.8v227.5h-48.8l-75.1-134.2h-1.3v134.2H1895.4z"/>
<polygon class="st5" points="817.5,715.8 821.3,715.8 985.8,336.3 1124.4,336.3 1124.4,1005.5 981,1005.5 981,641.2 976.2,641.2 
	818.5,1005.5 812.7,1005.5 654,641.2 649.2,641.2 649.2,1005.5 505.8,1005.5 505.8,336.3 654,336.3 "/>
<polygon class="st6" points="817.5,715.8 821.3,715.8 985.8,336.3 1124.4,336.3 1124.4,1005.5 981,1005.5 981,641.2 976.2,641.2 
	818.5,1005.5 812.7,1005.5 654,641.2 649.2,641.2 649.2,1005.5 505.8,1005.5 505.8,336.3 654,336.3 "/>
<path class="st5" d="M1434.1,733c-24.2,0-46.2-4-66-12c-19.8-8-36.8-19.1-51.1-33.5c-14.3-14.3-25.5-31.4-33.5-51.1
	c-8-19.8-11.9-41.7-11.9-66v-71.7c0-24.2,4-46.2,11.9-66c8-19.8,19.1-36.8,33.5-51.1c14.3-14.3,31.4-25.5,51.1-33.5
	c19.8-8,41.7-11.9,66-11.9h153c24.2,0,46.2,4,66,11.9c19.8,8,36.8,19.1,51.1,33.5c14.3,14.3,25.5,31.4,33.5,51.1
	c8,19.8,12,41.7,12,66v41.1h-143.4v-32.5c0-12.7-4-23.1-11.9-31.1c-8-8-18.3-11.9-31.1-11.9H1458c-12.7,0-23.1,4-31.1,11.9
	c-8,8-12,18.3-12,31.1v54.5c0,12.7,4,23.1,12,31.1c8,8,18.3,11.9,31.1,11.9h133.8c24.2,0,46.2,4,66,11.9c19.8,8,36.8,19.1,51.1,33.5
	c14.3,14.3,25.5,31.4,33.5,51.1c8,19.8,11.9,41.7,11.9,66v75.5c0,24.2-4,46.2-11.9,66c-8,19.8-19.1,36.8-33.5,51.1
	c-14.3,14.3-31.4,25.5-51.1,33.5c-19.8,8-41.7,12-66,12h-167.3c-24.2,0-46.2-4-66-12c-19.8-8-36.8-19.1-51.1-33.5
	c-14.3-14.3-25.5-31.4-33.5-51.1c-8-19.8-12-41.7-12-66v-41.1h143.4v32.5c0,12.7,4,23.1,11.9,31.1c8,8,18.3,11.9,31.1,11.9h119.5
	c12.7,0,23.1-4,31.1-11.9c8-8,11.9-18.3,11.9-31.1V776c0-12.7-4-23.1-11.9-31.1c-8-8-18.3-11.9-31.1-11.9H1434.1z"/>
<path class="st6" d="M1434.1,733c-24.2,0-46.2-4-66-11.9c-19.8-8-36.8-19.1-51.1-33.5c-14.3-14.3-25.5-31.4-33.5-51.1
	c-8-19.8-11.9-41.7-11.9-66v-71.7c0-24.2,4-46.2,11.9-66c8-19.8,19.1-36.8,33.5-51.1c14.3-14.3,31.4-25.5,51.1-33.5
	c19.8-8,41.7-11.9,66-11.9h153c24.2,0,46.2,4,66,11.9s36.8,19.1,51.1,33.5c14.3,14.3,25.5,31.4,33.5,51.1c8,19.8,12,41.7,12,66v41.1
	h-143.4v-32.5c0-12.7-4-23.1-11.9-31.1c-8-8-18.3-11.9-31.1-11.9H1458c-12.7,0-23.1,4-31.1,11.9c-8,8-12,18.3-12,31.1v54.5
	c0,12.7,4,23.1,12,31.1c8,8,18.3,11.9,31.1,11.9h133.8c24.2,0,46.2,4,66,11.9s36.8,19.1,51.1,33.5c14.3,14.3,25.5,31.4,33.5,51.1
	c8,19.8,11.9,41.7,11.9,66v75.5c0,24.2-4,46.2-11.9,66c-8,19.8-19.1,36.8-33.5,51.1c-14.3,14.3-31.4,25.5-51.1,33.5
	c-19.8,8-41.7,11.9-66,11.9h-167.3c-24.2,0-46.2-4-66-11.9c-19.8-8-36.8-19.1-51.1-33.5s-25.5-31.4-33.5-51.1c-8-19.8-12-41.7-12-66
	v-41.1h143.4v32.5c0,12.7,4,23.1,11.9,31.1c8,8,18.3,11.9,31.1,11.9h119.5c12.7,0,23.1-4,31.1-11.9c8-8,11.9-18.3,11.9-31.1V776
	c0-12.7-4-23.1-11.9-31.1c-8-8-18.3-11.9-31.1-11.9H1434.1z"/>
<polygon class="st5" points="2329.8,1005.5 1923.5,1005.5 1923.5,336.3 2066.9,336.3 2066.9,877.3 2329.8,877.3 "/>
<polygon class="st6" points="2329.8,1005.5 1923.5,1005.5 1923.5,336.3 2066.9,336.3 2066.9,877.3 2329.8,877.3 "/>
</svg>
